<svg xmlns="http://www.w3.org/2000/svg" width="518.07" height="518.611" viewBox="0 0 518.07 518.611">
    <g data-name="Group 7105" transform="translate(-77.041 -16555.609)">
        <path data-name="Path 3354" d="M195.792 2.219s6.789 50.646-111.952 74.636-46.647 173.189-46.647 173.189-16.706-58.577-21.678-31.921-17.021 105.287-9 145.277c0 0-9.3 75.964 8.021 142.6h66.638l-1.333-125.279s19.873-29 15.856-103.57c0 0 5.135 98.407 49.617 117.4 0 0-28.839-19-25.492 48.812 2.751 55.675 7.965 64.444 7.965 64.444l254.575.653s24.89-134.738 4.944-123.9c-22.089 12-16.633 7.942-16.633 7.942s54.353-7.774 43.688-111.732c0 0 1.333 77.3 27.989 102.625 0 0-12-14.664-12 22.657s-2.666 94.621-2.666 94.621l69.3 1.333s9.332-85.3 0-151.933c0 0 9.332-89.295-11.992-150.6 0 0-10.665 57.182-12 50.579s21.324-63.9 9.332-113.217-42.648-49.313-106.619-73.3-66.629-42.658-66.629-61.316z" transform="translate(93.973 16565.766)" style="fill:#d6f0fc"/>
        <path data-name="Path 3355" d="M194.938.066s6.879 51.3-113.4 75.6S34.292 251.1 34.292 251.1s-16.925-59.339-21.96-32.34-17.24 106.648-9.112 147.147c0 0-9.427 76.948 8.122 144.446" transform="translate(78.564 16555.809)" style="stroke:#003a85;fill:none;stroke-miterlimit:10;stroke-width:4px"/>
        <path data-name="Path 3356" d="M245.813 506.3s9.444-86.4 0-153.9c0 0 9.444-90.448-12.155-152.546 0 0-10.794 57.919-12.15 51.237s21.6-64.736 9.45-114.685-43.193-49.949-108-74.248S55.468 18.966 55.468.066" transform="translate(332.781 16555.809)" style="stroke:#003a85;fill:none;stroke-miterlimit:10;stroke-width:4px"/>
        <path data-name="Path 3357" d="M87.019 280.88s17.088-136.5-3.111-125.524c-22.376 12.15-16.852 8.044-16.852 8.044s55.056-7.875 44.256-113.172c0 0 1.35 78.3 28.349 103.947 0 0-12.15-14.85-12.15 22.949s-2.7 95.848-2.7 95.848" transform="translate(383.586 16787.797)" style="stroke:#003a85;fill:none;stroke-miterlimit:10;stroke-width:4px"/>
        <path data-name="Path 3358" d="m15.537 281.376-1.35-126.9s20.126-29.373 16.059-104.9c0 0 5.2 99.672 50.258 118.909 0 0-29.21-19.243-25.818 49.442 2.784 56.395 8.066 65.277 8.066 65.277" transform="translate(141.861 16784.785)" style="stroke:#003a85;fill:none;stroke-miterlimit:10;stroke-width:4px"/>
        <path data-name="Path 3359" d="M12.748 34.386s43.233 54.713 43.193 99.9c0 0 79.648 20.323 110.7-35.065" transform="translate(135.207 16714.533)" style="stroke:#8e2a48;fill:none;stroke-miterlimit:10;stroke-width:4px"/>
        <path data-name="Path 3360" d="M205.283 34.386s-43.238 54.713-43.2 99.9c0 0-79.648 20.323-110.7-35.065" transform="translate(313.908 16714.533)" style="stroke:#8e2a48;fill:none;stroke-miterlimit:10;stroke-width:4px"/>
        <path data-name="Path 3361" d="M26.427 12.573s56.7-2.7 83.7 40.5" transform="translate(198.471 16613.5)" style="stroke:#003a85;fill:none;stroke-miterlimit:10;stroke-width:4px"/>
        <path data-name="Path 3362" d="M48.609 53.073s22.376-33.817 80.424-40.533" transform="translate(301.061 16613.5)" style="stroke:#003a85;fill:none;stroke-miterlimit:10;stroke-width:4px"/>
        <path data-name="Path 3363" d="M41.607 18.066S6.508 32.747 6.508 63.88" transform="translate(106.35 16639.055)" style="stroke:#003a85;fill:none;stroke-miterlimit:10;stroke-width:4px"/>
        <path data-name="Path 3364" d="M78.747 18.066S107.1 28.7 108.446 63.88" transform="translate(440.445 16639.055)" style="stroke:#003a85;fill:none;stroke-miterlimit:10;stroke-width:4px"/>
        <circle data-name="Ellipse 195" cx="10.8" cy="10.8" r="10.8" transform="translate(320.748 16993.266)" style="stroke:#003a85;fill:none;stroke-miterlimit:10;stroke-width:4px"/>
        <path data-name="Path 3365" d="M19.718 47.219s33.142 5.737 32.09 31.314" transform="translate(167.443 16773.883)" style="stroke:#8e2a48;fill:none;stroke-miterlimit:10;stroke-width:4px"/>
        <path data-name="Path 3366" d="M96.3 47.581s-31.012 5.366-30.033 29.305" transform="translate(382.617 16775.559)" style="stroke:#8e2a48;fill:none;stroke-miterlimit:10;stroke-width:4px"/>
    </g>
</svg>
