<svg xmlns="http://www.w3.org/2000/svg" width="571.083" height="631.576" viewBox="0 0 571.083 631.576">
    <g data-name="Group 7106">
        <path data-name="Path 25095" d="M147.057 19.069S1.446 34.96 8.727 188.552 23.288 365.1 23.288 365.1s-5.462 74.15 65.525 107.694l70.987 33.542s43.683 19.422 85.548 0a560.494 560.494 0 0 0 72.806-40.606s43.683-35.306 49.146-93.572 20.016-167.715 20.016-167.715S389.141 59.377 303.593 32.9" transform="translate(49.887 113.856)" style="fill:#d6f0fc"/>
        <path data-name="Path 25096" d="M68.6 52.258c6.722-6.707 48.834 15.177 28.924 58.952S56.4 142.221 56.4 142.221" transform="translate(341.1 308.252)" style="fill:#d6f0fc"/>
        <path data-name="Path 25097" d="M64.09 52.89c6.191-7.2 52.9 9.693 36.382 54.855s-43.139 30.566-43.139 30.566" transform="translate(346.793 309.602)" style="stroke:#003a85;fill:none;stroke-miterlimit:10;stroke-width:4px"/>
        <path data-name="Path 25098" d="M35.692 52.036c-6.722-6.707-48.834 15.177-28.924 58.952S47.9 142 47.9 142" transform="translate(7.391 306.904)" style="fill:#d6f0fc"/>
        <path data-name="Path 25099" d="M144.191 17S-1.42 33.377 5.861 191.731s14.561 182.022 14.561 182.022-5.462 76.442 65.525 111.026l70.987 34.584s43.683 20.023 85.548 0a556.221 556.221 0 0 0 72.806-41.863s43.683-36.4 49.146-96.466 20.016-172.916 20.016-172.916 1.825-149.559-83.723-176.863" transform="translate(32.475 101.274)" style="stroke:#003a85;fill:none;stroke-miterlimit:10;stroke-width:4px"/>
        <path data-name="Path 25100" d="M40.4 52.668c-6.191-7.2-52.9 9.693-36.382 54.855s43.139 30.566 43.139 30.566" transform="translate(1.512 308.254)" style="stroke:#003a85;fill:none;stroke-miterlimit:10;stroke-width:4px"/>
        <path data-name="Path 25101" d="M31.836 22.019S.9 65.7 31.836 116.666 10.447 227.544 10.447 227.544" transform="translate(61.942 131.777)" style="stroke:#003a85;fill:none;stroke-miterlimit:10;stroke-width:4px"/>
        <path data-name="Path 25102" d="M61.047 22.019s30.934 43.683 0 94.647S81.4 234.889 81.4 234.889" transform="translate(309.067 131.777)" style="stroke:#003a85;fill:none;stroke-miterlimit:10;stroke-width:4px"/>
        <path data-name="Path 25103" d="M50.9 33.96a14.1 14.1 0 1 1-14.1-14.108A14.111 14.111 0 0 1 50.9 33.96z" transform="translate(136.354 118.611)" style="stroke:#003a85;fill:none;stroke-miterlimit:10;stroke-width:4px"/>
        <path data-name="Path 25104" d="M65.606 33.96A14.1 14.1 0 1 1 51.5 19.852 14.111 14.111 0 0 1 65.606 33.96z" transform="translate(225.668 118.611)" style="stroke:#003a85;fill:none;stroke-miterlimit:10;stroke-width:4px"/>
        <path data-name="Path 25105" d="M58.586 40.246a14.1 14.1 0 1 1-14.109-14.108 14.111 14.111 0 0 1 14.109 14.108z" transform="translate(183.018 156.803)" style="stroke:#003a85;fill:none;stroke-miterlimit:10;stroke-width:4px"/>
        <path data-name="Path 25106" d="M51.426 40.561a14.1 14.1 0 1 1-14.109-14.108 14.111 14.111 0 0 1 14.109 14.108z" transform="translate(139.52 158.715)" style="stroke:#003a85;fill:none;stroke-miterlimit:10;stroke-width:4px"/>
        <path data-name="Path 25107" d="M52.117 46.836A14.108 14.108 0 1 1 38 32.728a14.117 14.117 0 0 1 14.117 14.108z" transform="translate(143.674 196.838)" style="stroke:#003a85;fill:none;stroke-miterlimit:10;stroke-width:4px"/>
        <path data-name="Path 25108" d="M58.586 46.836a14.1 14.1 0 1 1-14.109-14.108 14.111 14.111 0 0 1 14.109 14.108z" transform="translate(183.018 196.838)" style="stroke:#003a85;fill:none;stroke-miterlimit:10;stroke-width:4px"/>
        <path data-name="Path 25109" d="M64.988 46.836A14.1 14.1 0 1 1 50.88 32.728a14.111 14.111 0 0 1 14.108 14.108z" transform="translate(221.918 196.838)" style="stroke:#003a85;fill:none;stroke-miterlimit:10;stroke-width:4px"/>
        <path data-name="Path 25110" d="M44.713 42.555A14.1 14.1 0 1 1 30.6 28.447a14.111 14.111 0 0 1 14.113 14.108z" transform="translate(98.735 170.83)" style="stroke:#003a85;fill:none;stroke-miterlimit:10;stroke-width:4px"/>
        <path data-name="Path 25111" d="M72.081 42.555a14.1 14.1 0 1 1-14.109-14.108 14.111 14.111 0 0 1 14.109 14.108z" transform="translate(265.006 170.83)" style="stroke:#003a85;fill:none;stroke-miterlimit:10;stroke-width:4px"/>
        <path data-name="Path 25112" d="M65.848 40.561A14.1 14.1 0 1 1 51.74 26.453a14.111 14.111 0 0 1 14.108 14.108z" transform="translate(227.145 158.715)" style="stroke:#003a85;fill:none;stroke-miterlimit:10;stroke-width:4px"/>
        <path data-name="Path 25113" d="M27.888 4.038s18.672 3.453 17.3 63.516S55.56 125.8 55.56 125.8s14.3-5.483 1.818-70.527C48.279 7.852 27.888 4.038 27.888 4.038z" transform="translate(167.903 22.537)" style="stroke:#8e2a48;fill:none;stroke-miterlimit:10;stroke-width:4px"/>
        <path data-name="Path 25114" d="M35.491 113.5 347.96.649l9.262 30.851-321.731 82-1.366 4.521L353.911 87.21l8.618-31.662z" transform="translate(205.795 1.949)" style="stroke:#003a85;fill:none;stroke-miterlimit:10;stroke-width:4px"/>
    </g>
</svg>
