<svg xmlns="http://www.w3.org/2000/svg" width="70" height="70" viewBox="0 0 70 70">
    <g data-name="Group 7118" transform="translate(-991 -2317)">
        <circle data-name="Ellipse 17" cx="35" cy="35" r="35" transform="translate(991 2317)" style="fill:#d6f0fc"/>
        <path data-name="Path 25373" d="M268.892 339.083a15.622 15.622 0 0 1-14.521-9.7 1.7 1.7 0 1 1 3.13-1.283 12.31 12.31 0 0 0 22.883-.282 1.7 1.7 0 1 1 3.2 1.161 15.762 15.762 0 0 1-14.693 10.108z" transform="translate(757.063 2028.564)" style="fill:#881543"/>
        <path data-name="Path 25375" d="m248.4 244.86 4.221-3.171 4.221 3.171a1.254 1.254 0 0 0 1.485-2.02l-4.968-3.726a1.234 1.234 0 0 0-1.485 0l-4.988 3.756a1.256 1.256 0 1 0 1.495 2.02z" transform="translate(763.469 2100.553)" style="fill:#003784"/>
        <path data-name="Path 25376" d="m358.64 245 4.221-3.171 4.22 3.171a1.252 1.252 0 0 0 1.737-.253 1.232 1.232 0 0 0-.252-1.737l-4.968-3.726a1.233 1.233 0 0 0-1.484 0l-4.968 3.726a1.257 1.257 0 1 0 1.495 2.02z" transform="translate(673.09 2100.414)" style="fill:#003784"/>
    </g>
</svg>
