<svg xmlns="http://www.w3.org/2000/svg" width="81.219" height="67.788" viewBox="0 0 81.219 67.788">
    <g data-name="Rectal Prolapse">
        <path data-name="Line 11" transform="translate(51.419 60.604)" style="stroke:#8f2947;fill:none;stroke-miterlimit:10;stroke-width:1.3px" d="m0 0 3.656 2.344"/>
        <path data-name="Line 12" transform="translate(53.754 57.65)" style="stroke:#8f2947;fill:none;stroke-miterlimit:10;stroke-width:1.3px" d="m0 0 3.699 2.277"/>
        <path data-name="Line 13" transform="translate(26.512 60.233)" style="stroke:#8f2947;fill:none;stroke-miterlimit:10;stroke-width:1.3px" d="M2.856 0 0 2.747"/>
        <path data-name="Line 14" transform="translate(23.001 56.534)" style="stroke:#8f2947;fill:none;stroke-miterlimit:10;stroke-width:1.3px" d="M3.699 0 0 1.422"/>
        <path data-name="Line 15" transform="translate(31.476 62.924)" style="stroke:#8f2947;fill:none;stroke-miterlimit:10;stroke-width:1.3px" d="M2.437 0 0 2.835"/>
        <path data-name="Line 16" transform="translate(47.41 62.914)" style="stroke:#8f2947;fill:none;stroke-miterlimit:10;stroke-width:1.3px" d="m0 0 2.561 2.846"/>
        <path data-name="Line 17" transform="translate(36.883 64.155)" style="stroke:#8f2947;fill:none;stroke-miterlimit:10;stroke-width:1.3px" d="M1.892 0 0 3.311"/>
        <path data-name="Line 18" transform="translate(43.427 64.052)" style="stroke:#8f2947;fill:none;stroke-miterlimit:10;stroke-width:1.3px" d="m0 0 1.422 3.414"/>
        <path data-name="Path 24794" d="M92.839 47.3a27.634 27.634 0 0 0-16.723.808c-8.026 3.191-10.49 1.961-11.835.56a12.33 12.33 0 0 1-2.455-3.075c-.807-1.4-2.137 1.933.569 4.268s4.038 4.968 1.886 6.929-6.993.28-7.531-7.282 3.766-15.685 7.531-20.446 6.456-9.8 5.38-17.925-9.973-7-6.331-10.784h2s-1.587 1.541.566 2.1 5.11 3.081 5.648 8.682a24.957 24.957 0 0 1-5.827 19.315c-5.74 7.015-7.623 14.858-7.085 18.219s2.69 8.4 4.034 6.721-.538-3.641-1.614-4.761-2.959-6.162-.538-7.282 3.5 1.12 4.034 2.241a4.2 4.2 0 0 0 3.83 2.672c2.356.129 5.315-1.552 7.736-2.112s9.04-3.4 16.723-.838z" transform="translate(-12.573 .107)" style="fill:#d7f0fd"/>
        <path data-name="Path 24795" d="M5.647 47.3a27.634 27.634 0 0 1 16.723.808c8.026 3.191 10.49 1.961 11.835.56a12.329 12.329 0 0 0 2.455-3.075c.807-1.4 2.137 1.933-.569 4.268s-4.038 4.969-1.891 6.93 6.993.28 7.531-7.282S37.97 33.824 34.2 29.063s-6.456-9.8-5.38-17.925 9.973-7 6.331-10.784h-2s1.587 1.541-.566 2.1-5.11 3.081-5.648 8.682a24.957 24.957 0 0 0 5.831 19.314c5.74 7.015 7.623 14.858 7.085 18.219s-2.69 8.4-4.034 6.721.538-3.641 1.614-4.761 2.959-6.162.538-7.282-3.5 1.12-4.034 2.241a4.2 4.2 0 0 1-3.83 2.672c-2.356.129-5.315-1.552-7.736-2.112s-9.04-3.4-16.723-.838z" transform="translate(-4.743 .107)" style="fill:#d7f0fd"/>
        <path data-name="Path 24796" d="M7.614 6.329s6.259 11.1 11.1 15.079 6.024 4.086 4.861.478-.312-9.586 1.11-12.712S21.84.354 21.84.354h1.5S26.534 4.2 26.534 5.9s-1.41 4.228-1.559 6.524-1.286 7.986.705 11.116-.569 3.414-3.13 2.845-9.674-8.25-11.949-11.1a62.752 62.752 0 0 1-5.121-8.53z" transform="translate(-4.717 .107)" style="fill:#d7f0fd"/>
        <path data-name="Path 24797" d="M93.941 6.329s-6.259 11.1-11.1 15.079-6.024 4.086-4.861.478.309-9.583-1.114-12.712 2.849-8.82 2.849-8.82h-1.5S75.02 4.2 75.02 5.9s1.41 4.228 1.559 6.524 1.286 7.986-.705 11.116.569 3.414 3.13 2.845 9.674-8.25 11.949-11.1a62.752 62.752 0 0 0 5.121-8.536z" transform="translate(-15.382 .107)" style="fill:#d7f0fd"/>
        <path data-name="Path 24798" d="M93.522 48.3a28.912 28.912 0 0 0-16.787.569c-8.536 3.13-11.1 1.992-12.519.569a14.451 14.451 0 0 1-2.56-3.7c-.853-1.422-2.026 1.8.836 4.173s4 5.786 1.724 7.777-7.4.284-7.966-7.4 3.983-15.933 7.966-20.77 6.829-9.958 5.691-18.21S59.356 4.2 63.209.354" transform="translate(-12.496 .107)" style="stroke:#003a85;fill:none;stroke-miterlimit:10;stroke-width:1.3px"/>
        <path data-name="Path 24799" d="M4.807 48.3a28.912 28.912 0 0 1 16.787.569c8.536 3.13 11.1 1.992 12.519.569a14.451 14.451 0 0 0 2.56-3.7c.853-1.422 2.026 1.8-.836 4.173s-4 5.786-1.724 7.777 7.4.284 7.966-7.4-3.979-15.933-7.966-20.77-6.829-9.958-5.691-18.21S38.973 4.2 35.12.354" transform="translate(-4.614 .107)" style="stroke:#003a85;fill:none;stroke-miterlimit:10;stroke-width:1.3px"/>
        <path data-name="Path 24800" d="M45.8.354s1.111 2.253-.555 3.66c-1.471 1.243-5.872 4.872-6.705 6.561-2.246 4.556 0 10.96 1.292 13.148 3.332 5.631 2.6 4.349 4.442 6.757 5.821 7.6 5.7 16.272 5.595 20.784-.119 4.953-2.676 8.489-4.342 8.77 0 0 1.247.854 3.468-.554a1.732 1.732 0 0 0 1.944-.282A6.328 6.328 0 0 0 55.6 60.25s-4.5-1.8-4.8-8.528a38.209 38.209 0 0 1 4.8-20.8 81.177 81.177 0 0 1 3.937-7.2 15.11 15.11 0 0 0 1.949-13.232c-.833-3.1-5.192-6.108-5.831-6.757-1.944-1.971-.833-3.379-.833-3.379z" transform="translate(-9.64 .107)" style="fill:#d7f0fd"/>
        <path data-name="Path 24801" d="M8 6.329s6.259 11.1 11.1 15.079 6.024 4.086 4.861.478-.312-9.586 1.111-12.712-2.846-8.82-2.846-8.82" transform="translate(-5.104 .107)" style="stroke:#003a85;fill:none;stroke-miterlimit:10;stroke-width:1.3px"/>
        <path data-name="Path 24802" d="M94.23 6.329s-6.259 11.1-11.1 15.079-6.024 4.086-4.861.478.308-9.583-1.114-12.712S80 .354 80 .354" transform="translate(-15.666 .107)" style="stroke:#003a85;fill:none;stroke-miterlimit:10;stroke-width:1.3px"/>
        <path data-name="Path 24803" d="M44.419.354c.443 2.419.225 2.834-1.583 4.126a33.465 33.465 0 0 0-3.7 3.13c-1.708 2.276-7.092 7.238 1.031 19.424a52.715 52.715 0 0 1 5.639 10.058c2.205 4.631 2.907 8.575 2.622 14.55-.244 5.115-3.886 9.173-5.878 8.319 0 0 3.414 2.277 6.616 1.039a1.344 1.344 0 0 0 2.2-.185s3.983 1.991 6.829-.854c0 0-6.393-.12-6.678-8.087-.318-8.927 1.546-13.794 5.41-21.121 2.059-3.9 5.9-8.292 6.39-14.323.721-8.791-5.181-11.773-6.828-13.088 0 0-1.833-1.423-.347-2.988" transform="translate(-9.368 .107)" style="stroke:#8f2947;fill:none;stroke-miterlimit:10;stroke-width:1.3px"/>
    </g>
</svg>
