<svg xmlns="http://www.w3.org/2000/svg" width="146.051" height="157.999" viewBox="0 0 146.051 157.999">
    <defs>
        <clipPath id="qb84qrgija">
            <path data-name="NoPath - Copy (10)" d="m564.6 309.7-5.63 3.531-3.348-5.75c-8.518-14.684-26.632-21.2-41.726-13.606a33.865 33.865 0 0 0-13.927 46.953l32.866 56.557a7.353 7.353 0 0 0 10.322 2.546l55.268-34.774a33.842 33.842 0 0 0 9.427-48.067c-9.862-13.753-28.886-16.415-43.252-7.39z" transform="translate(732.219 470.619)" style="fill:#d6a7ba"/>
        </clipPath>
        <clipPath id="jqsczxmj7b">
            <path data-name="NoPath - Copy (10)" d="m519.914 297.4-1.99 1.248-1.183-2.032c-3.01-5.19-9.413-7.494-14.747-4.809a11.969 11.969 0 0 0-4.922 16.595l11.615 19.998a2.6 2.6 0 0 0 3.648.9l19.534-12.29a11.961 11.961 0 0 0 3.332-16.989c-3.485-4.866-10.209-5.807-15.287-2.621z" transform="translate(-495.488 -290.682)" style="fill:#d6a7ba"/>
        </clipPath>
        <clipPath id="jb7w64qsnc">
            <path data-name="NoPath - Copy (10)" d="m507.31 293.936-.963.6-.573-.984a5.474 5.474 0 0 0-7.138-2.328 5.793 5.793 0 0 0-2.382 8.032l5.622 9.675a1.258 1.258 0 0 0 1.766.436l9.455-5.949a5.789 5.789 0 0 0 1.613-8.223 5.474 5.474 0 0 0-7.4-1.259z" transform="translate(-495.488 -290.682)" style="fill:#d6a7ba"/>
        </clipPath>
    </defs>
    <g data-name="Group 6989">
        <g data-name="Group 6955">
            <path data-name="NoPath - Copy (10)" d="m564.6 309.7-5.63 3.531-3.348-5.75c-8.518-14.684-26.632-21.2-41.726-13.606a33.865 33.865 0 0 0-13.927 46.953l32.866 56.557a7.353 7.353 0 0 0 10.322 2.546l55.268-34.774a33.842 33.842 0 0 0 9.427-48.067c-9.862-13.753-28.886-16.415-43.252-7.39z" transform="translate(-495.488 -243.083)" style="fill:#881543"/>
            <g data-name="Mask Group 31" style="clip-path:url(#qb84qrgija)" transform="translate(-1227.707 -713.702)">
                <path data-name="Union 29" d="M7338.98 21791.488a1.515 1.515 0 1 1 1.513 1.512 1.512 1.512 0 0 1-1.513-1.512zm-9.833 0a1.514 1.514 0 1 1 1.513 1.512 1.512 1.512 0 0 1-1.513-1.512zm-9.829 0a1.514 1.514 0 1 1 1.512 1.512 1.511 1.511 0 0 1-1.511-1.512zm-9.833 0A1.515 1.515 0 1 1 7311 21793a1.512 1.512 0 0 1-1.514-1.512zm-9.833 0a1.515 1.515 0 1 1 1.513 1.512 1.512 1.512 0 0 1-1.512-1.512zm-9.833 0a1.515 1.515 0 1 1 1.512 1.512 1.511 1.511 0 0 1-1.511-1.512zm-9.829 0a1.514 1.514 0 1 1 1.513 1.512 1.512 1.512 0 0 1-1.512-1.512zm-9.833 0a1.515 1.515 0 1 1 1.512 1.512 1.511 1.511 0 0 1-1.511-1.512zm-9.833 0a1.515 1.515 0 1 1 1.513 1.512 1.512 1.512 0 0 1-1.512-1.512zm-9.833 0A1.515 1.515 0 1 1 7252 21793a1.512 1.512 0 0 1-1.508-1.512zm-9.828 0a1.514 1.514 0 1 1 1.512 1.512 1.511 1.511 0 0 1-1.511-1.512zm-9.833 0a1.514 1.514 0 1 1 1.512 1.512 1.511 1.511 0 0 1-1.511-1.512zm-9.833 0a1.514 1.514 0 1 1 1.512 1.512 1.512 1.512 0 0 1-1.509-1.512zm117.982-9.832a1.515 1.515 0 1 1 1.513 1.512 1.512 1.512 0 0 1-1.512-1.512zm-9.833 0a1.514 1.514 0 1 1 1.513 1.512 1.512 1.512 0 0 1-1.512-1.512zm-9.829 0a1.514 1.514 0 1 1 1.512 1.512 1.511 1.511 0 0 1-1.51-1.512zm-9.833 0a1.515 1.515 0 1 1 1.513 1.512 1.512 1.512 0 0 1-1.511-1.512zm-9.833 0a1.515 1.515 0 1 1 1.513 1.512 1.512 1.512 0 0 1-1.511-1.512zm-9.833 0a1.515 1.515 0 1 1 1.512 1.512 1.511 1.511 0 0 1-1.51-1.512zm-9.829 0a1.514 1.514 0 1 1 1.513 1.512 1.512 1.512 0 0 1-1.511-1.512zm-9.833 0a1.515 1.515 0 1 1 1.512 1.512 1.511 1.511 0 0 1-1.51-1.512zm-9.833 0a1.515 1.515 0 1 1 1.513 1.512 1.512 1.512 0 0 1-1.511-1.512zm-9.833 0a1.515 1.515 0 1 1 1.513 1.512 1.512 1.512 0 0 1-1.511-1.512zm-9.828 0a1.514 1.514 0 1 1 1.512 1.512 1.511 1.511 0 0 1-1.51-1.512zm-9.833 0a1.514 1.514 0 1 1 1.512 1.512 1.511 1.511 0 0 1-1.51-1.512zm-9.833 0a1.514 1.514 0 1 1 1.512 1.512 1.512 1.512 0 0 1-1.508-1.512zm117.982-9.828a1.515 1.515 0 1 1 1.513 1.512 1.512 1.512 0 0 1-1.511-1.512zm-9.833 0a1.514 1.514 0 1 1 1.513 1.512 1.513 1.513 0 0 1-1.511-1.512zm-9.829 0a1.514 1.514 0 1 1 1.512 1.512 1.512 1.512 0 0 1-1.509-1.512zm-9.833 0a1.515 1.515 0 1 1 1.513 1.512 1.512 1.512 0 0 1-1.51-1.512zm-9.833 0a1.515 1.515 0 1 1 1.513 1.512 1.512 1.512 0 0 1-1.51-1.512zm-9.833 0a1.515 1.515 0 1 1 1.512 1.512 1.512 1.512 0 0 1-1.509-1.512zm-9.829 0a1.514 1.514 0 1 1 1.513 1.512 1.512 1.512 0 0 1-1.51-1.512zm-9.833 0a1.515 1.515 0 1 1 1.512 1.512 1.512 1.512 0 0 1-1.509-1.512zm-9.833 0a1.515 1.515 0 1 1 1.513 1.512 1.512 1.512 0 0 1-1.51-1.512zm-9.833 0a1.515 1.515 0 1 1 1.513 1.512 1.512 1.512 0 0 1-1.51-1.512zm-9.828 0a1.514 1.514 0 1 1 1.512 1.512 1.512 1.512 0 0 1-1.509-1.512zm-9.833 0a1.514 1.514 0 1 1 1.512 1.512 1.512 1.512 0 0 1-1.509-1.512zm-9.833 0a1.514 1.514 0 1 1 1.512 1.512 1.512 1.512 0 0 1-1.507-1.512zm117.982-9.834a1.515 1.515 0 1 1 1.513 1.514 1.514 1.514 0 0 1-1.51-1.514zm-9.833 0a1.514 1.514 0 1 1 1.513 1.514 1.514 1.514 0 0 1-1.51-1.514zm-9.829 0a1.514 1.514 0 1 1 1.512 1.514 1.513 1.513 0 0 1-1.508-1.514zm-9.833 0a1.515 1.515 0 1 1 1.513 1.514 1.514 1.514 0 0 1-1.509-1.514zm-9.833 0a1.515 1.515 0 1 1 1.513 1.514 1.514 1.514 0 0 1-1.509-1.514zm-9.833 0a1.515 1.515 0 1 1 1.512 1.514 1.513 1.513 0 0 1-1.508-1.514zm-9.829 0a1.514 1.514 0 1 1 1.513 1.514 1.514 1.514 0 0 1-1.509-1.514zm-9.833 0a1.515 1.515 0 1 1 1.512 1.514 1.513 1.513 0 0 1-1.508-1.514zm-9.833 0a1.515 1.515 0 1 1 1.513 1.514 1.514 1.514 0 0 1-1.509-1.514zm-9.833 0a1.515 1.515 0 1 1 1.513 1.514 1.514 1.514 0 0 1-1.509-1.514zm-9.828 0a1.514 1.514 0 1 1 1.512 1.514 1.513 1.513 0 0 1-1.508-1.514zm-9.833 0a1.514 1.514 0 1 1 1.512 1.514 1.513 1.513 0 0 1-1.508-1.514zm-9.833 0a1.514 1.514 0 1 1 1.512 1.514 1.513 1.513 0 0 1-1.506-1.514zm117.982-9.834a1.515 1.515 0 1 1 1.513 1.514 1.513 1.513 0 0 1-1.509-1.514zm-9.833 0a1.514 1.514 0 1 1 1.513 1.514 1.513 1.513 0 0 1-1.509-1.514zm-9.829 0a1.514 1.514 0 1 1 1.512 1.514 1.513 1.513 0 0 1-1.507-1.514zm-9.833 0a1.515 1.515 0 1 1 1.513 1.514 1.513 1.513 0 0 1-1.508-1.514zm-9.833 0a1.515 1.515 0 1 1 1.513 1.514 1.513 1.513 0 0 1-1.508-1.514zm-9.833 0a1.515 1.515 0 1 1 1.512 1.514 1.513 1.513 0 0 1-1.507-1.514zm-9.829 0a1.514 1.514 0 1 1 1.513 1.514 1.513 1.513 0 0 1-1.508-1.514zm-9.833 0a1.515 1.515 0 1 1 1.512 1.514 1.513 1.513 0 0 1-1.507-1.514zm-9.833 0a1.515 1.515 0 1 1 1.513 1.514 1.513 1.513 0 0 1-1.508-1.514zm-9.833 0a1.515 1.515 0 1 1 1.513 1.514 1.513 1.513 0 0 1-1.508-1.514zm-9.828 0a1.514 1.514 0 1 1 1.512 1.514 1.513 1.513 0 0 1-1.507-1.514zm-9.833 0a1.514 1.514 0 1 1 1.512 1.514 1.513 1.513 0 0 1-1.507-1.514zm-9.833 0a1.514 1.514 0 1 1 1.512 1.514 1.513 1.513 0 0 1-1.505-1.514zm117.982-9.828a1.515 1.515 0 1 1 1.513 1.514 1.512 1.512 0 0 1-1.508-1.514zm-9.833 0a1.514 1.514 0 1 1 1.513 1.514 1.512 1.512 0 0 1-1.508-1.514zm-9.829 0a1.514 1.514 0 1 1 1.512 1.514 1.511 1.511 0 0 1-1.506-1.514zm-9.833 0a1.515 1.515 0 1 1 1.513 1.514 1.512 1.512 0 0 1-1.507-1.514zm-9.833 0a1.515 1.515 0 1 1 1.513 1.514 1.512 1.512 0 0 1-1.507-1.514zm-9.833 0a1.515 1.515 0 1 1 1.512 1.514 1.511 1.511 0 0 1-1.506-1.514zm-9.829 0a1.514 1.514 0 1 1 1.513 1.514 1.512 1.512 0 0 1-1.507-1.514zm-9.833 0a1.515 1.515 0 1 1 1.512 1.514 1.511 1.511 0 0 1-1.506-1.514zm-9.833 0a1.515 1.515 0 1 1 1.513 1.514 1.512 1.512 0 0 1-1.507-1.514zm-9.833 0a1.515 1.515 0 1 1 1.513 1.514 1.512 1.512 0 0 1-1.507-1.514zm-9.828 0a1.514 1.514 0 1 1 1.512 1.514 1.511 1.511 0 0 1-1.506-1.514zm-9.833 0a1.514 1.514 0 1 1 1.512 1.514 1.511 1.511 0 0 1-1.506-1.514zm-9.833 0a1.514 1.514 0 1 1 1.512 1.514 1.512 1.512 0 0 1-1.504-1.514zm117.982-9.832a1.515 1.515 0 1 1 1.513 1.512 1.512 1.512 0 0 1-1.507-1.512zm-9.833 0a1.514 1.514 0 1 1 1.513 1.512 1.512 1.512 0 0 1-1.507-1.512zm-9.829 0a1.514 1.514 0 1 1 1.512 1.512 1.511 1.511 0 0 1-1.505-1.512zm-9.833 0a1.515 1.515 0 1 1 1.513 1.512 1.512 1.512 0 0 1-1.506-1.512zm-9.833 0a1.515 1.515 0 1 1 1.513 1.512 1.512 1.512 0 0 1-1.506-1.512zm-9.833 0a1.515 1.515 0 1 1 1.512 1.512 1.511 1.511 0 0 1-1.505-1.512zm-9.829 0a1.514 1.514 0 1 1 1.513 1.512 1.512 1.512 0 0 1-1.506-1.512zm-9.833 0a1.515 1.515 0 1 1 1.512 1.512 1.511 1.511 0 0 1-1.505-1.512zm-9.833 0a1.515 1.515 0 1 1 1.513 1.512 1.512 1.512 0 0 1-1.506-1.512zm-9.833 0a1.515 1.515 0 1 1 1.513 1.512 1.512 1.512 0 0 1-1.506-1.512zm-9.828 0a1.514 1.514 0 1 1 1.512 1.512 1.511 1.511 0 0 1-1.505-1.512zm-9.833 0a1.514 1.514 0 1 1 1.512 1.512 1.511 1.511 0 0 1-1.505-1.512zm-9.833 0a1.514 1.514 0 1 1 1.512 1.512 1.512 1.512 0 0 1-1.503-1.512zm117.982-9.832a1.515 1.515 0 1 1 1.513 1.512 1.513 1.513 0 0 1-1.506-1.512zm-9.833 0a1.514 1.514 0 1 1 1.513 1.512 1.513 1.513 0 0 1-1.506-1.512zm-9.829 0a1.514 1.514 0 1 1 1.512 1.512 1.513 1.513 0 0 1-1.504-1.512zm-9.833 0a1.515 1.515 0 1 1 1.513 1.512 1.513 1.513 0 0 1-1.505-1.512zm-9.833 0a1.515 1.515 0 1 1 1.513 1.512 1.513 1.513 0 0 1-1.505-1.512zm-9.833 0a1.515 1.515 0 1 1 1.512 1.512 1.513 1.513 0 0 1-1.504-1.512zm-9.829 0a1.514 1.514 0 1 1 1.513 1.512 1.513 1.513 0 0 1-1.505-1.512zm-9.833 0a1.515 1.515 0 1 1 1.512 1.512 1.513 1.513 0 0 1-1.504-1.512zm-9.833 0a1.515 1.515 0 1 1 1.513 1.512 1.513 1.513 0 0 1-1.505-1.512zm-9.833 0a1.515 1.515 0 1 1 1.513 1.512 1.513 1.513 0 0 1-1.505-1.512zm-9.828 0a1.514 1.514 0 1 1 1.512 1.512 1.513 1.513 0 0 1-1.504-1.512zm-9.833 0a1.514 1.514 0 1 1 1.512 1.512 1.513 1.513 0 0 1-1.504-1.512zm-9.833 0a1.514 1.514 0 1 1 1.512 1.512 1.513 1.513 0 0 1-1.502-1.512zm117.982-9.828a1.515 1.515 0 1 1 1.513 1.512 1.511 1.511 0 0 1-1.505-1.512zm-9.833 0a1.514 1.514 0 1 1 1.513 1.512 1.511 1.511 0 0 1-1.505-1.512zm-9.829 0a1.514 1.514 0 1 1 1.512 1.512 1.51 1.51 0 0 1-1.503-1.512zm-9.833 0a1.515 1.515 0 1 1 1.513 1.512 1.511 1.511 0 0 1-1.504-1.512zm-9.833 0a1.515 1.515 0 1 1 1.513 1.512 1.511 1.511 0 0 1-1.504-1.512zm-9.833 0a1.515 1.515 0 1 1 1.512 1.512 1.51 1.51 0 0 1-1.503-1.512zm-9.829 0a1.514 1.514 0 1 1 1.513 1.512 1.511 1.511 0 0 1-1.504-1.512zm-9.833 0a1.515 1.515 0 1 1 1.512 1.512 1.51 1.51 0 0 1-1.503-1.512zm-9.833 0a1.515 1.515 0 1 1 1.513 1.512 1.511 1.511 0 0 1-1.504-1.512zm-9.833 0a1.515 1.515 0 1 1 1.513 1.512 1.511 1.511 0 0 1-1.504-1.512zm-9.828 0a1.514 1.514 0 1 1 1.512 1.512 1.51 1.51 0 0 1-1.503-1.512zm-9.833 0a1.514 1.514 0 1 1 1.512 1.512 1.51 1.51 0 0 1-1.503-1.512zm-9.833 0a1.514 1.514 0 1 1 1.512 1.512 1.51 1.51 0 0 1-1.501-1.512zm117.982-9.832a1.515 1.515 0 1 1 1.513 1.512 1.512 1.512 0 0 1-1.504-1.512zm-9.833 0a1.514 1.514 0 1 1 1.513 1.512 1.513 1.513 0 0 1-1.504-1.512zm-9.829 0a1.514 1.514 0 1 1 1.512 1.512 1.512 1.512 0 0 1-1.502-1.512zm-9.833 0a1.515 1.515 0 1 1 1.513 1.512 1.512 1.512 0 0 1-1.503-1.512zm-9.833 0a1.515 1.515 0 1 1 1.513 1.512 1.512 1.512 0 0 1-1.503-1.512zm-9.833 0a1.515 1.515 0 1 1 1.512 1.512 1.512 1.512 0 0 1-1.502-1.512zm-9.829 0a1.514 1.514 0 1 1 1.513 1.512 1.512 1.512 0 0 1-1.503-1.512zm-9.833 0a1.515 1.515 0 1 1 1.512 1.512 1.512 1.512 0 0 1-1.502-1.512zm-9.833 0a1.515 1.515 0 1 1 1.513 1.512 1.512 1.512 0 0 1-1.503-1.512zm-9.833 0a1.515 1.515 0 1 1 1.513 1.512 1.512 1.512 0 0 1-1.503-1.512zm-9.828 0a1.514 1.514 0 1 1 1.512 1.512 1.512 1.512 0 0 1-1.502-1.512zm-9.833 0a1.514 1.514 0 1 1 1.512 1.512 1.512 1.512 0 0 1-1.502-1.512zm-9.833 0a1.514 1.514 0 1 1 1.512 1.512 1.512 1.512 0 0 1-1.5-1.512zm117.982-9.834a1.515 1.515 0 1 1 1.513 1.514 1.517 1.517 0 0 1-1.503-1.514zm-9.833 0a1.514 1.514 0 1 1 1.513 1.514 1.518 1.518 0 0 1-1.503-1.514zm-9.829 0a1.514 1.514 0 1 1 1.512 1.514 1.517 1.517 0 0 1-1.501-1.514zm-9.833 0a1.515 1.515 0 1 1 1.513 1.514 1.517 1.517 0 0 1-1.502-1.514zm-9.833 0a1.515 1.515 0 1 1 1.513 1.514 1.517 1.517 0 0 1-1.502-1.514zm-9.833 0a1.515 1.515 0 1 1 1.512 1.514 1.517 1.517 0 0 1-1.501-1.514zm-9.829 0a1.514 1.514 0 1 1 1.513 1.514 1.517 1.517 0 0 1-1.502-1.514zm-9.833 0a1.515 1.515 0 1 1 1.512 1.514 1.517 1.517 0 0 1-1.501-1.514zm-9.833 0a1.515 1.515 0 1 1 1.513 1.514 1.517 1.517 0 0 1-1.502-1.514zm-9.833 0a1.515 1.515 0 1 1 1.513 1.514 1.517 1.517 0 0 1-1.502-1.514zm-9.828 0a1.514 1.514 0 1 1 1.512 1.514 1.517 1.517 0 0 1-1.501-1.514zm-9.833 0a1.514 1.514 0 1 1 1.512 1.514 1.517 1.517 0 0 1-1.501-1.514zm-9.833 0a1.514 1.514 0 1 1 1.512 1.514 1.517 1.517 0 0 1-1.499-1.514zm117.982-9.828a1.515 1.515 0 1 1 1.513 1.514 1.514 1.514 0 0 1-1.502-1.514zm-9.833 0a1.514 1.514 0 1 1 1.513 1.514 1.514 1.514 0 0 1-1.502-1.514zm-9.829 0a1.514 1.514 0 1 1 1.512 1.514 1.513 1.513 0 0 1-1.5-1.514zm-9.833 0a1.515 1.515 0 1 1 1.513 1.514 1.514 1.514 0 0 1-1.501-1.514zm-9.833 0a1.515 1.515 0 1 1 1.513 1.514 1.514 1.514 0 0 1-1.501-1.514zm-9.833 0a1.515 1.515 0 1 1 1.512 1.514 1.513 1.513 0 0 1-1.5-1.514zm-9.829 0a1.514 1.514 0 1 1 1.513 1.514 1.514 1.514 0 0 1-1.501-1.514zm-9.833 0a1.515 1.515 0 1 1 1.512 1.514 1.513 1.513 0 0 1-1.5-1.514zm-9.833 0a1.515 1.515 0 1 1 1.513 1.514 1.514 1.514 0 0 1-1.501-1.514zm-9.833 0a1.515 1.515 0 1 1 1.513 1.514 1.514 1.514 0 0 1-1.501-1.514zm-9.828 0a1.514 1.514 0 1 1 1.512 1.514 1.513 1.513 0 0 1-1.5-1.514zm-9.833 0a1.514 1.514 0 1 1 1.512 1.514 1.513 1.513 0 0 1-1.5-1.514zm-9.833 0a1.514 1.514 0 1 1 1.512 1.514 1.513 1.513 0 0 1-1.498-1.514zm117.982-9.834a1.515 1.515 0 1 1 1.513 1.514 1.512 1.512 0 0 1-1.501-1.514zm-9.833 0a1.514 1.514 0 1 1 1.513 1.514 1.512 1.512 0 0 1-1.501-1.514zm-9.829 0a1.514 1.514 0 1 1 1.512 1.514 1.511 1.511 0 0 1-1.499-1.514zm-9.833 0a1.515 1.515 0 1 1 1.513 1.514 1.512 1.512 0 0 1-1.5-1.514zm-9.833 0a1.515 1.515 0 1 1 1.513 1.514 1.512 1.512 0 0 1-1.5-1.514zm-9.833 0a1.515 1.515 0 1 1 1.512 1.514 1.511 1.511 0 0 1-1.499-1.514zm-9.829 0a1.514 1.514 0 1 1 1.513 1.514 1.512 1.512 0 0 1-1.5-1.514zm-9.833 0a1.515 1.515 0 1 1 1.512 1.514 1.511 1.511 0 0 1-1.499-1.514zm-9.833 0a1.515 1.515 0 1 1 1.513 1.514 1.512 1.512 0 0 1-1.5-1.514zm-9.833 0a1.515 1.515 0 1 1 1.513 1.514 1.512 1.512 0 0 1-1.5-1.514zm-9.828 0a1.514 1.514 0 1 1 1.512 1.514 1.511 1.511 0 0 1-1.499-1.514zm-9.833 0a1.514 1.514 0 1 1 1.512 1.514 1.511 1.511 0 0 1-1.499-1.514zm-9.833 0a1.514 1.514 0 1 1 1.512 1.514 1.512 1.512 0 0 1-1.497-1.514z" transform="translate(-5995.295 -20920.5)" style="fill:#9c2555"/>
            </g>
        </g>
        <g data-name="Group 6956">
            <path data-name="NoPath - Copy (10)" d="m519.914 297.4-1.99 1.248-1.183-2.032c-3.01-5.19-9.413-7.494-14.747-4.809a11.969 11.969 0 0 0-4.922 16.595l11.615 19.998a2.6 2.6 0 0 0 3.648.9l19.534-12.29a11.961 11.961 0 0 0 3.332-16.989c-3.485-4.866-10.209-5.807-15.287-2.621z" transform="translate(-448.537 -290.683)" style="fill:#881543"/>
            <g data-name="Mask Group 31" transform="translate(46.951 -.001)" style="clip-path:url(#jqsczxmj7b)">
                <path data-name="Union 29" d="M41.7 42.232a.535.535 0 1 1 .535.534.534.534 0 0 1-.535-.534zm-3.475 0a.535.535 0 1 1 .535.534.535.535 0 0 1-.536-.534zm-3.474 0a.535.535 0 1 1 .534.534.534.534 0 0 1-.535-.534zm-3.475 0a.535.535 0 1 1 .535.534.534.534 0 0 1-.536-.534zm-3.475 0a.535.535 0 1 1 .535.534.534.534 0 0 1-.536-.534zm-3.475 0a.535.535 0 1 1 .534.534.534.534 0 0 1-.536-.534zm-3.474 0a.535.535 0 1 1 .535.534.534.534 0 0 1-.537-.534zm-3.475 0a.535.535 0 1 1 .534.534.534.534 0 0 1-.536-.534zm-3.475 0a.535.535 0 1 1 .535.534.534.534 0 0 1-.537-.534zm-3.475 0a.535.535 0 1 1 .535.534.534.534 0 0 1-.538-.534zm-3.474 0a.535.535 0 1 1 .534.534.534.534 0 0 1-.536-.534zm-3.475 0a.535.535 0 1 1 .534.534.534.534 0 0 1-.537-.534zm-3.478 0a.535.535 0 1 1 .534.534.534.534 0 0 1-.534-.534zm41.7-3.475a.535.535 0 1 1 .535.534.534.534 0 0 1-.535-.535zm-3.475 0a.535.535 0 1 1 .535.534.534.534 0 0 1-.536-.535zm-3.474 0a.535.535 0 1 1 .534.534.534.534 0 0 1-.535-.535zm-3.475 0a.535.535 0 1 1 .535.534.534.534 0 0 1-.536-.535zm-3.475 0a.535.535 0 1 1 .535.534.534.534 0 0 1-.536-.535zm-3.475 0a.535.535 0 1 1 .534.534.534.534 0 0 1-.536-.535zm-3.474 0a.535.535 0 1 1 .535.534.534.534 0 0 1-.537-.535zm-3.475 0a.535.535 0 1 1 .534.534.534.534 0 0 1-.536-.535zm-3.475 0a.535.535 0 1 1 .535.534.534.534 0 0 1-.537-.535zm-3.475 0a.535.535 0 1 1 .535.534.534.534 0 0 1-.538-.535zm-3.474 0a.535.535 0 1 1 .534.534.534.534 0 0 1-.536-.535zm-3.475 0a.535.535 0 1 1 .534.534.534.534 0 0 1-.537-.535zM0 38.756a.535.535 0 1 1 .534.534.534.534 0 0 1-.534-.534zm41.7-3.473a.535.535 0 1 1 .535.534.534.534 0 0 1-.535-.534zm-3.475 0a.535.535 0 1 1 .535.534.535.535 0 0 1-.536-.534zm-3.474 0a.535.535 0 1 1 .534.534.534.534 0 0 1-.535-.534zm-3.475 0a.535.535 0 1 1 .535.534.534.534 0 0 1-.536-.534zm-3.475 0a.535.535 0 1 1 .535.534.534.534 0 0 1-.536-.534zm-3.475 0a.535.535 0 1 1 .534.534.534.534 0 0 1-.536-.534zm-3.474 0a.535.535 0 1 1 .535.534.534.534 0 0 1-.537-.534zm-3.475 0a.535.535 0 1 1 .534.534.534.534 0 0 1-.536-.534zm-3.475 0a.535.535 0 1 1 .535.534.534.534 0 0 1-.537-.534zm-3.475 0a.535.535 0 1 1 .535.534.534.534 0 0 1-.538-.534zm-3.474 0a.535.535 0 1 1 .534.534.534.534 0 0 1-.536-.534zm-3.475 0a.535.535 0 1 1 .534.534.534.534 0 0 1-.537-.534zm-3.478 0a.535.535 0 1 1 .534.534.534.534 0 0 1-.534-.534zm41.7-3.476a.535.535 0 1 1 .535.535.535.535 0 0 1-.535-.535zm-3.475 0a.535.535 0 1 1 .535.535.535.535 0 0 1-.536-.535zm-3.474 0a.535.535 0 1 1 .534.535.535.535 0 0 1-.535-.535zm-3.475 0a.535.535 0 1 1 .535.535.535.535 0 0 1-.536-.535zm-3.475 0a.535.535 0 1 1 .535.535.535.535 0 0 1-.536-.535zm-3.475 0a.535.535 0 1 1 .534.535.535.535 0 0 1-.536-.535zm-3.474 0a.535.535 0 1 1 .535.535.535.535 0 0 1-.537-.535zm-3.475 0a.535.535 0 1 1 .534.535.535.535 0 0 1-.536-.535zm-3.475 0a.535.535 0 1 1 .535.535.535.535 0 0 1-.537-.535zm-3.475 0a.535.535 0 1 1 .535.535.535.535 0 0 1-.538-.535zm-3.474 0a.535.535 0 1 1 .534.535.535.535 0 0 1-.536-.535zm-3.475 0a.535.535 0 1 1 .534.535.535.535 0 0 1-.537-.535zm-3.478 0a.535.535 0 1 1 .534.535.535.535 0 0 1-.534-.535zm41.7-3.475a.535.535 0 1 1 .535.535.535.535 0 0 1-.535-.535zm-3.475 0a.535.535 0 1 1 .535.535.535.535 0 0 1-.536-.535zm-3.474 0a.535.535 0 1 1 .534.535.535.535 0 0 1-.535-.535zm-3.475 0a.535.535 0 1 1 .535.535.535.535 0 0 1-.536-.535zm-3.475 0a.535.535 0 1 1 .535.535.535.535 0 0 1-.536-.535zm-3.475 0a.535.535 0 1 1 .534.535.535.535 0 0 1-.536-.535zm-3.474 0a.535.535 0 1 1 .535.535.535.535 0 0 1-.537-.535zm-3.475 0a.535.535 0 1 1 .534.535.535.535 0 0 1-.536-.535zm-3.475 0a.535.535 0 1 1 .535.535.535.535 0 0 1-.537-.535zm-3.475 0a.535.535 0 1 1 .535.535.535.535 0 0 1-.538-.535zm-3.474 0a.535.535 0 1 1 .534.535.535.535 0 0 1-.536-.535zm-3.475 0a.535.535 0 1 1 .534.535.535.535 0 0 1-.537-.535zm-3.478 0a.535.535 0 1 1 .534.535.535.535 0 0 1-.534-.535zm41.7-3.474a.535.535 0 1 1 .535.536.534.534 0 0 1-.535-.537zm-3.475 0a.535.535 0 1 1 .535.536.534.534 0 0 1-.536-.537zm-3.474 0a.535.535 0 1 1 .534.536.534.534 0 0 1-.535-.537zm-3.475 0a.535.535 0 1 1 .535.536.534.534 0 0 1-.536-.537zm-3.475 0a.535.535 0 1 1 .535.536.534.534 0 0 1-.536-.537zm-3.475 0a.535.535 0 1 1 .534.536.534.534 0 0 1-.536-.537zm-3.474 0a.535.535 0 1 1 .535.536.534.534 0 0 1-.537-.537zm-3.475 0a.535.535 0 1 1 .534.536.534.534 0 0 1-.536-.537zm-3.475 0a.535.535 0 1 1 .535.536.534.534 0 0 1-.537-.537zm-3.475 0a.535.535 0 1 1 .535.536.534.534 0 0 1-.538-.537zm-3.474 0a.535.535 0 1 1 .534.536.534.534 0 0 1-.536-.537zm-3.475 0a.535.535 0 1 1 .534.536.534.534 0 0 1-.537-.537zM0 24.857a.535.535 0 1 1 .534.536.534.534 0 0 1-.534-.536zm41.7-3.475a.535.535 0 1 1 .535.534.534.534 0 0 1-.535-.533zm-3.475 0a.535.535 0 1 1 .535.534.534.534 0 0 1-.536-.533zm-3.474 0a.535.535 0 1 1 .534.534.534.534 0 0 1-.535-.533zm-3.475 0a.535.535 0 1 1 .535.534.534.534 0 0 1-.536-.533zm-3.475 0a.535.535 0 1 1 .535.534.534.534 0 0 1-.536-.533zm-3.475 0a.535.535 0 1 1 .534.534.534.534 0 0 1-.536-.533zm-3.474 0a.535.535 0 1 1 .535.534.534.534 0 0 1-.537-.533zm-3.475 0a.535.535 0 1 1 .534.534.534.534 0 0 1-.536-.533zm-3.475 0a.535.535 0 1 1 .535.534.534.534 0 0 1-.537-.533zm-3.475 0a.535.535 0 1 1 .535.534.534.534 0 0 1-.538-.533zm-3.474 0a.535.535 0 1 1 .534.534.534.534 0 0 1-.536-.533zm-3.475 0a.535.535 0 1 1 .534.534.534.534 0 0 1-.537-.533zM0 21.383a.535.535 0 1 1 .534.534.534.534 0 0 1-.534-.534zm41.7-3.475a.535.535 0 1 1 .535.534.535.535 0 0 1-.535-.534zm-3.475 0a.535.535 0 1 1 .535.534.535.535 0 0 1-.536-.534zm-3.474 0a.535.535 0 1 1 .534.534.535.535 0 0 1-.535-.534zm-3.475 0a.535.535 0 1 1 .535.534.535.535 0 0 1-.536-.534zm-3.475 0a.535.535 0 1 1 .535.534.535.535 0 0 1-.536-.534zm-3.475 0a.535.535 0 1 1 .534.534.535.535 0 0 1-.536-.534zm-3.474 0a.535.535 0 1 1 .535.534.535.535 0 0 1-.537-.534zm-3.475 0a.535.535 0 1 1 .534.534.535.535 0 0 1-.536-.534zm-3.475 0a.535.535 0 1 1 .535.534.535.535 0 0 1-.537-.534zm-3.475 0a.535.535 0 1 1 .535.534.535.535 0 0 1-.538-.534zm-3.474 0a.535.535 0 1 1 .534.534.535.535 0 0 1-.536-.534zm-3.475 0a.535.535 0 1 1 .534.534.535.535 0 0 1-.537-.534zm-3.478 0a.535.535 0 1 1 .534.534.535.535 0 0 1-.534-.534zm41.7-3.473a.535.535 0 1 1 .535.534.534.534 0 0 1-.535-.535zm-3.475 0a.535.535 0 1 1 .535.534.534.534 0 0 1-.536-.535zm-3.474 0a.535.535 0 1 1 .534.534.534.534 0 0 1-.535-.535zm-3.475 0a.535.535 0 1 1 .535.534.534.534 0 0 1-.536-.535zm-3.475 0a.535.535 0 1 1 .535.534.534.534 0 0 1-.536-.535zm-3.475 0a.535.535 0 1 1 .534.534.534.534 0 0 1-.536-.535zm-3.474 0a.535.535 0 1 1 .535.534.534.534 0 0 1-.537-.535zm-3.475 0a.535.535 0 1 1 .534.534.534.534 0 0 1-.536-.535zm-3.475 0a.535.535 0 1 1 .535.534.534.534 0 0 1-.537-.535zm-3.475 0a.535.535 0 1 1 .535.534.534.534 0 0 1-.538-.535zm-3.474 0a.535.535 0 1 1 .534.534.534.534 0 0 1-.536-.535zm-3.475 0a.535.535 0 1 1 .534.534.534.534 0 0 1-.537-.535zM0 14.434a.535.535 0 1 1 .534.534.534.534 0 0 1-.534-.534zm41.7-3.475a.535.535 0 1 1 .535.534.534.534 0 0 1-.535-.534zm-3.475 0a.535.535 0 1 1 .535.534.535.535 0 0 1-.536-.534zm-3.474 0a.535.535 0 1 1 .534.534.534.534 0 0 1-.535-.534zm-3.475 0a.535.535 0 1 1 .535.534.534.534 0 0 1-.536-.534zm-3.475 0a.535.535 0 1 1 .535.534.534.534 0 0 1-.536-.534zm-3.475 0a.535.535 0 1 1 .534.534.534.534 0 0 1-.536-.534zm-3.474 0a.535.535 0 1 1 .535.534.534.534 0 0 1-.537-.534zm-3.475 0a.535.535 0 1 1 .534.534.534.534 0 0 1-.536-.534zm-3.475 0a.535.535 0 1 1 .535.534.534.534 0 0 1-.537-.534zm-3.475 0a.535.535 0 1 1 .535.534.534.534 0 0 1-.538-.534zm-3.474 0a.535.535 0 1 1 .534.534.534.534 0 0 1-.536-.534zm-3.475 0a.535.535 0 1 1 .534.534.534.534 0 0 1-.537-.534zm-3.478 0a.535.535 0 1 1 .534.534.534.534 0 0 1-.534-.534zm41.7-3.475a.535.535 0 1 1 .535.535.536.536 0 0 1-.535-.535zm-3.475 0a.535.535 0 1 1 .535.535.536.536 0 0 1-.536-.535zm-3.474 0a.535.535 0 1 1 .534.535.536.536 0 0 1-.535-.535zm-3.475 0a.535.535 0 1 1 .535.535.536.536 0 0 1-.536-.535zm-3.475 0a.535.535 0 1 1 .535.535.536.536 0 0 1-.536-.535zm-3.475 0a.535.535 0 1 1 .534.535.536.536 0 0 1-.536-.535zm-3.474 0a.535.535 0 1 1 .535.535.536.536 0 0 1-.537-.535zm-3.475 0a.535.535 0 1 1 .534.535.536.536 0 0 1-.536-.535zm-3.475 0a.535.535 0 1 1 .535.535.536.536 0 0 1-.537-.535zm-3.475 0a.535.535 0 1 1 .535.535.536.536 0 0 1-.538-.535zm-3.474 0a.535.535 0 1 1 .534.535.536.536 0 0 1-.536-.535zm-3.475 0a.535.535 0 1 1 .534.535.536.536 0 0 1-.537-.535zM0 7.484a.535.535 0 1 1 .534.535A.536.536 0 0 1 0 7.484zM41.7 4.01a.535.535 0 1 1 .535.535.535.535 0 0 1-.535-.535zm-3.475 0a.535.535 0 1 1 .535.535.535.535 0 0 1-.536-.535zm-3.474 0a.535.535 0 1 1 .534.535.535.535 0 0 1-.535-.535zm-3.475 0a.535.535 0 1 1 .535.535.535.535 0 0 1-.536-.535zm-3.475 0a.535.535 0 1 1 .535.535.535.535 0 0 1-.536-.535zm-3.475 0a.535.535 0 1 1 .534.535.535.535 0 0 1-.536-.535zm-3.474 0a.535.535 0 1 1 .535.535.535.535 0 0 1-.537-.535zm-3.475 0a.535.535 0 1 1 .534.535.535.535 0 0 1-.536-.535zm-3.475 0a.535.535 0 1 1 .535.535.535.535 0 0 1-.537-.535zm-3.475 0a.535.535 0 1 1 .535.535.535.535 0 0 1-.538-.535zm-3.474 0a.535.535 0 1 1 .534.535.535.535 0 0 1-.536-.535zm-3.475 0a.535.535 0 1 1 .534.535.535.535 0 0 1-.537-.535zM0 4.01a.535.535 0 1 1 .534.535A.535.535 0 0 1 0 4.01zM41.7.534a.535.535 0 1 1 .535.535.534.534 0 0 1-.535-.535zm-3.475 0a.535.535 0 1 1 .535.535.535.535 0 0 1-.536-.535zm-3.474 0a.535.535 0 1 1 .534.535.534.534 0 0 1-.535-.535zm-3.475 0a.535.535 0 1 1 .535.535.534.534 0 0 1-.536-.535zm-3.476 0a.535.535 0 1 1 .535.535.534.534 0 0 1-.535-.535zm-3.475 0a.535.535 0 1 1 .534.535.534.534 0 0 1-.535-.535zm-3.474 0a.535.535 0 1 1 .535.535.534.534 0 0 1-.536-.535zm-3.475 0a.535.535 0 1 1 .534.535.534.534 0 0 1-.535-.535zm-3.476 0a.535.535 0 1 1 .535.535.534.534 0 0 1-.535-.535zm-3.475 0a.535.535 0 1 1 .535.535.534.534 0 0 1-.536-.535zm-3.474 0a.535.535 0 1 1 .534.535.534.534 0 0 1-.534-.535zm-3.475 0a.535.535 0 1 1 .534.535.534.534 0 0 1-.535-.535zM0 .534a.535.535 0 1 1 .534.535A.534.534 0 0 1 0 .534z" transform="translate(-.708 -3.464)" style="fill:#9c2555"/>
            </g>
        </g>
        <g data-name="Group 6957">
            <path data-name="NoPath - Copy (10)" d="m507.31 293.936-.963.6-.573-.984a5.474 5.474 0 0 0-7.138-2.328 5.793 5.793 0 0 0-2.382 8.032l5.622 9.675a1.258 1.258 0 0 0 1.766.436l9.455-5.949a5.789 5.789 0 0 0 1.613-8.223 5.474 5.474 0 0 0-7.4-1.259z" transform="translate(-369.724 -195.527)" style="fill:#881543"/>
            <g data-name="Mask Group 31" transform="translate(125.764 95.155)" style="clip-path:url(#jb7w64qsnc)">
                <path data-name="Union 29" d="M20.183 20.441a.259.259 0 1 1 .259.258.259.259 0 0 1-.259-.258zm-1.682 0a.259.259 0 1 1 .259.258.259.259 0 0 1-.26-.258zm-1.681 0a.259.259 0 1 1 .259.258.259.259 0 0 1-.259-.258zm-1.682 0a.259.259 0 1 1 .259.258.259.259 0 0 1-.259-.258zm-1.682 0a.259.259 0 1 1 .259.258.259.259 0 0 1-.259-.258zm-1.682 0a.259.259 0 1 1 .259.258.259.259 0 0 1-.259-.258zm-1.682 0a.259.259 0 1 1 .259.258.259.259 0 0 1-.259-.258zm-1.682 0a.259.259 0 1 1 .259.258.259.259 0 0 1-.259-.258zm-1.682 0a.259.259 0 1 1 .259.258.259.259 0 0 1-.259-.258zm-1.682 0a.259.259 0 1 1 .254.259.259.259 0 0 1-.254-.259zm-1.681 0a.259.259 0 1 1 .259.258.259.259 0 0 1-.26-.258zm-1.682 0a.259.259 0 1 1 .259.258.259.259 0 0 1-.26-.258zm-1.683 0a.259.259 0 1 1 .259.258.259.259 0 0 1-.259-.258zm20.183-1.682a.259.259 0 1 1 .259.258.259.259 0 0 1-.259-.258zm-1.682 0a.259.259 0 1 1 .259.258.259.259 0 0 1-.26-.258zm-1.681 0a.259.259 0 1 1 .259.258.259.259 0 0 1-.259-.258zm-1.682 0a.259.259 0 1 1 .259.258.259.259 0 0 1-.259-.258zm-1.682 0a.259.259 0 1 1 .259.258.259.259 0 0 1-.259-.258zm-1.682 0a.259.259 0 1 1 .259.258.259.259 0 0 1-.259-.258zm-1.682 0a.259.259 0 1 1 .259.258.259.259 0 0 1-.259-.258zm-1.682 0a.259.259 0 1 1 .259.258.259.259 0 0 1-.259-.258zm-1.682 0a.259.259 0 1 1 .259.258.259.259 0 0 1-.259-.258zm-1.682 0a.259.259 0 1 1 .259.258.259.259 0 0 1-.259-.258zm-1.681 0a.259.259 0 1 1 .259.258.259.259 0 0 1-.26-.258zm-1.682 0a.259.259 0 1 1 .259.258.258.258 0 0 1-.26-.258zm-1.683 0a.259.259 0 1 1 .259.258.259.259 0 0 1-.259-.258zm20.183-1.681a.259.259 0 1 1 .259.258.259.259 0 0 1-.259-.258zm-1.682 0a.259.259 0 1 1 .259.258.259.259 0 0 1-.26-.258zm-1.681 0a.259.259 0 1 1 .259.258.259.259 0 0 1-.259-.258zm-1.682 0a.259.259 0 1 1 .259.258.259.259 0 0 1-.259-.258zm-1.682 0a.259.259 0 1 1 .259.258.259.259 0 0 1-.259-.258zm-1.682 0a.259.259 0 1 1 .259.258.259.259 0 0 1-.259-.258zm-1.682 0a.259.259 0 1 1 .259.258.259.259 0 0 1-.259-.258zm-1.682 0a.259.259 0 1 1 .259.258.259.259 0 0 1-.259-.258zm-1.682 0a.259.259 0 1 1 .259.258.259.259 0 0 1-.259-.258zm-1.682 0a.259.259 0 1 1 .259.258.259.259 0 0 1-.259-.258zm-1.681 0a.259.259 0 1 1 .259.258.259.259 0 0 1-.26-.258zm-1.682 0a.259.259 0 1 1 .259.258.259.259 0 0 1-.26-.258zm-1.683 0a.259.259 0 1 1 .259.258.259.259 0 0 1-.259-.258zM20.183 15.4a.259.259 0 1 1 .259.259.259.259 0 0 1-.259-.259zm-1.682 0a.259.259 0 1 1 .259.259.259.259 0 0 1-.26-.259zm-1.681 0a.259.259 0 1 1 .259.259.259.259 0 0 1-.259-.259zm-1.682 0a.259.259 0 1 1 .259.259.259.259 0 0 1-.259-.259zm-1.682 0a.259.259 0 1 1 .259.259.259.259 0 0 1-.259-.259zm-1.682 0a.259.259 0 1 1 .259.259.259.259 0 0 1-.259-.259zm-1.682 0a.259.259 0 1 1 .259.259.259.259 0 0 1-.259-.259zm-1.682 0a.259.259 0 1 1 .259.259.259.259 0 0 1-.259-.259zm-1.682 0a.259.259 0 1 1 .259.259.259.259 0 0 1-.259-.259zm-1.682 0a.259.259 0 1 1 .259.259.259.259 0 0 1-.259-.259zm-1.681 0a.259.259 0 1 1 .259.259.259.259 0 0 1-.26-.259zm-1.682 0a.259.259 0 1 1 .259.259.259.259 0 0 1-.26-.259zM0 15.4a.259.259 0 1 1 .259.259A.259.259 0 0 1 0 15.4zm20.183-1.682a.259.259 0 1 1 .259.259.259.259 0 0 1-.259-.264zm-1.682 0a.259.259 0 1 1 .259.259.259.259 0 0 1-.26-.264zm-1.681 0a.259.259 0 1 1 .259.259.259.259 0 0 1-.259-.264zm-1.682 0a.259.259 0 1 1 .259.259.259.259 0 0 1-.259-.264zm-1.682 0a.259.259 0 1 1 .259.259.259.259 0 0 1-.259-.264zm-1.682 0a.259.259 0 1 1 .259.259.259.259 0 0 1-.259-.264zm-1.682 0a.259.259 0 1 1 .259.259.259.259 0 0 1-.259-.264zm-1.682 0a.259.259 0 1 1 .259.259.259.259 0 0 1-.259-.264zm-1.682 0a.259.259 0 1 1 .259.259.259.259 0 0 1-.259-.264zm-1.682 0a.259.259 0 1 1 .259.259.259.259 0 0 1-.259-.264zm-1.681 0a.259.259 0 1 1 .259.259.259.259 0 0 1-.26-.264zm-1.682 0a.259.259 0 1 1 .259.259.259.259 0 0 1-.26-.264zM0 13.713a.259.259 0 1 1 .259.259.259.259 0 0 1-.259-.259zm20.183-1.682a.259.259 0 1 1 .259.259.259.259 0 0 1-.259-.258zm-1.682 0a.259.259 0 1 1 .259.259.259.259 0 0 1-.26-.258zm-1.681 0a.259.259 0 1 1 .259.259.259.259 0 0 1-.259-.258zm-1.682 0a.259.259 0 1 1 .259.259.259.259 0 0 1-.259-.258zm-1.682 0a.259.259 0 1 1 .259.259.259.259 0 0 1-.259-.258zm-1.682 0a.259.259 0 1 1 .259.259.259.259 0 0 1-.259-.258zm-1.682 0a.259.259 0 1 1 .259.259.259.259 0 0 1-.259-.258zm-1.682 0a.259.259 0 1 1 .259.259.259.259 0 0 1-.259-.258zm-1.682 0a.259.259 0 1 1 .259.259.259.259 0 0 1-.259-.258zm-1.682 0a.259.259 0 1 1 .259.259.259.259 0 0 1-.259-.258zm-1.681 0a.259.259 0 1 1 .259.259.259.259 0 0 1-.26-.258zm-1.682 0a.259.259 0 1 1 .259.259.258.258 0 0 1-.26-.258zM0 12.032a.259.259 0 1 1 .259.259.259.259 0 0 1-.259-.259zm20.183-1.682a.259.259 0 1 1 .259.259.259.259 0 0 1-.259-.259zm-1.682 0a.259.259 0 1 1 .259.259.259.259 0 0 1-.26-.259zm-1.681 0a.259.259 0 1 1 .259.259.259.259 0 0 1-.259-.259zm-1.682 0a.259.259 0 1 1 .259.259.259.259 0 0 1-.259-.259zm-1.682 0a.259.259 0 1 1 .259.259.259.259 0 0 1-.259-.259zm-1.682 0a.259.259 0 1 1 .259.259.259.259 0 0 1-.259-.259zm-1.682 0a.259.259 0 1 1 .259.259.259.259 0 0 1-.259-.259zm-1.682 0a.259.259 0 1 1 .259.259.259.259 0 0 1-.259-.259zm-1.682 0a.259.259 0 1 1 .259.259.259.259 0 0 1-.259-.259zm-1.682 0a.259.259 0 1 1 .259.259.259.259 0 0 1-.259-.259zm-1.681 0a.259.259 0 1 1 .259.259.259.259 0 0 1-.26-.259zm-1.682 0a.259.259 0 1 1 .259.259.258.258 0 0 1-.26-.259zM0 10.35a.259.259 0 1 1 .259.259A.259.259 0 0 1 0 10.35zm20.183-1.682a.259.259 0 1 1 .259.259.259.259 0 0 1-.259-.259zm-1.682 0a.259.259 0 1 1 .259.259.259.259 0 0 1-.26-.259zm-1.681 0a.259.259 0 1 1 .259.259.259.259 0 0 1-.259-.259zm-1.682 0a.259.259 0 1 1 .259.259.259.259 0 0 1-.259-.259zm-1.682 0a.259.259 0 1 1 .259.259.259.259 0 0 1-.259-.259zm-1.682 0a.259.259 0 1 1 .259.259.259.259 0 0 1-.259-.259zm-1.682 0a.259.259 0 1 1 .259.259.259.259 0 0 1-.259-.259zm-1.682 0a.259.259 0 1 1 .259.259.259.259 0 0 1-.259-.259zm-1.682 0a.259.259 0 1 1 .259.259.259.259 0 0 1-.259-.259zm-1.682 0a.259.259 0 1 1 .259.259.259.259 0 0 1-.259-.259zm-1.681 0a.259.259 0 1 1 .259.259.259.259 0 0 1-.26-.259zm-1.682 0a.259.259 0 1 1 .259.259.259.259 0 0 1-.26-.259zM0 8.668a.259.259 0 1 1 .259.259A.259.259 0 0 1 0 8.668zm20.183-1.681a.259.259 0 1 1 .259.258.258.258 0 0 1-.259-.258zm-1.682 0a.259.259 0 1 1 .259.258.258.258 0 0 1-.26-.258zm-1.681 0a.259.259 0 1 1 .259.258.258.258 0 0 1-.259-.258zm-1.682 0a.259.259 0 1 1 .259.258.258.258 0 0 1-.259-.258zm-1.682 0a.259.259 0 1 1 .259.258.258.258 0 0 1-.259-.258zm-1.682 0a.259.259 0 1 1 .259.258.258.258 0 0 1-.259-.258zm-1.682 0a.259.259 0 1 1 .259.258.258.258 0 0 1-.259-.258zm-1.682 0a.259.259 0 1 1 .259.258.258.258 0 0 1-.259-.258zm-1.682 0a.259.259 0 1 1 .259.258.258.258 0 0 1-.259-.258zm-1.682 0a.259.259 0 1 1 .259.258.258.258 0 0 1-.259-.258zm-1.681 0a.259.259 0 1 1 .259.258.258.258 0 0 1-.26-.258zm-1.682 0a.259.259 0 1 1 .259.258.258.258 0 0 1-.26-.258zM0 6.987a.259.259 0 1 1 .259.258A.258.258 0 0 1 0 6.987zM20.183 5.3a.259.259 0 1 1 .259.259.259.259 0 0 1-.259-.259zm-1.683 0a.259.259 0 1 1 .259.259.259.259 0 0 1-.259-.259zm-1.681 0a.259.259 0 1 1 .259.259.259.259 0 0 1-.258-.259zm-1.682 0a.259.259 0 1 1 .259.259.259.259 0 0 1-.258-.259zm-1.682 0a.259.259 0 1 1 .259.259.259.259 0 0 1-.258-.259zm-1.682 0a.259.259 0 1 1 .259.259.259.259 0 0 1-.258-.259zm-1.682 0a.259.259 0 1 1 .259.259.259.259 0 0 1-.258-.259zm-1.681 0a.259.259 0 1 1 .259.259.259.259 0 0 1-.259-.259zm-1.682 0a.259.259 0 1 1 .259.259.259.259 0 0 1-.259-.259zm-1.682 0a.259.259 0 1 1 .259.259.259.259 0 0 1-.259-.259zm-1.681 0a.259.259 0 1 1 .259.259.259.259 0 0 1-.26-.259zm-1.682 0a.259.259 0 1 1 .259.259.259.259 0 0 1-.26-.259zM0 5.3a.259.259 0 1 1 .259.259A.259.259 0 0 1 0 5.3zm20.183-1.678a.259.259 0 1 1 .259.259.26.26 0 0 1-.259-.259zm-1.682 0a.259.259 0 1 1 .259.259.26.26 0 0 1-.26-.259zm-1.681 0a.259.259 0 1 1 .259.259.26.26 0 0 1-.259-.259zm-1.682 0a.259.259 0 1 1 .259.259.26.26 0 0 1-.259-.259zm-1.682 0a.259.259 0 1 1 .259.259.26.26 0 0 1-.259-.259zm-1.682 0a.259.259 0 1 1 .259.259.259.259 0 0 1-.259-.259zm-1.682 0a.259.259 0 1 1 .259.259.26.26 0 0 1-.259-.259zm-1.682 0a.259.259 0 1 1 .259.259.259.259 0 0 1-.259-.259zm-1.682 0a.259.259 0 1 1 .259.259.26.26 0 0 1-.259-.259zm-1.682 0a.259.259 0 1 1 .259.259.26.26 0 0 1-.259-.259zm-1.681 0a.259.259 0 1 1 .259.259.259.259 0 0 1-.26-.259zm-1.682 0a.259.259 0 1 1 .259.259.259.259 0 0 1-.26-.259zM0 3.622a.259.259 0 1 1 .259.259A.26.26 0 0 1 0 3.622zm20.183-1.681a.259.259 0 1 1 .259.259.259.259 0 0 1-.259-.259zm-1.682 0a.259.259 0 1 1 .259.259.259.259 0 0 1-.26-.259zm-1.681 0a.259.259 0 1 1 .259.259.259.259 0 0 1-.259-.259zm-1.682 0a.259.259 0 1 1 .262.259.259.259 0 0 1-.262-.259zm-1.682 0a.259.259 0 1 1 .259.259.259.259 0 0 1-.259-.259zm-1.682 0a.259.259 0 1 1 .259.259.259.259 0 0 1-.259-.259zm-1.682 0a.259.259 0 1 1 .259.259.259.259 0 0 1-.259-.259zm-1.682 0a.259.259 0 1 1 .259.259.259.259 0 0 1-.259-.259zm-1.682 0a.259.259 0 1 1 .259.259.259.259 0 0 1-.259-.259zm-1.682 0A.259.259 0 1 1 5.3 2.2a.259.259 0 0 1-.254-.259zm-1.681 0a.259.259 0 1 1 .259.259.259.259 0 0 1-.26-.259zm-1.682 0a.259.259 0 1 1 .259.259.259.259 0 0 1-.26-.259zM0 1.941a.259.259 0 1 1 .259.259A.259.259 0 0 1 0 1.941zM20.183.259a.259.259 0 1 1 .259.259.259.259 0 0 1-.259-.259zm-1.683 0a.259.259 0 1 1 .259.259.259.259 0 0 1-.259-.259zm-1.681 0a.259.259 0 1 1 .259.259.259.259 0 0 1-.258-.259zm-1.682 0a.259.259 0 1 1 .263.259.259.259 0 0 1-.262-.259zm-1.682 0a.259.259 0 1 1 .259.259.259.259 0 0 1-.258-.259zm-1.682 0a.259.259 0 1 1 .259.259.259.259 0 0 1-.258-.259zm-1.682 0a.259.259 0 1 1 .259.259.259.259 0 0 1-.258-.259zm-1.681 0a.259.259 0 1 1 .259.259.259.259 0 0 1-.259-.259zm-1.682 0a.259.259 0 1 1 .259.259.259.259 0 0 1-.259-.259zm-1.682 0A.259.259 0 1 1 5.3.518a.259.259 0 0 1-.254-.259zm-1.681 0a.259.259 0 1 1 .259.259.259.259 0 0 1-.26-.259zm-1.682 0a.259.259 0 1 1 .259.259.259.259 0 0 1-.26-.259zM0 .259a.259.259 0 1 1 .259.259A.259.259 0 0 1 0 .259z" transform="translate(-.343 -1.677)" style="fill:#9c2555"/>
            </g>
        </g>
    </g>
</svg>
