<svg data-name="Component 8 – 2" xmlns="http://www.w3.org/2000/svg" width="40" height="40" viewBox="0 0 40 40">
    <path data-name="Path 3094" d="M20 0A20 20 0 1 1 0 20 20 20 0 0 1 20 0z" style="fill:#2157a5"/>
    <path data-name="Path 25400" d="M296.975 102.163h11.486a.669.669 0 0 0 .669-.669V98.8a6.421 6.421 0 0 0-3.942-5.916 4.075 4.075 0 1 0-4.94 0 6.421 6.421 0 0 0-3.942 5.916v2.7a.67.67 0 0 0 .669.669zm3.006-12.516a2.737 2.737 0 1 1 2.737 2.737 2.74 2.74 0 0 1-2.737-2.736zm-2.337 9.153a5.074 5.074 0 0 1 10.148 0v2.031h-10.148z" transform="translate(-282.305 -73.573)" style="fill:#d1e6ff"/>
</svg>
