<svg xmlns="http://www.w3.org/2000/svg" width="199.012" height="160" viewBox="0 0 199.012 160">
  <g id="Group_6959" data-name="Group 6959" transform="translate(-1118.574 -2292)">
    <path id="Union_36" data-name="Union 36" d="M7442,21830a2,2,0,1,1,2,2A2,2,0,0,1,7442,21830Zm-13,0a2,2,0,1,1,2,2A2,2,0,0,1,7429,21830Zm13-13a2,2,0,1,1,2,2A2,2,0,0,1,7442,21817Zm-13,0a2,2,0,1,1,2,2A2,2,0,0,1,7429,21817Zm13-13a2,2,0,1,1,2,2A2,2,0,0,1,7442,21804Zm-13,0a2,2,0,1,1,2,2A2,2,0,0,1,7429,21804Zm13-13a2,2,0,1,1,2,2A2,2,0,0,1,7442,21791Zm-13,0a2,2,0,1,1,2,2A2,2,0,0,1,7429,21791Zm13-13a2,2,0,1,1,2,2A2,2,0,0,1,7442,21778Zm-13,0a2,2,0,1,1,2,2A2,2,0,0,1,7429,21778Zm13-13a2,2,0,1,1,2,2A2,2,0,0,1,7442,21765Zm-13,0a2,2,0,1,1,2,2A2,2,0,0,1,7429,21765Zm13-13a2,2,0,1,1,2,2A2,2,0,0,1,7442,21752Zm-13,0a2,2,0,1,1,2,2A2,2,0,0,1,7429,21752Zm13-13a2,2,0,1,1,2,2A2,2,0,0,1,7442,21739Zm-13,0a2,2,0,1,1,2,2A2,2,0,0,1,7429,21739Zm13-13a2,2,0,1,1,2,2A2,2,0,0,1,7442,21726Zm-13,0a2,2,0,1,1,2,2A2,2,0,0,1,7429,21726Zm13-13a2,2,0,1,1,2,2A2,2,0,0,1,7442,21713Zm-13,0a2,2,0,1,1,2,2A2,2,0,0,1,7429,21713Zm13-13a2,2,0,1,1,2,2A2,2,0,0,1,7442,21700Zm-13,0a2,2,0,1,1,2,2A2,2,0,0,1,7429,21700Zm195.007-13a2,2,0,1,1,2,2A2,2,0,0,1,7624.007,21687Zm-13,0a2,2,0,1,1,2,2A2,2,0,0,1,7611.01,21687Zm-13,0a2,2,0,1,1,2,2A2,2,0,0,1,7598.008,21687Zm-13,0a2,2,0,1,1,2,2A2,2,0,0,1,7585.006,21687Zm-13,0a2,2,0,1,1,2,2A2,2,0,0,1,7572,21687Zm-13,0a2,2,0,1,1,2,2A2,2,0,0,1,7559.008,21687Zm-13,0a2,2,0,1,1,2,2A2,2,0,0,1,7546.006,21687Zm-13,0a2,2,0,1,1,2,2A2,2,0,0,1,7533,21687Zm-13,0a2,2,0,1,1,2,2A2,2,0,0,1,7520,21687Zm-13,0a2,2,0,1,1,2,2A2,2,0,0,1,7507.006,21687Zm-13,0a2,2,0,1,1,2,2A2,2,0,0,1,7494,21687Zm-13,0a2,2,0,1,1,2,2A2,2,0,0,1,7481,21687Zm-13,0a2,2,0,1,1,2,2A2,2,0,0,1,7468,21687Zm-13,0a2,2,0,1,1,2,2A2,2,0,0,1,7455,21687Zm-13,0a2,2,0,1,1,2,2A2,2,0,0,1,7442,21687Zm-13,0a2,2,0,1,1,2,2A2,2,0,0,1,7429,21687Zm195.007-13a2,2,0,1,1,2,2A2,2,0,0,1,7624.007,21674Zm-13,0a2,2,0,1,1,2,2A2,2,0,0,1,7611.01,21674Zm-13,0a2,2,0,1,1,2,2A2,2,0,0,1,7598.008,21674Zm-13,0a2,2,0,1,1,2,2A2,2,0,0,1,7585.006,21674Zm-13,0a2,2,0,1,1,2,2A2,2,0,0,1,7572,21674Zm-13,0a2,2,0,1,1,2,2A2,2,0,0,1,7559.008,21674Zm-13,0a2,2,0,1,1,2,2A2,2,0,0,1,7546.006,21674Zm-13,0a2,2,0,1,1,2,2A2,2,0,0,1,7533,21674Zm-13,0a2,2,0,1,1,2,2A2,2,0,0,1,7520,21674Zm-13,0a2,2,0,1,1,2,2A2,2,0,0,1,7507.006,21674Zm-13,0a2,2,0,1,1,2,2A2,2,0,0,1,7494,21674Zm-13,0a2,2,0,1,1,2,2A2,2,0,0,1,7481,21674Zm-13,0a2,2,0,1,1,2,2A2,2,0,0,1,7468,21674Zm-13,0a2,2,0,1,1,2,2A2,2,0,0,1,7455,21674Zm-13,0a2,2,0,1,1,2,2A2,2,0,0,1,7442,21674Zm-13,0a2,2,0,1,1,2,2A2,2,0,0,1,7429,21674Z" transform="translate(-6310.426 -19380)" fill="#fff"/>
  </g>
</svg>
