<svg xmlns="http://www.w3.org/2000/svg" width="95.008" height="134.002" viewBox="0 0 95.008 134.002">
  <g id="Group_7004" data-name="Group 7004" transform="translate(-104.002 -25.998)">
    <path id="Union_36" data-name="Union 36" d="M13,132a2,2,0,1,1,2,2A2,2,0,0,1,13,132ZM0,132a2,2,0,1,1,2,2A2,2,0,0,1,0,132Zm13-13a2,2,0,1,1,2,2A2,2,0,0,1,13,119ZM0,119a2,2,0,1,1,2,2A2,2,0,0,1,0,119Zm13-13a2,2,0,1,1,2,2A2,2,0,0,1,13,106ZM0,106a2,2,0,1,1,2,2A2,2,0,0,1,0,106ZM13,93a2,2,0,1,1,2,2A2,2,0,0,1,13,93ZM0,93a2,2,0,1,1,2,2A2,2,0,0,1,0,93ZM13,80a2,2,0,1,1,2,2A2,2,0,0,1,13,80ZM0,80a2,2,0,1,1,2,2A2,2,0,0,1,0,80ZM13,67a2,2,0,1,1,2,2A2,2,0,0,1,13,67ZM0,67a2,2,0,1,1,2,2A2,2,0,0,1,0,67ZM13,54a2,2,0,1,1,2,2A2,2,0,0,1,13,54ZM0,54a2,2,0,1,1,2,2A2,2,0,0,1,0,54ZM13,41a2,2,0,1,1,2,2A2,2,0,0,1,13,41ZM0,41a2,2,0,1,1,2,2A2,2,0,0,1,0,41ZM13,28a2,2,0,1,1,2,2A2,2,0,0,1,13,28ZM0,28a2,2,0,1,1,2,2A2,2,0,0,1,0,28ZM91,15a2,2,0,1,1,2,2A2,2,0,0,1,91,15Zm-13,0a2,2,0,1,1,2,2A2,2,0,0,1,78.008,15Zm-13,0a2,2,0,1,1,2,2A2,2,0,0,1,65.006,15ZM52,15a2,2,0,1,1,2,2A2,2,0,0,1,52,15ZM39,15a2,2,0,1,1,2,2A2,2,0,0,1,39,15Zm-13,0a2,2,0,1,1,2,2A2,2,0,0,1,26.006,15ZM13,15a2,2,0,1,1,2,2A2,2,0,0,1,13,15ZM0,15a2,2,0,1,1,2,2A2,2,0,0,1,0,15ZM91,2a2,2,0,1,1,2,2A2,2,0,0,1,91,2Zm-13,0a2,2,0,1,1,2,2A2,2,0,0,1,78.008,2Zm-13,0a2,2,0,1,1,2,2A2,2,0,0,1,65.006,2ZM52,2a2,2,0,1,1,2,2A2,2,0,0,1,52,2ZM39,2a2,2,0,1,1,2,2A2,2,0,0,1,39,2Zm-13,0a2,2,0,1,1,2,2A2,2,0,0,1,26.006,2ZM13,2a2,2,0,1,1,2,2A2,2,0,0,1,13,2ZM0,2A2,2,0,1,1,2,4,2,2,0,0,1,0,2Z" transform="translate(199.012 160) rotate(180)" fill="#ccd7de"/>
  </g>
</svg>
