<svg xmlns="http://www.w3.org/2000/svg" width="17.007" height="134.002" viewBox="0 0 17.007 134.002">
    <g data-name="Group 7004">
        <path data-name="Union 36" d="M13 132a2 2 0 1 1 2 2 2 2 0 0 1-2-2zm-13 0a2 2 0 1 1 2 2 2 2 0 0 1-2-2zm13-13a2 2 0 1 1 2 2 2 2 0 0 1-2-2zm-13 0a2 2 0 1 1 2 2 2 2 0 0 1-2-2zm13-13a2 2 0 1 1 2 2 2 2 0 0 1-2-2zm-13 0a2 2 0 1 1 2 2 2 2 0 0 1-2-2zm13-13a2 2 0 1 1 2 2 2 2 0 0 1-2-2zM0 93a2 2 0 1 1 2 2 2 2 0 0 1-2-2zm13-13a2 2 0 1 1 2 2 2 2 0 0 1-2-2zM0 80a2 2 0 1 1 2 2 2 2 0 0 1-2-2zm13-13a2 2 0 1 1 2 2 2 2 0 0 1-2-2zM0 67a2 2 0 1 1 2 2 2 2 0 0 1-2-2zm13-13a2 2 0 1 1 2 2 2 2 0 0 1-2-2zM0 54a2 2 0 1 1 2 2 2 2 0 0 1-2-2zm13-13a2 2 0 1 1 2 2 2 2 0 0 1-2-2zM0 41a2 2 0 1 1 2 2 2 2 0 0 1-2-2zm13-13a2 2 0 1 1 2 2 2 2 0 0 1-2-2zM0 28a2 2 0 1 1 2 2 2 2 0 0 1-2-2zm13-13a2 2 0 1 1 2 2 2 2 0 0 1-2-2zM0 15a2 2 0 1 1 2 2 2 2 0 0 1-2-2zM13 2a2 2 0 1 1 2 2 2 2 0 0 1-2-2zM0 2a2 2 0 1 1 2 2 2 2 0 0 1-2-2z" transform="rotate(180 8.505 67.001)" style="fill:#ccd7de"/>
    </g>
</svg>
