<svg xmlns="http://www.w3.org/2000/svg" width="50" height="50" viewBox="0 0 50 50">
    <g data-name="Group 7017">
        <g data-name="Path 24757" style="fill:#fff">
            <path d="M25 49a23.921 23.921 0 0 1-16.97-7.03A23.921 23.921 0 0 1 1 25 23.921 23.921 0 0 1 8.03 8.03 23.921 23.921 0 0 1 25 1a23.921 23.921 0 0 1 16.97 7.03A23.921 23.921 0 0 1 49 25a23.921 23.921 0 0 1-7.03 16.97A23.921 23.921 0 0 1 25 49z" style="stroke:none"/>
            <path d="M25 2A22.926 22.926 0 0 0 8.737 8.737 22.926 22.926 0 0 0 2 25a22.926 22.926 0 0 0 6.737 16.263A22.926 22.926 0 0 0 25 48a22.926 22.926 0 0 0 16.263-6.737A22.926 22.926 0 0 0 48 25a22.926 22.926 0 0 0-6.737-16.263A22.926 22.926 0 0 0 25 2m0-2c13.807 0 25 11.193 25 25S38.807 50 25 50 0 38.807 0 25 11.193 0 25 0z" style="fill:#6fac39;stroke:none"/>
        </g>
        <path data-name="Path 24758" d="m597.409 249.2 5.722 6.17L616 243.8" transform="rotate(-4.01 -2891.656 8433.856)" style="fill:none;stroke:#6fac39;stroke-width:3px"/>
    </g>
</svg>
