<svg xmlns="http://www.w3.org/2000/svg" width="27.635" height="29.907" viewBox="0 0 27.635 29.907">
    <defs>
        <clipPath id="rfj4lmk2za">
            <path data-name="NoPath - Copy (10)" d="m508.469 294.255-1.057.663-.629-1.08a6.01 6.01 0 0 0-7.837-2.556 6.361 6.361 0 0 0-2.616 8.819l6.173 10.623a1.381 1.381 0 0 0 1.939.478l10.381-6.532a6.357 6.357 0 0 0 1.771-9.029 6.01 6.01 0 0 0-8.125-1.386z" transform="translate(-495.488 -290.682)" style="fill:#d6a7ba"/>
        </clipPath>
        <clipPath id="ghncp2abnb">
            <path data-name="NoPath - Copy (10)" d="m500.076 291.945-.374.234-.222-.382a2.124 2.124 0 0 0-2.77-.9 2.248 2.248 0 0 0-.925 3.117l2.182 3.755a.488.488 0 0 0 .685.169l3.669-2.309a2.247 2.247 0 0 0 .626-3.191 2.124 2.124 0 0 0-2.871-.493z" transform="translate(-495.488 -290.682)" style="fill:#d6a7ba"/>
        </clipPath>
        <clipPath id="m8y1e9ozuc">
            <path data-name="NoPath - Copy (10)" d="m497.708 291.293-.181.113-.108-.185a1.028 1.028 0 0 0-1.341-.437 1.088 1.088 0 0 0-.448 1.509l1.056 1.817a.236.236 0 0 0 .332.082l1.776-1.117a1.087 1.087 0 0 0 .3-1.545 1.028 1.028 0 0 0-1.386-.237z" transform="translate(-495.488 -290.682)" style="fill:#d6a7ba"/>
        </clipPath>
    </defs>
    <g data-name="Group 7022">
        <g data-name="Group 6955">
            <path data-name="NoPath - Copy (10)" d="m508.469 294.255-1.057.663-.629-1.08a6.01 6.01 0 0 0-7.837-2.556 6.361 6.361 0 0 0-2.616 8.819l6.173 10.623a1.381 1.381 0 0 0 1.939.478l10.381-6.532a6.357 6.357 0 0 0 1.771-9.029 6.01 6.01 0 0 0-8.125-1.386z" transform="rotate(1 16399.037 -28218.132)" style="fill:#881543"/>
            <g data-name="Mask Group 31" style="clip-path:url(#rfj4lmk2za)" transform="rotate(1 -503.136 25.178)">
                <path data-name="Union 29" d="M22.161 22.444a.285.285 0 1 1 .284.284.284.284 0 0 1-.284-.284zm-1.847 0a.284.284 0 1 1 .284.284.284.284 0 0 1-.284-.284zm-1.846 0a.284.284 0 1 1 .284.284.284.284 0 0 1-.284-.284zm-1.847 0a.285.285 0 1 1 .284.284.284.284 0 0 1-.284-.284zm-1.847 0a.285.285 0 1 1 .284.284.284.284 0 0 1-.284-.284zm-1.847 0a.285.285 0 1 1 .284.284.284.284 0 0 1-.284-.284zm-1.846 0a.284.284 0 1 1 .284.284.284.284 0 0 1-.284-.284zm-1.847 0a.285.285 0 1 1 .284.284.284.284 0 0 1-.284-.284zm-1.847 0a.284.284 0 1 1 .284.284.284.284 0 0 1-.284-.284zm-1.847 0a.285.285 0 1 1 .284.284.284.284 0 0 1-.284-.284zm-1.846 0a.284.284 0 1 1 .284.284.284.284 0 0 1-.284-.284zm-1.847 0a.284.284 0 1 1 .284.284.284.284 0 0 1-.284-.284zm-1.847 0a.284.284 0 1 1 .284.284.284.284 0 0 1-.284-.284zM22.161 20.6a.285.285 0 1 1 .284.284.284.284 0 0 1-.284-.284zm-1.847 0a.284.284 0 1 1 .284.284.284.284 0 0 1-.284-.284zm-1.846 0a.284.284 0 1 1 .284.284.284.284 0 0 1-.284-.284zm-1.847 0a.285.285 0 1 1 .284.284.284.284 0 0 1-.284-.284zm-1.847 0a.285.285 0 1 1 .284.284.284.284 0 0 1-.284-.284zm-1.847 0a.285.285 0 1 1 .284.284.284.284 0 0 1-.284-.284zm-1.846 0a.284.284 0 1 1 .284.284.284.284 0 0 1-.284-.284zm-1.847 0a.285.285 0 1 1 .284.284.284.284 0 0 1-.284-.284zm-1.847 0a.284.284 0 1 1 .284.284.284.284 0 0 1-.284-.284zm-1.847 0a.285.285 0 1 1 .284.284.284.284 0 0 1-.284-.284zm-1.846 0a.284.284 0 1 1 .284.284.284.284 0 0 1-.284-.284zm-1.847 0a.284.284 0 1 1 .284.284.284.284 0 0 1-.284-.284zM0 20.6a.284.284 0 1 1 .284.284A.284.284 0 0 1 0 20.6zm22.161-1.846a.285.285 0 1 1 .284.284.284.284 0 0 1-.284-.287zm-1.847 0a.284.284 0 1 1 .284.284.284.284 0 0 1-.284-.287zm-1.846 0a.284.284 0 1 1 .284.284.284.284 0 0 1-.284-.287zm-1.847 0a.285.285 0 1 1 .284.284.284.284 0 0 1-.284-.287zm-1.847 0a.285.285 0 1 1 .284.284.284.284 0 0 1-.284-.287zm-1.847 0a.285.285 0 1 1 .284.284.284.284 0 0 1-.284-.287zm-1.846 0a.284.284 0 1 1 .284.284.284.284 0 0 1-.284-.287zm-1.847 0a.285.285 0 1 1 .284.284.284.284 0 0 1-.284-.287zm-1.847 0a.284.284 0 1 1 .284.284.284.284 0 0 1-.284-.287zm-1.847 0a.285.285 0 1 1 .284.284.284.284 0 0 1-.284-.287zm-1.846 0a.284.284 0 1 1 .284.284.284.284 0 0 1-.284-.287zm-1.847 0a.284.284 0 1 1 .284.284.284.284 0 0 1-.284-.287zM0 18.751a.284.284 0 1 1 .284.284.284.284 0 0 1-.284-.284zM22.161 16.9a.285.285 0 1 1 .284.284.284.284 0 0 1-.284-.284zm-1.847 0a.284.284 0 1 1 .284.284.284.284 0 0 1-.284-.284zm-1.846 0a.284.284 0 1 1 .284.284.284.284 0 0 1-.284-.284zm-1.847 0a.285.285 0 1 1 .284.284.284.284 0 0 1-.284-.284zm-1.847 0a.285.285 0 1 1 .284.284.284.284 0 0 1-.284-.284zm-1.847 0a.285.285 0 1 1 .284.284.284.284 0 0 1-.284-.284zm-1.846 0a.284.284 0 1 1 .284.284.284.284 0 0 1-.284-.284zm-1.847 0a.285.285 0 1 1 .284.284.284.284 0 0 1-.284-.284zm-1.847 0a.284.284 0 1 1 .284.284.284.284 0 0 1-.284-.284zm-1.847 0a.285.285 0 1 1 .284.284.284.284 0 0 1-.284-.284zm-1.846 0a.284.284 0 1 1 .284.284.284.284 0 0 1-.284-.284zm-1.847 0a.284.284 0 1 1 .284.284.284.284 0 0 1-.284-.284zM0 16.9a.284.284 0 1 1 .284.284A.284.284 0 0 1 0 16.9zm22.161-1.847a.285.285 0 1 1 .284.284.284.284 0 0 1-.284-.28zm-1.847 0a.284.284 0 1 1 .284.284.284.284 0 0 1-.284-.28zm-1.846 0a.284.284 0 1 1 .284.284.284.284 0 0 1-.284-.28zm-1.847 0a.285.285 0 1 1 .284.284.284.284 0 0 1-.284-.28zm-1.847 0a.285.285 0 1 1 .284.284.284.284 0 0 1-.284-.28zm-1.847 0a.285.285 0 1 1 .284.284.284.284 0 0 1-.284-.28zm-1.846 0a.284.284 0 1 1 .284.284.284.284 0 0 1-.284-.28zm-1.847 0a.285.285 0 1 1 .284.284.284.284 0 0 1-.284-.28zm-1.847 0a.284.284 0 1 1 .284.284.284.284 0 0 1-.284-.28zm-1.847 0a.285.285 0 1 1 .284.284.284.284 0 0 1-.284-.28zm-1.846 0a.284.284 0 1 1 .284.284.284.284 0 0 1-.284-.28zm-1.847 0a.284.284 0 1 1 .284.284.284.284 0 0 1-.284-.28zM0 15.057a.284.284 0 1 1 .284.284.284.284 0 0 1-.284-.284zm22.161-1.846a.285.285 0 1 1 .284.284.284.284 0 0 1-.284-.284zm-1.847 0a.284.284 0 1 1 .284.284.284.284 0 0 1-.284-.284zm-1.846 0a.284.284 0 1 1 .284.284.284.284 0 0 1-.284-.284zm-1.847 0a.285.285 0 1 1 .284.284.284.284 0 0 1-.284-.284zm-1.847 0a.285.285 0 1 1 .284.284.284.284 0 0 1-.284-.284zm-1.847 0a.285.285 0 1 1 .284.284.284.284 0 0 1-.284-.284zm-1.846 0a.284.284 0 1 1 .284.284.284.284 0 0 1-.284-.284zm-1.847 0a.285.285 0 1 1 .284.284.284.284 0 0 1-.284-.284zm-1.847 0a.284.284 0 1 1 .284.284.284.284 0 0 1-.284-.284zm-1.847 0a.285.285 0 1 1 .284.284.284.284 0 0 1-.284-.284zm-1.846 0a.284.284 0 1 1 .284.284.284.284 0 0 1-.284-.284zm-1.847 0a.284.284 0 1 1 .284.284.284.284 0 0 1-.284-.284zm-1.847 0a.284.284 0 1 1 .284.284.284.284 0 0 1-.284-.284zm22.161-1.847a.285.285 0 1 1 .284.284.284.284 0 0 1-.284-.284zm-1.847 0a.284.284 0 1 1 .284.284.284.284 0 0 1-.284-.284zm-1.846 0a.284.284 0 1 1 .284.284.284.284 0 0 1-.284-.284zm-1.847 0a.285.285 0 1 1 .284.284.284.284 0 0 1-.284-.284zm-1.847 0a.285.285 0 1 1 .284.284.284.284 0 0 1-.284-.284zm-1.847 0a.285.285 0 1 1 .284.284.284.284 0 0 1-.284-.284zm-1.846 0a.284.284 0 1 1 .284.284.284.284 0 0 1-.284-.284zm-1.847 0a.285.285 0 1 1 .284.284.284.284 0 0 1-.284-.284zm-1.847 0a.284.284 0 1 1 .284.284.284.284 0 0 1-.284-.284zm-1.847 0a.285.285 0 1 1 .284.284.284.284 0 0 1-.284-.284zm-1.846 0a.284.284 0 1 1 .284.284.284.284 0 0 1-.284-.284zm-1.847 0a.284.284 0 1 1 .284.284.284.284 0 0 1-.284-.284zm-1.847 0a.284.284 0 1 1 .284.284.284.284 0 0 1-.284-.284zm22.161-1.847a.285.285 0 1 1 .284.284.284.284 0 0 1-.284-.284zm-1.847 0a.284.284 0 1 1 .286.283.284.284 0 0 1-.286-.283zm-1.846 0a.284.284 0 1 1 .284.284.284.284 0 0 1-.284-.284zm-1.847 0a.285.285 0 1 1 .279.283.284.284 0 0 1-.279-.283zm-1.847 0a.285.285 0 1 1 .284.284.284.284 0 0 1-.284-.284zm-1.847 0a.285.285 0 1 1 .284.284.284.284 0 0 1-.284-.284zm-1.846 0a.284.284 0 1 1 .284.284.284.284 0 0 1-.284-.284zm-1.847 0a.285.285 0 1 1 .284.284.284.284 0 0 1-.284-.284zm-1.847 0a.284.284 0 1 1 .284.284.284.284 0 0 1-.284-.284zm-1.847 0a.285.285 0 1 1 .284.284.284.284 0 0 1-.284-.284zm-1.846 0a.284.284 0 1 1 .284.284.284.284 0 0 1-.284-.284zm-1.847 0a.284.284 0 1 1 .284.284.284.284 0 0 1-.284-.284zM0 9.517a.284.284 0 1 1 .284.283A.284.284 0 0 1 0 9.517zm22.161-1.846a.285.285 0 1 1 .284.284.284.284 0 0 1-.284-.284zm-1.847 0a.284.284 0 1 1 .284.284.284.284 0 0 1-.284-.284zm-1.846 0a.284.284 0 1 1 .284.284.283.283 0 0 1-.284-.284zm-1.847 0a.285.285 0 1 1 .284.284.284.284 0 0 1-.284-.284zm-1.847 0a.285.285 0 1 1 .284.284.284.284 0 0 1-.284-.284zm-1.847 0a.285.285 0 1 1 .284.284.283.283 0 0 1-.284-.284zm-1.846 0a.284.284 0 1 1 .284.284.284.284 0 0 1-.284-.284zm-1.847 0a.285.285 0 1 1 .284.284.284.284 0 0 1-.284-.284zm-1.847 0a.284.284 0 1 1 .284.284.284.284 0 0 1-.284-.284zm-1.847 0a.285.285 0 1 1 .284.284.284.284 0 0 1-.284-.284zm-1.846 0a.284.284 0 1 1 .284.284.283.283 0 0 1-.284-.284zm-1.847 0a.284.284 0 1 1 .284.284.283.283 0 0 1-.284-.284zM0 7.671a.284.284 0 1 1 .284.284A.283.283 0 0 1 0 7.671zm22.161-1.847a.285.285 0 1 1 .284.284.284.284 0 0 1-.284-.284zm-1.847 0a.284.284 0 1 1 .284.284.284.284 0 0 1-.284-.284zm-1.846 0a.284.284 0 1 1 .284.284.284.284 0 0 1-.284-.284zm-1.847 0a.285.285 0 1 1 .284.284.284.284 0 0 1-.284-.284zm-1.847 0a.285.285 0 1 1 .284.284.284.284 0 0 1-.284-.284zm-1.847 0a.285.285 0 1 1 .284.284.284.284 0 0 1-.284-.284zm-1.846 0a.284.284 0 1 1 .284.284.284.284 0 0 1-.284-.284zm-1.847 0a.285.285 0 1 1 .284.284.284.284 0 0 1-.284-.284zm-1.847 0a.284.284 0 1 1 .284.284.284.284 0 0 1-.284-.284zm-1.847 0a.285.285 0 1 1 .284.284.284.284 0 0 1-.284-.284zm-1.846 0a.284.284 0 1 1 .284.284.284.284 0 0 1-.284-.284zm-1.847 0a.284.284 0 1 1 .284.284.284.284 0 0 1-.284-.284zM0 5.824a.284.284 0 1 1 .284.284A.284.284 0 0 1 0 5.824zm22.161-1.847a.285.285 0 1 1 .284.285.285.285 0 0 1-.284-.285zm-1.847 0a.284.284 0 1 1 .284.285.285.285 0 0 1-.284-.285zm-1.846 0a.284.284 0 1 1 .284.285.285.285 0 0 1-.284-.285zm-1.847 0a.285.285 0 1 1 .284.285.285.285 0 0 1-.284-.285zm-1.847 0a.285.285 0 1 1 .284.285.285.285 0 0 1-.284-.285zm-1.847 0a.285.285 0 1 1 .284.285.285.285 0 0 1-.284-.285zm-1.846 0a.284.284 0 1 1 .284.285.285.285 0 0 1-.284-.285zm-1.847 0a.285.285 0 1 1 .284.285.285.285 0 0 1-.284-.285zm-1.847 0a.284.284 0 1 1 .284.285.285.285 0 0 1-.284-.285zm-1.847 0a.285.285 0 1 1 .284.285.285.285 0 0 1-.284-.285zm-1.846 0a.284.284 0 1 1 .284.285.285.285 0 0 1-.284-.285zm-1.847 0a.284.284 0 1 1 .284.285.285.285 0 0 1-.284-.285zM0 3.977a.284.284 0 1 1 .284.285A.285.285 0 0 1 0 3.977zm22.161-1.846a.285.285 0 1 1 .284.285.284.284 0 0 1-.284-.285zm-1.847 0a.284.284 0 1 1 .284.285.284.284 0 0 1-.284-.285zm-1.846 0a.284.284 0 1 1 .284.285.284.284 0 0 1-.284-.285zm-1.847 0a.285.285 0 1 1 .284.285.284.284 0 0 1-.284-.285zm-1.847 0a.285.285 0 1 1 .284.285.284.284 0 0 1-.284-.285zm-1.847 0a.285.285 0 1 1 .284.285.284.284 0 0 1-.284-.285zm-1.846 0a.284.284 0 1 1 .284.285.284.284 0 0 1-.284-.285zm-1.847 0a.285.285 0 1 1 .284.285.284.284 0 0 1-.284-.285zm-1.847 0a.284.284 0 1 1 .284.285.284.284 0 0 1-.284-.285zm-1.847 0a.285.285 0 1 1 .284.285.284.284 0 0 1-.284-.285zm-1.846 0a.284.284 0 1 1 .284.285.284.284 0 0 1-.284-.285zm-1.847 0a.284.284 0 1 1 .284.285.284.284 0 0 1-.284-.285zM0 2.131a.284.284 0 1 1 .284.285A.284.284 0 0 1 0 2.131zM22.161.284a.285.285 0 1 1 .284.285.284.284 0 0 1-.284-.285zm-1.847 0a.284.284 0 1 1 .286.285.284.284 0 0 1-.286-.285zm-1.846 0a.284.284 0 1 1 .284.285.284.284 0 0 1-.284-.285zm-1.847 0a.285.285 0 1 1 .279.285.284.284 0 0 1-.279-.285zm-1.847 0a.285.285 0 1 1 .284.285.284.284 0 0 1-.284-.285zm-1.847 0a.285.285 0 1 1 .284.285.284.284 0 0 1-.284-.285zm-1.846 0a.284.284 0 1 1 .284.285.284.284 0 0 1-.284-.285zm-1.847 0a.285.285 0 1 1 .284.285.284.284 0 0 1-.284-.285zm-1.847 0a.284.284 0 1 1 .284.285.284.284 0 0 1-.284-.285zm-1.847 0a.285.285 0 1 1 .284.285.284.284 0 0 1-.284-.285zm-1.846 0a.284.284 0 1 1 .284.285.284.284 0 0 1-.284-.285zm-1.847 0a.284.284 0 1 1 .284.285.284.284 0 0 1-.284-.285zM0 .284a.284.284 0 1 1 .284.285A.284.284 0 0 1 0 .284z" transform="translate(-.376 -1.841)" style="fill:#9c2555"/>
            </g>
        </g>
        <g data-name="Group 6956">
            <path data-name="NoPath - Copy (10)" d="m500.076 291.945-.374.234-.222-.382a2.124 2.124 0 0 0-2.77-.9 2.248 2.248 0 0 0-.925 3.117l2.182 3.755a.488.488 0 0 0 .685.169l3.669-2.309a2.247 2.247 0 0 0 .626-3.191 2.124 2.124 0 0 0-2.871-.493z" transform="rotate(1 16906.839 -27708.44)" style="fill:#881543"/>
            <g data-name="Mask Group 31" style="clip-path:url(#ghncp2abnb)" transform="rotate(1 4.666 534.87)">
                <path data-name="Union 29" d="M7.832 7.932a.1.1 0 1 1 .1.1.1.1 0 0 1-.1-.1zm-.653 0a.1.1 0 1 1 .1.1.1.1 0 0 1-.099-.1zm-.652 0a.1.1 0 1 1 .1.1.1.1 0 0 1-.1-.1zm-.653 0a.1.1 0 1 1 .1.1.1.1 0 0 1-.1-.1zm-.653 0a.1.1 0 1 1 .1.1.1.1 0 0 1-.099-.1zm-.653 0a.1.1 0 1 1 .1.1.1.1 0 0 1-.099-.1zm-.653 0a.1.1 0 1 1 .1.1.1.1 0 0 1-.099-.1zm-.653 0a.1.1 0 1 1 .1.1.1.1 0 0 1-.098-.1zm-.653 0a.1.1 0 1 1 .1.1.1.1 0 0 1-.098-.1zm-.653 0a.1.1 0 1 1 .1.1.1.1 0 0 1-.098-.1zm-.652 0a.1.1 0 1 1 .1.1.1.1 0 0 1-.098-.1zm-.653 0a.1.1 0 1 1 .1.1.1.1 0 0 1-.098-.1zm-.651 0a.1.1 0 1 1 .1.1.1.1 0 0 1-.1-.1zm7.832-.652a.1.1 0 1 1 .1.1.1.1 0 0 1-.1-.1zm-.653 0a.1.1 0 1 1 .1.1.1.1 0 0 1-.099-.1zm-.652 0a.1.1 0 1 1 .1.1.1.1 0 0 1-.1-.1zm-.653 0a.1.1 0 1 1 .1.1.1.1 0 0 1-.1-.1zm-.653 0a.1.1 0 1 1 .1.1.1.1 0 0 1-.099-.1zm-.653 0a.1.1 0 1 1 .1.1.1.1 0 0 1-.099-.1zm-.653 0a.1.1 0 1 1 .1.1.1.1 0 0 1-.099-.1zm-.653 0a.1.1 0 1 1 .1.1.1.1 0 0 1-.098-.1zm-.653 0a.1.1 0 1 1 .1.1.1.1 0 0 1-.098-.1zm-.653 0a.1.1 0 1 1 .1.1.1.1 0 0 1-.098-.1zm-.652 0a.1.1 0 1 1 .1.1.1.1 0 0 1-.098-.1zm-.653 0a.1.1 0 1 1 .1.1.1.1 0 0 1-.098-.1zM0 7.28a.1.1 0 1 1 .1.1.1.1 0 0 1-.1-.1zm7.832-.652a.1.1 0 1 1 .1.1.1.1 0 0 1-.1-.101zm-.653 0a.1.1 0 1 1 .1.1.1.1 0 0 1-.099-.101zm-.652 0a.1.1 0 1 1 .1.1.1.1 0 0 1-.1-.101zm-.653 0a.1.1 0 1 1 .1.1.1.1 0 0 1-.1-.101zm-.653 0a.1.1 0 1 1 .1.1.1.1 0 0 1-.099-.101zm-.653 0a.1.1 0 1 1 .1.1.1.1 0 0 1-.099-.101zm-.653 0a.1.1 0 1 1 .1.1.1.1 0 0 1-.099-.101zm-.653 0a.1.1 0 1 1 .1.1.1.1 0 0 1-.098-.101zm-.653 0a.1.1 0 1 1 .1.1.1.1 0 0 1-.098-.101zm-.653 0a.1.1 0 1 1 .1.1.1.1 0 0 1-.098-.101zm-.652 0a.1.1 0 1 1 .1.1.1.1 0 0 1-.098-.101zm-.653 0a.1.1 0 1 1 .1.1.1.1 0 0 1-.098-.101zM0 6.627a.1.1 0 1 1 .1.1.1.1 0 0 1-.1-.1zm7.832-.653a.1.1 0 1 1 .1.1.1.1 0 0 1-.1-.1zm-.653 0a.1.1 0 1 1 .1.1.1.1 0 0 1-.099-.1zm-.652 0a.1.1 0 1 1 .1.1.1.1 0 0 1-.1-.1zm-.653 0a.1.1 0 1 1 .1.1.1.1 0 0 1-.1-.1zm-.653 0a.1.1 0 1 1 .1.1.1.1 0 0 1-.099-.1zm-.653 0a.1.1 0 1 1 .1.1.1.1 0 0 1-.099-.1zm-.653 0a.1.1 0 1 1 .1.1.1.1 0 0 1-.099-.1zm-.653 0a.1.1 0 1 1 .1.1.1.1 0 0 1-.098-.1zm-.653 0a.1.1 0 1 1 .1.1.1.1 0 0 1-.098-.1zm-.653 0a.1.1 0 1 1 .1.1.1.1 0 0 1-.098-.1zm-.652 0a.1.1 0 1 1 .1.1.1.1 0 0 1-.098-.1zm-.653 0a.1.1 0 1 1 .1.1.1.1 0 0 1-.098-.1zm-.651 0a.1.1 0 1 1 .1.1.1.1 0 0 1-.1-.1zm7.832-.653a.1.1 0 1 1 .1.1.1.1 0 0 1-.1-.099zm-.653 0a.1.1 0 1 1 .1.1.1.1 0 0 1-.099-.099zm-.652 0a.1.1 0 1 1 .1.1.1.1 0 0 1-.1-.099zm-.653 0a.1.1 0 1 1 .1.1.1.1 0 0 1-.1-.099zm-.653 0a.1.1 0 1 1 .1.1.1.1 0 0 1-.099-.099zm-.653 0a.1.1 0 1 1 .1.1.1.1 0 0 1-.099-.099zm-.653 0a.1.1 0 1 1 .1.1.1.1 0 0 1-.099-.099zm-.653 0a.1.1 0 1 1 .1.1.1.1 0 0 1-.098-.099zm-.653 0a.1.1 0 1 1 .1.1.1.1 0 0 1-.098-.099zm-.653 0a.1.1 0 1 1 .1.1.1.1 0 0 1-.098-.099zm-.652 0a.1.1 0 1 1 .1.1.1.1 0 0 1-.098-.099zm-.653 0a.1.1 0 1 1 .1.1.1.1 0 0 1-.098-.099zM0 5.322a.1.1 0 1 1 .1.1.1.1 0 0 1-.1-.1zm7.832-.653a.1.1 0 1 1 .1.1.1.1 0 0 1-.1-.1zm-.653 0a.1.1 0 1 1 .1.1.1.1 0 0 1-.099-.1zm-.652 0a.1.1 0 1 1 .1.1.1.1 0 0 1-.1-.1zm-.653 0a.1.1 0 1 1 .1.1.1.1 0 0 1-.1-.1zm-.653 0a.1.1 0 1 1 .1.1.1.1 0 0 1-.099-.1zm-.653 0a.1.1 0 1 1 .1.1.1.1 0 0 1-.099-.1zm-.653 0a.1.1 0 1 1 .1.1.1.1 0 0 1-.099-.1zm-.653 0a.1.1 0 1 1 .1.1.1.1 0 0 1-.098-.1zm-.653 0a.1.1 0 1 1 .1.1.1.1 0 0 1-.098-.1zm-.653 0a.1.1 0 1 1 .1.1.1.1 0 0 1-.098-.1zm-.652 0a.1.1 0 1 1 .1.1.1.1 0 0 1-.098-.1zm-.653 0a.1.1 0 1 1 .1.1.1.1 0 0 1-.098-.1zm-.651 0a.1.1 0 1 1 .1.1.1.1 0 0 1-.1-.1zm7.832-.653a.1.1 0 1 1 .1.1.1.1 0 0 1-.1-.1zm-.653 0a.1.1 0 1 1 .1.1.1.1 0 0 1-.099-.1zm-.652 0a.1.1 0 1 1 .1.1.1.1 0 0 1-.1-.1zm-.653 0a.1.1 0 1 1 .1.1.1.1 0 0 1-.1-.1zm-.653 0a.1.1 0 1 1 .1.1.1.1 0 0 1-.099-.1zm-.653 0a.1.1 0 1 1 .1.1.1.1 0 0 1-.099-.1zm-.653 0a.1.1 0 1 1 .1.1.1.1 0 0 1-.099-.1zm-.653 0a.1.1 0 1 1 .1.1.1.1 0 0 1-.098-.1zm-.653 0a.1.1 0 1 1 .1.1.1.1 0 0 1-.098-.1zm-.653 0a.1.1 0 1 1 .1.1.1.1 0 0 1-.098-.1zm-.652 0a.1.1 0 1 1 .1.1.1.1 0 0 1-.098-.1zm-.653 0a.1.1 0 1 1 .1.1.1.1 0 0 1-.098-.1zm-.651 0a.1.1 0 1 1 .1.1.1.1 0 0 1-.1-.1zm7.832-.653a.1.1 0 1 1 .1.1.1.1 0 0 1-.1-.099zm-.653 0a.1.1 0 1 1 .1.1.1.1 0 0 1-.099-.099zm-.652 0a.1.1 0 1 1 .1.1.1.1 0 0 1-.1-.099zm-.653 0a.1.1 0 1 1 .1.1.1.1 0 0 1-.1-.099zm-.653 0a.1.1 0 1 1 .1.1.1.1 0 0 1-.099-.099zm-.653 0a.1.1 0 1 1 .1.1.1.1 0 0 1-.099-.099zm-.653 0a.1.1 0 1 1 .1.1.1.1 0 0 1-.099-.099zm-.653 0a.1.1 0 1 1 .1.1.1.1 0 0 1-.098-.099zm-.653 0a.1.1 0 1 1 .1.1.1.1 0 0 1-.098-.099zm-.653 0a.1.1 0 1 1 .1.1.1.1 0 0 1-.098-.099zm-.652 0a.1.1 0 1 1 .1.1.1.1 0 0 1-.098-.099zm-.653 0a.1.1 0 1 1 .1.1.1.1 0 0 1-.098-.099zM0 3.364a.1.1 0 1 1 .1.1.1.1 0 0 1-.1-.1zm7.832-.652a.1.1 0 1 1 .1.1.1.1 0 0 1-.1-.101zm-.653 0a.1.1 0 1 1 .1.1.1.1 0 0 1-.099-.101zm-.652 0a.1.1 0 1 1 .1.1.1.1 0 0 1-.1-.101zm-.653 0a.1.1 0 1 1 .1.1.1.1 0 0 1-.1-.101zm-.653 0a.1.1 0 1 1 .1.1.1.1 0 0 1-.099-.101zm-.653 0a.1.1 0 1 1 .1.1.1.1 0 0 1-.099-.101zm-.653 0a.1.1 0 1 1 .1.1.1.1 0 0 1-.099-.101zm-.653 0a.1.1 0 1 1 .1.1.1.1 0 0 1-.098-.101zm-.653 0a.1.1 0 1 1 .1.1.1.1 0 0 1-.098-.101zm-.653 0a.1.1 0 1 1 .1.1.1.1 0 0 1-.098-.101zm-.652 0a.1.1 0 1 1 .1.1.1.1 0 0 1-.098-.101zm-.653 0a.1.1 0 1 1 .1.1.1.1 0 0 1-.098-.101zM0 2.711a.1.1 0 1 1 .1.1.1.1 0 0 1-.1-.1zm7.832-.653a.1.1 0 1 1 .1.1.1.1 0 0 1-.1-.1zm-.653 0a.1.1 0 1 1 .1.1.1.1 0 0 1-.099-.1zm-.652 0a.1.1 0 1 1 .1.1.1.1 0 0 1-.1-.1zm-.653 0a.1.1 0 1 1 .1.1.1.1 0 0 1-.1-.1zm-.653 0a.1.1 0 1 1 .1.1.1.1 0 0 1-.099-.1zm-.653 0a.1.1 0 1 1 .1.1.1.1 0 0 1-.099-.1zm-.653 0a.1.1 0 1 1 .1.1.1.1 0 0 1-.099-.1zm-.653 0a.1.1 0 1 1 .1.1.1.1 0 0 1-.098-.1zm-.653 0a.1.1 0 1 1 .1.1.1.1 0 0 1-.098-.1zm-.653 0a.1.1 0 1 1 .1.1.1.1 0 0 1-.098-.1zm-.652 0a.1.1 0 1 1 .1.1.1.1 0 0 1-.098-.1zm-.653 0a.1.1 0 1 1 .1.1.1.1 0 0 1-.098-.1zm-.651 0a.1.1 0 1 1 .1.1.1.1 0 0 1-.1-.1zm7.832-.653a.1.1 0 1 1 .1.1.1.1 0 0 1-.1-.099zm-.653 0a.1.1 0 1 1 .1.1.1.1 0 0 1-.099-.099zm-.652 0a.1.1 0 1 1 .1.1.1.1 0 0 1-.1-.099zm-.653 0a.1.1 0 1 1 .1.1.1.1 0 0 1-.1-.099zm-.653 0a.1.1 0 1 1 .1.1.1.1 0 0 1-.099-.099zm-.653 0a.1.1 0 1 1 .1.1.1.1 0 0 1-.099-.099zm-.653 0a.1.1 0 1 1 .1.1.1.1 0 0 1-.099-.099zm-.653 0a.1.1 0 1 1 .1.1.1.1 0 0 1-.098-.099zm-.653 0a.1.1 0 1 1 .1.1.1.1 0 0 1-.098-.099zm-.653 0a.1.1 0 1 1 .1.1.1.1 0 0 1-.098-.099zm-.652 0a.1.1 0 1 1 .1.1.1.1 0 0 1-.098-.099zm-.653 0a.1.1 0 1 1 .1.1.1.1 0 0 1-.098-.099zM0 1.406a.1.1 0 1 1 .1.1.1.1 0 0 1-.1-.1zM7.832.753a.1.1 0 1 1 .1.1.1.1 0 0 1-.1-.1zm-.653 0a.1.1 0 1 1 .1.1.1.1 0 0 1-.099-.1zm-.652 0a.1.1 0 1 1 .1.1.1.1 0 0 1-.1-.1zm-.653 0a.1.1 0 1 1 .1.1.1.1 0 0 1-.1-.1zm-.653 0a.1.1 0 1 1 .1.1.1.1 0 0 1-.099-.1zm-.653 0a.1.1 0 1 1 .1.1.1.1 0 0 1-.099-.1zm-.653 0a.1.1 0 1 1 .1.1.1.1 0 0 1-.099-.1zm-.653 0a.1.1 0 1 1 .1.1.1.1 0 0 1-.098-.1zm-.653 0a.1.1 0 1 1 .1.1.1.1 0 0 1-.098-.1zm-.653 0a.1.1 0 1 1 .1.1.1.1 0 0 1-.098-.1zm-.652 0a.1.1 0 1 1 .1.1.1.1 0 0 1-.098-.1zm-.653 0a.1.1 0 1 1 .1.1.1.1 0 0 1-.098-.1zM0 .753a.1.1 0 1 1 .1.1.1.1 0 0 1-.1-.1zM7.832.1a.1.1 0 1 1 .1.1.1.1 0 0 1-.1-.1zM7.18.1a.1.1 0 1 1 .1.1.1.1 0 0 1-.1-.1zm-.653 0a.1.1 0 1 1 .1.1.1.1 0 0 1-.1-.1zm-.653 0a.1.1 0 1 1 .1.1.1.1 0 0 1-.1-.1zm-.652 0a.1.1 0 1 1 .1.1.1.1 0 0 1-.1-.1zm-.653 0a.1.1 0 1 1 .1.1.1.1 0 0 1-.1-.1zm-.653 0a.1.1 0 1 1 .1.1.1.1 0 0 1-.1-.1zm-.652 0a.1.1 0 1 1 .1.1.1.1 0 0 1-.1-.1zm-.653 0a.1.1 0 1 1 .1.1.1.1 0 0 1-.1-.1zm-.653 0a.1.1 0 1 1 .1.1.1.1 0 0 1-.1-.1zm-.652 0a.1.1 0 1 1 .1.1.1.1 0 0 1-.1-.1zM.653.1a.1.1 0 1 1 .1.1.1.1 0 0 1-.1-.1zM0 .1a.1.1 0 1 1 .1.1.1.1 0 0 1-.1-.1z" transform="translate(-.133 -.651)" style="fill:#9c2555"/>
            </g>
        </g>
        <g data-name="Group 6957">
            <path data-name="NoPath - Copy (10)" d="m497.708 291.293-.181.113-.108-.185a1.028 1.028 0 0 0-1.341-.437 1.088 1.088 0 0 0-.448 1.509l1.056 1.817a.236.236 0 0 0 .332.082l1.776-1.117a1.087 1.087 0 0 0 .3-1.545 1.028 1.028 0 0 0-1.386-.237z" transform="rotate(1 15875.415 -26869.192)" style="fill:#881543"/>
            <g data-name="Mask Group 31" style="clip-path:url(#m8y1e9ozuc)" transform="rotate(1 -1026.758 1374.118)">
                <path data-name="Union 29" d="M3.791 3.839a.049.049 0 1 1 .049.049.049.049 0 0 1-.049-.049zm-.316 0a.049.049 0 1 1 .049.049.049.049 0 0 1-.049-.049zm-.316 0a.049.049 0 1 1 .049.049.049.049 0 0 1-.049-.049zm-.316 0a.049.049 0 1 1 .049.049.049.049 0 0 1-.049-.049zm-.316 0a.049.049 0 1 1 .049.049.049.049 0 0 1-.049-.049zm-.316 0a.049.049 0 1 1 .049.049.049.049 0 0 1-.049-.049zm-.316 0a.049.049 0 1 1 .049.049.049.049 0 0 1-.044-.049zm-.316 0a.049.049 0 1 1 .049.049.049.049 0 0 1-.048-.049zm-.316 0a.049.049 0 1 1 .049.049.049.049 0 0 1-.048-.049zm-.316 0A.049.049 0 1 1 1 3.888a.049.049 0 0 1-.052-.049zm-.316 0a.049.049 0 1 1 .049.049.049.049 0 0 1-.048-.049zm-.316 0a.049.049 0 1 1 .049.049.049.049 0 0 1-.048-.049zm-.315 0a.049.049 0 1 1 .049.049A.049.049 0 0 1 0 3.839zm3.791-.316a.049.049 0 1 1 .049.049.049.049 0 0 1-.049-.048zm-.316 0a.049.049 0 1 1 .049.049.049.049 0 0 1-.049-.048zm-.316 0a.049.049 0 1 1 .049.049.049.049 0 0 1-.049-.048zm-.316 0a.049.049 0 1 1 .049.049.049.049 0 0 1-.049-.048zm-.316 0a.049.049 0 1 1 .049.049.049.049 0 0 1-.049-.048zm-.316 0a.049.049 0 1 1 .049.049.049.049 0 0 1-.049-.048zm-.316 0a.049.049 0 1 1 .049.049.049.049 0 0 1-.044-.048zm-.316 0a.049.049 0 1 1 .049.049.049.049 0 0 1-.048-.048zm-.316 0a.049.049 0 1 1 .049.049.049.049 0 0 1-.048-.048zm-.316 0A.049.049 0 1 1 1 3.572a.049.049 0 0 1-.052-.048zm-.316 0a.049.049 0 1 1 .049.049.049.049 0 0 1-.048-.048zm-.316 0a.049.049 0 1 1 .049.049.049.049 0 0 1-.048-.048zM0 3.524a.049.049 0 1 1 .049.049A.049.049 0 0 1 0 3.524zm3.791-.316a.049.049 0 1 1 .049.049.049.049 0 0 1-.049-.049zm-.316 0a.049.049 0 1 1 .049.049.049.049 0 0 1-.049-.049zm-.316 0a.049.049 0 1 1 .049.049.049.049 0 0 1-.049-.049zm-.316 0a.049.049 0 1 1 .049.049.049.049 0 0 1-.049-.049zm-.316 0a.049.049 0 1 1 .049.049.049.049 0 0 1-.049-.049zm-.316 0a.049.049 0 1 1 .049.049.049.049 0 0 1-.049-.049zm-.316 0a.049.049 0 1 1 .049.049.049.049 0 0 1-.044-.049zm-.316 0a.049.049 0 1 1 .049.049.049.049 0 0 1-.048-.049zm-.316 0a.049.049 0 1 1 .049.049.049.049 0 0 1-.048-.049zm-.316 0A.049.049 0 1 1 1 3.256a.049.049 0 0 1-.052-.048zm-.316 0a.049.049 0 1 1 .049.049.049.049 0 0 1-.048-.049zm-.316 0a.049.049 0 1 1 .049.049.049.049 0 0 1-.048-.049zm-.315 0a.049.049 0 1 1 .049.049A.049.049 0 0 1 0 3.208zm3.791-.316a.049.049 0 1 1 .049.049.049.049 0 0 1-.049-.049zm-.316 0a.049.049 0 1 1 .049.049.049.049 0 0 1-.049-.049zm-.316 0a.049.049 0 1 1 .049.049.049.049 0 0 1-.049-.049zm-.316 0a.049.049 0 1 1 .049.049.049.049 0 0 1-.049-.049zm-.316 0a.049.049 0 1 1 .049.049.049.049 0 0 1-.049-.049zm-.316 0a.049.049 0 1 1 .049.049.049.049 0 0 1-.049-.049zm-.316 0a.049.049 0 1 1 .049.049.049.049 0 0 1-.044-.049zm-.316 0a.049.049 0 1 1 .049.049.049.049 0 0 1-.048-.049zm-.316 0a.049.049 0 1 1 .049.049.049.049 0 0 1-.048-.049zm-.316 0A.049.049 0 1 1 1 2.94a.049.049 0 0 1-.052-.048zm-.316 0a.049.049 0 1 1 .049.049.049.049 0 0 1-.048-.049zm-.316 0a.049.049 0 1 1 .049.049.049.049 0 0 1-.048-.049zm-.315 0a.049.049 0 1 1 .049.049A.049.049 0 0 1 0 2.892zm3.791-.316a.049.049 0 1 1 .049.049.049.049 0 0 1-.049-.049zm-.316 0a.049.049 0 1 1 .049.049.049.049 0 0 1-.049-.049zm-.316 0a.049.049 0 1 1 .049.049.049.049 0 0 1-.049-.049zm-.316 0a.049.049 0 1 1 .049.049.049.049 0 0 1-.049-.049zm-.316 0a.049.049 0 1 1 .049.049.049.049 0 0 1-.049-.049zm-.316 0a.049.049 0 1 1 .049.049.049.049 0 0 1-.049-.049zm-.316 0a.049.049 0 1 1 .049.049.049.049 0 0 1-.044-.049zm-.316 0a.049.049 0 1 1 .049.049.049.049 0 0 1-.048-.049zm-.316 0a.049.049 0 1 1 .049.049.049.049 0 0 1-.048-.049zm-.316 0A.049.049 0 1 1 1 2.624a.049.049 0 0 1-.052-.048zm-.316 0a.049.049 0 1 1 .049.049.049.049 0 0 1-.048-.049zm-.316 0a.049.049 0 1 1 .049.049.049.049 0 0 1-.048-.049zm-.315 0a.049.049 0 1 1 .049.049A.049.049 0 0 1 0 2.576zm3.791-.316a.049.049 0 1 1 .049.049.049.049 0 0 1-.049-.049zm-.316 0a.049.049 0 1 1 .049.049.049.049 0 0 1-.049-.049zm-.316 0a.049.049 0 1 1 .049.049.049.049 0 0 1-.049-.049zm-.316 0a.049.049 0 1 1 .049.049.049.049 0 0 1-.049-.049zm-.316 0a.049.049 0 1 1 .049.049.049.049 0 0 1-.049-.049zm-.316 0a.049.049 0 1 1 .049.049.049.049 0 0 1-.049-.049zm-.316 0a.049.049 0 1 1 .049.049.049.049 0 0 1-.044-.049zm-.316 0a.049.049 0 1 1 .049.049.049.049 0 0 1-.048-.049zm-.316 0a.049.049 0 1 1 .049.049.049.049 0 0 1-.048-.049zm-.316 0A.049.049 0 1 1 1 2.309a.049.049 0 0 1-.052-.049zm-.316 0a.049.049 0 1 1 .049.049.049.049 0 0 1-.048-.049zm-.316 0a.049.049 0 1 1 .049.049.049.049 0 0 1-.048-.049zM0 2.26a.049.049 0 1 1 .049.049A.049.049 0 0 1 0 2.26zm3.791-.316a.049.049 0 1 1 .049.049.049.049 0 0 1-.049-.049zm-.316 0a.049.049 0 1 1 .049.049.049.049 0 0 1-.049-.049zm-.316 0a.049.049 0 1 1 .049.049.049.049 0 0 1-.049-.049zm-.316 0a.049.049 0 1 1 .049.049.049.049 0 0 1-.049-.049zm-.316 0a.049.049 0 1 1 .049.049.049.049 0 0 1-.049-.049zm-.316 0a.049.049 0 1 1 .049.049.049.049 0 0 1-.049-.049zm-.316 0a.049.049 0 1 1 .049.049.049.049 0 0 1-.044-.049zm-.316 0a.049.049 0 1 1 .049.049.049.049 0 0 1-.048-.049zm-.316 0a.049.049 0 1 1 .049.049.049.049 0 0 1-.048-.049zm-.316 0A.049.049 0 1 1 1 1.993a.049.049 0 0 1-.052-.049zm-.316 0a.049.049 0 1 1 .049.049.049.049 0 0 1-.048-.049zm-.316 0a.049.049 0 1 1 .049.049.049.049 0 0 1-.048-.049zm-.315 0a.049.049 0 1 1 .049.049A.049.049 0 0 1 0 1.944zm3.791-.316a.049.049 0 1 1 .049.049.049.049 0 0 1-.049-.049zm-.316 0a.049.049 0 1 1 .049.049.049.049 0 0 1-.049-.049zm-.316 0a.049.049 0 1 1 .049.049.049.049 0 0 1-.049-.049zm-.316 0a.049.049 0 1 1 .049.049.049.049 0 0 1-.049-.049zm-.316 0a.049.049 0 1 1 .049.049.049.049 0 0 1-.049-.049zm-.316 0a.049.049 0 1 1 .049.049.049.049 0 0 1-.049-.049zm-.316 0a.049.049 0 1 1 .049.049.049.049 0 0 1-.044-.049zm-.316 0a.049.049 0 1 1 .049.049.049.049 0 0 1-.048-.049zm-.316 0a.049.049 0 1 1 .049.049.049.049 0 0 1-.048-.049zm-.316 0A.049.049 0 1 1 1 1.677a.049.049 0 0 1-.052-.049zm-.316 0a.049.049 0 1 1 .049.049.049.049 0 0 1-.048-.049zm-.316 0a.049.049 0 1 1 .049.049.049.049 0 0 1-.048-.049zm-.315 0a.049.049 0 1 1 .049.049A.049.049 0 0 1 0 1.628zm3.791-.316a.049.049 0 1 1 .049.049.049.049 0 0 1-.049-.049zm-.316 0a.049.049 0 1 1 .049.049.049.049 0 0 1-.049-.049zm-.316 0a.049.049 0 1 1 .049.049.049.049 0 0 1-.049-.049zm-.316 0a.049.049 0 1 1 .049.049.049.049 0 0 1-.049-.049zm-.316 0a.049.049 0 1 1 .049.049.049.049 0 0 1-.049-.049zm-.316 0a.049.049 0 1 1 .049.049.049.049 0 0 1-.049-.049zm-.316 0a.049.049 0 1 1 .049.049.049.049 0 0 1-.044-.049zm-.316 0a.049.049 0 1 1 .049.049.049.049 0 0 1-.048-.049zm-.316 0a.049.049 0 1 1 .049.049.049.049 0 0 1-.048-.049zm-.316 0A.049.049 0 1 1 1 1.361a.049.049 0 0 1-.052-.049zm-.316 0a.049.049 0 1 1 .049.049.049.049 0 0 1-.048-.049zm-.316 0a.049.049 0 1 1 .049.049.049.049 0 0 1-.048-.049zm-.315 0a.049.049 0 1 1 .049.049A.049.049 0 0 1 0 1.312zM3.791 1a.049.049 0 1 1 .049.049A.049.049 0 0 1 3.791 1zm-.316 0a.049.049 0 1 1 .049.049A.049.049 0 0 1 3.475 1zm-.316 0a.049.049 0 1 1 .049.049A.049.049 0 0 1 3.159 1zm-.316 0a.049.049 0 1 1 .049.049A.049.049 0 0 1 2.843 1zm-.316 0a.049.049 0 1 1 .049.049A.049.049 0 0 1 2.527 1zm-.316 0a.049.049 0 1 1 .049.049A.049.049 0 0 1 2.211 1zM1.9 1a.049.049 0 1 1 .049.049A.049.049 0 0 1 1.9 1zm-.32 0a.049.049 0 1 1 .049.049A.049.049 0 0 1 1.58 1zm-.316 0a.049.049 0 1 1 .049.049A.049.049 0 0 1 1.264 1zM.948 1A.049.049 0 1 1 1 1.045.049.049 0 0 1 .948 1zM.632 1a.049.049 0 1 1 .049.049A.049.049 0 0 1 .632 1zM.316 1a.049.049 0 1 1 .049.049A.049.049 0 0 1 .316 1zM0 1a.049.049 0 1 1 .049.049A.049.049 0 0 1 0 1zM3.791.68a.049.049 0 1 1 .049.049.049.049 0 0 1-.049-.049zm-.316 0a.049.049 0 1 1 .049.049.049.049 0 0 1-.049-.049zm-.316 0a.049.049 0 1 1 .049.049.049.049 0 0 1-.049-.049zm-.316 0a.049.049 0 1 1 .049.049.049.049 0 0 1-.049-.049zm-.316 0a.049.049 0 1 1 .049.049.049.049 0 0 1-.049-.049zm-.316 0a.049.049 0 1 1 .049.049.049.049 0 0 1-.049-.049zM1.9.68a.049.049 0 1 1 .049.049A.049.049 0 0 1 1.9.68zm-.32 0a.049.049 0 1 1 .049.049A.049.049 0 0 1 1.58.68zm-.316 0a.049.049 0 1 1 .049.049.049.049 0 0 1-.049-.049zm-.316 0A.049.049 0 1 1 1 .729.049.049 0 0 1 .948.68zm-.316 0a.049.049 0 1 1 .049.049A.049.049 0 0 1 .632.68zm-.316 0a.049.049 0 1 1 .049.049A.049.049 0 0 1 .316.68zM0 .68a.049.049 0 1 1 .049.049A.049.049 0 0 1 0 .68zM3.791.365a.049.049 0 1 1 .049.048.049.049 0 0 1-.049-.048zm-.316 0a.049.049 0 1 1 .049.049.049.049 0 0 1-.049-.049zm-.316 0a.049.049 0 1 1 .049.049.049.049 0 0 1-.049-.049zm-.316 0a.049.049 0 1 1 .049.049.049.049 0 0 1-.049-.049zm-.316 0a.049.049 0 1 1 .049.049.049.049 0 0 1-.049-.049zm-.316 0a.049.049 0 1 1 .049.048.049.049 0 0 1-.049-.048zm-.311 0a.049.049 0 1 1 .049.049A.049.049 0 0 1 1.9.365zm-.316 0a.049.049 0 1 1 .049.049.049.049 0 0 1-.053-.049zm-.316 0a.049.049 0 1 1 .049.049.049.049 0 0 1-.053-.049zm-.316 0A.049.049 0 1 1 1 .413.049.049 0 0 1 .948.365zm-.316 0a.049.049 0 1 1 .045.048.049.049 0 0 1-.049-.048zm-.316 0a.049.049 0 1 1 .045.048.049.049 0 0 1-.049-.048zm-.32 0a.049.049 0 1 1 .049.048A.049.049 0 0 1 0 .365zM3.791.049A.049.049 0 1 1 3.84.1a.049.049 0 0 1-.049-.051zm-.316 0A.049.049 0 1 1 3.524.1a.049.049 0 0 1-.049-.051zm-.316 0A.049.049 0 1 1 3.208.1a.049.049 0 0 1-.049-.051zm-.316 0A.049.049 0 1 1 2.892.1a.049.049 0 0 1-.049-.051zm-.316 0A.049.049 0 1 1 2.576.1a.049.049 0 0 1-.049-.051zm-.316 0A.049.049 0 1 1 2.26.1a.049.049 0 0 1-.049-.051zm-.311 0A.049.049 0 1 1 1.944.1.049.049 0 0 1 1.9.049zm-.316 0A.049.049 0 1 1 1.628.1.049.049 0 0 1 1.58.049zm-.316 0A.049.049 0 1 1 1.312.1a.049.049 0 0 1-.048-.051zm-.316 0A.049.049 0 1 1 1 .1.049.049 0 0 1 .948.049zm-.316 0A.049.049 0 1 1 .681.1.049.049 0 0 1 .632.049zm-.316 0A.049.049 0 1 1 .365.1.049.049 0 0 1 .316.049zm-.32 0A.049.049 0 1 1 .049.1.049.049 0 0 1 0 .049z" transform="translate(-.064 -.315)" style="fill:#9c2555"/>
            </g>
        </g>
    </g>
</svg>
