<svg xmlns="http://www.w3.org/2000/svg" xmlns:xlink="http://www.w3.org/1999/xlink" width="41.913" height="39.019" viewBox="0 0 41.913 39.019">
  <defs>
    <clipPath id="clip-path">
      <path id="NoPath_-_Copy_10_" data-name="NoPath - Copy (10)" d="M519.914,297.4l-1.99,1.248-1.183-2.032c-3.01-5.19-9.413-7.494-14.747-4.809a11.969,11.969,0,0,0-4.922,16.595L508.687,328.4a2.6,2.6,0,0,0,3.648.9l19.534-12.29a11.961,11.961,0,0,0,3.332-16.989C531.716,295.155,524.992,294.214,519.914,297.4Z" transform="translate(-495.488 -290.682)" fill="#d6a7ba"/>
    </clipPath>
  </defs>
  <g id="Group_6956" data-name="Group 6956" transform="translate(-1227.707 -761.302)">
    <path id="NoPath_-_Copy_10_2" data-name="NoPath - Copy (10)" d="M519.914,297.4l-1.99,1.248-1.183-2.032c-3.01-5.19-9.413-7.494-14.747-4.809a11.969,11.969,0,0,0-4.922,16.595L508.687,328.4a2.6,2.6,0,0,0,3.648.9l19.534-12.29a11.961,11.961,0,0,0,3.332-16.989C531.716,295.155,524.992,294.214,519.914,297.4Z" transform="translate(732.219 470.619)" fill="#881543"/>
    <g id="Mask_Group_31" data-name="Mask Group 31" transform="translate(1227.707 761.301)" clip-path="url(#clip-path)">
      <path id="Union_29" data-name="Union 29" d="M41.7,42.232a.535.535,0,1,1,.535.534A.534.534,0,0,1,41.7,42.232Zm-3.475,0a.535.535,0,1,1,.535.534A.535.535,0,0,1,38.224,42.232Zm-3.474,0a.535.535,0,1,1,.534.534A.534.534,0,0,1,34.75,42.232Zm-3.475,0a.535.535,0,1,1,.535.534A.534.534,0,0,1,31.275,42.232Zm-3.475,0a.535.535,0,1,1,.535.534A.534.534,0,0,1,27.8,42.232Zm-3.475,0a.535.535,0,1,1,.534.534A.534.534,0,0,1,24.324,42.232Zm-3.474,0a.535.535,0,1,1,.535.534A.534.534,0,0,1,20.85,42.232Zm-3.475,0a.535.535,0,1,1,.534.534A.534.534,0,0,1,17.375,42.232Zm-3.475,0a.535.535,0,1,1,.535.534A.534.534,0,0,1,13.9,42.232Zm-3.475,0a.535.535,0,1,1,.535.534A.534.534,0,0,1,10.424,42.232Zm-3.474,0a.535.535,0,1,1,.534.534A.534.534,0,0,1,6.951,42.232Zm-3.475,0a.535.535,0,1,1,.534.534A.534.534,0,0,1,3.475,42.232ZM0,42.232a.535.535,0,1,1,.534.534A.534.534,0,0,1,0,42.232Zm41.7-3.475a.535.535,0,1,1,.535.534A.534.534,0,0,1,41.7,38.756Zm-3.475,0a.535.535,0,1,1,.535.534A.534.534,0,0,1,38.224,38.756Zm-3.474,0a.535.535,0,1,1,.534.534A.534.534,0,0,1,34.75,38.756Zm-3.475,0a.535.535,0,1,1,.535.534A.534.534,0,0,1,31.275,38.756Zm-3.475,0a.535.535,0,1,1,.535.534A.534.534,0,0,1,27.8,38.756Zm-3.475,0a.535.535,0,1,1,.534.534A.534.534,0,0,1,24.324,38.756Zm-3.474,0a.535.535,0,1,1,.535.534A.534.534,0,0,1,20.85,38.756Zm-3.475,0a.535.535,0,1,1,.534.534A.534.534,0,0,1,17.375,38.756Zm-3.475,0a.535.535,0,1,1,.535.534A.534.534,0,0,1,13.9,38.756Zm-3.475,0a.535.535,0,1,1,.535.534A.534.534,0,0,1,10.424,38.756Zm-3.474,0a.535.535,0,1,1,.534.534A.534.534,0,0,1,6.951,38.756Zm-3.475,0a.535.535,0,1,1,.534.534A.534.534,0,0,1,3.475,38.756ZM0,38.756a.535.535,0,1,1,.534.534A.534.534,0,0,1,0,38.756Zm41.7-3.473a.535.535,0,1,1,.535.534A.534.534,0,0,1,41.7,35.283Zm-3.475,0a.535.535,0,1,1,.535.534A.535.535,0,0,1,38.224,35.283Zm-3.474,0a.535.535,0,1,1,.534.534A.534.534,0,0,1,34.75,35.283Zm-3.475,0a.535.535,0,1,1,.535.534A.534.534,0,0,1,31.275,35.283Zm-3.475,0a.535.535,0,1,1,.535.534A.534.534,0,0,1,27.8,35.283Zm-3.475,0a.535.535,0,1,1,.534.534A.534.534,0,0,1,24.324,35.283Zm-3.474,0a.535.535,0,1,1,.535.534A.534.534,0,0,1,20.85,35.283Zm-3.475,0a.535.535,0,1,1,.534.534A.534.534,0,0,1,17.375,35.283Zm-3.475,0a.535.535,0,1,1,.535.534A.534.534,0,0,1,13.9,35.283Zm-3.475,0a.535.535,0,1,1,.535.534A.534.534,0,0,1,10.424,35.283Zm-3.474,0a.535.535,0,1,1,.534.534A.534.534,0,0,1,6.951,35.283Zm-3.475,0a.535.535,0,1,1,.534.534A.534.534,0,0,1,3.475,35.283ZM0,35.283a.535.535,0,1,1,.534.534A.534.534,0,0,1,0,35.283Zm41.7-3.476a.535.535,0,1,1,.535.535A.535.535,0,0,1,41.7,31.807Zm-3.475,0a.535.535,0,1,1,.535.535A.535.535,0,0,1,38.224,31.807Zm-3.474,0a.535.535,0,1,1,.534.535A.535.535,0,0,1,34.75,31.807Zm-3.475,0a.535.535,0,1,1,.535.535A.535.535,0,0,1,31.275,31.807Zm-3.475,0a.535.535,0,1,1,.535.535A.535.535,0,0,1,27.8,31.807Zm-3.475,0a.535.535,0,1,1,.534.535A.535.535,0,0,1,24.324,31.807Zm-3.474,0a.535.535,0,1,1,.535.535A.535.535,0,0,1,20.85,31.807Zm-3.475,0a.535.535,0,1,1,.534.535A.535.535,0,0,1,17.375,31.807Zm-3.475,0a.535.535,0,1,1,.535.535A.535.535,0,0,1,13.9,31.807Zm-3.475,0a.535.535,0,1,1,.535.535A.535.535,0,0,1,10.424,31.807Zm-3.474,0a.535.535,0,1,1,.534.535A.535.535,0,0,1,6.951,31.807Zm-3.475,0a.535.535,0,1,1,.534.535A.535.535,0,0,1,3.475,31.807ZM0,31.807a.535.535,0,1,1,.534.535A.535.535,0,0,1,0,31.807Zm41.7-3.475a.535.535,0,1,1,.535.535A.535.535,0,0,1,41.7,28.332Zm-3.475,0a.535.535,0,1,1,.535.535A.535.535,0,0,1,38.224,28.332Zm-3.474,0a.535.535,0,1,1,.534.535A.535.535,0,0,1,34.75,28.332Zm-3.475,0a.535.535,0,1,1,.535.535A.535.535,0,0,1,31.275,28.332Zm-3.475,0a.535.535,0,1,1,.535.535A.535.535,0,0,1,27.8,28.332Zm-3.475,0a.535.535,0,1,1,.534.535A.535.535,0,0,1,24.324,28.332Zm-3.474,0a.535.535,0,1,1,.535.535A.535.535,0,0,1,20.85,28.332Zm-3.475,0a.535.535,0,1,1,.534.535A.535.535,0,0,1,17.375,28.332Zm-3.475,0a.535.535,0,1,1,.535.535A.535.535,0,0,1,13.9,28.332Zm-3.475,0a.535.535,0,1,1,.535.535A.535.535,0,0,1,10.424,28.332Zm-3.474,0a.535.535,0,1,1,.534.535A.535.535,0,0,1,6.951,28.332Zm-3.475,0a.535.535,0,1,1,.534.535A.535.535,0,0,1,3.475,28.332ZM0,28.332a.535.535,0,1,1,.534.535A.535.535,0,0,1,0,28.332Zm41.7-3.474a.535.535,0,1,1,.535.536A.534.534,0,0,1,41.7,24.857Zm-3.475,0a.535.535,0,1,1,.535.536A.534.534,0,0,1,38.224,24.857Zm-3.474,0a.535.535,0,1,1,.534.536A.534.534,0,0,1,34.75,24.857Zm-3.475,0a.535.535,0,1,1,.535.536A.534.534,0,0,1,31.275,24.857Zm-3.475,0a.535.535,0,1,1,.535.536A.534.534,0,0,1,27.8,24.857Zm-3.475,0a.535.535,0,1,1,.534.536A.534.534,0,0,1,24.324,24.857Zm-3.474,0a.535.535,0,1,1,.535.536A.534.534,0,0,1,20.85,24.857Zm-3.475,0a.535.535,0,1,1,.534.536A.534.534,0,0,1,17.375,24.857Zm-3.475,0a.535.535,0,1,1,.535.536A.534.534,0,0,1,13.9,24.857Zm-3.475,0a.535.535,0,1,1,.535.536A.534.534,0,0,1,10.424,24.857Zm-3.474,0a.535.535,0,1,1,.534.536A.534.534,0,0,1,6.951,24.857Zm-3.475,0a.535.535,0,1,1,.534.536A.534.534,0,0,1,3.475,24.857ZM0,24.857a.535.535,0,1,1,.534.536A.534.534,0,0,1,0,24.857Zm41.7-3.475a.535.535,0,1,1,.535.534A.534.534,0,0,1,41.7,21.383Zm-3.475,0a.535.535,0,1,1,.535.534A.534.534,0,0,1,38.224,21.383Zm-3.474,0a.535.535,0,1,1,.534.534A.534.534,0,0,1,34.75,21.383Zm-3.475,0a.535.535,0,1,1,.535.534A.534.534,0,0,1,31.275,21.383Zm-3.475,0a.535.535,0,1,1,.535.534A.534.534,0,0,1,27.8,21.383Zm-3.475,0a.535.535,0,1,1,.534.534A.534.534,0,0,1,24.324,21.383Zm-3.474,0a.535.535,0,1,1,.535.534A.534.534,0,0,1,20.85,21.383Zm-3.475,0a.535.535,0,1,1,.534.534A.534.534,0,0,1,17.375,21.383Zm-3.475,0a.535.535,0,1,1,.535.534A.534.534,0,0,1,13.9,21.383Zm-3.475,0a.535.535,0,1,1,.535.534A.534.534,0,0,1,10.424,21.383Zm-3.474,0a.535.535,0,1,1,.534.534A.534.534,0,0,1,6.951,21.383Zm-3.475,0a.535.535,0,1,1,.534.534A.534.534,0,0,1,3.475,21.383ZM0,21.383a.535.535,0,1,1,.534.534A.534.534,0,0,1,0,21.383Zm41.7-3.475a.535.535,0,1,1,.535.534A.535.535,0,0,1,41.7,17.908Zm-3.475,0a.535.535,0,1,1,.535.534A.535.535,0,0,1,38.224,17.908Zm-3.474,0a.535.535,0,1,1,.534.534A.535.535,0,0,1,34.75,17.908Zm-3.475,0a.535.535,0,1,1,.535.534A.535.535,0,0,1,31.275,17.908Zm-3.475,0a.535.535,0,1,1,.535.534A.535.535,0,0,1,27.8,17.908Zm-3.475,0a.535.535,0,1,1,.534.534A.535.535,0,0,1,24.324,17.908Zm-3.474,0a.535.535,0,1,1,.535.534A.535.535,0,0,1,20.85,17.908Zm-3.475,0a.535.535,0,1,1,.534.534A.535.535,0,0,1,17.375,17.908Zm-3.475,0a.535.535,0,1,1,.535.534A.535.535,0,0,1,13.9,17.908Zm-3.475,0a.535.535,0,1,1,.535.534A.535.535,0,0,1,10.424,17.908Zm-3.474,0a.535.535,0,1,1,.534.534A.535.535,0,0,1,6.951,17.908Zm-3.475,0a.535.535,0,1,1,.534.534A.535.535,0,0,1,3.475,17.908ZM0,17.908a.535.535,0,1,1,.534.534A.535.535,0,0,1,0,17.908Zm41.7-3.473a.535.535,0,1,1,.535.534A.534.534,0,0,1,41.7,14.434Zm-3.475,0a.535.535,0,1,1,.535.534A.534.534,0,0,1,38.224,14.434Zm-3.474,0a.535.535,0,1,1,.534.534A.534.534,0,0,1,34.75,14.434Zm-3.475,0a.535.535,0,1,1,.535.534A.534.534,0,0,1,31.275,14.434Zm-3.475,0a.535.535,0,1,1,.535.534A.534.534,0,0,1,27.8,14.434Zm-3.475,0a.535.535,0,1,1,.534.534A.534.534,0,0,1,24.324,14.434Zm-3.474,0a.535.535,0,1,1,.535.534A.534.534,0,0,1,20.85,14.434Zm-3.475,0a.535.535,0,1,1,.534.534A.534.534,0,0,1,17.375,14.434Zm-3.475,0a.535.535,0,1,1,.535.534A.534.534,0,0,1,13.9,14.434Zm-3.475,0a.535.535,0,1,1,.535.534A.534.534,0,0,1,10.424,14.434Zm-3.474,0a.535.535,0,1,1,.534.534A.534.534,0,0,1,6.951,14.434Zm-3.475,0a.535.535,0,1,1,.534.534A.534.534,0,0,1,3.475,14.434ZM0,14.434a.535.535,0,1,1,.534.534A.534.534,0,0,1,0,14.434Zm41.7-3.475a.535.535,0,1,1,.535.534A.534.534,0,0,1,41.7,10.959Zm-3.475,0a.535.535,0,1,1,.535.534A.535.535,0,0,1,38.224,10.959Zm-3.474,0a.535.535,0,1,1,.534.534A.534.534,0,0,1,34.75,10.959Zm-3.475,0a.535.535,0,1,1,.535.534A.534.534,0,0,1,31.275,10.959Zm-3.475,0a.535.535,0,1,1,.535.534A.534.534,0,0,1,27.8,10.959Zm-3.475,0a.535.535,0,1,1,.534.534A.534.534,0,0,1,24.324,10.959Zm-3.474,0a.535.535,0,1,1,.535.534A.534.534,0,0,1,20.85,10.959Zm-3.475,0a.535.535,0,1,1,.534.534A.534.534,0,0,1,17.375,10.959Zm-3.475,0a.535.535,0,1,1,.535.534A.534.534,0,0,1,13.9,10.959Zm-3.475,0a.535.535,0,1,1,.535.534A.534.534,0,0,1,10.424,10.959Zm-3.474,0a.535.535,0,1,1,.534.534A.534.534,0,0,1,6.951,10.959Zm-3.475,0a.535.535,0,1,1,.534.534A.534.534,0,0,1,3.475,10.959ZM0,10.959a.535.535,0,1,1,.534.534A.534.534,0,0,1,0,10.959ZM41.7,7.484a.535.535,0,1,1,.535.535A.536.536,0,0,1,41.7,7.484Zm-3.475,0a.535.535,0,1,1,.535.535A.536.536,0,0,1,38.224,7.484Zm-3.474,0a.535.535,0,1,1,.534.535A.536.536,0,0,1,34.75,7.484Zm-3.475,0a.535.535,0,1,1,.535.535A.536.536,0,0,1,31.275,7.484Zm-3.475,0a.535.535,0,1,1,.535.535A.536.536,0,0,1,27.8,7.484Zm-3.475,0a.535.535,0,1,1,.534.535A.536.536,0,0,1,24.324,7.484Zm-3.474,0a.535.535,0,1,1,.535.535A.536.536,0,0,1,20.85,7.484Zm-3.475,0a.535.535,0,1,1,.534.535A.536.536,0,0,1,17.375,7.484Zm-3.475,0a.535.535,0,1,1,.535.535A.536.536,0,0,1,13.9,7.484Zm-3.475,0a.535.535,0,1,1,.535.535A.536.536,0,0,1,10.424,7.484Zm-3.474,0a.535.535,0,1,1,.534.535A.536.536,0,0,1,6.951,7.484Zm-3.475,0a.535.535,0,1,1,.534.535A.536.536,0,0,1,3.475,7.484ZM0,7.484a.535.535,0,1,1,.534.535A.536.536,0,0,1,0,7.484ZM41.7,4.01a.535.535,0,1,1,.535.535A.535.535,0,0,1,41.7,4.01Zm-3.475,0a.535.535,0,1,1,.535.535A.535.535,0,0,1,38.224,4.01Zm-3.474,0a.535.535,0,1,1,.534.535A.535.535,0,0,1,34.75,4.01Zm-3.475,0a.535.535,0,1,1,.535.535A.535.535,0,0,1,31.275,4.01Zm-3.475,0a.535.535,0,1,1,.535.535A.535.535,0,0,1,27.8,4.01Zm-3.475,0a.535.535,0,1,1,.534.535A.535.535,0,0,1,24.324,4.01Zm-3.474,0a.535.535,0,1,1,.535.535A.535.535,0,0,1,20.85,4.01Zm-3.475,0a.535.535,0,1,1,.534.535A.535.535,0,0,1,17.375,4.01Zm-3.475,0a.535.535,0,1,1,.535.535A.535.535,0,0,1,13.9,4.01Zm-3.475,0a.535.535,0,1,1,.535.535A.535.535,0,0,1,10.424,4.01Zm-3.474,0a.535.535,0,1,1,.534.535A.535.535,0,0,1,6.951,4.01Zm-3.475,0a.535.535,0,1,1,.534.535A.535.535,0,0,1,3.475,4.01ZM0,4.01a.535.535,0,1,1,.534.535A.535.535,0,0,1,0,4.01ZM41.7.534a.535.535,0,1,1,.535.535A.534.534,0,0,1,41.7.534Zm-3.475,0a.535.535,0,1,1,.535.535A.535.535,0,0,1,38.224.534Zm-3.474,0a.535.535,0,1,1,.534.535A.534.534,0,0,1,34.75.534Zm-3.475,0a.535.535,0,1,1,.535.535A.534.534,0,0,1,31.275.534ZM27.8.534a.535.535,0,1,1,.535.535A.534.534,0,0,1,27.8.534Zm-3.475,0a.535.535,0,1,1,.534.535A.534.534,0,0,1,24.324.534Zm-3.474,0a.535.535,0,1,1,.535.535A.534.534,0,0,1,20.85.534Zm-3.475,0a.535.535,0,1,1,.534.535A.534.534,0,0,1,17.375.534ZM13.9.534a.535.535,0,1,1,.535.535A.534.534,0,0,1,13.9.534Zm-3.475,0a.535.535,0,1,1,.535.535A.534.534,0,0,1,10.424.534Zm-3.474,0a.535.535,0,1,1,.534.535A.534.534,0,0,1,6.951.534Zm-3.475,0a.535.535,0,1,1,.534.535A.534.534,0,0,1,3.475.534ZM0,.534a.535.535,0,1,1,.534.535A.534.534,0,0,1,0,.534Z" transform="translate(-0.708 -3.464)" fill="#9c2555"/>
    </g>
  </g>
</svg>
