<svg xmlns="http://www.w3.org/2000/svg" width="30" height="30" viewBox="0 0 30 30">
    <g data-name="Group 2396">
        <path data-name="Path 3141" d="m238.872 142.381 10.635 3.7v3.819c0 8.3-4.2 13.21-10.635 16.693-6.431-3.483-10.632-8.392-10.632-16.693v-3.821zm-.184-1.13-11.2 3.894a.563.563 0 0 0-.378.534v4.221c0 8.816 4.682 14.252 11.495 17.861a.569.569 0 0 0 .528 0c6.812-3.608 11.495-9.045 11.495-17.861v-4.22a.563.563 0 0 0-.379-.534l-11.194-3.894a.555.555 0 0 0-.367 0z" transform="translate(-223.886 -139.469)" style="stroke:#717780;stroke-width:.4px;fill:#717780"/>
        <path data-name="Path 3142" d="M280.67 218.967a.769.769 0 0 0-.471.218l-4.111 4.088-1.8-1.593a.672.672 0 0 0-.946 0l-.611.617a.676.676 0 0 0 0 .948l2.88 2.671a.677.677 0 0 0 .95 0l.757-.749c.96-.959 4.374-4.391 4.48-4.495a.672.672 0 0 0 0-.948l-.6-.589a.653.653 0 0 0-.525-.172z" transform="translate(-261.603 -208.151)" style="fill-rule:evenodd;fill:#717780"/>
    </g>
</svg>
