<svg xmlns="http://www.w3.org/2000/svg" width="30" height="30" viewBox="0 0 30 30">
    <path d="M104.614 93.842v-4.909a.7.7 0 0 1 .705-.7h5.642a.7.7 0 0 1 .705.7v4.908h2.821V74.209h-12.694v19.633zm-8.463 0V79.117a.7.7 0 0 1 .705-.7h3.526v-4.909a.7.7 0 0 1 .705-.7h2.113V70.7a.7.7 0 0 1 .705-.7h8.463a.7.7 0 0 1 .705.7v2.1h2.116a.7.7 0 0 1 .705.7v4.908h3.526a.7.7 0 0 1 .705.7v14.734h2.116a.7.7 0 1 1 0 1.4H94.035a.7.7 0 1 1 0-1.4zm19.748 0h2.821V79.818h-2.82zm-18.337 0h2.821V79.818h-2.821zm7.053-21.035h7.053V71.4h-7.053zm5.642 5.609h2.116a.7.7 0 0 1 .705.7v2.8a.7.7 0 0 1-.705.7h-2.116v2.1a.7.7 0 0 1-.705.7h-2.822a.7.7 0 0 1-.705-.7v-2.1h-2.116a.7.7 0 0 1-.705-.7v-2.8a.7.7 0 0 1 .705-.7h2.116v-2.1a.7.7 0 0 1 .705-.7h2.821a.7.7 0 0 1 .705.7zm1.411 1.4h-2.116a.7.7 0 0 1-.705-.7v-2.1h-1.41v2.1a.7.7 0 0 1-.705.7h-2.116v1.4h2.116a.7.7 0 0 1 .705.7v2.1h1.41v-2.1a.7.7 0 0 1 .705-.7h2.116zm-5.642 14.024h4.232v-4.205h-4.232z" transform="translate(-93.33 -67.416)" style="fill:#717780" data-name="Group 2395"/>
</svg>
