<svg data-name="Component 8 – 16" xmlns="http://www.w3.org/2000/svg" width="40" height="40" viewBox="0 0 40 40">
    <path data-name="Path 3094" d="M20 0A20 20 0 1 1 0 20 20 20 0 0 1 20 0z" style="fill:#2157a5"/>
    <path data-name="Path 3095" d="M5.657 21.5a1.218 1.218 0 0 0-1.529 1.179v.464a1.221 1.221 0 0 0 1.218 1.218h1.777a1.218 1.218 0 0 0 .309-2.4zm1.466 1.935H5.346a.29.29 0 0 1-.29-.292v-.464a.292.292 0 0 1 .288-.29.3.3 0 0 1 .077 0l1.775.464a.29.29 0 0 1-.074.571zM1 19.892v-.715a1.432 1.432 0 0 1 1.392-1.392h.374a1.909 1.909 0 0 1 .879.232 17.251 17.251 0 0 1 1.234-2.527 3.7 3.7 0 0 1 2.552-1.5 19.155 19.155 0 0 1 3.334-.218c.555 0 1.16 0 1.768.042a.465.465 0 0 1-.056.928 28.987 28.987 0 0 0-1.712-.042 18.354 18.354 0 0 0-3.174.2 2.8 2.8 0 0 0-1.941 1.119 17.09 17.09 0 0 0-1.364 2.875.464.464 0 0 1-.747.165 1.16 1.16 0 0 0-.773-.36h-.339a.494.494 0 0 0-.5.5v.661a.534.534 0 0 0 .524.522h.464a.464.464 0 0 1 .371.743q-.067.088-.128.179a3.591 3.591 0 0 0-.592 2.089v4.641a.506.506 0 0 0 .52.518h1.257a.506.506 0 0 0 .506-.506v-.724a.464.464 0 0 1 .464-.464h5.121a.464.464 0 0 1 0 .928H5.766v.265a1.436 1.436 0 0 1-1.434 1.434H3.088a1.436 1.436 0 0 1-1.434-1.434v-4.646a4.575 4.575 0 0 1 .464-2.126A1.46 1.46 0 0 1 1 19.892zm12.761-.174a5.106 5.106 0 0 0 .861 2.2v1.307a10.324 10.324 0 0 0-3.353 1.624.464.464 0 0 0-.167.518l1.223 3.78a.464.464 0 0 0 .441.32h9.281a.464.464 0 0 0 .441-.32l1.227-3.783a.464.464 0 0 0-.167-.518 10.331 10.331 0 0 0-3.248-1.6v-1.289a5.173 5.173 0 0 0 .886-2.272 2.62 2.62 0 0 0 .928-1.982 1.323 1.323 0 0 0-.858-1.237v-.928a2.467 2.467 0 0 0-.464-1.46 3.8 3.8 0 0 0-2.121-1.49v-.425a.464.464 0 0 0-.464-.464h-.824a3.636 3.636 0 0 0-3.668 3.636l-.015 1.118a1.323 1.323 0 0 0-.89 1.247 2.613 2.613 0 0 0 .951 2.012zm.383-2.407a.464.464 0 0 0 .483-.459l.016-1.506a2.713 2.713 0 0 1 .186-1 2.747 2.747 0 0 1 2.552-1.72h.343v.357a.464.464 0 0 0 .415.464 2.756 2.756 0 0 1 1.886 1.184 1.546 1.546 0 0 1 .292.914v1.3a.464.464 0 0 0 .464.464.394.394 0 0 1 .4.395 1.69 1.69 0 0 1-.7 1.36.464.464 0 0 0-.188.323 4.294 4.294 0 0 1-.768 2.047.794.794 0 0 0-.16.464v1.578a.617.617 0 0 0 .464.6 9.4 9.4 0 0 1 2.9 1.32l-1.014 3.133H13.1l-1.014-3.133a9.394 9.394 0 0 1 3-1.323.615.615 0 0 0 .464-.6v-1.606a.782.782 0 0 0-.155-.464 4.324 4.324 0 0 1-.74-1.993.464.464 0 0 0-.195-.325 1.687 1.687 0 0 1-.724-1.378.4.4 0 0 1 .411-.4z" transform="translate(7.639 -1.537)" style="fill:#d1e6ff;stroke:#d1e6ff;stroke-width:.4px"/>
</svg>
