<svg xmlns="http://www.w3.org/2000/svg" width="29.756" height="31.059" viewBox="0 0 29.756 31.059">
  <defs>
    <style>
      .cls-1, .cls-2 {
        fill: #717780;
      }

      .cls-1 {
        opacity: 0;
      }
    </style>
  </defs>
  <g id="Group_2389" data-name="Group 2389" transform="translate(-112.605 -342)">
    <path id="Path_2929" data-name="Path 2929" class="cls-1" d="M0,0H29.756V29.756H0Z" transform="translate(112.605 342)"/>
    <g id="Group_4976" data-name="Group 4976" transform="translate(113.605 342)">
      <g id="Group_4844" data-name="Group 4844">
        <g id="Group_4833" data-name="Group 4833" transform="translate(7.188)">
          <g id="Group_4830" data-name="Group 4830" transform="translate(0.466 4.452)">
            <g id="Group_4829" data-name="Group 4829">
              <path id="Path_2985" data-name="Path 2985" class="cls-2" d="M27.244,23.807c-3.431,0-6.222-4.305-6.222-9.6a.48.48,0,0,1,.48-.48h0a1.15,1.15,0,0,0,1.144-1.023l.009-.084A2.353,2.353,0,0,1,24.476,10.6a12.083,12.083,0,0,1,5.505.007,2.35,2.35,0,0,1,1.793,1.909l.04.249a1.147,1.147,0,0,0,1.136.967.515.515,0,0,1,.519.48C33.471,19.5,30.678,23.807,27.244,23.807Zm-5.257-9.173c.135,4.567,2.442,8.214,5.257,8.214s5.125-3.646,5.261-8.211a2.1,2.1,0,0,1-1.637-1.721l-.04-.249a1.394,1.394,0,0,0-1.067-1.129,11.125,11.125,0,0,0-5.071-.006,1.392,1.392,0,0,0-1.078,1.2l-.009.084A2.108,2.108,0,0,1,21.988,14.634Z" transform="translate(-21.022 -10.283)"/>
            </g>
          </g>
          <g id="Group_4832" data-name="Group 4832">
            <g id="Group_4831" data-name="Group 4831">
              <path id="Path_2986" data-name="Path 2986" class="cls-2" d="M21,9.857a.48.48,0,0,1-.468-.379L20.1,7.5a.421.421,0,0,1-.008-.049A5.236,5.236,0,0,1,21.2,3.339c1.71-2.019,4.786-2.291,5.386-2.325A4.056,4.056,0,0,1,30.3,2.428l.364.5a.127.127,0,0,0,.1.052,2.808,2.808,0,0,1,2.757,3.345l-.612,3.147a.479.479,0,0,1-.941-.183l.612-3.147a1.85,1.85,0,0,0-1.816-2.2,1.09,1.09,0,0,1-.877-.444L29.53,3a3.274,3.274,0,0,0-2.882-1.024c-.536.03-3.256.268-4.713,1.987a4.307,4.307,0,0,0-.89,3.365l.42,1.953a.48.48,0,0,1-.469.58Z" transform="translate(-20.05 -0.999)"/>
            </g>
          </g>
        </g>
        <g id="Group_4835" data-name="Group 4835" transform="translate(0 14.506)">
          <g id="Group_4834" data-name="Group 4834">
            <path id="Path_2987" data-name="Path 2987" class="cls-2" d="M31.794,49.034H4.975a.475.475,0,0,1-.471-.48V42.373a3.612,3.612,0,0,1,2.459-3.449l5.663-2.177a2.664,2.664,0,0,0,1.83-2.544V32.961a.471.471,0,1,1,.941,0V34.2a3.611,3.611,0,0,1-2.46,3.449L7.275,39.829a2.664,2.664,0,0,0-1.829,2.544v5.7H31.323v-5.7a2.656,2.656,0,0,0-1.809-2.537l-5.7-2.192A3.6,3.6,0,0,1,21.37,34.2V32.961a.471.471,0,1,1,.941,0V34.2a2.656,2.656,0,0,0,1.809,2.537l5.7,2.192a3.6,3.6,0,0,1,2.439,3.442v6.181A.475.475,0,0,1,31.794,49.034Z" transform="translate(-4.505 -32.482)"/>
          </g>
        </g>
        <g id="Group_4837" data-name="Group 4837" transform="translate(9.276 18.067)">
          <g id="Group_4836" data-name="Group 4836">
            <path id="Path_2988" data-name="Path 2988" class="cls-2" d="M29.079,41.991a6.82,6.82,0,0,1-4.512-1.7.479.479,0,1,1,.633-.72,5.9,5.9,0,0,0,7.761,0,.479.479,0,0,1,.643.711l0,0A6.843,6.843,0,0,1,29.079,41.991Z" transform="translate(-24.404 -39.456)"/>
          </g>
        </g>
        <g id="Group_4839" data-name="Group 4839" transform="translate(9.008 18.035)">
          <g id="Group_4838" data-name="Group 4838">
            <path id="Path_2989" data-name="Path 2989" class="cls-2" d="M28.788,50.946a.479.479,0,0,1-.439-.286L23.885,40.513a.479.479,0,1,1,.878-.386l4.023,9.146,4-9.145a.479.479,0,0,1,.878.384L29.227,50.659a.48.48,0,0,1-.439.287h0Z" transform="translate(-23.845 -39.84)"/>
          </g>
        </g>
        <g id="Group_4841" data-name="Group 4841" transform="translate(16.13 18.197)">
          <g id="Group_4840" data-name="Group 4840">
            <path id="Path_2990" data-name="Path 2990" class="cls-2" d="M42.19,45.821a.479.479,0,0,1-.17-.031l-2.827-1.069a.48.48,0,0,1,.339-.9l1.993.753-.941-4.152a.48.48,0,0,1,.936-.212l1.137,5.022a.48.48,0,0,1-.468.585Z" transform="translate(-38.882 -39.841)"/>
          </g>
        </g>
        <g id="Group_4843" data-name="Group 4843" transform="translate(7.961 18.197)">
          <g id="Group_4842" data-name="Group 4842">
            <path id="Path_2991" data-name="Path 2991" class="cls-2" d="M21.952,45.821a.48.48,0,0,1-.468-.585l1.137-5.022a.48.48,0,0,1,.936.212l-.94,4.149,2.03-.773a.479.479,0,1,1,.341.9L22.123,45.79A.478.478,0,0,1,21.952,45.821Z" transform="translate(-21.473 -39.84)"/>
          </g>
        </g>
      </g>
      <g id="Group_4855" data-name="Group 4855" transform="translate(2.766 20.062)">
        <g id="Group_4846" data-name="Group 4846" transform="translate(0 3.796)">
          <g id="Group_4845" data-name="Group 4845">
            <path id="Path_2992" data-name="Path 2992" class="cls-2" d="M14.132,56.819a.48.48,0,0,1,0-.959.456.456,0,0,0,.4-.68l-1.084-1.923a.634.634,0,0,0-1.07,0L11.293,55.18a.456.456,0,0,0,.4.68.48.48,0,0,1,0,.959,1.415,1.415,0,0,1-1.233-2.11l1.084-1.923a1.572,1.572,0,0,1,2.74,0l1.084,1.923a1.415,1.415,0,0,1-1.232,2.11Z" transform="translate(-10.273 -51.985)"/>
          </g>
        </g>
        <g id="Group_4848" data-name="Group 4848" transform="translate(2.158 0)">
          <g id="Group_4847" data-name="Group 4847">
            <path id="Path_2993" data-name="Path 2993" class="cls-2" d="M15.254,48.826a.479.479,0,0,1-.48-.48v-3.8a.48.48,0,1,1,.959,0v3.8A.479.479,0,0,1,15.254,48.826Z" transform="translate(-14.774 -44.068)"/>
          </g>
        </g>
        <g id="Group_4850" data-name="Group 4850" transform="translate(17.393 4.183)">
          <g id="Group_4849" data-name="Group 4849" transform="translate(0)">
            <path id="Path_2994" data-name="Path 2994" class="cls-2" d="M50.061,57.624a2.417,2.417,0,1,1,2.417-2.417A2.419,2.419,0,0,1,50.061,57.624Zm0-3.875a1.458,1.458,0,1,0,1.458,1.458A1.459,1.459,0,0,0,50.061,53.75Z" transform="translate(-47.645 -52.791)"/>
          </g>
        </g>
        <g id="Group_4852" data-name="Group 4852" transform="translate(19.33 6.125)">
          <g id="Group_4851" data-name="Group 4851" transform="translate(0)">
            <path id="Path_2995" data-name="Path 2995" class="cls-2" d="M52.164,57.8a.481.481,0,0,1-.34-.82.5.5,0,0,1,.681,0,.482.482,0,0,1-.34.82Z" transform="translate(-51.685 -56.84)"/>
          </g>
        </g>
        <g id="Group_4854" data-name="Group 4854" transform="translate(19.33)">
          <g id="Group_4853" data-name="Group 4853" transform="translate(0)">
            <path id="Path_2996" data-name="Path 2996" class="cls-2" d="M52.164,49.21a.479.479,0,0,1-.48-.48V44.547a.48.48,0,1,1,.959,0V48.73A.479.479,0,0,1,52.164,49.21Z" transform="translate(-51.685 -44.068)"/>
          </g>
        </g>
      </g>
    </g>
  </g>
</svg>
