<svg xmlns="http://www.w3.org/2000/svg" width="44" height="44" viewBox="0 0 44 44">
  <g id="Group_5013" data-name="Group 5013" transform="translate(-113 -342)">
    <path id="Path_2929" data-name="Path 2929" d="M0,0H44V44H0Z" transform="translate(113 342)" fill="#717780" opacity="0"/>
    <path id="Path_3153" data-name="Path 3153" d="M23226.777,23152.379a.715.715,0,0,1-.3-.066l-2.6-1.186a6.216,6.216,0,0,1-3.105-3.137c-.348,0-.711-.012-1.082-.016l-.719-.012-.2,0a.732.732,0,0,1-.727.729h-2.414a3.659,3.659,0,0,1-3.633-3.672v-29.346a3.659,3.659,0,0,1,3.633-3.67h26.082a3.324,3.324,0,0,1,3.285,3.328v11.344a3.665,3.665,0,0,1-3.648,3.672h-1.445v14.672a3.668,3.668,0,0,1-3.648,3.672h-3.844a6.054,6.054,0,0,1-2.715,2.439l-2.625,1.186A.747.747,0,0,1,23226.777,23152.379Zm-1.836-8.617a.645.645,0,0,0-.266.051.721.721,0,0,0-.461.582.745.745,0,0,0,.273.682l1.824,1.471a.738.738,0,0,0,.473.166.691.691,0,0,0,.461-.166l2.918-2.568a.756.756,0,0,0,.215-.852.716.716,0,0,0-.68-.479h-.043a.714.714,0,0,0-.453.172l-2.449,2.2-1.352-1.086A.7.7,0,0,0,23224.941,23143.762Zm-4.9-11.947a.732.732,0,1,0,0,1.465h13.1a.734.734,0,0,0,.734-.732.726.726,0,0,0-.734-.732Zm0-4.406a.736.736,0,1,0,0,1.473h13.1c.211,0,.3-.379.3-.732s-.094-.74-.3-.74Zm0-4.34a.73.73,0,1,0,0,1.459h13.1a.731.731,0,0,0,.734-.727.722.722,0,0,0-.734-.732Zm0-4.463a.734.734,0,1,0,0,1.469h13.1a.735.735,0,0,0,.734-.736.726.726,0,0,0-.734-.732Z" transform="translate(-23090.014 -22767.662)" fill="#d6f0fc"/>
    <path id="Path_2935" data-name="Path 2935" d="M16.669,6A3.669,3.669,0,0,0,13,9.669V39.017a3.669,3.669,0,0,0,3.669,3.669H19.1a.734.734,0,0,0,0-1.467H16.669a2.2,2.2,0,0,1-2.2-2.2V9.669a2.2,2.2,0,0,1,2.2-2.2H40.2A3.28,3.28,0,0,0,39.64,9.3V39.017a2.2,2.2,0,0,1-2.2,2.2h-3.2a6.215,6.215,0,0,0,.264-1.776V34.27a2.935,2.935,0,0,0-2.935-2.935H24.232A2.935,2.935,0,0,0,21.3,34.27v5.173a6.251,6.251,0,0,0,3.669,5.686l2.62,1.181a.734.734,0,0,0,.6,0l2.648-1.181a6.229,6.229,0,0,0,2.737-2.443h3.866a3.669,3.669,0,0,0,3.669-3.669V24.343h1.467a3.669,3.669,0,0,0,3.669-3.669V9.323a3.28,3.28,0,0,0-.969-2.333A3.324,3.324,0,0,0,42.942,6ZM42.9,7.512a1.9,1.9,0,0,1,1.338.513,1.82,1.82,0,0,1,.536,1.3V20.674a2.2,2.2,0,0,1-2.2,2.2H41.107V9.323a1.82,1.82,0,0,1,.536-1.3A1.9,1.9,0,0,1,42.9,7.512ZM20.563,12.6a.734.734,0,1,0,0,1.467H33.77a.734.734,0,1,0,0-1.467Zm0,4.461a.734.734,0,1,0,0,1.467H33.77a.734.734,0,1,0,0-1.467Zm0,4.344a.734.734,0,1,0,0,1.467H33.77a.734.734,0,1,0,0-1.467Zm0,4.4a.734.734,0,0,0,0,1.467H33.77a.734.734,0,1,0,0-1.467ZM24.232,32.8h7.337a1.467,1.467,0,0,1,1.467,1.467v5.173a4.777,4.777,0,0,1-2.81,4.351L27.9,44.836l-2.326-1.042a4.777,4.777,0,0,1-2.81-4.351V34.27A1.467,1.467,0,0,1,24.232,32.8Zm6.019,3.841a.753.753,0,0,0-.45.173l-2.472,2.2L25.97,37.931a.734.734,0,1,0-.917,1.145l1.834,1.467a.734.734,0,0,0,.94,0l2.935-2.568a.753.753,0,0,0-.512-1.333Z" transform="translate(105.335 338.339)" fill="#003784"/>
  </g>
</svg>
