<svg data-name="Component 8 – 1" xmlns="http://www.w3.org/2000/svg" width="40" height="40" viewBox="0 0 40 40">
    <path data-name="Path 3094" d="M20 0A20 20 0 1 1 0 20 20 20 0 0 1 20 0z" style="fill:#2157a5"/>
    <path data-name="Path 3134" d="M118.233 38.236h-.244v-3.168a1.955 1.955 0 0 0-1.95-1.95h-3.168v-4.142A.977.977 0 0 0 111.9 28h-7.8a.977.977 0 0 0-.975.975v1.462h-1.462a.977.977 0 0 0-.975.975v1.706h-.975a1.7 1.7 0 0 0-1.706 1.706v13.159a1.955 1.955 0 0 0 1.95 1.95H113.6a1.955 1.955 0 0 0 1.95-1.95V47.5h.487a1.955 1.955 0 0 0 1.95-1.95v-1.466h.244a1.7 1.7 0 0 0 1.706-1.706v-2.436a1.7 1.7 0 0 0-1.706-1.706zm-5.361-4.143h3.168a.977.977 0 0 1 .975.975v5.6h-1.462V37.5a1.955 1.955 0 0 0-1.95-1.95h-.731zm-8.772-5.117h7.8v6.58h-1.462v-4.143a.977.977 0 0 0-.975-.975H104.1zm2.437 2.437h.975v4.143h-.975zm1.95 0h.975v4.143h-.975zm-6.823 0h3.9v4.143h-3.9zm-1.95 2.681h.975v1.462h-.975a.731.731 0 0 1 0-1.462zm14.865 13.89a.977.977 0 0 1-.975.975H99.957a.977.977 0 0 1-.975-.975V36.36a1.792 1.792 0 0 0 .731.171H113.6a.977.977 0 0 1 .975.975v3.168h-1.218a1.706 1.706 0 0 0 0 3.412h1.218zm2.437-2.437a.977.977 0 0 1-.975.975h-.487v-2.438h1.462zm1.95-3.168a.718.718 0 0 1-.731.731h-4.874a.731.731 0 0 1 0-1.462h4.874a1.789 1.789 0 0 0 .731-.171zm-.731-1.706h-.244v-1.462h.244a.731.731 0 0 1 0 1.462z" transform="translate(-89.009 -19.001)" style="fill:#d1e6ff;stroke:#d1e6ff;stroke-width:.2px"/>
</svg>
