<svg data-name="Component 8 – 17" xmlns="http://www.w3.org/2000/svg" width="40" height="40" viewBox="0 0 40 40">
    <path data-name="Path 3094" d="M20 0A20 20 0 1 1 0 20 20 20 0 0 1 20 0z" style="fill:#2157a5"/>
    <path data-name="Path 3140" d="M131.494 128.8a1.908 1.908 0 0 0-1.894 1.894v.465a9.5 9.5 0 0 0-7.542 8.464h-.846a.812.812 0 0 0-.812.812v2.165a.812.812 0 0 0 .812.812h20.564a.812.812 0 0 0 .812-.812v-2.165a.812.812 0 0 0-.812-.812h-.846a9.5 9.5 0 0 0-7.542-8.464v-.465a1.908 1.908 0 0 0-1.894-1.894zm0 1.624a.254.254 0 0 1 .271.271v.279c-.089 0-.181-.008-.271-.008s-.181.006-.271.008v-.279a.254.254 0 0 1 .271-.271zm0 2.165a7.833 7.833 0 0 1 7.8 7.035h-15.605a7.834 7.834 0 0 1 7.8-7.036zm-9.47 8.659h18.941v.541h-18.941z" transform="translate(-111.4 -117.802)" style="fill:#d1e6ff"/>
</svg>
