<svg xmlns="http://www.w3.org/2000/svg" width="26" height="26" viewBox="0 0 26 26">
  <path id="icons8-instagram" d="M10.682,3A7.689,7.689,0,0,0,3,10.682V21.318A7.689,7.689,0,0,0,10.682,29H21.318A7.689,7.689,0,0,0,29,21.318V10.682A7.689,7.689,0,0,0,21.318,3ZM23.091,7.727a1.182,1.182,0,1,1-1.182,1.182A1.185,1.185,0,0,1,23.091,7.727ZM16,9.5A6.5,6.5,0,1,1,9.5,16,6.5,6.5,0,0,1,16,9.5Zm0,1.182A5.318,5.318,0,1,0,21.318,16,5.326,5.326,0,0,0,16,10.682Z" transform="translate(-3 -3)" fill="#717780"/>
</svg>
