<svg xmlns="http://www.w3.org/2000/svg" width="25.598" height="25.598" viewBox="0 0 25.598 25.598">
  <path id="linkedin" d="M22.47,0A3.129,3.129,0,0,1,25.6,3.127V22.47A3.129,3.129,0,0,1,22.47,25.6H3.127A3.129,3.129,0,0,1,0,22.47V3.127A3.129,3.129,0,0,1,3.127,0H22.47ZM8.022,21.162V9.877H4.271V21.162Zm13.526,0V14.691c0-3.466-1.851-5.079-4.319-5.079a3.726,3.726,0,0,0-3.381,1.863v-1.6H10.1c.05,1.059,0,11.285,0,11.285h3.751v-6.3a2.565,2.565,0,0,1,.124-.916A2.053,2.053,0,0,1,15.9,12.573c1.357,0,1.9,1.035,1.9,2.552v6.038h3.751ZM6.172,4.436a1.955,1.955,0,1,0-.05,3.9h.024a1.956,1.956,0,1,0,.025-3.9Z" fill="#717780" fill-rule="evenodd"/>
</svg>
