<svg xmlns="http://www.w3.org/2000/svg" width="17.242" height="23.188" viewBox="0 0 17.242 23.188">
  <path id="Path_3028" data-name="Path 3028" d="M22105.842,23114.18l-4.543-6.879c-.289-.424-.568-.889-.852-1.381-.135-.25-.25-.471-.332-.645-.057-.094-.1-.186-.15-.256v-.012a9.945,9.945,0,0,1-.963-4.4,7.659,7.659,0,0,1,.059-1.027,8.622,8.622,0,0,1,17.182,1.039,9.932,9.932,0,0,1-.975,4.361c-.115.256-.242.5-.383.756-.254.48-.568,1-.939,1.555l-4.564,6.9a2.065,2.065,0,0,1-3.539-.018Zm-5.215-14.4a6.726,6.726,0,0,0-.047.836,8.387,8.387,0,0,0,.789,3.7c.082.162.227.441.441.83.242.434.5.863.789,1.293l4.576,6.92a.5.5,0,0,0,.43.268h.035a.48.48,0,0,0,.406-.244l.012-.012,4.576-6.932c.313-.477.6-.945.871-1.428.127-.248.242-.475.359-.7a8.454,8.454,0,0,0,.813-3.678c-.012-.273-.023-.568-.059-.848a7.046,7.046,0,0,0-13.992-.012Zm5.215,3.609a3.331,3.331,0,0,1-1.555-2.8v-.041a3.333,3.333,0,0,1,6.666.006v.035a3.366,3.366,0,0,1-1.555,2.8,3.232,3.232,0,0,1-3.557,0Z" transform="translate(-22099 -23092.002)" fill="#003784"/>
</svg>
