<svg xmlns="http://www.w3.org/2000/svg" width="187" height="32" viewBox="0 0 187 32">
    <g data-name="Group 7128" transform="translate(-113 -641)">
        <g data-name="Path 25402" style="stroke-dasharray:4;fill:#fff">
            <path d="M16 0h155a16 16 0 0 1 0 32H16a16 16 0 0 1 0-32z" style="stroke:none" transform="translate(113 641)"/>
            <path d="M16 0h4v1h-4V0zm8 0h4v1h-4V0zm8 0h4v1h-4V0zm8 0h4v1h-4V0zm8 0h4v1h-4V0zm8 0h4v1h-4V0zm8 0h4v1h-4V0zm8 0h4v1h-4V0zm8 0h4v1h-4V0zm8 0h4v1h-4V0zm8 0h4v1h-4V0zm8 0h4v1h-4V0zm8 0h4v1h-4V0zm8 0h4v1h-4V0zm8 0h4v1h-4V0zm8 0h4v1h-4V0zm8 0h4v1h-4V0zm8 0h4v1h-4V0zm8 0h4v1h-4V0zm8 0h3.084a8.368 8.368 0 0 0 .044 0H171.164l.014.001H171.244l.013.001h.003c.247.004.495.014.74.029l-.062.998c-.31-.02-.626-.029-.938-.029h-3V0zm7.92.77c.433.14.858.298 1.274.473l.044.019h.002l.01.005h.001a18.137 18.137 0 0 1 .033.014l.01.005h.002l.043.019h.002l.01.005h.002l.03.014h.002l.009.005c.001 0 .003 0 .004.002.003 0 .005.002.008.003a4.118 4.118 0 0 1 .02.009l.004.001.008.004.004.002c.003 0 .006.002.008.003l.004.002a12.633 12.633 0 0 1 .04.018l.005.002.008.003.003.002.015.007.005.002.007.003a1.421 1.421 0 0 1 .013.006l.005.002.012.005.007.003.006.003.006.003.007.003.006.003.007.003a17.912 17.912 0 0 1 .018.008l.006.003.007.003c.002 0 .003.002.005.003.003 0 .005.002.007.003l.006.003.007.003a5.29 5.29 0 0 1 .018.008l.006.003.006.003.013.006.009.003.007.004.008.004.013.006.006.003a2.298 2.298 0 0 1 .025.01l.005.004c.003 0 .005.002.007.003l.007.003.012.006c.003 0 .005.002.007.003l.01.005.007.003.006.003.007.003.006.003.008.004.005.002.012.006.004.002.008.004.006.002.007.004.006.002.011.006.002.001.011.005a1.164 1.164 0 0 0 .014.007l.004.002.008.004.005.002.012.006.005.002.008.004.005.003c.003 0 .005.002.007.003l.006.003a15.93 15.93 0 0 1 .016.008l.008.004a7.323 7.323 0 0 1 .013.006l.006.003.007.004.005.002.012.006.005.002.008.004.005.003.007.003.006.003.01.005c.002 0 .004.002.005.003l.009.004a2.121 2.121 0 0 1 .013.006l.005.003.008.004.005.002.012.006.005.003.007.004.006.003.007.003c.002 0 .004.002.005.003l.008.004.01.004.006.004.007.003.005.003.007.004.006.003c.003 0 .004.002.007.003l.01.006.007.002.006.004.006.003.007.004.006.002.009.005.007.004a2.394 2.394 0 0 1 .014.007l.006.003.006.003.006.003.012.006.006.003.006.004.006.003.007.003.005.003.007.004.005.002.013.007.005.003.007.003.005.003.007.004a1.28 1.28 0 0 0 .03.016l.005.002a13.87 13.87 0 0 1 .012.007c.003 0 .005.002.008.004a21.133 21.133 0 0 1 .02.01l.002.001.008.005.004.002.008.004.003.002.028.015.003.001.008.005.003.001a6.018 6.018 0 0 0 .028.016h.003a4.088 4.088 0 0 0 .011.007l.009.005.003.001.029.016.01.006h.002l.04.023h.002c.279.155.552.316.82.486l-.533.845a14.939 14.939 0 0 0-3.386-1.586l.307-.951zm6.695 4.226a16.067 16.067 0 0 1 1.675 2.093l.027.038v.001l.008.012.001.002.016.024.002.002.007.01.001.003.008.011v.001l.009.013.008.012.001.002.007.01.001.003.008.012.008.012.002.003.006.01.003.003.006.01.001.002.008.011c0 .002.002.003.003.005l.005.007c0 .002.001.003.003.005l.004.007.003.005.008.011.002.005.005.007.004.005.004.007.003.005.006.01.004.005.005.007c0 .003.002.005.004.007l.003.005.004.007.003.004.008.013.003.004.004.007.003.005.005.007.002.004.017.026s0 .002.002.003l.005.008.001.003.006.008V7.5a19.365 19.365 0 0 1 .02.03l.005.01.001.001c.137.22.27.443.396.67l-.873.488a15.06 15.06 0 0 0-2.217-3.014l.726-.688zm3.857 6.913v.002l.004.012v.003l.004.012v.002l.008.028v.002l.003.012.001.003.003.012V12l.008.028v.003l.004.011v.004l.003.01v.004l.008.028a.165.165 0 0 0 .004.014v.004a2.399 2.399 0 0 1 .004.014c0 .004.002.007.003.011v.003l.004.013v.004c.002.003.002.007.003.01l.001.005.003.01v.004l.004.01v.003l.004.014v.003l.003.011.001.005.002.009.001.005.003.01v.003l.004.014v.003l.003.01.001.005.003.01v.004l.003.01.001.004.003.014v.001l.003.013.001.004.003.01v.005c.002.003.002.006.003.01l.001.004.003.012v.001l.003.014.001.004.003.01v.005l.003.01v.004c.002.003.002.007.003.01l.001.004.003.013.001.004.002.01.001.005.002.01.002.004c0 .003 0 .006.002.01v.004l.004.013v.005l.003.01v.005l.003.008v.006l.003.008.001.006.003.013v.003l.003.01.001.006.002.009a.75.75 0 0 0 .004.02l.003.011v.005l.003.01.001.005.002.01v.004c.002.003.002.006.003.01v.005c.002.003.002.007.003.01l.001.004c0 .005.002.009.003.013v.005l.003.009v.005l.002.009.002.005.002.01a.289.289 0 0 1 .004.022l.002.01.001.005.002.008.001.006.002.009v.005c.002.004.003.009.003.013l.002.006.001.008.001.006.002.008.001.006.002.009v.005c.002.004.003.009.003.013l.002.005.001.009.001.006.002.008.001.006.002.008v.006l.003.012.001.005.002.01.001.006.002.007v.007a1.315 1.315 0 0 1 .004.014l.001.01.002.007.002.01v.006l.002.007.001.007.002.008v.006l.003.009v.007c.002.003.002.007.003.01l.001.007.001.008.002.006.001.008.001.006.002.009v.005l.003.013v.005l.003.01v.005l.002.008.001.006.002.009v.005l.003.013v.006l.002.008.001.007.002.007v.007l.002.008.001.006.002.012.001.006.002.008.001.007.001.007.001.007.002.008v.006l.003.01v.008l.002.009.001.007.002.007v.007a1.375 1.375 0 0 1 .003.013l.002.01v.007l.002.01.001.007.002.007v.007l.002.008v.006l.002.009.001.005.002.013a.916.916 0 0 1 .002.014l.001.007.002.007v.007l.002.009v.005c.002.004.002.009.003.013v.005l.002.01v.005l.002.009.001.005.002.01v.004l.002.014.001.005.001.009.001.006.002.008v.006l.002.009v.005l.003.014v.003l.002.01a.734.734 0 0 0 .002.015v.006l.002.008v.006l.002.01.001.008a2.257 2.257 0 0 1 .002.015l.001.009.001.006.002.009v.005l.002.01v.005l.002.013v.005l.002.009a.947.947 0 0 0 .002.014v.006l.002.009v.006l.003.013v.005l.001.009.001.006.001.008.001.006.001.009v.006c.002.004.002.009.003.013v.004l.002.01v.006l.001.009.001.005.001.01v.005c.002.004.002.009.003.014v.002l.001.012.001.004.001.01v.005l.002.01v.005l.002.014.002.014v.004l.002.01v.006l.002.01v.004l.002.014.001.015.001.004.001.01v.005l.002.01v.004l.002.014.002.015v.003a3.355 3.355 0 0 0 .002.015l.001.012v.004l.002.013.002.016v.001l.001.014v.002l.002.013v.003a3.84 3.84 0 0 1 .002.014l.003.03v.003l.001.012v.003l.002.014.003.031v.002l.002.013v.002l.001.014v.001l.003.031.002.015v.002l.001.014.005.047v.002l.001.013v.002l.004.045v.002l.002.014v.001l.004.047v.016c.033.392.051.789.054 1.19l-1 .007a15.045 15.045 0 0 0-.494-3.708l.967-.255zm-.904 7.68.971.239a15.883 15.883 0 0 1-1.04 2.949c-.01.018-.018.037-.027.056l-.027.056-.067.14c-.01.018-.018.036-.027.055h-.001l-.02.041v.001l-.007.013-.014.028-.007.014-.021.041v.001l-.007.013-.021.041v.001l-.021.041-.007.013-.001.002-.02.04-.008.013v.001l-.021.04v.001l-.022.041-.007.013-.022.041v.001l-.015.027-.881-.473a14.909 14.909 0 0 0 1.34-3.49zm-3.505 6.541.737.676c-.9.982-1.92 1.851-3.039 2.584l-.548-.836a15.09 15.09 0 0 0 2.85-2.424zm-6.209 4.068.323.946-.189.063-.014.005a.902.902 0 0 0-.043.014h-.003l-.011.004-.004.002c-.004 0-.007.002-.011.003h-.002l-.014.005-.004.001-.01.004c-.004 0-.008.002-.013.004l-.013.004a6.156 6.156 0 0 1-.044.014l-.012.004a13.641 13.641 0 0 1-.042.013h-.003a4.624 4.624 0 0 1-.01.004 15.9 15.9 0 0 1-2.56.565l-.011.002h-.002a16.7 16.7 0 0 1-.06.008l-.014.002a17.871 17.871 0 0 1-.033.004l-.014.002a12.476 12.476 0 0 1-.048.006l-.014.002-.015.002-.014.001a14.11 14.11 0 0 1-.078.01l-.016.001h-.001l-.062.008c-.174.019-.348.036-.523.05l-.078-.998a14.949 14.949 0 0 0 3.662-.755zM164.271 31h4v1h-4v-1zm-8 0h4v1h-4v-1zm-8 0h4v1h-4v-1zm-8 0h4v1h-4v-1zm-8 0h4v1h-4v-1zm-8 0h4v1h-4v-1zm-8 0h4v1h-4v-1zm-8 0h4v1h-4v-1zm-8 0h4v1h-4v-1zm-8 0h4v1h-4v-1zm-8 0h4v1h-4v-1zm-8 0h4v1h-4v-1zm-8 0h4v1h-4v-1zm-8 0h4v1h-4v-1zm-8 0h4v1h-4v-1zm-8 0h4v1h-4v-1zm-8 0h4v1h-4v-1zm-8 0h4v1h-4v-1zm-8 0h4v1h-4v-1zm-7.737-.402A15.08 15.08 0 0 0 16 31h.271v1H16a20.023 20.023 0 0 1-.302-.003h-.015a21.72 21.72 0 0 1-.056-.001h-.014l-.02-.001h-.028a30.301 30.301 0 0 1-.042-.002h-.026l-.014-.001a12.327 12.327 0 0 1-.09-.003h-.013l-.013-.001h-.014l-.013-.001a36.573 36.573 0 0 0-.049-.002l-.013-.001h-.014a11.457 11.457 0 0 1-.101-.006h-.013l-.062-.004H15.074a16.029 16.029 0 0 1-1.991-.239l-.013-.003-.013-.002h-.001l-.046-.009L13 31.72l-.013-.002a7.665 7.665 0 0 1-.026-.005l-.013-.003-.013-.002-.017-.004a6.728 6.728 0 0 1-.027-.005l-.013-.003-.014-.002a15.884 15.884 0 0 1-.56-.122l.231-.973zm-6.57-3.45c.931.839 1.964 1.559 3.07 2.14l-.466.885a15.957 15.957 0 0 1-.44-.24l-.001-.001-.013-.007a17.759 17.759 0 0 1-.04-.023l-.002-.001a5.047 5.047 0 0 1-.012-.007h-.001a22.985 22.985 0 0 1-.04-.023l-.002-.002a21.519 21.519 0 0 1-.038-.021l-.003-.002-.01-.006-.003-.002-.012-.007-.003-.002-.009-.005c-.002 0-.003-.002-.005-.003a3.574 3.574 0 0 0-.007-.004l-.005-.003-.009-.005a4.912 4.912 0 0 0-.008-.005L7.9 29.8l-.006-.003-.006-.004-.006-.003-.007-.004a3.247 3.247 0 0 1-.016-.01l-.007-.004c-.002 0-.003-.002-.005-.003l-.007-.004-.004-.002-.026-.016-.003-.002-.008-.005c-.002 0-.003 0-.004-.002l-.008-.004-.001-.001-.018-.011-.002-.001a4.63 4.63 0 0 0-.009-.006h-.002c-.003-.003-.006-.004-.01-.006l-.03-.019a8.83 8.83 0 0 0-.01-.006h-.001a13.196 13.196 0 0 1-.04-.025h-.001a16.062 16.062 0 0 1-2.367-1.768l.67-.743zm-4.12-6.174a14.955 14.955 0 0 0 1.672 3.345l-.832.555a15.942 15.942 0 0 1-1.783-3.568l.943-.332zM.207 13.418l.987.16a15.17 15.17 0 0 0-.137 3.74l-.996.088a16.17 16.17 0 0 1-.056-.993l-.001-.051v-.026l-.001-.039v-.014a2.483 2.483 0 0 1 0-.023l-.001-.003v-.065L0 16.182V16.05L0 16.041V15.831l.001-.01V15.766l.001-.024V15.728a2.45 2.45 0 0 1 .001-.05V15.665l.001-.04v-.012a16.08 16.08 0 0 1 .203-2.195zM3.38 6.165l.788.615a15.002 15.002 0 0 0-1.916 3.212l-.916-.4c.102-.234.21-.464.322-.691l.001-.002.005-.01v-.001l.016-.03v-.002l.005-.01.002-.002a18.268 18.268 0 0 1 .02-.04l.001-.004.005-.008.001-.003.01-.018V8.77l.004-.008.002-.005.004-.007c0-.002.002-.003.003-.005 0-.003.002-.005.003-.007l.004-.008.005-.01.003-.006.004-.006a1.08 1.08 0 0 1 .003-.006l.003-.007.003-.006.006-.01c0-.003.002-.005.003-.007l.003-.006.003-.007.004-.006.003-.007.003-.005.006-.012.003-.004c0-.003.002-.006.004-.008l.002-.005.005-.009.002-.004.006-.012.001-.002.006-.01.002-.005.005-.01.002-.003.013-.025.001-.002.006-.011.002-.003a4.4 4.4 0 0 1 .006-.012l.008-.014c.002-.005.004-.01.007-.013v-.003l.007-.01V8.46l.015-.026v-.001l.007-.013c.429-.795.922-1.55 1.474-2.256zm6.258-4.85.398.917a15 15 0 0 0-3.218 1.906l-.613-.79.031-.024h.001a14.598 14.598 0 0 1 .038-.03l.009-.006.001-.001.027-.02.001-.002.008-.006.003-.002.008-.006.001-.001.016-.012.002-.002.008-.005.003-.003.007-.005.004-.003.023-.018L6.4 3.2a2.706 2.706 0 0 1 .011-.009l.007-.005a2.187 2.187 0 0 1 .014-.01l.007-.005.005-.004.006-.005.005-.004.007-.005.004-.003.01-.008.006-.003a1.811 1.811 0 0 1 .011-.009l.006-.004.005-.004a9.198 9.198 0 0 0 .015-.011l.007-.005.005-.004.006-.005c.002 0 .004-.002.005-.003l.008-.005.006-.005.008-.006.005-.004.007-.005.004-.003.008-.005.004-.003.01-.008.005-.004.007-.004.005-.004.007-.005a1.419 1.419 0 0 0 .013-.01c.002 0 .003-.002.005-.003a4.101 4.101 0 0 1 .02-.015l.004-.003.008-.005.004-.003.01-.008.004-.002.008-.006.005-.003.007-.006.004-.002.011-.008.002-.002.01-.007.003-.002.009-.006.003-.003.011-.007.013-.009a.486.486 0 0 1 .011-.008l.004-.003.008-.006.004-.002.011-.008.002-.002.01-.006.003-.003.009-.006.003-.002.012-.008.011-.008.004-.003.008-.006.004-.002.01-.007.002-.001.011-.008.004-.003.008-.005.004-.003.008-.006.004-.002.011-.008.003-.002.009-.006.004-.003.008-.005.004-.003.01-.007A.237.237 0 0 0 7 2.77l.007-.006c.002 0 .003-.002.005-.003a4.06 4.06 0 0 1 .008-.005l.003-.003.012-.007.003-.002.009-.007c.001 0 .002 0 .003-.002l.01-.006a.521.521 0 0 1 .003-.002l.011-.008.012-.008.004-.002.008-.006.004-.003.008-.005.004-.002.011-.008.004-.002.008-.006.004-.003.008-.005.004-.003.011-.007.004-.003.008-.005.005-.003.007-.005a1.25 1.25 0 0 1 .013-.008l.004-.003.01-.007.006-.003.006-.005c.002 0 .004-.002.005-.003l.007-.005c.002 0 .004-.002.005-.003l.011-.007.005-.003.006-.004a2.05 2.05 0 0 0 .012-.008l.006-.004.007-.005.008-.005.007-.004a2.02 2.02 0 0 1 .012-.008l.006-.004.005-.003a7.94 7.94 0 0 1 .015-.01h.002l.007-.005.005-.003.006-.005a1.43 1.43 0 0 0 .005-.003l.007-.004.005-.003.012-.008.004-.003.008-.005a.866.866 0 0 1 .011-.007l.003-.002a14.212 14.212 0 0 1 .037-.023l.004-.003a16.023 16.023 0 0 1 .029-.018l.008-.005.003-.002.008-.005a16.294 16.294 0 0 1 .041-.026h.001l.03-.018v-.001l.01-.006a15.938 15.938 0 0 1 2.047-1.07zM16 0v1c-.796 0-1.596.063-2.375.187l-.158-.988c.13-.02.259-.04.389-.057l.037-.004.01-.002.011-.001a7.69 7.69 0 0 1 .049-.007l.014-.001.012-.002L14 .124l.025-.003.012-.002c.502-.061 1.01-.1 1.524-.113l.052-.001.039-.001h.013l.026-.001h.025l.027-.001h.064L15.833 0H15.95L15.963 0H16z" style="fill:#881543;stroke:none" transform="translate(113 641)"/>
        </g>
        <text data-name="No Cost EMI Facility" transform="translate(155 662.146)" style="letter-spacing:.02em;fill:#0b0d10;font-size:13px;font-family:Poppins-Medium,Poppins;font-weight:500"><tspan x="0" y="0">No Cost EMI Facility</tspan></text>
        <circle data-name="Ellipse 224" cx="16" cy="16" r="16" transform="translate(113 641)" style="fill:#881543"/>
        <text data-name="%" transform="translate(122.941 662.146)" style="font-size:14px;font-family:Poppins-SemiBold,Poppins;font-weight:600;letter-spacing:.02em;fill:#fff"><tspan x="0" y="0">%</tspan></text>
    </g>
</svg>
