<svg xmlns="http://www.w3.org/2000/svg" width="12" height="11.999" viewBox="0 0 12 11.999">
    <g data-name="Group 2275">
        <path data-name="Path 9" d="m20.218 19.452-1.742-1.217a1.344 1.344 0 0 0-1.873.333l-.4.58a14.974 14.974 0 0 1-2.155-1.81 14.954 14.954 0 0 1-1.81-2.155l.579-.4a1.347 1.347 0 0 0 .333-1.873l-1.217-1.742a1.346 1.346 0 0 0-1.1-.581 1.259 1.259 0 0 0-.438.078 2.43 2.43 0 0 0-.453.222l-.241.169a1.843 1.843 0 0 0-.17.152 2.416 2.416 0 0 0-.619 1.1c-.5 1.88.741 4.722 3.091 7.073 1.974 1.974 4.345 3.2 6.189 3.2a3.442 3.442 0 0 0 .884-.109 2.415 2.415 0 0 0 1.1-.619 1.788 1.788 0 0 0 .16-.18l.17-.242a2.427 2.427 0 0 0 .214-.441 1.323 1.323 0 0 0-.502-1.538z" transform="translate(-8.8 -10.582)" style="fill:#003784"/>
    </g>
</svg>
