<svg xmlns="http://www.w3.org/2000/svg" width="271.852" height="404.013" viewBox="0 0 271.852 404.013">
  <g id="Group_5028" data-name="Group 5028" transform="translate(-647.506 -179.771)">
    <path id="Union_11" data-name="Union 11" d="M200.737,381.535,183.691,278.718H109.11c-61.792,0-63.924-63.191-63.924-63.191S32.4,105.215,102.718,88.078c60.373-14.718,62.861,42.841,62.861,42.841v65.892h45.814s15.632,2.116,15.632,20.355c0,16.019-14.113,19.736-20.272,20.6.534-.023,1.017-.045,1.44-.071,13.851-.8,18.115,24.93,18.115,24.93l18.11,108.2s3.81,25.707-18.11,28.917A23.354,23.354,0,0,1,222.9,400C206.511,399.995,200.737,381.535,200.737,381.535ZM190.714,238.019H163.8C173.29,238.054,182.792,238.063,190.714,238.019Zm-72.842-.327v0ZM33.552,394.033V349.406C1.591,345.123,0,308.705,0,308.705H150.155c-5.328,33.206-32.439,41.058-32.439,41.058v44.27ZM150.457,39.751A39.547,39.547,0,1,1,190.005,79.5,39.648,39.648,0,0,1,150.457,39.751Z" transform="translate(674.686 181.774)" fill="#d6f0fc"/>
    <path id="Path_3038" data-name="Path 3038" d="M48.034,82.922a16.857,16.857,0,0,1-33.713,0c0-9.312,16.857-27.781,16.857-27.781S48.034,73.61,48.034,82.922" transform="translate(717.38 451.751)" fill="#fff"/>
    <path id="Path_3039" data-name="Path 3039" d="M81.984,84.78v82.468H168.5s23.211-.363,23.211-20.855c0-18.237-15.714-20.349-15.714-20.349H129.942v-65.9s-2.5-57.555-63.19-42.841C-3.935,34.442,8.917,144.757,8.917,144.757s2.142,63.19,64.261,63.19h74.971l17.136,102.818s6.6,20.992,25.7,18.207c22.039-3.213,18.207-28.917,18.207-28.917l-18.207-108.2s-4.284-25.734-18.207-24.931-90.8,0-90.8,0" transform="translate(686.107 252.546)" fill="none" stroke="#003884" stroke-width="4"/>
    <path id="Path_3040" data-name="Path 3040" d="M105.453,40.253A39.756,39.756,0,1,1,65.7.5,39.751,39.751,0,0,1,105.453,40.253Z" transform="translate(774.906 181.271)" fill="none" stroke="#003884" stroke-width="4"/>
    <path id="Path_3041" data-name="Path 3041" d="M151.47,52.383H.522s1.6,36.415,33.731,40.7v44.626h84.61V93.439S146.115,85.585,151.47,52.383Z" transform="translate(649.074 438.099)" fill="none" stroke="#003884" stroke-width="4"/>
    <path id="Path_3042" data-name="Path 3042" d="M44.034,82.922a16.857,16.857,0,0,1-33.713,0c0-9.312,16.857-27.781,16.857-27.781S44.034,73.61,44.034,82.922" transform="translate(697.578 451.751)" fill="#902946"/>
  </g>
</svg>
