<svg data-name="Group 7070" xmlns="http://www.w3.org/2000/svg" width="35.846" height="24.783" viewBox="0 0 35.846 24.783">
    <g data-name="Group 30">
        <path data-name="Path 43" d="M2.487 28.1a2.745 2.745 0 0 1-1.464-.368A2.273 2.273 0 0 1 0 25.629c.029-1.6 1.414-2.32 2.241-2.748l.263-.138a16.912 16.912 0 0 0 2.606-1.672 8.058 8.058 0 0 0 1.757-1.835 4.117 4.117 0 0 0-.5-.057 6.73 6.73 0 0 1-.754-.085 6.5 6.5 0 0 1-3.282-1.712A7.366 7.366 0 0 1 .874 9.205 7.546 7.546 0 0 1 7.76 5a7.517 7.517 0 0 1 5.907 2.836 9.645 9.645 0 0 1 1.9 7.843c-.912 4.512-4.476 8.772-9.534 11.394A8.68 8.68 0 0 1 2.487 28.1zm17.853 0a2.752 2.752 0 0 1-1.465-.369 2.274 2.274 0 0 1-1.023-2.1c.029-1.6 1.415-2.32 2.242-2.748l.261-.138a16.9 16.9 0 0 0 2.608-1.672 7.936 7.936 0 0 0 1.757-1.835 4.14 4.14 0 0 0-.5-.057 6.786 6.786 0 0 1-.754-.085 6.5 6.5 0 0 1-3.282-1.712 7.367 7.367 0 0 1-1.456-8.177 7.667 7.667 0 0 1 12.793-1.371 9.646 9.646 0 0 1 1.9 7.843c-.913 4.513-4.477 8.772-9.535 11.394A8.7 8.7 0 0 1 20.34 28.1z" transform="translate(.001 -5)" style="fill:#f3f8ff"/>
    </g>
    <g data-name="Group 29">
        <path data-name="Path 43" d="M2.487 28.1a2.745 2.745 0 0 1-1.464-.368A2.273 2.273 0 0 1 0 25.629c.029-1.6 1.414-2.32 2.241-2.748l.263-.138a16.912 16.912 0 0 0 2.606-1.672 8.058 8.058 0 0 0 1.757-1.835 4.117 4.117 0 0 0-.5-.057 6.73 6.73 0 0 1-.754-.085 6.5 6.5 0 0 1-3.282-1.712A7.366 7.366 0 0 1 .874 9.205 7.546 7.546 0 0 1 7.76 5a7.517 7.517 0 0 1 5.907 2.836 9.645 9.645 0 0 1 1.9 7.843c-.912 4.512-4.476 8.772-9.534 11.394A8.68 8.68 0 0 1 2.487 28.1zm5.273-21a5.366 5.366 0 0 0-4.982 2.994 5.21 5.21 0 0 0 1.017 5.785A4.366 4.366 0 0 0 6 17.032a4.5 4.5 0 0 0 .514.054 4.715 4.715 0 0 1 1.181.192 1.828 1.828 0 0 1 1.347 1.415c.2 1.106-.679 2.456-2.616 4.016A18.94 18.94 0 0 1 3.5 24.593l-.291.153c-.762.395-1.1.623-1.109.923a.6.6 0 0 0 .039.29 4.876 4.876 0 0 0 2.929-.752c3.473-1.8 7.515-5.359 8.443-9.945a7.494 7.494 0 0 0-1.468-6.1A5.408 5.408 0 0 0 7.76 7.1zm12.58 21a2.752 2.752 0 0 1-1.465-.369 2.274 2.274 0 0 1-1.023-2.1c.029-1.6 1.415-2.32 2.242-2.748l.261-.138a16.9 16.9 0 0 0 2.608-1.672 7.936 7.936 0 0 0 1.757-1.835 4.14 4.14 0 0 0-.5-.057 6.786 6.786 0 0 1-.754-.085 6.5 6.5 0 0 1-3.282-1.712 7.367 7.367 0 0 1-1.456-8.177 7.667 7.667 0 0 1 12.793-1.371 9.646 9.646 0 0 1 1.9 7.843c-.913 4.513-4.477 8.772-9.535 11.394A8.7 8.7 0 0 1 20.34 28.1zm5.273-21a5.37 5.37 0 0 0-4.982 2.994 5.21 5.21 0 0 0 1.018 5.785 4.358 4.358 0 0 0 2.206 1.153 4.726 4.726 0 0 0 .512.054 4.73 4.73 0 0 1 1.183.192 1.827 1.827 0 0 1 1.35 1.414c.2 1.1-.678 2.455-2.615 4.016a18.937 18.937 0 0 1-2.929 1.885l-.291.153c-.761.395-1.1.623-1.108.923a.6.6 0 0 0 .039.29 4.872 4.872 0 0 0 2.929-.752c3.473-1.8 7.514-5.359 8.442-9.945a7.494 7.494 0 0 0-1.468-6.1A5.408 5.408 0 0 0 25.613 7.1z" transform="translate(2.241 -3.32)" style="fill:#003784"/>
    </g>
</svg>
