<svg xmlns="http://www.w3.org/2000/svg" width="35.846" height="24.783" viewBox="0 0 35.846 24.783">
  <g id="Group_2411" data-name="Group 2411" transform="translate(-460 -1908.126)">
    <g id="Group_30" data-name="Group 30" transform="translate(462.24 1908.126)">
      <path id="Path_43" data-name="Path 43" d="M31.117,28.1a2.745,2.745,0,0,0,1.464-.368,2.273,2.273,0,0,0,1.023-2.1c-.029-1.6-1.414-2.32-2.241-2.748l-.263-.138a16.913,16.913,0,0,1-2.607-1.672,8.058,8.058,0,0,1-1.757-1.835,4.117,4.117,0,0,1,.5-.057,6.73,6.73,0,0,0,.754-.085,6.5,6.5,0,0,0,3.282-1.712,7.366,7.366,0,0,0,1.455-8.178A7.666,7.666,0,0,0,19.937,7.836a9.645,9.645,0,0,0-1.9,7.843c.912,4.512,4.476,8.772,9.534,11.394A8.68,8.68,0,0,0,31.117,28.1Zm-17.854,0a2.752,2.752,0,0,0,1.465-.369,2.274,2.274,0,0,0,1.023-2.1c-.029-1.6-1.415-2.32-2.242-2.748l-.262-.138a16.9,16.9,0,0,1-2.608-1.672,7.936,7.936,0,0,1-1.757-1.835,4.14,4.14,0,0,1,.5-.057,6.786,6.786,0,0,0,.754-.085,6.5,6.5,0,0,0,3.282-1.712,7.367,7.367,0,0,0,1.456-8.177A7.451,7.451,0,0,0,7.991,5,7.523,7.523,0,0,0,2.083,7.836a9.646,9.646,0,0,0-1.9,7.843c.913,4.513,4.477,8.772,9.535,11.394A8.7,8.7,0,0,0,13.264,28.1Z" transform="translate(0.001 -5)" fill="#f3f8ff"/>
    </g>
    <g id="Group_29" data-name="Group 29" transform="translate(460 1909.807)">
      <path id="Path_43-2" data-name="Path 43" d="M31.117,28.1a2.745,2.745,0,0,0,1.464-.368,2.273,2.273,0,0,0,1.023-2.1c-.029-1.6-1.414-2.32-2.241-2.748l-.263-.138a16.913,16.913,0,0,1-2.607-1.672,8.058,8.058,0,0,1-1.757-1.835,4.117,4.117,0,0,1,.5-.057,6.73,6.73,0,0,0,.754-.085,6.5,6.5,0,0,0,3.282-1.712,7.366,7.366,0,0,0,1.455-8.178A7.666,7.666,0,0,0,19.937,7.836a9.645,9.645,0,0,0-1.9,7.843c.912,4.512,4.476,8.772,9.534,11.394A8.68,8.68,0,0,0,31.117,28.1Zm-5.273-21a5.366,5.366,0,0,1,4.982,2.994,5.21,5.21,0,0,1-1.017,5.785A4.366,4.366,0,0,1,27.6,17.032a4.5,4.5,0,0,1-.514.054,4.715,4.715,0,0,0-1.181.192,1.828,1.828,0,0,0-1.347,1.415c-.2,1.106.679,2.456,2.616,4.016A18.94,18.94,0,0,0,30.1,24.593l.291.153c.762.395,1.1.623,1.109.923a.6.6,0,0,1-.039.29,4.876,4.876,0,0,1-2.929-.752c-3.473-1.8-7.515-5.359-8.443-9.945a7.494,7.494,0,0,1,1.468-6.1A5.408,5.408,0,0,1,25.844,7.1Zm-12.58,21a2.752,2.752,0,0,0,1.465-.369,2.274,2.274,0,0,0,1.023-2.1c-.029-1.6-1.415-2.32-2.242-2.748l-.262-.138a16.9,16.9,0,0,1-2.608-1.672,7.936,7.936,0,0,1-1.757-1.835,4.14,4.14,0,0,1,.5-.057,6.786,6.786,0,0,0,.754-.085,6.5,6.5,0,0,0,3.282-1.712,7.367,7.367,0,0,0,1.456-8.177A7.451,7.451,0,0,0,7.991,5,7.523,7.523,0,0,0,2.083,7.836a9.646,9.646,0,0,0-1.9,7.843c.913,4.513,4.477,8.772,9.535,11.394A8.7,8.7,0,0,0,13.264,28.1ZM7.991,7.1a5.37,5.37,0,0,1,4.982,2.994,5.21,5.21,0,0,1-1.018,5.785,4.358,4.358,0,0,1-2.206,1.153,4.726,4.726,0,0,1-.512.054,4.73,4.73,0,0,0-1.183.192,1.827,1.827,0,0,0-1.347,1.414c-.2,1.1.678,2.455,2.615,4.016a18.937,18.937,0,0,0,2.929,1.885l.291.153c.761.395,1.1.623,1.108.923a.6.6,0,0,1-.039.29,4.873,4.873,0,0,1-2.929-.752c-3.473-1.8-7.514-5.359-8.442-9.945a7.494,7.494,0,0,1,1.468-6.1A5.408,5.408,0,0,1,7.991,7.1Z" transform="translate(0.001 -5)" fill="#003784"/>
    </g>
  </g>
</svg>
