<svg xmlns="http://www.w3.org/2000/svg" width="70.479" height="69.516" viewBox="0 0 70.479 69.516">
    <path data-name="Path 24671" d="M7221 21778a2 2 0 1 1 2 2 2 2 0 0 1-2-2zm13-13a2 2 0 1 1 2 2 2 2 0 0 1-2-2zm-13 0a2 2 0 1 1 2 2 2 2 0 0 1-2-2zm26-13a2 2 0 1 1 2 2 2 2 0 0 1-2-2zm-13 0a2 2 0 1 1 2 2 2 2 0 0 1-2-2zm-13 0a2 2 0 1 1 2 2 2 2 0 0 1-2-2zm26-13a2 2 0 1 1 2 2 2 2 0 0 1-2-2zm-13 0a2 2 0 1 1 2 2 2 2 0 0 1-2-2zm-13 0a2 2 0 1 1 2 2 2 2 0 0 1-2-2zm13-13a2 2 0 1 1 2 2 2 2 0 0 1-2-2zm-13 0a2 2 0 1 1 2 2 2 2 0 0 1-2-2zm0-13a2 2 0 1 1 2 2 2 2 0 0 1-2-2z" transform="rotate(45.97 29225.4 2416.335)" style="fill:#f5f9ff"/>
</svg>
