<svg xmlns="http://www.w3.org/2000/svg" width="199.012" height="160.002" viewBox="0 0 199.012 160.002">
  <g id="Group_6959" data-name="Group 6959" transform="translate(-1118.574 -2291.998)">
    <path id="Union_36" data-name="Union 36" d="M7624.007,21830a2,2,0,1,1,2,2A2,2,0,0,1,7624.007,21830Zm-13,0a2,2,0,1,1,2,2A2,2,0,0,1,7611.01,21830Zm-13,0a2,2,0,1,1,2,2A2,2,0,0,1,7598.008,21830Zm-13,0a2,2,0,1,1,2,2A2,2,0,0,1,7585.006,21830Zm-13,0a2,2,0,1,1,2,2A2,2,0,0,1,7572,21830Zm-13,0a2,2,0,1,1,2,2A2,2,0,0,1,7559.008,21830Zm-13,0a2,2,0,1,1,2,2A2,2,0,0,1,7546.006,21830Zm-13,0a2,2,0,1,1,2,2A2,2,0,0,1,7533,21830Zm-13,0a2,2,0,1,1,2,2A2,2,0,0,1,7520,21830Zm-13,0a2,2,0,1,1,2,2A2,2,0,0,1,7507.006,21830Zm-13,0a2,2,0,1,1,2,2A2,2,0,0,1,7494,21830Zm-13,0a2,2,0,1,1,2,2A2,2,0,0,1,7481,21830Zm-13,0a2,2,0,1,1,2,2A2,2,0,0,1,7468,21830Zm-13,0a2,2,0,1,1,2,2A2,2,0,0,1,7455,21830Zm-13,0a2,2,0,1,1,2,2A2,2,0,0,1,7442,21830Zm-13,0a2,2,0,1,1,2,2A2,2,0,0,1,7429,21830Zm195.007-13a2,2,0,1,1,2,2A2,2,0,0,1,7624.007,21817Zm-13,0a2,2,0,1,1,2,2A2,2,0,0,1,7611.01,21817Zm-13,0a2,2,0,1,1,2,2A2,2,0,0,1,7598.008,21817Zm-13,0a2,2,0,1,1,2,2A2,2,0,0,1,7585.006,21817Zm-13,0a2,2,0,1,1,2,2A2,2,0,0,1,7572,21817Zm-13,0a2,2,0,1,1,2,2A2,2,0,0,1,7559.008,21817Zm-13,0a2,2,0,1,1,2,2A2,2,0,0,1,7546.006,21817Zm-13,0a2,2,0,1,1,2,2A2,2,0,0,1,7533,21817Zm-13,0a2,2,0,1,1,2,2A2,2,0,0,1,7520,21817Zm-13,0a2,2,0,1,1,2,2A2,2,0,0,1,7507.006,21817Zm-13,0a2,2,0,1,1,2,2A2,2,0,0,1,7494,21817Zm-13,0a2,2,0,1,1,2,2A2,2,0,0,1,7481,21817Zm-13,0a2,2,0,1,1,2,2A2,2,0,0,1,7468,21817Zm-13,0a2,2,0,1,1,2,2A2,2,0,0,1,7455,21817Zm-13,0a2,2,0,1,1,2,2A2,2,0,0,1,7442,21817Zm-13,0a2,2,0,1,1,2,2A2,2,0,0,1,7429,21817Zm195.007-13a2,2,0,1,1,2,2A2,2,0,0,1,7624.007,21804Zm-13,0a2,2,0,1,1,2,2A2,2,0,0,1,7611.01,21804Zm-13,0a2,2,0,1,1,2,2A2,2,0,0,1,7598.008,21804Zm-13,0a2,2,0,1,1,2,2A2,2,0,0,1,7585.006,21804Zm-13,0a2,2,0,1,1,2,2A2,2,0,0,1,7572,21804Zm-13,0a2,2,0,1,1,2,2A2,2,0,0,1,7559.008,21804Zm-13,0a2,2,0,1,1,2,2A2,2,0,0,1,7546.006,21804Zm-13,0a2,2,0,1,1,2,2A2,2,0,0,1,7533,21804Zm-13,0a2,2,0,1,1,2,2A2,2,0,0,1,7520,21804Zm-13,0a2,2,0,1,1,2,2A2,2,0,0,1,7507.006,21804Zm-13,0a2,2,0,1,1,2,2A2,2,0,0,1,7494,21804Zm-13,0a2,2,0,1,1,2,2A2,2,0,0,1,7481,21804Zm-13,0a2,2,0,1,1,2,2A2,2,0,0,1,7468,21804Zm-13,0a2,2,0,1,1,2,2A2,2,0,0,1,7455,21804Zm-13,0a2,2,0,1,1,2,2A2,2,0,0,1,7442,21804Zm-13,0a2,2,0,1,1,2,2A2,2,0,0,1,7429,21804Zm195.007-13a2,2,0,1,1,2,2A2,2,0,0,1,7624.007,21791Zm-13,0a2,2,0,1,1,2,2A2,2,0,0,1,7611.01,21791Zm-13,0a2,2,0,1,1,2,2A2,2,0,0,1,7598.008,21791Zm-13,0a2,2,0,1,1,2,2A2,2,0,0,1,7585.006,21791Zm-13,0a2,2,0,1,1,2,2A2,2,0,0,1,7572,21791Zm-13,0a2,2,0,1,1,2,2A2,2,0,0,1,7559.008,21791Zm-13,0a2,2,0,1,1,2,2A2,2,0,0,1,7546.006,21791Zm-13,0a2,2,0,1,1,2,2A2,2,0,0,1,7533,21791Zm-13,0a2,2,0,1,1,2,2A2,2,0,0,1,7520,21791Zm-13,0a2,2,0,1,1,2,2A2,2,0,0,1,7507.006,21791Zm-13,0a2,2,0,1,1,2,2A2,2,0,0,1,7494,21791Zm-13,0a2,2,0,1,1,2,2A2,2,0,0,1,7481,21791Zm-13,0a2,2,0,1,1,2,2A2,2,0,0,1,7468,21791Zm-13,0a2,2,0,1,1,2,2A2,2,0,0,1,7455,21791Zm-13,0a2,2,0,1,1,2,2A2,2,0,0,1,7442,21791Zm-13,0a2,2,0,1,1,2,2A2,2,0,0,1,7429,21791Zm195.007-13a2,2,0,1,1,2,2A2,2,0,0,1,7624.007,21778Zm-13,0a2,2,0,1,1,2,2A2,2,0,0,1,7611.01,21778Zm-13,0a2,2,0,1,1,2,2A2,2,0,0,1,7598.008,21778Zm-13,0a2,2,0,1,1,2,2A2,2,0,0,1,7585.006,21778Zm-13,0a2,2,0,1,1,2,2A2,2,0,0,1,7572,21778Zm-13,0a2,2,0,1,1,2,2A2,2,0,0,1,7559.008,21778Zm-13,0a2,2,0,1,1,2,2A2,2,0,0,1,7546.006,21778Zm-13,0a2,2,0,1,1,2,2A2,2,0,0,1,7533,21778Zm-13,0a2,2,0,1,1,2,2A2,2,0,0,1,7520,21778Zm-13,0a2,2,0,1,1,2,2A2,2,0,0,1,7507.006,21778Zm-13,0a2,2,0,1,1,2,2A2,2,0,0,1,7494,21778Zm-13,0a2,2,0,1,1,2,2A2,2,0,0,1,7481,21778Zm-13,0a2,2,0,1,1,2,2A2,2,0,0,1,7468,21778Zm-13,0a2,2,0,1,1,2,2A2,2,0,0,1,7455,21778Zm-13,0a2,2,0,1,1,2,2A2,2,0,0,1,7442,21778Zm-13,0a2,2,0,1,1,2,2A2,2,0,0,1,7429,21778Zm195.007-13a2,2,0,1,1,2,2A2,2,0,0,1,7624.007,21765Zm-13,0a2,2,0,1,1,2,2A2,2,0,0,1,7611.01,21765Zm-13,0a2,2,0,1,1,2,2A2,2,0,0,1,7598.008,21765Zm-13,0a2,2,0,1,1,2,2A2,2,0,0,1,7585.006,21765Zm-13,0a2,2,0,1,1,2,2A2,2,0,0,1,7572,21765Zm-13,0a2,2,0,1,1,2,2A2,2,0,0,1,7559.008,21765Zm-13,0a2,2,0,1,1,2,2A2,2,0,0,1,7546.006,21765Zm-13,0a2,2,0,1,1,2,2A2,2,0,0,1,7533,21765Zm-13,0a2,2,0,1,1,2,2A2,2,0,0,1,7520,21765Zm-13,0a2,2,0,1,1,2,2A2,2,0,0,1,7507.006,21765Zm-13,0a2,2,0,1,1,2,2A2,2,0,0,1,7494,21765Zm-13,0a2,2,0,1,1,2,2A2,2,0,0,1,7481,21765Zm-13,0a2,2,0,1,1,2,2A2,2,0,0,1,7468,21765Zm-13,0a2,2,0,1,1,2,2A2,2,0,0,1,7455,21765Zm-13,0a2,2,0,1,1,2,2A2,2,0,0,1,7442,21765Zm-13,0a2,2,0,1,1,2,2A2,2,0,0,1,7429,21765Zm195.007-13a2,2,0,1,1,2,2A2,2,0,0,1,7624.007,21752Zm-13,0a2,2,0,1,1,2,2A2,2,0,0,1,7611.01,21752Zm-13,0a2,2,0,1,1,2,2A2,2,0,0,1,7598.008,21752Zm-13,0a2,2,0,1,1,2,2A2,2,0,0,1,7585.006,21752Zm-13,0a2,2,0,1,1,2,2A2,2,0,0,1,7572,21752Zm-13,0a2,2,0,1,1,2,2A2,2,0,0,1,7559.008,21752Zm-13,0a2,2,0,1,1,2,2A2,2,0,0,1,7546.006,21752Zm-13,0a2,2,0,1,1,2,2A2,2,0,0,1,7533,21752Zm-13,0a2,2,0,1,1,2,2A2,2,0,0,1,7520,21752Zm-13,0a2,2,0,1,1,2,2A2,2,0,0,1,7507.006,21752Zm-13,0a2,2,0,1,1,2,2A2,2,0,0,1,7494,21752Zm-13,0a2,2,0,1,1,2,2A2,2,0,0,1,7481,21752Zm-13,0a2,2,0,1,1,2,2A2,2,0,0,1,7468,21752Zm-13,0a2,2,0,1,1,2,2A2,2,0,0,1,7455,21752Zm-13,0a2,2,0,1,1,2,2A2,2,0,0,1,7442,21752Zm-13,0a2,2,0,1,1,2,2A2,2,0,0,1,7429,21752Zm195.007-13a2,2,0,1,1,2,2A2,2,0,0,1,7624.007,21739Zm-13,0a2,2,0,1,1,2,2A2,2,0,0,1,7611.01,21739Zm-13,0a2,2,0,1,1,2,2A2,2,0,0,1,7598.008,21739Zm-13,0a2,2,0,1,1,2,2A2,2,0,0,1,7585.006,21739Zm-13,0a2,2,0,1,1,2,2A2,2,0,0,1,7572,21739Zm-13,0a2,2,0,1,1,2,2A2,2,0,0,1,7559.008,21739Zm-13,0a2,2,0,1,1,2,2A2,2,0,0,1,7546.006,21739Zm-13,0a2,2,0,1,1,2,2A2,2,0,0,1,7533,21739Zm-13,0a2,2,0,1,1,2,2A2,2,0,0,1,7520,21739Zm-13,0a2,2,0,1,1,2,2A2,2,0,0,1,7507.006,21739Zm-13,0a2,2,0,1,1,2,2A2,2,0,0,1,7494,21739Zm-13,0a2,2,0,1,1,2,2A2,2,0,0,1,7481,21739Zm-13,0a2,2,0,1,1,2,2A2,2,0,0,1,7468,21739Zm-13,0a2,2,0,1,1,2,2A2,2,0,0,1,7455,21739Zm-13,0a2,2,0,1,1,2,2A2,2,0,0,1,7442,21739Zm-13,0a2,2,0,1,1,2,2A2,2,0,0,1,7429,21739Zm195.007-13a2,2,0,1,1,2,2A2,2,0,0,1,7624.007,21726Zm-13,0a2,2,0,1,1,2,2A2,2,0,0,1,7611.01,21726Zm-13,0a2,2,0,1,1,2,2A2,2,0,0,1,7598.008,21726Zm-13,0a2,2,0,1,1,2,2A2,2,0,0,1,7585.006,21726Zm-13,0a2,2,0,1,1,2,2A2,2,0,0,1,7572,21726Zm-13,0a2,2,0,1,1,2,2A2,2,0,0,1,7559.008,21726Zm-13,0a2,2,0,1,1,2,2A2,2,0,0,1,7546.006,21726Zm-13,0a2,2,0,1,1,2,2A2,2,0,0,1,7533,21726Zm-13,0a2,2,0,1,1,2,2A2,2,0,0,1,7520,21726Zm-13,0a2,2,0,1,1,2,2A2,2,0,0,1,7507.006,21726Zm-13,0a2,2,0,1,1,2,2A2,2,0,0,1,7494,21726Zm-13,0a2,2,0,1,1,2,2A2,2,0,0,1,7481,21726Zm-13,0a2,2,0,1,1,2,2A2,2,0,0,1,7468,21726Zm-13,0a2,2,0,1,1,2,2A2,2,0,0,1,7455,21726Zm-13,0a2,2,0,1,1,2,2A2,2,0,0,1,7442,21726Zm-13,0a2,2,0,1,1,2,2A2,2,0,0,1,7429,21726Zm195.007-13a2,2,0,1,1,2,2A2,2,0,0,1,7624.007,21713Zm-13,0a2,2,0,1,1,2,2A2,2,0,0,1,7611.01,21713Zm-13,0a2,2,0,1,1,2,2A2,2,0,0,1,7598.008,21713Zm-13,0a2,2,0,1,1,2,2A2,2,0,0,1,7585.006,21713Zm-13,0a2,2,0,1,1,2,2A2,2,0,0,1,7572,21713Zm-13,0a2,2,0,1,1,2,2A2,2,0,0,1,7559.008,21713Zm-13,0a2,2,0,1,1,2,2A2,2,0,0,1,7546.006,21713Zm-13,0a2,2,0,1,1,2,2A2,2,0,0,1,7533,21713Zm-13,0a2,2,0,1,1,2,2A2,2,0,0,1,7520,21713Zm-13,0a2,2,0,1,1,2,2A2,2,0,0,1,7507.006,21713Zm-13,0a2,2,0,1,1,2,2A2,2,0,0,1,7494,21713Zm-13,0a2,2,0,1,1,2,2A2,2,0,0,1,7481,21713Zm-13,0a2,2,0,1,1,2,2A2,2,0,0,1,7468,21713Zm-13,0a2,2,0,1,1,2,2A2,2,0,0,1,7455,21713Zm-13,0a2,2,0,1,1,2,2A2,2,0,0,1,7442,21713Zm-13,0a2,2,0,1,1,2,2A2,2,0,0,1,7429,21713Zm195.007-13a2,2,0,1,1,2,2A2,2,0,0,1,7624.007,21700Zm-13,0a2,2,0,1,1,2,2A2,2,0,0,1,7611.01,21700Zm-13,0a2,2,0,1,1,2,2A2,2,0,0,1,7598.008,21700Zm-13,0a2,2,0,1,1,2,2A2,2,0,0,1,7585.006,21700Zm-13,0a2,2,0,1,1,2,2A2,2,0,0,1,7572,21700Zm-13,0a2,2,0,1,1,2,2A2,2,0,0,1,7559.008,21700Zm-13,0a2,2,0,1,1,2,2A2,2,0,0,1,7546.006,21700Zm-13,0a2,2,0,1,1,2,2A2,2,0,0,1,7533,21700Zm-13,0a2,2,0,1,1,2,2A2,2,0,0,1,7520,21700Zm-13,0a2,2,0,1,1,2,2A2,2,0,0,1,7507.006,21700Zm-13,0a2,2,0,1,1,2,2A2,2,0,0,1,7494,21700Zm-13,0a2,2,0,1,1,2,2A2,2,0,0,1,7481,21700Zm-13,0a2,2,0,1,1,2,2A2,2,0,0,1,7468,21700Zm-13,0a2,2,0,1,1,2,2A2,2,0,0,1,7455,21700Zm-13,0a2,2,0,1,1,2,2A2,2,0,0,1,7442,21700Zm-13,0a2,2,0,1,1,2,2A2,2,0,0,1,7429,21700Zm195.007-13a2,2,0,1,1,2,2A2,2,0,0,1,7624.007,21687Zm-13,0a2,2,0,1,1,2,2A2,2,0,0,1,7611.01,21687Zm-13,0a2,2,0,1,1,2,2A2,2,0,0,1,7598.008,21687Zm-13,0a2,2,0,1,1,2,2A2,2,0,0,1,7585.006,21687Zm-13,0a2,2,0,1,1,2,2A2,2,0,0,1,7572,21687Zm-13,0a2,2,0,1,1,2,2A2,2,0,0,1,7559.008,21687Zm-13,0a2,2,0,1,1,2,2A2,2,0,0,1,7546.006,21687Zm-13,0a2,2,0,1,1,2,2A2,2,0,0,1,7533,21687Zm-13,0a2,2,0,1,1,2,2A2,2,0,0,1,7520,21687Zm-13,0a2,2,0,1,1,2,2A2,2,0,0,1,7507.006,21687Zm-13,0a2,2,0,1,1,2,2A2,2,0,0,1,7494,21687Zm-13,0a2,2,0,1,1,2,2A2,2,0,0,1,7481,21687Zm-13,0a2,2,0,1,1,2,2A2,2,0,0,1,7468,21687Zm-13,0a2,2,0,1,1,2,2A2,2,0,0,1,7455,21687Zm-13,0a2,2,0,1,1,2,2A2,2,0,0,1,7442,21687Zm-13,0a2,2,0,1,1,2,2A2,2,0,0,1,7429,21687Zm195.007-13a2,2,0,1,1,2,2A2,2,0,0,1,7624.007,21674Zm-13,0a2,2,0,1,1,2,2A2,2,0,0,1,7611.01,21674Zm-13,0a2,2,0,1,1,2,2A2,2,0,0,1,7598.008,21674Zm-13,0a2,2,0,1,1,2,2A2,2,0,0,1,7585.006,21674Zm-13,0a2,2,0,1,1,2,2A2,2,0,0,1,7572,21674Zm-13,0a2,2,0,1,1,2,2A2,2,0,0,1,7559.008,21674Zm-13,0a2,2,0,1,1,2,2A2,2,0,0,1,7546.006,21674Zm-13,0a2,2,0,1,1,2,2A2,2,0,0,1,7533,21674Zm-13,0a2,2,0,1,1,2,2A2,2,0,0,1,7520,21674Zm-13,0a2,2,0,1,1,2,2A2,2,0,0,1,7507.006,21674Zm-13,0a2,2,0,1,1,2,2A2,2,0,0,1,7494,21674Zm-13,0a2,2,0,1,1,2,2A2,2,0,0,1,7481,21674Zm-13,0a2,2,0,1,1,2,2A2,2,0,0,1,7468,21674Zm-13,0a2,2,0,1,1,2,2A2,2,0,0,1,7455,21674Zm-13,0a2,2,0,1,1,2,2A2,2,0,0,1,7442,21674Zm-13,0a2,2,0,1,1,2,2A2,2,0,0,1,7429,21674Z" transform="translate(-6310.426 -19380)" fill="#ccd7de"/>
    <path id="Path_24677" data-name="Path 24677" d="M7416,21674a2,2,0,1,0,2-2A2,2,0,0,0,7416,21674Zm-13,0a2,2,0,1,0,2-2A2,2,0,0,0,7403.005,21674Zm-13,0a2,2,0,1,0,2-2A2,2,0,0,0,7390,21674Zm26,13a2,2,0,1,0,2-2A2,2,0,0,0,7416,21687Zm-13,0a2,2,0,1,0,2-2A2,2,0,0,0,7403.005,21687Zm-13,0a2,2,0,1,0,2-2A2,2,0,0,0,7390,21687Zm26,13a2,2,0,1,0,2-2A2,2,0,0,0,7416,21700Zm-13,0a2,2,0,1,0,2-2A2,2,0,0,0,7403.005,21700Zm-13,0a2,2,0,1,0,2-2A2,2,0,0,0,7390,21700Z" transform="translate(-6102.42 -19380)" fill="#881543"/>
  </g>
</svg>
