<svg xmlns="http://www.w3.org/2000/svg" width="1369.017" height="160" viewBox="0 0 1369.017 160">
  <path id="Path_24674" data-name="Path 24674" d="M7225,21830a2,2,0,1,0-2,2A2,2,0,0,0,7225,21830Zm13,0a2,2,0,1,0-2,2A2,2,0,0,0,7238,21830Zm13,0a2,2,0,1,0-2,2A2,2,0,0,0,7251,21830Zm13,0a2,2,0,1,0-2,2A2,2,0,0,0,7264,21830Zm13,0a2,2,0,1,0-2,2A2,2,0,0,0,7277.006,21830Zm13,0a2,2,0,1,0-2,2A2,2,0,0,0,7290,21830Zm13,0a2,2,0,1,0-2,2A2,2,0,0,0,7303,21830Zm13,0a2,2,0,1,0-2,2A2,2,0,0,0,7316.006,21830Zm13,0a2,2,0,1,0-2,2A2,2,0,0,0,7329.008,21830Zm13,0a2,2,0,1,0-2,2A2,2,0,0,0,7342,21830Zm13,0a2,2,0,1,0-2,2A2,2,0,0,0,7355.007,21830Zm13,0a2,2,0,1,0-2,2A2,2,0,0,0,7368.009,21830Zm13,0a2,2,0,1,0-2,2A2,2,0,0,0,7381.01,21830Zm13,0a2,2,0,1,0-2,2A2,2,0,0,0,7394.007,21830Zm13,0a2,2,0,1,0-2,2A2,2,0,0,0,7407.009,21830Zm13,0a2,2,0,1,0-2,2A2,2,0,0,0,7420.011,21830Zm13,0a2,2,0,1,0-2,2A2,2,0,0,0,7433.007,21830Zm13,0a2,2,0,1,0-2,2A2,2,0,0,0,7446,21830Zm13,0a2,2,0,1,0-2,2A2,2,0,0,0,7459.006,21830Zm13,0a2,2,0,1,0-2,2A2,2,0,0,0,7472.008,21830Zm13,0a2,2,0,1,0-2,2A2,2,0,0,0,7485.009,21830Zm13,0a2,2,0,1,0-2,2A2,2,0,0,0,7498.006,21830Zm13,0a2,2,0,1,0-2,2A2,2,0,0,0,7511.008,21830Zm13,0a2,2,0,1,0-2,2A2,2,0,0,0,7524.01,21830Zm13,0a2,2,0,1,0-2,2A2,2,0,0,0,7537.012,21830Zm13,0a2,2,0,1,0-2,2A2,2,0,0,0,7550.008,21830Zm13,0a2,2,0,1,0-2,2A2,2,0,0,0,7563.01,21830Zm13,0a2,2,0,1,0-2,2A2,2,0,0,0,7576.012,21830Zm13,0a2,2,0,1,0-2,2A2,2,0,0,0,7589.014,21830Zm13,0a2,2,0,1,0-2,2A2,2,0,0,0,7602.01,21830Zm13,0a2,2,0,1,0-2,2A2,2,0,0,0,7615.012,21830Zm13,0a2,2,0,1,0-2,2A2,2,0,0,0,7628.014,21830Zm12.991,0a2,2,0,1,0-2,2A2,2,0,0,0,7641,21830Zm13,0a2,2,0,1,0-2,2A2,2,0,0,0,7654,21830Zm13,0a2,2,0,1,0-2,2A2,2,0,0,0,7667,21830Zm13,0a2,2,0,1,0-2,2A2,2,0,0,0,7680,21830Zm13,0a2,2,0,1,0-2,2A2,2,0,0,0,7693.007,21830Zm13,0a2,2,0,1,0-2,2A2,2,0,0,0,7706,21830Zm13,0a2,2,0,1,0-2,2A2,2,0,0,0,7719.006,21830Zm13,0a2,2,0,1,0-2,2A2,2,0,0,0,7732.008,21830Zm13,0a2,2,0,1,0-2,2A2,2,0,0,0,7745.01,21830Zm13,0a2,2,0,1,0-2,2A2,2,0,0,0,7758.006,21830Zm13,0a2,2,0,1,0-2,2A2,2,0,0,0,7771.008,21830Zm13,0a2,2,0,1,0-2,2A2,2,0,0,0,7784.01,21830Zm13,0a2,2,0,1,0-2,2A2,2,0,0,0,7797.012,21830Zm13,0a2,2,0,1,0-2,2A2,2,0,0,0,7810.008,21830Zm13,0a2,2,0,1,0-2,2A2,2,0,0,0,7823.01,21830Zm13,0a2,2,0,1,0-2,2A2,2,0,0,0,7836.012,21830Zm13,0a2,2,0,1,0-2,2A2,2,0,0,0,7849.009,21830Zm13,0a2,2,0,1,0-2,2A2,2,0,0,0,7862,21830Zm13,0a2,2,0,1,0-2,2A2,2,0,0,0,7875.007,21830Zm13,0a2,2,0,1,0-2,2A2,2,0,0,0,7888.009,21830Zm13,0a2,2,0,1,0-2,2A2,2,0,0,0,7901.011,21830Zm13,0a2,2,0,1,0-2,2A2,2,0,0,0,7914.007,21830Zm13,0a2,2,0,1,0-2,2A2,2,0,0,0,7927.009,21830Zm13,0a2,2,0,1,0-2,2A2,2,0,0,0,7940.011,21830Zm13,0a2,2,0,1,0-2,2A2,2,0,0,0,7953.013,21830Zm13,0a2,2,0,1,0-2,2A2,2,0,0,0,7966.009,21830Zm13,0a2,2,0,1,0-2,2A2,2,0,0,0,7979.011,21830Zm13,0a2,2,0,1,0-2,2A2,2,0,0,0,7992.013,21830Zm13,0a2,2,0,1,0-2,2A2,2,0,0,0,8005.015,21830Zm13,0a2,2,0,1,0-2,2A2,2,0,0,0,8018.012,21830Zm13,0a2,2,0,1,0-2,2A2,2,0,0,0,8031.014,21830Zm13,0a2,2,0,1,0-2,2A2,2,0,0,0,8044.016,21830Zm12.985,0a2,2,0,1,0-2,2A2,2,0,0,0,8057,21830Zm13,0a2,2,0,1,0-2,2A2,2,0,0,0,8070,21830Zm13,0a2,2,0,1,0-2,2A2,2,0,0,0,8083,21830Zm13,0a2,2,0,1,0-2,2A2,2,0,0,0,8096,21830Zm13,0a2,2,0,1,0-2,2A2,2,0,0,0,8109,21830Zm13,0a2,2,0,1,0-2,2A2,2,0,0,0,8122,21830Zm13,0a2,2,0,1,0-2,2A2,2,0,0,0,8135,21830Zm13,0a2,2,0,1,0-2,2A2,2,0,0,0,8148,21830Zm13,0a2,2,0,1,0-2,2A2,2,0,0,0,8161.005,21830Zm13,0a2,2,0,1,0-2,2A2,2,0,0,0,8174,21830Zm13,0a2,2,0,1,0-2,2A2,2,0,0,0,8187,21830Zm13,0a2,2,0,1,0-2,2A2,2,0,0,0,8200.006,21830Zm13,0a2,2,0,1,0-2,2A2,2,0,0,0,8213.008,21830Zm13,0a2,2,0,1,0-2,2A2,2,0,0,0,8226,21830Zm13,0a2,2,0,1,0-2,2A2,2,0,0,0,8239.006,21830Zm13,0a2,2,0,1,0-2,2A2,2,0,0,0,8252.008,21830Zm13,0a2,2,0,1,0-2,2A2,2,0,0,0,8265,21830Zm13,0a2,2,0,1,0-2,2A2,2,0,0,0,8278,21830Zm13,0a2,2,0,1,0-2,2A2,2,0,0,0,8291,21830Zm13,0a2,2,0,1,0-2,2A2,2,0,0,0,8304,21830Zm13,0a2,2,0,1,0-2,2A2,2,0,0,0,8317.007,21830Zm13,0a2,2,0,1,0-2,2A2,2,0,0,0,8330,21830Zm13,0a2,2,0,1,0-2,2A2,2,0,0,0,8343.006,21830Zm13,0a2,2,0,1,0-2,2A2,2,0,0,0,8356.008,21830Zm13,0a2,2,0,1,0-2,2A2,2,0,0,0,8369.01,21830Zm13,0a2,2,0,1,0-2,2A2,2,0,0,0,8382.006,21830Zm13,0a2,2,0,1,0-2,2A2,2,0,0,0,8395.008,21830Zm13,0a2,2,0,1,0-2,2A2,2,0,0,0,8408.01,21830Zm13,0a2,2,0,1,0-2,2A2,2,0,0,0,8421.012,21830Zm13,0a2,2,0,1,0-2,2A2,2,0,0,0,8434.008,21830Zm13,0a2,2,0,1,0-2,2A2,2,0,0,0,8447.01,21830Zm13,0a2,2,0,1,0-2,2A2,2,0,0,0,8460.012,21830Zm13,0a2,2,0,1,0-2,2A2,2,0,0,0,8473.014,21830Zm13,0a2,2,0,1,0-2,2A2,2,0,0,0,8486.01,21830Zm13,0a2,2,0,1,0-2,2A2,2,0,0,0,8499.012,21830Zm13,0a2,2,0,1,0-2,2A2,2,0,0,0,8512.014,21830Zm13,0a2,2,0,1,0-2,2A2,2,0,0,0,8525.016,21830Zm13,0a2,2,0,1,0-2,2A2,2,0,0,0,8538.012,21830Zm13,0a2,2,0,1,0-2,2A2,2,0,0,0,8551.014,21830Zm13,0a2,2,0,1,0-2,2A2,2,0,0,0,8564.016,21830Zm13,0a2,2,0,1,0-2,2A2,2,0,0,0,8577.018,21830Zm13,0a2,2,0,1,0-2,2A2,2,0,0,0,8590.015,21830ZM7225,21817a2,2,0,1,0-2,2A2,2,0,0,0,7225,21817Zm13,0a2,2,0,1,0-2,2A2,2,0,0,0,7238,21817Zm13,0a2,2,0,1,0-2,2A2,2,0,0,0,7251,21817Zm13,0a2,2,0,1,0-2,2A2,2,0,0,0,7264,21817Zm13,0a2,2,0,1,0-2,2A2,2,0,0,0,7277.006,21817Zm13,0a2,2,0,1,0-2,2A2,2,0,0,0,7290,21817Zm13,0a2,2,0,1,0-2,2A2,2,0,0,0,7303,21817Zm13,0a2,2,0,1,0-2,2A2,2,0,0,0,7316.006,21817Zm13,0a2,2,0,1,0-2,2A2,2,0,0,0,7329.008,21817Zm13,0a2,2,0,1,0-2,2A2,2,0,0,0,7342,21817Zm13,0a2,2,0,1,0-2,2A2,2,0,0,0,7355.007,21817Zm13,0a2,2,0,1,0-2,2A2,2,0,0,0,7368.009,21817Zm13,0a2,2,0,1,0-2,2A2,2,0,0,0,7381.01,21817Zm13,0a2,2,0,1,0-2,2A2,2,0,0,0,7394.007,21817Zm13,0a2,2,0,1,0-2,2A2,2,0,0,0,7407.009,21817Zm13,0a2,2,0,1,0-2,2A2,2,0,0,0,7420.011,21817Zm13,0a2,2,0,1,0-2,2A2,2,0,0,0,7433.007,21817Zm13,0a2,2,0,1,0-2,2A2,2,0,0,0,7446,21817Zm13,0a2,2,0,1,0-2,2A2,2,0,0,0,7459.006,21817Zm13,0a2,2,0,1,0-2,2A2,2,0,0,0,7472.008,21817Zm13,0a2,2,0,1,0-2,2A2,2,0,0,0,7485.009,21817Zm13,0a2,2,0,1,0-2,2A2,2,0,0,0,7498.006,21817Zm13,0a2,2,0,1,0-2,2A2,2,0,0,0,7511.008,21817Zm13,0a2,2,0,1,0-2,2A2,2,0,0,0,7524.01,21817Zm13,0a2,2,0,1,0-2,2A2,2,0,0,0,7537.012,21817Zm13,0a2,2,0,1,0-2,2A2,2,0,0,0,7550.008,21817Zm13,0a2,2,0,1,0-2,2A2,2,0,0,0,7563.01,21817Zm13,0a2,2,0,1,0-2,2A2,2,0,0,0,7576.012,21817Zm13,0a2,2,0,1,0-2,2A2,2,0,0,0,7589.014,21817Zm13,0a2,2,0,1,0-2,2A2,2,0,0,0,7602.01,21817Zm13,0a2,2,0,1,0-2,2A2,2,0,0,0,7615.012,21817Zm13,0a2,2,0,1,0-2,2A2,2,0,0,0,7628.014,21817Zm12.991,0a2,2,0,1,0-2,2A2,2,0,0,0,7641,21817Zm13,0a2,2,0,1,0-2,2A2,2,0,0,0,7654,21817Zm13,0a2,2,0,1,0-2,2A2,2,0,0,0,7667,21817Zm13,0a2,2,0,1,0-2,2A2,2,0,0,0,7680,21817Zm13,0a2,2,0,1,0-2,2A2,2,0,0,0,7693.007,21817Zm13,0a2,2,0,1,0-2,2A2,2,0,0,0,7706,21817Zm13,0a2,2,0,1,0-2,2A2,2,0,0,0,7719.006,21817Zm13,0a2,2,0,1,0-2,2A2,2,0,0,0,7732.008,21817Zm13,0a2,2,0,1,0-2,2A2,2,0,0,0,7745.01,21817Zm13,0a2,2,0,1,0-2,2A2,2,0,0,0,7758.006,21817Zm13,0a2,2,0,1,0-2,2A2,2,0,0,0,7771.008,21817Zm13,0a2,2,0,1,0-2,2A2,2,0,0,0,7784.01,21817Zm13,0a2,2,0,1,0-2,2A2,2,0,0,0,7797.012,21817Zm13,0a2,2,0,1,0-2,2A2,2,0,0,0,7810.008,21817Zm13,0a2,2,0,1,0-2,2A2,2,0,0,0,7823.01,21817Zm13,0a2,2,0,1,0-2,2A2,2,0,0,0,7836.012,21817Zm13,0a2,2,0,1,0-2,2A2,2,0,0,0,7849.009,21817Zm13,0a2,2,0,1,0-2,2A2,2,0,0,0,7862,21817Zm13,0a2,2,0,1,0-2,2A2,2,0,0,0,7875.007,21817Zm13,0a2,2,0,1,0-2,2A2,2,0,0,0,7888.009,21817Zm13,0a2,2,0,1,0-2,2A2,2,0,0,0,7901.011,21817Zm13,0a2,2,0,1,0-2,2A2,2,0,0,0,7914.007,21817Zm13,0a2,2,0,1,0-2,2A2,2,0,0,0,7927.009,21817Zm13,0a2,2,0,1,0-2,2A2,2,0,0,0,7940.011,21817Zm13,0a2,2,0,1,0-2,2A2,2,0,0,0,7953.013,21817Zm13,0a2,2,0,1,0-2,2A2,2,0,0,0,7966.009,21817Zm13,0a2,2,0,1,0-2,2A2,2,0,0,0,7979.011,21817Zm13,0a2,2,0,1,0-2,2A2,2,0,0,0,7992.013,21817Zm13,0a2,2,0,1,0-2,2A2,2,0,0,0,8005.015,21817Zm13,0a2,2,0,1,0-2,2A2,2,0,0,0,8018.012,21817Zm13,0a2,2,0,1,0-2,2A2,2,0,0,0,8031.014,21817Zm13,0a2,2,0,1,0-2,2A2,2,0,0,0,8044.016,21817Zm12.985,0a2,2,0,1,0-2,2A2,2,0,0,0,8057,21817Zm13,0a2,2,0,1,0-2,2A2,2,0,0,0,8070,21817Zm13,0a2,2,0,1,0-2,2A2,2,0,0,0,8083,21817Zm13,0a2,2,0,1,0-2,2A2,2,0,0,0,8096,21817Zm13,0a2,2,0,1,0-2,2A2,2,0,0,0,8109,21817Zm13,0a2,2,0,1,0-2,2A2,2,0,0,0,8122,21817Zm13,0a2,2,0,1,0-2,2A2,2,0,0,0,8135,21817Zm13,0a2,2,0,1,0-2,2A2,2,0,0,0,8148,21817Zm13,0a2,2,0,1,0-2,2A2,2,0,0,0,8161.005,21817Zm13,0a2,2,0,1,0-2,2A2,2,0,0,0,8174,21817Zm13,0a2,2,0,1,0-2,2A2,2,0,0,0,8187,21817Zm13,0a2,2,0,1,0-2,2A2,2,0,0,0,8200.006,21817Zm13,0a2,2,0,1,0-2,2A2,2,0,0,0,8213.008,21817Zm13,0a2,2,0,1,0-2,2A2,2,0,0,0,8226,21817Zm13,0a2,2,0,1,0-2,2A2,2,0,0,0,8239.006,21817Zm13,0a2,2,0,1,0-2,2A2,2,0,0,0,8252.008,21817Zm13,0a2,2,0,1,0-2,2A2,2,0,0,0,8265,21817Zm13,0a2,2,0,1,0-2,2A2,2,0,0,0,8278,21817Zm13,0a2,2,0,1,0-2,2A2,2,0,0,0,8291,21817Zm13,0a2,2,0,1,0-2,2A2,2,0,0,0,8304,21817Zm13,0a2,2,0,1,0-2,2A2,2,0,0,0,8317.007,21817Zm13,0a2,2,0,1,0-2,2A2,2,0,0,0,8330,21817Zm13,0a2,2,0,1,0-2,2A2,2,0,0,0,8343.006,21817Zm13,0a2,2,0,1,0-2,2A2,2,0,0,0,8356.008,21817Zm13,0a2,2,0,1,0-2,2A2,2,0,0,0,8369.01,21817Zm13,0a2,2,0,1,0-2,2A2,2,0,0,0,8382.006,21817Zm13,0a2,2,0,1,0-2,2A2,2,0,0,0,8395.008,21817Zm13,0a2,2,0,1,0-2,2A2,2,0,0,0,8408.01,21817Zm13,0a2,2,0,1,0-2,2A2,2,0,0,0,8421.012,21817Zm13,0a2,2,0,1,0-2,2A2,2,0,0,0,8434.008,21817Zm13,0a2,2,0,1,0-2,2A2,2,0,0,0,8447.01,21817Zm13,0a2,2,0,1,0-2,2A2,2,0,0,0,8460.012,21817Zm13,0a2,2,0,1,0-2,2A2,2,0,0,0,8473.014,21817Zm13,0a2,2,0,1,0-2,2A2,2,0,0,0,8486.01,21817Zm13,0a2,2,0,1,0-2,2A2,2,0,0,0,8499.012,21817Zm13,0a2,2,0,1,0-2,2A2,2,0,0,0,8512.014,21817Zm13,0a2,2,0,1,0-2,2A2,2,0,0,0,8525.016,21817Zm13,0a2,2,0,1,0-2,2A2,2,0,0,0,8538.012,21817Zm13,0a2,2,0,1,0-2,2A2,2,0,0,0,8551.014,21817Zm13,0a2,2,0,1,0-2,2A2,2,0,0,0,8564.016,21817Zm13,0a2,2,0,1,0-2,2A2,2,0,0,0,8577.018,21817Zm13,0a2,2,0,1,0-2,2A2,2,0,0,0,8590.015,21817ZM7225,21804a2,2,0,1,0-2,2A2,2,0,0,0,7225,21804Zm13,0a2,2,0,1,0-2,2A2,2,0,0,0,7238,21804Zm13,0a2,2,0,1,0-2,2A2,2,0,0,0,7251,21804Zm13,0a2,2,0,1,0-2,2A2,2,0,0,0,7264,21804Zm13,0a2,2,0,1,0-2,2A2,2,0,0,0,7277.006,21804Zm13,0a2,2,0,1,0-2,2A2,2,0,0,0,7290,21804Zm13,0a2,2,0,1,0-2,2A2,2,0,0,0,7303,21804Zm13,0a2,2,0,1,0-2,2A2,2,0,0,0,7316.006,21804Zm13,0a2,2,0,1,0-2,2A2,2,0,0,0,7329.008,21804Zm13,0a2,2,0,1,0-2,2A2,2,0,0,0,7342,21804Zm13,0a2,2,0,1,0-2,2A2,2,0,0,0,7355.007,21804Zm13,0a2,2,0,1,0-2,2A2,2,0,0,0,7368.009,21804Zm13,0a2,2,0,1,0-2,2A2,2,0,0,0,7381.01,21804Zm13,0a2,2,0,1,0-2,2A2,2,0,0,0,7394.007,21804Zm13,0a2,2,0,1,0-2,2A2,2,0,0,0,7407.009,21804Zm13,0a2,2,0,1,0-2,2A2,2,0,0,0,7420.011,21804Zm13,0a2,2,0,1,0-2,2A2,2,0,0,0,7433.007,21804Zm13,0a2,2,0,1,0-2,2A2,2,0,0,0,7446,21804Zm13,0a2,2,0,1,0-2,2A2,2,0,0,0,7459.006,21804Zm13,0a2,2,0,1,0-2,2A2,2,0,0,0,7472.008,21804Zm13,0a2,2,0,1,0-2,2A2,2,0,0,0,7485.009,21804Zm13,0a2,2,0,1,0-2,2A2,2,0,0,0,7498.006,21804Zm13,0a2,2,0,1,0-2,2A2,2,0,0,0,7511.008,21804Zm13,0a2,2,0,1,0-2,2A2,2,0,0,0,7524.01,21804Zm13,0a2,2,0,1,0-2,2A2,2,0,0,0,7537.012,21804Zm13,0a2,2,0,1,0-2,2A2,2,0,0,0,7550.008,21804Zm13,0a2,2,0,1,0-2,2A2,2,0,0,0,7563.01,21804Zm13,0a2,2,0,1,0-2,2A2,2,0,0,0,7576.012,21804Zm13,0a2,2,0,1,0-2,2A2,2,0,0,0,7589.014,21804Zm13,0a2,2,0,1,0-2,2A2,2,0,0,0,7602.01,21804Zm13,0a2,2,0,1,0-2,2A2,2,0,0,0,7615.012,21804Zm13,0a2,2,0,1,0-2,2A2,2,0,0,0,7628.014,21804Zm12.991,0a2,2,0,1,0-2,2A2,2,0,0,0,7641,21804Zm13,0a2,2,0,1,0-2,2A2,2,0,0,0,7654,21804Zm13,0a2,2,0,1,0-2,2A2,2,0,0,0,7667,21804Zm13,0a2,2,0,1,0-2,2A2,2,0,0,0,7680,21804Zm13,0a2,2,0,1,0-2,2A2,2,0,0,0,7693.007,21804Zm13,0a2,2,0,1,0-2,2A2,2,0,0,0,7706,21804Zm13,0a2,2,0,1,0-2,2A2,2,0,0,0,7719.006,21804Zm13,0a2,2,0,1,0-2,2A2,2,0,0,0,7732.008,21804Zm13,0a2,2,0,1,0-2,2A2,2,0,0,0,7745.01,21804Zm13,0a2,2,0,1,0-2,2A2,2,0,0,0,7758.006,21804Zm13,0a2,2,0,1,0-2,2A2,2,0,0,0,7771.008,21804Zm13,0a2,2,0,1,0-2,2A2,2,0,0,0,7784.01,21804Zm13,0a2,2,0,1,0-2,2A2,2,0,0,0,7797.012,21804Zm13,0a2,2,0,1,0-2,2A2,2,0,0,0,7810.008,21804Zm13,0a2,2,0,1,0-2,2A2,2,0,0,0,7823.01,21804Zm13,0a2,2,0,1,0-2,2A2,2,0,0,0,7836.012,21804Zm13,0a2,2,0,1,0-2,2A2,2,0,0,0,7849.009,21804Zm13,0a2,2,0,1,0-2,2A2,2,0,0,0,7862,21804Zm13,0a2,2,0,1,0-2,2A2,2,0,0,0,7875.007,21804Zm13,0a2,2,0,1,0-2,2A2,2,0,0,0,7888.009,21804Zm13,0a2,2,0,1,0-2,2A2,2,0,0,0,7901.011,21804Zm13,0a2,2,0,1,0-2,2A2,2,0,0,0,7914.007,21804Zm13,0a2,2,0,1,0-2,2A2,2,0,0,0,7927.009,21804Zm13,0a2,2,0,1,0-2,2A2,2,0,0,0,7940.011,21804Zm13,0a2,2,0,1,0-2,2A2,2,0,0,0,7953.013,21804Zm13,0a2,2,0,1,0-2,2A2,2,0,0,0,7966.009,21804Zm13,0a2,2,0,1,0-2,2A2,2,0,0,0,7979.011,21804Zm13,0a2,2,0,1,0-2,2A2,2,0,0,0,7992.013,21804Zm13,0a2,2,0,1,0-2,2A2,2,0,0,0,8005.015,21804Zm13,0a2,2,0,1,0-2,2A2,2,0,0,0,8018.012,21804Zm13,0a2,2,0,1,0-2,2A2,2,0,0,0,8031.014,21804Zm13,0a2,2,0,1,0-2,2A2,2,0,0,0,8044.016,21804Zm12.985,0a2,2,0,1,0-2,2A2,2,0,0,0,8057,21804Zm13,0a2,2,0,1,0-2,2A2,2,0,0,0,8070,21804Zm13,0a2,2,0,1,0-2,2A2,2,0,0,0,8083,21804Zm13,0a2,2,0,1,0-2,2A2,2,0,0,0,8096,21804Zm13,0a2,2,0,1,0-2,2A2,2,0,0,0,8109,21804Zm13,0a2,2,0,1,0-2,2A2,2,0,0,0,8122,21804Zm13,0a2,2,0,1,0-2,2A2,2,0,0,0,8135,21804Zm13,0a2,2,0,1,0-2,2A2,2,0,0,0,8148,21804Zm13,0a2,2,0,1,0-2,2A2,2,0,0,0,8161.005,21804Zm13,0a2,2,0,1,0-2,2A2,2,0,0,0,8174,21804Zm13,0a2,2,0,1,0-2,2A2,2,0,0,0,8187,21804Zm13,0a2,2,0,1,0-2,2A2,2,0,0,0,8200.006,21804Zm13,0a2,2,0,1,0-2,2A2,2,0,0,0,8213.008,21804Zm13,0a2,2,0,1,0-2,2A2,2,0,0,0,8226,21804Zm13,0a2,2,0,1,0-2,2A2,2,0,0,0,8239.006,21804Zm13,0a2,2,0,1,0-2,2A2,2,0,0,0,8252.008,21804Zm13,0a2,2,0,1,0-2,2A2,2,0,0,0,8265,21804Zm13,0a2,2,0,1,0-2,2A2,2,0,0,0,8278,21804Zm13,0a2,2,0,1,0-2,2A2,2,0,0,0,8291,21804Zm13,0a2,2,0,1,0-2,2A2,2,0,0,0,8304,21804Zm13,0a2,2,0,1,0-2,2A2,2,0,0,0,8317.007,21804Zm13,0a2,2,0,1,0-2,2A2,2,0,0,0,8330,21804Zm13,0a2,2,0,1,0-2,2A2,2,0,0,0,8343.006,21804Zm13,0a2,2,0,1,0-2,2A2,2,0,0,0,8356.008,21804Zm13,0a2,2,0,1,0-2,2A2,2,0,0,0,8369.01,21804Zm13,0a2,2,0,1,0-2,2A2,2,0,0,0,8382.006,21804Zm13,0a2,2,0,1,0-2,2A2,2,0,0,0,8395.008,21804Zm13,0a2,2,0,1,0-2,2A2,2,0,0,0,8408.01,21804Zm13,0a2,2,0,1,0-2,2A2,2,0,0,0,8421.012,21804Zm13,0a2,2,0,1,0-2,2A2,2,0,0,0,8434.008,21804Zm13,0a2,2,0,1,0-2,2A2,2,0,0,0,8447.01,21804Zm13,0a2,2,0,1,0-2,2A2,2,0,0,0,8460.012,21804Zm13,0a2,2,0,1,0-2,2A2,2,0,0,0,8473.014,21804Zm13,0a2,2,0,1,0-2,2A2,2,0,0,0,8486.01,21804Zm13,0a2,2,0,1,0-2,2A2,2,0,0,0,8499.012,21804Zm13,0a2,2,0,1,0-2,2A2,2,0,0,0,8512.014,21804Zm13,0a2,2,0,1,0-2,2A2,2,0,0,0,8525.016,21804Zm13,0a2,2,0,1,0-2,2A2,2,0,0,0,8538.012,21804Zm13,0a2,2,0,1,0-2,2A2,2,0,0,0,8551.014,21804Zm13,0a2,2,0,1,0-2,2A2,2,0,0,0,8564.016,21804Zm13,0a2,2,0,1,0-2,2A2,2,0,0,0,8577.018,21804Zm13,0a2,2,0,1,0-2,2A2,2,0,0,0,8590.015,21804ZM7225,21791a2,2,0,1,0-2,2A2,2,0,0,0,7225,21791Zm13,0a2,2,0,1,0-2,2A2,2,0,0,0,7238,21791Zm13,0a2,2,0,1,0-2,2A2,2,0,0,0,7251,21791Zm13,0a2,2,0,1,0-2,2A2,2,0,0,0,7264,21791Zm13,0a2,2,0,1,0-2,2A2,2,0,0,0,7277.006,21791Zm13,0a2,2,0,1,0-2,2A2,2,0,0,0,7290,21791Zm13,0a2,2,0,1,0-2,2A2,2,0,0,0,7303,21791Zm13,0a2,2,0,1,0-2,2A2,2,0,0,0,7316.006,21791Zm13,0a2,2,0,1,0-2,2A2,2,0,0,0,7329.008,21791Zm13,0a2,2,0,1,0-2,2A2,2,0,0,0,7342,21791Zm13,0a2,2,0,1,0-2,2A2,2,0,0,0,7355.007,21791Zm13,0a2,2,0,1,0-2,2A2,2,0,0,0,7368.009,21791Zm13,0a2,2,0,1,0-2,2A2,2,0,0,0,7381.01,21791Zm13,0a2,2,0,1,0-2,2A2,2,0,0,0,7394.007,21791Zm13,0a2,2,0,1,0-2,2A2,2,0,0,0,7407.009,21791Zm13,0a2,2,0,1,0-2,2A2,2,0,0,0,7420.011,21791Zm13,0a2,2,0,1,0-2,2A2,2,0,0,0,7433.007,21791Zm13,0a2,2,0,1,0-2,2A2,2,0,0,0,7446,21791Zm13,0a2,2,0,1,0-2,2A2,2,0,0,0,7459.006,21791Zm13,0a2,2,0,1,0-2,2A2,2,0,0,0,7472.008,21791Zm13,0a2,2,0,1,0-2,2A2,2,0,0,0,7485.009,21791Zm13,0a2,2,0,1,0-2,2A2,2,0,0,0,7498.006,21791Zm13,0a2,2,0,1,0-2,2A2,2,0,0,0,7511.008,21791Zm13,0a2,2,0,1,0-2,2A2,2,0,0,0,7524.01,21791Zm13,0a2,2,0,1,0-2,2A2,2,0,0,0,7537.012,21791Zm13,0a2,2,0,1,0-2,2A2,2,0,0,0,7550.008,21791Zm13,0a2,2,0,1,0-2,2A2,2,0,0,0,7563.01,21791Zm13,0a2,2,0,1,0-2,2A2,2,0,0,0,7576.012,21791Zm13,0a2,2,0,1,0-2,2A2,2,0,0,0,7589.014,21791Zm13,0a2,2,0,1,0-2,2A2,2,0,0,0,7602.01,21791Zm13,0a2,2,0,1,0-2,2A2,2,0,0,0,7615.012,21791Zm13,0a2,2,0,1,0-2,2A2,2,0,0,0,7628.014,21791Zm12.991,0a2,2,0,1,0-2,2A2,2,0,0,0,7641,21791Zm13,0a2,2,0,1,0-2,2A2,2,0,0,0,7654,21791Zm13,0a2,2,0,1,0-2,2A2,2,0,0,0,7667,21791Zm13,0a2,2,0,1,0-2,2A2,2,0,0,0,7680,21791Zm13,0a2,2,0,1,0-2,2A2,2,0,0,0,7693.007,21791Zm13,0a2,2,0,1,0-2,2A2,2,0,0,0,7706,21791Zm13,0a2,2,0,1,0-2,2A2,2,0,0,0,7719.006,21791Zm13,0a2,2,0,1,0-2,2A2,2,0,0,0,7732.008,21791Zm13,0a2,2,0,1,0-2,2A2,2,0,0,0,7745.01,21791Zm13,0a2,2,0,1,0-2,2A2,2,0,0,0,7758.006,21791Zm13,0a2,2,0,1,0-2,2A2,2,0,0,0,7771.008,21791Zm13,0a2,2,0,1,0-2,2A2,2,0,0,0,7784.01,21791Zm13,0a2,2,0,1,0-2,2A2,2,0,0,0,7797.012,21791Zm13,0a2,2,0,1,0-2,2A2,2,0,0,0,7810.008,21791Zm13,0a2,2,0,1,0-2,2A2,2,0,0,0,7823.01,21791Zm13,0a2,2,0,1,0-2,2A2,2,0,0,0,7836.012,21791Zm13,0a2,2,0,1,0-2,2A2,2,0,0,0,7849.009,21791Zm13,0a2,2,0,1,0-2,2A2,2,0,0,0,7862,21791Zm13,0a2,2,0,1,0-2,2A2,2,0,0,0,7875.007,21791Zm13,0a2,2,0,1,0-2,2A2,2,0,0,0,7888.009,21791Zm13,0a2,2,0,1,0-2,2A2,2,0,0,0,7901.011,21791Zm13,0a2,2,0,1,0-2,2A2,2,0,0,0,7914.007,21791Zm13,0a2,2,0,1,0-2,2A2,2,0,0,0,7927.009,21791Zm13,0a2,2,0,1,0-2,2A2,2,0,0,0,7940.011,21791Zm13,0a2,2,0,1,0-2,2A2,2,0,0,0,7953.013,21791Zm13,0a2,2,0,1,0-2,2A2,2,0,0,0,7966.009,21791Zm13,0a2,2,0,1,0-2,2A2,2,0,0,0,7979.011,21791Zm13,0a2,2,0,1,0-2,2A2,2,0,0,0,7992.013,21791Zm13,0a2,2,0,1,0-2,2A2,2,0,0,0,8005.015,21791Zm13,0a2,2,0,1,0-2,2A2,2,0,0,0,8018.012,21791Zm13,0a2,2,0,1,0-2,2A2,2,0,0,0,8031.014,21791Zm13,0a2,2,0,1,0-2,2A2,2,0,0,0,8044.016,21791Zm12.985,0a2,2,0,1,0-2,2A2,2,0,0,0,8057,21791Zm13,0a2,2,0,1,0-2,2A2,2,0,0,0,8070,21791Zm13,0a2,2,0,1,0-2,2A2,2,0,0,0,8083,21791Zm13,0a2,2,0,1,0-2,2A2,2,0,0,0,8096,21791Zm13,0a2,2,0,1,0-2,2A2,2,0,0,0,8109,21791Zm13,0a2,2,0,1,0-2,2A2,2,0,0,0,8122,21791Zm13,0a2,2,0,1,0-2,2A2,2,0,0,0,8135,21791Zm13,0a2,2,0,1,0-2,2A2,2,0,0,0,8148,21791Zm13,0a2,2,0,1,0-2,2A2,2,0,0,0,8161.005,21791Zm13,0a2,2,0,1,0-2,2A2,2,0,0,0,8174,21791Zm13,0a2,2,0,1,0-2,2A2,2,0,0,0,8187,21791Zm13,0a2,2,0,1,0-2,2A2,2,0,0,0,8200.006,21791Zm13,0a2,2,0,1,0-2,2A2,2,0,0,0,8213.008,21791Zm13,0a2,2,0,1,0-2,2A2,2,0,0,0,8226,21791Zm13,0a2,2,0,1,0-2,2A2,2,0,0,0,8239.006,21791Zm13,0a2,2,0,1,0-2,2A2,2,0,0,0,8252.008,21791Zm13,0a2,2,0,1,0-2,2A2,2,0,0,0,8265,21791Zm13,0a2,2,0,1,0-2,2A2,2,0,0,0,8278,21791Zm13,0a2,2,0,1,0-2,2A2,2,0,0,0,8291,21791Zm13,0a2,2,0,1,0-2,2A2,2,0,0,0,8304,21791Zm13,0a2,2,0,1,0-2,2A2,2,0,0,0,8317.007,21791Zm13,0a2,2,0,1,0-2,2A2,2,0,0,0,8330,21791Zm13,0a2,2,0,1,0-2,2A2,2,0,0,0,8343.006,21791Zm13,0a2,2,0,1,0-2,2A2,2,0,0,0,8356.008,21791Zm13,0a2,2,0,1,0-2,2A2,2,0,0,0,8369.01,21791Zm13,0a2,2,0,1,0-2,2A2,2,0,0,0,8382.006,21791Zm13,0a2,2,0,1,0-2,2A2,2,0,0,0,8395.008,21791Zm13,0a2,2,0,1,0-2,2A2,2,0,0,0,8408.01,21791Zm13,0a2,2,0,1,0-2,2A2,2,0,0,0,8421.012,21791Zm13,0a2,2,0,1,0-2,2A2,2,0,0,0,8434.008,21791Zm13,0a2,2,0,1,0-2,2A2,2,0,0,0,8447.01,21791Zm13,0a2,2,0,1,0-2,2A2,2,0,0,0,8460.012,21791Zm13,0a2,2,0,1,0-2,2A2,2,0,0,0,8473.014,21791Zm13,0a2,2,0,1,0-2,2A2,2,0,0,0,8486.01,21791Zm13,0a2,2,0,1,0-2,2A2,2,0,0,0,8499.012,21791Zm13,0a2,2,0,1,0-2,2A2,2,0,0,0,8512.014,21791Zm13,0a2,2,0,1,0-2,2A2,2,0,0,0,8525.016,21791Zm13,0a2,2,0,1,0-2,2A2,2,0,0,0,8538.012,21791Zm13,0a2,2,0,1,0-2,2A2,2,0,0,0,8551.014,21791Zm13,0a2,2,0,1,0-2,2A2,2,0,0,0,8564.016,21791Zm13,0a2,2,0,1,0-2,2A2,2,0,0,0,8577.018,21791Zm13,0a2,2,0,1,0-2,2A2,2,0,0,0,8590.015,21791ZM7225,21778a2,2,0,1,0-2,2A2,2,0,0,0,7225,21778Zm13,0a2,2,0,1,0-2,2A2,2,0,0,0,7238,21778Zm13,0a2,2,0,1,0-2,2A2,2,0,0,0,7251,21778Zm13,0a2,2,0,1,0-2,2A2,2,0,0,0,7264,21778Zm13,0a2,2,0,1,0-2,2A2,2,0,0,0,7277.006,21778Zm13,0a2,2,0,1,0-2,2A2,2,0,0,0,7290,21778Zm13,0a2,2,0,1,0-2,2A2,2,0,0,0,7303,21778Zm13,0a2,2,0,1,0-2,2A2,2,0,0,0,7316.006,21778Zm13,0a2,2,0,1,0-2,2A2,2,0,0,0,7329.008,21778Zm13,0a2,2,0,1,0-2,2A2,2,0,0,0,7342,21778Zm13,0a2,2,0,1,0-2,2A2,2,0,0,0,7355.007,21778Zm13,0a2,2,0,1,0-2,2A2,2,0,0,0,7368.009,21778Zm13,0a2,2,0,1,0-2,2A2,2,0,0,0,7381.01,21778Zm13,0a2,2,0,1,0-2,2A2,2,0,0,0,7394.007,21778Zm13,0a2,2,0,1,0-2,2A2,2,0,0,0,7407.009,21778Zm13,0a2,2,0,1,0-2,2A2,2,0,0,0,7420.011,21778Zm13,0a2,2,0,1,0-2,2A2,2,0,0,0,7433.007,21778Zm13,0a2,2,0,0,0-4.006,0c0,1.107,2.006,2,2.006,2S7446,21779.105,7446,21778Zm13,0a2,2,0,1,0-2,2A2,2,0,0,0,7459.006,21778Zm13,0a2,2,0,1,0-2,2A2,2,0,0,0,7472.008,21778Zm13,0a2,2,0,1,0-2,2A2,2,0,0,0,7485.009,21778Zm13,0a2,2,0,1,0-2,2A2,2,0,0,0,7498.006,21778Zm13,0a2,2,0,1,0-2,2A2,2,0,0,0,7511.008,21778Zm13,0a2,2,0,1,0-2,2A2,2,0,0,0,7524.01,21778Zm13,0a2,2,0,1,0-2,2A2,2,0,0,0,7537.012,21778Zm13,0a2,2,0,1,0-2,2A2,2,0,0,0,7550.008,21778Zm13,0a2,2,0,1,0-2,2A2,2,0,0,0,7563.01,21778Zm13,0a2,2,0,1,0-2,2A2,2,0,0,0,7576.012,21778Zm13,0a2,2,0,1,0-2,2A2,2,0,0,0,7589.014,21778Zm13,0a2,2,0,1,0-2,2A2,2,0,0,0,7602.01,21778Zm13,0a2,2,0,1,0-2,2A2,2,0,0,0,7615.012,21778Zm13,0a2,2,0,1,0-2,2A2,2,0,0,0,7628.014,21778Zm12.991,0a2,2,0,1,0-2,2A2,2,0,0,0,7641,21778Zm13,0a2,2,0,1,0-2,2A2,2,0,0,0,7654,21778Zm13,0a2,2,0,1,0-2,2A2,2,0,0,0,7667,21778Zm13,0a2,2,0,1,0-2,2A2,2,0,0,0,7680,21778Zm13,0a2,2,0,1,0-2,2A2,2,0,0,0,7693.007,21778Zm13,0a2,2,0,1,0-2,2A2,2,0,0,0,7706,21778Zm13,0a2,2,0,1,0-2,2A2,2,0,0,0,7719.006,21778Zm13,0a2,2,0,1,0-2,2A2,2,0,0,0,7732.008,21778Zm13,0a2,2,0,1,0-2,2A2,2,0,0,0,7745.01,21778Zm13,0a2,2,0,1,0-2,2A2,2,0,0,0,7758.006,21778Zm13,0a2,2,0,1,0-2,2A2,2,0,0,0,7771.008,21778Zm13,0a2,2,0,1,0-2,2A2,2,0,0,0,7784.01,21778Zm13,0a2,2,0,1,0-2,2A2,2,0,0,0,7797.012,21778Zm13,0a2,2,0,1,0-2,2A2,2,0,0,0,7810.008,21778Zm13,0a2,2,0,1,0-2,2A2,2,0,0,0,7823.01,21778Zm13,0a2,2,0,1,0-2,2A2,2,0,0,0,7836.012,21778Zm13,0a2,2,0,1,0-2,2A2,2,0,0,0,7849.009,21778Zm13,0a2,2,0,1,0-2,2A2,2,0,0,0,7862,21778Zm13,0a2,2,0,1,0-2,2A2,2,0,0,0,7875.007,21778Zm13,0a2,2,0,1,0-2,2A2,2,0,0,0,7888.009,21778Zm13,0a2,2,0,1,0-2,2A2,2,0,0,0,7901.011,21778Zm13,0a2,2,0,1,0-2,2A2,2,0,0,0,7914.007,21778Zm13,0a2,2,0,1,0-2,2A2,2,0,0,0,7927.009,21778Zm13,0a2,2,0,1,0-2,2A2,2,0,0,0,7940.011,21778Zm13,0a2,2,0,1,0-2,2A2,2,0,0,0,7953.013,21778Zm13,0a2,2,0,1,0-2,2A2,2,0,0,0,7966.009,21778Zm13,0a2,2,0,1,0-2,2A2,2,0,0,0,7979.011,21778Zm13,0a2,2,0,1,0-2,2A2,2,0,0,0,7992.013,21778Zm13,0a2,2,0,1,0-2,2A2,2,0,0,0,8005.015,21778Zm13,0a2,2,0,1,0-2,2A2,2,0,0,0,8018.012,21778Zm13,0a2,2,0,1,0-2,2A2,2,0,0,0,8031.014,21778Zm13,0a2,2,0,1,0-2,2A2,2,0,0,0,8044.016,21778Zm12.985,0a2,2,0,1,0-2,2A2,2,0,0,0,8057,21778Zm13,0a2,2,0,1,0-2,2A2,2,0,0,0,8070,21778Zm13,0a2,2,0,1,0-2,2A2,2,0,0,0,8083,21778Zm13,0a2,2,0,1,0-2,2A2,2,0,0,0,8096,21778Zm13,0a2,2,0,1,0-2,2A2,2,0,0,0,8109,21778Zm13,0a2,2,0,1,0-2,2A2,2,0,0,0,8122,21778Zm13,0a2,2,0,1,0-2,2A2,2,0,0,0,8135,21778Zm13,0a2,2,0,1,0-2,2A2,2,0,0,0,8148,21778Zm13,0a2,2,0,1,0-2,2A2,2,0,0,0,8161.005,21778Zm13,0a2,2,0,1,0-2,2A2,2,0,0,0,8174,21778Zm13,0a2,2,0,1,0-2,2A2,2,0,0,0,8187,21778Zm13,0a2,2,0,1,0-2,2A2,2,0,0,0,8200.006,21778Zm13,0a2,2,0,1,0-2,2A2,2,0,0,0,8213.008,21778Zm13,0a2,2,0,1,0-2,2A2,2,0,0,0,8226,21778Zm13,0a2,2,0,1,0-2,2A2,2,0,0,0,8239.006,21778Zm13,0a2,2,0,1,0-2,2A2,2,0,0,0,8252.008,21778Zm13,0a2,2,0,1,0-2,2A2,2,0,0,0,8265,21778Zm13,0a2,2,0,1,0-2,2A2,2,0,0,0,8278,21778Zm13,0a2,2,0,1,0-2,2A2,2,0,0,0,8291,21778Zm13,0a2,2,0,1,0-2,2A2,2,0,0,0,8304,21778Zm13,0a2,2,0,1,0-2,2A2,2,0,0,0,8317.007,21778Zm13,0a2,2,0,1,0-2,2A2,2,0,0,0,8330,21778Zm13,0a2,2,0,1,0-2,2A2,2,0,0,0,8343.006,21778Zm13,0a2,2,0,1,0-2,2A2,2,0,0,0,8356.008,21778Zm13,0a2,2,0,1,0-2,2A2,2,0,0,0,8369.01,21778Zm13,0a2,2,0,1,0-2,2A2,2,0,0,0,8382.006,21778Zm13,0a2,2,0,1,0-2,2A2,2,0,0,0,8395.008,21778Zm13,0a2,2,0,1,0-2,2A2,2,0,0,0,8408.01,21778Zm13,0a2,2,0,1,0-2,2A2,2,0,0,0,8421.012,21778Zm13,0a2,2,0,1,0-2,2A2,2,0,0,0,8434.008,21778Zm13,0a2,2,0,1,0-2,2A2,2,0,0,0,8447.01,21778Zm13,0a2,2,0,1,0-2,2A2,2,0,0,0,8460.012,21778Zm13,0a2,2,0,1,0-2,2A2,2,0,0,0,8473.014,21778Zm13,0a2,2,0,1,0-2,2A2,2,0,0,0,8486.01,21778Zm13,0a2,2,0,1,0-2,2A2,2,0,0,0,8499.012,21778Zm13,0a2,2,0,1,0-2,2A2,2,0,0,0,8512.014,21778Zm13,0a2,2,0,1,0-2,2A2,2,0,0,0,8525.016,21778Zm13,0a2,2,0,1,0-2,2A2,2,0,0,0,8538.012,21778Zm13,0a2,2,0,1,0-2,2A2,2,0,0,0,8551.014,21778Zm13,0a2,2,0,1,0-2,2A2,2,0,0,0,8564.016,21778Zm13,0a2,2,0,1,0-2,2A2,2,0,0,0,8577.018,21778Zm13,0a2,2,0,1,0-2,2A2,2,0,0,0,8590.015,21778ZM7225,21765a2,2,0,1,0-2,2A2,2,0,0,0,7225,21765Zm13,0a2,2,0,1,0-2,2A2,2,0,0,0,7238,21765Zm13,0a2,2,0,1,0-2,2A2,2,0,0,0,7251,21765Zm13,0a2,2,0,1,0-2,2A2,2,0,0,0,7264,21765Zm13,0a2,2,0,1,0-2,2A2,2,0,0,0,7277.006,21765Zm13,0a2,2,0,1,0-2,2A2,2,0,0,0,7290,21765Zm13,0a2,2,0,1,0-2,2A2,2,0,0,0,7303,21765Zm13,0a2,2,0,1,0-2,2A2,2,0,0,0,7316.006,21765Zm13,0a2,2,0,1,0-2,2A2,2,0,0,0,7329.008,21765Zm13,0a2,2,0,1,0-2,2A2,2,0,0,0,7342,21765Zm13,0a2,2,0,1,0-2,2A2,2,0,0,0,7355.007,21765Zm13,0a2,2,0,1,0-2,2A2,2,0,0,0,7368.009,21765Zm13,0a2,2,0,1,0-2,2A2,2,0,0,0,7381.01,21765Zm13,0a2,2,0,1,0-2,2A2,2,0,0,0,7394.007,21765Zm13,0a2,2,0,1,0-2,2A2,2,0,0,0,7407.009,21765Zm13,0a2,2,0,1,0-2,2A2,2,0,0,0,7420.011,21765Zm13,0a2,2,0,1,0-2,2A2,2,0,0,0,7433.007,21765Zm13,0a2,2,0,1,0-2,2A2,2,0,0,0,7446,21765Zm13,0a2,2,0,1,0-2,2A2,2,0,0,0,7459.006,21765Zm13,0a2,2,0,1,0-2,2A2,2,0,0,0,7472.008,21765Zm13,0a2,2,0,1,0-2,2A2,2,0,0,0,7485.009,21765Zm13,0a2,2,0,1,0-2,2A2,2,0,0,0,7498.006,21765Zm13,0a2,2,0,1,0-2,2A2,2,0,0,0,7511.008,21765Zm13,0a2,2,0,1,0-2,2A2,2,0,0,0,7524.01,21765Zm13,0a2,2,0,1,0-2,2A2,2,0,0,0,7537.012,21765Zm13,0a2,2,0,1,0-2,2A2,2,0,0,0,7550.008,21765Zm13,0a2,2,0,1,0-2,2A2,2,0,0,0,7563.01,21765Zm13,0a2,2,0,1,0-2,2A2,2,0,0,0,7576.012,21765Zm13,0a2,2,0,1,0-2,2A2,2,0,0,0,7589.014,21765Zm13,0a2,2,0,1,0-2,2A2,2,0,0,0,7602.01,21765Zm13,0a2,2,0,1,0-2,2A2,2,0,0,0,7615.012,21765Zm13,0a2,2,0,1,0-2,2A2,2,0,0,0,7628.014,21765Zm12.991,0a2,2,0,1,0-2,2A2,2,0,0,0,7641,21765Zm13,0a2,2,0,1,0-2,2A2,2,0,0,0,7654,21765Zm13,0a2,2,0,1,0-2,2A2,2,0,0,0,7667,21765Zm13,0a2,2,0,1,0-2,2A2,2,0,0,0,7680,21765Zm13,0a2,2,0,1,0-2,2A2,2,0,0,0,7693.007,21765Zm13,0a2,2,0,1,0-2,2A2,2,0,0,0,7706,21765Zm13,0a2,2,0,1,0-2,2A2,2,0,0,0,7719.006,21765Zm13,0a2,2,0,1,0-2,2A2,2,0,0,0,7732.008,21765Zm13,0a2,2,0,1,0-2,2A2,2,0,0,0,7745.01,21765Zm13,0a2,2,0,1,0-2,2A2,2,0,0,0,7758.006,21765Zm13,0a2,2,0,1,0-2,2A2,2,0,0,0,7771.008,21765Zm13,0a2,2,0,1,0-2,2A2,2,0,0,0,7784.01,21765Zm13,0a2,2,0,1,0-2,2A2,2,0,0,0,7797.012,21765Zm13,0a2,2,0,1,0-2,2A2,2,0,0,0,7810.008,21765Zm13,0a2,2,0,1,0-2,2A2,2,0,0,0,7823.01,21765Zm13,0a2,2,0,1,0-2,2A2,2,0,0,0,7836.012,21765Zm13,0a2,2,0,1,0-2,2A2,2,0,0,0,7849.009,21765Zm13,0a2,2,0,1,0-2,2A2,2,0,0,0,7862,21765Zm13,0a2,2,0,1,0-2,2A2,2,0,0,0,7875.007,21765Zm13,0a2,2,0,1,0-2,2A2,2,0,0,0,7888.009,21765Zm13,0a2,2,0,1,0-2,2A2,2,0,0,0,7901.011,21765Zm13,0a2,2,0,1,0-2,2A2,2,0,0,0,7914.007,21765Zm13,0a2,2,0,1,0-2,2A2,2,0,0,0,7927.009,21765Zm13,0a2,2,0,1,0-2,2A2,2,0,0,0,7940.011,21765Zm13,0a2,2,0,1,0-2,2A2,2,0,0,0,7953.013,21765Zm13,0a2,2,0,1,0-2,2A2,2,0,0,0,7966.009,21765Zm13,0a2,2,0,1,0-2,2A2,2,0,0,0,7979.011,21765Zm13,0a2,2,0,1,0-2,2A2,2,0,0,0,7992.013,21765Zm13,0a2,2,0,1,0-2,2A2,2,0,0,0,8005.015,21765Zm13,0a2,2,0,1,0-2,2A2,2,0,0,0,8018.012,21765Zm13,0a2,2,0,1,0-2,2A2,2,0,0,0,8031.014,21765Zm13,0a2,2,0,1,0-2,2A2,2,0,0,0,8044.016,21765Zm12.985,0a2,2,0,1,0-2,2A2,2,0,0,0,8057,21765Zm13,0a2,2,0,1,0-2,2A2,2,0,0,0,8070,21765Zm13,0a2,2,0,1,0-2,2A2,2,0,0,0,8083,21765Zm13,0a2,2,0,1,0-2,2A2,2,0,0,0,8096,21765Zm13,0a2,2,0,1,0-2,2A2,2,0,0,0,8109,21765Zm13,0a2,2,0,1,0-2,2A2,2,0,0,0,8122,21765Zm13,0a2,2,0,1,0-2,2A2,2,0,0,0,8135,21765Zm13,0a2,2,0,1,0-2,2A2,2,0,0,0,8148,21765Zm13,0a2,2,0,1,0-2,2A2,2,0,0,0,8161.005,21765Zm13,0a2,2,0,1,0-2,2A2,2,0,0,0,8174,21765Zm13,0a2,2,0,1,0-2,2A2,2,0,0,0,8187,21765Zm13,0a2,2,0,1,0-2,2A2,2,0,0,0,8200.006,21765Zm13,0a2,2,0,1,0-2,2A2,2,0,0,0,8213.008,21765Zm13,0a2,2,0,1,0-2,2A2,2,0,0,0,8226,21765Zm13,0a2,2,0,1,0-2,2A2,2,0,0,0,8239.006,21765Zm13,0a2,2,0,1,0-2,2A2,2,0,0,0,8252.008,21765Zm13,0a2,2,0,1,0-2,2A2,2,0,0,0,8265,21765Zm13,0a2,2,0,1,0-2,2A2,2,0,0,0,8278,21765Zm13,0a2,2,0,1,0-2,2A2,2,0,0,0,8291,21765Zm13,0a2,2,0,1,0-2,2A2,2,0,0,0,8304,21765Zm13,0a2,2,0,1,0-2,2A2,2,0,0,0,8317.007,21765Zm13,0a2,2,0,1,0-2,2A2,2,0,0,0,8330,21765Zm13,0a2,2,0,1,0-2,2A2,2,0,0,0,8343.006,21765Zm13,0a2,2,0,1,0-2,2A2,2,0,0,0,8356.008,21765Zm13,0a2,2,0,1,0-2,2A2,2,0,0,0,8369.01,21765Zm13,0a2,2,0,1,0-2,2A2,2,0,0,0,8382.006,21765Zm13,0a2,2,0,1,0-2,2A2,2,0,0,0,8395.008,21765Zm13,0a2,2,0,1,0-2,2A2,2,0,0,0,8408.01,21765Zm13,0a2,2,0,1,0-2,2A2,2,0,0,0,8421.012,21765Zm13,0a2,2,0,1,0-2,2A2,2,0,0,0,8434.008,21765Zm13,0a2,2,0,1,0-2,2A2,2,0,0,0,8447.01,21765Zm13,0a2,2,0,1,0-2,2A2,2,0,0,0,8460.012,21765Zm13,0a2,2,0,1,0-2,2A2,2,0,0,0,8473.014,21765Zm13,0a2,2,0,1,0-2,2A2,2,0,0,0,8486.01,21765Zm13,0a2,2,0,1,0-2,2A2,2,0,0,0,8499.012,21765Zm13,0a2,2,0,1,0-2,2A2,2,0,0,0,8512.014,21765Zm13,0a2,2,0,1,0-2,2A2,2,0,0,0,8525.016,21765Zm13,0a2,2,0,1,0-2,2A2,2,0,0,0,8538.012,21765Zm13,0a2,2,0,1,0-2,2A2,2,0,0,0,8551.014,21765Zm13,0a2,2,0,1,0-2,2A2,2,0,0,0,8564.016,21765Zm13,0a2,2,0,1,0-2,2A2,2,0,0,0,8577.018,21765Zm13,0a2,2,0,1,0-2,2A2,2,0,0,0,8590.015,21765ZM7225,21752a2,2,0,1,0-2,2A2,2,0,0,0,7225,21752Zm13,0a2,2,0,1,0-2,2A2,2,0,0,0,7238,21752Zm13,0a2,2,0,1,0-2,2A2,2,0,0,0,7251,21752Zm13,0a2,2,0,1,0-2,2A2,2,0,0,0,7264,21752Zm13,0a2,2,0,1,0-2,2A2,2,0,0,0,7277.006,21752Zm13,0a2,2,0,1,0-2,2A2,2,0,0,0,7290,21752Zm13,0a2,2,0,1,0-2,2A2,2,0,0,0,7303,21752Zm13,0a2,2,0,1,0-2,2A2,2,0,0,0,7316.006,21752Zm13,0a2,2,0,1,0-2,2A2,2,0,0,0,7329.008,21752Zm13,0a2,2,0,1,0-2,2A2,2,0,0,0,7342,21752Zm13,0a2,2,0,1,0-2,2A2,2,0,0,0,7355.007,21752Zm13,0a2,2,0,1,0-2,2A2,2,0,0,0,7368.009,21752Zm13,0a2,2,0,1,0-2,2A2,2,0,0,0,7381.01,21752Zm13,0a2,2,0,1,0-2,2A2,2,0,0,0,7394.007,21752Zm13,0a2,2,0,1,0-2,2A2,2,0,0,0,7407.009,21752Zm13,0a2,2,0,1,0-2,2A2,2,0,0,0,7420.011,21752Zm13,0a2,2,0,1,0-2,2A2,2,0,0,0,7433.007,21752Zm13,0a2,2,0,1,0-2,2A2,2,0,0,0,7446,21752Zm13,0a2,2,0,1,0-2,2A2,2,0,0,0,7459.006,21752Zm13,0a2,2,0,1,0-2,2A2,2,0,0,0,7472.008,21752Zm13,0a2,2,0,1,0-2,2A2,2,0,0,0,7485.009,21752Zm13,0a2,2,0,1,0-2,2A2,2,0,0,0,7498.006,21752Zm13,0a2,2,0,1,0-2,2A2,2,0,0,0,7511.008,21752Zm13,0a2,2,0,1,0-2,2A2,2,0,0,0,7524.01,21752Zm13,0a2,2,0,1,0-2,2A2,2,0,0,0,7537.012,21752Zm13,0a2,2,0,1,0-2,2A2,2,0,0,0,7550.008,21752Zm13,0a2,2,0,1,0-2,2A2,2,0,0,0,7563.01,21752Zm13,0a2,2,0,1,0-2,2A2,2,0,0,0,7576.012,21752Zm13,0a2,2,0,1,0-2,2A2,2,0,0,0,7589.014,21752Zm13,0a2,2,0,1,0-2,2A2,2,0,0,0,7602.01,21752Zm13,0a2,2,0,1,0-2,2A2,2,0,0,0,7615.012,21752Zm13,0a2,2,0,1,0-2,2A2,2,0,0,0,7628.014,21752Zm12.991,0a2,2,0,1,0-2,2A2,2,0,0,0,7641,21752Zm13,0a2,2,0,1,0-2,2A2,2,0,0,0,7654,21752Zm13,0a2,2,0,1,0-2,2A2,2,0,0,0,7667,21752Zm13,0a2,2,0,1,0-2,2A2,2,0,0,0,7680,21752Zm13,0a2,2,0,1,0-2,2A2,2,0,0,0,7693.007,21752Zm13,0a2,2,0,1,0-2,2A2,2,0,0,0,7706,21752Zm13,0a2,2,0,1,0-2,2A2,2,0,0,0,7719.006,21752Zm13,0a2,2,0,1,0-2,2A2,2,0,0,0,7732.008,21752Zm13,0a2,2,0,1,0-2,2A2,2,0,0,0,7745.01,21752Zm13,0a2,2,0,1,0-2,2A2,2,0,0,0,7758.006,21752Zm13,0a2,2,0,1,0-2,2A2,2,0,0,0,7771.008,21752Zm13,0a2,2,0,1,0-2,2A2,2,0,0,0,7784.01,21752Zm13,0a2,2,0,1,0-2,2A2,2,0,0,0,7797.012,21752Zm13,0a2,2,0,1,0-2,2A2,2,0,0,0,7810.008,21752Zm13,0a2,2,0,1,0-2,2A2,2,0,0,0,7823.01,21752Zm13,0a2,2,0,1,0-2,2A2,2,0,0,0,7836.012,21752Zm13,0a2,2,0,1,0-2,2A2,2,0,0,0,7849.009,21752Zm13,0a2,2,0,1,0-2,2A2,2,0,0,0,7862,21752Zm13,0a2,2,0,1,0-2,2A2,2,0,0,0,7875.007,21752Zm13,0a2,2,0,1,0-2,2A2,2,0,0,0,7888.009,21752Zm13,0a2,2,0,1,0-2,2A2,2,0,0,0,7901.011,21752Zm13,0a2,2,0,1,0-2,2A2,2,0,0,0,7914.007,21752Zm13,0a2,2,0,1,0-2,2A2,2,0,0,0,7927.009,21752Zm13,0a2,2,0,1,0-2,2A2,2,0,0,0,7940.011,21752Zm13,0a2,2,0,1,0-2,2A2,2,0,0,0,7953.013,21752Zm13,0a2,2,0,1,0-2,2A2,2,0,0,0,7966.009,21752Zm13,0a2,2,0,1,0-2,2A2,2,0,0,0,7979.011,21752Zm13,0a2,2,0,1,0-2,2A2,2,0,0,0,7992.013,21752Zm13,0a2,2,0,1,0-2,2A2,2,0,0,0,8005.015,21752Zm13,0a2,2,0,1,0-2,2A2,2,0,0,0,8018.012,21752Zm13,0a2,2,0,1,0-2,2A2,2,0,0,0,8031.014,21752Zm13,0a2,2,0,1,0-2,2A2,2,0,0,0,8044.016,21752Zm12.985,0a2,2,0,1,0-2,2A2,2,0,0,0,8057,21752Zm13,0a2,2,0,1,0-2,2A2,2,0,0,0,8070,21752Zm13,0a2,2,0,1,0-2,2A2,2,0,0,0,8083,21752Zm13,0a2,2,0,1,0-2,2A2,2,0,0,0,8096,21752Zm13,0a2,2,0,1,0-2,2A2,2,0,0,0,8109,21752Zm13,0a2,2,0,1,0-2,2A2,2,0,0,0,8122,21752Zm13,0a2,2,0,1,0-2,2A2,2,0,0,0,8135,21752Zm13,0a2,2,0,1,0-2,2A2,2,0,0,0,8148,21752Zm13,0a2,2,0,1,0-2,2A2,2,0,0,0,8161.005,21752Zm13,0a2,2,0,1,0-2,2A2,2,0,0,0,8174,21752Zm13,0a2,2,0,1,0-2,2A2,2,0,0,0,8187,21752Zm13,0a2,2,0,1,0-2,2A2,2,0,0,0,8200.006,21752Zm13,0a2,2,0,1,0-2,2A2,2,0,0,0,8213.008,21752Zm13,0a2,2,0,1,0-2,2A2,2,0,0,0,8226,21752Zm13,0a2,2,0,1,0-2,2A2,2,0,0,0,8239.006,21752Zm13,0a2,2,0,1,0-2,2A2,2,0,0,0,8252.008,21752Zm13,0a2,2,0,1,0-2,2A2,2,0,0,0,8265,21752Zm13,0a2,2,0,1,0-2,2A2,2,0,0,0,8278,21752Zm13,0a2,2,0,1,0-2,2A2,2,0,0,0,8291,21752Zm13,0a2,2,0,1,0-2,2A2,2,0,0,0,8304,21752Zm13,0a2,2,0,1,0-2,2A2,2,0,0,0,8317.007,21752Zm13,0a2,2,0,1,0-2,2A2,2,0,0,0,8330,21752Zm13,0a2,2,0,1,0-2,2A2,2,0,0,0,8343.006,21752Zm13,0a2,2,0,1,0-2,2A2,2,0,0,0,8356.008,21752Zm13,0a2,2,0,1,0-2,2A2,2,0,0,0,8369.01,21752Zm13,0a2,2,0,1,0-2,2A2,2,0,0,0,8382.006,21752Zm13,0a2,2,0,1,0-2,2A2,2,0,0,0,8395.008,21752Zm13,0a2,2,0,1,0-2,2A2,2,0,0,0,8408.01,21752Zm13,0a2,2,0,1,0-2,2A2,2,0,0,0,8421.012,21752Zm13,0a2,2,0,1,0-2,2A2,2,0,0,0,8434.008,21752Zm13,0a2,2,0,1,0-2,2A2,2,0,0,0,8447.01,21752Zm13,0a2,2,0,1,0-2,2A2,2,0,0,0,8460.012,21752Zm13,0a2,2,0,1,0-2,2A2,2,0,0,0,8473.014,21752Zm13,0a2,2,0,1,0-2,2A2,2,0,0,0,8486.01,21752Zm13,0a2,2,0,1,0-2,2A2,2,0,0,0,8499.012,21752Zm13,0a2,2,0,1,0-2,2A2,2,0,0,0,8512.014,21752Zm13,0a2,2,0,1,0-2,2A2,2,0,0,0,8525.016,21752Zm13,0a2,2,0,1,0-2,2A2,2,0,0,0,8538.012,21752Zm13,0a2,2,0,1,0-2,2A2,2,0,0,0,8551.014,21752Zm13,0a2,2,0,1,0-2,2A2,2,0,0,0,8564.016,21752Zm13,0a2,2,0,1,0-2,2A2,2,0,0,0,8577.018,21752Zm13,0a2,2,0,1,0-2,2A2,2,0,0,0,8590.015,21752ZM7225,21739a2,2,0,1,0-2,2A2,2,0,0,0,7225,21739Zm13,0a2,2,0,1,0-2,2A2,2,0,0,0,7238,21739Zm13,0a2,2,0,1,0-2,2A2,2,0,0,0,7251,21739Zm13,0a2,2,0,1,0-2,2A2,2,0,0,0,7264,21739Zm13,0a2,2,0,1,0-2,2A2,2,0,0,0,7277.006,21739Zm13,0a2,2,0,1,0-2,2A2,2,0,0,0,7290,21739Zm13,0a2,2,0,1,0-2,2A2,2,0,0,0,7303,21739Zm13,0a2,2,0,1,0-2,2A2,2,0,0,0,7316.006,21739Zm13,0a2,2,0,1,0-2,2A2,2,0,0,0,7329.008,21739Zm13,0a2,2,0,1,0-2,2A2,2,0,0,0,7342,21739Zm13,0a2,2,0,1,0-2,2A2,2,0,0,0,7355.007,21739Zm13,0a2,2,0,1,0-2,2A2,2,0,0,0,7368.009,21739Zm13,0a2,2,0,1,0-2,2A2,2,0,0,0,7381.01,21739Zm13,0a2,2,0,1,0-2,2A2,2,0,0,0,7394.007,21739Zm13,0a2,2,0,1,0-2,2A2,2,0,0,0,7407.009,21739Zm13,0a2,2,0,1,0-2,2A2,2,0,0,0,7420.011,21739Zm13,0a2,2,0,1,0-2,2A2,2,0,0,0,7433.007,21739Zm13,0a2,2,0,1,0-2,2A2,2,0,0,0,7446,21739Zm13,0a2,2,0,1,0-2,2A2,2,0,0,0,7459.006,21739Zm13,0a2,2,0,1,0-2,2A2,2,0,0,0,7472.008,21739Zm13,0a2,2,0,1,0-2,2A2,2,0,0,0,7485.009,21739Zm13,0a2,2,0,1,0-2,2A2,2,0,0,0,7498.006,21739Zm13,0a2,2,0,1,0-2,2A2,2,0,0,0,7511.008,21739Zm13,0a2,2,0,1,0-2,2A2,2,0,0,0,7524.01,21739Zm13,0a2,2,0,1,0-2,2A2,2,0,0,0,7537.012,21739Zm13,0a2,2,0,1,0-2,2A2,2,0,0,0,7550.008,21739Zm13,0a2,2,0,1,0-2,2A2,2,0,0,0,7563.01,21739Zm13,0a2,2,0,1,0-2,2A2,2,0,0,0,7576.012,21739Zm13,0a2,2,0,1,0-2,2A2,2,0,0,0,7589.014,21739Zm13,0a2,2,0,1,0-2,2A2,2,0,0,0,7602.01,21739Zm13,0a2,2,0,1,0-2,2A2,2,0,0,0,7615.012,21739Zm13,0a2,2,0,1,0-2,2A2,2,0,0,0,7628.014,21739Zm12.991,0a2,2,0,1,0-2,2A2,2,0,0,0,7641,21739Zm13,0a2,2,0,1,0-2,2A2,2,0,0,0,7654,21739Zm13,0a2,2,0,1,0-2,2A2,2,0,0,0,7667,21739Zm13,0a2,2,0,1,0-2,2A2,2,0,0,0,7680,21739Zm13,0a2,2,0,1,0-2,2A2,2,0,0,0,7693.007,21739Zm13,0a2,2,0,1,0-2,2A2,2,0,0,0,7706,21739Zm13,0a2,2,0,1,0-2,2A2,2,0,0,0,7719.006,21739Zm13,0a2,2,0,1,0-2,2A2,2,0,0,0,7732.008,21739Zm13,0a2,2,0,1,0-2,2A2,2,0,0,0,7745.01,21739Zm13,0a2,2,0,1,0-2,2A2,2,0,0,0,7758.006,21739Zm13,0a2,2,0,1,0-2,2A2,2,0,0,0,7771.008,21739Zm13,0a2,2,0,1,0-2,2A2,2,0,0,0,7784.01,21739Zm13,0a2,2,0,1,0-2,2A2,2,0,0,0,7797.012,21739Zm13,0a2,2,0,1,0-2,2A2,2,0,0,0,7810.008,21739Zm13,0a2,2,0,1,0-2,2A2,2,0,0,0,7823.01,21739Zm13,0a2,2,0,1,0-2,2A2,2,0,0,0,7836.012,21739Zm13,0a2,2,0,1,0-2,2A2,2,0,0,0,7849.009,21739Zm13,0a2,2,0,1,0-2,2A2,2,0,0,0,7862,21739Zm13,0a2,2,0,1,0-2,2A2,2,0,0,0,7875.007,21739Zm13,0a2,2,0,1,0-2,2A2,2,0,0,0,7888.009,21739Zm13,0a2,2,0,1,0-2,2A2,2,0,0,0,7901.011,21739Zm13,0a2,2,0,1,0-2,2A2,2,0,0,0,7914.007,21739Zm13,0a2,2,0,1,0-2,2A2,2,0,0,0,7927.009,21739Zm13,0a2,2,0,1,0-2,2A2,2,0,0,0,7940.011,21739Zm13,0a2,2,0,1,0-2,2A2,2,0,0,0,7953.013,21739Zm13,0a2,2,0,1,0-2,2A2,2,0,0,0,7966.009,21739Zm13,0a2,2,0,1,0-2,2A2,2,0,0,0,7979.011,21739Zm13,0a2,2,0,1,0-2,2A2,2,0,0,0,7992.013,21739Zm13,0a2,2,0,1,0-2,2A2,2,0,0,0,8005.015,21739Zm13,0a2,2,0,1,0-2,2A2,2,0,0,0,8018.012,21739Zm13,0a2,2,0,1,0-2,2A2,2,0,0,0,8031.014,21739Zm13,0a2,2,0,1,0-2,2A2,2,0,0,0,8044.016,21739Zm12.985,0a2,2,0,1,0-2,2A2,2,0,0,0,8057,21739Zm13,0a2,2,0,1,0-2,2A2,2,0,0,0,8070,21739Zm13,0a2,2,0,1,0-2,2A2,2,0,0,0,8083,21739Zm13,0a2,2,0,1,0-2,2A2,2,0,0,0,8096,21739Zm13,0a2,2,0,1,0-2,2A2,2,0,0,0,8109,21739Zm13,0a2,2,0,1,0-2,2A2,2,0,0,0,8122,21739Zm13,0a2,2,0,1,0-2,2A2,2,0,0,0,8135,21739Zm13,0a2,2,0,1,0-2,2A2,2,0,0,0,8148,21739Zm13,0a2,2,0,1,0-2,2A2,2,0,0,0,8161.005,21739Zm13,0a2,2,0,1,0-2,2A2,2,0,0,0,8174,21739Zm13,0a2,2,0,1,0-2,2A2,2,0,0,0,8187,21739Zm13,0a2,2,0,1,0-2,2A2,2,0,0,0,8200.006,21739Zm13,0a2,2,0,1,0-2,2A2,2,0,0,0,8213.008,21739Zm13,0a2,2,0,1,0-2,2A2,2,0,0,0,8226,21739Zm13,0a2,2,0,1,0-2,2A2,2,0,0,0,8239.006,21739Zm13,0a2,2,0,1,0-2,2A2,2,0,0,0,8252.008,21739Zm13,0a2,2,0,1,0-2,2A2,2,0,0,0,8265,21739Zm13,0a2,2,0,1,0-2,2A2,2,0,0,0,8278,21739Zm13,0a2,2,0,1,0-2,2A2,2,0,0,0,8291,21739Zm13,0a2,2,0,1,0-2,2A2,2,0,0,0,8304,21739Zm13,0a2,2,0,1,0-2,2A2,2,0,0,0,8317.007,21739Zm13,0a2,2,0,1,0-2,2A2,2,0,0,0,8330,21739Zm13,0a2,2,0,1,0-2,2A2,2,0,0,0,8343.006,21739Zm13,0a2,2,0,1,0-2,2A2,2,0,0,0,8356.008,21739Zm13,0a2,2,0,1,0-2,2A2,2,0,0,0,8369.01,21739Zm13,0a2,2,0,1,0-2,2A2,2,0,0,0,8382.006,21739Zm13,0a2,2,0,1,0-2,2A2,2,0,0,0,8395.008,21739Zm13,0a2,2,0,1,0-2,2A2,2,0,0,0,8408.01,21739Zm13,0a2,2,0,1,0-2,2A2,2,0,0,0,8421.012,21739Zm13,0a2,2,0,1,0-2,2A2,2,0,0,0,8434.008,21739Zm13,0a2,2,0,1,0-2,2A2,2,0,0,0,8447.01,21739Zm13,0a2,2,0,1,0-2,2A2,2,0,0,0,8460.012,21739Zm13,0a2,2,0,1,0-2,2A2,2,0,0,0,8473.014,21739Zm13,0a2,2,0,1,0-2,2A2,2,0,0,0,8486.01,21739Zm13,0a2,2,0,1,0-2,2A2,2,0,0,0,8499.012,21739Zm13,0a2,2,0,1,0-2,2A2,2,0,0,0,8512.014,21739Zm13,0a2,2,0,1,0-2,2A2,2,0,0,0,8525.016,21739Zm13,0a2,2,0,1,0-2,2A2,2,0,0,0,8538.012,21739Zm13,0a2,2,0,1,0-2,2A2,2,0,0,0,8551.014,21739Zm13,0a2,2,0,1,0-2,2A2,2,0,0,0,8564.016,21739Zm13,0a2,2,0,1,0-2,2A2,2,0,0,0,8577.018,21739Zm13,0a2,2,0,1,0-2,2A2,2,0,0,0,8590.015,21739ZM7225,21726a2,2,0,1,0-2,2A2,2,0,0,0,7225,21726Zm13,0a2,2,0,1,0-2,2A2,2,0,0,0,7238,21726Zm13,0a2,2,0,1,0-2,2A2,2,0,0,0,7251,21726Zm13,0a2,2,0,1,0-2,2A2,2,0,0,0,7264,21726Zm13,0a2,2,0,1,0-2,2A2,2,0,0,0,7277.006,21726Zm13,0a2,2,0,1,0-2,2A2,2,0,0,0,7290,21726Zm13,0a2,2,0,1,0-2,2A2,2,0,0,0,7303,21726Zm13,0a2,2,0,1,0-2,2A2,2,0,0,0,7316.006,21726Zm13,0a2,2,0,1,0-2,2A2,2,0,0,0,7329.008,21726Zm13,0a2,2,0,1,0-2,2A2,2,0,0,0,7342,21726Zm13,0a2,2,0,1,0-2,2A2,2,0,0,0,7355.007,21726Zm13,0a2,2,0,1,0-2,2A2,2,0,0,0,7368.009,21726Zm13,0a2,2,0,1,0-2,2A2,2,0,0,0,7381.01,21726Zm13,0a2,2,0,1,0-2,2A2,2,0,0,0,7394.007,21726Zm13,0a2,2,0,1,0-2,2A2,2,0,0,0,7407.009,21726Zm13,0a2,2,0,1,0-2,2A2,2,0,0,0,7420.011,21726Zm13,0a2,2,0,1,0-2,2A2,2,0,0,0,7433.007,21726Zm13,0a2,2,0,1,0-2,2A2,2,0,0,0,7446,21726Zm13,0a2,2,0,1,0-2,2A2,2,0,0,0,7459.006,21726Zm13,0a2,2,0,1,0-2,2A2,2,0,0,0,7472.008,21726Zm13,0a2,2,0,1,0-2,2A2,2,0,0,0,7485.009,21726Zm13,0a2,2,0,1,0-2,2A2,2,0,0,0,7498.006,21726Zm13,0a2,2,0,1,0-2,2A2,2,0,0,0,7511.008,21726Zm13,0a2,2,0,1,0-2,2A2,2,0,0,0,7524.01,21726Zm13,0a2,2,0,1,0-2,2A2,2,0,0,0,7537.012,21726Zm13,0a2,2,0,1,0-2,2A2,2,0,0,0,7550.008,21726Zm13,0a2,2,0,1,0-2,2A2,2,0,0,0,7563.01,21726Zm13,0a2,2,0,1,0-2,2A2,2,0,0,0,7576.012,21726Zm13,0a2,2,0,1,0-2,2A2,2,0,0,0,7589.014,21726Zm13,0a2,2,0,1,0-2,2A2,2,0,0,0,7602.01,21726Zm13,0a2,2,0,1,0-2,2A2,2,0,0,0,7615.012,21726Zm13,0a2,2,0,1,0-2,2A2,2,0,0,0,7628.014,21726Zm12.991,0a2,2,0,1,0-2,2A2,2,0,0,0,7641,21726Zm13,0a2,2,0,1,0-2,2A2,2,0,0,0,7654,21726Zm13,0a2,2,0,1,0-2,2A2,2,0,0,0,7667,21726Zm13,0a2,2,0,1,0-2,2A2,2,0,0,0,7680,21726Zm13,0a2,2,0,1,0-2,2A2,2,0,0,0,7693.007,21726Zm13,0a2,2,0,1,0-2,2A2,2,0,0,0,7706,21726Zm13,0a2,2,0,1,0-2,2A2,2,0,0,0,7719.006,21726Zm13,0a2,2,0,1,0-2,2A2,2,0,0,0,7732.008,21726Zm13,0a2,2,0,1,0-2,2A2,2,0,0,0,7745.01,21726Zm13,0a2,2,0,1,0-2,2A2,2,0,0,0,7758.006,21726Zm13,0a2,2,0,1,0-2,2A2,2,0,0,0,7771.008,21726Zm13,0a2,2,0,1,0-2,2A2,2,0,0,0,7784.01,21726Zm13,0a2,2,0,1,0-2,2A2,2,0,0,0,7797.012,21726Zm13,0a2,2,0,1,0-2,2A2,2,0,0,0,7810.008,21726Zm13,0a2,2,0,1,0-2,2A2,2,0,0,0,7823.01,21726Zm13,0a2,2,0,1,0-2,2A2,2,0,0,0,7836.012,21726Zm13,0a2,2,0,1,0-2,2A2,2,0,0,0,7849.009,21726Zm13,0a2,2,0,1,0-2,2A2,2,0,0,0,7862,21726Zm13,0a2,2,0,1,0-2,2A2,2,0,0,0,7875.007,21726Zm13,0a2,2,0,1,0-2,2A2,2,0,0,0,7888.009,21726Zm13,0a2,2,0,1,0-2,2A2,2,0,0,0,7901.011,21726Zm13,0a2,2,0,1,0-2,2A2,2,0,0,0,7914.007,21726Zm13,0a2,2,0,1,0-2,2A2,2,0,0,0,7927.009,21726Zm13,0a2,2,0,1,0-2,2A2,2,0,0,0,7940.011,21726Zm13,0a2,2,0,1,0-2,2A2,2,0,0,0,7953.013,21726Zm13,0a2,2,0,1,0-2,2A2,2,0,0,0,7966.009,21726Zm13,0a2,2,0,1,0-2,2A2,2,0,0,0,7979.011,21726Zm13,0a2,2,0,1,0-2,2A2,2,0,0,0,7992.013,21726Zm13,0a2,2,0,1,0-2,2A2,2,0,0,0,8005.015,21726Zm13,0a2,2,0,1,0-2,2A2,2,0,0,0,8018.012,21726Zm13,0a2,2,0,1,0-2,2A2,2,0,0,0,8031.014,21726Zm13,0a2,2,0,1,0-2,2A2,2,0,0,0,8044.016,21726Zm12.985,0a2,2,0,1,0-2,2A2,2,0,0,0,8057,21726Zm13,0a2,2,0,1,0-2,2A2,2,0,0,0,8070,21726Zm13,0a2,2,0,1,0-2,2A2,2,0,0,0,8083,21726Zm13,0a2,2,0,1,0-2,2A2,2,0,0,0,8096,21726Zm13,0a2,2,0,1,0-2,2A2,2,0,0,0,8109,21726Zm13,0a2,2,0,1,0-2,2A2,2,0,0,0,8122,21726Zm13,0a2,2,0,1,0-2,2A2,2,0,0,0,8135,21726Zm13,0a2,2,0,1,0-2,2A2,2,0,0,0,8148,21726Zm13,0a2,2,0,1,0-2,2A2,2,0,0,0,8161.005,21726Zm13,0a2,2,0,1,0-2,2A2,2,0,0,0,8174,21726Zm13,0a2,2,0,1,0-2,2A2,2,0,0,0,8187,21726Zm13,0a2,2,0,1,0-2,2A2,2,0,0,0,8200.006,21726Zm13,0a2,2,0,1,0-2,2A2,2,0,0,0,8213.008,21726Zm13,0a2,2,0,1,0-2,2A2,2,0,0,0,8226,21726Zm13,0a2,2,0,1,0-2,2A2,2,0,0,0,8239.006,21726Zm13,0a2,2,0,1,0-2,2A2,2,0,0,0,8252.008,21726Zm13,0a2,2,0,1,0-2,2A2,2,0,0,0,8265,21726Zm13,0a2,2,0,1,0-2,2A2,2,0,0,0,8278,21726Zm13,0a2,2,0,1,0-2,2A2,2,0,0,0,8291,21726Zm13,0a2,2,0,1,0-2,2A2,2,0,0,0,8304,21726Zm13,0a2,2,0,1,0-2,2A2,2,0,0,0,8317.007,21726Zm13,0a2,2,0,1,0-2,2A2,2,0,0,0,8330,21726Zm13,0a2,2,0,1,0-2,2A2,2,0,0,0,8343.006,21726Zm13,0a2,2,0,1,0-2,2A2,2,0,0,0,8356.008,21726Zm13,0a2,2,0,1,0-2,2A2,2,0,0,0,8369.01,21726Zm13,0a2,2,0,1,0-2,2A2,2,0,0,0,8382.006,21726Zm13,0a2,2,0,1,0-2,2A2,2,0,0,0,8395.008,21726Zm13,0a2,2,0,1,0-2,2A2,2,0,0,0,8408.01,21726Zm13,0a2,2,0,1,0-2,2A2,2,0,0,0,8421.012,21726Zm13,0a2,2,0,1,0-2,2A2,2,0,0,0,8434.008,21726Zm13,0a2,2,0,1,0-2,2A2,2,0,0,0,8447.01,21726Zm13,0a2,2,0,1,0-2,2A2,2,0,0,0,8460.012,21726Zm13,0a2,2,0,1,0-2,2A2,2,0,0,0,8473.014,21726Zm13,0a2,2,0,1,0-2,2A2,2,0,0,0,8486.01,21726Zm13,0a2,2,0,1,0-2,2A2,2,0,0,0,8499.012,21726Zm13,0a2,2,0,1,0-2,2A2,2,0,0,0,8512.014,21726Zm13,0a2,2,0,1,0-2,2A2,2,0,0,0,8525.016,21726Zm13,0a2,2,0,1,0-2,2A2,2,0,0,0,8538.012,21726Zm13,0a2,2,0,1,0-2,2A2,2,0,0,0,8551.014,21726Zm13,0a2,2,0,1,0-2,2A2,2,0,0,0,8564.016,21726Zm13,0a2,2,0,1,0-2,2A2,2,0,0,0,8577.018,21726Zm13,0a2,2,0,1,0-2,2A2,2,0,0,0,8590.015,21726ZM7225,21713a2,2,0,1,0-2,2A2,2,0,0,0,7225,21713Zm13,0a2,2,0,1,0-2,2A2,2,0,0,0,7238,21713Zm13,0a2,2,0,1,0-2,2A2,2,0,0,0,7251,21713Zm13,0a2,2,0,1,0-2,2A2,2,0,0,0,7264,21713Zm13,0a2,2,0,1,0-2,2A2,2,0,0,0,7277.006,21713Zm13,0a2,2,0,1,0-2,2A2,2,0,0,0,7290,21713Zm13,0a2,2,0,1,0-2,2A2,2,0,0,0,7303,21713Zm13,0a2,2,0,1,0-2,2A2,2,0,0,0,7316.006,21713Zm13,0a2,2,0,1,0-2,2A2,2,0,0,0,7329.008,21713Zm13,0a2,2,0,1,0-2,2A2,2,0,0,0,7342,21713Zm13,0a2,2,0,1,0-2,2A2,2,0,0,0,7355.007,21713Zm13,0a2,2,0,1,0-2,2A2,2,0,0,0,7368.009,21713Zm13,0a2,2,0,1,0-2,2A2,2,0,0,0,7381.01,21713Zm13,0a2,2,0,1,0-2,2A2,2,0,0,0,7394.007,21713Zm13,0a2,2,0,1,0-2,2A2,2,0,0,0,7407.009,21713Zm13,0a2,2,0,1,0-2,2A2,2,0,0,0,7420.011,21713Zm13,0a2,2,0,1,0-2,2A2,2,0,0,0,7433.007,21713Zm13,0a2,2,0,1,0-2,2A2,2,0,0,0,7446,21713Zm13,0a2,2,0,1,0-2,2A2,2,0,0,0,7459.006,21713Zm13,0a2,2,0,1,0-2,2A2,2,0,0,0,7472.008,21713Zm13,0a2,2,0,1,0-2,2A2,2,0,0,0,7485.009,21713Zm13,0a2,2,0,1,0-2,2A2,2,0,0,0,7498.006,21713Zm13,0a2,2,0,1,0-2,2A2,2,0,0,0,7511.008,21713Zm13,0a2,2,0,1,0-2,2A2,2,0,0,0,7524.01,21713Zm13,0a2,2,0,1,0-2,2A2,2,0,0,0,7537.012,21713Zm13,0a2,2,0,1,0-2,2A2,2,0,0,0,7550.008,21713Zm13,0a2,2,0,1,0-2,2A2,2,0,0,0,7563.01,21713Zm13,0a2,2,0,1,0-2,2A2,2,0,0,0,7576.012,21713Zm13,0a2,2,0,1,0-2,2A2,2,0,0,0,7589.014,21713Zm13,0a2,2,0,1,0-2,2A2,2,0,0,0,7602.01,21713Zm13,0a2,2,0,1,0-2,2A2,2,0,0,0,7615.012,21713Zm13,0a2,2,0,1,0-2,2A2,2,0,0,0,7628.014,21713Zm12.991,0a2,2,0,1,0-2,2A2,2,0,0,0,7641,21713Zm13,0a2,2,0,1,0-2,2A2,2,0,0,0,7654,21713Zm13,0a2,2,0,1,0-2,2A2,2,0,0,0,7667,21713Zm13,0a2,2,0,1,0-2,2A2,2,0,0,0,7680,21713Zm13,0a2,2,0,1,0-2,2A2,2,0,0,0,7693.007,21713Zm13,0a2,2,0,1,0-2,2A2,2,0,0,0,7706,21713Zm13,0a2,2,0,1,0-2,2A2,2,0,0,0,7719.006,21713Zm13,0a2,2,0,1,0-2,2A2,2,0,0,0,7732.008,21713Zm13,0a2,2,0,1,0-2,2A2,2,0,0,0,7745.01,21713Zm13,0a2,2,0,1,0-2,2A2,2,0,0,0,7758.006,21713Zm13,0a2,2,0,1,0-2,2A2,2,0,0,0,7771.008,21713Zm13,0a2,2,0,1,0-2,2A2,2,0,0,0,7784.01,21713Zm13,0a2,2,0,1,0-2,2A2,2,0,0,0,7797.012,21713Zm13,0a2,2,0,1,0-2,2A2,2,0,0,0,7810.008,21713Zm13,0a2,2,0,1,0-2,2A2,2,0,0,0,7823.01,21713Zm13,0a2,2,0,1,0-2,2A2,2,0,0,0,7836.012,21713Zm13,0a2,2,0,1,0-2,2A2,2,0,0,0,7849.009,21713Zm13,0a2,2,0,1,0-2,2A2,2,0,0,0,7862,21713Zm13,0a2,2,0,1,0-2,2A2,2,0,0,0,7875.007,21713Zm13,0a2,2,0,1,0-2,2A2,2,0,0,0,7888.009,21713Zm13,0a2,2,0,1,0-2,2A2,2,0,0,0,7901.011,21713Zm13,0a2,2,0,1,0-2,2A2,2,0,0,0,7914.007,21713Zm13,0a2,2,0,1,0-2,2A2,2,0,0,0,7927.009,21713Zm13,0a2,2,0,1,0-2,2A2,2,0,0,0,7940.011,21713Zm13,0a2,2,0,1,0-2,2A2,2,0,0,0,7953.013,21713Zm13,0a2,2,0,1,0-2,2A2,2,0,0,0,7966.009,21713Zm13,0a2,2,0,1,0-2,2A2,2,0,0,0,7979.011,21713Zm13,0a2,2,0,1,0-2,2A2,2,0,0,0,7992.013,21713Zm13,0a2,2,0,1,0-2,2A2,2,0,0,0,8005.015,21713Zm13,0a2,2,0,1,0-2,2A2,2,0,0,0,8018.012,21713Zm13,0a2,2,0,1,0-2,2A2,2,0,0,0,8031.014,21713Zm13,0a2,2,0,1,0-2,2A2,2,0,0,0,8044.016,21713Zm12.985,0a2,2,0,1,0-2,2A2,2,0,0,0,8057,21713Zm13,0a2,2,0,1,0-2,2A2,2,0,0,0,8070,21713Zm13,0a2,2,0,1,0-2,2A2,2,0,0,0,8083,21713Zm13,0a2,2,0,1,0-2,2A2,2,0,0,0,8096,21713Zm13,0a2,2,0,1,0-2,2A2,2,0,0,0,8109,21713Zm13,0a2,2,0,1,0-2,2A2,2,0,0,0,8122,21713Zm13,0a2,2,0,1,0-2,2A2,2,0,0,0,8135,21713Zm13,0a2,2,0,1,0-2,2A2,2,0,0,0,8148,21713Zm13,0a2,2,0,1,0-2,2A2,2,0,0,0,8161.005,21713Zm13,0a2,2,0,1,0-2,2A2,2,0,0,0,8174,21713Zm13,0a2,2,0,1,0-2,2A2,2,0,0,0,8187,21713Zm13,0a2,2,0,1,0-2,2A2,2,0,0,0,8200.006,21713Zm13,0a2,2,0,1,0-2,2A2,2,0,0,0,8213.008,21713Zm13,0a2,2,0,1,0-2,2A2,2,0,0,0,8226,21713Zm13,0a2,2,0,1,0-2,2A2,2,0,0,0,8239.006,21713Zm13,0a2,2,0,1,0-2,2A2,2,0,0,0,8252.008,21713Zm13,0a2,2,0,1,0-2,2A2,2,0,0,0,8265,21713Zm13,0a2,2,0,1,0-2,2A2,2,0,0,0,8278,21713Zm13,0a2,2,0,1,0-2,2A2,2,0,0,0,8291,21713Zm13,0a2,2,0,1,0-2,2A2,2,0,0,0,8304,21713Zm13,0a2,2,0,1,0-2,2A2,2,0,0,0,8317.007,21713Zm13,0a2,2,0,1,0-2,2A2,2,0,0,0,8330,21713Zm13,0a2,2,0,1,0-2,2A2,2,0,0,0,8343.006,21713Zm13,0a2,2,0,1,0-2,2A2,2,0,0,0,8356.008,21713Zm13,0a2,2,0,1,0-2,2A2,2,0,0,0,8369.01,21713Zm13,0a2,2,0,1,0-2,2A2,2,0,0,0,8382.006,21713Zm13,0a2,2,0,1,0-2,2A2,2,0,0,0,8395.008,21713Zm13,0a2,2,0,1,0-2,2A2,2,0,0,0,8408.01,21713Zm13,0a2,2,0,1,0-2,2A2,2,0,0,0,8421.012,21713Zm13,0a2,2,0,1,0-2,2A2,2,0,0,0,8434.008,21713Zm13,0a2,2,0,1,0-2,2A2,2,0,0,0,8447.01,21713Zm13,0a2,2,0,1,0-2,2A2,2,0,0,0,8460.012,21713Zm13,0a2,2,0,1,0-2,2A2,2,0,0,0,8473.014,21713Zm13,0a2,2,0,1,0-2,2A2,2,0,0,0,8486.01,21713Zm13,0a2,2,0,1,0-2,2A2,2,0,0,0,8499.012,21713Zm13,0a2,2,0,1,0-2,2A2,2,0,0,0,8512.014,21713Zm13,0a2,2,0,1,0-2,2A2,2,0,0,0,8525.016,21713Zm13,0a2,2,0,1,0-2,2A2,2,0,0,0,8538.012,21713Zm13,0a2,2,0,1,0-2,2A2,2,0,0,0,8551.014,21713Zm13,0a2,2,0,1,0-2,2A2,2,0,0,0,8564.016,21713Zm13,0a2,2,0,1,0-2,2A2,2,0,0,0,8577.018,21713Zm13,0a2,2,0,1,0-2,2A2,2,0,0,0,8590.015,21713ZM7225,21700a2,2,0,1,0-2,2A2,2,0,0,0,7225,21700Zm13,0a2,2,0,1,0-2,2A2,2,0,0,0,7238,21700Zm13,0a2,2,0,1,0-2,2A2,2,0,0,0,7251,21700Zm13,0a2,2,0,1,0-2,2A2,2,0,0,0,7264,21700Zm13,0a2,2,0,1,0-2,2A2,2,0,0,0,7277.006,21700Zm13,0a2,2,0,1,0-2,2A2,2,0,0,0,7290,21700Zm13,0a2,2,0,1,0-2,2A2,2,0,0,0,7303,21700Zm13,0a2,2,0,1,0-2,2A2,2,0,0,0,7316.006,21700Zm13,0a2,2,0,1,0-2,2A2,2,0,0,0,7329.008,21700Zm13,0a2,2,0,1,0-2,2A2,2,0,0,0,7342,21700Zm13,0a2,2,0,1,0-2,2A2,2,0,0,0,7355.007,21700Zm13,0a2,2,0,1,0-2,2A2,2,0,0,0,7368.009,21700Zm13,0a2,2,0,1,0-2,2A2,2,0,0,0,7381.01,21700Zm13,0a2,2,0,1,0-2,2A2,2,0,0,0,7394.007,21700Zm13,0a2,2,0,1,0-2,2A2,2,0,0,0,7407.009,21700Zm13,0a2,2,0,1,0-2,2A2,2,0,0,0,7420.011,21700Zm13,0a2,2,0,1,0-2,2A2,2,0,0,0,7433.007,21700Zm13,0a2,2,0,1,0-2,2A2,2,0,0,0,7446,21700Zm13,0a2,2,0,1,0-2,2A2,2,0,0,0,7459.006,21700Zm13,0a2,2,0,1,0-2,2A2,2,0,0,0,7472.008,21700Zm13,0a2,2,0,1,0-2,2A2,2,0,0,0,7485.009,21700Zm13,0a2,2,0,1,0-2,2A2,2,0,0,0,7498.006,21700Zm13,0a2,2,0,1,0-2,2A2,2,0,0,0,7511.008,21700Zm13,0a2,2,0,1,0-2,2A2,2,0,0,0,7524.01,21700Zm13,0a2,2,0,1,0-2,2A2,2,0,0,0,7537.012,21700Zm13,0a2,2,0,1,0-2,2A2,2,0,0,0,7550.008,21700Zm13,0a2,2,0,1,0-2,2A2,2,0,0,0,7563.01,21700Zm13,0a2,2,0,1,0-2,2A2,2,0,0,0,7576.012,21700Zm13,0a2,2,0,1,0-2,2A2,2,0,0,0,7589.014,21700Zm13,0a2,2,0,1,0-2,2A2,2,0,0,0,7602.01,21700Zm13,0a2,2,0,1,0-2,2A2,2,0,0,0,7615.012,21700Zm13,0a2,2,0,1,0-2,2A2,2,0,0,0,7628.014,21700Zm12.991,0a2,2,0,1,0-2,2A2,2,0,0,0,7641,21700Zm13,0a2,2,0,1,0-2,2A2,2,0,0,0,7654,21700Zm13,0a2,2,0,1,0-2,2A2,2,0,0,0,7667,21700Zm13,0a2,2,0,1,0-2,2A2,2,0,0,0,7680,21700Zm13,0a2,2,0,1,0-2,2A2,2,0,0,0,7693.007,21700Zm13,0a2,2,0,1,0-2,2A2,2,0,0,0,7706,21700Zm13,0a2,2,0,1,0-2,2A2,2,0,0,0,7719.006,21700Zm13,0a2,2,0,1,0-2,2A2,2,0,0,0,7732.008,21700Zm13,0a2,2,0,1,0-2,2A2,2,0,0,0,7745.01,21700Zm13,0a2,2,0,1,0-2,2A2,2,0,0,0,7758.006,21700Zm13,0a2,2,0,1,0-2,2A2,2,0,0,0,7771.008,21700Zm13,0a2,2,0,1,0-2,2A2,2,0,0,0,7784.01,21700Zm13,0a2,2,0,1,0-2,2A2,2,0,0,0,7797.012,21700Zm13,0a2,2,0,1,0-2,2A2,2,0,0,0,7810.008,21700Zm13,0a2,2,0,1,0-2,2A2,2,0,0,0,7823.01,21700Zm13,0a2,2,0,1,0-2,2A2,2,0,0,0,7836.012,21700Zm13,0a2,2,0,1,0-2,2A2,2,0,0,0,7849.009,21700Zm13,0a2,2,0,1,0-2,2A2,2,0,0,0,7862,21700Zm13,0a2,2,0,1,0-2,2A2,2,0,0,0,7875.007,21700Zm13,0a2,2,0,1,0-2,2A2,2,0,0,0,7888.009,21700Zm13,0a2,2,0,1,0-2,2A2,2,0,0,0,7901.011,21700Zm13,0a2,2,0,1,0-2,2A2,2,0,0,0,7914.007,21700Zm13,0a2,2,0,1,0-2,2A2,2,0,0,0,7927.009,21700Zm13,0a2,2,0,1,0-2,2A2,2,0,0,0,7940.011,21700Zm13,0a2,2,0,1,0-2,2A2,2,0,0,0,7953.013,21700Zm13,0a2,2,0,1,0-2,2A2,2,0,0,0,7966.009,21700Zm13,0a2,2,0,1,0-2,2A2,2,0,0,0,7979.011,21700Zm13,0a2,2,0,1,0-2,2A2,2,0,0,0,7992.013,21700Zm13,0a2,2,0,1,0-2,2A2,2,0,0,0,8005.015,21700Zm13,0a2,2,0,1,0-2,2A2,2,0,0,0,8018.012,21700Zm13,0a2,2,0,1,0-2,2A2,2,0,0,0,8031.014,21700Zm13,0a2,2,0,1,0-2,2A2,2,0,0,0,8044.016,21700Zm12.985,0a2,2,0,1,0-2,2A2,2,0,0,0,8057,21700Zm13,0a2,2,0,1,0-2,2A2,2,0,0,0,8070,21700Zm13,0a2,2,0,1,0-2,2A2,2,0,0,0,8083,21700Zm13,0a2,2,0,1,0-2,2A2,2,0,0,0,8096,21700Zm13,0a2,2,0,1,0-2,2A2,2,0,0,0,8109,21700Zm13,0a2,2,0,1,0-2,2A2,2,0,0,0,8122,21700Zm13,0a2,2,0,1,0-2,2A2,2,0,0,0,8135,21700Zm13,0a2,2,0,1,0-2,2A2,2,0,0,0,8148,21700Zm13,0a2,2,0,1,0-2,2A2,2,0,0,0,8161.005,21700Zm13,0a2,2,0,1,0-2,2A2,2,0,0,0,8174,21700Zm13,0a2,2,0,1,0-2,2A2,2,0,0,0,8187,21700Zm13,0a2,2,0,1,0-2,2A2,2,0,0,0,8200.006,21700Zm13,0a2,2,0,1,0-2,2A2,2,0,0,0,8213.008,21700Zm13,0a2,2,0,1,0-2,2A2,2,0,0,0,8226,21700Zm13,0a2,2,0,1,0-2,2A2,2,0,0,0,8239.006,21700Zm13,0a2,2,0,1,0-2,2A2,2,0,0,0,8252.008,21700Zm13,0a2,2,0,1,0-2,2A2,2,0,0,0,8265,21700Zm13,0a2,2,0,1,0-2,2A2,2,0,0,0,8278,21700Zm13,0a2,2,0,1,0-2,2A2,2,0,0,0,8291,21700Zm13,0a2,2,0,1,0-2,2A2,2,0,0,0,8304,21700Zm13,0a2,2,0,1,0-2,2A2,2,0,0,0,8317.007,21700Zm13,0a2,2,0,1,0-2,2A2,2,0,0,0,8330,21700Zm13,0a2,2,0,1,0-2,2A2,2,0,0,0,8343.006,21700Zm13,0a2,2,0,1,0-2,2A2,2,0,0,0,8356.008,21700Zm13,0a2,2,0,1,0-2,2A2,2,0,0,0,8369.01,21700Zm13,0a2,2,0,1,0-2,2A2,2,0,0,0,8382.006,21700Zm13,0a2,2,0,1,0-2,2A2,2,0,0,0,8395.008,21700Zm13,0a2,2,0,1,0-2,2A2,2,0,0,0,8408.01,21700Zm13,0a2,2,0,1,0-2,2A2,2,0,0,0,8421.012,21700Zm13,0a2,2,0,1,0-2,2A2,2,0,0,0,8434.008,21700Zm13,0a2,2,0,1,0-2,2A2,2,0,0,0,8447.01,21700Zm13,0a2,2,0,1,0-2,2A2,2,0,0,0,8460.012,21700Zm13,0a2,2,0,1,0-2,2A2,2,0,0,0,8473.014,21700Zm13,0a2,2,0,1,0-2,2A2,2,0,0,0,8486.01,21700Zm13,0a2,2,0,1,0-2,2A2,2,0,0,0,8499.012,21700Zm13,0a2,2,0,1,0-2,2A2,2,0,0,0,8512.014,21700Zm13,0a2,2,0,1,0-2,2A2,2,0,0,0,8525.016,21700Zm13,0a2,2,0,1,0-2,2A2,2,0,0,0,8538.012,21700Zm13,0a2,2,0,1,0-2,2A2,2,0,0,0,8551.014,21700Zm13,0a2,2,0,1,0-2,2A2,2,0,0,0,8564.016,21700Zm13,0a2,2,0,1,0-2,2A2,2,0,0,0,8577.018,21700Zm13,0a2,2,0,1,0-2,2A2,2,0,0,0,8590.015,21700ZM7225,21687a2,2,0,1,0-2,2A2,2,0,0,0,7225,21687Zm13,0a2,2,0,1,0-2,2A2,2,0,0,0,7238,21687Zm13,0a2,2,0,1,0-2,2A2,2,0,0,0,7251,21687Zm13,0a2,2,0,1,0-2,2A2,2,0,0,0,7264,21687Zm13,0a2,2,0,1,0-2,2A2,2,0,0,0,7277.006,21687Zm13,0a2,2,0,1,0-2,2A2,2,0,0,0,7290,21687Zm13,0a2,2,0,1,0-2,2A2,2,0,0,0,7303,21687Zm13,0a2,2,0,1,0-2,2A2,2,0,0,0,7316.006,21687Zm13,0a2,2,0,1,0-2,2A2,2,0,0,0,7329.008,21687Zm13,0a2,2,0,1,0-2,2A2,2,0,0,0,7342,21687Zm13,0a2,2,0,1,0-2,2A2,2,0,0,0,7355.007,21687Zm13,0a2,2,0,1,0-2,2A2,2,0,0,0,7368.009,21687Zm13,0a2,2,0,1,0-2,2A2,2,0,0,0,7381.01,21687Zm13,0a2,2,0,1,0-2,2A2,2,0,0,0,7394.007,21687Zm13,0a2,2,0,1,0-2,2A2,2,0,0,0,7407.009,21687Zm13,0a2,2,0,1,0-2,2A2,2,0,0,0,7420.011,21687Zm13,0a2,2,0,1,0-2,2A2,2,0,0,0,7433.007,21687Zm13,0a2,2,0,1,0-2,2A2,2,0,0,0,7446,21687Zm13,0a2,2,0,1,0-2,2A2,2,0,0,0,7459.006,21687Zm13,0a2,2,0,1,0-2,2A2,2,0,0,0,7472.008,21687Zm13,0a2,2,0,1,0-2,2A2,2,0,0,0,7485.009,21687Zm13,0a2,2,0,1,0-2,2A2,2,0,0,0,7498.006,21687Zm13,0a2,2,0,1,0-2,2A2,2,0,0,0,7511.008,21687Zm13,0a2,2,0,1,0-2,2A2,2,0,0,0,7524.01,21687Zm13,0a2,2,0,1,0-2,2A2,2,0,0,0,7537.012,21687Zm13,0a2,2,0,1,0-2,2A2,2,0,0,0,7550.008,21687Zm13,0a2,2,0,1,0-2,2A2,2,0,0,0,7563.01,21687Zm13,0a2,2,0,1,0-2,2A2,2,0,0,0,7576.012,21687Zm13,0a2,2,0,1,0-2,2A2,2,0,0,0,7589.014,21687Zm13,0a2,2,0,1,0-2,2A2,2,0,0,0,7602.01,21687Zm13,0a2,2,0,1,0-2,2A2,2,0,0,0,7615.012,21687Zm13,0a2,2,0,1,0-2,2A2,2,0,0,0,7628.014,21687Zm12.991,0a2,2,0,1,0-2,2A2,2,0,0,0,7641,21687Zm13,0a2,2,0,1,0-2,2A2,2,0,0,0,7654,21687Zm13,0a2,2,0,1,0-2,2A2,2,0,0,0,7667,21687Zm13,0a2,2,0,1,0-2,2A2,2,0,0,0,7680,21687Zm13,0a2,2,0,1,0-2,2A2,2,0,0,0,7693.007,21687Zm13,0a2,2,0,1,0-2,2A2,2,0,0,0,7706,21687Zm13,0a2,2,0,1,0-2,2A2,2,0,0,0,7719.006,21687Zm13,0a2,2,0,1,0-2,2A2,2,0,0,0,7732.008,21687Zm13,0a2,2,0,1,0-2,2A2,2,0,0,0,7745.01,21687Zm13,0a2,2,0,1,0-2,2A2,2,0,0,0,7758.006,21687Zm13,0a2,2,0,1,0-2,2A2,2,0,0,0,7771.008,21687Zm13,0a2,2,0,1,0-2,2A2,2,0,0,0,7784.01,21687Zm13,0a2,2,0,1,0-2,2A2,2,0,0,0,7797.012,21687Zm13,0a2,2,0,1,0-2,2A2,2,0,0,0,7810.008,21687Zm13,0a2,2,0,1,0-2,2A2,2,0,0,0,7823.01,21687Zm13,0a2,2,0,1,0-2,2A2,2,0,0,0,7836.012,21687Zm13,0a2,2,0,1,0-2,2A2,2,0,0,0,7849.009,21687Zm13,0a2,2,0,1,0-2,2A2,2,0,0,0,7862,21687Zm13,0a2,2,0,1,0-2,2A2,2,0,0,0,7875.007,21687Zm13,0a2,2,0,1,0-2,2A2,2,0,0,0,7888.009,21687Zm13,0a2,2,0,1,0-2,2A2,2,0,0,0,7901.011,21687Zm13,0a2,2,0,1,0-2,2A2,2,0,0,0,7914.007,21687Zm13,0a2,2,0,1,0-2,2A2,2,0,0,0,7927.009,21687Zm13,0a2,2,0,1,0-2,2A2,2,0,0,0,7940.011,21687Zm13,0a2,2,0,1,0-2,2A2,2,0,0,0,7953.013,21687Zm13,0a2,2,0,1,0-2,2A2,2,0,0,0,7966.009,21687Zm13,0a2,2,0,1,0-2,2A2,2,0,0,0,7979.011,21687Zm13,0a2,2,0,1,0-2,2A2,2,0,0,0,7992.013,21687Zm13,0a2,2,0,1,0-2,2A2,2,0,0,0,8005.015,21687Zm13,0a2,2,0,1,0-2,2A2,2,0,0,0,8018.012,21687Zm13,0a2,2,0,1,0-2,2A2,2,0,0,0,8031.014,21687Zm13,0a2,2,0,1,0-2,2A2,2,0,0,0,8044.016,21687Zm12.985,0a2,2,0,1,0-2,2A2,2,0,0,0,8057,21687Zm13,0a2,2,0,1,0-2,2A2,2,0,0,0,8070,21687Zm13,0a2,2,0,1,0-2,2A2,2,0,0,0,8083,21687Zm13,0a2,2,0,1,0-2,2A2,2,0,0,0,8096,21687Zm13,0a2,2,0,1,0-2,2A2,2,0,0,0,8109,21687Zm13,0a2,2,0,1,0-2,2A2,2,0,0,0,8122,21687Zm13,0a2,2,0,1,0-2,2A2,2,0,0,0,8135,21687Zm13,0a2,2,0,1,0-2,2A2,2,0,0,0,8148,21687Zm13,0a2,2,0,1,0-2,2A2,2,0,0,0,8161.005,21687Zm13,0a2,2,0,1,0-2,2A2,2,0,0,0,8174,21687Zm13,0a2,2,0,1,0-2,2A2,2,0,0,0,8187,21687Zm13,0a2,2,0,1,0-2,2A2,2,0,0,0,8200.006,21687Zm13,0a2,2,0,1,0-2,2A2,2,0,0,0,8213.008,21687Zm13,0a2,2,0,1,0-2,2A2,2,0,0,0,8226,21687Zm13,0a2,2,0,1,0-2,2A2,2,0,0,0,8239.006,21687Zm13,0a2,2,0,1,0-2,2A2,2,0,0,0,8252.008,21687Zm13,0a2,2,0,1,0-2,2A2,2,0,0,0,8265,21687Zm13,0a2,2,0,1,0-2,2A2,2,0,0,0,8278,21687Zm13,0a2,2,0,1,0-2,2A2,2,0,0,0,8291,21687Zm13,0a2,2,0,1,0-2,2A2,2,0,0,0,8304,21687Zm13,0a2,2,0,1,0-2,2A2,2,0,0,0,8317.007,21687Zm13,0a2,2,0,1,0-2,2A2,2,0,0,0,8330,21687Zm13,0a2,2,0,1,0-2,2A2,2,0,0,0,8343.006,21687Zm13,0a2,2,0,1,0-2,2A2,2,0,0,0,8356.008,21687Zm13,0a2,2,0,1,0-2,2A2,2,0,0,0,8369.01,21687Zm13,0a2,2,0,1,0-2,2A2,2,0,0,0,8382.006,21687Zm13,0a2,2,0,1,0-2,2A2,2,0,0,0,8395.008,21687Zm13,0a2,2,0,1,0-2,2A2,2,0,0,0,8408.01,21687Zm13,0a2,2,0,1,0-2,2A2,2,0,0,0,8421.012,21687Zm13,0a2,2,0,1,0-2,2A2,2,0,0,0,8434.008,21687Zm13,0a2,2,0,1,0-2,2A2,2,0,0,0,8447.01,21687Zm13,0a2,2,0,1,0-2,2A2,2,0,0,0,8460.012,21687Zm13,0a2,2,0,1,0-2,2A2,2,0,0,0,8473.014,21687Zm13,0a2,2,0,1,0-2,2A2,2,0,0,0,8486.01,21687Zm13,0a2,2,0,1,0-2,2A2,2,0,0,0,8499.012,21687Zm13,0a2,2,0,1,0-2,2A2,2,0,0,0,8512.014,21687Zm13,0a2,2,0,1,0-2,2A2,2,0,0,0,8525.016,21687Zm13,0a2,2,0,1,0-2,2A2,2,0,0,0,8538.012,21687Zm13,0a2,2,0,1,0-2,2A2,2,0,0,0,8551.014,21687Zm13,0a2,2,0,1,0-2,2A2,2,0,0,0,8564.016,21687Zm13,0a2,2,0,1,0-2,2A2,2,0,0,0,8577.018,21687Zm13,0a2,2,0,1,0-2,2A2,2,0,0,0,8590.015,21687ZM7225,21674a2,2,0,1,0-2,2A2,2,0,0,0,7225,21674Zm13,0a2,2,0,1,0-2,2A2,2,0,0,0,7238,21674Zm13,0a2,2,0,1,0-2,2A2,2,0,0,0,7251,21674Zm13,0a2,2,0,1,0-2,2A2,2,0,0,0,7264,21674Zm13,0a2,2,0,1,0-2,2A2,2,0,0,0,7277.006,21674Zm13,0a2,2,0,1,0-2,2A2,2,0,0,0,7290,21674Zm13,0a2,2,0,1,0-2,2A2,2,0,0,0,7303,21674Zm13,0a2,2,0,1,0-2,2A2,2,0,0,0,7316.006,21674Zm13,0a2,2,0,1,0-2,2A2,2,0,0,0,7329.008,21674Zm13,0a2,2,0,1,0-2,2A2,2,0,0,0,7342,21674Zm13,0a2,2,0,1,0-2,2A2,2,0,0,0,7355.007,21674Zm13,0a2,2,0,1,0-2,2A2,2,0,0,0,7368.009,21674Zm13,0a2,2,0,1,0-2,2A2,2,0,0,0,7381.01,21674Zm13,0a2,2,0,1,0-2,2A2,2,0,0,0,7394.007,21674Zm13,0a2,2,0,1,0-2,2A2,2,0,0,0,7407.009,21674Zm13,0a2,2,0,1,0-2,2A2,2,0,0,0,7420.011,21674Zm13,0a2,2,0,1,0-2,2A2,2,0,0,0,7433.007,21674Zm13,0a2,2,0,1,0-2,2A2,2,0,0,0,7446,21674Zm13,0a2,2,0,1,0-2,2A2,2,0,0,0,7459.006,21674Zm13,0a2,2,0,1,0-2,2A2,2,0,0,0,7472.008,21674Zm13,0a2,2,0,1,0-2,2A2,2,0,0,0,7485.009,21674Zm13,0a2,2,0,1,0-2,2A2,2,0,0,0,7498.006,21674Zm13,0a2,2,0,1,0-2,2A2,2,0,0,0,7511.008,21674Zm13,0a2,2,0,1,0-2,2A2,2,0,0,0,7524.01,21674Zm13,0a2,2,0,1,0-2,2A2,2,0,0,0,7537.012,21674Zm13,0a2,2,0,1,0-2,2A2,2,0,0,0,7550.008,21674Zm13,0a2,2,0,1,0-2,2A2,2,0,0,0,7563.01,21674Zm13,0a2,2,0,1,0-2,2A2,2,0,0,0,7576.012,21674Zm13,0a2,2,0,1,0-2,2A2,2,0,0,0,7589.014,21674Zm13,0a2,2,0,1,0-2,2A2,2,0,0,0,7602.01,21674Zm13,0a2,2,0,1,0-2,2A2,2,0,0,0,7615.012,21674Zm13,0a2,2,0,1,0-2,2A2,2,0,0,0,7628.014,21674Zm12.991,0a2,2,0,1,0-2,2A2,2,0,0,0,7641,21674Zm13,0a2,2,0,1,0-2,2A2,2,0,0,0,7654,21674Zm13,0a2,2,0,1,0-2,2A2,2,0,0,0,7667,21674Zm13,0a2,2,0,1,0-2,2A2,2,0,0,0,7680,21674Zm13,0a2,2,0,1,0-2,2A2,2,0,0,0,7693.007,21674Zm13,0a2,2,0,1,0-2,2A2,2,0,0,0,7706,21674Zm13,0a2,2,0,1,0-2,2A2,2,0,0,0,7719.006,21674Zm13,0a2,2,0,1,0-2,2A2,2,0,0,0,7732.008,21674Zm13,0a2,2,0,1,0-2,2A2,2,0,0,0,7745.01,21674Zm13,0a2,2,0,1,0-2,2A2,2,0,0,0,7758.006,21674Zm13,0a2,2,0,1,0-2,2A2,2,0,0,0,7771.008,21674Zm13,0a2,2,0,1,0-2,2A2,2,0,0,0,7784.01,21674Zm13,0a2,2,0,1,0-2,2A2,2,0,0,0,7797.012,21674Zm13,0a2,2,0,1,0-2,2A2,2,0,0,0,7810.008,21674Zm13,0a2,2,0,1,0-2,2A2,2,0,0,0,7823.01,21674Zm13,0a2,2,0,1,0-2,2A2,2,0,0,0,7836.012,21674Zm13,0a2,2,0,1,0-2,2A2,2,0,0,0,7849.009,21674Zm13,0a2,2,0,1,0-2,2A2,2,0,0,0,7862,21674Zm13,0a2,2,0,1,0-2,2A2,2,0,0,0,7875.007,21674Zm13,0a2,2,0,1,0-2,2A2,2,0,0,0,7888.009,21674Zm13,0a2,2,0,1,0-2,2A2,2,0,0,0,7901.011,21674Zm13,0a2,2,0,1,0-2,2A2,2,0,0,0,7914.007,21674Zm13,0a2,2,0,1,0-2,2A2,2,0,0,0,7927.009,21674Zm13,0a2,2,0,1,0-2,2A2,2,0,0,0,7940.011,21674Zm13,0a2,2,0,1,0-2,2A2,2,0,0,0,7953.013,21674Zm13,0a2,2,0,1,0-2,2A2,2,0,0,0,7966.009,21674Zm13,0a2,2,0,1,0-2,2A2,2,0,0,0,7979.011,21674Zm13,0a2,2,0,1,0-2,2A2,2,0,0,0,7992.013,21674Zm13,0a2,2,0,1,0-2,2A2,2,0,0,0,8005.015,21674Zm13,0a2,2,0,1,0-2,2A2,2,0,0,0,8018.012,21674Zm13,0a2,2,0,1,0-2,2A2,2,0,0,0,8031.014,21674Zm13,0a2,2,0,1,0-2,2A2,2,0,0,0,8044.016,21674Zm12.985,0a2,2,0,1,0-2,2A2,2,0,0,0,8057,21674Zm13,0a2,2,0,1,0-2,2A2,2,0,0,0,8070,21674Zm13,0a2,2,0,1,0-2,2A2,2,0,0,0,8083,21674Zm13,0a2,2,0,1,0-2,2A2,2,0,0,0,8096,21674Zm13,0a2,2,0,1,0-2,2A2,2,0,0,0,8109,21674Zm13,0a2,2,0,1,0-2,2A2,2,0,0,0,8122,21674Zm13,0a2,2,0,1,0-2,2A2,2,0,0,0,8135,21674Zm13,0a2,2,0,1,0-2,2A2,2,0,0,0,8148,21674Zm13,0a2,2,0,1,0-2,2A2,2,0,0,0,8161.005,21674Zm13,0a2,2,0,1,0-2,2A2,2,0,0,0,8174,21674Zm13,0a2,2,0,1,0-2,2A2,2,0,0,0,8187,21674Zm13,0a2,2,0,1,0-2,2A2,2,0,0,0,8200.006,21674Zm13,0a2,2,0,1,0-2,2A2,2,0,0,0,8213.008,21674Zm13,0a2,2,0,1,0-2,2A2,2,0,0,0,8226,21674Zm13,0a2,2,0,1,0-2,2A2,2,0,0,0,8239.006,21674Zm13,0a2,2,0,1,0-2,2A2,2,0,0,0,8252.008,21674Zm13,0a2,2,0,1,0-2,2A2,2,0,0,0,8265,21674Zm13,0a2,2,0,1,0-2,2A2,2,0,0,0,8278,21674Zm13,0a2,2,0,1,0-2,2A2,2,0,0,0,8291,21674Zm13,0a2,2,0,1,0-2,2A2,2,0,0,0,8304,21674Zm13,0a2,2,0,1,0-2,2A2,2,0,0,0,8317.007,21674Zm13,0a2,2,0,1,0-2,2A2,2,0,0,0,8330,21674Zm13,0a2,2,0,1,0-2,2A2,2,0,0,0,8343.006,21674Zm13,0a2,2,0,1,0-2,2A2,2,0,0,0,8356.008,21674Zm13,0a2,2,0,1,0-2,2A2,2,0,0,0,8369.01,21674Zm13,0a2,2,0,1,0-2,2A2,2,0,0,0,8382.006,21674Zm13,0a2,2,0,1,0-2,2A2,2,0,0,0,8395.008,21674Zm13,0a2,2,0,1,0-2,2A2,2,0,0,0,8408.01,21674Zm13,0a2,2,0,1,0-2,2A2,2,0,0,0,8421.012,21674Zm13,0a2,2,0,1,0-2,2A2,2,0,0,0,8434.008,21674Zm13,0a2,2,0,1,0-2,2A2,2,0,0,0,8447.01,21674Zm13,0a2,2,0,1,0-2,2A2,2,0,0,0,8460.012,21674Zm13,0a2,2,0,1,0-2,2A2,2,0,0,0,8473.014,21674Zm13,0a2,2,0,1,0-2,2A2,2,0,0,0,8486.01,21674Zm13,0a2,2,0,1,0-2,2A2,2,0,0,0,8499.012,21674Zm13,0a2,2,0,1,0-2,2A2,2,0,0,0,8512.014,21674Zm13,0a2,2,0,1,0-2,2A2,2,0,0,0,8525.016,21674Zm13,0a2,2,0,1,0-2,2A2,2,0,0,0,8538.012,21674Zm13,0a2,2,0,1,0-2,2A2,2,0,0,0,8551.014,21674Zm13,0a2,2,0,1,0-2,2A2,2,0,0,0,8564.016,21674Zm13,0a2,2,0,1,0-2,2A2,2,0,0,0,8577.018,21674Zm13,0a2,2,0,1,0-2,2A2,2,0,0,0,8590.015,21674Z" transform="translate(-7220.998 -21672)" fill="#d6f0fc"/>
</svg>
