<svg xmlns="http://www.w3.org/2000/svg" width="20.001" height="20" viewBox="0 0 20.001 20">
    <path data-name="Union 9" d="m-1202.79-8.4-.83-1.111a6.259 6.259 0 0 0-5-2.489h-4.91a6.2 6.2 0 0 0-5.58 3.44 1 1 0 0 1-1.327.423 1 1 0 0 1-.464-1.313 8.191 8.191 0 0 1 7.37-4.55h4.91a8.268 8.268 0 0 1 6.62 3.29l.8 1.11h.01a1 1 0 0 1-.2 1.4 1 1 0 0 1-.6.2 1 1 0 0 1-.799-.4zM-1217-22a6 6 0 0 1 6-6 6 6 0 0 1 6 6 6 6 0 0 1-6 6 6 6 0 0 1-6-6zm2 0a4 4 0 0 0 4 4 4 4 0 0 0 4-4 4 4 0 0 0-4-4 4 4 0 0 0-4 4z" transform="translate(1220.991 28)" style="fill:#003784"/>
</svg>
