<svg xmlns="http://www.w3.org/2000/svg" width="35.02" height="26" viewBox="0 0 35.02 26">
  <path id="icons8-youtube" d="M37.042,13.469a4.616,4.616,0,0,0-3.656-3.494,72.293,72.293,0,0,0-13-.974,73.359,73.359,0,0,0-13.079.974,4.509,4.509,0,0,0-3.656,3.494A53.309,53.309,0,0,0,3,22a44.22,44.22,0,0,0,.73,8.531,4.624,4.624,0,0,0,3.656,3.494A74.742,74.742,0,0,0,20.469,35a74.743,74.743,0,0,0,13.083-.974,4.513,4.513,0,0,0,3.656-3.494A62.337,62.337,0,0,0,38.02,22,56.861,56.861,0,0,0,37.042,13.469ZM16,27.688V16.313L25.912,22Z" transform="translate(-3 -9)" fill="#717780"/>
</svg>
