<svg xmlns="http://www.w3.org/2000/svg" width="341.098" height="388.328" viewBox="0 0 341.098 388.328">
    <g data-name="Group 7058" transform="translate(-970.896 -245.184)">
        <path data-name="Path 3243" d="M131.657 51.521h-120s1.621 36.925 34.2 41.271v57.318h85.8V93.154s.176-11.768 0-41.633" transform="translate(1022.541 475.968)" style="fill:#d6f0fc"/>
        <path data-name="Line 5" transform="translate(1077.521 431.564)" style="fill:#d6f0fc" d="M32.085 3.225 0 0"/>
        <path data-name="Line 6" transform="translate(1080.838 453.329)" style="fill:#d6f0fc" d="M32.145 0 0 12.548"/>
        <path data-name="Line 7" transform="translate(1109.084 468)" style="fill:#d6f0fc" d="M15.163 0 0 28.47"/>
        <path data-name="Path 3244" d="M162.826 15.494s33.222 15.96 5.664 47.786l-40.419 60.82 65.629 67.338-.006 97.287s3.879 28.722-27.481 28.722c-28.6 0-27.277-29.085-27.277-29.085v-78.075L76.576 146.3a38.981 38.981 0 0 1-5.565-47.176l26.569-44.53H69.423L50.376 81.07s-9.906 17.487-22.9 8.356c-10.12-7.109-6.483-15.339.214-26.245C35.916 49.8 60.737 15.494 60.737 15.494z" transform="translate(1065.408 314.064)" style="fill:#d6f0fc"/>
        <path data-name="Path 3245" d="M48.162 39.122A38.622 38.622 0 1 0 86.784.5a38.623 38.623 0 0 0-38.622 38.622" transform="translate(1186.588 246.683)" style="fill:#d6f0fc"/>
        <path data-name="Path 3246" d="M38.56 142.779H27.308a22.481 22.481 0 0 1-22.415-22.415V49.6a22.481 22.481 0 0 1 22.415-22.419H38.56z" transform="translate(992.139 366.585)" style="fill:#d6f0fc"/>
        <path data-name="Path 3247" d="M127.264 51.521h-120s1.621 36.925 34.2 41.271v57.318h85.8V93.154s.175-11.768 0-41.633z" transform="translate(1002.799 475.968)" style="stroke:#003884;fill:none;stroke-miterlimit:10;stroke-width:4px"/>
        <path data-name="Line 8" transform="translate(1053.387 431.564)" style="stroke:#902946;fill:none;stroke-miterlimit:10;stroke-width:4px" d="M32.085 3.225 0 0"/>
        <path data-name="Line 9" transform="translate(1056.703 453.329)" style="stroke:#902946;fill:none;stroke-miterlimit:10;stroke-width:4px" d="M32.145 0 0 12.548"/>
        <path data-name="Line 10" transform="translate(1084.949 468)" style="stroke:#902946;fill:none;stroke-miterlimit:10;stroke-width:4px" d="M15.163 0 0 28.47"/>
        <path data-name="Path 3248" d="M158.433 15.494s33.222 15.96 5.664 47.786l-40.419 60.82 65.622 67.338-.006 97.287s3.879 28.722-27.481 28.722c-28.6 0-27.277-29.085-27.277-29.085v-78.075L72.183 146.3a38.981 38.981 0 0 1-5.565-47.176l26.569-44.53H65.03L45.983 81.07s-9.906 17.487-22.9 8.356c-10.12-7.109-6.483-15.339.214-26.245C31.523 49.8 56.344 15.494 56.344 15.494z" transform="translate(1045.666 314.064)" style="stroke:#003884;fill:none;stroke-miterlimit:10;stroke-width:4px"/>
        <circle data-name="Ellipse 189" cx="38.622" cy="38.622" r="38.622" transform="translate(1210.617 247.184)" style="stroke:#003884;fill:none;stroke-miterlimit:10;stroke-width:4px"/>
        <path data-name="Path 3249" d="M34.167 142.779H22.915A22.481 22.481 0 0 1 .5 120.364V49.6a22.481 22.481 0 0 1 22.415-22.419h11.252z" transform="translate(972.396 366.585)" style="stroke:#003884;fill:none;stroke-miterlimit:10;stroke-width:4px"/>
    </g>
</svg>
