<svg xmlns="http://www.w3.org/2000/svg" width="455.228" height="178.584" viewBox="0 0 455.228 178.584">
    <g data-name="Group 7055">
        <path data-name="Path 24769" d="m1 68.592 91.835 1.414c1.57.026 29.379-2.5 30.923-2.784 6.934-1.261 17.9-3.1 37.583-15.433 32.65-20.466 42.8-33.02 55.839-31.937v32.724s-55.056 18.591-54 65.335c1.3 57.932 61.055 56.962 61.055 56.962s71.008.97 67.132-65.653C289 68.531 240 51.762 240 51.762V20.243s18.67 3.323 42.707 23.785c22.224 18.922 47.975 26.325 82.213 26.325 38.366 0 86.911-2.149 86.911-2.149V52.767s-94.945 6.751-121.623-3.436c-30.275-11.566-54.226-34.847-54.226-34.847S256.567.634 238.1.629c-20.914 0-8.687-.357-24.712.818S154.3 36.3 131.591 46.033C105.109 57.382 1 51.188 1 51.188z" transform="translate(3.358 1.733)" style="fill:#d6f0fc"/>
        <path data-name="Path 24770" d="m0 55.52 93.971-.544s35.3.544 62.464-19.553C187.413 12.5 207.5-.424 220.533.659v51.872S166.247 70.148 167.3 116.9c1.3 57.932 60.285 57.932 60.285 57.932s71.777 0 67.9-66.623C293.12 67.517 239 51.718 239 51.718V.585s34.882 5.507 56.549 25.06 46.651 26.073 75.982 27.16 83.648 0 83.648 0" transform="translate(.008 1.755)" style="stroke:#003884;fill:none;stroke-miterlimit:10;stroke-width:4px"/>
        <path data-name="Path 24771" d="M65.563 19.385S40.321 33.944 44.81 62.671c4.45 28.457 32.019 28.457 32.019 28.457" transform="translate(148.315 64.733)" style="stroke:#902946;fill:none;stroke-miterlimit:10;stroke-width:4px"/>
        <path data-name="Path 24772" d="M47.851 28.237S77.4 16.031 96.678 43.657" transform="translate(160.293 85.387)" style="stroke:#902946;fill:none;stroke-miterlimit:10;stroke-width:4px"/>
        <path data-name="Path 24773" d="M41.795 31.544s23.968 15.42 46.357-5.144" transform="translate(140.006 88.239)" style="stroke:#902946;fill:none;stroke-miterlimit:10;stroke-width:4px"/>
        <path data-name="Path 24774" d="M54.941 74.827s25.055.178 32.124-19.5a36.144 36.144 0 0 0-4.5-33.82" transform="translate(184.045 71.825)" style="stroke:#902946;fill:none;stroke-miterlimit:10;stroke-width:4px"/>
        <path data-name="Path 24775" d="M74.607 21.649S44.549 36.426 57.4 73.691" transform="translate(181.582 72.317)" style="stroke:#902946;fill:none;stroke-miterlimit:10;stroke-width:4px"/>
    </g>
</svg>
