<svg xmlns="http://www.w3.org/2000/svg" width="76.164" height="74.583" viewBox="0 0 76.164 74.583">
    <path data-name="Path 3268" d="M9.573 51.416 16.6 63.332a5.859 5.859 0 0 0 5.465 4.177c3.246.25-.7-5.27-.7-5.27L16.09 51.416s10.464-4.187 4.183-14.887c0 0 4.884-6.281-.233-12.793l1.4-2.094a9.728 9.728 0 0 0 8.36 0s7.495 8.142 15.967 0c0 0 7.774 2.559 11.263-2.093 0 0 .232 2.791 1.628 4.187 0 0-4.653 6.578 0 12.36 0 0-4.187 5.317-1.4 9.737 0 0-5.117 3.024-5.35 8.375 0 0-8.886.465-10.723 5.117s1.186 6.048 2.117 6.281 3.722.93 4.653-2.792a12 12 0 0 1 8.374-.233s6.048 3.256 10.236 0 4.187-7.211 3.721-11.4a8.509 8.509 0 0 0 5.35-7.443c.466-5.816-2.559-7.676-2.559-7.676a8.718 8.718 0 0 0 2.675-5.7 8.13 8.13 0 0 0-2.675-7.327s2.908-1.513 1.745-7.793-6.4-6.629-6.4-6.629S67.959 2.8 62.375.939s-9.537 2.792-9.537 2.792-6.705-1.508-9.865 3.782c0 0-5.719-2.852-9.209.4a8.593 8.593 0 0 0-10-4.187 9.879 9.879 0 0 0-10.12-2.67C7.6 2.684 7.015 9.546 7.015 9.546S.734 13.965 5.619 23.5c0 0-4.885 7.211.465 13.026 0 0-7.443 6.978 3.489 14.887" transform="translate(-.324 .16)" style="fill:#fff"/>
    <path data-name="Path 3269" d="m12.217 50.925 4.919 11.514a6.361 6.361 0 0 0 5.914 4.351c2.989 0 .063-4.142.063-4.142L18.2 50.925s9.6-3.842 3.839-13.662c0 0 4.482-5.763-.214-11.741L23.1 23.6a8.93 8.93 0 0 0 7.672 0s6.877 7.471 14.652 0c0 0 7.135 2.349 10.337-1.921a7.224 7.224 0 0 0 1.494 3.842s-4.27 6.037 0 11.344c0 0-3.843 4.879-1.281 8.936 0 0-4.7 2.774-4.91 7.684 0 0-8.154.428-9.841 4.7s1.089 5.55 1.942 5.764 3.415.854 4.27-2.561a11.011 11.011 0 0 1 7.685-.214s5.55 2.989 9.392 0 3.842-6.617 3.415-10.46a7.811 7.811 0 0 0 4.91-6.831c.427-5.337-2.349-7.044-2.349-7.044a8 8 0 0 0 2.455-5.23 7.461 7.461 0 0 0-2.455-6.725s2.669-1.387 1.6-7.151-5.87-6.083-5.87-6.083-.418-5.339-5.544-7.05-8.752 2.561-8.752 2.561-6.154-1.383-9.054 3.471c0 0-5.248-2.617-8.451.372a7.887 7.887 0 0 0-9.179-3.843 9.068 9.068 0 0 0-9.286-2.455C10.4 6.2 9.869 12.5 9.869 12.5s-5.763 4.058-1.281 12.81c0 0-4.482 6.617.428 11.954 0 0-6.831 6.4 3.2 13.662" transform="translate(-.607 -.174)" style="fill:#d7f0fd"/>
    <path data-name="Path 3270" d="M9.573 51.416s4.592 9.268 5.288 12.053c.352 1.405 2.365 4.568 5.621 4.568s3.153-2.98.873-4.477-5.265-12.144-5.265-12.144 10.464-4.187 4.183-14.887c0 0 4.884-6.281-.233-12.793l1.4-2.094a9.728 9.728 0 0 0 8.36 0s7.495 8.142 15.967 0c0 0 7.774 2.559 11.263-2.093 0 0 .232 2.791 1.628 4.187 0 0-4.653 6.578 0 12.36 0 0-4.187 5.317-1.4 9.737 0 0-5.117 3.024-5.35 8.375 0 0-8.886.465-10.723 5.117s1.186 6.048 2.117 6.281 3.722.93 4.653-2.792a12 12 0 0 1 8.374-.233s6.048 3.256 10.236 0 4.187-7.211 3.721-11.4a8.509 8.509 0 0 0 5.35-7.443c.466-5.816-2.559-7.676-2.559-7.676a8.718 8.718 0 0 0 2.675-5.7 8.13 8.13 0 0 0-2.675-7.327s2.908-1.513 1.745-7.793-6.4-6.629-6.4-6.629S67.959 2.8 62.375.939s-9.537 2.792-9.537 2.792-6.705-1.508-9.865 3.782c0 0-5.719-2.852-9.209.4a8.593 8.593 0 0 0-10-4.187 9.879 9.879 0 0 0-10.12-2.67C7.6 2.684 7.015 9.546 7.015 9.546S.734 13.965 5.619 23.5c0 0-4.885 7.211.465 13.026 0 .003-7.443 6.981 3.489 14.89z" transform="translate(-.324 .16)" style="stroke:#003a85;fill:none;stroke-miterlimit:10;stroke-width:1.3px"/>
    <path data-name="Path 3271" d="M14.052 59.3s2.108 7.379 6.392 11.544" transform="translate(-1.27 -5.156)" style="stroke:#8f2947;fill:none;stroke-miterlimit:10;stroke-width:1.3px"/>
    <path data-name="Line 11" transform="translate(23.77 56.101)" style="stroke:#8f2947;fill:none;stroke-miterlimit:10;stroke-width:1.3px" d="M0 1.354 5.308 0"/>
    <path data-name="Line 12" transform="translate(3.295 59.213)" style="stroke:#8f2947;fill:none;stroke-miterlimit:10;stroke-width:1.3px" d="M4.22 0 0 2.309"/>
    <path data-name="Line 13" transform="translate(0 54.319)" style="stroke:#8f2947;fill:none;stroke-miterlimit:10;stroke-width:1.3px" d="M5.116 0H0"/>
    <path data-name="Line 14" transform="translate(21.565 48.873)" style="stroke:#8f2947;fill:none;stroke-miterlimit:10;stroke-width:1.3px" d="M0 3.514 3.162 0"/>
    <path data-name="Line 15" transform="translate(22.971 69.904)" style="stroke:#8f2947;fill:none;stroke-miterlimit:10;stroke-width:1.3px" d="m0 0 3.514 4.265"/>
    <path data-name="Line 16" transform="translate(7.772 64.282)" style="stroke:#8f2947;fill:none;stroke-miterlimit:10;stroke-width:1.3px" d="M3.254 0 0 3.94"/>
    <path data-name="Line 17" transform="translate(14.38 69.045)" style="stroke:#8f2947;fill:none;stroke-miterlimit:10;stroke-width:1.3px" d="M1.28 0 0 4.955"/>
    <path data-name="Line 18" transform="translate(25.591 63.881)" style="stroke:#8f2947;fill:none;stroke-miterlimit:10;stroke-width:1.3px" d="m0 0 5.481 1.154"/>
</svg>
