<svg xmlns="http://www.w3.org/2000/svg" width="62.554" height="68.101" viewBox="0 0 62.554 68.101">
    <defs>
        <clipPath id="5spbefwbta">
            <path data-name="Rectangle 1428" style="fill:none" d="M0 0h62.554v68.101H0z"/>
        </clipPath>
    </defs>
    <g data-name="Group 4973" style="clip-path:url(#5spbefwbta)">
        <path data-name="Path 3065" d="M12.213 48.128S2.733 44 5.789 36.17C9.071 27.763 18 30.235 18 30.235 2.78 25.166 8.808 12.7 8.808 12.7h-2.96s-2.215 6.73 1.443 11.669c0 0 .764.976-1.64 3.971C4.255 30.08 0 30.047 0 30.047l.633 2.212L6.2 31.116s-2.654 3.5-3.206 6.494a9.7 9.7 0 0 0 .627 5.47c1.632 3.4 4.851 6.289 8.3 6.453z" style="fill:#d6f0fc"/>
        <path data-name="Path 3066" d="M4.255 5.793S14.154.448 19.37 4.728 24.333 17 24.333 17s-1.08 11.16 4.538 12.48a6.316 6.316 0 0 0 6.142-3.24c2.491-3.935 9.038-6.7 13.618-.6 5.09 6.785-1.88 15.96-6.658 14.4-5.512-1.8-9.233-5.571-14.63-5.571-8.067 0-8.86 5.045-8.86 5.045a7.049 7.049 0 0 1 .862 9.6s5.756 4.762 2.948 11.152-16.7 4.263-16.7 4.263l.2-2.383s12.784 1.3 14.224-2.241c1.449-3.562.547-5.34.547-5.34s-7.927 2.94-14.647 2.4l-.124-2.4s12.489-.516 12.6-1.92a4.6 4.6 0 0 0-1.44-3.6s4.451-4.77-.865-10.173c0 0-1.265-2.161 2.305-4.4a8.159 8.159 0 0 1 3.007-1.194s9.379-.838 14.269 1.62c7.072 3.554 13.036-1.4 12.766-3.782-.5-4.425-3.138-6.5-7.231-5.926-6.24.873-9.017 7.435-14.459 5.926s-4.619-9.492-4.516-11.832S21.4 7.881 14.542 6.67a11.915 11.915 0 0 0-8.753 2.3z" style="fill:#d6f0fc"/>
        <path data-name="Path 3067" d="M28.871 13.783c0 7.157.552 12.959 2.032 12.959s3.33-5.8 3.33-12.959V.488h-5.362z" style="fill:#d6f0fc"/>
        <path data-name="Path 3068" d="M34.233 53.611c0-7.785-1.7-13.115-3.478-13.115s-1.884 5.513-1.884 13.3l.48 14.28h4.882z" style="fill:#d6f0fc"/>
        <path data-name="Path 3069" d="M5.789 8.968S12.781 3.993 18 8.273a11.293 11.293 0 0 1 4.277 9.984s-.981 12.834 6.092 13.029a9.362 9.362 0 0 0 6.918-2.734c3.369-3.141 9.261-6.355 13.546.965s-2.21 14.062-7.142 13.089-7.955-6.769-13.322-6.2c-6.986.742-6.986 4.759-6.986 4.759" style="stroke-miterlimit:10;stroke-width:1.3px;stroke:#003884;fill:none"/>
        <path data-name="Path 3070" d="M26.3 68.059 26 44.248s0-4.74 2.854-4.733 2.838 4.323 2.838 4.323L32.7 68.074" style="stroke-miterlimit:10;stroke-width:1.3px;stroke:#003884;fill:none"/>
        <path data-name="Path 3071" d="M36.974 1.048c-.513 3.68-1.57 14.28 7.077 18.488 11.368 5.532 13.038 18.588 4.584 24.884-4.584 3.414-9.035 6.743-10.768 11.032-2 4.943-.864 12.3-.864 12.3" style="stroke-miterlimit:10;stroke-width:1.3px;stroke:#003884;fill:none"/>
        <path data-name="Path 3072" d="M32.164.487 31.5 21.936s.262 5.325-2.153 5.618-2.6-3.794-2.593-6.272 0-20.39 0-20.39" style="stroke-miterlimit:10;stroke-width:1.3px;stroke:#003884;fill:none"/>
        <path data-name="Path 3073" d="M19.369.487s5.579 4.927 0 8.481" style="stroke-miterlimit:10;stroke-width:1.3px;stroke:#003884;fill:none"/>
        <path data-name="Path 3074" d="M14.839 32.877s-.945 3.358 3.161 5.474c3.383 1.745 7.049 8.655 2.563 12.094S5.789 53.6 5.789 53.6" style="stroke-miterlimit:10;stroke-width:1.3px;stroke:#003884;fill:none"/>
        <path data-name="Path 3075" d="M5.322 66.343s11.4 1.548 15.67-2.228c4.358-3.853 3.079-10.954-.432-13.67" style="stroke-miterlimit:10;stroke-width:1.3px;stroke:#003884;fill:none"/>
        <path data-name="Path 3076" d="M10.821 12.7S4.432 25.914 20.56 31.287c0 0-9.933-3.925-12.436 6.169s6.454 12.078 6.454 12.078" style="stroke-miterlimit:10;stroke-width:1.3px;stroke:#003884;fill:none"/>
        <path data-name="Path 3077" d="M5.789 59.058s5.106.152 8.262 0A3.756 3.756 0 0 1 18 61.474" style="stroke-miterlimit:10;stroke-width:1.3px;stroke:#003884;fill:none"/>
        <path data-name="Path 3078" d="M5.651 31.547S12.034 27 10.12 21.936" style="stroke-miterlimit:10;stroke-width:1.3px;stroke:#003884;fill:none"/>
        <path data-name="Path 3079" d="M28.871 33.419s7-1.7 11.953-1.384c3.482.225 5.089 2.364-.089 2.8-5.018.423-11.864-1.416-11.864-1.416" style="fill:#902946"/>
        <path data-name="Path 3080" d="M28.007 33.459s-6.6-2.574-6.6-.18c0 2.376 5.126.452 6.6.18" style="fill:#003884"/>
        <path data-name="Path 3081" d="M28.365 31.286a9.362 9.362 0 0 0 6.918-2.734c3.369-3.141 9.261-6.355 13.546.965s-2.21 14.062-7.142 13.089-8.026-7.237-13.322-6.2" style="stroke:#902946;stroke-miterlimit:10;stroke-width:1.3px;fill:none"/>
        <path data-name="Path 3082" d="M44.051 1.048s-1 7.92 3.97 10.731c6.6 3.732 15.049 8.551 14.509 20.215S56.753 47.5 54.414 49.351s-8.075 4.833-8.8 8.633.155 9.908.155 9.908h-5.036V60.08a14.189 14.189 0 0 1 6.038-10.729c6.023-4.272 10.322-8.139 10.322-17.805 0-9.078-11.793-15.266-11.793-15.266s-7.533-3.769-6.006-15.232z" style="fill:#d6f0fc"/>
    </g>
</svg>
