<svg xmlns="http://www.w3.org/2000/svg" width="92.318" height="68.027" viewBox="0 0 92.318 68.027">
    <path data-name="Line 19" transform="translate(42.714 33.454)" style="stroke:#8f2947;fill:none;stroke-miterlimit:10" d="M6.882 0H0"/>
    <path data-name="Path 24804" d="M41.89 62.888s1.6-3.588.321-6.877-.962-4.484-1.283-7.474a28.979 28.979 0 0 0-1.6-6.577c-.641-2.093.321-5.681.963-8.372s-.633-3.588-2.082-5.979a42.682 42.682 0 0 1-2.091-4.186c-.962-1.794-.962-4.484-5.452-2.092s-10.98 7.469-15.791 1.793c0 0-13.149 1.794-12.829-8.372S14.875 3.989 22.573 9.968 33 8.582 37.569 6.136s14.51-2.446 19.641 1.74 9.3 4.186 15.394.3 17-2.392 16.357 4.186-3.848 9.867-8.339 10.166l-4.49.3s-2.4 5.232-9.14 1.345-8.339-3.887-8.339-3.887-2.566 5.382-3.849 6.577-3.258 3.588-2.11 6.129 1.789 7.624.506 10.914-.962 1.2-.962 4.186-1.924 7.774-1.6 10.166a18.72 18.72 0 0 0 .9 4.634s-4.038-3.438-9.65 0" transform="translate(-.041 -.333)" style="fill:#d7f0fd"/>
    <path data-name="Path 24805" d="M40.455 66.088s1.679-4.029.335-7.721-1.007-5.036-1.343-8.393a34.588 34.588 0 0 0-1.678-7.386c-.672-2.35.335-6.378 1.006-9.4s-.658-4.029-2.175-6.714a49.337 49.337 0 0 1-2.19-4.7c-1.006-2.014-1.006-5.035-5.707-2.35s-9.736 8.393-14.771 2.014c0 0-13.764 2.014-13.428-9.4s13.43-12.084 21.487-5.37 10.917-1.557 15.7-4.3 15.185-2.75 20.556 1.95 9.736 4.7 16.114.336 17.792-2.686 17.121 4.7-4.029 11.078-8.728 11.414l-4.7.335s-2.517 5.875-9.567 1.511-8.728-4.364-8.728-4.364-2.685 6.042-4.029 7.385-3.41 4.029-2.209 6.882 1.873 8.561.531 12.254-1.007 1.343-1.007 4.7-2.016 8.729-1.68 11.414a22.474 22.474 0 0 0 .947 5.2s-5.982-3.858-11.857.003z" transform="translate(.15 .16)" style="stroke-width:1.3px;stroke:#003a85;fill:none;stroke-miterlimit:10"/>
    <path data-name="Path 24806" d="M5.813 9.9s2.35-4.7 10.407-.672c6.426 3.213 7.049 8.728 13.428 5.708s5.707 3.021-1.679 4.364-7.049-4.03-11.748-2.688S3.464 14.263 5.813 9.9z" transform="translate(-.457 -.721)" style="stroke-width:1.3px;stroke:#003a85;fill:none;stroke-miterlimit:10"/>
    <path data-name="Path 24807" d="M95.684 9.9s-2.35-4.7-10.407-.672c-6.426 3.213-7.049 8.728-13.428 5.708s-5.707 3.021 1.679 4.364 7.049-4.029 11.749-2.686S98.034 14.263 95.684 9.9z" transform="translate(-8.169 -.721)" style="stroke-width:1.3px;stroke:#003a85;fill:none;stroke-miterlimit:10"/>
    <path data-name="Path 24808" d="M40.179 13.254s3.043-4.861 10.754-4.277 10.657 4.277 10.657 4.277" transform="translate(-4.777 -.886)" style="stroke-width:1.3px;stroke:#8f2947;fill:none;stroke-miterlimit:10"/>
    <path data-name="Path 24809" d="M43.629 20s5.707 7.721 5.707 21.821" transform="translate(-5.206 -2.262)" style="stroke-width:1.3px;stroke:#8f2947;fill:none;stroke-miterlimit:10"/>
    <path data-name="Path 24810" d="M60.787 19.233s-5.371 5.707-6.043 23.5" transform="translate(-6.586 -2.166)" style="stroke-width:1.3px;stroke:#8f2947;fill:none;stroke-miterlimit:10"/>
    <path data-name="Line 20" transform="translate(39.517 49.408)" style="stroke-width:1.3px;stroke:#8f2947;fill:none;stroke-miterlimit:10" d="M0 0h5.453"/>
    <path data-name="Line 21" transform="translate(40.01 55.102)" style="stroke-width:1.3px;stroke:#8f2947;fill:none;stroke-miterlimit:10" d="M6.302 0H0"/>
    <path data-name="Path 24811" d="M15.781 23.578s-2.264-4.825 3.819-5.853" transform="translate(-1.696 -1.979)" style="stroke-width:1.3px;stroke:#003a85;fill:none;stroke-miterlimit:10"/>
    <path data-name="Path 24812" d="M89.051 23.293s2.853-2.518 0-5.157" transform="translate(-10.846 -2.03)" style="stroke-width:1.3px;stroke:#003a85;fill:none;stroke-miterlimit:10"/>
</svg>
