<svg xmlns="http://www.w3.org/2000/svg" width="377.67" height="408.539" viewBox="0 0 377.67 408.539">
    <g data-name="Group 7064">
        <path data-name="Path 24818" d="M183.924 2.729S101.567 69.672 81.831 70.377s-28.519-2.539-39.539 24.268-12.318 43.993-.225 55.294 44.709-3.959 55.274 13.539-1.134 37.781 13.452 47.059 23.869 7.95 54.988-14.443 1.323-30.49 4.051-48.04 17.146-68.644 63-114.206" transform="translate(137.174 10.783)" style="fill:#d7f0fd"/>
        <path data-name="Path 24819" d="M55.248 238.414s60.148-71.326 79.511-82.408 28.523-13.871 38.317-40.882.235-29.4-18.014-33.622-45.02-2.784-59.126-29-41.281-2.861-41.281-2.861S35.3 60.724 47.891 97.059 15.8 199.775 15.8 199.775" transform="translate(64.424 164.191)" style="fill:#d7f0fd"/>
        <path data-name="Path 24820" d="M22.444 158.35s27.21-57.195 46.87-66.468S91.952 69.6 84.263 62.419s-21.785-26.465-34.246-6.882 3.627 20.645 3.627 20.645-5.7-4.772-9.257 4.429-41.674 75.634-41.674 75.634" transform="translate(10.664 192.717)" style="fill:#d7f0fd"/>
        <path data-name="Path 24821" d="M196.365.388S105.716 74.064 83.993 74.841s-31.39-2.79-43.523 26.71-13.554 48.423-.245 60.873 49.215-4.368 60.838 14.893-1.247 41.587 14.811 51.8 26.276 8.752 60.526-15.894 1.451-33.566 4.455-52.883S199.727 84.783 250.2 34.633" transform="translate(126.056 1.164)" style="stroke:#08297e;fill:none;stroke-miterlimit:10;stroke-width:4px"/>
        <path data-name="Path 24822" d="M56.485 251.678s64.808-76.849 85.667-88.789 30.731-14.944 41.286-44.05.255-31.681-19.409-36.228-48.5-2.994-63.709-31.241-44.474-3.08-44.474-3.08-20.86 11.935-7.285 51.085-34.583 110.67-34.583 110.67" transform="translate(56.953 155.572)" style="stroke:#08297e;fill:none;stroke-miterlimit:10;stroke-width:4px"/>
        <path data-name="Path 24823" d="M23.271 174.459s31.492-66.2 54.242-76.936 26.2-25.785 17.3-34.1S69.6 32.792 55.187 55.461s4.189 23.895 4.189 23.895-6.591-5.523-10.708 5.124S.434 172.022.434 172.022" transform="translate(1.301 186.877)" style="stroke:#08297e;fill:none;stroke-miterlimit:10;stroke-width:4px"/>
        <path data-name="Line 22" transform="translate(198.717 205.37)" style="fill:#d7f0fd" d="M34.087 0 0 29.504"/>
        <path data-name="Path 24824" d="M97 38.112 33.023 56.918s11.092 17.008 29.8 22.27L97.606 49.2z" transform="translate(135.207 156.17)" style="fill:#d7f0fd"/>
        <path data-name="Line 23" transform="translate(157.277 178.48)" style="stroke:#08297e;fill:none;stroke-miterlimit:10;stroke-width:4px" d="M0 28.462 69.845 0"/>
        <path data-name="Line 24" transform="translate(186.383 207.409)" style="stroke:#08297e;fill:none;stroke-miterlimit:10;stroke-width:4px" d="M0 24.038 44.06 0"/>
        <path data-name="Path 24825" d="m35.806 33.227 8.22 35.349 4.057-6.371 3.05 4.593L55.1 60.56l1.7 9.84 5.109-8.026L63.333 69l5.206-5.058 4.746-27.563s-4.828-4.2-37.48-3.147" transform="translate(146.644 135.398)" style="fill:#d7f0fd"/>
        <path data-name="Path 24826" d="m34.794 60.87 7.684-3.735 7.51-11.807 4.251 2.7 2.723-6.892 6.57 5.84 2.851-4.486 3.009 6.223 5.1-8.026 1.967 2.646-.889 11.3 4.389 17.125s-28.208-2.09-45.165-10.888" transform="translate(142.484 166.763)" style="fill:#d7f0fd"/>
        <path data-name="Path 24827" d="m35.806 33.227 8.22 25.131 4.057-6.371 3.05 4.593 3.967-6.238 1.7 9.84 5.109-8.026 1.425 6.621 5.206-5.058 4.746-17.345s-4.828-4.204-37.48-3.147z" transform="translate(146.644 135.398)" style="stroke:#8f2947;fill:none;stroke-miterlimit:10;stroke-width:4px"/>
        <path data-name="Path 24828" d="m34.794 56.761 7.684-3.735 2.4-6.7 4.251 2.7 2.723-6.892 6.57 5.84 2.851-4.486 3.009 6.223 5.1-8.026 1.967 2.646-.889 11.3 9.5 12.016s-28.209-2.088-45.166-10.886z" transform="translate(142.484 170.873)" style="stroke:#8f2947;fill:none;stroke-miterlimit:10;stroke-width:4px"/>
    </g>
</svg>
