<svg xmlns="http://www.w3.org/2000/svg" width="476.997" height="423.743" viewBox="0 0 476.997 423.743">
    <g data-name="Group 7121">
        <path data-name="Path 25386" d="M270.385 15.426s13.574 146.74 11.31 168.231-2.529 64.471-71.522 98.405a1210.711 1210.711 0 0 0-126.688 72.391c-9.046 5.653-36.761 6.787-47.787 7.349s-27.431 5.374-24.884 24.6 27.994 21.774 52.594 13.569 36.761 3.677 84.836 1.98 72.671-14.987 89.354-15.27 41.288 2.264 64.192 6.224 95.777 28.764 121.375-17.95c17.681-32.261 5.421-84.85-8.2-105.622-16.612-25.333-11.291-124.427-9.31-138.851S417.513 7.793 417.513 7.793" transform="translate(19.452 19.357)" style="fill:#def2fc"/>
        <path data-name="Path 25387" d="M274.163 16.056s14.94 117.036 12.449 140.691 13.7 70.969-62.249 108.321a1332.161 1332.161 0 0 0-139.448 79.684c-9.963 6.224-40.466 7.472-52.6 8.091s-30.2 5.917-27.393 27.081 30.815 23.967 57.9 14.94 40.461 4.046 93.376 2.179 80-16.495 98.363-16.807 45.443 2.491 70.657 6.848 83.106 21.788 106.142-11.518 1.555-99.294-9.027-124.508-5.612-136.951-3.433-152.827 6.229-90.578 6.229-90.578" transform="translate(-2.618 18.836)" style="stroke:#08297e;fill:none;stroke-miterlimit:10;stroke-width:4px"/>
        <path data-name="Path 25388" d="m71.206 9.761 3.734 103.651 27.081 18.9 27.081-18.9V9.761" transform="translate(245.472 26.689)" style="stroke:#8f2947;fill:none;stroke-miterlimit:10;stroke-width:4px"/>
        <path data-name="Path 25389" d="m196.624 40.78 28.948 10.27 24.279-10.27v92.445s.931 26.146 23.343 51.36-7.467 49.488-18.673 51.36-35.485-10.275-41.09-17.742-15.871-7.472-29.879 1.867-92.446 15.33-107.385 16.065-70.038-6.725-14.009-39.412 122.329-43.888 126.994-77.506c6.967-50.155 7.472-78.437 7.472-78.437z" transform="translate(120.052 142.275)" style="stroke:#8f2947;fill:none;stroke-miterlimit:10;stroke-width:4px"/>
        <path data-name="Line 85" transform="translate(235.843 120.38)" style="stroke:#8f2947;fill:none;stroke-miterlimit:10;stroke-width:4px" d="m0 0 32.725 15.337"/>
        <path data-name="Line 86" transform="translate(226.029 161.831)" style="stroke:#8f2947;fill:none;stroke-miterlimit:10;stroke-width:4px" d="M34.686 0 0 1.002"/>
        <path data-name="Line 87" transform="translate(235.843 190.469)" style="stroke:#8f2947;fill:none;stroke-miterlimit:10;stroke-width:4px" d="M32.725 0 0 15.88"/>
        <path data-name="Line 88" transform="translate(444.03 187.664)" style="stroke:#8f2947;fill:none;stroke-miterlimit:10;stroke-width:4px" d="m0 0 24.435 13.475"/>
        <path data-name="Line 89" transform="translate(450.263 163.365)" style="stroke:#8f2947;fill:none;stroke-miterlimit:10;stroke-width:4px" d="m0 0 26.67.851"/>
        <path data-name="Line 90" transform="translate(447.021 123.996)" style="stroke:#8f2947;fill:none;stroke-miterlimit:10;stroke-width:4px" d="M26.443 0 0 17.189"/>
        <path data-name="Rectangle 1823" transform="rotate(-54.53 65.959 -51.923)" style="fill:#def2fc" d="M0 0h39.182v146.596H0z"/>
        <path data-name="Rectangle 1824" transform="rotate(-54.525 90.111 -73.036)" style="stroke:#08297e;fill:none;stroke-miterlimit:10;stroke-width:4px" d="M0 0h43.857v124.26H0z"/>
        <path data-name="Line 91" transform="translate(213.515 98.629)" style="stroke:#08297e;fill:none;stroke-miterlimit:10;stroke-width:4px" d="M92.115 65.643 0 0"/>
    </g>
</svg>
