<svg xmlns="http://www.w3.org/2000/svg" width="166.568" height="474.295" viewBox="0 0 166.568 474.295">
    <g data-name="Group 7065">
        <path data-name="Path 3323" d="M113.141 140.79c3.731-17.207 29.877-30.716 29.877-47.382V77.349a30.027 30.027 0 0 0-29.877-30.175H34.232A30.028 30.028 0 0 0 4.349 77.349v16.059c0 16.666 29.883 37.322 29.883 51.013v113.665h77.375V157.318z" transform="translate(18.891 213.157)" style="fill:#d7f0fd"/>
        <path data-name="Path 3324" d="M120.054 123.162c4 17.946 32.046 32.035 32.046 49.413v16.749c0 17.378-14.348 31.461-32.046 31.461H35.416c-17.7 0-32.046-14.083-32.046-31.461v-16.749c0-17.378 32.046-38.922 32.046-53.2V.844h82.993v105.084z" transform="translate(14.469 3.815)" style="fill:#d7f0fd"/>
        <path data-name="Path 3325" d="M34.05 28.578S5.265 58.731 3.262 70.7C2.55 74.884-1.2 95.937 23.134 99.452s26.2-11 28.073-14.685 5.408-11.407 17.676-10.353 16.009 13.069 17.88 17.826 10.965 15.275 26.2 10.728S128.88 82.052 125.127 66.6c-3.736-15.457-29.386-44.247-38.365-40.357-11.577 5.023-9.132 6.187-21.924 6.187-14.487 0-19.111-13.43-30.788-3.852z" transform="translate(11.139 113.569)" style="stroke-width:4px;stroke:#08297e;fill:none;stroke-miterlimit:10"/>
        <path data-name="Path 3326" d="M117.857 273.049V163.87l1.678-17.9c4.078-18.647 32.692-33.282 32.692-51.339V77.23a32.69 32.69 0 0 0-32.692-32.692H33.192A32.69 32.69 0 0 0 .5 77.23v17.4c0 18.057 32.692 40.44 32.692 55.273v123.146" transform="translate(1.5 201.246)" style="stroke-width:4px;stroke:#08297e;fill:none;stroke-miterlimit:10"/>
        <path data-name="Path 3327" d="M117.857 0v109.178l1.678 17.9c4.078 18.647 32.692 33.282 32.692 51.339v17.4a32.69 32.69 0 0 1-32.692 32.692H33.192A32.69 32.69 0 0 1 .5 195.819v-17.4c0-18.057 32.692-40.44 32.692-55.273V0" transform="translate(1.5)" style="stroke-width:4px;stroke:#08297e;fill:none;stroke-miterlimit:10"/>
        <path data-name="Path 3328" d="M139.027 75.582V40.7H1.815v35.49z" transform="translate(7.441 183.901)" style="fill:#d8f1fd"/>
        <path data-name="Path 3329" d="M139.027 75.582V40.7H1.815v35.49z" transform="translate(7.441 183.901)" style="stroke:#8f2947;fill:none;stroke-miterlimit:10"/>
        <path data-name="Path 3330" d="M40.775 182.813H11.439V47.13h29.336z" transform="translate(50.928 212.956)" style="fill:#d8f1fd"/>
        <path data-name="Path 3331" d="M40.775 182.813H11.439V47.13h29.336z" transform="translate(50.928 212.956)" style="stroke:#8f2947;fill:none;stroke-miterlimit:10"/>
        <path data-name="Path 3332" d="M139.027 75.582V40.7H1.815v35.49z" transform="translate(7.441 183.901)" style="fill:#d8f1fd"/>
        <path data-name="Path 3333" d="M139.027 75.582V40.7H1.815v35.49z" transform="translate(7.441 183.901)" style="stroke:#8f2947;stroke-width:4px;fill:none;stroke-miterlimit:10"/>
        <path data-name="Path 3334" d="M40.775 182.813H11.439V47.13h29.336z" transform="translate(50.928 212.956)" style="fill:#d8f1fd"/>
        <path data-name="Path 3335" d="M40.775 182.813H11.439V47.13h29.336z" transform="translate(50.928 212.956)" style="stroke:#8f2947;stroke-width:4px;fill:none;stroke-miterlimit:10"/>
        <path data-name="Line 23" transform="translate(32.516 259.966)" style="fill:#d8f1fd" d="m0 0 29.844 45.401"/>
        <path data-name="Line 24" transform="translate(32.516 259.966)" style="stroke:#8f2947;stroke-width:4px;fill:none;stroke-miterlimit:10" d="m0 0 29.844 45.401"/>
        <path data-name="Line 25" transform="translate(91.703 260.089)" style="fill:#d8f1fd" d="M0 45.279 31.853 0"/>
        <path data-name="Line 26" transform="translate(91.703 260.089)" style="stroke:#8f2947;stroke-width:4px;fill:none;stroke-miterlimit:10" d="M0 45.279 31.853 0"/>
    </g>
</svg>
