<svg xmlns="http://www.w3.org/2000/svg" width="367.835" height="573.454" viewBox="0 0 367.835 573.454">
    <g data-name="KNEE LEGAMENT INJURY">
        <path data-name="Path 25251" d="M108.269 72.67c0 25.54-16.631 54.98-42.171 54.98S22.459 100.2 22.459 74.661s15.284-35.7 40.824-35.7 44.986 8.17 44.986 33.71" transform="translate(110.325 193.364)" style="fill:#d7f0fd"/>
        <path data-name="Path 25252" d="M44.385 152.969s-31.784 13.3-41.8-7.12c0 0 0-62.291 43.608-115.995 0 0-1.807 38.677 11 64.259 0 0-16.464 29.625-12.809 58.856" transform="translate(11.678 148.17)" style="fill:#d7f0fd"/>
        <path data-name="Path 25253" d="M42.952 54.557s-21.223 9.44-40.37 0c0 0 11.223 118.643 83.609 117.891 0 0-46.435-76.99-43.239-117.891" transform="translate(11.673 270.774)" style="fill:#d7f0fd"/>
        <path data-name="Path 25254" d="M131.959 268.814S117.648 79.9 89.025 68.453s-44.074-14.1-44.074-14.1 17.162 41.76 9.726 82.792c0 0 31.778 52.953 33.775 140.253" transform="translate(221.956 269.777)" style="fill:#d7f0fd"/>
        <path data-name="Path 25255" d="M64.79 0s0 48.081-33.227 88.5-21.265 137.444 0 141.428 30.567-50.5 45.189-57.151 27.907 7.979 46.518 0 43.859-1.324 55.821 22.594 23.924 45.189 39.87 25.254 1.33-95.69-11.962-123.6-38.254-77.5-38.254-94.772z" transform="translate(52.901)" style="fill:#d7f0fd"/>
        <path data-name="Path 25256" d="M117.514 326.786S61.7 229.116 40.774 204 4.494 118.881 21.239 95.166s23.721-5.158 79.53-22.117 58.606-12.767 87.909-22.535 54.414 53.024 43.251 103.252-18.849 129.764-10.823 154.881z" transform="translate(68.926 245.675)" style="fill:#d7f0fd"/>
        <path data-name="Path 25257" d="M65.93 0s0 51.772-35.779 95.3-22.9 148 0 152.293 32.917-54.384 48.659-61.54 30.054 8.587 50.09 0 47.228-1.431 60.108 24.33 25.761 48.659 42.935 27.192 1.431-103.043-12.88-133.1S177.87 21.02 177.87 2.415" transform="translate(38.01)" style="stroke:#08297e;fill:none;stroke-miterlimit:10;stroke-width:4px"/>
        <path data-name="Path 25258" d="M117.17 332.714S59.924 232.533 38.457 206.772s-37.21-87.3-20.036-111.63S42.75 89.853 100 72.459s60.108-13.1 90.163-23.113 55.815 54.384 44.366 105.905-19.338 133.1-11.1 158.858" transform="translate(54.034 239.748)" style="stroke:#08297e;fill:none;stroke-miterlimit:10;stroke-width:4px"/>
        <path data-name="Path 25259" d="M133.959 266.814S119.648 77.9 91.025 66.453s-44.074-14.1-44.074-14.1 17.162 41.76 9.726 82.792c0 0 31.778 52.953 33.775 140.253" transform="translate(231.882 259.85)" style="stroke:#08297e;fill:none;stroke-miterlimit:10;stroke-width:4px"/>
        <path data-name="Path 25260" d="M112.3 212.473S123.94 105.131 46.95 32.16" transform="translate(231.882 159.614)" style="stroke:#08297e;fill:none;stroke-miterlimit:10;stroke-width:4px"/>
        <path data-name="Path 25261" d="M79.732 121.636s7.281-31.342-34.27-81.8" transform="translate(224.493 197.732)" style="stroke:#08297e;fill:none;stroke-miterlimit:10;stroke-width:4px"/>
        <path data-name="Path 25262" d="M42.385 151.969s-31.784 13.3-41.8-7.12c0 0 0-62.291 43.608-115.995 0 0-1.807 38.677 11 64.259 0 0-16.464 29.625-12.808 58.856z" transform="translate(1.751 143.206)" style="stroke:#8f2947;fill:none;stroke-miterlimit:10;stroke-width:4px"/>
        <path data-name="Path 25263" d="M40.952 53.557S19.73 63 .582 53.557c0 0 11.223 118.643 83.609 117.891 0 0-46.435-76.99-43.239-117.891z" transform="translate(1.747 265.811)" style="stroke:#8f2947;fill:none;stroke-miterlimit:10;stroke-width:4px"/>
        <path data-name="Path 25264" d="M106.269 70.67c0 25.54-16.631 54.98-42.171 54.98S20.459 98.2 20.459 72.661s15.284-35.7 40.824-35.7 44.986 8.169 44.986 33.709z" transform="translate(100.399 183.438)" style="stroke:#08297e;fill:none;stroke-miterlimit:10;stroke-width:4px"/>
        <path data-name="Line 66" transform="translate(161.68 9.302)" style="stroke:#08297e;fill:none;stroke-miterlimit:10;stroke-width:4px" d="M0 0v65.833"/>
        <path data-name="Path 25265" d="M22.9 81.472s57.962 25.761 85.869-20.752" transform="translate(112.524 301.362)" style="stroke:#08297e;fill:none;stroke-miterlimit:10;stroke-width:4px"/>
        <path data-name="Path 25266" d="M19.422 41.28s48.743-48.659 91.993 0" transform="translate(95.253 97.542)" style="stroke:#08297e;fill:none;stroke-miterlimit:10;stroke-width:4px"/>
        <path data-name="Line 67" transform="translate(191.958 434.355)" style="stroke:#08297e;fill:none;stroke-miterlimit:10;stroke-width:4px" d="m0 0 29.339 120.217"/>
    </g>
</svg>
