<svg xmlns="http://www.w3.org/2000/svg" width="446.96" height="471.373" viewBox="0 0 446.96 471.373">
    <g data-name="Group 7120">
        <path data-name="Path 25377" d="M254.8.24s-12.08 58.823 79.053 75.706S418.4 245.453 418.4 245.453l-82.01 6.584-5.99-31.372s-20.643 55.651-22.838 82 28.823 125.048 28.823 125.048v42.818H74.733l3.8-58.285L65 366.072s-115.535-10.214-19.734-249.323c0 0 10.16-37.367 80.778-50.225 0 0 45.492-19.347 48.783-66.285" transform="translate(28.459 .841)" style="fill:#def2fc"/>
        <path data-name="Path 25378" d="M176.724.118s4.389 49.671-81.252 66.559S1.4 271.865 1.4 271.865s4.958 87.716 75.227 102.943 180.245 24.968 206.6 7.4 28.539-80.155-50.514-66.978-158.1-3.292-158.1-34.035" transform="translate(5.062 .355)" style="stroke:#08297e;fill:none;stroke-miterlimit:10;stroke-width:4px"/>
        <path data-name="Path 25379" d="M196.545.118s-12.08 49.671 79.055 66.559 84.544 169.5 84.544 169.5l-82.01 6.589-8.065-42.285s-19.721 75.222-21.915 101.572 29.98 116.385 29.98 116.385v42.823H16.479l7.686-45.018-3.042-42.1" transform="translate(65.207 .355)" style="stroke:#08297e;fill:none;stroke-miterlimit:10;stroke-width:4px"/>
        <path data-name="Path 25380" d="M28.775 32.974s-8.234 0-16.469 35.412-25.527 79.875 8.234 84.814 161.4-1.646 217.4 4.943 73.287 14 73.287 14l26.349-77.407s25.531-45.292-39.526-45.292-269.275-16.47-269.275-16.47" transform="translate(1.49 131.37)" style="fill:#def2fc"/>
        <path data-name="Path 25381" d="M28.775 32.974s-8.234 0-16.469 35.412-25.527 79.875 8.234 84.814 161.4-1.646 217.4 4.943 73.287 14 73.287 14l26.349-77.407s25.531-45.292-39.526-45.292-269.275-16.47-269.275-16.47z" transform="translate(1.49 131.37)" style="stroke:#8f2947;fill:none;stroke-miterlimit:10;stroke-width:4px"/>
        <path data-name="Path 25382" d="M17.8 26.1S35.443 7.724 65.089 11.839L207.908 342s-7.935 11.551-37.048 5.97C155.543 345.033 17.8 26.1 17.8 26.1" transform="translate(70.482 44.698)" style="fill:#def2fc"/>
        <path data-name="Path 25383" d="M17.8 26.1S35.443 7.724 65.089 11.839L207.908 342s-7.935 11.551-37.048 5.97C155.543 345.033 17.8 26.1 17.8 26.1z" transform="translate(70.482 44.698)" style="stroke:#8f2947;fill:none;stroke-miterlimit:10;stroke-width:4px"/>
        <path data-name="Path 25384" d="M17.434 330.554s7.761 6.848 29.157 6.848c23.043 0 39.985-27.157 39.985-27.157l200.78-286.331s-12.369-19.646-39.536-9.571z" transform="translate(69.016 45.616)" style="fill:#def2fc"/>
        <path data-name="Path 25385" d="M17.434 330.554s7.761 6.848 29.157 6.848c23.043 0 39.985-27.157 39.985-27.157l200.78-286.331s-12.369-19.646-39.536-9.571z" transform="translate(69.016 45.616)" style="stroke:#8f2947;fill:none;stroke-miterlimit:10;stroke-width:4px"/>
    </g>
</svg>
