<svg xmlns="http://www.w3.org/2000/svg" width="455.041" height="521.463" viewBox="0 0 455.041 521.463">
    <g data-name="Group 7089">
        <path data-name="Path 25011" d="M423.477 203.147c-73.395 17.758-96.97 75.6-99.485 171.35-3.307 125.861-152.435 185.531-194.092 86.839S171.557 272 179.492 232.17s-3.968-46.782-23.806-14.446-67.8 152.689-87.5 183.325c-24.56 38.18-47.607 10.77-47.607 10.77s-44.735-59.808 28.655-216.36 58.85-167.134 58.85-167.134C295.046-37.316 409.257 7.209 423.477 203.147z" transform="translate(31.1)" style="fill:#d7f0fd"/>
        <path data-name="Path 25012" d="M118.269 8.183S132.8 18.595 59.5 172.571c-16.24 34.108-26.685 63.55-33.112 88.715-6.4 25.056-14.2 44.559-17.076 61.849C7.855 331.853.646 321.6.5 335.155c-.339 33.545 28.619 55.009 28.619 55.009s43.964 20.169 62.113-17.219c5.9-12.167-2.482-10.687.622-16.79 22.117-43.458 56.588-133.791 73.962-161.681 19.811-31.808 31.7-24.968 23.773 14.2S98.458 337 140.061 434.078s208.677 37.642 211.979-86.151c2.509-94.18 27.736-164.163 101.037-181.63" transform="translate(1.501 36.849)" style="stroke:#08297e;fill:none;stroke-miterlimit:10;stroke-width:4px"/>
        <path data-name="Path 25013" d="M148.988 116.531c10.137 40.321-6.934 79.366-38.131 87.208s-64.694-18.5-74.826-58.817 6.934-79.366 38.125-87.208 64.695 18.496 74.832 58.817z" transform="translate(148.339 253.679)" style="stroke:#08297e;fill:none;stroke-miterlimit:10;stroke-width:4px"/>
        <path data-name="Path 25014" d="M123.98 8.183S40.773 40.5 51.339 102.572 113.826 312.2 73.384 366.379" transform="translate(226.258 36.849)" style="stroke:#08297e;fill:none;stroke-miterlimit:10;stroke-width:4px"/>
        <path data-name="Path 25015" d="M184.825 5.9s-92.452 31.7-72.641 116.225 35.516 165.088 34.928 174.333c0 0-10.7-43.584-58.476-48.867S23.5 286.322 40.11 307.9" transform="translate(152.206 26.547)" style="stroke:#08297e;fill:none;stroke-miterlimit:10;stroke-width:4px"/>
        <path data-name="Path 25016" d="M59.661 65.538s-18.633 62.19 15.986 101.945c24.753 28.429 52.665 28.759 63.561 26.778 32.7-5.949 31.665 7.66 20.2 21.979s-47.58 31.907-84.836 10.847C12.417 191.95 26.863 118.538 29.587 104.781 33.026 87.4 53.933 47 59.661 65.538z" transform="translate(117.257 273.695)" style="stroke:#8f2947;fill:none;stroke-miterlimit:10;stroke-width:4px"/>
    </g>
</svg>
