<svg xmlns="http://www.w3.org/2000/svg" width="65.985" height="71.293" viewBox="0 0 65.985 71.293">
    <path data-name="Path 24818" d="M59.593 2.729S45.307 14.34 41.884 14.463s-4.947-.44-6.858 4.209-2.137 7.631-.039 9.591 7.755-.687 9.587 2.348-.2 6.553 2.333 8.163 4.14 1.379 9.538-2.505.23-5.289.7-8.333A38.715 38.715 0 0 1 68.077 8.127" transform="translate(-3.634 -.15)" style="fill:#d7f0fd"/>
    <path data-name="Path 24819" d="M22.639 74.469S33.072 62.1 36.43 60.175s4.947-2.406 6.646-7.091.041-5.1-3.125-5.832-7.809-.483-10.256-5.03-7.16-.5-7.16-.5-3.358 1.922-1.173 8.225-5.562 17.82-5.562 17.82" transform="translate(-1.619 -4.4)" style="fill:#d7f0fd"/>
    <path data-name="Path 24820" d="M6.135 66.319s4.72-9.921 8.13-11.529 3.927-3.865 2.593-5.111-3.779-4.59-5.94-1.194.629 3.581.629 3.581-.989-.828-1.606.768-7.228 13.12-7.228 13.12" transform="translate(-.13 -5.19)" style="fill:#d7f0fd"/>
    <path data-name="Path 24821" d="M59.514.388S43.791 13.167 40.023 13.3s-5.445-.484-7.549 4.633-2.351 8.4-.043 10.559 8.536-.758 10.553 2.583-.216 7.213 2.569 8.985 4.558 1.518 10.5-2.757.252-5.822.773-9.173S60.1 15.027 68.853 6.328" transform="translate(-3.326 .117)" style="stroke:#08297e;fill:none;stroke-miterlimit:10;stroke-width:1.3px"/>
    <path data-name="Path 24822" d="M21.351 75.035s11.241-13.33 14.859-15.4 5.33-2.592 7.161-7.641S43.416 46.5 40 45.71s-8.413-.519-11.051-5.419-7.714-.534-7.714-.534-3.618 2.07-1.264 8.861-6 19.2-6 19.2" transform="translate(-1.412 -4.161)" style="stroke:#08297e;fill:none;stroke-miterlimit:10;stroke-width:1.3px"/>
    <path data-name="Path 24823" d="M4.4 67.939s5.458-11.482 9.4-13.345 4.545-4.472 3-5.914-4.368-5.314-6.869-1.38.727 4.145.727 4.145-1.143-.958-1.857.889S.434 67.516.434 67.516" transform="translate(.13 -5.028)" style="stroke:#08297e;fill:none;stroke-miterlimit:10;stroke-width:1.3px"/>
    <path data-name="Line 22" transform="translate(34.731 35.858)" style="fill:#d7f0fd" d="M5.913 0 0 5.118"/>
    <path data-name="Path 24824" d="m44.12 38.112-11.1 3.262a10.222 10.222 0 0 0 5.168 3.863l6.034-5.2z" transform="translate(-3.58 -4.178)" style="fill:#d7f0fd"/>
    <path data-name="Line 23" transform="translate(27.543 31.194)" style="stroke:#08297e;fill:none;stroke-miterlimit:10;stroke-width:1.3px" d="M0 4.937 12.115 0"/>
    <path data-name="Line 24" transform="translate(32.591 36.211)" style="stroke:#08297e;fill:none;stroke-miterlimit:10;stroke-width:1.3px" d="M0 4.169 7.642 0"/>
    <path data-name="Path 24825" d="m35.806 33.086 1.426 6.131.7-1.105.529.8.688-1.082.3 1.707.886-1.392.247 1.148.9-.877.823-4.781s-.837-.729-6.5-.546" transform="translate(-3.897 -3.602)" style="fill:#d7f0fd"/>
    <path data-name="Path 24826" d="m34.794 44.19 1.333-.648 1.3-2.048.737.469.472-1.2 1.14 1.013.497-.776.522 1.079.885-1.392.341.459-.154 1.96.761 2.97s-4.893-.363-7.835-1.889" transform="translate(-3.782 -4.471)" style="fill:#d7f0fd"/>
    <path data-name="Path 24827" d="m35.806 33.086 1.426 4.359.7-1.105.529.8.688-1.082.3 1.707.886-1.392.247 1.148.9-.877.823-3.009s-.835-.735-6.499-.549z" transform="translate(-3.897 -3.602)" style="stroke:#8f2947;fill:none;stroke-miterlimit:10;stroke-width:1.3px"/>
    <path data-name="Path 24828" d="m34.794 44.3 1.333-.648.417-1.162.737.469.472-1.2 1.14 1.013.494-.772.522 1.079.885-1.392.341.459-.154 1.96 1.647 2.084s-4.893-.36-7.834-1.89z" transform="translate(-3.782 -4.585)" style="stroke:#8f2947;fill:none;stroke-miterlimit:10;stroke-width:1.3px"/>
</svg>
