<svg xmlns="http://www.w3.org/2000/svg" width="83.312" height="73.734" viewBox="0 0 83.312 73.734">
    <g data-name="Group 7122">
        <path data-name="Path 25386" d="M55.763 9.121s2.362 25.534 1.968 29.273-.44 11.218-12.445 17.123a210.672 210.672 0 0 0-22.044 12.6c-1.574.984-6.4 1.181-8.315 1.279s-4.773.935-4.33 4.281 4.871 3.789 9.152 2.361 6.4.64 14.762.345 12.645-2.608 15.548-2.657a66.382 66.382 0 0 1 11.17 1.083c3.985.688 16.666 5.005 21.12-3.123 3.077-5.614.943-14.764-1.427-18.379-2.891-4.409-1.965-21.652-1.62-24.162s2.062-21.352 2.062-21.352" transform="translate(-5.027 -3.069)" style="fill:#def2fc"/>
        <path data-name="Path 25387" d="M51.528 9.115s2.6 20.365 2.166 24.481 2.383 12.349-10.832 18.848A231.8 231.8 0 0 0 18.6 66.31c-1.734 1.083-7.041 1.3-9.153 1.408s-5.257 1.03-4.769 4.712 5.362 4.17 10.074 2.6 7.041.7 16.248.379 13.92-2.87 17.116-2.924a73.01 73.01 0 0 1 12.295 1.192c4.387.758 14.461 3.791 18.469-2s.271-17.278-1.571-21.665-.975-23.83-.6-26.593S77.8 7.653 77.8 7.653" transform="translate(-3.975 -3.044)" style="stroke:#08297e;fill:none;stroke-miterlimit:10;stroke-width:1.3px"/>
        <path data-name="Path 25388" d="m71.206 9.761.65 18.036 4.712 3.29L81.28 27.8V9.761" transform="translate(-15.8 -3.418)" style="stroke:#8f2947;fill:none;stroke-miterlimit:10;stroke-width:1.3px"/>
        <path data-name="Path 25389" d="m65.228 40.78 5.037 1.787 4.225-1.787v16.086a15.584 15.584 0 0 0 4.062 8.934c3.9 4.387-1.3 8.611-3.249 8.937s-6.175-1.788-7.15-3.087-2.762-1.3-5.2.325-16.086 2.667-18.686 2.8-12.186-1.175-2.437-6.86 21.286-7.637 22.1-13.486a127.063 127.063 0 0 0 1.298-13.649z" transform="translate(-9.822 -8.927)" style="stroke:#8f2947;fill:none;stroke-miterlimit:10;stroke-width:1.3px"/>
        <path data-name="Line 85" transform="translate(41.341 20.947)" style="stroke:#8f2947;fill:none;stroke-miterlimit:10;stroke-width:1.3px" d="m0 0 5.694 2.669"/>
        <path data-name="Line 86" transform="translate(39.633 28.159)" style="stroke:#8f2947;fill:none;stroke-miterlimit:10;stroke-width:1.3px" d="M6.036 0 0 .174"/>
        <path data-name="Line 87" transform="translate(41.341 33.143)" style="stroke:#8f2947;fill:none;stroke-miterlimit:10;stroke-width:1.3px" d="M5.694 0 0 2.763"/>
        <path data-name="Line 88" transform="translate(77.567 32.655)" style="stroke:#8f2947;fill:none;stroke-miterlimit:10;stroke-width:1.3px" d="m0 0 4.252 2.345"/>
        <path data-name="Line 89" transform="translate(78.651 28.427)" style="stroke:#8f2947;fill:none;stroke-miterlimit:10;stroke-width:1.3px" d="m0 0 4.641.148"/>
        <path data-name="Line 90" transform="translate(78.087 21.576)" style="stroke:#8f2947;fill:none;stroke-miterlimit:10;stroke-width:1.3px" d="M4.601 0 0 2.991"/>
        <path data-name="Rectangle 1823" transform="rotate(-54.53 11.628 -9.33)" style="fill:#def2fc" d="M0 0h6.818v25.509H0z"/>
        <path data-name="Rectangle 1824" transform="rotate(-54.525 15.831 -13.002)" style="stroke:#08297e;fill:none;stroke-miterlimit:10;stroke-width:1.3px" d="M0 0h7.631v21.622H0z"/>
        <path data-name="Line 91" transform="translate(37.456 17.162)" style="stroke:#08297e;fill:none;stroke-miterlimit:10;stroke-width:1.3px" d="M16.028 11.422 0 0"/>
    </g>
</svg>
