<svg xmlns="http://www.w3.org/2000/svg" width="69.754" height="71.825" viewBox="0 0 69.754 71.825">
    <g data-name="CARPAL TUNNEL SYNDROME">
        <path data-name="Path 24813" d="M51.94 70.628s-7.334-12.952-12.483-13.576-19.817-.936-22.157-.936-9.986-2.34-3.589-4.525 8.895-.936 12.172-.936 4.681-4.838.312-7.178S8.873 30.993 7.468 29.433s-5.3-5.774-1.4-6.71 13.888 11.859 19.662 11.7-12.171-15.6-12.171-15.6-6.086-6.086-1.717-7.8 16.317 14.353 16.317 14.353 7.865 6.554 2.56-2.809-7.334-12.327-7.334-12.327-4.058-10.455 2.34-5.462S36.6 20.694 36.6 20.694s5.042 5.461 2.7-2.028S34.152 4 38.053 4.622s7.021 13.888 11.234 22.314 11.235 20.285 14.98 24.03a61.4 61.4 0 0 1 5.149 5.617" transform="translate(-.184 -.11)" style="fill:#d7f0fd"/>
        <path data-name="Path 24814" d="M50.655 71.364s-7.734-13.657-13.164-14.316-20.9-.987-23.366-.987-10.531-2.468-3.785-4.772 9.38-.989 12.835-.989 4.936-5.1.329-7.569S5.24 29.569 3.759 27.924s-5.595-6.088-1.481-7.076 14.645 12.506 20.733 12.341-12.835-16.455-12.835-16.455-6.417-6.417-1.81-8.227 17.212 15.138 17.212 15.138 8.293 6.911 2.7-2.962-7.734-13-7.734-13-4.279-11.023 2.467-5.758 11.466 16.784 11.466 16.784 5.318 5.759 2.849-2.139S31.9 1.1 36.01 1.761s7.4 14.645 11.847 23.53 11.847 21.391 15.8 25.34a64.747 64.747 0 0 1 5.43 5.924" transform="translate(.149 .141)" style="stroke:#08297e;fill:none;stroke-miterlimit:10;stroke-width:1.3px"/>
        <path data-name="Path 24815" d="M40.845 53.911s9.653-.878 13.6-10.092c0 0 3.51 8.776 5.7 10.092 0 0-7.679 1.316-9.653 8.337z" transform="translate(-3.314 -3.578)" style="fill:#fff"/>
        <path data-name="Path 24816" d="M44.288 54.726s8.079-.734 11.385-8.447c0 0 2.938 7.345 4.775 8.447 0 0-6.427 1.1-8.08 6.978z" transform="translate(-3.61 -3.789)" style="fill:#d7f0fd"/>
        <path data-name="Path 24817" d="M40.845 53.911s9.653-.878 13.6-10.092c0 0 3.51 8.776 5.7 10.092 0 0-7.679 1.316-9.653 8.337z" transform="translate(-3.314 -3.578)" style="stroke:#8f2947;fill:none;stroke-miterlimit:10;stroke-width:1.3px"/>
    </g>
</svg>
