<svg xmlns="http://www.w3.org/2000/svg" width="86.203" height="74.248" viewBox="0 0 86.203 74.248">
    <g data-name="HIP REPLACEMENT">
        <path data-name="Path 24829" d="M60.7 6.567s-8.512-3.036-13.721 2.7-1.874 11.131 0 13.154 9.834-.784 12.768 5 1.162 7.9.954 9.73S63.7 53.678 74.828 52.383s9.782-5.005 9.782-5.005l-1.349-10.225S70.106 42.872 69.094 31.8s1.349-8.034 3.036-12.419-3.036-7.755-1.012-10.791 1.349-6.071-1.349-6.071c0 0-6.175 4.694-9.065 4.048" transform="translate(.855 .183)" style="fill:#d7f0fd"/>
        <path data-name="Path 24830" d="M17.586 50.65S24.357 36.193 28.2 34.729s10.431 0 10.431 0-.457 3.477.369 4.671c0 0-10.065 1.6-14.824 7.619s-6.588 3.636-6.588 3.636" transform="translate(.41 .711)" style="fill:#d7f0fd"/>
        <path data-name="Path 24831" d="M49.595 36.114a5.806 5.806 0 1 1-5.805-5.805 5.805 5.805 0 0 1 5.805 5.805" transform="translate(.751 .648)" style="fill:#d7f0fd"/>
        <path data-name="Path 24832" d="M1.61 68.088S12.224 52.9 12.773 44.48 11.492 33.133 17.9 31.852s4.575 4.209 6.588 5.856 6.954 6.222 7.869 11.346-7.871 3.846-10.433 8.419-9.516 16.1-9.516 16.1z" transform="translate(.143 .67)" style="fill:#d7f0fd"/>
        <path data-name="Path 24833" d="M.41 66.648s10.614-15.19 11.163-23.608-1.281-11.347 5.127-12.628 4.575 4.209 6.588 5.856 6.954 6.222 7.869 11.346-7.869 3.843-10.431 8.418-9.516 16.1-9.516 16.1" transform="translate(.123 .646)" style="stroke:#08297e;fill:none;stroke-miterlimit:10;stroke-width:1.3px"/>
        <path data-name="Path 24834" d="M16.763 49.131s6.771-14.457 10.614-15.921 10.431 0 10.431 0-.458 3.477.366 4.667c0 0-10.065 1.6-14.824 7.619s-6.587 3.635-6.587 3.635z" transform="translate(.396 .685)" style="stroke:#08297e;fill:none;stroke-miterlimit:10;stroke-width:1.3px"/>
        <path data-name="Path 24835" d="M48.771 34.6a5.806 5.806 0 1 1-5.805-5.805 5.805 5.805 0 0 1 5.805 5.805z" transform="translate(.737 .622)" style="stroke:#8f2947;fill:none;stroke-miterlimit:10;stroke-width:1.3px"/>
        <path data-name="Path 24836" d="M54.849 36.167A8.882 8.882 0 0 1 46.1 45.18a15.266 15.266 0 0 1-4.15-1.08s-.22-4.045-.328-7.471c-.118-3.67-.407-7.936-.407-7.936s3.079-1.539 4.889-1.539a8.882 8.882 0 0 1 8.745 9.013" transform="translate(.805 .595)" style="fill:#d7f0fd"/>
        <path data-name="Path 24837" d="M56.139 34.648a9.013 9.013 0 0 1-9.013 9.013 16.126 16.126 0 0 1-4.282-1.08s-.226-4.045-.339-7.471c-.121-3.67-.419-7.936-.419-7.936s3.173-1.539 5.04-1.539a9.013 9.013 0 0 1 9.013 9.013z" transform="translate(.819 .57)" style="stroke:#8f2947;fill:none;stroke-miterlimit:10;stroke-width:1.3px"/>
        <path data-name="Path 24838" d="M58.721 4.892S49.485 1.6 43.832 7.82s-2.033 12.078 0 14.275 10.67-.851 13.855 5.43 1.261 8.574 1.035 10.559 3.248 17.931 15.326 16.527 10.615-5.431 10.615-5.431L83.2 38.084s-14.276 6.206-15.374-5.807S69.29 23.559 71.12 18.8s-3.294-8.418-1.1-11.712S71.486.5 68.558.5c0 0-6.701 5.094-9.837 4.392z" transform="translate(.798 .15)" style="stroke:#08297e;fill:none;stroke-miterlimit:10;stroke-width:1.3px"/>
    </g>
</svg>
