<svg xmlns="http://www.w3.org/2000/svg" width="24.476" height="68.668" viewBox="0 0 24.476 68.668">
    <g data-name="KNEE REPLACEMENT">
        <path data-name="Path 3323" d="M20.1 60.728c.54-2.491 4.326-4.447 4.326-6.86v-2.325a4.347 4.347 0 0 0-4.326-4.369H8.675a4.347 4.347 0 0 0-4.326 4.369v2.325c0 2.413 4.326 5.4 4.326 7.386v16.455h11.2V63.12z" transform="translate(-.624 -9.484)" style="fill:#d7f0fd"/>
        <path data-name="Path 3324" d="M20.263 18.553c.579 2.6 4.64 4.638 4.64 7.154v2.425a4.6 4.6 0 0 1-4.64 4.555H8.01a4.6 4.6 0 0 1-4.64-4.555v-2.425c0-2.516 4.64-5.635 4.64-7.7V.844h12.015v15.214z" transform="translate(-.427 -.169)" style="fill:#d7f0fd"/>
        <path data-name="Path 3325" d="M7.181 25.633S3.014 30 2.724 31.73A3.224 3.224 0 0 0 5.6 35.894c3.522.509 3.793-1.593 4.064-2.126a2.323 2.323 0 0 1 2.559-1.5c1.776.153 2.318 1.892 2.589 2.581a3.083 3.083 0 0 0 3.795 1.551c2.208-.658 2.3-3.028 1.761-5.265s-4.254-6.406-5.554-5.843c-1.676.727-1.322.9-3.174.9-2.098-.002-2.768-1.946-4.459-.559z" transform="translate(-.279 -5.053)" style="stroke-width:1.3px;stroke:#08297e;fill:none;stroke-miterlimit:10"/>
        <path data-name="Path 3326" d="M17.491 77.621V61.815l.243-2.592c.59-2.7 4.733-4.819 4.733-7.433v-2.519a4.733 4.733 0 0 0-4.733-4.733H5.233A4.733 4.733 0 0 0 .5 49.271v2.519c0 2.614 4.733 5.855 4.733 8v17.831" transform="translate(.15 -8.954)" style="stroke-width:1.3px;stroke:#08297e;fill:none;stroke-miterlimit:10"/>
        <path data-name="Path 3327" d="M17.491 0v15.807l.243 2.592c.59 2.7 4.733 4.819 4.733 7.433v2.518a4.733 4.733 0 0 1-4.733 4.733H5.233A4.733 4.733 0 0 1 .5 28.35v-2.519c0-2.614 4.733-5.855 4.733-8V0" transform="translate(.15)" style="stroke-width:1.3px;stroke:#08297e;fill:none;stroke-miterlimit:10"/>
        <path data-name="Path 3328" d="M21.68 45.749V40.7H1.815v5.138z" transform="translate(-.114 -8.182)" style="fill:#d8f1fd"/>
        <path data-name="Path 3329" d="M21.68 45.749V40.7H1.815v5.138z" transform="translate(-.114 -8.182)" style="stroke:#8f2947;fill:none;stroke-miterlimit:10"/>
        <path data-name="Path 3330" d="M15.686 66.774h-4.247V47.13h4.247z" transform="translate(-2.049 -9.475)" style="fill:#d8f1fd"/>
        <path data-name="Path 3331" d="M15.686 66.774h-4.247V47.13h4.247z" transform="translate(-2.049 -9.475)" style="stroke:#8f2947;fill:none;stroke-miterlimit:10"/>
        <path data-name="Path 3332" d="M21.68 45.749V40.7H1.815v5.138z" transform="translate(-.114 -8.182)" style="fill:#d8f1fd"/>
        <path data-name="Path 3333" d="M21.68 45.749V40.7H1.815v5.138z" transform="translate(-.114 -8.182)" style="stroke:#8f2947;stroke-width:1.3px;fill:none;stroke-miterlimit:10"/>
        <path data-name="Path 3334" d="M15.686 66.774h-4.247V47.13h4.247z" transform="translate(-2.049 -9.475)" style="fill:#d8f1fd"/>
        <path data-name="Path 3335" d="M15.686 66.774h-4.247V47.13h4.247z" transform="translate(-2.049 -9.475)" style="stroke:#8f2947;stroke-width:1.3px;fill:none;stroke-miterlimit:10"/>
        <path data-name="Line 23" transform="translate(5.068 37.638)" style="fill:#d8f1fd" d="m0 0 4.321 6.573"/>
        <path data-name="Line 24" transform="translate(5.068 37.638)" style="stroke:#8f2947;stroke-width:1.3px;fill:none;stroke-miterlimit:10" d="m0 0 4.321 6.573"/>
        <path data-name="Line 25" transform="translate(13.637 37.655)" style="fill:#d8f1fd" d="M0 6.555 4.612 0"/>
        <path data-name="Line 26" transform="translate(13.637 37.655)" style="stroke:#8f2947;stroke-width:1.3px;fill:none;stroke-miterlimit:10" d="M0 6.555 4.612 0"/>
    </g>
</svg>
