<svg xmlns="http://www.w3.org/2000/svg" width="49.206" height="75.601" viewBox="0 0 49.206 75.601">
    <g data-name="KNEE LEGAMENT INJURY">
        <path data-name="Path 25251" d="M33.743 43.393c0 3.359-2.187 7.23-5.545 7.23s-5.738-3.609-5.738-6.968 2.01-4.695 5.368-4.695 5.916 1.074 5.916 4.433" transform="translate(-4.548 -8.409)" style="fill:#d7f0fd"/>
        <path data-name="Path 25252" d="M8.08 46.044s-4.18 1.749-5.5-.936a26.6 26.6 0 0 1 5.737-15.254S8.08 34.94 9.764 38.3c0 0-2.165 3.9-1.684 7.74" transform="translate(-.257 -6.444)" style="fill:#d7f0fd"/>
        <path data-name="Path 25253" d="M7.891 54.557a6.908 6.908 0 0 1-5.309 0s1.476 15.6 10.995 15.5c0 0-6.106-10.124-5.686-15.5" transform="translate(-.257 -11.776)" style="fill:#d7f0fd"/>
        <path data-name="Path 25254" d="M56.393 82.557s-1.882-24.842-5.646-26.347a32.371 32.371 0 0 0-5.8-1.854 22.189 22.189 0 0 1 1.283 10.887s4.179 6.963 4.441 18.443" transform="translate(-9.403 -11.733)" style="fill:#d7f0fd"/>
        <path data-name="Path 25255" d="M17.977 0a20.165 20.165 0 0 1-4.369 11.638c-4.369 5.315-2.8 18.074 0 18.6s4.02-6.641 5.942-7.515 3.67 1.049 6.117 0a5.731 5.731 0 0 1 7.34 2.971c1.573 3.146 3.146 5.942 5.243 3.321s.175-12.583-1.573-16.254S31.647 2.567 31.647.3z" transform="translate(-2.05)" style="fill:#d7f0fd"/>
        <path data-name="Path 25256" d="M27.714 85.963s-7.34-12.844-10.091-16.146-4.771-11.193-2.569-14.317 3.119-.678 10.458-2.908 7.707-1.679 11.56-2.963 7.155 6.973 5.687 13.578-2.479 17.064-1.423 20.367z" transform="translate(-2.747 -10.684)" style="fill:#d7f0fd"/>
        <path data-name="Path 25257" d="M15.521 0a21.715 21.715 0 0 1-4.7 12.531c-4.7 5.723-3.011 19.462 0 20.026s4.328-7.151 6.4-8.092 3.952 1.129 6.587 0a6.17 6.17 0 0 1 7.9 3.2c1.694 3.388 3.388 6.4 5.646 3.576s.188-13.55-1.694-17.5S30.241 2.764 30.241.318" transform="translate(-1.402)" style="stroke:#08297e;fill:none;stroke-miterlimit:10;stroke-width:1.3px"/>
        <path data-name="Path 25258" d="M25.063 85.705s-7.528-13.174-10.351-16.561-4.893-11.48-2.635-14.679 3.2-.7 10.727-2.983 7.9-1.722 11.856-3.039S42 55.594 40.5 62.369s-2.543 17.5-1.459 20.89" transform="translate(-2.099 -10.427)" style="stroke:#08297e;fill:none;stroke-miterlimit:10;stroke-width:1.3px"/>
        <path data-name="Path 25259" d="M58.392 80.557s-1.881-24.842-5.645-26.347a32.371 32.371 0 0 0-5.8-1.854 22.189 22.189 0 0 1 1.283 10.887s4.179 6.963 4.441 18.443" transform="translate(-9.834 -11.301)" style="stroke:#08297e;fill:none;stroke-miterlimit:10;stroke-width:1.3px"/>
        <path data-name="Path 25260" d="M55.544 55.871s1.531-14.115-8.593-23.711" transform="translate(-9.834 -6.942)" style="stroke:#08297e;fill:none;stroke-miterlimit:10;stroke-width:1.3px"/>
        <path data-name="Path 25261" d="M49.969 50.6s.957-4.121-4.506-10.756" transform="translate(-9.513 -8.599)" style="stroke:#08297e;fill:none;stroke-miterlimit:10;stroke-width:1.3px"/>
        <path data-name="Path 25262" d="M6.08 45.044s-4.18 1.749-5.5-.936a26.6 26.6 0 0 1 5.737-15.254S6.08 33.94 7.764 37.3c0 0-2.164 3.9-1.684 7.744z" transform="translate(.174 -6.228)" style="stroke:#8f2947;fill:none;stroke-miterlimit:10;stroke-width:1.3px"/>
        <path data-name="Path 25263" d="M5.891 53.557a6.908 6.908 0 0 1-5.309 0s1.476 15.6 10.995 15.5c0 .003-6.107-10.122-5.686-15.5z" transform="translate(.175 -11.56)" style="stroke:#8f2947;fill:none;stroke-miterlimit:10;stroke-width:1.3px"/>
        <path data-name="Path 25264" d="M31.743 41.393c0 3.359-2.187 7.23-5.545 7.23s-5.738-3.609-5.738-6.968 2.01-4.695 5.368-4.695 5.915 1.074 5.915 4.433z" transform="translate(-4.116 -7.978)" style="stroke:#08297e;fill:none;stroke-miterlimit:10;stroke-width:1.3px"/>
        <path data-name="Line 66" transform="translate(21.711 1.223)" style="stroke:#08297e;fill:none;stroke-miterlimit:10;stroke-width:1.3px" d="M0 0v8.657"/>
        <path data-name="Path 25265" d="M22.9 63.449s7.622 3.388 11.292-2.729" transform="translate(-4.643 -13.107)" style="stroke:#08297e;fill:none;stroke-miterlimit:10;stroke-width:1.3px"/>
        <path data-name="Path 25266" d="M19.422 22.5s6.41-6.4 12.1 0" transform="translate(-3.892 -4.242)" style="stroke:#08297e;fill:none;stroke-miterlimit:10;stroke-width:1.3px"/>
        <path data-name="Line 67" transform="translate(25.693 57.117)" style="stroke:#08297e;fill:none;stroke-miterlimit:10;stroke-width:1.3px" d="m0 0 3.858 15.808"/>
    </g>
</svg>
