<svg xmlns="http://www.w3.org/2000/svg" width="87.033" height="71.883" viewBox="0 0 87.033 71.883">
    <g data-name="SHOULDER SURGERY">
        <path data-name="Path 25237" d="M78.536 7.359s-1.62 7.868-17.589 10.877-20.135 9.952-20.135 29.624.926 23.605.926 23.605h15.345l2.591-14.348 4.744 15.522h29.164V7.025z" transform="translate(-7.2 -.937)" style="fill:#d7f0fd"/>
        <path data-name="Path 25238" d="M75.851 6.3s-1.621 7.87-17.589 10.879S38.127 27.131 38.127 46.8s.926 23.605.926 23.605" transform="translate(-6.713 -.805)" style="stroke:#08297e;fill:none;stroke-miterlimit:10;stroke-width:1.3px"/>
        <path data-name="Line 64" transform="translate(86.383 5.162)" style="stroke:#08297e;fill:none;stroke-miterlimit:10;stroke-width:1.3px" d="M0 65.614V0"/>
        <path data-name="Path 25239" d="M60.684 82.736 62.5 69.218l3.321 13.765" transform="translate(-10.801 -12.207)" style="stroke:#08297e;fill:none;stroke-miterlimit:10;stroke-width:1.3px"/>
        <path data-name="Path 25240" d="m46.667 75.328 1.389-29.16s-4.32-7.561-2.931-8.949 3.394-2.16 4.782-3.394 2.16-1.543 5.4 0 4.629 1.234 4.629 6.326-4.937 2.623-5.4 6.171-2.143 31.166-2.143 31.166z" transform="translate(-7.931 -5.604)" style="fill:#fff"/>
        <path data-name="Path 25241" d="m49.763 76.3 1.269-29.216s-3.947-6.908-2.679-8.177 3.1-1.973 4.371-3.1 1.973-1.41 4.934 0 4.229 1.128 4.229 5.781-4.511 2.4-4.934 5.639-1.959 29.282-1.959 29.282z" transform="translate(-8.521 -5.98)" style="fill:#d7f0fd"/>
        <path data-name="Path 25242" d="m47.254 76.133 1.427-29.965s-4.32-7.561-2.932-8.949 3.395-2.16 4.783-3.394 2.16-1.543 5.4 0 4.629 1.234 4.629 6.326-4.937 2.623-5.4 6.171S53.1 76.077 53.1 76.077" transform="translate(-8.045 -5.604)" style="stroke:#08297e;fill:none;stroke-miterlimit:10;stroke-width:1.3px"/>
        <path data-name="Path 25243" d="M59.367 28.215s8.469-3.633 12.412-3.17S85.75 29.52 89.916 28.9l2.469 4.166s-7.714-.155-13.731-2.777-9.721-1.738-13.115-1.255a11.971 11.971 0 0 1-6.171-.82" transform="translate(-10.562 -4.195)" style="fill:#fff"/>
        <path data-name="Path 25244" d="M90.467 36s-9.257 2.632-9.412 9.262c0 0 6.789-7.1 14.349-6.022v2.777s-14.04 1.389-16.2 12.034c0 0 7.579-9.865 17.126-8.79v2.973s-17.589 3.4-18.206 16.8c0 0 7.252-11.066 16.818-11.718V56.3s-12.19 1.609-17.589 17.655l-2.092 1.715s-.995-13.1 1.165-24.689 7.427-16.37 13.125-17.6z" transform="translate(-13.401 -5.712)" style="fill:#fff"/>
        <path data-name="Path 25245" d="M92.729 35.4s-9.257 2.632-9.413 9.262c0 0 6.789-7.1 14.349-6.022v2.78s-14.04 1.389-16.2 12.034c0 0 7.579-9.865 17.126-8.79v2.973S81 51.042 80.385 64.436c0 0 7.252-11.066 16.818-11.718V55.7s-12.19 1.611-17.589 17.657l-2.09 1.715s-1-13.1 1.164-24.689 7.427-16.37 13.125-17.6z" transform="translate(-13.811 -5.604)" style="fill:#d7f0fd"/>
        <path data-name="Path 25246" d="M90.467 36s-9.257 2.632-9.412 9.262c0 0 6.789-7.1 14.349-6.022v2.777s-14.04 1.389-16.2 12.034c0 0 7.579-9.865 17.126-8.79v2.973s-17.589 3.4-18.206 16.8c0 0 7.252-11.066 16.818-11.718V56.3s-12.19 1.609-17.589 17.655l-2.092 1.715s-.995-13.1 1.165-24.689 7.427-16.37 13.125-17.6z" transform="translate(-13.401 -5.712)" style="stroke:#08297e;fill:none;stroke-miterlimit:10;stroke-width:1.3px"/>
        <path data-name="Path 25247" d="M59.367 29.786s8.469-3.633 12.412-3.17 13.972 4.475 18.137 3.857l2.469 4.166s-7.714-.155-13.731-2.777-9.721-1.738-13.115-1.255a11.971 11.971 0 0 1-6.171-.82" transform="translate(-10.562 -4.48)" style="fill:#d7f0fd"/>
        <path data-name="Path 25248" d="M59.367 28.215s8.469-3.633 12.412-3.17S85.75 29.52 89.916 28.9l2.469 4.166s-7.714-.155-13.731-2.777-9.721-1.738-13.115-1.255a11.971 11.971 0 0 1-6.172-.819z" transform="translate(-10.562 -4.195)" style="stroke:#08297e;fill:none;stroke-miterlimit:10;stroke-width:1.3px"/>
        <path data-name="Path 25249" d="M60.211 31.628c.156-.46.716-1.394-.591-1.615-.262-.044-2.872.276-3.374-.612-1.345-2.376-3.1-3.07-4.145-1.308-.976 1.639-.313 2.874 2.69 2.486a3.873 3.873 0 0 1 3.184 1.153c.6.472 1.416.735 1.937.174z" transform="translate(-9.169 -4.576)" style="stroke:#8f2947;fill:none;stroke-miterlimit:10;stroke-width:1.3px"/>
        <path data-name="Rectangle 1499" transform="rotate(-54.53 12.313 -9.18)" style="fill:#d7f0fd" d="M0 0h5.399v20.198H0z"/>
        <path data-name="Rectangle 1500" transform="rotate(-54.526 15.64 -12.087)" style="stroke:#08297e;fill:none;stroke-miterlimit:10;stroke-width:1.3px" d="M0 0h6.043v17.121H0z"/>
        <path data-name="Rectangle 1501" transform="rotate(-54.522 10.35 -10.96)" style="stroke:#08297e;fill:none;stroke-miterlimit:10;stroke-width:1.3px" d="M0 0h3.588v4.781H0z"/>
        <path data-name="Line 65" transform="translate(32.42 15.365)" style="stroke:#08297e;fill:none;stroke-miterlimit:10;stroke-width:1.3px" d="M12.692 9.045 0 0"/>
        <path data-name="Path 25250" d="M1.511 7.434c6.472-8.3 12.251-4.762 12.251-4.762l.8-1.125S7.185-2.863.407 6.648" transform="translate(.123 .241)" style="stroke:#08297e;fill:none;stroke-miterlimit:10;stroke-width:1.3px"/>
    </g>
</svg>
