<svg xmlns="http://www.w3.org/2000/svg" width="69.048" height="72.539" viewBox="0 0 69.048 72.539">
  <g id="Group_7123" data-name="Group 7123" transform="translate(-81.846 -6010.956)">
    <path id="Path_25377" data-name="Path 25377" d="M45.314.24S43.457,9.282,57.466,11.877s13,26.056,13,26.056L57.855,38.945l-.92-4.822s-3.173,8.555-3.511,12.6S57.855,65.95,57.855,65.95v6.582H17.635l.583-8.959-2.08-7.1S-1.621,54.9,13.105,18.149c0,0,1.562-5.744,12.417-7.72,0,0,6.993-2.974,7.5-10.189" transform="translate(80.416 6010.963)" fill="#def2fc"/>
    <path id="Path_25378" data-name="Path 25378" d="M28.347.118s.675,7.635-12.49,10.231S1.4,41.89,1.4,41.89,2.158,55.374,12.96,57.714s27.707,3.838,31.759,1.138,4.387-12.321-7.765-10.3-24.3-.506-24.3-5.232" transform="translate(81.785 6010.992)" fill="none" stroke="#08297e" stroke-miterlimit="10" stroke-width="1.3"/>
    <path id="Path_25379" data-name="Path 25379" d="M44.158.118S42.3,7.753,56.31,10.349s13,26.055,13,26.055L56.7,37.417l-1.24-6.5S52.428,42.48,52.091,46.531,56.7,64.421,56.7,64.421V71H16.479l1.181-6.92-.468-6.472" transform="translate(78.266 6010.992)" fill="none" stroke="#08297e" stroke-miterlimit="10" stroke-width="1.3"/>
    <path id="Path_25380" data-name="Path 25380" d="M4.846,32.974s-1.266,0-2.532,5.443S-1.609,50.7,3.58,51.455s24.81-.253,33.418.76,11.265,2.152,11.265,2.152l4.05-11.9s3.925-6.962-6.076-6.962S4.846,32.974,4.846,32.974" transform="translate(81.994 6003.326)" fill="#def2fc"/>
    <path id="Path_25381" data-name="Path 25381" d="M4.846,32.974s-1.266,0-2.532,5.443S-1.609,50.7,3.58,51.455s24.81-.253,33.418.76,11.265,2.152,11.265,2.152l4.05-11.9s3.925-6.962-6.076-6.962S4.846,32.974,4.846,32.974Z" transform="translate(81.994 6003.326)" fill="none" stroke="#8f2947" stroke-miterlimit="10" stroke-width="1.3"/>
    <path id="Path_25382" data-name="Path 25382" d="M17.8,13.524a8.8,8.8,0,0,1,7.269-2.193L47.024,62.082S45.8,63.858,41.33,63C38.975,62.548,17.8,13.524,17.8,13.524" transform="translate(77.957 6008.397)" fill="#def2fc"/>
    <path id="Path_25383" data-name="Path 25383" d="M17.8,13.524a8.8,8.8,0,0,1,7.269-2.193L47.024,62.082S45.8,63.858,41.33,63C38.975,62.548,17.8,13.524,17.8,13.524Z" transform="translate(77.957 6008.397)" fill="none" stroke="#8f2947" stroke-miterlimit="10" stroke-width="1.3"/>
    <path id="Path_25384" data-name="Path 25384" d="M17.434,60.518s1.193,1.053,4.482,1.053c3.542,0,6.146-4.175,6.146-4.175L58.926,13.382s-1.9-3.02-6.077-1.471Z" transform="translate(78.043 6008.343)" fill="#def2fc"/>
    <path id="Path_25385" data-name="Path 25385" d="M17.434,60.518s1.193,1.053,4.482,1.053c3.542,0,6.146-4.175,6.146-4.175L58.926,13.382s-1.9-3.02-6.077-1.471Z" transform="translate(78.043 6008.343)" fill="none" stroke="#8f2947" stroke-miterlimit="10" stroke-width="1.3"/>
  </g>
</svg>
