<svg xmlns="http://www.w3.org/2000/svg" width="79.062" height="73.42" viewBox="0 0 79.062 73.42">
    <g data-name="SURGICAL ONCOLOGY" transform="translate(-141.03 -20782.172)">
        <path data-name="Path 25299" d="m54.048 54.552 2.276-8.423a7.655 7.655 0 0 1 5.4-5.362c4.6-1.384 7.3-1.125 6.952-5.345h9.339a3.607 3.607 0 0 0 2.94 4.428c3.8.865 5.55 1.384 5.55 1.384s3.053.889 4.482 5.88c1.456 5.081 1.931 7.437 1.931 7.437z" transform="translate(126.378 20772.566)" style="fill:#d6f0fc"/>
        <path data-name="Path 25300" d="m54.048 54.552 2.276-8.423a7.655 7.655 0 0 1 5.4-5.362c4.6-1.384 7.3-1.125 6.952-5.345h9.339a3.607 3.607 0 0 0 2.94 4.428c3.8.865 5.55 1.384 5.55 1.384s3.053.889 4.482 5.88c1.456 5.081 1.931 7.437 1.931 7.437z" transform="translate(126.378 20772.566)" style="stroke:#003a85;fill:none;stroke-miterlimit:10;stroke-width:1.3px"/>
        <path data-name="Path 25301" d="M84.766 22.578s-.525 7.83-.7 7.89-2.289 3.527-5.208 3.706-5.894-3.646-5.894-3.646l-1.258-8.009-.636-6.29s-.283-3.429 3.151-3.429h8.419s3.059.657 2.747 3.507c-.306 2.789-.621 6.27-.621 6.27" transform="translate(121.624 20778.885)" style="fill:#d6f0fc"/>
        <path data-name="Path 25302" d="M69.714 25.388s-1.73-1.081-1.038 2.378 2.421 2.94 2.421 2.94" transform="translate(122.337 20775.414)" style="stroke:#003a85;fill:none;stroke-miterlimit:10;stroke-width:1.3px"/>
        <path data-name="Path 25303" d="M90.9 25.185s2.274-.921 1.583 2.538-2.421 2.94-2.421 2.94" transform="translate(116.318 20775.457)" style="stroke:#003a85;fill:none;stroke-miterlimit:10;stroke-width:1.3px"/>
        <path data-name="Path 25304" d="M84.823 20.617s-.6 8.5-.79 8.561S81.439 33 78.132 33.2s-6.68-3.956-6.68-3.956l-1.426-8.691-.726-6.826a3.351 3.351 0 0 1 3.569-3.719h9.541s3.466.712 3.113 3.8c-.341 3.032-.7 6.809-.7 6.809z" transform="translate(122.118 20779.666)" style="stroke:#003a85;fill:none;stroke-miterlimit:10;stroke-width:1.3px"/>
        <path data-name="Path 25305" d="M71.067 27.7s7.915-2.228 14.153.3" transform="translate(121.624 20774.977)" style="stroke:#003a85;fill:none;stroke-miterlimit:10;stroke-width:1.3px"/>
        <path data-name="Path 25306" d="M59.041 74.262a4.151 4.151 0 1 1-4.711-3.5 4.152 4.152 0 0 1 4.711 3.5" transform="translate(127.291 20762.707)" style="fill:#d7f0fd"/>
        <path data-name="Path 25307" d="M59.041 74.262a4.151 4.151 0 1 1-4.711-3.5 4.152 4.152 0 0 1 4.711 3.5z" transform="translate(127.291 20762.707)" style="stroke:#003a85;fill:none;stroke-miterlimit:10;stroke-width:1.3px"/>
        <path data-name="Path 25308" d="M4.868 90.181 40.156 80.8l-2.222-2.584-32.508 9.456z" transform="translate(140.117 20760.611)" style="stroke:#003a85;fill:none;stroke-miterlimit:10;stroke-width:1.3px"/>
        <path data-name="Rectangle 1502" transform="rotate(-16.73 70923.21 9891.914)" style="fill:#d7f0fd" d="M0 0h13.9v3.971H0z"/>
        <path data-name="Rectangle 1503" transform="rotate(-16.73 70923.21 9891.914)" style="stroke:#003a85;fill:none;stroke-miterlimit:10;stroke-width:1.3px" d="M0 0h13.9v3.971H0z"/>
        <path data-name="Path 25309" d="M59.13 93.209a4.151 4.151 0 1 1-4.151-4.151 4.151 4.151 0 0 1 4.151 4.151" transform="translate(127.278 20757.582)" style="fill:#d7f0fd"/>
        <circle data-name="Ellipse 216" cx="4.151" cy="4.151" r="4.151" transform="translate(178.105 20846.641)" style="stroke:#003a85;fill:none;stroke-miterlimit:10;stroke-width:1.3px"/>
        <path data-name="Path 25310" d="m3.656 79.689 35.757 7.4-2.074 2.7-32.986-7.627z" transform="translate(140.456 20760.199)" style="stroke:#003a85;fill:none;stroke-miterlimit:10;stroke-width:1.3px"/>
        <path data-name="Rectangle 1504" transform="rotate(-78.432 12849.838 10327.685)" style="fill:#d7f0fd" d="M0 0h3.971v13.9H0z"/>
        <path data-name="Rectangle 1505" transform="rotate(-78.432 12849.838 10327.685)" style="stroke:#003a85;fill:none;stroke-miterlimit:10;stroke-width:1.3px" d="M0 0h3.971v13.9H0z"/>
        <path data-name="Path 25311" d="M5.062 4.679a22.315 22.315 0 0 1 6.894-1.47h9.589L23.1 5.544h-2.333a5.6 5.6 0 0 0-3.286.692c-1.816.951-8.839 1.47-12.419-1.557" transform="translate(140.063 20781.564)" style="fill:#d6f0fc"/>
        <path data-name="Path 25312" d="m26.375 2.221 2.184 3.661H48.6s2.508.346 2.508-1.83A2.2 2.2 0 0 0 48.9 1.839z" transform="translate(134.109 20781.949)" style="fill:#d7f0fd"/>
        <path data-name="Path 25313" d="M4.41 3.133a30.725 30.725 0 0 1 6.733-1.47c3.476-.249 9.75 0 9.75 0L22.45 4h-2.336a5.6 5.6 0 0 0-3.286.692C15.012 5.641 7.989 6.16 4.41 3.133z" transform="translate(140.245 20782.029)" style="stroke:#003a85;fill:none;stroke-miterlimit:10;stroke-width:1.3px"/>
        <path data-name="Path 25314" d="M27.819.882 30 4.543h20.044s2.508.346 2.508-1.83A2.2 2.2 0 0 0 50.339.5z" transform="translate(133.706 20782.322)" style="stroke:#003a85;fill:none;stroke-miterlimit:10;stroke-width:1.3px"/>
        <path data-name="Path 25315" d="M16.9 47.891s-2.364-.447-1.586-4.05 6.417-10.908 6.417-10.908 2.663-3.643 9.538-2.32 8.042-1.4 8.042-1.4l4.281 9.987a7.056 7.056 0 0 0-4.41 2.516c-2.205 2.411-2.465 3.845-6.745 4.75s-7.523 2.72-8.561 2.979-2.376.958-3.133-1.012 1.447-2.749 3.652-3.787 4.691-2.43 4.691-2.43-3.459-2.874-6.67-1.13-2.373 7.581-5.516 6.8" transform="translate(137.243 20774.301)" style="fill:#d6f0fc"/>
        <path data-name="Path 25316" d="M14.9 46.891s-2.364-.447-1.586-4.05 6.417-10.908 6.417-10.908 2.663-3.643 9.538-2.32 8.042-1.4 8.042-1.4l4.281 9.987a7.056 7.056 0 0 0-4.41 2.516c-2.205 2.411-2.465 3.845-6.745 4.75s-7.523 2.72-8.561 2.979-2.376.958-3.133-1.012 1.447-2.749 3.652-3.787 4.691-2.43 4.691-2.43-3.459-2.874-6.67-1.13-2.373 7.583-5.516 6.805z" transform="translate(137.801 20774.58)" style="stroke:#003a85;fill:none;stroke-miterlimit:10;stroke-width:1.3px"/>
        <path data-name="Path 25317" d="M2.777 67.826a22.324 22.324 0 0 1 3.249-6.256l6.1-7.4 2.792.283-1.485 1.8a5.594 5.594 0 0 0-1.556 2.976c-.421 2.006-4.487 7.756-9.1 8.594" transform="translate(140.701 20767.33)" style="fill:#d6f0fc"/>
        <path data-name="Path 25318" d="m14.108 47.681 4.214.643 12.744-15.466s1.862-1.716.182-3.1a2.2 2.2 0 0 0-3.114.3z" transform="translate(137.536 20774.301)" style="fill:#d7f0fd"/>
        <path data-name="Path 25319" d="M.771 68.471a30.782 30.782 0 0 1 3.147-6.131c2.019-2.841 6.2-7.524 6.2-7.524l2.792.283-1.485 1.8a5.59 5.59 0 0 0-1.555 2.976c-.421 2.008-4.487 7.758-9.099 8.596z" transform="translate(141.262 20767.148)" style="stroke:#003a85;fill:none;stroke-miterlimit:10;stroke-width:1.3px"/>
        <path data-name="Path 25320" d="m13.563 46.812 4.214.643L30.52 31.989s1.862-1.716.182-3.1a2.2 2.2 0 0 0-3.113.3z" transform="translate(137.688 20774.543)" style="stroke:#003a85;fill:none;stroke-miterlimit:10;stroke-width:1.3px"/>
        <path data-name="Path 25321" d="M9.184 4.242a14.118 14.118 0 0 0 7.513.3" transform="translate(138.912 20781.277)" style="stroke:#8e2a48;fill:none;stroke-miterlimit:10;stroke-width:1.3px"/>
        <path data-name="Path 25322" d="M5.062 67.6s3.187-1.153 4.423-5.631" transform="translate(140.063 20765.15)" style="stroke:#8e2a48;fill:none;stroke-miterlimit:10;stroke-width:1.3px"/>
        <path data-name="Line 71" transform="translate(145.989 20841.41)" style="stroke:#8e2a48;fill:none;stroke-miterlimit:10;stroke-width:1.3px" d="m0 0 7.116 1.816"/>
        <path data-name="Line 72" transform="translate(145.989 20846.988)" style="stroke:#8e2a48;fill:none;stroke-miterlimit:10;stroke-width:1.3px" d="M0 2.253 7.883 0"/>
        <path data-name="Path 25323" d="m73.052 21.068-.26-3.891s-.324-2.854 1.686-3.048 7.977 0 7.977 0" transform="translate(121.147 20778.539)" style="stroke:#8e2a48;fill:none;stroke-miterlimit:10;stroke-width:1.3px"/>
        <path data-name="Line 73" transform="translate(204.835 20796.094)" style="stroke:#8e2a48;fill:none;stroke-miterlimit:10;stroke-width:1.3px" d="M.454 0 0 3.513"/>
    </g>
</svg>
