<svg xmlns="http://www.w3.org/2000/svg" width="250.295" height="546.303" viewBox="0 0 250.295 546.303">
    <g data-name="Group 7099" transform="translate(-211.929 -14568.955)">
        <path data-name="Path 25053" d="M16.373 65.152s14.614-46.589 85.763-45.929S206.959 38.25 205.688 98.615 177.1 190.478 177.1 190.478s-43.836 43.3-43.2 88.582 34.939 85.3 15.247 133.2-63.528 45.268-63.528 45.268S39.24 464.1 22.09 350.575 6.844 164.891 6.844 154.384c0-10.49 1.9-66.265 9.53-89.232" transform="translate(242.031 14655.62)" style="fill:#d7f0fd"/>
        <path data-name="Path 25054" d="M13.389 64.541s15.369-47.449 90.22-46.778 110.267 19.377 108.93 80.863-30.077 93.555-30.077 93.555-46.106 44.108-45.44 90.22 36.754 86.879 16.04 135.66-66.831 46.112-66.831 46.112-48.781 6.682-66.825-108.93S3.365 166.123 3.365 155.427 5.369 87.93 13.389 64.541z" transform="translate(226.189 14648.978)" style="stroke:#0a2b7c;fill:none;stroke-miterlimit:10;stroke-width:4px"/>
        <path data-name="Path 25055" d="M95.552 48.844c0 26.447-13.837 47.888-30.91 47.888S33.733 75.291 33.733 48.844 47.57.956 64.642.956s30.91 21.444 30.91 47.888" transform="translate(364.672 14572.529)" style="fill:#d7f0fd"/>
        <path data-name="Path 25056" d="M62.667 29.423c0 13.537-8.936 24.51-19.959 24.51S22.749 42.96 22.749 29.423s8.936-24.51 19.959-24.51 19.959 10.973 19.959 24.51" transform="translate(314.691 14590.534)" style="fill:#d7f0fd"/>
        <path data-name="Path 25057" d="M38.381 25.812c2.742 11.672-.111 22.323-6.372 23.794s-13.554-6.8-16.29-18.477.111-22.323 6.372-23.794 13.548 6.8 16.29 18.477" transform="translate(277.963 14600.789)" style="fill:#d7f0fd"/>
        <path data-name="Path 25058" d="M30.383 25.772c2.969 9.663.727 18.921-5.012 20.686s-12.793-4.634-15.763-14.3-.727-18.918 5.007-20.683 12.8 4.634 15.768 14.3" transform="translate(248.918 14619.062)" style="fill:#d7f0fd"/>
        <path data-name="Path 25059" d="M25.491 26.152c3.824 8.47 2.081 17.528-3.9 20.225S7.674 44.4 3.844 35.926 1.763 18.4 7.741 15.7s13.926 1.981 17.75 10.451" transform="translate(219.443 14636.148)" style="fill:#d7f0fd"/>
        <ellipse data-name="Ellipse 201" cx="36.088" cy="48.115" rx="36.088" ry="48.115" transform="translate(388.049 14570.955)" style="stroke:#0a2b7c;fill:none;stroke-miterlimit:10;stroke-width:4px"/>
        <path data-name="Path 25060" d="M69.387 33.314c0 16.9-10.773 30.593-24.06 30.593s-24.055-13.7-24.055-30.593S32.04 2.721 45.327 2.721s24.06 13.698 24.06 30.593z" transform="translate(307.971 14580.561)" style="stroke:#0a2b7c;fill:none;stroke-miterlimit:10;stroke-width:4px"/>
        <path data-name="Path 25061" d="M44.221 25.969c2.953 12.577-1.354 24.344-9.619 26.286S17.247 45.573 14.294 33s1.354-24.347 9.619-26.29 17.355 6.682 20.308 19.259z" transform="translate(271.984 14597.474)" style="stroke:#0a2b7c;fill:none;stroke-miterlimit:10;stroke-width:4px"/>
        <path data-name="Path 25062" d="M33.656 26.754c3.325 10.812.261 21.346-6.843 23.528S11.255 45.475 7.93 34.663s-.26-21.347 6.844-23.528 15.557 4.807 18.882 15.619z" transform="translate(241.156 14617.025)" style="stroke:#0a2b7c;fill:none;stroke-miterlimit:10;stroke-width:4px"/>
        <path data-name="Path 25063" d="M27.647 28.639c4.657 10.307 2.936 21.141-3.835 24.2S7.771 50.024 3.12 39.717.179 18.576 6.955 15.512s16.035 2.82 20.692 13.127z" transform="translate(213.453 14635.083)" style="stroke:#0a2b7c;fill:none;stroke-miterlimit:10;stroke-width:4px"/>
        <path data-name="Path 25064" d="M39.2 79.951c0 27.269 10.906 41.35-3.075 41.35s-25.559-14.081-25.559-41.35 11.328-49.37 25.309-49.37S39.2 52.682 39.2 79.951z" transform="translate(259.256 14707.331)" style="stroke:#8d2947;fill:none;stroke-miterlimit:10;stroke-width:4px"/>
        <path data-name="Path 25065" d="M62.717 71.007c-8.8 13.1-25.548 17.256-33.818 11.7s3.93-10.351 12.727-23.45 10.857-29.539 19.132-23.983 10.757 22.634 1.959 35.733z" transform="translate(330.16 14723.635)" style="stroke:#8d2947;fill:none;stroke-miterlimit:10;stroke-width:4px"/>
        <path data-name="Path 25066" d="M83.988 48.385c-2 0-39.873 44.03-46.389 51.046S8.027 127 23.062 154.562s38.98 24.238 51.007 77.865" transform="translate(293.371 14788.344)" style="stroke:#8d2947;fill:none;stroke-miterlimit:10;stroke-width:4px"/>
    </g>
</svg>
