<svg xmlns="http://www.w3.org/2000/svg" width="384.984" height="507.02" viewBox="0 0 384.984 507.02">
    <g data-name="DEEP VEIN THROMBOSIS">
        <path data-name="Path 25067" d="M147.654 0s14.655 135.034 12.673 194.837 7.527 159.613 40.8 190.9 61.388 55.446 93.073 69.7c32.083 14.264 50.7 15.843 62.575 15.843s14.655 30.1-15.843 30.1-69.306 12.679-89.114 0-56.236-17.03-91.091-9.9-65.745 21.387-83.172-7.129 2.772-58.616 7.918-98.219c5.152-40-22.574-152.484-34.457-181S-15.521 51.885 4.281.4h143.373z" style="fill:#d7f0fd"/>
        <path data-name="Path 25068" d="M150.569.841s14.316 146.841 12.48 202.275 7.345 147.94 40.381 176.941 60.943 51.393 92.512 64.61 50.294 14.685 62.043 14.685 14.685 27.9-15.79 27.9-68.645 11.749-88.471 0-55.8-15.784-90.675-9.176S97.708 497.9 80.45 471.47s2.573-54.335 8.076-91.044c5.141-37.077-22.393-141.332-34.5-167.766S-12.056 48.93 7.763 1.209" transform="translate(16.646 4.078)" style="stroke:#0a2b7c;fill:none;stroke-miterlimit:10;stroke-width:4px"/>
        <path data-name="Path 25069" d="M21.836 14.424s-9.948 113.062 9.047 162.812 46.13 117.6 18.088 162.824" transform="translate(93.244 69.93)" style="stroke:#8e2a48;fill:none;stroke-miterlimit:10;stroke-width:4px"/>
        <path data-name="Path 25070" d="M58.3 143.082C32.005 120.655 17.519 36.471 12.256 16.47" transform="translate(59.418 79.85)" style="stroke:#8e2a48;fill:none;stroke-miterlimit:10;stroke-width:4px"/>
        <path data-name="Path 25071" d="M19.233 17.826s17.346 48.616 27.931 82.313c13.316 42.393-5.784 88.506-5.784 88.506s-8.7 27.574-5.825 47.575" transform="translate(93.244 86.423)" style="stroke:#8e2a48;fill:none;stroke-miterlimit:10;stroke-width:4px"/>
        <path data-name="Path 25072" d="M74.077 112.55s-43.387 2.228-47.791-48.586" transform="translate(127.437 310.107)" style="stroke:#8e2a48;fill:none;stroke-miterlimit:10;stroke-width:4px"/>
    </g>
</svg>
