<svg xmlns="http://www.w3.org/2000/svg" width="556.237" height="488.179" viewBox="0 0 556.237 488.179">
    <g data-name="UTERINE FIBROIDS" transform="translate(-99.906 -13787.897)">
        <path data-name="Path 25034" d="M94.4 472.906s-3.549-97.127-9.46-131.124 0-110.328 0-110.328-62.655-94.961-59.106-132.883S49.606 29.28 95.709 14.9s65.024-20.924 117.044 6.537 76.713 45.756 57.8 112.441-55.563 96.762-53.2 113.761 8.279 65.383-3.543 103.3-8.279 121.247-8.279 121.247z" transform="translate(222.053 13798.861)" style="fill:#d7f0fd"/>
        <path data-name="Path 25035" d="M58.651 417.122s-4.186-83.944 9.761-122.793 3.682-67.8 1.818-85.334c-1.025-9.646 47.22-68.654 66.98-125.253A254.388 254.388 0 0 0 150.655 15" transform="translate(377.109 13858.854)" style="stroke:#0b2c7b;fill:none;stroke-miterlimit:10;stroke-width:4px"/>
        <path data-name="Path 25036" d="M27.261 42.343c13.664-10.369 39.439-28.19 77.3-36.5 54.926-12.06 81.715-4.776 142.669 32.775" transform="translate(229.582 13789.394)" style="stroke:#0b2c7b;fill:none;stroke-miterlimit:10;stroke-width:4px"/>
        <path data-name="Path 25037" d="M112.523 417.122s4.186-83.944-9.761-122.793-3.682-67.8-1.818-85.334c1.025-9.646-47.22-68.654-66.98-125.253A254.389 254.389 0 0 1 20.52 15" transform="translate(197.295 13858.854)" style="stroke:#0b2c7b;fill:none;stroke-miterlimit:10;stroke-width:4px"/>
        <path data-name="Path 25038" d="m227.724 451.227-4.14-174.083S128.408 166.156 122.613 68.178c0 0-9.1-27.75-49.658-7.8S44.817 114.13 44.817 114.13s-24 8.673-32.277 28.612c0 0-36.417-79.77 31.449-111.85s124.147 0 124.147 0 47.964 27.744 87.708 26.876 93.543-34.68 93.543-34.68 54.625-40.753 125.8 7.8 24 111.85 24 111.85-13.241-26.013-24.832-28.612c0 0 18.208-35.548-23.17-52.026s-64.555-6.936-64.555-6.936-9.93 118.796-100.969 224.579l.828 171.484" transform="translate(112.334 13820.929)" style="fill:#d7f0fd"/>
        <path data-name="Path 25039" d="m243.229 460.742-4-165.075A35.874 35.874 0 0 0 231 274.078C206.939 245.1 135.009 151.882 129.81 67.944c0 0-9.825-28.583-53.589-8.042S45.86 115.274 45.86 115.274s-25.9 8.933-34.831 29.469c0 0-39.294-82.161 33.939-115.2s133.961 0 133.961 0 51.754 28.578 94.643 27.686S374.509 21.5 374.509 21.5s58.944-41.975 135.75 8.042 25.9 115.2 25.9 115.2-14.289-26.789-26.789-29.469c0 0 19.644-36.614-25.005-53.583S414.7 54.546 414.7 54.546s-10.038 114.635-99.778 220.794a38.216 38.216 0 0 0-9.067 24.953l.782 160.449" transform="translate(101.408 13811.025)" style="stroke:#0b2c7b;fill:none;stroke-miterlimit:10;stroke-width:4px"/>
        <path data-name="Path 25040" d="M106.381 92.026c0 37.239-23.193 67.426-51.8 67.426s-51.8-30.187-51.8-67.426S25.974 24.6 54.581 24.6s51.8 30.187 51.8 67.426" transform="translate(112.332 13904.826)" style="fill:#d7f0fd"/>
        <path data-name="Path 25041" d="M177.184 91.91c0 37.239-23.193 67.426-51.8 67.426s-51.8-30.187-51.8-67.426 23.193-67.426 51.8-67.426 51.8 30.187 51.8 67.426" transform="translate(451.453 13904.271)" style="fill:#d7f0fd"/>
        <ellipse data-name="Ellipse 199" cx="51.163" cy="71.67" rx="51.163" ry="71.67" transform="translate(544.607 13924.512)" style="stroke:#0b2c7b;fill:none;stroke-miterlimit:10;stroke-width:4px"/>
        <ellipse data-name="Ellipse 200" cx="51.163" cy="71.67" rx="51.163" ry="71.67" transform="translate(105.223 13924.512)" style="stroke:#0b2c7b;fill:none;stroke-miterlimit:10;stroke-width:4px"/>
        <path data-name="Path 25042" d="M59.53 63.223S33.836 69.14 33.633 46.7c-.127-14.017 24.56-25.9 34.379-24.56s22.331 6.7 19.2 25.005" transform="translate(260.102 13892.546)" style="stroke:#8d2947;fill:none;stroke-miterlimit:10;stroke-width:4px"/>
        <path data-name="Path 25043" d="M53.068 38.938S57.086 24.65 74.5 20.632c14.463-3.341 34.831 4.018 37.957 18.307 4.863 22.25-9.379 25.9-16.969 27.686" transform="translate(353.189 13882)" style="stroke:#8d2947;fill:none;stroke-miterlimit:10;stroke-width:4px"/>
        <path data-name="Path 25044" d="M43.2 52.071s-5 27.686 27.177 27.686c25.029 0 35.577-21.2 27.258-33.493C87.368 31.083 68.169 35.1 68.169 35.1" transform="translate(304.6 13952.817)" style="stroke:#8d2947;fill:none;stroke-miterlimit:10;stroke-width:4px"/>
    </g>
</svg>
