<svg xmlns="http://www.w3.org/2000/svg" width="56.036" height="71.458" viewBox="0 0 56.036 71.458">
    <path data-name="Path 25347" d="M3.275 34.848S.749 69.034 28.359 72.045C43.424 73.688 51.088 63.9 54.345 53.27c3.15-10.287 2.923-23.227-1.444-33.076-3.533-7.97-10.129-16-16.6-15.812 0 0-3.97 3.005-11.369 0 0 0-18.045 2.129-21.655 30.469" transform="translate(-.441 -.768)" style="fill:#d6f0fc"/>
    <path data-name="Path 25348" d="M.561 31.962S-2 67.248 25.974 70.356c15.262 1.7 23.028-8.4 26.328-19.38C55.494 40.358 55.263 27 50.839 16.835 47.259 8.609 40.577.322 34.019.515c0 0-4.022 3.1-11.518 0C22.5.512 4.217 2.709.561 31.962z" transform="translate(.206 .153)" style="stroke:#003a85;fill:none;stroke-miterlimit:10;stroke-width:1.3px"/>
    <path data-name="Path 25349" d="M5.9 32.486S9.99 19.5 16.032 14.934a12.6 12.6 0 0 1 12.481-1.463s8.665-3.108 15.062 5.3S53.17 31.754 50.5 40.9s-7.442 23.273-21.987 23.4c-13.9.119-21.225-17.949-21.879-21.435-.94-5.03-1.87-7.03-.734-10.379z" transform="translate(-.956 -2.688)" style="stroke:#003a85;fill:none;stroke-miterlimit:10;stroke-width:1.3px"/>
    <path data-name="Path 25350" d="M12.456 21.4s5.3.548 5.3-2.011v-4.573s-.366 5.668 2.194 5.668 4.205.731 4.022-3.657l-.183-4.388s-.548 7.5 2.011 7.5 4.476.6 4.249-2.992l-.226-3.59s-.366 6.4 2.377 6.4 4.022.05 4.022-2.809.055-3.853.055-3.853c.331.072-1.156 7.29 2.5 7.211 4.021-.086 3.474-2.327 3.474-3.358s.073-.913.073-.913c.115.132-.784 4.434 2.3 4.636 1.45.094 1.689-.491 1.689-.491" transform="translate(-2.642 -2.688)" style="stroke:#003a85;fill:none;stroke-miterlimit:10;stroke-width:1.3px"/>
    <path data-name="Path 25351" d="M8.158 55.012s6.4-6.216 14.809-2.925 11.884-1.828 17-1.828 8.959 5.668 8.959 5.668" transform="translate(-1.618 -11.698)" style="stroke:#003a85;fill:none;stroke-miterlimit:10;stroke-width:1.3px"/>
    <path data-name="Path 25352" d="M12.205 47.435S6.9 38.4 16.162 31.566c6.788-5 11.035 1.181 10.3 5.752s4.936 4.754 4.571 0 2.377-8.776 10.056-5.119 5.68 11.67 4.6 14.981" transform="translate(-2.222 -6.8)" style="stroke:#003a85;fill:none;stroke-miterlimit:10;stroke-width:1.3px"/>
    <path data-name="Path 25353" d="M48.119 46.094a6.573 6.573 0 0 0 0-7.943c-3.094-4.022 1.639-5.173 1.639-5.173a8.542 8.542 0 0 1 5.407 6.778c.877 5.164-.788 8.137-.788 8.137s-3.36-2.608-6.258-1.8" transform="translate(-10.888 -7.581)" style="stroke:#8e2a48;fill:none;stroke-miterlimit:10;stroke-width:1.3px"/>
    <path data-name="Path 25354" d="M19.049 46.82s-3.858-4.844-.764-8.866-2.124-5.806-2.124-5.806A11.832 11.832 0 0 0 12.4 48.282s3.94-1.682 6.649-1.462" transform="translate(-2.222 -7.382)" style="stroke:#8e2a48;fill:none;stroke-miterlimit:10;stroke-width:1.3px"/>
</svg>
