<svg xmlns="http://www.w3.org/2000/svg" width="38.972" height="83.991" viewBox="0 0 38.972 83.991">
    <g data-name="DIABETIC FOOT ULCER" transform="translate(-213.16 -14570.305)">
        <path data-name="Path 25053" d="M8.242 26.217s2.227-7.1 13.069-7 15.974 2.9 15.78 12.1-4.357 14-4.357 14-6.68 6.6-6.583 13.5 5.324 13 2.323 20.3-9.681 6.9-9.681 6.9-7.067 1-9.681-16.3a182.171 182.171 0 0 1-2.323-29.9c0-1.6.29-10.1 1.452-13.6" transform="translate(212.484 14567.568)" style="fill:#d7f0fd"/>
        <path data-name="Path 25054" d="M4.837 24.886s2.342-7.231 13.748-7.128 16.8 2.953 16.6 12.322S30.6 44.337 30.6 44.337s-7.026 6.722-6.925 13.748 5.6 13.239 2.444 20.673a10.9 10.9 0 0 1-10.184 7.027S8.5 86.8 5.754 69.185a179.711 179.711 0 0 1-2.445-30.449c0-1.629.305-10.286 1.528-13.85z" transform="translate(213.021 14567.794)" style="stroke:#0a2b7c;fill:none;stroke-miterlimit:10;stroke-width:1.3px"/>
        <path data-name="Path 25055" d="M43.153 8.254c0 4.03-2.109 7.3-4.71 7.3s-4.71-3.267-4.71-7.3 2.109-7.3 4.71-7.3 4.71 3.267 4.71 7.3" transform="translate(208.328 14570.385)" style="fill:#d7f0fd"/>
        <path data-name="Path 25056" d="M28.832 8.648c0 2.063-1.362 3.735-3.041 3.735s-3.041-1.672-3.041-3.735 1.362-3.735 3.041-3.735 3.041 1.672 3.041 3.735" transform="translate(210.022 14569.774)" style="fill:#d7f0fd"/>
        <path data-name="Path 25057" d="M18.289 10.008c.418 1.779-.017 3.4-.971 3.626s-2.065-1.036-2.482-2.816.017-3.4.971-3.626 2.065 1.037 2.482 2.816" transform="translate(211.267 14569.427)" style="fill:#d7f0fd"/>
        <path data-name="Path 25058" d="M11.66 13.406c.453 1.473.111 2.883-.764 3.152s-1.95-.706-2.4-2.179-.111-2.883.763-3.152 1.95.706 2.4 2.179" transform="translate(212.251 14568.808)" style="fill:#d7f0fd"/>
        <path data-name="Path 25059" d="M5.424 16.646c.583 1.291.317 2.671-.594 3.082s-2.121-.3-2.7-1.593-.317-2.67.594-3.082 2.122.3 2.7 1.593" transform="translate(213.25 14568.229)" style="fill:#d7f0fd"/>
        <ellipse data-name="Ellipse 201" cx="5.499" cy="7.332" rx="5.499" ry="7.332" transform="translate(240.483 14570.955)" style="stroke:#0a2b7c;fill:none;stroke-miterlimit:10;stroke-width:1.3px"/>
        <path data-name="Path 25060" d="M28.6 7.383c0 2.575-1.642 4.662-3.667 4.662s-3.666-2.087-3.666-4.662 1.641-4.662 3.666-4.662S28.6 4.808 28.6 7.383z" transform="translate(210.25 14570.112)" style="stroke:#0a2b7c;fill:none;stroke-miterlimit:10;stroke-width:1.3px"/>
        <path data-name="Path 25061" d="M18.066 9.414c.45 1.917-.206 3.71-1.466 4.006s-2.645-1.018-3.095-2.935.206-3.71 1.466-4.006 2.645 1.021 3.095 2.935z" transform="translate(211.469 14569.54)" style="stroke:#0a2b7c;fill:none;stroke-miterlimit:10;stroke-width:1.3px"/>
        <path data-name="Path 25062" d="M10.713 13.176c.507 1.648.04 3.253-1.043 3.585s-2.371-.732-2.877-2.38-.04-3.253 1.043-3.585 2.37.732 2.877 2.38z" transform="translate(212.514 14568.877)" style="stroke:#0a2b7c;fill:none;stroke-miterlimit:10;stroke-width:1.3px"/>
        <path data-name="Path 25063" d="M4.637 16.827c.71 1.571.447 3.222-.584 3.689s-2.444-.43-3.153-2-.448-3.222.584-3.689 2.443.429 3.153 2z" transform="translate(213.453 14568.265)" style="stroke:#0a2b7c;fill:none;stroke-miterlimit:10;stroke-width:1.3px"/>
        <path data-name="Path 25064" d="M14.929 38.1c0 4.155 1.662 6.3-.469 6.3s-3.895-2.146-3.895-6.3 1.726-7.523 3.857-7.523.507 3.372.507 7.523z" transform="translate(211.901 14565.816)" style="stroke:#8d2947;fill:none;stroke-miterlimit:10;stroke-width:1.3px"/>
        <path data-name="Path 25065" d="M31.721 39.778c-1.341 2-3.893 2.63-5.153 1.783s.6-1.577 1.939-3.573 1.654-4.5 2.915-3.655 1.64 3.449.299 5.445z" transform="translate(209.498 14565.264)" style="stroke:#8d2947;fill:none;stroke-miterlimit:10;stroke-width:1.3px"/>
        <path data-name="Path 25066" d="M28.109 48.385c-.305 0-6.076 6.71-7.069 7.779s-4.506 4.2-2.215 8.4 5.94 3.694 7.773 11.866" transform="translate(210.745 14563.071)" style="stroke:#8d2947;fill:none;stroke-miterlimit:10;stroke-width:1.3px"/>
    </g>
</svg>
