<svg xmlns="http://www.w3.org/2000/svg" width="86.911" height="75.999" viewBox="0 0 86.911 75.999">
    <g data-name="UTERINE FIBROIDS" transform="translate(-101.258 -13789.282)">
        <path data-name="Path 25034" d="M36.341 75.4s-.55-15.057-1.467-20.327 0-17.1 0-17.1-9.713-14.721-9.163-20.6S29.4 6.632 36.544 4.4s10.08-3.244 18.145 1.013 11.892 7.093 8.96 17.431-8.614 15-8.247 17.636 1.283 10.136-.549 16.014-1.283 18.8-1.283 18.8z" transform="translate(98.827 13789.191)" style="fill:#d7f0fd"/>
        <path data-name="Path 25035" d="M58.154 77.341S57.5 64.327 59.667 58.3s.571-10.51.282-13.229c-.159-1.5 7.32-10.643 10.384-19.417A39.437 39.437 0 0 0 72.416 15" transform="translate(95.51 13787.908)" style="stroke:#0b2c7b;fill:none;stroke-miterlimit:10;stroke-width:1.3px"/>
        <path data-name="Path 25036" d="M27.261 6.986a30.292 30.292 0 0 1 11.983-5.658c8.515-1.87 12.668-.74 22.117 5.081" transform="translate(98.666 13789.394)" style="stroke:#0b2c7b;fill:none;stroke-miterlimit:10;stroke-width:1.3px"/>
        <path data-name="Path 25037" d="M34.783 77.341s.649-13.014-1.513-19.041-.571-10.51-.282-13.229c.159-1.5-7.32-10.643-10.384-19.417A39.437 39.437 0 0 1 20.52 15" transform="translate(99.357 13787.908)" style="stroke:#0b2c7b;fill:none;stroke-miterlimit:10;stroke-width:1.3px"/>
        <path data-name="Path 25038" d="m37.653 75.937-.642-26.987S22.257 31.744 21.358 16.555c0 0-1.411-4.3-7.7-1.21S9.3 23.679 9.3 23.679s-3.721 1.345-5 4.436c0 0-5.646-12.366 4.875-17.34a21.94 21.94 0 0 1 19.246 0s7.435 4.3 13.6 4.166 14.5-5.376 14.5-5.376 8.468-6.318 19.5 1.21 3.721 17.34 3.721 17.34-2.053-4.033-3.85-4.436c0 0 2.823-5.511-3.592-8.065s-10.008-1.075-10.008-1.075a67.49 67.49 0 0 1-15.657 34.814l.128 26.584" transform="translate(101.175 13788.72)" style="fill:#d7f0fd"/>
        <path data-name="Path 25039" d="m38.129 75.665-.62-25.591a5.561 5.561 0 0 0-1.276-3.347c-3.733-4.493-14.88-18.943-15.686-31.956 0 0-1.523-4.431-8.308-1.247s-4.707 8.584-4.707 8.584-4.016 1.385-5.4 4.568c0 0-6.092-12.737 5.261-17.859a24.675 24.675 0 0 1 20.767 0s8.023 4.43 14.672 4.292 15.649-5.538 15.649-5.538 9.138-6.507 21.045 1.247 4.014 17.859 4.014 17.859-2.215-4.153-4.153-4.568c0 0 3.045-5.676-3.876-8.307s-10.8-1.108-10.8-1.108a67.611 67.611 0 0 1-15.467 34.229 5.924 5.924 0 0 0-1.406 3.868l.121 24.874" transform="translate(101.408 13788.931)" style="stroke:#0b2c7b;fill:none;stroke-miterlimit:10;stroke-width:1.3px"/>
        <path data-name="Path 25040" d="M18.842 35.053c0 5.773-3.6 10.453-8.03 10.453s-8.03-4.68-8.03-10.453S6.377 24.6 10.811 24.6s8.03 4.68 8.03 10.453" transform="translate(101.175 13786.925)" style="fill:#d7f0fd"/>
        <path data-name="Path 25041" d="M89.645 34.937c0 5.773-3.6 10.453-8.03 10.453s-8.03-4.68-8.03-10.453 3.6-10.453 8.03-10.453 8.03 4.68 8.03 10.453" transform="translate(93.92 13786.937)" style="fill:#d7f0fd"/>
        <ellipse data-name="Ellipse 199" cx="7.932" cy="11.111" rx="7.932" ry="11.111" transform="translate(170.538 13810.763)" style="stroke:#0b2c7b;fill:none;stroke-miterlimit:10;stroke-width:1.3px"/>
        <ellipse data-name="Ellipse 200" cx="7.932" cy="11.111" rx="7.932" ry="11.111" transform="translate(102.422 13810.763)" style="stroke:#0b2c7b;fill:none;stroke-miterlimit:10;stroke-width:1.3px"/>
        <path data-name="Path 25042" d="M37.648 28.421s-3.983.917-4.015-2.562c-.02-2.173 3.807-4.015 5.33-3.807s3.462 1.038 2.977 3.876" transform="translate(98.014 13787.188)" style="stroke:#8d2947;fill:none;stroke-miterlimit:10;stroke-width:1.3px"/>
        <path data-name="Path 25043" d="M53.068 22.8a4.426 4.426 0 0 1 3.323-2.838c2.242-.518 5.4.623 5.884 2.838.754 3.449-1.454 4.015-2.631 4.292" transform="translate(96.022 13787.412)" style="stroke:#8d2947;fill:none;stroke-miterlimit:10;stroke-width:1.3px"/>
        <path data-name="Path 25044" d="M42.967 37.325s-.775 4.292 4.213 4.292c3.88 0 5.515-3.286 4.226-5.192a4.632 4.632 0 0 0-4.568-1.73" transform="translate(97.061 13785.898)" style="stroke:#8d2947;fill:none;stroke-miterlimit:10;stroke-width:1.3px"/>
    </g>
</svg>
