<svg xmlns="http://www.w3.org/2000/svg" width="80.423" height="75.305" viewBox="0 0 80.423 75.305">
    <g data-name="GYNAECOLOGY ONCOLOGY" transform="translate(-70.788 -18563.503)">
        <path data-name="Path 25132" d="M29 10.541c-3.174-.983-8.834-1.316-11.628-2.8-4.143-2.19-8.554-1.674-10.024 2.198s2.941 5.291 2.941 5.291c1.47-3.742 7.23-2.323 7.23-2.323s4.455.688 5.258 4.56-.98 7.743-8.331 6.927a7.144 7.144 0 0 1-5.493-5.678S2.4 15.488 3.472 9.809s5.88-8.646 12.7-6.453 7.618 2.452 9.489 2.065a21.894 21.894 0 0 1 5.08-.645c2 0 4.811 1.525 6.014 1.472s4.812-1.73 6.95-1.73 5.346 1.677 8.421.9S59.61 2.29 62.818 2.629s8.688.854 8.688 7.823a8.3 8.3 0 0 1-6.014 8.388s.8 4.252-4.952 5.155c0 0-7.988 2.072-8.166-3.52s4.43-6.525 4.43-6.525c5.613-2.452 8.019 1.792 8.019 1.792a4.4 4.4 0 0 0 2.673-6.065c-1.737-4.646-6.816-3.228-6.816-3.228L45.8 10.8s-14.434.474-16.8-.257" transform="translate(70.25 18563.133)" style="fill:#d6f0fc"/>
        <path data-name="Path 25133" d="M39.978 12.771 43.4 35.419s.761 3.495 0 4.893-2.536 2.656-2.536 3.775S43.739 77.5 43.739 77.5h-3.254S34.4 45.2 34.781 41.291s2.155-6.431 2.662-7.689a14.238 14.238 0 0 0 1.268-6.151c0-3.215-2.916-5.871-2.916-7.409s-1.268-5.173 4.183-7.27" transform="translate(62.614 18560.66)" style="fill:#d6f0fc"/>
        <path data-name="Path 25134" d="M54.087 12.668s-3.126 18.961-3.67 22.64-.272 3.821 1.359 5.8a5.272 5.272 0 0 1 1.359 3.821l-2.718 32.547h3.126l5.709-33.819a14.648 14.648 0 0 0-1.223-7.924c-1.9-4.245-2.854-6.509-2.854-8.914s1.834-5.377 2.356-6.463c.589-1.226 1.722-5.188-3.443-7.688" transform="translate(58.871 18560.686)" style="fill:#d6f0fc"/>
        <path data-name="Path 25135" d="M38.368 12.48 42.2 35.206s.852 3.507 0 4.909-2.84 2.665-2.84 3.788 3.22 33.525 3.22 33.525h-3.644s-6.814-32.4-6.389-36.331 2.414-6.453 2.982-7.715a13.058 13.058 0 0 0 1.419-6.172c0-3.226-3.265-5.891-3.265-7.434s-1.42-5.191 4.685-7.3" transform="translate(63.158 18560.73)" style="stroke-width:1.3px;stroke-miterlimit:10;stroke:#003a85;fill:none"/>
        <path data-name="Path 25136" d="M29.768 9.71C26.4 8.629 18.358 7.788 15.391 6.161 10.989 3.747 6.3 4.315 4.742 8.574S7.866 14.4 7.866 14.4c1.562-4.118 8.518-2.555 8.518-2.555s4.733.757 5.584 5.016-1.042 8.519-8.85 7.62c0 0-5.83-.986-6.673-6.247 0 0-6.957-3.55-5.821-9.8s6.248-9.513 13.488-7.1 8.093 2.7 10.081 2.271a22.5 22.5 0 0 1 5.4-.71c2.129 0 5.111 1.678 6.388 1.621s5.111-1.9 7.383-1.9 5.679 1.846 8.945.994S60.256.165 63.663.536s9.228.939 9.228 8.606-6.391 9.229-6.391 9.229.426 5.111-5.679 6.105c0 0-9.323 1.845-9.512-4.307s5.963-8.045 5.963-8.045a6.175 6.175 0 0 1 8.518 2.839 4.864 4.864 0 0 0 2.84-6.673c-1.846-5.111-7.241-3.551-7.241-3.551l-18.313 4.75" transform="translate(70.943 18563.643)" style="stroke-width:1.3px;stroke-miterlimit:10;stroke:#003a85;fill:none"/>
        <path data-name="Path 25137" d="M55.433 12.376c5.4 2.508 4.212 6.484 3.6 7.714-.545 1.089-2.461 4.07-2.461 6.483s.994 4.685 2.981 8.945a14.164 14.164 0 0 1 1.278 7.951L54.866 77.4H51.6l2.84-32.655a5.146 5.146 0 0 0-1.42-3.833c-1.7-1.988-1.988-2.13-1.42-5.821s3.834-22.716 3.834-22.716" transform="translate(58.586 18560.756)" style="stroke-width:1.3px;stroke-miterlimit:10;stroke:#003a85;fill:none"/>
        <path data-name="Path 25138" d="M22.383 24.029c-.321 1.42-3.184 3.465-6 2.828s-4.7-2.935-4.2-5.134 3.184-3.465 6-2.828 4.505 3.785 4.2 5.134z" transform="translate(68.125 18559.211)" style="stroke-width:1.3px;stroke-miterlimit:10;stroke:#003a85;fill:none"/>
        <path data-name="Path 25139" d="M71.294 24.558c-.456-1.382.944-4.61 3.688-5.517s5.542.094 6.249 2.234-.944 4.61-3.688 5.517-5.815-.92-6.249-2.234z" transform="translate(53.755 18559.217)" style="stroke-width:1.3px;stroke-miterlimit:10;stroke:#003a85;fill:none"/>
        <path data-name="Path 25140" d="M93.041 51.171a8.519 8.519 0 1 1-8.519-8.519 8.519 8.519 0 0 1 8.519 8.519" transform="translate(52.59 18553.395)" style="fill:#d6f0fc"/>
        <circle data-name="Ellipse 205" cx="9.05" cy="9.05" r="9.05" transform="translate(127.504 18594.959)" style="stroke-width:1.3px;stroke-miterlimit:10;stroke:#003a85;fill:none"/>
        <path data-name="Path 25141" d="M82.49 41.475a3.584 3.584 0 0 1-2.209-2.052c-.4-1.463-.452-2.819-1.908-3.221a1.615 1.615 0 0 0-1.557 2.636c.954 1.281 2.461 1.733 1.708 4.143" transform="translate(52.481 18554.977)" style="fill:#fff"/>
        <path data-name="Path 25142" d="M82.49 41.475a3.584 3.584 0 0 1-2.209-2.052c-.4-1.463-.452-2.819-1.908-3.221a1.615 1.615 0 0 0-1.557 2.636c.954 1.281 2.461 1.733 1.708 4.143" transform="translate(52.481 18554.977)" style="stroke-width:1.3px;stroke-miterlimit:10;stroke:#003a85;fill:none"/>
        <path data-name="Path 25143" d="M86.521 39.926a1.711 1.711 0 0 0 1.13-2.066A1.589 1.589 0 0 1 89.81 36a1.477 1.477 0 0 1 .377 2.712c-1.078.915-.578 1.657.176 2.31" transform="translate(50.033 18555.035)" style="stroke-width:1.3px;stroke-miterlimit:10;stroke:#003a85;fill:none"/>
        <path data-name="Path 25144" d="M95.442 44.063a3.309 3.309 0 0 0 2.31-1.883c.879-1.708 2.5-1.253 2.963-.477.528.879-.431 2.1-1.733 2.36-2.116.427-2.335 1.632-2.335 1.632" transform="translate(47.864 18553.795)" style="stroke-width:1.3px;stroke-miterlimit:10;stroke:#003a85;fill:none"/>
        <path data-name="Path 25145" d="M73.86 48.9a3.66 3.66 0 0 1-2.648.2c-.837-.344-2.8-.854-3.085.653-.366 1.96 1.829 1.958 3.386 1.356a1.98 1.98 0 0 1 2.346.42" transform="translate(54.514 18551.918)" style="fill:#fff"/>
        <path data-name="Path 25146" d="M73.86 48.9a3.66 3.66 0 0 1-2.648.2c-.837-.344-2.8-.854-3.085.653-.366 1.96 1.829 1.958 3.386 1.356a1.98 1.98 0 0 1 2.346.42" transform="translate(54.514 18551.918)" style="stroke-width:1.3px;stroke-miterlimit:10;stroke:#003a85;fill:none"/>
        <path data-name="Path 25147" d="M73.432 55.27c.033.151-.344 2.36-2.113 2.059a1.454 1.454 0 0 0-1.368 2.461c.9.854 1.954.622 2.827-.8s2.546-.352 2.546-.352" transform="translate(54.168 18550.33)" style="fill:#fff"/>
        <path data-name="Path 25148" d="M73.432 55.27c.033.151-.344 2.36-2.113 2.059a1.454 1.454 0 0 0-1.368 2.461c.9.854 1.954.622 2.827-.8s2.546-.352 2.546-.352" transform="translate(54.168 18550.33)" style="stroke-width:1.3px;stroke-miterlimit:10;stroke:#003a85;fill:none"/>
        <path data-name="Path 25149" d="M88.411 61.255a3.606 3.606 0 0 1 2.11 3.57c-.3 2.511 1.6 3.449 2.963 2.561.695-.452 1.306-2-.954-3.688s-.8-4.448-.8-4.448" transform="translate(49.573 18549.359)" style="fill:#d7f0fd"/>
        <path data-name="Path 25150" d="M88.411 61.255a3.606 3.606 0 0 1 2.11 3.57c-.3 2.511 1.6 3.449 2.963 2.561.695-.452 1.306-2-.954-3.688s-.8-4.448-.8-4.448" transform="translate(49.573 18549.359)" style="stroke-width:1.3px;stroke-miterlimit:10;stroke:#003a85;fill:none"/>
        <path data-name="Path 25151" d="M79.553 60.136a2.944 2.944 0 0 1-.692 3.313c-1.562 1.348-.934 2.958.378 3.173.668.11 1.888-.489 1.453-2.748s1.961-3.123 1.961-3.123" transform="translate(52.118 18549.145)" style="fill:#d7f0fd"/>
        <path data-name="Path 25152" d="M79.553 60.136a2.944 2.944 0 0 1-.692 3.313c-1.562 1.348-.934 2.958.378 3.173.668.11 1.888-.489 1.453-2.748s1.961-3.123 1.961-3.123" transform="translate(52.118 18549.145)" style="stroke-width:1.3px;stroke-miterlimit:10;stroke:#003a85;fill:none"/>
        <path data-name="Path 25153" d="M96.373 57.178s1.593-.4 2.913 1.557c.933 1.384 3.019 1.187 3.435.229.884-2.038-1.8-2.922-3-2.721a3.451 3.451 0 0 1-2.441-.973" transform="translate(47.638 18550.33)" style="fill:#d7f0fd"/>
        <path data-name="Path 25154" d="M96.373 57.178s1.593-.4 2.913 1.557c.933 1.384 3.019 1.187 3.435.229.884-2.038-1.8-2.922-3-2.721a3.451 3.451 0 0 1-2.441-.973" transform="translate(47.638 18550.33)" style="stroke-width:1.3px;stroke-miterlimit:10;stroke:#003a85;fill:none"/>
        <path data-name="Path 25155" d="M72.8 41.793a1.783 1.783 0 1 1-1.78-1.783 1.783 1.783 0 0 1 1.78 1.783z" transform="translate(54.234 18554.037)" style="stroke-width:1.3px;stroke-miterlimit:10;stroke:#003a85;fill:none"/>
        <circle data-name="Ellipse 206" cx="1.226" cy="1.226" r="1.226" transform="translate(133.364 18589.227)" style="stroke-width:1.3px;stroke-miterlimit:10;stroke:#003a85;fill:none"/>
        <circle data-name="Ellipse 207" cx="1.28" cy="1.28" r="1.28" transform="translate(122.994 18613.059)" style="stroke-width:1.3px;stroke-miterlimit:10;stroke:#003a85;fill:none"/>
        <path data-name="Path 25156" d="M87.558 50.065a1.926 1.926 0 1 1 1.118 1.4" transform="translate(49.789 18552.152)" style="stroke:#8e2a48;stroke-width:1.3px;stroke-miterlimit:10;fill:none"/>
        <path data-name="Path 25157" d="M82.689 56.238a1.481 1.481 0 0 1-.244.126 1.442 1.442 0 1 1 .9-1.293" transform="translate(51.505 18550.738)" style="stroke:#8e2a48;stroke-width:1.3px;stroke-miterlimit:10;fill:none"/>
        <path data-name="Path 25158" d="M25.068 85.783c2.3 2.345 6.595 2.006 8.94-.3s1.628-7.1-.672-9.442-5.842-.974-8.187 1.326a5.949 5.949 0 0 0-.081 8.412" transform="translate(65.385 18545.574)" style="fill:#d6f0fc"/>
        <path data-name="Path 25159" d="M23.851 85.379a6.318 6.318 0 1 0 .086-8.935 6.319 6.319 0 0 0-.086 8.935z" transform="translate(65.707 18545.621)" style="stroke-width:1.3px;stroke-miterlimit:10;stroke:#003a85;fill:none"/>
        <path data-name="Path 25160" d="M26.318 75.33a2.5 2.5 0 0 0 .1-2.1c-.515-.926-1.154-1.627-.624-2.539a1.127 1.127 0 0 1 2.065.553c.151 1.1-.38 2.066 1.174 2.9" transform="translate(64.843 18546.705)" style="fill:#fff;stroke-width:1.3px;stroke:#003a85"/>
        <path data-name="Path 25161" d="M26.318 75.33a2.5 2.5 0 0 0 .1-2.1c-.515-.926-1.154-1.627-.624-2.539a1.127 1.127 0 0 1 2.065.553c.151 1.1-.38 2.066 1.174 2.9" transform="translate(64.843 18546.705)" style="fill:none"/>
        <path data-name="Path 25162" d="M23.357 76.692a1.2 1.2 0 0 1-1.574-.478 1.11 1.11 0 0 0-1.985.129c-.353.642-.077 1.624 1.138 1.536.985-.07 1.1.544 1.042 1.238" transform="translate(66.287 18545.373)" style="stroke-width:1.3px;stroke-miterlimit:10;stroke:#003a85;fill:none"/>
        <path data-name="Path 25163" d="M20.749 83.3a2.309 2.309 0 0 1-2.072.191c-1.273-.422-1.857.6-1.711 1.211.167.7 1.241.835 2.018.329 1.263-.822 1.962-.329 1.962-.329" transform="translate(66.946 18543.516)" style="stroke-width:1.3px;stroke-miterlimit:10;stroke:#003a85;fill:none"/>
        <path data-name="Path 25164" d="M33.718 74.784a2.556 2.556 0 0 0 1.418-1.194c.249-.581.98-1.8 1.857-1.183 1.141.8.046 1.871-1.025 2.331A1.383 1.383 0 0 0 35 76.095" transform="translate(62.868 18546.203)" style="fill:#d7f0fd"/>
        <path data-name="Path 25165" d="M33.718 74.784a2.556 2.556 0 0 0 1.418-1.194c.249-.581.98-1.8 1.857-1.183 1.141.8.046 1.871-1.025 2.331A1.383 1.383 0 0 0 35 76.095" transform="translate(62.868 18546.203)" style="stroke-width:1.3px;stroke-miterlimit:10;stroke:#003a85;fill:none"/>
        <path data-name="Path 25166" d="M37.312 78.085c.057.092 1.325 1.008 2.06-.007a1.015 1.015 0 0 1 1.885.557c-.033.867-.67 1.266-1.8.982s-1.44 1.07-1.44 1.07" transform="translate(61.995 18544.906)" style="fill:#d7f0fd"/>
        <path data-name="Path 25167" d="M37.312 78.085c.057.092 1.325 1.008 2.06-.007a1.015 1.015 0 0 1 1.885.557c-.033.867-.67 1.266-1.8.982s-1.44 1.07-1.44 1.07" transform="translate(61.995 18544.906)" style="stroke-width:1.3px;stroke-miterlimit:10;stroke:#003a85;fill:none"/>
        <path data-name="Path 25168" d="M33.787 88.258a2.517 2.517 0 0 0 .694 2.81 1.414 1.414 0 0 1-.657 2.629c-.579 0-1.954-.263-1.652-2.208a1.785 1.785 0 0 0-1.276-2.25" transform="translate(63.554 18542.309)" style="fill:#d7f0fd"/>
        <path data-name="Path 25169" d="M33.787 88.258a2.517 2.517 0 0 0 .694 2.81 1.414 1.414 0 0 1-.657 2.629c-.579 0-1.954-.263-1.652-2.208a1.785 1.785 0 0 0-1.276-2.25" transform="translate(63.554 18542.309)" style="stroke-width:1.3px;stroke-miterlimit:10;stroke:#003a85;fill:none"/>
        <path data-name="Path 25170" d="M36.61 83.3a2.054 2.054 0 0 0 1.964 1.313c1.438-.092 2.153 1.068 1.724 1.892a1.386 1.386 0 0 1-2.429-.028 2.034 2.034 0 0 0-2.5-.6" transform="translate(62.468 18543.514)" style="fill:#d7f0fd"/>
        <path data-name="Path 25171" d="M36.61 83.3a2.054 2.054 0 0 0 1.964 1.313c1.438-.092 2.153 1.068 1.724 1.892a1.386 1.386 0 0 1-2.429-.028 2.034 2.034 0 0 0-2.5-.6" transform="translate(62.468 18543.514)" style="stroke-width:1.3px;stroke-miterlimit:10;stroke:#003a85;fill:none"/>
        <path data-name="Path 25172" d="M27.682 88.939a2.567 2.567 0 0 0-1.235 2.815c.264 1.045-.117 2.757-1.918 1.9-1.019-.487-.5-2.069.184-2.576a3.325 3.325 0 0 0 1.06-2.814" transform="translate(65.241 18542.309)" style="fill:#d7f0fd"/>
        <path data-name="Path 25173" d="M27.682 88.939a2.567 2.567 0 0 0-1.235 2.815c.264 1.045-.117 2.757-1.918 1.9-1.019-.487-.5-2.069.184-2.576a3.325 3.325 0 0 0 1.06-2.814" transform="translate(65.241 18542.309)" style="stroke-width:1.3px;stroke-miterlimit:10;stroke:#003a85;fill:none"/>
        <path data-name="Path 25174" d="M31.26 70.772a1.245 1.245 0 1 0 .017-1.76 1.244 1.244 0 0 0-.017 1.76z" transform="translate(63.553 18547.074)" style="stroke-width:1.3px;stroke-miterlimit:10;stroke:#003a85;fill:none"/>
        <path data-name="Path 25175" d="M22.04 73.115a.856.856 0 1 0 .011-1.211.856.856 0 0 0-.011 1.211z" transform="translate(65.767 18546.344)" style="stroke-width:1.3px;stroke-miterlimit:10;stroke:#003a85;fill:none"/>
        <path data-name="Path 25176" d="M20.2 91.074a.893.893 0 1 0 .012-1.263.893.893 0 0 0-.012 1.263z" transform="translate(66.217 18541.994)" style="stroke-width:1.3px;stroke-miterlimit:10;stroke:#003a85;fill:none"/>
        <path data-name="Path 25177" d="M27.917 82.123a1.365 1.365 0 0 0-.161-.2 1.345 1.345 0 1 0 .288 1.443" transform="translate(64.878 18543.947)" style="stroke:#8e2a48;stroke-width:1.3px;stroke-miterlimit:10;fill:none"/>
        <path data-name="Path 25178" d="M33.441 82.943a1.281 1.281 0 0 0 .229-.07 1.262 1.262 0 1 0-1.357-.254" transform="translate(63.305 18544.209)" style="stroke:#8e2a48;stroke-width:1.3px;stroke-miterlimit:10;fill:none"/>
    </g>
</svg>
