<svg xmlns="http://www.w3.org/2000/svg" width="72.167" height="79.076" viewBox="0 0 72.167 79.076">
    <g data-name="MEDICAL ONCOLOGY" transform="translate(-760.752 -18550.305)">
        <path data-name="Path 25179" d="M36.576 23.486a10.762 10.762 0 1 1-10.761-10.762 10.762 10.762 0 0 1 10.761 10.762" transform="translate(756.843 18546.848)" style="fill:#d6f0fc"/>
        <circle data-name="Ellipse 208" cx="11.432" cy="11.432" r="11.432" transform="translate(770.521 18558.197)" style="stroke:#003a85;stroke-width:1.3px;fill:none;stroke-miterlimit:10"/>
        <path data-name="Path 25180" d="M93.338 50.963h-1.861a1.311 1.311 0 0 1-1.311-1.311v-5.921a1.311 1.311 0 0 1 1.311-1.311h1.861a1.311 1.311 0 0 1 1.311 1.311v5.921a1.311 1.311 0 0 1-1.311 1.311" transform="translate(734.673 18538.082)" style="fill:#d6f0fc"/>
        <path data-name="Path 25181" d="M32.594 96.819H15.066a2.8 2.8 0 0 1-2.8-2.8V66.853a2.8 2.8 0 0 1 2.8-2.8h17.528a2.8 2.8 0 0 1 2.8 2.8v27.166a2.8 2.8 0 0 1-2.8 2.8" transform="translate(757.666 18531.697)" style="fill:#d6f0fc"/>
        <path data-name="Path 25182" d="M23.291 10.63s-2.284-.743-2.791-2.592-.571-3.562-2.411-4.069A2.04 2.04 0 0 0 16.123 7.3c1.205 1.618 3.108 2.189 2.157 5.234" transform="translate(756.664 18549.453)" style="fill:#fff"/>
        <path data-name="Path 25183" d="M23.291 10.63s-2.284-.743-2.791-2.592-.571-3.562-2.411-4.069A2.04 2.04 0 0 0 16.123 7.3c1.205 1.618 3.108 2.189 2.157 5.234" transform="translate(756.664 18549.453)" style="stroke:#003a85;stroke-width:1.3px;fill:none;stroke-miterlimit:10"/>
        <path data-name="Path 25184" d="M29.321 8.651a2.161 2.161 0 0 0 1.427-2.61 2.008 2.008 0 0 1 2.728-2.347c1.269.381 2.157 2 .476 3.426-1.362 1.156-.73 2.093.222 2.918" transform="translate(752.632 18549.545)" style="stroke:#003a85;stroke-width:1.3px;fill:none;stroke-miterlimit:10"/>
        <path data-name="Path 25185" d="M41.424 14.354a4.18 4.18 0 0 0 2.918-2.379c1.11-2.157 3.154-1.583 3.743-.6.666 1.11-.544 2.65-2.189 2.982-2.673.539-2.95 2.062-2.95 2.062" transform="translate(749.06 18547.504)" style="stroke:#003a85;stroke-width:1.3px;fill:none;stroke-miterlimit:10"/>
        <path data-name="Path 25186" d="M11.607 21.191a4.626 4.626 0 0 1-3.345.254c-1.058-.436-3.541-1.078-3.9.825-.463 2.475 2.311 2.474 4.278 1.713a2.5 2.5 0 0 1 2.964.53" transform="translate(760.013 18544.41)" style="fill:#fff"/>
        <path data-name="Path 25187" d="M11.607 21.191a4.626 4.626 0 0 1-3.345.254c-1.058-.436-3.541-1.078-3.9.825-.463 2.475 2.311 2.474 4.278 1.713a2.5 2.5 0 0 1 2.964.53" transform="translate(760.013 18544.41)" style="stroke:#003a85;stroke-width:1.3px;fill:none;stroke-miterlimit:10"/>
        <path data-name="Path 25188" d="M11.2 29.84c.042.19-.434 2.982-2.67 2.6a1.836 1.836 0 0 0-1.73 3.109c1.142 1.078 2.469.786 3.571-1.015s3.216-.444 3.216-.444" transform="translate(759.442 18541.795)" style="fill:#fff"/>
        <path data-name="Path 25189" d="M11.2 29.84c.042.19-.434 2.982-2.67 2.6a1.836 1.836 0 0 0-1.73 3.109c1.142 1.078 2.469.786 3.571-1.015s3.216-.444 3.216-.444" transform="translate(759.442 18541.795)" style="stroke:#003a85;stroke-width:1.3px;fill:none;stroke-miterlimit:10"/>
        <path data-name="Path 25190" d="M31.886 37.771s3.045 1.339 2.664 4.51 2.017 4.357 3.743 3.235c.878-.571 1.649-2.529-1.205-4.658s-1.015-5.618-1.015-5.618" transform="translate(751.875 18540.201)" style="fill:#d7f0fd"/>
        <path data-name="Path 25191" d="M31.886 37.771s3.045 1.339 2.664 4.51 2.017 4.357 3.743 3.235c.878-.571 1.649-2.529-1.205-4.658s-1.015-5.618-1.015-5.618" transform="translate(751.875 18540.201)" style="stroke:#003a85;stroke-width:1.3px;fill:none;stroke-miterlimit:10"/>
        <path data-name="Path 25192" d="M19.719 36.441a3.717 3.717 0 0 1-.873 4.185c-1.974 1.7-1.18 3.736.477 4.009.844.138 2.386-.618 1.835-3.472s2.477-3.946 2.477-3.946" transform="translate(756.067 18539.848)" style="fill:#d7f0fd"/>
        <path data-name="Path 25193" d="M19.719 36.441a3.717 3.717 0 0 1-.873 4.185c-1.974 1.7-1.18 3.736.477 4.009.844.138 2.386-.618 1.835-3.472s2.477-3.946 2.477-3.946" transform="translate(756.067 18539.848)" style="stroke:#003a85;stroke-width:1.3px;fill:none;stroke-miterlimit:10"/>
        <path data-name="Path 25194" d="M42.686 32.251s2.012-.507 3.679 1.967c1.179 1.749 3.814 1.5 4.338.29 1.117-2.574-2.27-3.691-3.793-3.438s-3.083-1.23-3.083-1.23" transform="translate(748.687 18541.795)" style="fill:#d7f0fd"/>
        <path data-name="Path 25195" d="M42.686 32.251s2.012-.507 3.679 1.967c1.179 1.749 3.814 1.5 4.338.29 1.117-2.574-2.27-3.691-3.793-3.438s-3.083-1.23-3.083-1.23" transform="translate(748.687 18541.795)" style="stroke:#003a85;stroke-width:1.3px;fill:none;stroke-miterlimit:10"/>
        <circle data-name="Ellipse 209" cx="2.252" cy="2.252" r="2.252" transform="translate(765.428 18557.045)" style="stroke:#003a85;stroke-width:1.3px;fill:none;stroke-miterlimit:10"/>
        <circle data-name="Ellipse 210" cx="1.773" cy="1.773" r="1.773" transform="translate(796.067 18563.92)" style="stroke:#003a85;stroke-width:1.3px;fill:none;stroke-miterlimit:10"/>
        <path data-name="Path 25196" d="M31.924 54.538a2.4 2.4 0 1 1-2.4-2.4 2.4 2.4 0 0 1 2.4 2.4" transform="translate(753.28 18535.213)" style="fill:#d6f0fc"/>
        <path data-name="Path 25197" d="M26.7 2.049A1.549 1.549 0 1 1 25.155.5 1.549 1.549 0 0 1 26.7 2.049z" transform="translate(754.319 18550.455)" style="stroke:#003a85;stroke-width:1.3px;fill:none;stroke-miterlimit:10"/>
        <circle data-name="Ellipse 211" cx="2.664" cy="2.664" r="2.664" transform="translate(779.701 18586.141)" style="stroke:#003a85;stroke-width:1.3px;fill:none;stroke-miterlimit:10"/>
        <path data-name="Path 25198" d="m55.739 52.918.345 23.4s.338 2.115 2.2 2.115a2.149 2.149 0 0 0 2.116-1.861 2.749 2.749 0 0 0 2.538 1.861 2.283 2.283 0 0 0 2.2-2.03V51.7l2.788 3.3a1.8 1.8 0 0 0 1.4.656c.824-.063 5.011-3.679 5.011-3.679v-3.36l-5.075 3.235-2.985-4.252a5.089 5.089 0 0 0-3.677-1.33h-6.029a5.7 5.7 0 0 0-3.617 3.4c-.761 2.559-2.466 8.966-2.466 8.966s-.706 2.411 1.071 2.728 2.093-2.22 2.093-2.22z" transform="translate(746.425 18536.945)" style="fill:#d6f0fc"/>
        <path data-name="Path 25199" d="M8.254 44.828a1.617 1.617 0 1 1-1.617-1.617 1.617 1.617 0 0 1 1.617 1.617z" transform="translate(759.804 18537.848)" style="stroke:#003a85;stroke-width:1.3px;fill:none;stroke-miterlimit:10"/>
        <rect data-name="Rectangle 1491" width="23.592" height="32.057" rx="3.973" transform="translate(768.058 18594.346)" style="stroke:#003a85;stroke-width:1.3px;fill:none;stroke-miterlimit:10"/>
        <path data-name="Path 25200" d="m53.739 52.238.345 23.4s.338 2.115 2.2 2.115a2.149 2.149 0 0 0 2.116-1.861 2.748 2.748 0 0 0 2.538 1.861 2.283 2.283 0 0 0 2.2-2.03v-24.7l2.792 3.3a1.8 1.8 0 0 0 1.4.656c.824-.063 5.011-3.679 5.011-3.679v-3.363l-5.075 3.235-2.982-4.25A5.088 5.088 0 0 0 60.6 45.59h-6.029a5.7 5.7 0 0 0-3.617 3.4c-.761 2.559-2.466 8.966-2.466 8.966s-.706 2.411 1.071 2.728 2.093-2.22 2.093-2.22z" transform="translate(747.015 18537.146)" style="stroke:#003a85;stroke-width:1.3px;fill:none;stroke-miterlimit:10"/>
        <path data-name="Line 46" transform="translate(805.329 18598.818)" style="stroke:#003a85;stroke-width:1.3px;fill:none;stroke-miterlimit:10" d="M0 0v14.22"/>
        <path data-name="Path 25201" d="M85.526 36.14h3.806v1.191h1.184V36.14" transform="translate(736.043 18539.936)" style="stroke:#003a85;stroke-width:1.3px;fill:none;stroke-miterlimit:10"/>
        <rect data-name="Rectangle 1492" width="4.483" height="8.543" rx="1.86" transform="translate(823.43 18579.797)" style="stroke:#003a85;stroke-width:1.3px;fill:none;stroke-miterlimit:10"/>
        <path data-name="Rectangle 1493" transform="translate(824.773 18588.34)" style="stroke:#003a85;stroke-width:1.3px;fill:none;stroke-miterlimit:10" d="M0 0h1.903v1.903H0z"/>
        <path data-name="Line 47" transform="translate(825.671 18577.268)" style="stroke:#003a85;stroke-width:1.3px;fill:none;stroke-miterlimit:10" d="M0 2.53V0"/>
        <path data-name="Path 25202" d="M87.928 56.506s.349 4.6 2.633 5.549c0 0 3.912 1.128 3.912-.994 0-1.861-2.972-1.379-4.356-.634s-3.045 2.2-4.483 2.453-6.005-.254-6.048-6.64" transform="translate(737.796 18534.004)" style="stroke:#003a85;stroke-width:1.3px;fill:none;stroke-miterlimit:10"/>
        <path data-name="Rectangle 1494" transform="translate(819.483 18576.289)" style="fill:#d6f0fc" d="M0 0h2.791v39.513H0z"/>
        <path data-name="Path 25203" d="M66.858 37.317a3.616 3.616 0 1 1-3.616-3.617 3.616 3.616 0 0 1 3.616 3.616" transform="translate(743.687 18540.656)" style="fill:#d6f0fc"/>
        <path data-name="Rectangle 1495" transform="translate(819.349 18574.451)" style="stroke:#003a85;stroke-width:1.3px;fill:none;stroke-miterlimit:10" d="M0 0h2.22v39.94H0z"/>
        <circle data-name="Ellipse 212" cx="3.616" cy="3.616" r="3.616" transform="translate(801.904 18573.863)" style="stroke:#003a85;stroke-width:1.3px;fill:none;stroke-miterlimit:10"/>
        <path data-name="Path 25204" d="M20.842 71.688a3.283 3.283 0 1 1-3.284-3.288 3.283 3.283 0 0 1 3.284 3.288z" transform="translate(757.072 18530.414)" style="stroke:#003a85;stroke-width:1.3px;fill:none;stroke-miterlimit:10"/>
        <path data-name="Line 48" transform="translate(771.348 18602.102)" style="stroke:#003a85;stroke-width:1.3px;fill:none;stroke-miterlimit:10" d="M0 0h6.373"/>
        <path data-name="Path 25205" d="M30.725 22.566a2.431 2.431 0 1 1 1.412 1.769" transform="translate(752.23 18544.797)" style="stroke:#8e2a48;stroke-width:4px;fill:none;stroke-miterlimit:10"/>
        <path data-name="Path 25206" d="M23.916 30.907a1.9 1.9 0 0 1-.308.159 1.821 1.821 0 1 1 1.142-1.634" transform="translate(755.057 18542.471)" style="stroke:#8e2a48;stroke-width:4px;fill:none;stroke-miterlimit:10"/>
        <path data-name="Path 25207" d="M35.842 71.688a3.283 3.283 0 1 1-3.284-3.288 3.283 3.283 0 0 1 3.284 3.288z" transform="translate(752.645 18530.414)" style="stroke:#003a85;stroke-width:1.3px;fill:none;stroke-miterlimit:10"/>
        <path data-name="Line 49" transform="translate(781.921 18602.102)" style="stroke:#003a85;stroke-width:1.3px;fill:none;stroke-miterlimit:10" d="M0 0h6.373"/>
        <path data-name="Path 25208" d="M20.842 85.466a3.283 3.283 0 1 1-3.283-3.283 3.283 3.283 0 0 1 3.283 3.283z" transform="translate(757.072 18526.346)" style="stroke:#003a85;stroke-width:1.3px;fill:none;stroke-miterlimit:10"/>
        <path data-name="Line 50" transform="translate(771.348 18611.813)" style="stroke:#003a85;stroke-width:1.3px;fill:none;stroke-miterlimit:10" d="M0 0h6.373"/>
        <path data-name="Path 25209" d="M35.842 85.466a3.283 3.283 0 1 1-3.283-3.283 3.283 3.283 0 0 1 3.283 3.283z" transform="translate(752.645 18526.346)" style="stroke:#003a85;stroke-width:1.3px;fill:none;stroke-miterlimit:10"/>
        <path data-name="Line 51" transform="translate(781.921 18611.813)" style="stroke:#003a85;stroke-width:1.3px;fill:none;stroke-miterlimit:10" d="M0 0h6.373"/>
        <path data-name="Path 25210" d="M20.842 98.466a3.283 3.283 0 1 1-3.283-3.283 3.283 3.283 0 0 1 3.283 3.283z" transform="translate(757.072 18522.51)" style="stroke:#003a85;stroke-width:1.3px;fill:none;stroke-miterlimit:10"/>
        <path data-name="Line 52" transform="translate(771.348 18620.975)" style="stroke:#003a85;stroke-width:1.3px;fill:none;stroke-miterlimit:10" d="M0 0h6.373"/>
        <path data-name="Path 25211" d="M35.842 98.466a3.283 3.283 0 1 1-3.283-3.283 3.283 3.283 0 0 1 3.283 3.283z" transform="translate(752.645 18522.51)" style="stroke:#003a85;stroke-width:1.3px;fill:none;stroke-miterlimit:10"/>
        <path data-name="Line 53" transform="translate(781.921 18620.975)" style="stroke:#003a85;stroke-width:1.3px;fill:none;stroke-miterlimit:10" d="M0 0h6.373"/>
        <path data-name="Path 25212" d="M11.07 98.943a2.894 2.894 0 0 1-4.085-.253L3.3 94.518a2.895 2.895 0 1 1 4.338-3.833l3.686 4.172a2.894 2.894 0 0 1-.253 4.085" transform="translate(760.526 18524.125)" style="fill:#d6f0fc"/>
        <path data-name="Line 54" transform="translate(765.668 18617.076)" style="fill:#d6f0fc" d="M4.135 0 0 3.653"/>
        <path data-name="Path 25213" d="M10.182 99.1a3.3 3.3 0 0 1-4.656-.288l-4.2-4.754a3.3 3.3 0 1 1 4.944-4.369l4.2 4.754a3.3 3.3 0 0 1-.288 4.657z" transform="translate(761.139 18524.459)" style="stroke:#003a85;stroke-width:1.3px;fill:none;stroke-miterlimit:10"/>
        <path data-name="Line 55" transform="translate(764.565 18616.732)" style="stroke:#003a85;stroke-width:1.3px;fill:none;stroke-miterlimit:10" d="M4.712 0 0 4.163"/>
        <path data-name="Path 25214" d="M16.021 104.658a3.3 3.3 0 0 1-3.144 3.447l-6.337.292a3.3 3.3 0 1 1-.3-6.59l6.337-.292a3.3 3.3 0 0 1 3.447 3.144" transform="translate(760.374 18520.641)" style="fill:#d6f0fc"/>
        <path data-name="Line 56" transform="translate(769.794 18622.611)" style="fill:#d6f0fc" d="m0 0 .289 6.281"/>
        <path data-name="Path 25215" d="M13.473 104.214a3.3 3.3 0 0 1-3.144 3.447l-6.337.292a3.3 3.3 0 1 1-.3-6.59l6.337-.292a3.3 3.3 0 0 1 3.444 3.143z" transform="translate(761.126 18520.771)" style="stroke:#003a85;stroke-width:1.3px;fill:none;stroke-miterlimit:10"/>
        <path data-name="Line 57" transform="translate(767.998 18622.299)" style="stroke:#003a85;stroke-width:1.3px;fill:none;stroke-miterlimit:10" d="m0 0 .289 6.281"/>
    </g>
</svg>
