<svg xmlns="http://www.w3.org/2000/svg" width="81.393" height="77.891" viewBox="0 0 81.393 77.891">
    <g data-name="PAEDIATRICS ONCOLOGY" transform="translate(-52.392 -19312.075)">
        <path data-name="Path 25229" d="M58.3 18.349c-1.148 10.753-4.17 17.04-13.007 17.04S32.04 27.063 32.04 17.632 36.057 1.989 44.893 1.989 59.517 6.968 58.3 18.349" transform="translate(48.348 19312.027)" style="fill:#d6f0fc"/>
        <path data-name="Path 25230" d="M49.715 27.754c0 2.732-2.78 4.6-6.209 4.6s-6.111-2.132-6.111-4.241 2.519-1.174 5.947-1.174 6.372-1.289 6.372.82" transform="translate(47.637 19308.77)" style="fill:#d7f0fd"/>
        <path data-name="Path 25231" d="M49.715 27.754c0 2.732-2.78 4.6-6.209 4.6s-6.111-2.132-6.111-4.241 2.519-1.174 5.947-1.174 6.373-1.294 6.373.815z" transform="translate(47.637 19308.77)" style="stroke-width:1.3px;stroke:#003a85;fill:none;stroke-miterlimit:10"/>
        <path data-name="Path 25232" d="M56.317 17.492c-1.193 11.168-4.332 17.7-13.51 17.7S29.04 26.543 29.04 16.747 33.212.5 42.39.5s15.19 5.17 13.927 16.992z" transform="translate(48.746 19312.225)" style="stroke-width:1.3px;stroke:#003a85;fill:none;stroke-miterlimit:10"/>
        <path data-name="Path 25233" d="M30.128 27.626c-1.934.57-2.943-1.287-3.723-3.933s-.447-5.553 2.013-4.659" transform="translate(49.145 19309.789)" style="stroke-width:1.3px;stroke:#003a85;fill:none;stroke-miterlimit:10"/>
        <path data-name="Path 25234" d="M58.924 27.626c1.934.57 2.943-1.287 3.723-3.933s.447-5.553-2.013-4.659" transform="translate(44.782 19309.789)" style="stroke-width:1.3px;stroke:#003a85;fill:none;stroke-miterlimit:10"/>
        <path data-name="Path 25235" d="M30.754 8.724s2.014 3.053 4.382 0 4.044-3.165 6.057-2.718a19.039 19.039 0 0 0 6.372-.193 5.55 5.55 0 0 1 4.807 2.135c1.23 1.525 1.453 2.3 3.242 2.135" transform="translate(48.518 19311.525)" style="stroke-width:1.3px;stroke:#003a85;fill:none;stroke-miterlimit:10"/>
        <path data-name="Path 25236" d="M48.665 34.1c0 1.68-2.2 3.042-4.92 3.042s-4.921-1.362-4.921-3.042 2.2-3.042 4.921-3.042 4.92 1.358 4.92 3.042z" transform="translate(47.448 19308.172)" style="stroke:#8e2a48;stroke-width:1.3px;fill:none;stroke-miterlimit:10"/>
        <ellipse data-name="Ellipse 214" cx="3.351" cy="2.071" rx="3.351" ry="2.071" transform="translate(87.842 19339.328)" style="stroke:#8e2a48;stroke-width:1.3px;fill:none;stroke-miterlimit:10"/>
        <path data-name="Rectangle 1498" transform="translate(89.191 19338.668)" style="stroke:#8e2a48;stroke-width:1.3px;fill:none;stroke-miterlimit:10" d="M0 0h4.003v2.088H0z"/>
        <path data-name="Path 25216" d="M28.172 63.031c-1.2-2.267 0-7.236 0-7.236a13.165 13.165 0 0 1-4.243-5.334c-1.6-3.6 1.467-4.486 1.467-4.486s5.334 6.353 8.268 9.287 3.6 7.6 4.691 10.6a6.218 6.218 0 0 0 3.31 3.8l-8.106 9.363-22.121-18.253s-6.081-4.764-6.606-5.289-2.951-2-1.706-4c1.179-1.9 3.511 0 3.511 0l9.179 4.312" transform="translate(52.229 19306.193)" style="fill:#d6f0fc"/>
        <path data-name="Path 25217" d="M34.283 81.225s-2.981-2.4-5.891-2.4S6.309 64.29 6.309 64.29s-3.188-1.967-1.257-3.9c0 0 2.323-1.844 5.478.734" transform="translate(52.01 19304.365)" style="fill:#d6f0fc"/>
        <path data-name="Path 25218" d="M28.242 62.768v-7.236L13.775 45.34s-3.023-2.521-4.757-.654 2.144 4.181 2.144 4.181l6.613 4.863-10-7.354s-2.549-2.3-4.186-.049c-1.46 2.004 3.118 4.893 3.118 4.893" transform="translate(52.16 19306.455)" style="fill:#d6f0fc"/>
        <path data-name="Path 25219" d="M42.553 68.888a6.218 6.218 0 0 1-3.31-3.8c-1.091-3-1.757-7.671-4.692-10.6S26.284 45.2 26.284 45.2s-3.067.886-1.467 4.486a13.163 13.163 0 0 0 4.244 5.334s-.51 4.534.69 6.8" transform="translate(49.367 19306.295)" style="stroke-width:1.3px;stroke:#003a85;fill:none;stroke-miterlimit:10"/>
        <path data-name="Path 25220" d="M32.008 80.472s-2.981-2.4-5.891-2.4S4.034 63.537 4.034 63.537s-3.188-1.967-1.257-3.9c0 0 1.405-1.613 4.561.965" transform="translate(52.312 19304.445)" style="stroke-width:1.3px;stroke:#003a85;fill:none;stroke-miterlimit:10"/>
        <path data-name="Path 25221" d="m11.074 56.311-6.712-4.889s-2.333-1.9-3.512 0c-1.245 2 1.182 3.475 1.707 4s6.6 5.29 6.6 5.29" transform="translate(52.531 19305.58)" style="stroke-width:1.3px;stroke:#003a85;fill:none;stroke-miterlimit:10"/>
        <path data-name="Path 25222" d="m15.5 53.161-10-7.354s-2.549-2.3-4.186-.049c-1.459 2.005 3.119 4.894 3.119 4.894" transform="translate(52.462 19306.354)" style="stroke-width:1.3px;stroke:#003a85;fill:none;stroke-miterlimit:10"/>
        <path data-name="Path 25223" d="M26.773 54.758 12.306 44.566s-3.023-2.521-4.757-.653 2.144 4.181 2.144 4.181" transform="translate(51.655 19306.559)" style="stroke-width:1.3px;stroke:#003a85;fill:none;stroke-miterlimit:10"/>
        <path data-name="Path 25224" d="m17.173 84.7-.134-2.129a9.067 9.067 0 0 1-2.139-4.23c-.716-2.894-1.109-10.575-1.109-10.575s.069-1.741 2.22-1.52c0 0-.626-2.88 1.5-3.013 0 0 1.223-.365 1.4 2.475 0 0-.728-4.5 1.224-4.62 1.641-.1 1.536 3.186 1.536 3.186s-.3-1.284 1.382-1.39c1.331-.083 1.434 1.551 1.434 1.551l.446 9.675a3.073 3.073 0 0 0 .638-1.651 2.906 2.906 0 0 1 2.808-2.088.671.671 0 0 1 .687 1.022 2.865 2.865 0 0 0-1.532 2.553c.108 1.723-2.07 3.908-3.313 5.411s-.758 4.947-.758 4.947z" transform="translate(50.768 19304.189)" style="fill:#d6f0fc"/>
        <path data-name="Line 58" transform="translate(65.7 19371.979)" style="fill:#d6f0fc" d="M0 5.868V0"/>
        <path data-name="Line 59" transform="translate(68.678 19370.701)" style="fill:#d6f0fc" d="M0 5.868V0"/>
        <path data-name="Line 60" transform="translate(71.523 19370.168)" style="fill:#d6f0fc" d="M0 5.868V0"/>
        <path data-name="Path 25225" d="M15.641 85.229V83.1a9.065 9.065 0 0 1-1.867-4.356c-.533-2.934-.445-10.623-.445-10.623s.178-1.734 2.312-1.378c0 0-.444-2.913 1.689-2.913 0 0 1.245-.287 1.245 2.558 0 0-.444-4.534 1.512-4.534 1.645 0 1.333 3.276 1.333 3.276s-.222-1.3 1.467-1.3c1.334 0 1.334 1.638 1.334 1.638l-.163 9.685a3.055 3.055 0 0 0 .741-1.608 2.906 2.906 0 0 1 2.933-1.907.671.671 0 0 1 .623 1.063 2.867 2.867 0 0 0-1.69 2.453c0 1.725-2.311 3.77-3.645 5.193s-1.067 4.889-1.067 4.889z" transform="translate(50.83 19304.086)" style="stroke:#8e2a48;stroke-width:1.3px;fill:none;stroke-miterlimit:10"/>
        <path data-name="Line 61" transform="translate(66.427 19370.826)" style="stroke:#8e2a48;stroke-width:1.3px;fill:none;stroke-miterlimit:10" d="M0 5.868V0"/>
        <path data-name="Line 62" transform="translate(69.405 19369.549)" style="stroke:#8e2a48;stroke-width:1.3px;fill:none;stroke-miterlimit:10" d="M0 5.868V0"/>
        <path data-name="Line 63" transform="translate(72.25 19369.016)" style="stroke:#8e2a48;stroke-width:1.3px;fill:none;stroke-miterlimit:10" d="M0 5.868V0"/>
        <path data-name="Path 25226" d="M80.077 45.639a6.421 6.421 0 1 1-6.422-6.422 6.422 6.422 0 0 1 6.422 6.422" transform="translate(43.68 19307.09)" style="fill:#d6f0fc"/>
        <path data-name="Path 25227" d="M65.611 54.617h12.073l9.376 7.064s2.825 2.526.513 4.666-5.651-1.281-5.651-1.281l-4.875-3.642v4.238s6.416 3.383 6.416 9.338-6.935 9.262-8.862 8.7-1.155-3 .257-4.546 2.954-3.439 2.954-3.439-1.926-4.124-4.366-4.324c0 0-2.184 1.741-3.725 0 0 0-6.036 2.437-3.082 5.807s3.125 3.926 3.082 4.7A1.415 1.415 0 0 1 69.079 83a2.219 2.219 0 0 1-2.826-.172c-1.5-1.241-5.779-4.452-6.122-6.593a7.612 7.612 0 0 1 2.183-7.051 33.972 33.972 0 0 1 3.386-3.393v-3.725l-6.55 4.624a3.476 3.476 0 0 1-3.468-.557c-1.37-1.37-.471-3.424.942-4.452s8.99-7.064 8.99-7.064" transform="translate(45.302 19305.045)" style="fill:#d6f0fc"/>
        <circle data-name="Ellipse 213" cx="6.646" cy="6.646" r="6.646" transform="translate(108.552 19345.068)" style="stroke:#003a85;fill:none;stroke-miterlimit:10"/>
        <path data-name="Path 25228" d="M62.831 53.728h12.495l9.7 7.31s2.925 2.614.532 4.829-5.848-1.325-5.848-1.325l-5.045-3.77v4.386s6.64 3.5 6.64 9.658-7.177 9.585-9.171 9-1.2-3.109.265-4.7 3.057-3.559 3.057-3.559-1.994-4.268-4.519-4.475c0 0-2.259 1.8-3.855 0 0 0-6.248 2.522-3.19 6.009s3.234 4.063 3.19 4.86a1.463 1.463 0 0 1-.664 1.152 2.3 2.3 0 0 1-2.925-.177c-1.551-1.285-5.981-4.607-6.335-6.823a7.875 7.875 0 0 1 2.259-7.3 35.05 35.05 0 0 1 3.5-3.514v-3.852l-6.778 4.785s-2.171.841-3.589-.576-.487-3.545.975-4.608 9.306-7.31 9.306-7.31z" transform="translate(45.72 19305.164)" style="stroke:#003a85;fill:none;stroke-miterlimit:10"/>
    </g>
</svg>
