<svg xmlns="http://www.w3.org/2000/svg" width="78.965" height="73.956" viewBox="0 0 78.965 73.956">
    <g data-name="RADIATION ONCOLOGY" transform="translate(-685.563 -19997.811)">
        <path data-name="Path 25276" d="M64.437 26.814s1.218 3.045-4.718 5.025-7.61 8.832-7.61 13.248v14.4h30.31l-.119-16.9s.457-10.573-8.613-11.994c0 0-3.649-.871-3.649-3.785" transform="translate(679.045 19994.598)" style="fill:#d6f0fc"/>
        <path data-name="Path 25277" d="M32.312 60.783c0-7.812-4.321-12.051-9.652-12.051s-9.652 6.333-9.652 14.145 4.322 14.144 9.652 14.144h14.963v2.554H14.745s-8.069-.919-11.235-8.783-1.941-19.2 9.4-24c9.079-3.845 21.244-.443 21.244 12.017h3.472" transform="translate(685.568 19992.191)" style="fill:#d6f0fc"/>
        <path data-name="Path 25278" d="M62.6 25.7s1.253 3.131-4.854 5.167-7.828 9.081-7.828 13.621v16.6" transform="translate(679.331 19994.742)" style="stroke:#003a85;fill:none;stroke-miterlimit:10;stroke-width:1.3px"/>
        <path data-name="Path 25279" d="M73.06 25.7s-1.253 3.131 4.853 5.167a10.51 10.51 0 0 1 6.195 5.852 21.944 21.944 0 0 1 .588 5.205" transform="translate(676.332 19994.742)" style="stroke:#003a85;fill:none;stroke-miterlimit:10;stroke-width:1.3px"/>
        <path data-name="Path 25280" d="M58.153 62.031c0-19.414-1.461-19.832-1.461-19.832a38.341 38.341 0 0 1-.626 9.916" transform="translate(678.531 19992.596)" style="stroke:#003a85;fill:none;stroke-miterlimit:10;stroke-width:1.3px"/>
        <path data-name="Path 25281" d="M61.317 34.194s5.428.731 6.158 2.714 0 6.471 0 6.471a4 4 0 0 1-4.28 3.653c-4.051 0-3.653-2.505-3.653-2.505" transform="translate(678.079 19993.637)" style="stroke:#003a85;fill:none;stroke-miterlimit:10;stroke-width:1.3px"/>
        <path data-name="Path 25282" d="M75.521 34.194s-5.428.731-6.158 2.714 0 6.471 0 6.471a4 4 0 0 0 4.28 3.653c4.051 0 3.653-2.505 3.653-2.505" transform="translate(676.842 19993.637)" style="stroke:#003a85;fill:none;stroke-miterlimit:10;stroke-width:1.3px"/>
        <path data-name="Path 25283" d="M76.164 53.945a2.352 2.352 0 1 1-2.353-2.353 2.353 2.353 0 0 1 2.353 2.353z" transform="translate(676.526 19991.371)" style="stroke:#8e2a48;fill:none;stroke-miterlimit:10;stroke-width:1.3px"/>
        <path data-name="Path 25284" d="M69.73 63.987a1.148 1.148 0 1 1-1.148-1.148 1.148 1.148 0 0 1 1.148 1.148" transform="translate(677.05 19989.906)" style="fill:#003a85"/>
        <path data-name="Path 25285" d="M40.6 70.815h-8.627a6.369 6.369 0 0 1-2.718-1.553c-.588-.621-3.738-.825-3.981.485-.316 1.708-1.94 1.068-3.885 1.068-1.5 0-2.814-1.883-2.814-4.6s2.425-4.138 4.951-3.944l1.651-.777v1.068h1.941s1.36 1.353.971 2.23c0 0 1.263-1.939 2.913-1.939h9.029" transform="translate(683.411 19990.082)" style="fill:#d6f0fc"/>
        <path data-name="Path 25286" d="M31.478 59.27c0-7.984-4.416-12.317-9.864-12.317S11.75 53.425 11.75 61.41s4.416 14.456 9.864 14.456h15.292v2.609H13.525S5.279 77.536 2.043 69.5.059 49.877 11.646 44.97c9.278-3.93 21.711-.452 21.711 12.282h3.549" transform="translate(685.764 19992.432)" style="stroke:#003a85;fill:none;stroke-miterlimit:10;stroke-width:1.3px"/>
        <path data-name="Path 25287" d="M40.357 69.979h-9.279a6.85 6.85 0 0 1-2.923-1.67c-.632-.668-4.019-.887-4.28.522-.34 1.836-2.086 1.148-4.177 1.148-1.616 0-3.025-2.024-3.025-4.947s2.61-4.447 5.327-4.238l1.774-.835v1.148h2.088s1.461 1.454 1.044 2.4c0 0 1.357-2.084 3.131-2.084h9.703" transform="translate(683.658 19990.281)" style="stroke:#003a85;fill:none;stroke-miterlimit:10;stroke-width:1.3px"/>
        <path data-name="Path 25288" d="M31.15 13.168a3.483 3.483 0 0 0-2.188 3.966H16.02s-.626-11.064 9.6-15.448z" transform="translate(683.744 19997.869)" style="fill:#d6f0fc"/>
        <path data-name="Path 25289" d="M43.017 16.959a3.483 3.483 0 0 0-2.566-3.733l5.8-11.571s10.173 4.4 9.511 15.505z" transform="translate(680.563 19997.871)" style="fill:#d6f0fc"/>
        <path data-name="Path 25290" d="M33.649 24.991a3.482 3.482 0 0 0 4.528-.1l6.506 11.189s-9.25 6.1-18.181-.537z" transform="translate(682.379 19994.85)" style="fill:#d6f0fc"/>
        <path data-name="Path 25291" d="M39.084 19.266a2.244 2.244 0 1 1-2.244-2.244 2.244 2.244 0 0 1 2.244 2.244" transform="translate(681.325 19995.873)" style="fill:#d6f0fc"/>
        <path data-name="Path 25292" d="M28.443 12.161a3.483 3.483 0 0 0-2.188 3.966H13.313S12.687 5.063 22.916.679z" transform="translate(684.097 19998)" style="stroke:#003a85;fill:none;stroke-miterlimit:10;stroke-width:1.3px"/>
        <path data-name="Path 25293" d="M40.31 15.952a3.483 3.483 0 0 0-2.566-3.733L43.541.647s10.173 4.4 9.51 15.505z" transform="translate(680.915 19998.004)" style="stroke:#003a85;fill:none;stroke-miterlimit:10;stroke-width:1.3px"/>
        <path data-name="Path 25294" d="M30.942 23.984a3.482 3.482 0 0 0 4.528-.1l6.507 11.186s-9.25 6.1-18.181-.537z" transform="translate(682.731 19994.979)" style="stroke:#003a85;fill:none;stroke-miterlimit:10;stroke-width:1.3px"/>
        <circle data-name="Ellipse 215" cx="2.244" cy="2.244" r="2.244" transform="translate(713.566 20012.018)" style="stroke:#003a85;fill:none;stroke-miterlimit:10;stroke-width:1.3px"/>
        <path data-name="Path 25295" d="M89.232 53.234c0 2.986-1.6 4.774-2.8 4.774s0-1.787 0-4.774-1.194-4.774 0-4.774 2.8 1.788 2.8 4.774z" transform="translate(674.646 19991.779)" style="stroke:#8e2a48;fill:none;stroke-miterlimit:10;stroke-width:1.3px"/>
        <path data-name="Path 25296" d="M82.908 49.958c1.194 0 1.812 2.5 1.812 3.471 0 2.449-.759 4.185-1.954 4.185" transform="translate(675.055 19991.586)" style="stroke:#8e2a48;fill:none;stroke-miterlimit:10;stroke-width:1.3px"/>
        <path data-name="Path 25297" d="M80.857 50.842c.955 0 1.448 2 1.448 2.774 0 1.957-.607 3.345-1.562 3.345" transform="translate(675.318 19991.469)" style="stroke:#8e2a48;fill:none;stroke-miterlimit:10;stroke-width:1.3px"/>
        <path data-name="Path 25298" d="M78.633 51.463c.955 0 1.448 1.648 1.448 2.284 0 1.611-.607 2.753-1.562 2.753" transform="translate(675.607 19991.387)" style="stroke:#8e2a48;fill:none;stroke-miterlimit:10;stroke-width:1.3px"/>
    </g>
</svg>
