<svg xmlns="http://www.w3.org/2000/svg" width="85.119" height="70.92" viewBox="0 0 85.119 70.92">
    <g data-name="FESS SURGERY">
        <path data-name="Path 25337" d="M67.9 59.332v-5.9s-9.933-1.747-12.586-3.451-3.949-4.936-3.625-6.115 3.107-4.98 1.489-7.666-3.949-1.442-4.984-1.9-1.036-2.621-2.266-2.752-2.654 3.407-2.654 3.407a10.233 10.233 0 0 0 1.424-3.092c.259-1.389-1.813-1.755-3.366-1.494s-1.813-1.179-1.942-3.014-2.2-.917-2.2-.917-3.884 1.7-7.768 3.014a22.862 22.862 0 0 1-8.8.655s-6.222-.129-15.03 6.947S1.074 59.5 1.074 59.5a19.187 19.187 0 0 0 18.117 14.4c15.175.774 19.356-6.5 25.241-6.04S67.9 71.118 67.9 71.118z" transform="translate(.206 -3.043)" style="fill:#d6f0fc"/>
        <path data-name="Path 25338" d="M66.335 57.447v-6.038s-6.562-1.789-9.28-3.533-4.043-5.054-3.712-6.261 3.181-5.1 1.525-7.849-4.043-1.476-5.1-1.946S48.7 29.137 47.445 29s-2.292 2.6-2.292 2.6.181-.425 1.032-2.283c.6-1.315-1.856-1.8-3.446-1.529s-1.856-1.208-1.989-3.086-2.25-.932-2.25-.932-3.977 1.744-7.953 3.085a23.378 23.378 0 0 1-9.014.671s-6.364-.134-15.378 7.111S1.61 57.7 1.61 57.7s4.756 15.22 19.025 14.744 18.708-6.659 24.732-6.659 20.968 3.171 20.968 3.171z" transform="translate(.15 -2.725)" style="stroke:#003a85;fill:none;stroke-miterlimit:10;stroke-width:1.3px"/>
        <path data-name="Path 25339" d="M24.243 48.863s.536-6.541-5.188-7.385-8.692-3.643-5.955-9.668" transform="translate(-1.229 -3.713)" style="stroke:#003a85;fill:none;stroke-miterlimit:10;stroke-width:1.3px"/>
        <path data-name="Path 25340" d="M27.653 38.421s-4.473-6.911 0-10.164" transform="translate(-2.85 -3.289)" style="stroke:#003a85;fill:none;stroke-miterlimit:10;stroke-width:1.3px"/>
        <path data-name="Path 25341" d="M33.773 30.109s3.4 4.419-1.789 7.46" transform="translate(-3.603 -3.51)" style="stroke:#003a85;fill:none;stroke-miterlimit:10;stroke-width:1.3px"/>
        <path data-name="Path 25342" d="m59.9 22.407-3.048 1.407s-1.68-.373-1.485-3l3.424-1.474" transform="translate(-6.389 -2.227)" style="fill:#d6f0fc"/>
        <path data-name="Path 25343" d="m87.23 12.209-23.14 9.57s-3.846-1.311-2.929-6.442L84.393 5.254" transform="translate(-7.065 -.545)" style="fill:#d6f0fc"/>
        <path data-name="Path 25344" d="M86.818 10.994 62.26 21.149s-4.082-1.391-3.109-6.836l24.656-10.7" transform="translate(-6.824 -.352)" style="stroke:#003a85;fill:none;stroke-miterlimit:10;stroke-width:1.3px"/>
        <path data-name="Path 25345" d="m59.773 21.452-3.643 1.682s-2.006-.444-1.775-3.583l4.093-1.762" transform="translate(-6.268 -2.041)" style="stroke:#003a85;fill:none;stroke-miterlimit:10;stroke-width:1.3px"/>
        <path data-name="Line 74" transform="translate(39.272 19.955)" style="stroke:#003a85;fill:none;stroke-miterlimit:10;stroke-width:1.3px" d="M0 4.092 9.239 0"/>
        <path data-name="Line 75" transform="translate(81.644 .576)" style="stroke:#003a85;fill:none;stroke-miterlimit:10;stroke-width:1.3px" d="M2.868 7.537 0 0"/>
        <path data-name="Line 76" transform="translate(63.937 4.576)" style="stroke:#003a85;fill:none;stroke-miterlimit:10;stroke-width:1.3px" d="M0 8.419 19.661 0"/>
        <path data-name="Line 77" transform="translate(75.835 .248)" style="stroke:#003a85;fill:none;stroke-miterlimit:10;stroke-width:1.3px" d="m0 0 5.28 12.811"/>
        <path data-name="Line 78" transform="translate(62.345 9.615)" style="stroke:#003a85;fill:none;stroke-miterlimit:10;stroke-width:1.3px" d="M3.271 6.974 0 0"/>
        <path data-name="Path 25346" d="m71.976 16.5-8.9 3.767a3.044 3.044 0 0 1-1.848-4.067l8.879-3.685" transform="translate(-7.065 -1.41)" style="stroke:#003a85;fill:none;stroke-miterlimit:10;stroke-width:1.3px"/>
        <path data-name="Line 79" transform="translate(74.234 4.457)" style="stroke:#003a85;fill:none;stroke-miterlimit:10;stroke-width:1.3px" d="M.87 2.008 0 0"/>
        <path data-name="Line 80" transform="translate(71.736 5.406)" style="stroke:#003a85;fill:none;stroke-miterlimit:10;stroke-width:1.3px" d="M.87 2.008 0 0"/>
        <path data-name="Line 81" transform="translate(69.667 6.195)" style="stroke:#003a85;fill:none;stroke-miterlimit:10;stroke-width:1.3px" d="M.87 2.008 0 0"/>
        <path data-name="Line 82" transform="translate(67.63 6.967)" style="stroke:#003a85;fill:none;stroke-miterlimit:10;stroke-width:1.3px" d="M.87 2.008 0 0"/>
        <path data-name="Line 83" transform="translate(33.568 24.967)" style="stroke:#8e2a48;fill:none;stroke-miterlimit:10;stroke-width:1.3px" d="M0 1.631 3.23 0"/>
    </g>
</svg>
