<svg xmlns="http://www.w3.org/2000/svg" width="49.887" height="71.394" viewBox="0 0 49.887 71.394">
    <g data-name="NASAL SEPTUM DEVIATION">
        <path data-name="Path 25331" d="M19.333.129S20.552 20.816 16.97 26.2c-4.431 6.659-2.954 16.929-2.954 16.929s-10.693 1.44-10.07 12.448c.591 10.443 12.728 9.56 12.728 9.56s14.179-.866 18.61.155 15.069-2.11 15.065-10.346c0-5.889-.872-8.951-5.894-10.989-6.205-2.518-6.513-.882-6.513-.882A33.458 33.458 0 0 0 35.876 26.2C32.331 17.778 34.4.129 34.4.129" transform="translate(-.463 .005)" style="fill:#d6f0fc"/>
        <path data-name="Path 25332" d="M15.913.058s1.219 20.687-2.363 26.07c-4.431 6.659-2.95 16.928-2.95 16.928S-.1 44.5.526 55.506c.591 10.443 12.728 9.56 12.728 9.56s14.179-.866 18.61.155S46.933 62.45 46.93 54.214c0-5.889-2-7.856-4.357-9.487-3.4-2.353-8.05-1.722-8.05-1.722a33.459 33.459 0 0 0-2.068-16.877C28.911 17.707 30.979.058 30.979.058" transform="translate(.151 .017)" style="stroke:#003a85;fill:none;stroke-miterlimit:10;stroke-width:1.3px"/>
        <path data-name="Path 25333" d="M7.914 73.532s5.248.289 8.714 6.226c3.692 6.324 11.816 5.442 14.982-.15 2.339-4.131 2-6.365 9.98-6.058" transform="translate(-1.179 -13.418)" style="fill:#d7f0fd"/>
        <path data-name="Path 25334" d="M7.914 73.532s5.248.289 8.714 6.226c3.692 6.324 11.816 5.442 14.982-.15 2.339-4.131 2-6.365 9.98-6.058" transform="translate(-1.179 -13.418)" style="stroke:#003a85;fill:none;stroke-miterlimit:10;stroke-width:1.3px"/>
        <path data-name="Path 25335" d="M28.928 15.107v14.928c0 .293-.015 1.694-.013 1.986.018 3.676-.827 5.015-2.661 9.022-1.914 4.182-.831 6.11.423 8.773 1.662 3.53.91 11.1.91 11.1" transform="translate(-4.284 -2.735)" style="stroke:#8e2a48;fill:none;stroke-miterlimit:10;stroke-width:1.3px"/>
        <path data-name="Path 25336" d="M26.928 15.107v14.928c0 .293-.015 1.694-.013 1.986.018 3.676-.827 5.015-2.661 9.022-1.914 4.182-.831 6.11.423 8.773 1.662 3.53.91 11.1.91 11.1" transform="translate(-3.925 -2.735)" style="stroke:#8e2a48;fill:none;stroke-miterlimit:10;stroke-width:1.3px"/>
    </g>
</svg>
