<svg xmlns="http://www.w3.org/2000/svg" width="53.886" height="67.479" viewBox="0 0 53.886 67.479">
    <path data-name="Path 25324" d="M16.745 7.538S32.511-4.883 44.211 7.3c12.867 13.393 3.365 27.747-2.459 31.33-6.645 4.089-12.775 8.1-17.553 15.346-4.126 6.26-7.137 12.375-16.573 8.183S2.884 49.432 2.884 49.432s5.826-5.45 2.36-9.132c-5.389-5.723-5.262-14.432-1.91-19.157 2.59-3.652 13.367 0 13.412-13.605" transform="translate(.037 -.162)" style="fill:#d6f0fc"/>
    <path data-name="Path 25325" d="M4.714 44.13S16.2 50.333 27.972 46.7c10.868-3.351 13.553-15.559 13.272-18.957-.371-4.465-3.08-13.195-9.951-16.018" transform="translate(-.854 -2.494)" style="stroke:#003a85;fill:none;stroke-miterlimit:10;stroke-width:1.3px"/>
    <path data-name="Path 25326" d="M23.373 14.5s11.663-4.377 19.79-1.876c9.36 2.879 9.36 14.606 9.36 14.606" transform="translate(-5.3 -2.523)" style="stroke:#003a85;fill:none;stroke-miterlimit:10;stroke-width:1.3px"/>
    <path data-name="Path 25327" d="M5.6 44.462s-5.021-4.123-2.274-7.916c2.208-3.05 5.129-3.325 7.135-3.668 1.919-.328 5.107-.637 7.01-.849 1.875-.21 3.891-.294 3.891-1.227 0-1.189-1.939-.968-4.56-.617a41.19 41.19 0 0 1-6.444.08 14.5 14.5 0 0 1-4.758-1.29 27.051 27.051 0 0 1-2.888-1.4" transform="translate(-.328 -6.271)" style="stroke:#003a85;fill:none;stroke-miterlimit:10;stroke-width:1.3px"/>
    <path data-name="Path 25328" d="M38.914 26.321a9.151 9.151 0 0 0-1.782-2.365 11.237 11.237 0 0 0-9.021-3.033c-4.954.522-4.535 3.291-2.729 4.394s3.71.884 4.343 2.592-.479 3.754-3.01 4.81c-1.974.824-4.04 2.031-3.115 5.281.855 3 5.133 3.946 8.416 2.755s8.5-4.994 8.147-9.9a9.434 9.434 0 0 0-1.249-4.534z" transform="translate(-5.3 -4.668)" style="stroke:#003a85;fill:none;stroke-miterlimit:10;stroke-width:1.3px"/>
    <path data-name="Path 25329" d="M38.139 22.889a14.5 14.5 0 0 0-11.53-3.883c-6.765.935-5.989 4.667-4.893 6.095s2.391 1.483 3.987 1.738c1.75.28 2.846 2.992-.6 4.2-4.36 1.526-6.485 3.556-5.369 7.435s6.875 5.308 11.1 3.919a21.322 21.322 0 0 0 7.15-4.116" transform="translate(-4.363 -4.199)" style="stroke:#8e2a48;fill:none;stroke-miterlimit:10;stroke-width:1.3px"/>
    <path data-name="Path 25330" d="M16.647 6.508s16.938-13.344 29.509-.259C59.98 20.638 49.77 36.06 43.514 39.91c-7.139 4.39-13.726 8.699-18.859 16.49-4.433 6.725-7.668 13.3-17.806 8.792s-5.1-13.669-5.1-13.669" transform="translate(.15 .182)" style="stroke:#003a85;fill:none;stroke-miterlimit:10;stroke-width:1.3px"/>
</svg>
