<svg xmlns="http://www.w3.org/2000/svg" width="69.687" height="71.646" viewBox="0 0 69.687 71.646">
    <g transform="translate(-422.036 -11898.169)">
        <path data-name="Path 25017" d="M21.533 5.778s-1.906 9.148 1.779 13.848L27 24.327l1.144-1.778s-1.652 1.143-1.4 6.479.889 10.29 9.656 14.865S43.9 55.2 43.9 55.2h5.2s-2.033-8.766 7.623-11.942 9.783-14.1 7.623-20.2c0 0 .508 1.778 2.16.381s6.722-7.115 4.944-17.66a2.852 2.852 0 0 0-4.32 0 61.914 61.914 0 0 1-.878 7.75c-.508 1.652-3.558 4.955-4.828 4.828 0 0-4.828-4.955-15.245-5.336s-15.373 6.225-15.373 6.225-5.589-2.669-5.462-7.246.127-5.971.127-5.971-1.27-1.779-3.938-.254" transform="translate(417.463 11897.35)" style="fill:#d7f0fd"/>
        <path data-name="Rectangle 1484" transform="translate(424.626 11920.808)" style="stroke:#08297e;fill:none;stroke-miterlimit:10;stroke-width:1.3px" d="M0 0h4.297v28.138H0z"/>
        <path data-name="Path 25018" d="M4.545 72.788 3.02 65.58h4.3l-1.389 7.208z" transform="translate(421.606 11883.366)" style="stroke:#08297e;fill:none;stroke-miterlimit:10;stroke-width:1.3px"/>
        <path data-name="Path 25019" d="M8.678 43.029a4.089 4.089 0 1 1-4.089-4.089 4.089 4.089 0 0 1 4.089 4.089" transform="translate(422.186 11889.491)" style="fill:#fff"/>
        <circle data-name="Ellipse 198" cx="4.089" cy="4.089" r="4.089" transform="translate(422.686 11928.432)" style="stroke:#08297e;fill:none;stroke-miterlimit:10;stroke-width:1.3px"/>
        <path data-name="Path 25020" d="M31.291 33.35s4.945 8.616 7.023 12.267c1.91 3.356 5.973 13.724 4.466 19.683-2.664 10.534-11.258 14.277-21.653 12.752C10.832 76.542 5.81 65.3 5.81 65.3" transform="translate(420.965 11890.776)" style="stroke:#08297e;fill:none;stroke-miterlimit:10;stroke-width:1.3px"/>
        <path data-name="Line 40" transform="translate(424.626 11922.739)" style="stroke:#08297e;fill:none;stroke-miterlimit:10;stroke-width:1.3px" d="M0 0h4.297"/>
        <path data-name="Line 41" transform="translate(424.626 11925.213)" style="stroke:#08297e;fill:none;stroke-miterlimit:10;stroke-width:1.3px" d="M0 0h4.297"/>
        <path data-name="Rectangle 1485" transform="translate(424.857 11931.773)" style="stroke:#08297e;fill:none;stroke-miterlimit:10;stroke-width:1.3px" d="M0 0h4.066v1.756H0z"/>
        <path data-name="Path 25021" d="M38.518 30.322a1.707 1.707 0 0 1-.357 2.334 1.707 1.707 0 0 1-2.133-1.013 1.707 1.707 0 0 1 .357-2.334 1.707 1.707 0 0 1 2.133 1.013z" transform="translate(414.082 11891.735)" style="stroke:#8f2947;fill:none;stroke-miterlimit:10;stroke-width:1.3px"/>
        <path data-name="Path 25022" d="M48.958 55.529S46.74 45.965 57.275 42.5s10.673-15.387 8.317-22.04c0 0 .554 1.941 2.356.416s6.515-7.762 4.574-19.267a3.111 3.111 0 0 0-4.713 0s.416 6.653-.139 8.455-3.88 5.406-5.27 5.267c0 0-5.267-5.406-16.633-5.822S29 16.3 29 16.3s-6.1-2.911-5.96-7.9.139-6.515.139-6.515-1.386-1.941-4.3-.277c0 0-2.079 9.98 1.941 15.109l4.02 5.129 1.248-1.941s-1.8 1.248-1.525 7.069.97 11.226 10.537 16.218 8.178 12.336 8.178 12.336" transform="translate(418.083 11898.33)" style="stroke:#08297e;fill:none;stroke-miterlimit:10;stroke-width:1.3px"/>
    </g>
</svg>
