<svg xmlns="http://www.w3.org/2000/svg" width="68.801" height="78.7" viewBox="0 0 68.801 78.7">
    <path data-name="Path 25011" d="M69.638 30.523C58.61 33.191 55.068 41.881 54.69 56.268c-.5 18.911-22.9 27.876-29.163 13.048s6.259-28.448 7.452-34.432-.6-7.029-3.577-2.17-10.187 22.941-13.148 27.544c-3.69 5.736-7.154 1.618-7.154 1.618s-6.72-8.986 4.307-32.508 8.842-25.112 8.842-25.112C50.341-5.607 67.5 1.083 69.638 30.523z" transform="translate(-.988)" style="fill:#d7f0fd"/>
    <path data-name="Path 25012" d="M18.194 8.183s2.183 1.564-8.831 24.7a73.565 73.565 0 0 0-4.975 13.33c-.962 3.765-2.133 6.695-2.566 9.293C1.6 56.815.521 55.273.5 57.311c-.051 5.04 4.3 8.265 4.3 8.265s6.606 3.03 9.333-2.587c.887-1.828-.373-1.606.093-2.523 3.323-6.53 8.5-20.1 11.113-24.293 2.977-4.779 4.763-3.751 3.572 2.134s-13.693 19.282-7.442 33.867 31.354 5.656 31.85-12.944C53.7 45.079 57.486 34.564 68.5 31.94" transform="translate(.151 -1.417)" style="stroke:#08297e;fill:none;stroke-miterlimit:10;stroke-width:1.3px"/>
    <path data-name="Path 25013" d="M50.519 65.379c1.523 6.058-1.042 11.925-5.729 13.1s-9.72-2.779-11.243-8.837 1.042-11.925 5.728-13.1S49 59.321 50.519 65.379z" transform="translate(-5.496 -9.755)" style="stroke:#08297e;fill:none;stroke-miterlimit:10;stroke-width:1.3px"/>
    <path data-name="Path 25014" d="M61.465 8.183s-12.5 4.855-10.914 14.182S59.94 53.861 53.863 62" transform="translate(-8.492 -1.417)" style="stroke:#08297e;fill:none;stroke-miterlimit:10;stroke-width:1.3px"/>
    <path data-name="Path 25015" d="M56.633 5.9s-13.891 4.758-10.914 17.458 5.336 24.805 5.248 26.194a10.243 10.243 0 0 0-8.786-7.342c-7.178-.794-9.787 5.819-7.291 9.061" transform="translate(-5.645 -1.021)" style="stroke:#08297e;fill:none;stroke-miterlimit:10;stroke-width:1.3px"/>
    <path data-name="Path 25016" d="M31.232 61.494s-2.8 9.344 2.4 15.317c3.719 4.271 7.913 4.321 9.55 4.023 4.914-.894 4.758 1.151 3.035 3.3s-7.149 4.794-12.747 1.63c-9.339-5.279-7.169-16.309-6.759-18.377.519-2.608 3.661-8.678 4.521-5.893z" transform="translate(-4.301 -10.524)" style="stroke:#8f2947;fill:none;stroke-miterlimit:10;stroke-width:1.3px"/>
</svg>
