<svg xmlns="http://www.w3.org/2000/svg" width="56.444" height="77.604" viewBox="0 0 56.444 77.604">
    <g data-name="KIDNEY STONE" transform="translate(-113.867 -11073.476)">
        <path data-name="Path 3272" d="M42.838 74.546S47.4 46.349 32.685 45.3c0 0 11.573 5.881 2.338 23.375S3.047 69.1 4.4 41.61c.672-13.724 2.879-23.556 15.39-32.87 12.424-9.248 25.179-.919 25.179 8.776s-8.88 17.154-8.88 17.154 12.432 5.683 13.853 19.18 0 22.048 0 22.048" transform="translate(113.211 11072.857)" style="fill:#d7f0fd"/>
        <path data-name="Path 3273" d="M41.513 74.979s4.862-30.079-10.83-31.191c0 0 12.345 6.275 2.494 24.935S-.88 71.068.562 41.741C1.281 27.1 3.583 14.719 16.928 4.785c13.252-9.865 26.858-.98 26.858 9.361s-9.472 18.3-9.472 18.3 13.261 6.06 14.777 20.454 0 23.519 0 23.519" transform="translate(114.02 11073.747)" style="stroke:#08297e;fill:none;stroke-miterlimit:10;stroke-width:1.3px"/>
        <path data-name="Path 3274" d="M29.38 13.375s0 8.3 4.831 6.024 5.967-6.024 5.967-6.024" transform="translate(107.936 11071.035)" style="stroke:#08297e;fill:none;stroke-miterlimit:10;stroke-width:1.3px"/>
        <path data-name="Path 3275" d="M17.952 17.441s4.831 3.951 2.842 7.646-9.093 0-9.093 0" transform="translate(111.66 11070.179)" style="stroke:#08297e;fill:none;stroke-miterlimit:10;stroke-width:1.3px"/>
        <path data-name="Path 3276" d="M9.293 32.527s8.809 0 8.809 5.4S7.02 41.9 7.02 41.9" transform="translate(112.646 11067.001)" style="stroke:#08297e;fill:none;stroke-miterlimit:10;stroke-width:1.3px"/>
        <path data-name="Path 3277" d="M7.02 49.723s7.388-3.438 9.946 0-7.957 7.7-7.957 7.7" transform="translate(112.646 11063.7)" style="stroke:#08297e;fill:none;stroke-miterlimit:10;stroke-width:1.3px"/>
        <path data-name="Path 3278" d="M11.7 66.312s3.126-7.282 7.388-4.44 2.186 14.208 2.186 14.208" transform="translate(111.66 11060.958)" style="stroke:#08297e;fill:none;stroke-miterlimit:10;stroke-width:1.3px"/>
        <path data-name="Path 3279" d="M33.416 75.732s-8.746-22.143 3.566-20.418" transform="translate(107.72 11062.221)" style="stroke:#08297e;fill:none;stroke-miterlimit:10;stroke-width:1.3px"/>
        <path data-name="Path 3280" d="M45.5 21.507s-10.6 10.435-2.909 15.362" transform="translate(105.742 11069.322)" style="stroke:#08297e;fill:none;stroke-miterlimit:10;stroke-width:1.3px"/>
        <circle data-name="Ellipse 190" cx="3.126" cy="3.126" r="3.126" transform="translate(156.592 11128.497)" style="stroke:#8f2947;fill:none;stroke-miterlimit:10;stroke-width:1.3px"/>
        <path data-name="Path 3281" d="M36.451 46.189a3.89 3.89 0 1 1-3.889-3.889 3.889 3.889 0 0 1 3.889 3.889z" transform="translate(108.085 11064.941)" style="stroke:#8f2947;fill:none;stroke-miterlimit:10;stroke-width:1.3px"/>
        <path data-name="Line 19" transform="translate(164.785 11125.378)" style="stroke:#8f2947;fill:none;stroke-miterlimit:10;stroke-width:1.3px" d="M0 2.192 4.389 0"/>
        <path data-name="Line 20" transform="translate(164.785 11131.184)" style="stroke:#8f2947;fill:none;stroke-miterlimit:10;stroke-width:1.3px" d="M0 0h5.525"/>
        <path data-name="Line 21" transform="translate(165.069 11134.26)" style="stroke:#8f2947;fill:none;stroke-miterlimit:10;stroke-width:1.3px" d="m0 0 4.736 2.556"/>
        <path data-name="Path 3282" d="M34.714 47.026a1.519 1.519 0 1 1-1.519-1.519 1.52 1.52 0 0 1 1.519 1.519" transform="translate(107.452 11064.266)" style="fill:#8f2947"/>
        <path data-name="Path 3283" d="M58.874 72.781a1.519 1.519 0 1 1-1.52-1.519 1.52 1.52 0 0 1 1.52 1.519" transform="translate(102.363 11058.841)" style="fill:#8f2947"/>
    </g>
</svg>
