<svg xmlns="http://www.w3.org/2000/svg" width="66.406" height="75.129" viewBox="0 0 66.406 75.129">
    <path data-name="Path 3308" d="M54.646.361a31.768 31.768 0 0 0-3.294 15.466c.573 7.161-.716 23.114-.716 23.114 3.58 3.923.716 6.69.716 6.69 1.432 11.759-1.289 17.313-5.728 22.182s-6.8 1-6.8 1c-.644 2.148-4.367 1.576-4.367 1.576-11.743-5.442-8.609-24.76-8.609-24.76-2.021-3.278 1.3-6.69 1.3-6.69-2.435-6.388-.716-21.109-.716-21.109S27.866 3.655 24.428.361" transform="translate(-4.361 .108)" style="fill:#d7f0fd"/>
    <path data-name="Path 3309" d="M7.983 3.24s4.26 8.316-3.124 21.571C-6.391 45.01 6.2 56.68 19.276 51.234" transform="translate(.321 -.455)" style="stroke:#08297e;fill:none;stroke-miterlimit:10;stroke-width:1.3px"/>
    <path data-name="Path 3310" d="M21.576 49.23C8.5 54.676-4.092 43.006 7.159 22.807c7.383-13.255 3.124-21.571 3.124-21.571h11.763s3.44 5.917 1.695 18.579S24.767 37.5 24.767 37.5z" transform="translate(-.129 -.062)" style="fill:#d7f0fd"/>
    <path data-name="Path 3311" d="M54.476 49.23c13.078 5.446 25.668-6.224 14.418-26.423C61.51 9.552 65.769 1.236 65.769 1.236H54.006s-3.44 5.917-1.695 18.579S51.285 37.5 51.285 37.5z" transform="translate(-9.616 -.062)" style="fill:#d7f0fd"/>
    <path data-name="Path 3312" d="M54.241.361a33.508 33.508 0 0 0-3.475 16.317c.6 7.554-.756 24.385-.756 24.385 3.777 4.139.756 7.058.756 7.058 1.511 12.406-1.36 18.265-6.044 23.4s-7.177 1.058-7.177 1.058c-.68 2.267-4.608 1.662-4.608 1.662-12.388-5.741-9.081-26.12-9.081-26.12-2.132-3.459 1.376-7.058 1.376-7.058-2.568-6.739-.755-22.269-.755-22.269S25.988 3.836 22.362.361" transform="translate(-3.957 .108)" style="stroke:#08297e;fill:none;stroke-miterlimit:10;stroke-width:1.3px"/>
    <path data-name="Path 3313" d="M24.22 58.86s13.254-8.142 26.91 0" transform="translate(-4.321 -10.63)" style="stroke:#08297e;fill:none;stroke-miterlimit:10;stroke-width:1.3px"/>
    <path data-name="Path 3314" d="M25.931 50.334s12.54-5.833 24.778 0" transform="translate(-4.656 -9.162)" style="stroke:#08297e;fill:none;stroke-miterlimit:10;stroke-width:1.3px"/>
    <path data-name="Path 3315" d="M27.77 47.322a7.453 7.453 0 0 0 0 5.514" transform="translate(-4.907 -9.081)" style="stroke:#8f2947;fill:none;stroke-miterlimit:10;stroke-width:1.3px"/>
    <path data-name="Path 3316" d="M32.646 46.334a5.676 5.676 0 0 0 0 5.025" transform="translate(-5.855 -8.888)" style="stroke:#8f2947;fill:none;stroke-miterlimit:10;stroke-width:1.3px"/>
    <path data-name="Path 3317" d="M37.079 45.349s-1.133 3.173 0 4.835" transform="translate(-6.738 -8.694)" style="stroke:#8f2947;fill:none;stroke-miterlimit:10;stroke-width:1.3px"/>
    <path data-name="Path 3318" d="M41.241 45.349a43.954 43.954 0 0 1 0 4.517" transform="translate(-7.651 -8.694)" style="stroke:#8f2947;fill:none;stroke-miterlimit:10;stroke-width:1.3px"/>
    <path data-name="Path 3319" d="M45.091 45.349a8.451 8.451 0 0 1 0 4.517" transform="translate(-8.404 -8.694)" style="stroke:#8f2947;fill:none;stroke-miterlimit:10;stroke-width:1.3px"/>
    <path data-name="Path 3320" d="M49.694 46.334a6.049 6.049 0 0 1 0 4.572" transform="translate(-9.305 -8.888)" style="stroke:#8f2947;fill:none;stroke-miterlimit:10;stroke-width:1.3px"/>
    <path data-name="Path 3321" d="M54.484 48.157a7.466 7.466 0 0 1 0 4.54" transform="translate(-10.243 -9.244)" style="stroke:#8f2947;fill:none;stroke-miterlimit:10;stroke-width:1.3px"/>
    <path data-name="Path 3322" d="M68.971 3.24s-4.26 8.316 3.124 21.571c11.25 20.2-1.34 31.869-14.418 26.423" transform="translate(-10.867 -.455)" style="stroke:#08297e;fill:none;stroke-miterlimit:10;stroke-width:1.3px"/>
</svg>
