<svg xmlns="http://www.w3.org/2000/svg" width="54.55" height="71.355" viewBox="0 0 54.55 71.355">
    <g data-name="SPIDER VEINS">
        <path data-name="Path 25045" d="M34.153 0s-2.062 19-1.783 27.42-1.06 22.464-5.742 26.867-8.639 7.8-13.1 9.81c-4.515 2.007-7.135 2.23-8.807 2.23s-2.063 4.236 2.23 4.236 9.754 1.784 12.541 0 7.914-2.4 12.82-1.393 9.253 3.01 11.705-1-.39-8.249-1.114-13.823c-.725-5.63 3.177-21.46 4.849-25.473S57.118 7.3 54.331.056H34.153z" transform="translate(-.383)" style="fill:#d7f0fd"/>
        <path data-name="Path 25046" d="M30.861.841S28.846 21.507 29.1 29.308s-1.034 20.82-5.683 24.9S14.845 61.443 10.4 63.3a21.652 21.652 0 0 1-8.73 2.07c-1.652 0-2.07 3.93 2.223 3.93s9.661 1.653 12.451 0S24.2 67.075 29.1 68.005s9.2 2.789 11.625-.93-.362-7.647-1.137-12.813c-.723-5.218 3.151-19.89 4.856-23.611s9.3-23.043 6.51-29.759" transform="translate(.156 -.148)" style="stroke:#0a2b7c;fill:none;stroke-miterlimit:10;stroke-width:1.3px"/>
        <path data-name="Path 25047" d="M47.662 18.611s-1.083-.877-4.03-1.08c-2.079-.143-1.2-3.393-2.905-3.393" transform="translate(-6.963 -2.501)" style="stroke:#8e2a48;fill:none;stroke-miterlimit:10;stroke-width:1.3px"/>
        <path data-name="Path 25048" d="M41.617 24.657s-.533-1.779 1.173-1.886 2.346-.853 3.3-2.028 1.712-1.17 1.712-1.17 1.593-.107 2.02 3.2 2.665 1.886 2.665 1.886" transform="translate(-7.106 -3.464)" style="stroke:#8e2a48;fill:none;stroke-miterlimit:10;stroke-width:1.3px"/>
        <path data-name="Path 25049" d="M55.543 19.761s-1.411.477-2.477-1.442-4.046 0-4.046 0-1.249-1.36-.188-2.505 1.835-1.968 1.048-3.325" transform="translate(-8.322 -2.21)" style="stroke:#8e2a48;fill:none;stroke-miterlimit:10;stroke-width:1.3px"/>
        <path data-name="Path 25050" d="M41.5 53.069a1.572 1.572 0 0 1 1.826-1.412c.321.053 1.9.609 2.468-.142" transform="translate(-7.1 -9.116)" style="stroke:#8e2a48;fill:none;stroke-miterlimit:10;stroke-width:1.3px"/>
        <path data-name="Path 25051" d="M40.127 47.16s1.435 1.07.91 1.857a2.268 2.268 0 0 0-.215 2.135c.2.816-.058 1.146-.058 1.146s-.487.737-2.085-.182-1.324-1.516-1.324-1.516" transform="translate(-6.363 -8.346)" style="stroke:#8e2a48;fill:none;stroke-miterlimit:10;stroke-width:1.3px"/>
        <path data-name="Path 25052" d="M38.074 57.005s1.323.252 1.323-.963a3.368 3.368 0 0 1 1.5-2.64 1.261 1.261 0 0 1 1.166.757c.341.8 1.26 2.072 2.122 2.179" transform="translate(-6.493 -9.45)" style="stroke:#8e2a48;fill:none;stroke-miterlimit:10;stroke-width:1.3px"/>
    </g>
</svg>
