<svg xmlns="http://www.w3.org/2000/svg" width="54.446" height="71.218" viewBox="0 0 54.446 71.218">
    <g data-name="VARICOSE VEINS">
        <path data-name="Path 25023" d="M34.094 0s-2.059 18.967-1.78 27.367-1.057 22.42-5.73 26.815-8.623 7.788-13.074 9.791C9 65.977 6.389 66.2 4.721 66.2s-2.059 4.228 2.225 4.228 9.735 1.781 12.517 0 7.9-2.392 12.795-1.391 9.235 3 11.683-1-.389-8.233-1.112-13.8C42.1 48.619 46 32.819 47.669 28.814S57.014 7.288 54.233.056H34.094z" transform="translate(-.388)" style="fill:#d7f0fd"/>
        <path data-name="Path 25024" d="M30.8.841s-2.008 20.626-1.75 28.412-1.032 20.78-5.672 24.854-8.56 7.219-12.995 9.075a21.61 21.61 0 0 1-8.715 2.063c-1.649 0-2.063 3.919 2.218 3.919s9.642 1.65 12.427 0 7.837-2.217 12.737-1.289 9.178 2.784 11.6-.928-.361-7.632-1.134-12.788c-.722-5.208 3.145-19.852 4.847-23.565s9.282-23 6.5-29.7" transform="translate(.155 -.15)" style="stroke:#0a2b7c;fill:none;stroke-miterlimit:10;stroke-width:1.3px"/>
        <path data-name="Path 25025" d="M49.122 5.8s.258 6.291-1.134 6.7-4.332.258-2.579 2.991-.309 1.5-.515 2.836.051 4.074 1.134 1.958c1.134-2.114 1.753-2.835 1.959-1.856a4.661 4.661 0 0 1-1.031 4.847c-1.806 1.856-3.146 1.753-2.166 3.609s-1.5 1.341-1.237 2.837 1.5 3.453.619 4.227-1.341.876-2.733 0c-1.341-.876-1.96.98-.619 2.372 1.341 1.341 3.454 1.238 1.856 2.836s-2.578 1.856-2.114 4.229c.515 2.372.825 2.114-.516 3.816-1.341 1.752.619 2.474 0 3.351" transform="translate(-6.82 -1.035)" style="stroke:#8e2a48;fill:none;stroke-miterlimit:10;stroke-width:1.3px"/>
    </g>
</svg>
