<svg xmlns="http://www.w3.org/2000/svg" width="65.09" height="67.927" viewBox="0 0 65.09 67.927">
    <g data-name="BREAST SURGERY">
        <path data-name="Path 25124" d="M17.165 1.622s2.126 5.9-7.085 10.865-7.086 27.967-7.086 27.967l-.212 27.771h33.75s-1.181-12.086 0-18.915c0 0-4.251-.688-5.669-2.106s3.543 3.639 9.684 1.111 7.085-10.558 7.085-10.558-12.281-11.572-15.116-20.074a31.6 31.6 0 0 1-.945-16.061" transform="translate(-.367 -.298)" style="fill:#d6f0fc"/>
        <path data-name="Path 25125" d="M43.1 66.772s-1.181-12.085 0-18.915c0 0-4.251-.688-5.669-2.105s3.543 3.638 9.684 1.11S54.2 36.3 54.2 36.3 41.914 24.732 39.08 16.23A31.6 31.6 0 0 1 38.135.169" transform="translate(-8.662 .051)" style="stroke:#003a85;fill:none;stroke-miterlimit:10;stroke-width:1.3px"/>
        <path data-name="Path 25126" d="M14.883.169s2.126 5.9-7.085 10.865S.712 39 .712 39L.5 66.772" transform="translate(.184 .051)" style="stroke:#003a85;fill:none;stroke-miterlimit:10;stroke-width:1.3px"/>
        <path data-name="Line 44" transform="translate(15.278 33.522)" style="stroke:#003a85;fill:none;stroke-miterlimit:10;stroke-width:1.3px" d="M2.859 0 0 32.12"/>
        <path data-name="Line 45" transform="translate(29.473 33.313)" style="stroke:#8e2a48;fill:none;stroke-miterlimit:10;stroke-width:1.3px" d="M0 0v9.08"/>
        <path data-name="Path 25127" d="M41.915 42.421s3.306-3.149 11.652-3.935l1.733 1.621a13.5 13.5 0 0 0-4.723 2.315c-2.2 1.732-8.659 0-8.659 0" transform="translate(-9.803 -9.189)" style="fill:#d6f0fc"/>
        <path data-name="Path 25128" d="M76.163 34.09 59 38.388l-1.732-1.622 17.162-5.038s2.952-1.063 3.424.413c.516 1.61-1.692 1.949-1.692 1.949" transform="translate(-13.506 -7.47)" style="fill:#d6f0fc"/>
        <path data-name="Path 25129" d="M41.915 42.421s3.306-3.149 11.652-3.935l1.733 1.621a13.5 13.5 0 0 0-4.723 2.315c-2.206 1.731-8.662-.001-8.662-.001z" transform="translate(-9.803 -9.189)" style="stroke:#003a85;fill:none;stroke-miterlimit:10;stroke-width:1.3px"/>
        <path data-name="Path 25130" d="M76.163 34.09 59 38.388l-1.732-1.622 17.162-5.038s2.952-1.063 3.424.413c.517 1.61-1.691 1.949-1.691 1.949z" transform="translate(-13.506 -7.47)" style="stroke:#003a85;fill:none;stroke-miterlimit:10;stroke-width:1.3px"/>
        <path data-name="Path 25131" d="M55.826 44.053s-.943 4.33 1.936 6.3" transform="translate(-13.122 -10.531)" style="stroke:#003a85;fill:none;stroke-miterlimit:10;stroke-width:1.3px"/>
    </g>
</svg>
