<svg xmlns="http://www.w3.org/2000/svg" width="68.779" height="68.442" viewBox="0 0 68.779 68.442">
    <g transform="translate(-78.339 -16555.788)">
        <path data-name="Path 3354" d="M29.146 2.219s.9 6.679-14.763 9.843S8.231 34.9 8.231 34.9s-2.2-7.725-2.859-4.21-2.244 13.886-1.186 19.159c0 0-1.227 10.018 1.058 18.805h8.788l-.176-16.521s2.621-3.824 2.091-13.658c0 0 .677 12.977 6.543 15.481 0 0-3.8-2.506-3.362 6.437.363 7.342 1.05 8.5 1.05 8.5l33.572.086s3.282-17.768.652-16.34c-2.913 1.582-2.193 1.047-2.193 1.047s7.168-1.025 5.761-14.735c0 0 .176 10.194 3.691 13.534 0 0-1.582-1.934-1.582 2.988s-.352 12.478-.352 12.478l9.139.176s1.231-11.248 0-20.036c0 0 1.231-11.776-1.581-19.86 0 0-1.406 7.541-1.582 6.67s2.812-8.427 1.231-14.93-5.624-6.5-14.06-9.667-8.788-5.624-8.788-8.085z" transform="translate(77.704 16555.252)" style="fill:#d6f0fc"/>
        <path data-name="Path 3355" d="M26.142.066s.907 6.765-14.954 9.969S4.957 33.17 4.957 33.17s-2.232-7.825-2.9-4.264S-.213 42.97.859 48.311c0 0-1.243 10.147 1.071 19.049" transform="translate(78.564 16555.809)" style="stroke:#003a85;fill:none;stroke-miterlimit:10;stroke-width:1.3px"/>
        <path data-name="Path 3356" d="M80.569 66.825s1.245-11.394 0-20.295c0 0 1.245-11.928-1.6-20.117 0 0-1.423 7.638-1.6 6.757s2.848-8.537 1.246-15.124-5.7-6.587-14.242-9.791-8.9-5.7-8.9-8.189" transform="translate(64.37 16555.809)" style="stroke:#003a85;fill:none;stroke-miterlimit:10;stroke-width:1.3px"/>
        <path data-name="Path 3357" d="M69.165 80.644s2.254-18-.41-16.553c-2.951 1.6-2.222 1.061-2.222 1.061s7.26-1.038 5.836-14.924c0 0 .178 10.325 3.739 13.708 0 0-1.6-1.958-1.6 3.026s-.356 12.64-.356 12.64" transform="translate(61.534 16542.855)" style="stroke:#003a85;fill:none;stroke-miterlimit:10;stroke-width:1.3px"/>
        <path data-name="Path 3358" d="m14.365 80.144-.178-16.734s2.654-3.874 2.118-13.834c0 0 .686 13.144 6.628 15.681 0 0-3.852-2.538-3.4 6.52.367 7.437 1.064 8.608 1.064 8.608" transform="translate(75.03 16543.023)" style="stroke:#003a85;fill:none;stroke-miterlimit:10;stroke-width:1.3px"/>
        <path data-name="Path 3359" d="M12.748 34.386s5.7 7.215 5.7 13.174c0 0 10.5 2.68 14.6-4.624" transform="translate(75.402 16546.947)" style="stroke:#8e2a48;fill:none;stroke-miterlimit:10;stroke-width:1.3px"/>
        <path data-name="Path 3360" d="M71.682 34.386s-5.7 7.215-5.7 13.174c0 0-10.5 2.68-14.6-4.624" transform="translate(65.424 16546.947)" style="stroke:#8e2a48;fill:none;stroke-miterlimit:10;stroke-width:1.3px"/>
        <path data-name="Path 3361" d="M26.427 12.544s7.477-.356 11.038 5.341" transform="translate(71.869 16552.59)" style="stroke:#003a85;fill:none;stroke-miterlimit:10;stroke-width:1.3px"/>
        <path data-name="Path 3362" d="M48.609 17.885s2.951-4.46 10.606-5.345" transform="translate(66.142 16552.59)" style="stroke:#003a85;fill:none;stroke-miterlimit:10;stroke-width:1.3px"/>
        <path data-name="Path 3363" d="M11.137 18.066S6.508 20 6.508 24.108" transform="translate(77.013 16551.16)" style="stroke:#003a85;fill:none;stroke-miterlimit:10;stroke-width:1.3px"/>
        <path data-name="Path 3364" d="M78.747 18.066a6.637 6.637 0 0 1 3.917 6.042" transform="translate(58.359 16551.16)" style="stroke:#003a85;fill:none;stroke-miterlimit:10;stroke-width:1.3px"/>
        <circle data-name="Ellipse 195" cx="1.424" cy="1.424" r="1.424" transform="translate(110.937 16613.557)" style="stroke:#003a85;fill:none;stroke-miterlimit:10;stroke-width:1.3px"/>
        <path data-name="Path 3365" d="M19.718 47.219s4.371.757 4.232 4.129" transform="translate(73.602 16543.633)" style="stroke:#8e2a48;fill:none;stroke-miterlimit:10;stroke-width:1.3px"/>
        <path data-name="Path 3366" d="M70.208 47.581s-4.09.708-3.961 3.865" transform="translate(61.587 16543.539)" style="stroke:#8e2a48;fill:none;stroke-miterlimit:10;stroke-width:1.3px"/>
    </g>
</svg>
