<svg xmlns="http://www.w3.org/2000/svg" width="67.475" height="74.579" viewBox="0 0 67.475 74.579">
    <g data-name="HAIR TRANSPLANT">
        <path data-name="Path 25095" d="M24.59 19.069S7.646 20.918 8.493 38.79s1.694 20.543 1.694 20.543a13.348 13.348 0 0 0 7.625 12.532l8.26 3.9s5.083 2.26 9.955 0a65.221 65.221 0 0 0 8.473-4.722 17.244 17.244 0 0 0 5.719-10.888c.635-6.779 2.329-19.516 2.329-19.516s.212-16.88-9.742-19.961" transform="translate(-1.226 -3.061)" style="fill:#d6f0fc"/>
        <path data-name="Path 25096" d="M57.816 51.205c.782-.78 5.682 1.766 3.366 6.86S56.4 61.674 56.4 61.674" transform="translate(-9.696 -8.713)" style="fill:#d6f0fc"/>
        <path data-name="Path 25097" d="M58.119 51.475c.72-.838 6.155 1.128 4.233 6.383s-5.02 3.557-5.02 3.557" transform="translate(-9.861 -8.754)" style="stroke:#003a85;fill:none;stroke-miterlimit:10;stroke-width:1.3px"/>
        <path data-name="Path 25098" d="M5.45 50.983c-.782-.78-5.682 1.766-3.366 6.86s4.786 3.609 4.786 3.609" transform="translate(.01 -8.674)" style="fill:#d6f0fc"/>
        <path data-name="Path 25099" d="M21.724 17S4.78 18.9 5.627 37.33s1.694 21.18 1.694 21.18-.636 8.895 7.625 12.919l8.26 4.024s5.083 2.33 9.955 0a64.722 64.722 0 0 0 8.472-4.871 17.9 17.9 0 0 0 5.719-11.225c.635-6.99 2.329-20.121 2.329-20.121s.212-17.4-9.742-20.58" transform="translate(-.72 -2.693)" style="stroke:#003a85;fill:none;stroke-miterlimit:10;stroke-width:1.3px"/>
        <path data-name="Path 25100" d="M5.143 51.253c-.72-.838-6.155 1.128-4.233 6.383s5.02 3.557 5.02 3.557" transform="translate(.181 -8.713)" style="stroke:#003a85;fill:none;stroke-miterlimit:10;stroke-width:1.3px"/>
        <path data-name="Path 25101" d="M12.936 22.019a10.316 10.316 0 0 0 0 11.013c3.6 5.93-2.489 12.9-2.489 12.9" transform="translate(-1.577 -3.582)" style="stroke:#003a85;fill:none;stroke-miterlimit:10;stroke-width:1.3px"/>
        <path data-name="Path 25102" d="M52.278 22.019a10.318 10.318 0 0 1 0 11.013c-3.6 5.93 2.368 13.757 2.368 13.757" transform="translate(-8.764 -3.582)" style="stroke:#003a85;fill:none;stroke-miterlimit:10;stroke-width:1.3px"/>
        <path data-name="Path 25103" d="M25.978 21.494a1.641 1.641 0 1 1-1.642-1.642 1.642 1.642 0 0 1 1.642 1.642z" transform="translate(-3.741 -3.197)" style="stroke:#003a85;fill:none;stroke-miterlimit:10;stroke-width:1.3px"/>
        <path data-name="Path 25104" d="M40.679 21.494a1.641 1.641 0 1 1-1.642-1.642 1.642 1.642 0 0 1 1.642 1.642z" transform="translate(-6.338 -3.197)" style="stroke:#003a85;fill:none;stroke-miterlimit:10;stroke-width:1.3px"/>
        <path data-name="Path 25105" d="M33.659 27.78a1.641 1.641 0 1 1-1.642-1.642 1.642 1.642 0 0 1 1.642 1.642z" transform="translate(-5.098 -4.309)" style="stroke:#003a85;fill:none;stroke-miterlimit:10;stroke-width:1.3px"/>
        <path data-name="Path 25106" d="M26.5 28.095a1.641 1.641 0 1 1-1.642-1.642 1.642 1.642 0 0 1 1.642 1.642z" transform="translate(-3.833 -4.365)" style="stroke:#003a85;fill:none;stroke-miterlimit:10;stroke-width:1.3px"/>
        <path data-name="Path 25107" d="M27.183 34.37a1.642 1.642 0 1 1-1.642-1.642 1.643 1.643 0 0 1 1.642 1.642z" transform="translate(-3.954 -5.475)" style="stroke:#003a85;fill:none;stroke-miterlimit:10;stroke-width:1.3px"/>
        <path data-name="Path 25108" d="M33.659 34.37a1.641 1.641 0 1 1-1.642-1.642 1.642 1.642 0 0 1 1.642 1.642z" transform="translate(-5.098 -5.475)" style="stroke:#003a85;fill:none;stroke-miterlimit:10;stroke-width:1.3px"/>
        <path data-name="Path 25109" d="M40.062 34.37a1.641 1.641 0 1 1-1.642-1.642 1.642 1.642 0 0 1 1.642 1.642z" transform="translate(-6.229 -5.475)" style="stroke:#003a85;fill:none;stroke-miterlimit:10;stroke-width:1.3px"/>
        <path data-name="Path 25110" d="M19.786 30.089a1.641 1.641 0 1 1-1.642-1.642 1.642 1.642 0 0 1 1.642 1.642z" transform="translate(-2.647 -4.717)" style="stroke:#003a85;fill:none;stroke-miterlimit:10;stroke-width:1.3px"/>
        <path data-name="Path 25111" d="M47.154 30.089a1.641 1.641 0 1 1-1.642-1.642 1.642 1.642 0 0 1 1.642 1.642z" transform="translate(-7.482 -4.717)" style="stroke:#003a85;fill:none;stroke-miterlimit:10;stroke-width:1.3px"/>
        <path data-name="Path 25112" d="M40.922 28.095a1.641 1.641 0 1 1-1.642-1.642 1.642 1.642 0 0 1 1.642 1.642z" transform="translate(-6.381 -4.365)" style="stroke:#003a85;fill:none;stroke-miterlimit:10;stroke-width:1.3px"/>
        <path data-name="Path 25113" d="M27.888 4.038s2.173.4 2.013 7.391 1.207 6.777 1.207 6.777 1.664-.638.212-8.207c-1.059-5.517-3.432-5.961-3.432-5.961z" transform="translate(-4.658 -.404)" style="stroke:#8e2a48;fill:none;stroke-miterlimit:10;stroke-width:1.3px"/>
        <path data-name="Path 25114" d="M34.284 13.781 70.644.649l1.078 3.59-37.438 9.542-.159.526 37.211-3.585 1-3.684z" transform="translate(-5.76 .195)" style="stroke:#003a85;fill:none;stroke-miterlimit:10;stroke-width:1.3px"/>
    </g>
</svg>
