<svg xmlns="http://www.w3.org/2000/svg" width="68.688" height="70.253" viewBox="0 0 68.688 70.253">
    <g transform="translate(-81.871 -17443.195)">
        <path data-name="Path 25115" d="M10.512 1.241S19.351 18.9 8.875 36.248s-3.6 32.734-3.6 32.734h61.11s6.874-15.385-3.6-32.734-1.638-35.007-1.638-35.007z" transform="translate(81.858 17443.195)" style="fill:#d6f0fc"/>
        <path data-name="Path 25116" d="M8.161.224s9.086 18.153-1.683 35.989-3.7 33.653-3.7 33.653" transform="translate(82.025 17443.262)" style="stroke:#003a85;fill:none;stroke-miterlimit:10;stroke-width:1.3px"/>
        <path data-name="Path 25117" d="M69.517 69.866s7.067-15.817-3.7-33.653S64.132.224 64.132.224" transform="translate(78.111 17443.262)" style="stroke:#003a85;fill:none;stroke-miterlimit:10;stroke-width:1.3px"/>
        <path data-name="Path 25118" d="M5.376 40.9s33.324 10.948 56.65-2.177l3.4 6.979L35.4 63.963 2.411 47.977z" transform="translate(81.901 17440.752)" style="stroke:#003a85;fill:none;stroke-miterlimit:10;stroke-width:1.3px"/>
        <path data-name="Line 43" transform="translate(117.222 17504.715)" style="stroke:#003a85;fill:none;stroke-miterlimit:10;stroke-width:1.3px" d="M0 8.413V0"/>
        <path data-name="Path 25119" d="M14.232 1.823s5.486 23.036-3.2 34.494" transform="translate(81.339 17443.158)" style="stroke:#8e2a48;fill:none;stroke-miterlimit:10;stroke-width:1.3px"/>
        <path data-name="Path 25120" d="M57.025 1.823s-5.486 23.036 3.2 34.494" transform="translate(78.452 17443.158)" style="stroke:#8e2a48;fill:none;stroke-miterlimit:10;stroke-width:1.3px"/>
        <path data-name="Path 25121" d="M17.335 38.723s18 6.731 35.5 0" transform="translate(80.928 17440.752)" style="stroke:#8e2a48;fill:none;stroke-miterlimit:10;stroke-width:1.3px"/>
        <path data-name="Path 25122" d="M66.429 53.69s2.61 11.585-1.933 19.662" transform="translate(77.853 17439.777)" style="stroke:#8e2a48;fill:none;stroke-miterlimit:10;stroke-width:1.3px"/>
        <path data-name="Path 25123" d="M7.26 53.69S4.65 65.275 9.193 73.352" transform="translate(81.633 17439.777)" style="stroke:#8e2a48;fill:none;stroke-miterlimit:10;stroke-width:1.3px"/>
        <ellipse data-name="Ellipse 204" cx=".981" cy="2.44" rx=".981" ry="2.44" transform="translate(115.821 17472.072)" style="stroke:#003a85;fill:none;stroke-miterlimit:10;stroke-width:1.3px"/>
    </g>
</svg>
