<svg xmlns="http://www.w3.org/2000/svg" width="363.074" height="478.014" viewBox="0 0 363.074 478.014">
    <g data-name="Group 7098">
        <path data-name="Path 25045" d="M208.584 0s-13.817 127.308-11.948 183.69-7.1 150.482-38.463 179.98-57.873 52.274-87.748 65.716c-30.247 13.448-47.8 14.936-59 14.936S-2.388 472.7 26.366 472.7s65.341 11.953 84.016 0 53.019-16.056 85.879-9.335 61.984 20.163 78.414-6.721-2.613-55.263-7.465-92.6c-4.858-37.712 21.282-143.76 32.49-170.644S362.423 48.916 343.755.375H208.584z" transform="translate(15.284)" style="fill:#d7f0fd"/>
        <path data-name="Path 25046" d="M203.889.841s-13.5 138.44-11.766 190.7-6.923 139.48-38.071 166.822-57.452 48.453-87.219 60.914-47.417 13.845-58.494 13.845-13.845 26.305 14.887 26.305 64.718 11.077 83.409 0 52.605-14.881 85.488-8.651 61.6 18.686 77.874-6.23-2.426-51.227-7.614-85.835c-4.846-34.956 21.111-133.247 32.53-158.168s62.3-154.364 43.612-199.354" transform="translate(1.535 3.796)" style="stroke:#0a2b7c;fill:none;stroke-miterlimit:10;stroke-width:4px"/>
        <path data-name="Path 25047" d="M87.184 44.1s-7.255-5.873-26.994-7.23c-13.927-.959-8.039-22.732-19.463-22.732" transform="translate(183.101 63.813)" style="stroke:#8e2a48;fill:none;stroke-miterlimit:10;stroke-width:4px"/>
        <path data-name="Path 25048" d="M42.067 53.633S38.494 41.712 49.924 41s15.714-5.712 22.137-13.585 11.468-7.84 11.468-7.84S94.2 18.858 97.059 41s17.853 12.632 17.853 12.632" transform="translate(186.763 88.343)" style="stroke:#8e2a48;fill:none;stroke-miterlimit:10;stroke-width:4px"/>
        <path data-name="Path 25049" d="M96.224 61.2s-9.45 3.2-16.59-9.66-27.1.006-27.1.006-8.37-9.114-1.263-16.783 12.3-13.183 7.019-22.275" transform="translate(217.756 56.371)" style="stroke:#8e2a48;fill:none;stroke-miterlimit:10;stroke-width:4px"/>
        <path data-name="Path 25050" d="M41.5 61.925s1.43-11.225 12.237-9.462c2.15.353 12.7 4.08 16.535-.948" transform="translate(186.599 232.517)" style="stroke:#8e2a48;fill:none;stroke-miterlimit:10;stroke-width:4px"/>
        <path data-name="Path 25051" d="M56.027 47.16s9.616 7.168 6.1 12.439-2.751 8.833-1.439 14.3-.391 7.675-.391 7.675-3.264 4.94-13.966-1.219-8.871-10.134-8.871-10.134" transform="translate(167.801 212.86)" style="stroke:#8e2a48;fill:none;stroke-miterlimit:10;stroke-width:4px"/>
        <path data-name="Path 25052" d="M38.074 77.542s8.86 1.687 8.86-6.451c0-11.413 10.04-17.688 10.04-17.688a8.445 8.445 0 0 1 7.813 5.072C67.07 63.8 73.229 72.354 79 73.076" transform="translate(171.126 241.033)" style="stroke:#8e2a48;fill:none;stroke-miterlimit:10;stroke-width:4px"/>
    </g>
</svg>
