<svg xmlns="http://www.w3.org/2000/svg" width="463.189" height="530.813" viewBox="0 0 463.189 530.813">
    <g data-name="Group 7096">
        <path data-name="Path 25026" d="M430.974 206.8c-74.716 18.078-98.716 76.957-101.276 174.435-3.367 128.127-155.18 188.871-197.588 88.4s42.408-192.742 50.49-233.285-4.039-47.624-24.235-14.706-69.023 155.438-89.084 186.625c-25 38.868-48.464 10.963-48.464 10.963s-45.54-60.884 29.17-220.255S109.9 28.835 109.9 28.835C300.23-37.988 416.5 7.339 430.974 206.8z" transform="translate(31.75)" style="fill:#d7f0fd"/>
        <path data-name="Path 25027" d="M120.389 8.183s14.79 10.6-59.831 167.348c-16.532 34.722-27.165 64.694-33.708 90.312C20.334 291.35 12.4 311.2 9.466 328.806 7.987 337.68.648 327.237.5 341.041c-.347 34.151 29.131 56 29.131 56s44.756 20.532 63.232-17.529c6.011-12.386-2.527-10.879.633-17.092 22.515-44.24 57.607-136.2 75.293-164.592 20.168-32.38 32.268-25.417 24.2 14.459s-92.772 130.637-50.419 229.459 212.434 38.319 215.8-87.7c2.555-95.875 28.235-167.118 102.856-184.9" transform="translate(1.5 37.66)" style="fill:none;stroke:#08297e;stroke-miterlimit:10;stroke-width:4px"/>
        <path data-name="Path 25028" d="M151.074 117.615c10.319 41.047-7.059 80.794-38.817 88.777S46.4 187.564 36.084 146.517 43.142 65.722 74.9 57.739s65.855 18.829 76.174 59.876z" transform="translate(151.569 259.26)" style="fill:none;stroke:#08297e;stroke-miterlimit:10;stroke-width:4px"/>
        <path data-name="Path 25029" d="M125.3 8.183s-84.7 32.9-73.949 96.088 63.613 213.4 22.442 268.556" transform="translate(231.204 37.66)" style="fill:none;stroke:#08297e;stroke-miterlimit:10;stroke-width:4px"/>
        <path data-name="Path 25030" d="M149.151 99.927s-10.9-44.369-59.529-49.747-66.307 39.428-49.405 61.394" transform="translate(155.52 228.893)" style="fill:none;stroke:#08297e;stroke-miterlimit:10;stroke-width:4px"/>
        <path data-name="Path 25031" d="M60.264 65.624S41.295 128.934 76.538 169.4c25.2 28.941 53.613 29.277 64.7 27.26 33.294-6.056 32.235 7.8 20.566 22.375s-48.436 32.481-86.363 11.042c-63.276-35.77-48.571-110.5-45.8-124.508 3.508-17.694 24.791-58.813 30.623-39.945z" transform="translate(119.803 279.717)" style="fill:none;stroke:#08297e;stroke-miterlimit:10;stroke-width:4px"/>
        <path data-name="Path 25032" d="M82.03 78.344c-10.717 11.356-22.566 24.74-21.669 41.451.941 17.6 13.938 30.8 27.1 40.929 6.812 5.238 14.773 9.938 19.647 17.21 4.9 7.3 5.6 16.319 5.423 24.868-.162 8.347-.218 18.6-5.72 25.462-4.521 5.636-14.185 8.252-18.543 1.031-4.521-7.49-3.115-18.386-.639-26.285 2.767-8.829 6.9-17.042 8.627-26.207 3.288-17.384 1.328-35.787-1.955-53.036-1.395-7.322-3.6-14.734-8.168-20.745C81.935 97.5 76.03 94.159 69.845 91.28c-5.871-2.739-12.577-5.165-17-10.129-5.389-6.05-4.6-14.4-.745-21.042 7.115-12.263 29.686-21.075 38.6-5.815 3.154 5.389 3.591 12.98-1.272 17.518-2.538 2.37-5.681 3.832-7.569 6.891-2.162 3.518-2.487 7.989-2.594 12.022-.487 19.12 9.042 36.274 15.977 53.489 6.319 15.7 11.367 34.958 2 50.582-7.025 11.725-23.8 19.882-18.6 36.084 4.223 13.092 19.477 21.311 32.758 20.12 6.039-.538 12.1-2.88 15.664-8.017 4.465-6.437 3.277-15.014-.521-21.451-4.381-7.417-11.8-12.762-18.213-18.285-7.053-6.073-14.258-12-21.109-18.3-6.1-5.6-12.123-11.966-14.812-19.977-2.891-8.6-1.4-17.77 1.888-26.033 6.6-16.588 20.252-28.941 28.638-44.515 6.678-12.409 9.714-27.8 3.44-41.025-2.88-6.073-7.77-10.258-13.5-13.546-5.311-3.053-13.1-5.933-15.059-12.375-2.577-8.47 7.535-15.21 14.476-9.8 2.812 2.19 6.807-1.748 3.961-3.961-5.725-4.465-13.955-5.031-19.557.084a15.155 15.155 0 0 0-2.818 18.577c3.412 5.924 10.073 8.854 15.76 12.087 6.695 3.8 11.524 8.723 13.507 16.347 4.3 16.532-4.706 31.848-14.089 44.705-10.482 14.364-22.706 29.008-23.759 47.6-1.025 18.078 11.7 30.526 24.353 41.428 7.513 6.47 15.075 12.879 22.538 19.406 6.375 5.58 15.075 14.173 11.456 23.607-2.65 6.913-11.1 8.5-17.652 7.809-7.731-.818-15.647-5.238-19.9-11.832-4.784-7.4-2.459-14.79 3.036-20.98 5.154-5.8 11.126-10.706 14.532-17.854 17.803-37.359-22.26-70.21-18.588-107.217.23-2.319.6-4.745 2.106-6.622a24.814 24.814 0 0 1 4.381-3.591 17.5 17.5 0 0 0 5.854-7.445c2.353-5.938 1.311-12.919-1.866-18.358-8.14-13.921-27.277-12.823-39-4.353-11.479 8.3-18.325 25.327-8.224 37.355 9.367 11.154 26.8 11.148 34.756 23.949 4.431 7.132 5.781 15.759 6.98 23.927a167.184 167.184 0 0 1 2.168 29.865 83.938 83.938 0 0 1-5.636 27.6c-3.417 8.9-6.9 17.563-6.689 27.271.157 7.305 1.809 16.1 8.543 20.246 5.977 3.681 13.736 1.972 19.064-2.05 6.527-4.924 8.947-13.1 9.888-20.885a89.528 89.528 0 0 0-.084-24.958 37.106 37.106 0 0 0-11.776-21.7c-6.622-6.09-14.4-10.784-21.182-16.706-7.109-6.213-13.591-13.591-16.655-22.683-3.031-8.991-1.843-18.033 2.678-26.285 4.056-7.406 9.849-13.652 15.608-19.753 2.476-2.622-1.479-6.588-3.961-3.961" transform="translate(199.016 46.809)" style="fill:#8e2a48"/>
        <path data-name="Path 25033" d="M127.149 5.9s-96.867 32.268-76.7 118.318 36.162 168.059 35.563 177.471" transform="translate(218.665 27.13)" style="fill:none;stroke:#08297e;stroke-miterlimit:10;stroke-width:4px"/>
    </g>
</svg>
