<svg xmlns="http://www.w3.org/2000/svg" width="387.115" height="509.839" viewBox="0 0 387.115 509.839">
    <g data-name="Group 7095">
        <path data-name="Path 25023" d="M222.235 0S207.5 135.785 209.492 195.92s-7.568 160.5-41.024 191.963-61.729 55.755-93.591 70.092c-32.261 14.342-50.977 15.93-62.923 15.93s-14.737 30.268 15.931 30.268 69.692 12.749 89.61 0 56.548-17.125 91.6-9.956 66.11 21.506 83.635-7.169-2.787-58.942-7.962-98.766c-5.181-40.224 22.7-153.332 34.649-182.007S386.317 52.173 366.405.4h-144.17z" transform="translate(16.404)" style="fill:#d7f0fd"/>
        <path data-name="Path 25024" d="M217.431.841s-14.4 147.658-12.549 203.4S197.5 353 164.276 382.167s-61.282 51.679-93.026 64.97S20.676 461.9 8.861 461.9s-14.766 28.057 15.878 28.057 69.027 11.814 88.963 0 56.107-15.872 91.18-9.227 65.7 19.93 83.059-6.645-2.588-54.637-8.121-91.55c-5.169-37.283 22.517-142.118 34.7-168.7S380.96 49.2 361.031 1.211" transform="translate(1.537 4.105)" style="stroke:#0a2b7c;fill:none;stroke-miterlimit:10;stroke-width:4px"/>
        <path data-name="Path 25025" d="M107.972 5.8s1.847 45.04-8.121 47.992S68.843 55.639 81.392 75.2 79.181 85.912 77.7 95.51s.365 29.162 8.121 14.019c8.126-15.129 12.554-20.294 14.03-13.284 1.847 7.016 5.54 21.406-7.38 34.7S69.948 143.5 76.964 156.78s-10.7 9.6-8.856 20.312 10.7 24.722 4.428 30.262-9.6 6.275-19.565 0c-9.6-6.275-14.031 7.016-4.428 16.977 9.6 9.6 24.728 8.862 13.284 20.306S43.373 257.928 46.7 274.911c3.687 16.977 5.9 15.131-3.693 27.322-9.6 12.543 4.428 17.713 0 23.987" transform="translate(192.207 28.308)" style="stroke:#8e2a48;fill:none;stroke-miterlimit:10;stroke-width:4px"/>
    </g>
</svg>
