<svg xmlns="http://www.w3.org/2000/svg" width="46.247" height="62.398" viewBox="0 0 46.247 62.398">
    <defs>
        <clipPath id="t87xl8zt2a">
            <path data-name="Rectangle 1426" style="fill:none" d="M0 0h46.247v62.398H0z"/>
        </clipPath>
    </defs>
    <g data-name="Group 4971" style="clip-path:url(#t87xl8zt2a)">
        <path data-name="Path 3051" d="M46.247 7.181A6.682 6.682 0 1 1 39.566.5a6.681 6.681 0 0 1 6.681 6.681" style="fill:#d6f0fc"/>
        <path data-name="Path 3052" d="m26.718 19.6 7.444 13.121 2.828-.034 4.447-21.566c-1.289-3.439-4.516-1.246-4.516-1.246L34.477 19.4l-2.52-5.4a5.263 5.263 0 0 0-6.6-3.12c-14.826 4.38-13.2 20.018-13.2 20.018s.36 10.62 10.8 10.62h12.6l2.88 17.28s1.109 3.528 4.32 3.06c3.7-.54 3.06-4.86 3.06-4.86l-3.06-18.184s-.72-4.326-3.06-4.191-15.26 0-15.26 0z" style="fill:#d6f0fc"/>
        <path data-name="Path 3053" d="M9.946 46.555H4.522s.269 6.12 5.669 6.84v6.641h14.22v-6.581a8.434 8.434 0 0 0 5.48-6.9h-6.265" style="fill:#d6f0fc"/>
        <path data-name="Path 3054" d="M42.247 7.181A6.682 6.682 0 1 1 35.566.5a6.681 6.681 0 0 1 6.681 6.681z" style="stroke:#003884;stroke-miterlimit:10;stroke-width:1.3px;fill:none"/>
        <path data-name="Path 3055" d="m22.718 19.6 7.444 13.121 2.828-.034 4.447-21.566c-1.289-3.439-4.516-1.246-4.516-1.246L30.477 19.4l-2.52-5.4a5.263 5.263 0 0 0-6.6-3.12C6.531 15.257 8.157 30.9 8.157 30.9s.36 10.62 10.8 10.62h12.6l2.88 17.28s1.109 3.528 4.32 3.06c3.7-.54 3.06-4.86 3.06-4.86l-3.06-18.184s-.72-4.326-3.06-4.191-15.26 0-15.26 0" style="stroke:#003884;stroke-miterlimit:10;stroke-width:1.3px;fill:none"/>
        <path data-name="Path 3056" d="M5.946 46.555H.522s.269 6.12 5.669 6.84v6.641h14.22v-6.581a8.434 8.434 0 0 0 5.48-6.9h-6.265" style="stroke:#003884;stroke-miterlimit:10;stroke-width:1.3px;fill:none"/>
        <path data-name="Path 3057" d="m12.591 42.334-3.616 6.823h2.32v4.3l3.752-6.481h-2.456z" style="fill:#902946"/>
    </g>
</svg>
