<svg xmlns="http://www.w3.org/2000/svg" width="588.992" height="493.104" viewBox="0 0 588.992 493.104">
    <g data-name="FESS SURGERY">
        <path data-name="Path 25337" d="M472.838 256.96v-41.082s-69.2-12.174-87.686-24.042-27.515-34.387-25.257-42.6 21.649-34.694 10.37-53.409-27.509-10.045-34.725-13.236-7.216-18.261-15.788-19.176-18.488 23.735-18.488 23.735 8.118-11.867 9.922-21.544-12.628-12.233-23.452-10.406-12.628-8.216-13.53-21-15.334-6.388-15.334-6.388-27.061 11.867-54.121 21-61.337 4.565-61.337 4.565-43.3-.914-104.634 48.384S7.3 258.162 7.3 258.162 27.792 353.1 133.512 358.489s134.849-45.31 175.845-42.076 163.48 22.655 163.48 22.655z" transform="translate(-.031 134.213)" style="fill:#d6f0fc"/>
        <path data-name="Path 25338" d="M459.157 259.788v-42.063s-45.715-12.463-64.651-24.612-28.165-35.21-25.858-43.622 22.164-35.522 10.622-54.68-28.17-10.285-35.553-13.555-7.388-18.7-16.163-19.63-15.966 18.145-15.966 18.145 1.264-2.964 7.192-15.905c4.2-9.161-12.929-12.524-24.011-10.652s-12.929-8.413-13.856-21.5-15.7-6.541-15.7-6.541-27.7 12.15-55.41 21.5S147 51.342 147 51.342s-44.334-.933-107.132 49.544S8.233 261.537 8.233 261.537s33.135 106.033 132.541 102.72 130.333-46.39 172.3-46.39 146.078 22.09 146.078 22.09z" transform="translate(2.377 120.475)" style="stroke-width:4px;stroke:#003a85;fill:none;stroke-miterlimit:10"/>
        <path data-name="Path 25339" d="M96.879 150.613s3.737-45.567-36.142-51.452S.178 73.782 19.244 31.81" transform="translate(61.805 162.975)" style="stroke-width:4px;stroke:#003a85;fill:none;stroke-miterlimit:10"/>
        <path data-name="Path 25340" d="M39.514 99.069s-31.16-48.151 0-70.812" transform="translate(131.631 144.725)" style="stroke-width:4px;stroke:#003a85;fill:none;stroke-miterlimit:10"/>
        <path data-name="Path 25341" d="M44.447 30.109s23.68 30.785-12.463 51.974" transform="translate(164.086 154.238)" style="stroke-width:4px;stroke:#003a85;fill:none;stroke-miterlimit:10"/>
        <path data-name="Path 25342" d="M87.04 40.7 65.8 50.5s-11.7-2.6-10.346-20.894l23.86-10.264" transform="translate(284.084 98.936)" style="stroke:#707070;stroke-width:4px;fill:#d6f0fc"/>
        <path data-name="Path 25343" d="m243.623 53.705-161.21 66.67S55.616 111.245 62 75.5L223.858 5.254" transform="translate(313.219 26.578)" style="fill:#d6f0fc"/>
        <path data-name="Path 25344" d="M252.8 55.034 81.706 125.785s-28.441-9.685-21.66-47.623l171.77-74.549" transform="translate(302.85 18.149)" style="stroke-width:4px;stroke:#003a85;fill:none;stroke-miterlimit:10"/>
        <path data-name="Path 25345" d="M92.21 43.309 66.831 55.023s-13.978-3.092-12.364-24.962l28.514-12.272" transform="translate(278.895 90.959)" style="stroke-width:4px;stroke:#003a85;fill:none;stroke-miterlimit:10"/>
        <path data-name="Line 74" transform="translate(271.948 138.047)" style="stroke-width:4px;stroke:#003a85;fill:none;stroke-miterlimit:10" d="M0 28.509 64.369 0"/>
        <path data-name="Line 75" transform="translate(567.143 3.045)" style="stroke-width:4px;stroke:#003a85;fill:none;stroke-miterlimit:10" d="M19.979 52.507 0 0"/>
        <path data-name="Line 76" transform="translate(443.782 30.924)" style="stroke-width:4px;stroke:#003a85;fill:none;stroke-miterlimit:10" d="M0 58.656 136.972 0"/>
        <path data-name="Line 77" transform="translate(526.674 .762)" style="stroke-width:4px;stroke:#003a85;fill:none;stroke-miterlimit:10" d="m0 0 36.786 89.251"/>
        <path data-name="Line 78" transform="translate(432.69 66.02)" style="stroke-width:4px;stroke:#003a85;fill:none;stroke-miterlimit:10" d="M22.79 48.586 0 0"/>
        <path data-name="Path 25346" d="M137.349 40.274 75.367 66.519S55.6 60.333 62.469 38.188l61.859-25.674" transform="translate(313.221 63.865)" style="stroke-width:4px;stroke:#003a85;fill:none;stroke-miterlimit:10"/>
        <path data-name="Line 79" transform="translate(515.52 30.078)" style="stroke-width:4px;stroke:#003a85;fill:none;stroke-miterlimit:10" d="M6.063 13.991 0 0"/>
        <path data-name="Line 80" transform="translate(498.118 36.699)" style="stroke-width:4px;stroke:#003a85;fill:none;stroke-miterlimit:10" d="M6.063 13.991 0 0"/>
        <path data-name="Line 81" transform="translate(483.7 42.184)" style="stroke-width:4px;stroke:#003a85;fill:none;stroke-miterlimit:10" d="M6.063 13.991 0 0"/>
        <path data-name="Line 82" transform="translate(469.512 47.582)" style="stroke-width:4px;stroke:#003a85;fill:none;stroke-miterlimit:10" d="M6.063 13.991 0 0"/>
        <path data-name="Line 83" transform="translate(232.207 172.981)" style="stroke:#8e2a48;stroke-width:4px;fill:none;stroke-miterlimit:10" d="M0 11.364 22.501 0"/>
    </g>
</svg>
