<svg xmlns="http://www.w3.org/2000/svg" width="417.66" height="533.771" viewBox="0 0 417.66 533.771">
    <path data-name="Path 25347" d="M3.669 233.233S-15.3 490 192.069 512.614c113.153 12.342 170.72-61.148 195.18-141.018 23.659-77.266 21.954-174.456-10.843-248.432C349.869 63.3 300.33 3 251.706 4.4c0 0-29.816 22.572-85.391-.023 0 0-135.537 15.992-162.646 228.853" transform="translate(14.398 19.795)" style="fill:#d6f0fc"/>
    <path data-name="Path 25348" d="M.96 236.73s-19.225 265.031 190.877 288.376C306.472 537.843 364.8 461.99 389.581 379.545c23.974-79.75 22.24-180.069-10.986-256.431C351.708 61.33 301.517-.911 252.259.536c0 0-30.211 23.293-86.513-.023C165.746.514 28.424 17.015.96 236.73z" transform="translate(1.578 1.535)" style="stroke:#003a85;fill:none;stroke-miterlimit:10;stroke-width:4px"/>
    <path data-name="Path 25349" d="M9.329 163.006S40.02 65.508 85.4 31.177s93.745-10.986 93.745-10.986 65.079-23.345 113.13 39.823 72.071 97.5 52.051 166.16-55.936 174.834-165.182 175.773c-104.422.893-159.419-134.81-164.329-160.993-7.06-37.769-14.046-52.789-5.486-77.948z" transform="translate(24.609 57.854)" style="stroke:#003a85;fill:none;stroke-miterlimit:10;stroke-width:4px"/>
    <path data-name="Path 25350" d="M12.456 79.727s39.823 4.12 39.823-15.105V30.291s-2.746 42.57 16.479 42.57 31.584 5.493 30.211-27.461L97.6 12.439s-4.12 56.3 15.105 56.3 33.615 4.492 31.91-22.475l-1.7-26.961s-2.746 48.063 17.852 48.063 30.211.372 30.211-21.1.412-28.941.412-28.941c2.483.538-8.68 54.751 18.813 54.162 30.205-.647 26.091-17.48 26.091-25.221s.549-6.855.549-6.855c.864.99-5.888 33.306 17.3 34.823 10.888.71 12.685-3.691 12.685-3.691" transform="translate(58.033 57.852)" style="stroke:#003a85;fill:none;stroke-miterlimit:10;stroke-width:4px"/>
    <path data-name="Path 25351" d="M8.158 85.962s48.063-46.69 111.231-21.972S208.648 50.258 247.1 50.258s67.288 42.57 67.288 42.57" transform="translate(37.738 236.424)" style="stroke:#003a85;fill:none;stroke-miterlimit:10;stroke-width:4px"/>
    <path data-name="Path 25352" d="M22.05 162.859S-17.79 94.965 51.769 43.675c50.981-37.592 82.885 8.869 77.392 43.2s37.077 35.7 34.33 0 17.852-65.915 75.527-38.45 42.661 87.651 34.548 112.518" transform="translate(49.709 139.387)" style="stroke:#003a85;fill:none;stroke-miterlimit:10;stroke-width:4px"/>
    <path data-name="Path 25353" d="M54.951 131.489s23.236-29.45 0-59.661 12.307-38.85 12.307-38.85 33.753 10.459 40.613 50.906c6.586 38.788-5.916 61.12-5.916 61.12s-25.233-19.586-47-13.515" transform="translate(221.469 154.832)" style="stroke:#8e2a48;fill:none;stroke-miterlimit:10;stroke-width:4px"/>
    <path data-name="Path 25354" d="M73.472 142.349s-28.975-36.385-5.739-66.6-15.952-43.601-15.952-43.601-32.774 17.943-39.64 58.39c-6.58 38.788 11.369 62.79 11.369 62.79s29.61-12.645 49.962-10.98" transform="translate(49.697 150.914)" style="stroke:#8e2a48;fill:none;stroke-miterlimit:10;stroke-width:4px"/>
</svg>
