<svg xmlns="http://www.w3.org/2000/svg" width="445.556" height="559.777" viewBox="0 0 445.556 559.777">
    <path data-name="Path 25324" d="M133.466 48.934s132.462-104.359 230.766-2.029c108.11 112.532 28.268 233.134-20.659 263.233-55.827 34.355-107.335 68.032-147.482 128.942-34.669 52.6-59.968 103.975-139.246 68.756S17 400.936 17 400.936s48.947-45.792 19.827-76.724c-45.274-48.1-44.205-121.261-16.045-160.967 21.76-30.682 112.308 0 112.685-114.311" transform="translate(4.076 9.32)" style="fill:#d6f0fc"/>
    <path data-name="Path 25325" d="M4.714 283.978s96.5 52.116 195.419 21.613c91.316-28.154 113.876-130.727 111.508-159.278-3.117-37.513-25.882-110.861-83.611-134.586" transform="translate(24.258 62.143)" style="stroke:#003a85;fill:none;stroke-miterlimit:10;stroke-width:4px"/>
    <path data-name="Path 25326" d="M23.373 34.1s97.991-36.775 166.279-15.764C268.3 42.528 268.3 141.057 268.3 141.057" transform="translate(125.018 62.817)" style="stroke:#003a85;fill:none;stroke-miterlimit:10;stroke-width:4px"/>
    <path data-name="Path 25327" d="M28.546 169.447S-13.675 134.8 9.4 102.931c18.558-25.626 43.1-27.936 59.953-30.816 16.122-2.758 42.906-5.35 58.9-7.136 15.757-1.766 32.691-2.47 32.691-10.31 0-9.99-16.294-8.134-38.317-5.184-18.567 2.49-47.175 1.082-54.144.672-13.2-.774-25.619-4.877-39.936-10.835A227.284 227.284 0 0 1 4.284 27.577" transform="translate(12.33 147.733)" style="stroke:#003a85;fill:none;stroke-miterlimit:10;stroke-width:4px"/>
    <path data-name="Path 25328" d="M153.944 66.782a76.889 76.889 0 0 0-14.976-19.872 94.416 94.416 0 0 0-75.8-25.485C21.546 25.809 25.066 49.073 40.241 58.34s31.175 7.43 36.493 21.779-4.026 31.539-25.287 40.416c-16.582 6.926-33.939 17.065-26.157 44.353 7.181 25.165 43.13 33.152 70.71 23.149s71.418-41.959 68.448-83.22c-1.864-25.939-10.504-38.035-10.504-38.035z" transform="translate(125.02 111.434)" style="stroke:#003a85;fill:none;stroke-miterlimit:10;stroke-width:4px"/>
    <path data-name="Path 25329" d="M176.536 52.532s-39.52-40.544-96.877-32.621C22.82 27.764 29.342 59.124 38.551 71.118s20.09 12.461 33.5 14.6c14.707 2.355 23.911 25.139-5.03 35.271-36.634 12.826-54.49 29.882-45.107 62.471s57.76 44.6 93.293 32.928 60.071-34.579 60.071-34.579" transform="translate(103.791 100.793)" style="stroke:#8e2a48;fill:none;stroke-miterlimit:10;stroke-width:4px"/>
    <path data-name="Path 25330" d="M136.17 50.983s142.318-112.122 247.938-2.176c116.148 120.9 30.368 250.472-22.2 282.818-59.981 36.9-115.322 73.088-158.452 138.529-37.248 56.506-64.429 111.713-149.607 73.869s-42.81-114.849-42.81-114.849" transform="translate(1.5 1.518)" style="stroke:#003a85;fill:none;stroke-miterlimit:10;stroke-width:4px"/>
</svg>
