<svg xmlns="http://www.w3.org/2000/svg" width="406.949" height="419.713" viewBox="0 0 406.949 419.713">
    <g data-name="Group 7063">
        <path data-name="Path 24813" d="M284.1 398.644s-43.133-76.17-73.418-79.842S94.134 313.3 80.366 313.3s-58.73-13.763-21.107-26.612 52.311-5.505 71.584-5.505 27.532-28.451 1.833-42.214-101.863-73.422-110.126-82.6-31.2-33.956-8.258-39.461 81.676 69.746 115.632 68.826-71.579-91.766-71.579-91.766S22.55 58.173 48.248 48.081s95.987 84.428 95.987 84.428 46.257 38.542 15.053-16.521-43.133-72.5-43.133-72.5-23.855-61.48 13.769-32.115 63.95 93.605 63.95 93.605 29.655 32.118 15.892-11.93-30.284-86.267-7.344-82.595 41.295 81.676 66.078 131.234 66.074 119.3 88.1 141.325 30.284 33.037 30.284 33.037" transform="translate(18.468 14.278)" style="fill:#d7f0fd"/>
        <path data-name="Path 24814" d="M295.466 417.257s-45.483-80.321-77.418-84.192-122.9-5.806-137.416-5.806S18.7 312.744 58.374 299.2s55.16-5.806 75.482-5.806 29.032-30 1.935-44.515-107.416-77.423-116.126-87.1-32.9-35.806-8.709-41.612 86.127 73.547 121.933 72.579-75.483-96.772-75.483-96.772-37.741-37.741-10.645-48.386 101.224 89.03 101.224 89.03 48.773 40.644 15.871-17.419-45.483-76.45-45.483-76.45-25.161-64.837 14.515-33.87 67.434 98.707 67.434 98.707 31.274 33.87 16.758-12.58-31.935-90.965-7.742-87.094 43.548 86.127 69.676 138.388 69.676 125.8 92.9 149.029 31.935 34.838 31.935 34.838" transform="translate(1.499 1.47)" style="stroke:#08297e;fill:none;stroke-miterlimit:10;stroke-width:4px"/>
        <path data-name="Path 24815" d="M40.845 103.173s56.773-5.161 80-59.354c0 0 20.645 51.612 33.548 59.354 0 0-45.16 7.742-56.773 49.031z" transform="translate(178.056 191.042)" style="fill:#fff"/>
        <path data-name="Path 24816" d="M44.288 95.955s47.512-4.317 66.956-49.676c0 0 17.279 43.2 28.08 49.676 0 0-37.8 6.478-47.52 41.037z" transform="translate(193.124 201.807)" style="fill:#d7f0fd"/>
        <path data-name="Path 24817" d="M40.845 103.173s56.773-5.161 80-59.354c0 0 20.645 51.612 33.548 59.354 0 0-45.16 7.742-56.773 49.031z" transform="translate(178.056 191.042)" style="stroke:#8f2947;fill:none;stroke-miterlimit:10;stroke-width:4px"/>
    </g>
</svg>
