<svg xmlns="http://www.w3.org/2000/svg" width="453.311" height="391.419" viewBox="0 0 453.311 391.419">
    <g data-name="Group 7066">
        <path data-name="Path 24829" d="M131.557 23.935S86.519 7.872 58.955 38.212s-9.914 58.9 0 69.6 52.031-4.148 67.556 26.478 6.149 41.8 5.046 51.482 15.837 87.433 74.732 80.585 51.756-26.483 51.756-26.483l-7.139-54.1s-69.606 30.26-74.958-28.312 7.139-42.509 16.063-65.711-16.063-41.051-5.352-57.111S193.8 2.519 179.52 2.519c0 0-32.675 24.837-47.964 21.416" transform="translate(192.979 10.343)" style="fill:#d7f0fd"/>
        <path data-name="Path 24830" d="M17.586 121.764s35.828-76.5 56.162-84.243 55.194 0 55.194 0-2.421 18.4 1.937 24.692c0 0-53.257 8.489-78.433 40.314s-34.859 19.237-34.859 19.237" transform="translate(76.452 148.555)" style="fill:#d7f0fd"/>
        <path data-name="Path 24831" d="M99.423 61.026a30.72 30.72 0 1 1-30.718-30.717 30.717 30.717 0 0 1 30.718 30.717" transform="translate(165.782 132.05)" style="fill:#d7f0fd"/>
        <path data-name="Path 24832" d="M1.61 224.4s56.162-80.37 59.067-124.913S53.9 39.454 87.79 32.676 112 54.947 122.649 63.662s36.8 32.923 41.638 60.035-41.638 20.335-55.194 44.542-50.352 85.212-50.352 85.212z" transform="translate(6.485 137.967)" style="fill:#d7f0fd"/>
        <path data-name="Path 24833" d="M.41 222.962s56.162-80.37 59.067-124.913S52.7 38.014 86.59 31.236s24.21 22.271 34.859 30.986 36.8 32.923 41.638 60.035-41.638 20.335-55.194 44.542-50.352 85.212-50.352 85.212" transform="translate(1.229 131.66)" style="stroke:#08297e;fill:none;stroke-miterlimit:10;stroke-width:4px"/>
        <path data-name="Path 24834" d="M16.763 120.245S52.591 43.748 72.925 36s55.194 0 55.194 0-2.421 18.4 1.937 24.692c0 0-53.257 8.489-78.433 40.314s-34.86 19.239-34.86 19.239z" transform="translate(72.848 141.903)" style="stroke:#08297e;fill:none;stroke-miterlimit:10;stroke-width:4px"/>
        <path data-name="Path 24835" d="M98.6 59.507A30.72 30.72 0 1 1 67.881 28.79 30.717 30.717 0 0 1 98.6 59.507z" transform="translate(162.172 125.397)" style="stroke:#8f2947;fill:none;stroke-miterlimit:10;stroke-width:4px"/>
        <path data-name="Path 24836" d="M113.354 74.843c0 26.338-20.717 47.689-46.269 47.689-7.956 0-21.981-5.713-21.981-5.713s-1.162-21.405-1.738-39.529c-.623-19.419-2.151-41.99-2.151-41.99s16.289-8.145 25.87-8.145c25.553 0 46.269 21.351 46.269 47.69" transform="translate(179.936 118.232)" style="fill:#d7f0fd"/>
        <path data-name="Path 24837" d="M116.442 73.324a47.69 47.69 0 0 1-47.689 47.69c-8.2 0-22.659-5.713-22.659-5.713S44.9 93.9 44.3 75.772c-.64-19.42-2.216-41.993-2.216-41.993s16.79-8.145 26.666-8.145a47.69 47.69 0 0 1 47.692 47.69z" transform="translate(183.75 111.579)" style="stroke:#8f2947;fill:none;stroke-miterlimit:10;stroke-width:4px"/>
        <path data-name="Path 24838" d="M135.607 23.74S86.735 6.31 56.824 39.233s-10.759 63.909 0 75.529 56.458-4.5 73.307 28.732 6.671 45.366 5.476 55.866 17.188 94.879 81.1 87.45 56.162-28.737 56.162-28.737l-7.749-58.713s-75.529 32.837-81.338-30.722 7.746-46.129 17.43-71.306-17.43-44.542-5.81-61.972S203.147.5 187.654.5c0 0-35.454 26.951-52.047 23.24z" transform="translate(178.135 1.5)" style="stroke:#08297e;fill:none;stroke-miterlimit:10;stroke-width:4px"/>
    </g>
</svg>
