<svg xmlns="http://www.w3.org/2000/svg" width="620.341" height="512.854" viewBox="0 0 620.341 512.854">
    <g data-name="SHOULDER SURGERY">
        <path data-name="Path 25237" d="M311.792 9.425s-11.64 56.522-126.347 78.136S40.812 159.045 40.812 300.355s6.652 169.565 6.652 169.565H157.69l18.615-103.068 34.078 111.5h209.494V7.025z" transform="translate(198.46 33.2)" style="fill:#d7f0fd"/>
        <path data-name="Path 25238" d="M309.113 6.3S297.468 62.824 182.76 84.438 38.127 155.922 38.127 297.232 44.779 466.8 44.779 466.8" transform="translate(185.354 29.67)" style="stroke-width:4px;stroke:#08297e;fill:none;stroke-miterlimit:10"/>
        <path data-name="Line 64" transform="translate(618.341 33.57)" style="stroke-width:4px;stroke:#08297e;fill:none;stroke-miterlimit:10" d="M0 471.323V0"/>
        <path data-name="Path 25239" d="m60.684 166.322 13.051-97.1L97.59 168.1" transform="translate(295.466 336.797)" style="stroke-width:4px;stroke:#08297e;fill:none;stroke-miterlimit:10"/>
        <path data-name="Path 25240" d="m57.906 338.415 9.975-209.465S36.85 74.64 46.825 64.665 71.2 49.15 81.179 40.286s15.515-11.087 38.789 0 33.254 8.863 33.254 45.441-35.466 18.839-38.795 44.329-15.391 223.875-15.391 223.875z" transform="translate(218.167 158.922)" style="fill:#fff"/>
        <path data-name="Path 25241" d="m60.034 332.592 9.116-209.865S40.8 73.1 49.906 63.988s22.28-14.175 31.394-22.28 14.175-10.128 35.442 0 30.378 8.1 30.378 41.524-32.4 17.215-35.442 40.506S97.612 334.08 97.612 334.08z" transform="translate(234.048 169.04)" style="fill:#d7f0fd"/>
        <path data-name="Path 25242" d="M58.259 344.2 68.51 128.948s-31.031-54.31-21.062-64.285 24.385-15.515 34.36-24.379 15.515-11.081 38.789 0 33.248 8.863 33.248 45.441-35.466 18.839-38.789 44.329S100.282 343.8 100.282 343.8" transform="translate(221.22 158.924)" style="stroke-width:4px;stroke:#08297e;fill:none;stroke-miterlimit:10"/>
        <path data-name="Path 25243" d="M59.367 48.07s60.839-26.1 89.158-22.773S248.888 57.439 278.807 53l17.733 29.93s-55.41-1.112-98.633-19.95-69.826-12.487-94.21-9.016a86 86 0 0 1-44.33-5.894" transform="translate(289.038 120.966)" style="stroke:#707070;fill:#fff;stroke-width:4px"/>
        <path data-name="Path 25244" d="M185.9 52.217s-66.5 18.9-67.608 66.532c0 0 48.77-51.016 103.074-43.259v19.95S120.511 105.415 105 181.887c0 0 54.44-70.867 123.024-63.138V140.1S101.672 164.56 97.237 260.776c0 0 52.093-79.489 120.807-84.177v21.426s-87.558 11.57-126.344 126.83l-15.024 12.322s-7.146-94.116 8.369-177.346S138.4 42.241 179.326 33.378z" transform="translate(365.511 161.843)" style="stroke:#707070;fill:#fff;stroke-width:4px"/>
        <path data-name="Path 25245" d="M188.166 51.619s-66.5 18.9-67.614 66.532c0 0 48.77-51.016 103.074-43.259v19.95s-100.857 9.975-116.372 86.447c0 0 54.445-70.867 123.024-63.138v21.356S103.93 163.962 99.5 260.178c0 0 52.093-79.489 120.807-84.177v21.426S132.744 209 93.955 324.257L78.94 336.579s-7.152-94.116 8.36-177.346 53.355-117.59 94.284-126.453z" transform="translate(376.55 158.924)" style="fill:#d7f0fd"/>
        <path data-name="Path 25246" d="M185.9 52.217s-66.5 18.9-67.608 66.532c0 0 48.77-51.016 103.074-43.259v19.95S120.511 105.415 105 181.887c0 0 54.44-70.867 123.024-63.138V140.1S101.672 164.56 97.237 260.776c0 0 52.093-79.489 120.807-84.177v21.426s-87.558 11.57-126.344 126.83l-15.024 12.322s-7.146-94.116 8.369-177.346S138.4 42.241 179.326 33.378z" transform="translate(365.511 161.843)" style="stroke-width:4px;stroke:#08297e;fill:none;stroke-miterlimit:10"/>
        <path data-name="Path 25247" d="M59.367 49.641s60.839-26.1 89.158-22.773S248.888 59.01 278.807 54.576L296.54 84.5s-55.41-1.112-98.633-19.95-69.826-12.487-94.21-9.016a86 86 0 0 1-44.329-5.893" transform="translate(289.038 128.635)" style="fill:#d7f0fd"/>
        <path data-name="Path 25248" d="M59.367 48.07s60.839-26.1 89.158-22.773S248.888 57.439 278.807 53l17.733 29.93s-55.41-1.112-98.633-19.95-69.826-12.487-94.21-9.016a86 86 0 0 1-44.33-5.894z" transform="translate(289.038 120.966)" style="stroke-width:4px;stroke:#08297e;fill:none;stroke-miterlimit:10"/>
        <path data-name="Path 25249" d="M112.953 59.592c1.123-3.305 5.146-10.01-4.246-11.6-1.882-.318-20.632 1.982-24.238-4.4-9.664-17.066-22.238-22.054-29.778-9.392-7.011 11.776-2.247 20.645 19.32 17.857 11.275-1.459 17.427 4 22.873 8.281 4.317 3.394 10.175 5.282 13.916 1.253z" transform="translate(251.52 131.224)" style="stroke:#8f2947;stroke-width:4px;fill:none;stroke-miterlimit:10"/>
        <path data-name="Rectangle 1499" transform="rotate(-54.53 83.951 -65.582)" style="fill:#d7f0fd" d="M0 0h38.78v145.091H0z"/>
        <path data-name="Rectangle 1500" transform="rotate(-54.526 107.847 -86.472)" style="stroke-width:4px;stroke:#08297e;fill:none;stroke-miterlimit:10" d="M0 0h43.406v122.985H0z"/>
        <path data-name="Rectangle 1501" transform="rotate(-54.522 69.85 -78.373)" style="stroke-width:4px;stroke:#08297e;fill:none;stroke-miterlimit:10" d="M0 0h25.776v34.345H0z"/>
        <path data-name="Line 65" transform="translate(230.71 106.857)" style="stroke-width:4px;stroke:#08297e;fill:none;stroke-miterlimit:10" d="M91.17 64.973 0 0"/>
        <path data-name="Path 25250" d="M8.335 50.148c46.494-59.639 88-34.207 88-34.207l5.758-8.081S49.094-23.818.407 44.5" transform="translate(1.222 1.475)" style="stroke-width:4px;stroke:#08297e;fill:none;stroke-miterlimit:10"/>
    </g>
</svg>
