<svg xmlns="http://www.w3.org/2000/svg" width="196.277" height="523.09" viewBox="0 0 196.277 523.09">
    <g data-name="Group 7068">
        <path data-name="Path 24847" d="M70.648 32.351s42.167-21.081 51.044-25.523 26.631-11.095 27.74 12.764 5.545 27.186 11.1 37.172 0 19.972-37.726 31.067-41.063 1.109-52.158-16.645-19.972 27.074-38.835 21.3S4.787 91.163 1.652 64.532s25.719-1.408 31.27-16.794-9.986-26.482 8.878-22.047c0 0 18.639 11.761 28.849 6.659" transform="translate(5.456 10.031)" style="fill:#d7f0fd"/>
        <path data-name="Path 24848" d="M69.732 30.375S111.9 9.3 120.776 4.858s26.631-11.095 27.74 12.764 5.545 27.186 11.1 37.172 0 19.972-37.726 31.067-41.063 1.109-52.158-16.645S49.76 96.289 30.9 90.521 3.871 89.193.736 62.562s25.719-1.408 31.27-16.794-9.986-26.482 8.877-22.047c0 0 18.639 11.762 28.849 6.654z" transform="translate(1.489 1.498)" style="stroke:#08297e;fill:none;stroke-miterlimit:10;stroke-width:4px"/>
        <path data-name="Path 24849" d="m77.983 45.291 53.161-20.756c9.245-3.609 27.532-8.621 26.461 15.238s3.039 27.58 7.656 38.03-1.823 19.897-40.408 27.497-40.984-2.639-50.415-21.332-22.361 25.132-40.616 17.667-26.8-3.791-27.484-30.6 25.741.954 32.672-13.867-7.528-27.282 10.85-21.14c0 0 17.493 13.414 28.124 9.261" transform="translate(26.72 92.318)" style="fill:#d7f0fd"/>
        <path data-name="Path 24850" d="m77.251 43.246 53.161-20.756c9.245-3.609 27.532-8.621 26.461 15.238s3.039 27.58 7.656 38.03-1.823 19.892-40.408 27.495-40.984-2.639-50.415-21.332S51.345 107.06 33.09 99.59 6.293 95.8 5.606 68.992s25.741.954 32.672-13.867-7.528-27.282 10.85-21.14c-.001 0 17.492 13.415 28.123 9.261z" transform="translate(23.55 83.46)" style="stroke:#08297e;fill:none;stroke-miterlimit:10;stroke-width:4px"/>
        <path data-name="Path 24851" d="M83.565 55.092s46.529-7.565 56.328-9.154 28.726-2.666 22.68 20.441-2.8 27.6-.48 38.792-5.945 19.066-45.265 18.415C77.509 122.952 77.306 112.422 72 92.173s-27.132 19.892-43.42 8.77S3.176 91.624 8.118 65.27s24.968 6.318 34.847-6.718-1.642-28.257 15.04-18.4c0 0 14.294 16.784 25.56 14.944" transform="translate(28.673 159.574)" style="fill:#d7f0fd"/>
        <path data-name="Path 24852" d="M83.635 52.943s46.529-7.571 56.328-9.16 28.726-2.666 22.68 20.441-2.8 27.6-.48 38.792-5.945 19.066-45.265 18.421-39.523-11.17-44.828-31.419-27.132 19.892-43.42 8.77S3.246 89.47 8.188 63.116s24.968 6.318 34.847-6.716-1.642-28.257 15.04-18.4c.001-.006 14.295 16.777 25.56 14.943z" transform="translate(28.976 150.244)" style="stroke:#08297e;fill:none;stroke-miterlimit:10;stroke-width:4px"/>
        <path data-name="Path 24853" d="M87.184 75.457s47.024 3.3 56.925 4 28.572 3.993 17.392 25.1-9.053 26.226-9.357 37.646-10.162 17.2-48.288 7.555-35.908-19.929-36.431-40.861-30.966 13.148-44.273-1.418S.562 92.582 11.417 68.062s22.851 11.873 35.46 1.45 4.873-27.884 18.858-14.465c0 0 10.066 19.609 21.449 20.409" transform="translate(28.124 216.666)" style="fill:#d7f0fd"/>
        <path data-name="Path 24854" d="M87.4 73.295s47.024 3.3 56.925 4 28.572 3.993 17.392 25.1-9.053 26.226-9.357 37.646-10.162 17.2-48.288 7.555-35.91-19.935-36.432-40.867-30.966 13.148-44.273-1.418S.776 90.42 11.631 65.9s22.851 11.873 35.46 1.45 4.873-27.884 18.858-14.465c0 0 10.066 19.61 21.451 20.41z" transform="translate(29.05 207.302)" style="stroke:#08297e;fill:none;stroke-miterlimit:10;stroke-width:4px"/>
        <path data-name="Path 24855" d="M84.62 90.3s47.024 3.3 56.925 4 28.572 3.993 17.392 25.1-9.053 26.226-9.357 37.646-10.162 17.2-48.288 7.555-35.908-19.929-36.431-40.861-30.961 13.144-44.273-1.421S-2 107.428 8.853 82.908s22.851 11.873 35.46 1.45 4.873-27.884 18.858-14.465c0 0 10.066 19.609 21.449 20.409" transform="translate(17.019 280.973)" style="fill:#d7f0fd"/>
        <path data-name="Path 24856" d="M84.834 88.141s47.024 3.3 56.925 4 28.572 3.993 17.392 25.1-9.053 26.226-9.357 37.646-10.162 17.2-48.288 7.555-35.906-19.935-36.43-40.867-30.966 13.147-44.276-1.418-22.588-14.891-11.733-39.411 22.851 11.873 35.46 1.45S49.4 54.312 63.385 67.731c0 0 10.066 19.61 21.449 20.41z" transform="translate(17.944 271.608)" style="stroke:#08297e;fill:none;stroke-miterlimit:10;stroke-width:4px"/>
        <path data-name="Path 24857" d="m73.294 106.11 48.224 15.3c8.387 2.655 23.795 9.389 9.767 25.245s-13.265 20.718-15.9 30.5-12.337 12.705-43.186-3.54-26.8-24.653-22.888-42.8-29.425 4.884-37.859-10.439S-4.92 102.837 9.54 83.963s17.221 14.992 30.26 8.632 10-23.011 19.259-8.536c0 0 4.59 18.991 14.235 22.051" transform="translate(5.977 337.952)" style="fill:#d7f0fd"/>
        <path data-name="Path 24858" d="m73.929 104.292 48.224 15.3c8.387 2.655 23.795 9.389 9.762 25.245s-13.26 20.718-15.9 30.5-12.337 12.705-43.186-3.54-26.8-24.653-22.888-42.8-29.425 4.884-37.859-10.439-16.368-17.536-1.909-36.409S27.4 97.137 40.431 90.777s10.007-23.011 19.263-8.536c0 0 4.591 18.991 14.235 22.051z" transform="translate(8.727 330.077)" style="stroke:#08297e;fill:none;stroke-miterlimit:10;stroke-width:4px"/>
        <path data-name="Path 24859" d="M28.729 111.867a78.683 78.683 0 0 1 10.125-40.36" transform="translate(123.548 309.067)" style="stroke:#8f2947;fill:none;stroke-miterlimit:10;stroke-width:4px"/>
        <path data-name="Path 24860" d="M31.653 96.546a78.683 78.683 0 0 1 10.125-40.36" transform="translate(136.214 242.703)" style="stroke:#8f2947;fill:none;stroke-miterlimit:10;stroke-width:4px"/>
        <path data-name="Path 24861" d="M34.459 81.485a78.66 78.66 0 0 1 1.2-41.592" transform="translate(138.952 172.129)" style="stroke:#8f2947;fill:none;stroke-miterlimit:10;stroke-width:4px"/>
        <path data-name="Path 24862" d="M36.535 64.052a78.645 78.645 0 0 1-4.223-41.4" transform="translate(134.503 97.448)" style="stroke:#8f2947;fill:none;stroke-miterlimit:10;stroke-width:4px"/>
        <path data-name="Path 24863" d="M36.442 44.2A78.665 78.665 0 0 1 25.518 4.049" transform="translate(109.837 16.868)" style="stroke:#8f2947;fill:none;stroke-miterlimit:10;stroke-width:4px"/>
        <path data-name="Path 24864" d="M21.616 118.869s-1.37-10.716 10.125-30.662" transform="translate(92.737 381.404)" style="stroke:#8f2947;fill:none;stroke-miterlimit:10;stroke-width:4px"/>
    </g>
</svg>
