<svg xmlns="http://www.w3.org/2000/svg" width="430.121" height="440.07" viewBox="0 0 430.121 440.07">
    <g data-name="Group 7067">
        <path data-name="Path 24839" d="M45.458.906s54.374 97.347 70.16 106.117 54.374 7.893 56.128 40.342-21.046 12.278-38.588 39.465-48.235 35.957-58.759 0 11.4-31.572-13.155-69.283S0 31.6 0 31.6z" transform="translate(0 3.295)" style="fill:#d7f0fd"/>
        <path data-name="Path 24840" d="M20.233 197.832s24.556-64.021 21.925-92.962-7.893-32.449 6.142-39.465 21.925 10.524 42.1 6.139 30.656-26.31 39.884-29.818 27.835-1.754 27.742 28.064-36.931 31.572-45.7 68.406-32.457 145.582-32.457 145.582S17.6 278.516 3.57 250.452z" transform="translate(13.824 156.292)" style="fill:#d7f0fd"/>
        <path data-name="Path 24841" d="m29.652 41.231 22.072 12.926L40.688 34.6z" transform="translate(114.82 133.767)" style="stroke:#8f2947;fill:none;stroke-miterlimit:10;stroke-width:4px"/>
        <path data-name="Path 24842" d="M37.065 28.048s12.181 19.294 6.919 42.973S27.862 99 41.187 108.249s33.492-13.155 25.6-40.1S41.3 15.292 37.065 28.048" transform="translate(134.777 95.425)" style="fill:#d7f0fd"/>
        <path data-name="Path 24843" d="M45.118.244s52.557 94.092 67.812 102.565 52.557 7.63 54.252 38.992-20.346 11.869-37.3 38.145-46.622 34.754-56.8 0 11.021-30.515-12.712-66.964S1.18 29.911 1.18 29.911" transform="translate(4.568 .732)" style="stroke:#08297e;fill:none;stroke-miterlimit:10;stroke-width:4px"/>
        <path data-name="Path 24844" d="m4.584 248.171 16.663-52.62S45.8 131.53 43.172 102.589s-7.893-32.449 6.139-39.465 21.925 10.524 42.1 6.139 30.656-26.31 39.884-29.818 27.835-1.754 27.742 28.064-36.931 31.572-45.7 68.406S80.883 281.5 80.883 281.5" transform="translate(17.75 147.459)" style="stroke:#08297e;fill:none;stroke-miterlimit:10;stroke-width:4px"/>
        <path data-name="Path 24845" d="M38.542 28.048s12.181 19.294 6.919 42.973S29.339 99 42.664 108.249s33.492-13.155 25.6-40.1-25.483-52.857-29.722-40.101z" transform="translate(140.498 95.425)" style="stroke:#08297e;fill:none;stroke-miterlimit:10;stroke-width:4px"/>
        <path data-name="Rectangle 1468" transform="rotate(-35.473 288.375 -321.19)" style="fill:#d7f0fd" d="M0 0h120.192v32.125H0z"/>
        <path data-name="Rectangle 1469" transform="rotate(-35.474 275.883 -308.382)" style="stroke:#08297e;fill:none;stroke-miterlimit:10;stroke-width:4px" d="M0 0h101.88v35.957H0z"/>
        <path data-name="Rectangle 1470" transform="matrix(.814 -.58 .58 .814 317.125 49.328)" style="stroke:#08297e;fill:none;stroke-miterlimit:10;stroke-width:4px" d="M0 0h28.451v21.353H0z"/>
        <path data-name="Line 27" transform="translate(163.197 118.845)" style="stroke:#08297e;fill:none;stroke-miterlimit:10;stroke-width:4px" d="M0 53.823 75.524 0"/>
        <path data-name="Path 24846" d="M148.325 47.715c-38.515-49.4-72.9-28.337-72.9-28.337l-4.77-6.694s43.9-26.242 84.236 30.354" transform="translate(273.6 25.375)" style="stroke:#08297e;fill:none;stroke-miterlimit:10;stroke-width:4px"/>
    </g>
</svg>
