<svg xmlns="http://www.w3.org/2000/svg" width="539.671" height="568.963" viewBox="0 0 539.671 568.963">
    <g data-name="SPORTS INJURY">
        <path data-name="Path 25267" d="M11.6 6.914S295.066 80.75 327.85 93.336s69.874 24.022 89.191 101.591c19.9 79.9 97.265 290.045 97.265 290.045l-153.889 53.547s-82.9-112.91-114.17-186.111C212.718 273.929 11.6 251.56 11.6 251.56L1.9 5.412z" transform="translate(10.949 30.444)" style="fill:#d7f0fd"/>
        <path data-name="Path 25268" d="M31.635 19.866s106.282 40.824 124.4 37.386 47.809-29.354 70.4-5.043-8.487 23.388-4.478 56.179-14.336 59.734-46.094 38.406-11.691-32.22-55.6-45.749-104.225-27.39-104.225-27.39z" transform="translate(94.23 115.563)" style="fill:#fff"/>
        <path data-name="Path 25269" d="M107.414 235.749s-22.582-66.271-43.566-87.255-27.4-20.295-20.977-34.968 24.077-6.076 37.035-22.7S86.754 50.148 91.7 41.364s20.687-19.571 40.107 3.885-8.336 48.9 8.859 83.528 69.7 135.409 69.7 135.409-52.28 36.573-81.634 23.732z" transform="translate(238.228 181.622)" style="fill:#fff"/>
        <path data-name="Path 25270" d="M44.474 26.68s22.169 7.171 33.515 29.188S83.631 88.35 100.13 86.9 117.807 54.691 94 38.708 39.459 13.9 44.474 26.68" transform="translate(258.49 119.702)" style="fill:#fff"/>
        <path data-name="Path 25271" d="M31.362 19.1S134.09 58.55 151.6 55.229s46.211-28.369 68.042-4.87-8.2 22.6-4.326 54.3-13.854 57.736-44.551 37.124-11.3-31.145-53.747-44.22S16.289 71.088 16.289 71.088z" transform="translate(95.708 111.034)" style="stroke:#08297e;fill:none;stroke-miterlimit:10;stroke-width:4px"/>
        <path data-name="Path 25272" d="M106.922 234.015S84.34 167.744 63.357 146.76s-27.4-20.295-20.977-34.968 24.077-6.076 37.035-22.7 6.847-40.678 11.794-49.462 20.687-19.571 40.107 3.885-8.336 48.9 8.859 83.528 69.7 135.409 69.7 135.409-52.28 36.573-81.634 23.732z" transform="translate(235.329 171.411)" style="stroke:#08297e;fill:none;stroke-miterlimit:10;stroke-width:4px"/>
        <path data-name="Path 25273" d="M45.293 26s22.169 7.171 33.515 29.188 5.642 32.479 22.141 31.032 17.677-32.213-6.131-48.195S40.278 13.218 45.293 26z" transform="translate(263.314 115.68)" style="stroke:#8f2947;fill:none;stroke-miterlimit:10;stroke-width:4px"/>
        <path data-name="Path 25274" d="m.076.494 10.182 1.578s297.333 77.452 331.73 90.651 73.291 25.193 93.559 106.558c20.86 83.8 102.018 304.236 102.018 304.236" transform="translate(.23 1.482)" style="stroke:#08297e;fill:none;stroke-miterlimit:10;stroke-width:4px"/>
        <path data-name="Path 25275" d="M367.433 338.978s-86.959-118.435-119.764-195.219C212.5 61.437 1.555 37.973 1.555 37.973" transform="translate(8.941 222.194)" style="stroke:#08297e;fill:none;stroke-miterlimit:10;stroke-width:4px"/>
        <path data-name="Line 68" transform="translate(383.593 57.238)" style="stroke:#8f2947;fill:none;stroke-miterlimit:10;stroke-width:4px" d="M12.014 44.716 0 0"/>
        <path data-name="Line 69" transform="translate(421.994 85.396)" style="stroke:#8f2947;fill:none;stroke-miterlimit:10;stroke-width:4px" d="M0 33.115 30.249 0"/>
        <path data-name="Line 70" transform="translate(433.193 145.5)" style="stroke:#8f2947;fill:none;stroke-miterlimit:10;stroke-width:4px" d="M0 5.435 54.56 0"/>
    </g>
</svg>
