<svg xmlns="http://www.w3.org/2000/svg" width="535.689" height="347.474" viewBox="0 0 535.689 347.474">
    <g data-name="Group 7104" transform="translate(-693.328 -15654.97)">
        <path data-name="Path 25085" d="M510.007 148.688S396.923 284.512 257.426 284.512 4.85 148.688 4.85 148.688 117.934 12.864 257.426 12.864s252.581 135.824 252.581 135.824" transform="translate(716.408 15717.932)" style="fill:#d6f0fc"/>
        <path data-name="Path 25086" d="M250.567 126.363A112.861 112.861 0 1 1 137.706 13.5a112.859 112.859 0 0 1 112.861 112.863" transform="translate(817.02 15721.143)" style="fill:#fff"/>
        <path data-name="Path 25087" d="M252.359 128.155A112.861 112.861 0 1 1 139.5 15.294a112.859 112.859 0 0 1 112.859 112.861" transform="translate(826.035 15730.159)" style="fill:#d6f0fc"/>
        <circle data-name="Ellipse 203" cx="118.706" cy="118.706" r="118.706" transform="translate(844.27 15732.944)" style="stroke:#003a85;fill:none;stroke-miterlimit:10;stroke-width:4px"/>
        <path data-name="Path 25088" d="M35.45 38.978s23.886-30.4 82.515-19.543" transform="translate(870.381 15739.204)" style="stroke:#003a85;fill:none;stroke-miterlimit:10;stroke-width:4px"/>
        <path data-name="Path 25089" d="M531.136 152.245s-118.754 142.64-265.242 142.64S.651 152.245.651 152.245 119.405 9.605 265.893 9.605s265.243 142.64 265.243 142.64z" transform="translate(695.279 15701.533)" style="stroke:#003a85;fill:none;stroke-miterlimit:10;stroke-width:4px"/>
        <path data-name="Path 25090" d="M118.031 50.854a41.745 41.745 0 1 1-23.44-22.191" transform="translate(883.182 15783.883)" style="stroke:#8e2a48;fill:none;stroke-miterlimit:10;stroke-width:4px"/>
        <path data-name="Path 25091" d="M85.456 46.952a20.484 20.484 0 1 1-20.484-20.484" transform="translate(915.859 15786.385)" style="stroke:#8e2a48;fill:none;stroke-miterlimit:10;stroke-width:4px"/>
        <path data-name="Path 25092" d="M66 37.72a9.636 9.636 0 1 1-9.639-9.633A9.639 9.639 0 0 1 66 37.72" transform="translate(927.109 15794.531)" style="fill:#8e2a48"/>
        <path data-name="Line 42" transform="translate(999.418 15728.475)" style="stroke:#003a85;fill:none;stroke-miterlimit:10;stroke-width:4px" d="M141.868 0 0 92.92"/>
        <path data-name="Path 25093" d="M95.938.87 75.394 33.906l30.569 38.984 37.463-11.666z" transform="translate(1071.369 15657.578)" style="stroke:#003a85;fill:none;stroke-miterlimit:10;stroke-width:4px"/>
        <path data-name="Path 25094" d="M90.531 7.894 73.672 26.441 85.15 41.72l23.838-10.363z" transform="translate(1062.705 15692.922)" style="stroke:#003a85;fill:none;stroke-miterlimit:10;stroke-width:4px"/>
    </g>
</svg>
