<svg xmlns="http://www.w3.org/2000/svg" width="90.472" height="49.403" viewBox="0 0 90.472 49.403">
    <g transform="translate(-176.45 -16312.136)">
        <path data-name="Path 25073" d="M89.392 26.49S70.466 49.221 47.12 49.221 4.85 26.49 4.85 26.49 23.775 3.759 47.12 3.759 89.392 26.49 89.392 26.49" transform="translate(176.685 16312.317)" style="fill:#d6f0fc"/>
        <path data-name="Path 25074" d="M62.621 23.285A18.888 18.888 0 1 1 43.733 4.4a18.888 18.888 0 0 1 18.888 18.885" transform="translate(176.874 16312.323)" style="fill:#fff"/>
        <path data-name="Path 25075" d="M64.413 25.077A18.888 18.888 0 1 1 45.525 6.189a18.888 18.888 0 0 1 18.888 18.888" transform="translate(176.89 16312.34)" style="fill:#d6f0fc"/>
        <circle data-name="Ellipse 202" cx="19.866" cy="19.866" r="19.866" transform="translate(201.694 16316.436)" style="stroke:#003a85;fill:none;stroke-miterlimit:10;stroke-width:1.3px"/>
        <path data-name="Path 25076" d="M37.345 19.028s-3.452-3.8-4.906-2.533-5.2-2.163-5.2-2.163" transform="translate(176.896 16312.417)" style="stroke:#8e2a48;fill:none;stroke-miterlimit:10;stroke-width:1.3px"/>
        <path data-name="Path 25077" d="M36.459 22.6s-3.271 2-6.36 0-5.28 1.211-5.28 1.211" transform="translate(176.873 16312.489)" style="stroke:#8e2a48;fill:none;stroke-miterlimit:10;stroke-width:1.3px"/>
        <path data-name="Path 25078" d="M36.448 28.54s-3.1 1.817-5.82 0-4.657 1.919-4.657 1.919" transform="translate(176.884 16312.547)" style="stroke:#8e2a48;fill:none;stroke-miterlimit:10;stroke-width:1.3px"/>
        <path data-name="Path 25079" d="M53.27 19.021a4.346 4.346 0 0 1 4.361-2.348 5 5 0 0 0 4.569-1.648" transform="translate(177.143 16312.424)" style="stroke:#8e2a48;fill:none;stroke-miterlimit:10;stroke-width:1.3px"/>
        <path data-name="Path 25080" d="M54.71 22.883s4.179.592 6.178-.934 4 1.047 4 1.047" transform="translate(177.156 16312.484)" style="stroke:#8e2a48;fill:none;stroke-miterlimit:10;stroke-width:1.3px"/>
        <path data-name="Path 25081" d="M53.27 28.041s1.354 1.714 4.925.907c4.007-.907 4.926 1.511 4.926 1.511" transform="translate(177.143 16312.547)" style="stroke:#8e2a48;fill:none;stroke-miterlimit:10;stroke-width:1.3px"/>
        <path data-name="Path 25082" d="M35.45 11.649s4-5.088 13.809-3.271" transform="translate(176.974 16312.356)" style="stroke:#003a85;fill:none;stroke-miterlimit:10;stroke-width:1.3px"/>
        <path data-name="Path 25083" d="M51.38 24.322a6.587 6.587 0 1 1-6.587-6.587 11.916 11.916 0 0 1 2.359.435s-2 2.07 0 3.816a2.335 2.335 0 0 0 3.653-.358 11.855 11.855 0 0 1 .575 2.694z" transform="translate(177 16312.449)" style="stroke:#003a85;fill:none;stroke-miterlimit:10;stroke-width:1.3px"/>
        <path data-name="Path 25084" d="M89.431 24.372s-19.874 23.872-44.39 23.872S.651 24.372.651 24.372 20.525.5 45.041.5s44.39 23.872 44.39 23.872z" transform="translate(176.645 16312.286)" style="stroke:#003a85;fill:none;stroke-miterlimit:10;stroke-width:1.3px"/>
    </g>
</svg>
