<svg xmlns="http://www.w3.org/2000/svg" width="89.597" height="58.133" viewBox="0 0 89.597 58.133">
    <g data-name="LASIK SURGERY" transform="translate(-695.085 -15657.317)">
        <path data-name="Path 25085" d="M88.559 35.371S69.82 57.878 46.7 57.878 4.85 35.371 4.85 35.371 23.589 12.864 46.7 12.864s41.859 22.507 41.859 22.507" transform="translate(695.277 15657.572)" style="fill:#d6f0fc"/>
        <path data-name="Path 25086" d="M62.249 32.2a18.7 18.7 0 1 1-18.7-18.7 18.7 18.7 0 0 1 18.7 18.7" transform="translate(695.268 15657.571)" style="fill:#fff"/>
        <path data-name="Path 25087" d="M64.041 34a18.7 18.7 0 1 1-18.7-18.7 18.7 18.7 0 0 1 18.7 18.7" transform="translate(695.267 15657.57)" style="fill:#d6f0fc"/>
        <circle data-name="Ellipse 203" cx="19.671" cy="19.671" r="19.671" transform="translate(720.511 15670.792)" style="stroke:#003a85;fill:none;stroke-miterlimit:10;stroke-width:1.3px"/>
        <path data-name="Path 25088" d="M35.45 20.718s3.958-5.038 13.673-3.238" transform="translate(695.263 15657.57)" style="stroke:#003a85;fill:none;stroke-miterlimit:10;stroke-width:1.3px"/>
        <path data-name="Path 25089" d="M88.557 33.242S68.878 56.878 44.6 56.878.651 33.242.651 33.242 20.33 9.605 44.6 9.605s43.957 23.637 43.957 23.637z" transform="translate(695.279 15657.573)" style="stroke:#003a85;fill:none;stroke-miterlimit:10;stroke-width:1.3px"/>
        <path data-name="Path 25090" d="M51.257 30.094a6.917 6.917 0 1 1-3.884-3.677" transform="translate(695.261 15657.566)" style="stroke:#8e2a48;fill:none;stroke-miterlimit:10;stroke-width:1.3px"/>
        <path data-name="Path 25091" d="M51.277 29.862a3.394 3.394 0 1 1-3.394-3.394" transform="translate(695.258 15657.565)" style="stroke:#8e2a48;fill:none;stroke-miterlimit:10;stroke-width:1.3px"/>
        <path data-name="Path 25092" d="M49.917 29.683a1.6 1.6 0 1 1-1.6-1.6 1.6 1.6 0 0 1 1.6 1.6" transform="translate(695.257 15657.564)" style="fill:#8e2a48"/>
        <path data-name="Line 42" transform="translate(746.221 15670.052)" style="stroke:#003a85;fill:none;stroke-miterlimit:10;stroke-width:1.3px" d="M23.509 0 0 15.398"/>
        <path data-name="Path 25093" d="m78.8.87-3.4 5.474 5.066 6.46 6.208-1.933z" transform="translate(695.243 15657.578)" style="stroke:#003a85;fill:none;stroke-miterlimit:10;stroke-width:1.3px"/>
        <path data-name="Path 25094" d="m76.465 7.894-2.794 3.074 1.9 2.532 3.95-1.717z" transform="translate(695.244 15657.574)" style="stroke:#003a85;fill:none;stroke-miterlimit:10;stroke-width:1.3px"/>
    </g>
</svg>
