<svg xmlns="http://www.w3.org/2000/svg" width="491.933" height="541.436" viewBox="0 0 491.933 541.436">
    <g data-name="Group 7110" transform="translate(-759.632 -18548.955)">
        <path data-name="Path 25179" d="M163.739 87.067A74.343 74.343 0 1 1 89.4 12.724a74.345 74.345 0 0 1 74.343 74.343" transform="translate(817.449 18597.752)" style="fill:#d6f0fc"/>
        <circle data-name="Ellipse 208" cx="78.974" cy="78.974" r="78.974" transform="translate(823.002 18600.977)" style="stroke-width:4px;stroke:#003a85;fill:none;stroke-miterlimit:10"/>
        <path data-name="Path 25180" d="M112.078 101.435H99.223a9.058 9.058 0 0 1-9.057-9.057v-40.9a9.058 9.058 0 0 1 9.057-9.057h12.855a9.058 9.058 0 0 1 9.057 9.057v40.9a9.058 9.058 0 0 1-9.057 9.057" transform="translate(1108.076 18712.652)" style="fill:#d6f0fc"/>
        <path data-name="Path 25181" d="M152.694 290.408H31.611a19.347 19.347 0 0 1-19.345-19.345V83.4a19.347 19.347 0 0 1 19.345-19.347h121.083A19.347 19.347 0 0 1 172.04 83.4v187.663a19.347 19.347 0 0 1-19.345 19.345" transform="translate(806.664 18796.354)" style="fill:#d6f0fc"/>
        <path data-name="Path 25182" d="M68.369 50.419s-15.776-5.132-19.282-17.9S45.143 7.911 32.434 4.4 10.523 16.237 18.849 27.412s21.473 15.119 14.9 36.154" transform="translate(819.803 18563.592)" style="stroke:#707070;fill:#fff;stroke-width:4px"/>
        <path data-name="Path 25183" d="M68.369 50.419s-15.776-5.132-19.282-17.9S45.143 7.911 32.434 4.4 10.523 16.237 18.849 27.412s21.473 15.119 14.9 36.154" transform="translate(819.803 18563.592)" style="stroke-width:4px;stroke:#003a85;fill:none;stroke-miterlimit:10"/>
        <path data-name="Path 25184" d="M29.321 38.587s12.051-3.131 9.86-18.031S49.26 1.712 58.025 4.341s14.9 13.8 3.287 23.664c-9.407 7.986-5.04 14.462 1.534 20.159" transform="translate(872.654 18562.389)" style="stroke-width:4px;stroke:#003a85;fill:none;stroke-miterlimit:10"/>
        <path data-name="Path 25185" d="M41.424 37.14s12.49-1.534 20.159-16.434S83.372 9.77 87.438 16.543c4.6 7.669-3.759 18.3-15.119 20.6-18.464 3.722-20.377 14.239-20.377 14.239" transform="translate(919.484 18589.137)" style="stroke-width:4px;stroke:#003a85;fill:none;stroke-miterlimit:10"/>
        <path data-name="Path 25186" d="M54.695 22.445S42.234 28.58 31.59 24.2c-7.309-3.009-24.463-7.45-26.922 5.7C1.469 47 20.635 46.986 34.22 41.727s20.475 3.662 20.475 3.662" transform="translate(775.898 18629.691)" style="stroke:#707070;fill:#fff;stroke-width:4px"/>
        <path data-name="Path 25187" d="M54.695 22.445S42.234 28.58 31.59 24.2c-7.309-3.009-24.463-7.45-26.922 5.7C1.469 47 20.635 46.986 34.22 41.727s20.475 3.662 20.475 3.662" transform="translate(775.898 18629.691)" style="stroke-width:4px;stroke:#003a85;fill:none;stroke-miterlimit:10"/>
        <path data-name="Path 25188" d="M40.475 29.84c.292 1.315-3 20.6-18.445 17.967S2.2 61.831 10.091 69.281s17.057 5.429 24.672-7.012S56.981 59.2 56.981 59.2" transform="translate(783.375 18663.977)" style="stroke:#707070;fill:#fff;stroke-width:4px"/>
        <path data-name="Path 25189" d="M40.475 29.84c.292 1.315-3 20.6-18.445 17.967S2.2 61.831 10.091 69.281s17.057 5.429 24.672-7.012S56.981 59.2 56.981 59.2" transform="translate(783.375 18663.977)" style="stroke-width:4px;stroke:#003a85;fill:none;stroke-miterlimit:10"/>
        <path data-name="Path 25190" d="M31.886 52.725s21.035 9.247 18.406 31.158 13.931 30.1 25.856 22.35c6.067-3.944 11.394-17.471-8.326-32.181S60.809 35.24 60.809 35.24" transform="translate(882.578 18684.871)" style="fill:#d7f0fd;stroke:#707070;stroke-width:4px"/>
        <path data-name="Path 25191" d="M31.886 52.725s21.035 9.247 18.406 31.158 13.931 30.1 25.856 22.35c6.067-3.944 11.394-17.471-8.326-32.181S60.809 35.24 60.809 35.24" transform="translate(882.578 18684.871)" style="stroke-width:4px;stroke:#003a85;fill:none;stroke-miterlimit:10"/>
        <path data-name="Path 25192" d="M31.754 36.441s7.6 17.145-6.033 28.909-8.151 25.812 3.3 27.7C34.846 94 45.5 88.775 41.7 69.06S58.807 41.8 58.807 41.8" transform="translate(827.621 18689.518)" style="fill:#d7f0fd;stroke:#707070;stroke-width:4px"/>
        <path data-name="Path 25193" d="M31.754 36.441s7.6 17.145-6.033 28.909-8.151 25.812 3.3 27.7C34.846 94 45.5 88.775 41.7 69.06S58.807 41.8 58.807 41.8" transform="translate(827.621 18689.518)" style="stroke-width:4px;stroke:#003a85;fill:none;stroke-miterlimit:10"/>
        <path data-name="Path 25194" d="M42.686 46.493s13.9-3.506 25.417 13.585c8.141 12.081 26.347 10.362 29.97 2.006 7.718-17.782-15.684-25.5-26.2-23.747s-21.3-8.5-21.3-8.5" transform="translate(924.367 18663.977)" style="fill:#d7f0fd;stroke:#707070;stroke-width:4px"/>
        <path data-name="Path 25195" d="M42.686 46.493s13.9-3.506 25.417 13.585c8.141 12.081 26.347 10.362 29.97 2.006 7.718-17.782-15.684-25.5-26.2-23.747s-21.3-8.5-21.3-8.5" transform="translate(924.367 18663.977)" style="stroke-width:4px;stroke:#003a85;fill:none;stroke-miterlimit:10"/>
        <circle data-name="Ellipse 209" cx="15.557" cy="15.557" r="15.557" transform="translate(787.816 18593.023)" style="stroke-width:4px;stroke:#003a85;fill:none;stroke-miterlimit:10"/>
        <circle data-name="Ellipse 210" cx="12.246" cy="12.246" r="12.246" transform="translate(999.48 18640.52)" style="stroke-width:4px;stroke:#003a85;fill:none;stroke-miterlimit:10"/>
        <path data-name="Path 25196" d="M60.271 68.714A16.572 16.572 0 1 1 43.7 52.139a16.575 16.575 0 0 1 16.571 16.575" transform="translate(864.162 18750.256)" style="fill:#d6f0fc"/>
        <path data-name="Path 25197" d="M45.006 11.2A10.7 10.7 0 1 1 34.3.5a10.7 10.7 0 0 1 10.706 10.7z" transform="translate(850.541 18550.455)" style="stroke-width:4px;stroke:#003a85;fill:none;stroke-miterlimit:10"/>
        <circle data-name="Ellipse 211" cx="18.406" cy="18.406" r="18.406" transform="translate(886.418 18794.021)" style="stroke-width:4px;stroke:#003a85;fill:none;stroke-miterlimit:10"/>
        <path data-name="Path 25198" d="m87.578 92.2 2.386 161.648s2.332 14.608 15.187 14.608 14.608-12.856 14.608-12.856 4.1 12.855 17.534 12.855 15.187-14.023 15.187-14.023V83.812l19.287 22.783s3.944 4.971 9.641 4.533 34.62-25.417 34.62-25.417V62.484l-35.058 22.35-20.6-29.361s-8.326-9.2-25.417-9.2H93.324S73.6 52.1 68.34 69.783s-17.033 61.941-17.033 61.941-4.879 16.653 7.4 18.844 14.462-15.338 14.462-15.338z" transform="translate(954.021 18727.549)" style="fill:#d6f0fc"/>
        <path data-name="Path 25199" d="M27.356 54.381a11.168 11.168 0 1 1-11.17-11.17 11.17 11.17 0 0 1 11.17 11.17z" transform="translate(778.633 18715.713)" style="stroke-width:4px;stroke:#003a85;fill:none;stroke-miterlimit:10"/>
        <rect data-name="Rectangle 1491" width="162.978" height="221.452" rx="3.973" transform="translate(805.988 18850.703)" style="stroke-width:4px;stroke:#003a85;fill:none;stroke-miterlimit:10"/>
        <path data-name="Path 25200" d="m85.578 91.516 2.386 161.648s2.332 14.608 15.187 14.608 14.608-12.855 14.608-12.855 4.09 12.855 17.534 12.855 15.187-14.023 15.187-14.023V83.132l19.287 22.783s3.944 4.971 9.641 4.533 34.62-25.417 34.62-25.417V61.8L178.97 84.154l-20.6-29.361s-8.326-9.2-25.417-9.2H91.324S71.6 51.423 66.34 69.1s-17.033 61.941-17.033 61.941-4.879 16.653 7.4 18.844 14.462-15.338 14.462-15.338z" transform="translate(946.283 18724.918)" style="stroke-width:4px;stroke:#003a85;fill:none;stroke-miterlimit:10"/>
        <path data-name="Line 46" transform="translate(1063.463 18881.6)" style="stroke-width:4px;stroke:#003a85;fill:none;stroke-miterlimit:10" d="M0 0v98.236"/>
        <path data-name="Path 25201" d="M85.526 36.14h26.294v8.229H120V36.14" transform="translate(1090.123 18688.354)" style="stroke-width:4px;stroke:#003a85;fill:none;stroke-miterlimit:10"/>
        <rect data-name="Rectangle 1492" width="30.968" height="59.015" rx="1.86" transform="translate(1188.504 18750.203)" style="stroke-width:4px;stroke:#003a85;fill:none;stroke-miterlimit:10"/>
        <path data-name="Rectangle 1493" transform="translate(1197.781 18809.217)" style="stroke-width:4px;stroke:#003a85;fill:none;stroke-miterlimit:10" d="M0 0h13.147v13.147H0z"/>
        <path data-name="Line 47" transform="translate(1203.988 18732.723)" style="stroke-width:4px;stroke:#003a85;fill:none;stroke-miterlimit:10" d="M0 17.48V0"/>
        <path data-name="Path 25202" d="M137.213 58.081s2.41 31.757 18.187 38.33c0 0 27.024 7.791 27.024-6.866 0-12.855-20.529-9.529-30.092-4.382s-21.035 15.192-30.968 16.945-41.486-1.753-41.778-45.868" transform="translate(1067.141 18766.125)" style="stroke-width:4px;stroke:#003a85;fill:none;stroke-miterlimit:10"/>
        <path data-name="Rectangle 1494" transform="translate(1161.242 18725.959)" style="fill:#d6f0fc" d="M0 0h19.277v272.963H0z"/>
        <path data-name="Path 25203" d="M109.584 58.68A24.979 24.979 0 1 1 84.605 33.7a24.98 24.98 0 0 1 24.979 24.98" transform="translate(989.91 18678.916)" style="fill:#d6f0fc"/>
        <path data-name="Rectangle 1495" transform="translate(1160.313 18713.27)" style="stroke-width:4px;stroke:#003a85;fill:none;stroke-miterlimit:10" d="M0 0h15.338v275.914H0z"/>
        <circle data-name="Ellipse 212" cx="24.979" cy="24.979" r="24.979" transform="translate(1039.799 18709.203)" style="stroke-width:4px;stroke:#003a85;fill:none;stroke-miterlimit:10"/>
        <path data-name="Path 25204" d="M59.633 91.086A22.678 22.678 0 1 1 36.952 68.4a22.681 22.681 0 0 1 22.681 22.686z" transform="translate(814.441 18813.193)" style="stroke-width:4px;stroke:#003a85;fill:none;stroke-miterlimit:10"/>
        <path data-name="Line 48" transform="translate(828.717 18904.277)" style="stroke-width:4px;stroke:#003a85;fill:none;stroke-miterlimit:10" d="M0 0h44.027"/>
        <path data-name="Path 25205" d="M30.983 39.673a16.793 16.793 0 1 1 9.753 12.222" transform="translate(877.916 18624.627)" style="stroke:#8e2a48;stroke-width:4px;fill:none;stroke-miterlimit:10"/>
        <path data-name="Path 25206" d="M40.522 50.723a13.1 13.1 0 0 1-2.128 1.1 12.579 12.579 0 1 1 7.888-11.287" transform="translate(840.867 18655.127)" style="stroke:#8e2a48;stroke-width:4px;fill:none;stroke-miterlimit:10"/>
        <path data-name="Path 25207" d="M74.633 91.086A22.678 22.678 0 1 1 51.952 68.4a22.681 22.681 0 0 1 22.681 22.686z" transform="translate(872.48 18813.193)" style="stroke-width:4px;stroke:#003a85;fill:none;stroke-miterlimit:10"/>
        <path data-name="Line 49" transform="translate(901.754 18904.277)" style="stroke-width:4px;stroke:#003a85;fill:none;stroke-miterlimit:10" d="M0 0h44.027"/>
        <path data-name="Path 25208" d="M59.633 104.864a22.678 22.678 0 1 1-22.681-22.681 22.681 22.681 0 0 1 22.681 22.681z" transform="translate(814.441 18866.504)" style="stroke-width:4px;stroke:#003a85;fill:none;stroke-miterlimit:10"/>
        <path data-name="Line 50" transform="translate(828.717 18971.369)" style="stroke-width:4px;stroke:#003a85;fill:none;stroke-miterlimit:10" d="M0 0h44.027"/>
        <path data-name="Path 25209" d="M74.633 104.864a22.678 22.678 0 1 1-22.681-22.681 22.681 22.681 0 0 1 22.681 22.681z" transform="translate(872.48 18866.504)" style="stroke-width:4px;stroke:#003a85;fill:none;stroke-miterlimit:10"/>
        <path data-name="Line 51" transform="translate(901.754 18971.369)" style="stroke-width:4px;stroke:#003a85;fill:none;stroke-miterlimit:10" d="M0 0h44.027"/>
        <path data-name="Path 25210" d="M59.633 117.864a22.678 22.678 0 1 1-22.681-22.681 22.681 22.681 0 0 1 22.681 22.681z" transform="translate(814.441 18916.803)" style="stroke-width:4px;stroke:#003a85;fill:none;stroke-miterlimit:10"/>
        <path data-name="Line 52" transform="translate(828.717 19034.67)" style="stroke-width:4px;stroke:#003a85;fill:none;stroke-miterlimit:10" d="M0 0h44.027"/>
        <path data-name="Path 25211" d="M74.633 117.864a22.678 22.678 0 1 1-22.681-22.681 22.681 22.681 0 0 1 22.681 22.681z" transform="translate(872.48 18916.803)" style="stroke-width:4px;stroke:#003a85;fill:none;stroke-miterlimit:10"/>
        <path data-name="Line 53" transform="translate(901.754 19034.67)" style="stroke-width:4px;stroke:#003a85;fill:none;stroke-miterlimit:10" d="M0 0h44.027"/>
        <path data-name="Path 25212" d="M61.268 153.507a19.99 19.99 0 0 1-28.222-1.748L7.585 122.943a20 20 0 1 1 29.97-26.479l25.461 28.821a20 20 0 0 1-1.748 28.222" transform="translate(769.164 18895.617)" style="fill:#d6f0fc"/>
        <path data-name="Line 54" transform="translate(789.479 19007.734)" style="fill:#d6f0fc" d="M28.563 0 0 25.232"/>
        <path data-name="Path 25213" d="M67.39 161.284a22.79 22.79 0 0 1-32.166-1.992L6.209 126.45a22.788 22.788 0 1 1 34.157-30.175l29.016 32.843a22.79 22.79 0 0 1-1.992 32.166z" transform="translate(761.139 18891.234)" style="stroke-width:4px;stroke:#003a85;fill:none;stroke-miterlimit:10"/>
        <path data-name="Line 55" transform="translate(781.857 19005.352)" style="stroke-width:4px;stroke:#003a85;fill:none;stroke-miterlimit:10" d="M32.551 0 0 28.758"/>
        <path data-name="Path 25214" d="M92.421 123.252A22.787 22.787 0 0 1 70.7 147.063l-43.77 2.016a22.788 22.788 0 1 1-2.1-45.527l43.779-2.016a22.787 22.787 0 0 1 23.81 21.717" transform="translate(771.16 18941.287)" style="fill:#d6f0fc"/>
        <path data-name="Line 56" transform="translate(817.98 19045.971)" style="fill:#d6f0fc" d="m0 0 1.996 43.39"/>
        <path data-name="Path 25215" d="M89.873 122.808a22.787 22.787 0 0 1-21.717 23.81l-43.774 2.016a22.788 22.788 0 1 1-2.1-45.527l43.779-2.016a22.787 22.787 0 0 1 23.812 21.717z" transform="translate(761.303 18939.57)" style="stroke-width:4px;stroke:#003a85;fill:none;stroke-miterlimit:10"/>
        <path data-name="Line 57" transform="translate(805.574 19043.809)" style="stroke-width:4px;stroke:#003a85;fill:none;stroke-miterlimit:10" d="m0 0 1.996 43.39"/>
    </g>
</svg>
