<svg xmlns="http://www.w3.org/2000/svg" width="585.951" height="550.807" viewBox="0 0 585.951 550.807">
    <g data-name="RADIATION ONCOLOGY" transform="translate(-684.255 -19996.064)">
        <path data-name="Path 25276" d="M144.543 26.814s9.131 22.833-35.375 37.677-57.06 66.223-57.06 99.334v107.989H279.37l-.894-126.687S281.9 65.854 213.9 55.2c0 0-27.359-6.528-27.359-28.383" transform="translate(970.738 20142.494)" style="fill:#d6f0fc"/>
        <path data-name="Path 25277" d="M229.271 161.435c0-58.573-32.4-90.36-72.367-90.36S84.538 118.56 84.538 177.133s32.4 106.058 72.367 106.058h112.188v19.149H97.555s-60.5-6.894-84.236-65.858S-1.238 92.532 83.775 56.524C151.85 27.691 243.058 53.2 243.058 146.63h26.035" transform="translate(694.047 20244.531)" style="fill:#d6f0fc"/>
        <path data-name="Path 25278" d="M145 25.7s9.391 23.479-36.392 38.74-58.7 68.088-58.7 102.132v124.436" transform="translate(958.619 20136.336)" style="stroke:#003a85;fill:none;stroke-miterlimit:10;stroke-width:4px"/>
        <path data-name="Path 25279" d="M73.75 25.7s-9.4 23.479 36.386 38.74c22.833 7.611 37.494 24.568 46.449 43.879 0 0 4.409 16.279 4.409 39.027" transform="translate(1085.842 20136.336)" style="stroke:#003a85;fill:none;stroke-miterlimit:10;stroke-width:4px"/>
        <path data-name="Path 25280" d="M71.717 190.9c0-145.568-10.957-148.7-10.957-148.7s3.131 41.479-4.7 74.349" transform="translate(992.584 20227.447)" style="stroke:#003a85;fill:none;stroke-miterlimit:10;stroke-width:4px"/>
        <path data-name="Path 25281" d="M72.917 34.194s40.7 5.478 46.175 20.348 0 48.523 0 48.523S117.37 130.457 87 130.457s-27.392-18.783-27.392-18.783" transform="translate(1011.727 20183.244)" style="stroke:#003a85;fill:none;stroke-miterlimit:10;stroke-width:4px"/>
        <path data-name="Path 25282" d="M117.647 34.194s-40.7 5.478-46.175 20.348 0 48.523 0 48.523 1.722 27.392 32.088 27.392 27.392-18.783 27.392-18.783" transform="translate(1064.217 20183.244)" style="stroke:#003a85;fill:none;stroke-miterlimit:10;stroke-width:4px"/>
        <path data-name="Path 25283" d="M106.736 69.234a17.638 17.638 0 1 1-17.642-17.642 17.641 17.641 0 0 1 17.642 17.642z" transform="translate(1077.586 20279.314)" style="stroke:#8e2a48;fill:none;stroke-miterlimit:10;stroke-width:4px"/>
        <path data-name="Path 25284" d="M84.652 71.448a8.609 8.609 0 1 1-8.609-8.609 8.609 8.609 0 0 1 8.609 8.609" transform="translate(1055.361 20341.418)" style="fill:#003a85"/>
        <path data-name="Path 25285" d="M183.748 131.382h-64.717s-12.3-3.1-20.381-11.648c-4.409-4.657-28.024-6.189-29.851 3.639-2.367 12.809-14.544 8.009-29.127 8.009-11.276 0-21.1-14.12-21.1-34.5S36.771 65.864 55.7 67.318l12.378-5.824V69.5h14.555s10.194 10.148 7.278 16.722c0 0 9.47-14.537 21.842-14.537h67.7" transform="translate(785.568 20333.992)" style="fill:#d6f0fc"/>
        <path data-name="Path 25286" d="M232.767 162.136c0-59.864-33.111-92.35-73.958-92.35s-73.958 48.53-73.958 108.394 33.111 108.393 73.958 108.393h114.655v19.566H98.156s-61.827-7.039-86.088-67.306-14.876-147.12 72-183.917c69.569-29.466 162.786-3.391 162.786 92.089h26.609" transform="translate(685.764 20234.295)" style="stroke:#003a85;fill:none;stroke-miterlimit:10;stroke-width:4px"/>
        <path data-name="Path 25287" d="M194.245 135.091h-69.569s-13.226-3.339-21.913-12.522c-4.741-5.009-30.131-6.652-32.088 3.913-2.55 13.768-15.639 8.609-31.318 8.609-12.118 0-22.683-15.176-22.683-37.09S36.24 64.655 56.588 66.22l13.3-6.261v8.609h15.657s10.957 10.9 7.826 17.974c0 0 10.174-15.626 23.479-15.626h72.771" transform="translate(775.072 20325.516)" style="stroke:#003a85;fill:none;stroke-miterlimit:10;stroke-width:4px"/>
        <path data-name="Path 25288" d="M129.516 87.775s-19.533 6.261-16.4 29.74H16.068s-4.7-82.958 72-115.828z" transform="translate(771.418 20003.74)" style="fill:#d6f0fc"/>
        <path data-name="Path 25289" d="M59.69 116.406s3.157-20.27-19.239-27.992l43.468-86.76s76.273 32.961 71.31 116.259z" transform="translate(906.365 20003.564)" style="fill:#d6f0fc"/>
        <path data-name="Path 25290" d="M80.087 25.658s15.235 13.742 33.953-.77l48.784 83.9S93.469 154.543 26.5 104.761z" transform="translate(829.346 20131.859)" style="fill:#d6f0fc"/>
        <path data-name="Path 25291" d="M68.249 33.848a16.826 16.826 0 1 1-16.827-16.826 16.826 16.826 0 0 1 16.827 16.826" transform="translate(874.035 20088.424)" style="fill:#d6f0fc"/>
        <path data-name="Path 25292" d="M126.809 86.768s-19.533 6.261-16.4 29.74H13.361S8.661 33.55 85.361.68z" transform="translate(756.471 19998.18)" style="stroke:#003a85;fill:none;stroke-miterlimit:10;stroke-width:4px"/>
        <path data-name="Path 25293" d="M56.984 115.4s3.157-20.27-19.24-27.992L81.212.647s76.273 32.961 71.3 116.259z" transform="translate(891.418 19998.004)" style="stroke:#003a85;fill:none;stroke-miterlimit:10;stroke-width:4px"/>
        <path data-name="Path 25294" d="M77.38 24.651s15.235 13.742 33.953-.77l48.784 83.9S90.762 153.536 23.8 103.754z" transform="translate(814.398 20126.299)" style="stroke:#003a85;fill:none;stroke-miterlimit:10;stroke-width:4px"/>
        <circle data-name="Ellipse 215" cx="16.826" cy="16.826" r="16.826" transform="translate(890.975 20098.875)" style="stroke:#003a85;fill:none;stroke-miterlimit:10;stroke-width:4px"/>
        <path data-name="Path 25295" d="M110.847 84.252c0 22.39-12 35.792-20.961 35.792s0-13.4 0-35.792-8.955-35.792 0-35.792 20.961 13.409 20.961 35.792z" transform="translate(1157.359 20262.02)" style="stroke:#8e2a48;fill:none;stroke-miterlimit:10;stroke-width:4px"/>
        <path data-name="Path 25296" d="M83.835 49.958c8.955 0 13.585 18.776 13.585 26.022 0 18.359-5.694 31.377-14.655 31.377" transform="translate(1140.018 20270.291)" style="stroke:#8e2a48;fill:none;stroke-miterlimit:10;stroke-width:4px"/>
        <path data-name="Path 25297" d="M81.6 50.842c7.161 0 10.859 15.007 10.859 20.8 0 14.674-4.552 25.083-11.713 25.083" transform="translate(1128.852 20275.172)" style="stroke:#8e2a48;fill:none;stroke-miterlimit:10;stroke-width:4px"/>
        <path data-name="Path 25298" d="M79.373 51.463c7.161 0 10.859 12.359 10.859 17.126 0 12.079-4.552 20.642-11.713 20.642" transform="translate(1116.57 20278.602)" style="stroke:#8e2a48;fill:none;stroke-miterlimit:10;stroke-width:4px"/>
    </g>
</svg>
