<svg xmlns="http://www.w3.org/2000/svg" width="566.303" height="527.434" viewBox="0 0 566.303 527.434">
    <g data-name="SURGICAL ONCOLOGY" transform="translate(-138.946 -20780.822)">
        <path data-name="Path 25299" d="m54.048 174.26 16.517-61.131s5.842-28.871 39.2-38.913 52.967-8.164 50.456-38.793h67.784s-6.276 25.864 21.339 32.14 40.278 10.042 40.278 10.042 22.155 6.454 32.527 42.679c10.565 36.879 14.017 53.976 14.017 53.976z" transform="translate(366.637 20930.055)" style="fill:#d6f0fc"/>
        <path data-name="Path 25300" d="m54.048 174.26 16.517-61.131s5.842-28.871 39.2-38.913 52.967-8.164 50.456-38.793h67.784s-6.276 25.864 21.339 32.14 40.278 10.042 40.278 10.042 22.155 6.454 32.527 42.679c10.565 36.879 14.017 53.976 14.017 53.976z" transform="translate(366.637 20930.055)" style="stroke:#003a85;fill:none;stroke-miterlimit:10;stroke-width:4px"/>
        <path data-name="Path 25301" d="M170.489 83.756s-3.813 56.827-5.058 57.261-16.617 25.6-37.8 26.894-42.778-26.46-42.778-26.46l-9.131-58.129-4.613-45.65S69.038 12.8 93.96 12.8h61.1s22.2 4.765 19.938 25.45c-2.218 20.241-4.509 45.5-4.509 45.5" transform="translate(438.633 20834.363)" style="fill:#d6f0fc"/>
        <path data-name="Path 25302" d="M77.23 26.389s-12.552-7.846-7.53 17.26 17.573 21.339 17.573 21.339" transform="translate(427.83 20886.928)" style="stroke:#003a85;fill:none;stroke-miterlimit:10;stroke-width:4px"/>
        <path data-name="Path 25303" d="M96.148 25.881S112.655 19.2 107.634 44.3 90.06 65.641 90.06 65.641" transform="translate(518.977 20886.275)" style="stroke:#003a85;fill:none;stroke-miterlimit:10;stroke-width:4px"/>
        <path data-name="Path 25304" d="M181.979 87s-4.32 61.665-5.732 62.136-18.829 27.773-42.836 29.185-48.485-28.714-48.485-28.714l-10.35-63.075L69.345 37S67 10.008 95.246 10.008h69.249s25.158 5.167 22.595 27.616C184.579 59.591 181.979 87 181.979 87z" transform="translate(431.148 20822.543)" style="stroke:#003a85;fill:none;stroke-miterlimit:10;stroke-width:4px"/>
        <path data-name="Path 25305" d="M71.067 33.377s57.444-16.177 102.722 2.186" transform="translate(438.633 20893.561)" style="stroke:#003a85;fill:none;stroke-miterlimit:10;stroke-width:4px"/>
        <path data-name="Path 25306" d="M110.725 96.467a30.13 30.13 0 1 1-34.19-25.43 30.134 30.134 0 0 1 34.19 25.43" transform="translate(352.822 21079.346)" style="fill:#d7f0fd"/>
        <path data-name="Path 25307" d="M110.725 96.467a30.13 30.13 0 1 1-34.19-25.43 30.134 30.134 0 0 1 34.19 25.43z" transform="translate(352.822 21079.346)" style="stroke:#003a85;fill:none;stroke-miterlimit:10;stroke-width:4px"/>
        <path data-name="Path 25308" d="m4.868 165.04 256.115-68.072-16.124-18.75L8.921 146.834z" transform="translate(158.594 21111.09)" style="stroke:#003a85;fill:none;stroke-miterlimit:10;stroke-width:4px"/>
        <path data-name="Rectangle 1502" transform="rotate(-16.73 72282.96 9809.983)" style="fill:#d7f0fd" d="M0 0h100.886v28.823H0z"/>
        <path data-name="Rectangle 1503" transform="rotate(-16.73 72282.96 9809.983)" style="stroke:#003a85;fill:none;stroke-miterlimit:10;stroke-width:4px" d="M0 0h100.886v28.823H0z"/>
        <path data-name="Path 25309" d="M111.081 119.184a30.126 30.126 0 1 1-30.127-30.126 30.127 30.127 0 0 1 30.126 30.126" transform="translate(353.016 21156.945)" style="fill:#d7f0fd"/>
        <circle data-name="Ellipse 216" cx="30.126" cy="30.126" r="30.126" transform="translate(403.842 21246.004)" style="stroke:#003a85;fill:none;stroke-miterlimit:10;stroke-width:4px"/>
        <path data-name="Path 25310" d="m3.656 79.689 259.515 53.678-15.053 19.624L8.719 97.639z" transform="translate(153.465 21117.313)" style="stroke:#003a85;fill:none;stroke-miterlimit:10;stroke-width:4px"/>
        <path data-name="Rectangle 1504" transform="rotate(-78.432 13131.154 10473.484)" style="fill:#d7f0fd" d="M0 0h28.818v100.886H0z"/>
        <path data-name="Rectangle 1505" transform="rotate(-78.432 13131.154 10473.484)" style="stroke:#003a85;fill:none;stroke-miterlimit:10;stroke-width:4px" d="M0 0h28.818v100.886H0z"/>
        <path data-name="Path 25311" d="M5.062 13.879S31.951 3.209 55.1 3.209h69.594l11.3 16.946h-16.949s-10.67-1.883-23.85 5.021-64.154 10.67-90.133-11.3" transform="translate(159.414 20793.781)" style="fill:#d6f0fc"/>
        <path data-name="Path 25312" d="m26.375 4.611 15.848 26.57h145.453s18.2 2.511 18.2-13.285-16.055-16.057-16.055-16.057z" transform="translate(249.572 20787.986)" style="fill:#d7f0fd"/>
        <path data-name="Path 25313" d="M4.41 13.024S30.19 4.007 53.276 2.355c25.226-1.8 70.76 0 70.76 0l11.3 16.946h-16.948s-10.664-1.883-23.85 5.021S30.389 34.991 4.41 13.024z" transform="translate(156.656 20786.775)" style="stroke:#003a85;fill:none;stroke-miterlimit:10;stroke-width:4px"/>
        <path data-name="Path 25314" d="m27.819 3.272 15.848 26.57H189.12s18.2 2.511 18.2-13.285S191.265.5 191.265.5z" transform="translate(255.682 20782.322)" style="stroke:#003a85;fill:none;stroke-miterlimit:10;stroke-width:4px"/>
        <path data-name="Path 25315" d="M27.81 164.78s-17.16-3.243-11.512-29.394 46.57-79.171 46.57-79.171S82.2 29.777 132.1 39.38s58.37-10.168 58.37-10.168l31.068 72.512s-16 .764-32.009 18.259-17.887 27.909-48.955 34.473-54.6 19.739-62.136 21.622-17.244 6.956-22.741-7.349 10.5-19.953 26.507-27.485 34.049-17.636 34.049-17.636-25.105-20.858-48.406-8.2-17.228 55.021-40.037 49.372" transform="translate(202.117 20903.781)" style="fill:#d6f0fc"/>
        <path data-name="Path 25316" d="M25.81 163.78s-17.161-3.242-11.51-29.394 46.57-79.17 46.57-79.17S80.2 28.777 130.1 38.38s58.37-10.168 58.37-10.168l31.068 72.512s-16 .764-32.009 18.259-17.887 27.909-48.955 34.473-54.6 19.739-62.136 21.622-17.244 6.956-22.741-7.349 10.5-19.953 26.507-27.485 34.049-17.636 34.049-17.636-25.105-20.858-48.406-8.2-17.228 55.021-40.037 49.372z" transform="translate(193.656 20899.551)" style="stroke:#003a85;fill:none;stroke-miterlimit:10;stroke-width:4px"/>
        <path data-name="Path 25317" d="M2.777 153.279s8.865-27.537 23.583-45.4 44.258-53.7 44.258-53.7l20.262 2.055-10.774 13.073s-8.238 7.035-11.292 21.6S36.251 147.2 2.777 153.279" transform="translate(149.748 21009.365)" style="fill:#d6f0fc"/>
        <path data-name="Path 25318" d="m14.108 163.257 30.581 4.665 92.5-112.252s13.515-12.453 1.323-22.5-22.6 2.181-22.6 2.181z" transform="translate(197.68 20903.783)" style="fill:#d7f0fd"/>
        <path data-name="Path 25319" d="M.771 153.924s9.441-25.628 22.841-44.5c14.65-20.618 45-54.609 45-54.609l20.262 2.055L78.1 69.952s-8.238 7.035-11.287 21.6S34.245 147.841.771 153.924z" transform="translate(141.262 21012.094)" style="stroke:#003a85;fill:none;stroke-miterlimit:10;stroke-width:4px"/>
        <path data-name="Path 25320" d="m13.563 162.388 30.581 4.665L136.636 54.8s13.515-12.453 1.323-22.5-22.595 2.181-22.595 2.181z" transform="translate(195.375 20900.107)" style="stroke:#003a85;fill:none;stroke-miterlimit:10;stroke-width:4px"/>
        <path data-name="Path 25321" d="M9.184 4.242S37.354 14 63.715 6.418" transform="translate(176.852 20798.152)" style="stroke:#8e2a48;fill:none;stroke-miterlimit:10;stroke-width:4px"/>
        <path data-name="Path 25322" d="M5.062 102.837S28.2 94.469 37.16 61.968" transform="translate(159.414 21042.348)" style="stroke:#8e2a48;fill:none;stroke-miterlimit:10;stroke-width:4px"/>
        <path data-name="Line 71" transform="translate(170.75 21208.037)" style="stroke:#8e2a48;fill:none;stroke-miterlimit:10;stroke-width:4px" d="m0 0 51.649 13.18"/>
        <path data-name="Line 72" transform="translate(170.75 21248.518)" style="stroke:#8e2a48;fill:none;stroke-miterlimit:10;stroke-width:4px" d="M0 16.355 57.214 0"/>
        <path data-name="Path 25323" d="m74.8 65.037-1.888-28.243S70.559 16.082 85.151 14.67s57.9 0 57.9 0" transform="translate(445.846 20839.607)" style="stroke:#8e2a48;fill:none;stroke-miterlimit:10;stroke-width:4px"/>
        <path data-name="Line 73" transform="translate(597.842 20879.146)" style="stroke:#8e2a48;fill:none;stroke-miterlimit:10;stroke-width:4px" d="M3.295 0 0 25.498"/>
    </g>
</svg>
