<svg xmlns="http://www.w3.org/2000/svg" width="67.4" height="68.842" viewBox="0 0 67.4 68.842">
    <g data-name="ARTHROSCOPY SURGERY">
        <path data-name="Path 24839" d="M7.094.906S15.58 16.1 18.043 17.467s8.486 1.232 8.759 6.3-3.285 1.916-6.022 6.159-7.528 5.611-9.17 0 1.779-4.927-2.053-10.812S0 5.7 0 5.7z" transform="translate(0 -.086)" style="fill:#d7f0fd"/>
        <path data-name="Path 24840" d="M6.17 64.984S10 54.992 9.592 50.476s-1.232-5.064.958-6.159 3.422 1.642 6.57.958 4.784-4.106 6.224-4.653 4.344-.274 4.33 4.38-5.764 4.927-7.132 10.675S15.477 78.4 15.477 78.4 5.76 77.575 3.57 73.2z" transform="translate(-.855 -9.555)" style="fill:#d7f0fd"/>
        <path data-name="Path 24841" d="m29.652 35.635 3.448 2.017-1.725-3.052z" transform="translate(-7.106 -8.161)" style="stroke:#8f2947;fill:none;stroke-miterlimit:10;stroke-width:1.3px"/>
        <path data-name="Path 24842" d="M35.159 25.221a9.693 9.693 0 0 1 1.08 6.706c-.821 3.7-2.516 4.366-.436 5.81s5.227-2.053 3.995-6.259-3.977-8.248-4.638-6.258" transform="translate(-8.341 -5.788)" style="fill:#d7f0fd"/>
        <path data-name="Path 24843" d="M8.037.244s8.2 14.684 10.583 16.006 8.2 1.191 8.467 6.085-3.175 1.852-5.821 5.953-7.276 5.424-8.864 0 1.72-4.762-1.984-10.45S1.18 4.874 1.18 4.874" transform="translate(-.283 .073)" style="stroke:#08297e;fill:none;stroke-miterlimit:10;stroke-width:1.3px"/>
        <path data-name="Path 24844" d="m4.584 70.915 2.6-8.212s3.832-9.991 3.422-14.508-1.232-5.064.958-6.159 3.422 1.642 6.57.958 4.784-4.106 6.224-4.653 4.344-.274 4.33 4.38-5.764 4.926-7.133 10.679-5.064 22.72-5.064 22.72" transform="translate(-1.099 -9.008)" style="stroke:#08297e;fill:none;stroke-miterlimit:10;stroke-width:1.3px"/>
        <path data-name="Path 24845" d="M36.636 25.221a9.693 9.693 0 0 1 1.08 6.706c-.821 3.7-2.516 4.366-.436 5.81s5.227-2.053 3.995-6.259-3.975-8.247-4.639-6.257z" transform="translate(-8.695 -5.788)" style="stroke:#08297e;fill:none;stroke-miterlimit:10;stroke-width:1.3px"/>
        <path data-name="Rectangle 1468" transform="rotate(-35.473 45.26 -50.043)" style="fill:#d7f0fd" d="M0 0h18.757v5.013H0z"/>
        <path data-name="Rectangle 1469" transform="rotate(-35.474 43.311 -48.044)" style="stroke:#08297e;fill:none;stroke-miterlimit:10;stroke-width:1.3px" d="M0 0h15.899v5.611H0z"/>
        <path data-name="Rectangle 1470" transform="matrix(.814 -.58 .58 .814 49.491 7.863)" style="stroke:#08297e;fill:none;stroke-miterlimit:10;stroke-width:1.3px" d="M0 0h4.44v3.332H0z"/>
        <path data-name="Line 27" transform="translate(25.469 18.711)" style="stroke:#08297e;fill:none;stroke-miterlimit:10;stroke-width:1.3px" d="M0 8.4 11.786 0"/>
        <path data-name="Path 24846" d="M82.778 13.023C76.767 5.313 71.4 8.6 71.4 8.6l-.744-1.045s6.852-4.1 13.146 4.737" transform="translate(-16.932 -1.453)" style="stroke:#08297e;fill:none;stroke-miterlimit:10;stroke-width:1.3px"/>
    </g>
</svg>
