<svg xmlns="http://www.w3.org/2000/svg" width="30.371" height="79.413" viewBox="0 0 30.371 79.413">
    <path data-name="Path 24847" d="m11.88 6.987 7.72-3.858c1.342-.67 4.025-1.677 4.193 1.929s.838 4.109 1.677 5.619 0 3.019-5.7 4.7-6.206.168-7.883-2.516-3.019 4.092-5.87 3.22-4.085-.2-4.559-4.226 3.888-.213 4.726-2.538-1.509-4 1.342-3.332c0 0 2.817 1.778 4.361 1.007" transform="translate(-.029 -.233)" style="fill:#d7f0fd"/>
    <path data-name="Path 24848" d="m10.964 5.016 7.716-3.857c1.341-.67 4.02-1.677 4.193 1.93s.838 4.111 1.677 5.618 0 3.019-5.7 4.7-6.206.168-7.883-2.516-3.019 4.092-5.87 3.22-4.085-.2-4.559-4.226 3.888-.213 4.726-2.539S3.752 3.34 6.6 4.011c0 0 2.821 1.777 4.364 1.005z" transform="translate(.149 .149)" style="stroke:#08297e;fill:none;stroke-miterlimit:10;stroke-width:1.3px"/>
    <path data-name="Path 24849" d="m17.156 25.069 8.035-3.137c1.4-.546 4.162-1.3 4 2.3s.459 4.169 1.157 5.748-.276 3.007-6.108 4.156-6.195-.4-7.62-3.224-3.38 3.8-6.139 2.671-4.05-.573-4.154-4.625 3.891.144 4.938-2.1-1.138-4.124 1.64-3.2c0 0 2.644 2.028 4.251 1.4" transform="translate(-.982 -3.921)" style="fill:#d7f0fd"/>
    <path data-name="Path 24850" d="m16.424 23.024 8.035-3.137c1.4-.546 4.162-1.3 4 2.3s.459 4.169 1.157 5.748-.276 3.007-6.108 4.156-6.195-.4-7.62-3.224-3.38 3.8-6.139 2.671-4.05-.573-4.154-4.625 3.891.144 4.938-2.1-1.138-4.124 1.64-3.2c0 .011 2.644 2.038 4.251 1.411z" transform="translate(-.839 -3.525)" style="stroke:#08297e;fill:none;stroke-miterlimit:10;stroke-width:1.3px"/>
    <path data-name="Path 24851" d="m18.382 39.73 8.518-1.384c1.48-.241 4.342-.4 3.428 3.09s-.423 4.172-.073 5.864-.9 2.882-6.842 2.783-5.974-1.687-6.776-4.748-4.1 3.007-6.563 1.326-3.84-1.409-3.093-5.392 3.774.955 5.267-1.015-.248-4.272 2.271-2.783c0 0 2.161 2.537 3.863 2.259" transform="translate(-1.069 -6.936)" style="fill:#d7f0fd"/>
    <path data-name="Path 24852" d="m18.452 37.577 8.514-1.384c1.48-.241 4.342-.4 3.428 3.09s-.423 4.172-.073 5.864-.9 2.882-6.842 2.784-5.974-1.688-6.776-4.749-4.1 3.007-6.563 1.326S6.3 43.1 7.048 39.114s3.774.955 5.267-1.015-.248-4.271 2.273-2.782c.001 0 2.161 2.537 3.864 2.26z" transform="translate(-1.083 -6.518)" style="stroke:#08297e;fill:none;stroke-miterlimit:10;stroke-width:1.3px"/>
    <path data-name="Path 24853" d="m18.822 54 8.6.6c1.5.1 4.319.6 2.629 3.793s-1.368 3.964-1.414 5.69-1.536 2.6-7.3 1.142-5.428-3.012-5.507-6.176-4.681 1.987-6.692-.214-3.414-2.251-1.774-5.957 3.454 1.795 5.36.219.737-4.215 2.85-2.186c0 0 1.521 2.964 3.242 3.085" transform="translate(-1.044 -9.494)" style="fill:#d7f0fd"/>
    <path data-name="Path 24854" d="m19.036 51.835 8.6.6c1.5.1 4.319.6 2.629 3.793S28.9 60.2 28.854 61.922s-1.536 2.6-7.3 1.142-5.428-3.012-5.507-6.176-4.681 1.987-6.692-.214-3.414-2.251-1.774-5.957 3.454 1.795 5.36.219.737-4.215 2.85-2.186c.003 0 1.524 2.964 3.245 3.085z" transform="translate(-1.086 -9.075)" style="stroke:#08297e;fill:none;stroke-miterlimit:10;stroke-width:1.3px"/>
    <path data-name="Path 24855" d="m16.258 68.842 8.6.6c1.5.1 4.319.6 2.629 3.793s-1.368 3.964-1.414 5.69-1.536 2.6-7.3 1.142-5.423-3.007-5.502-6.167-4.681 1.987-6.692-.214-3.414-2.251-1.774-5.957 3.454 1.795 5.36.219.737-4.215 2.85-2.186c0 0 1.521 2.964 3.242 3.085" transform="translate(-.547 -12.376)" style="fill:#d7f0fd"/>
    <path data-name="Path 24856" d="m16.472 66.681 8.6.6c1.5.1 4.319.6 2.629 3.793s-1.368 3.964-1.414 5.69-1.536 2.6-7.3 1.142-5.428-3.012-5.507-6.176-4.68 1.991-6.687-.21-3.414-2.251-1.774-5.957 3.454 1.795 5.36.219.737-4.215 2.85-2.186c.001.004 1.522 2.964 3.243 3.085z" transform="translate(-.588 -11.957)" style="stroke:#08297e;fill:none;stroke-miterlimit:10;stroke-width:1.3px"/>
    <path data-name="Path 24857" d="m12.382 82.4 7.289 2.312c1.268.4 3.6 1.419 1.476 3.816a7.964 7.964 0 0 0-2.4 4.61c-.4 1.478-1.865 1.92-6.528-.535s-4.05-3.726-3.46-6.469-4.448.738-5.723-1.578S.56 81.9 2.746 79.05s2.6 2.266 4.573 1.3 1.513-3.478 2.912-1.29c0 0 .694 2.871 2.152 3.333" transform="translate(-.052 -14.93)" style="fill:#d7f0fd"/>
    <path data-name="Path 24858" d="m13.017 80.58 7.289 2.312c1.268.4 3.6 1.419 1.476 3.816a7.967 7.967 0 0 0-2.4 4.61c-.4 1.478-1.865 1.92-6.528-.535s-4.05-3.726-3.46-6.469-4.448.738-5.723-1.578-2.474-2.651-.289-5.5 2.6 2.266 4.573 1.3 1.513-3.478 2.912-1.29c-.001.001.692 2.871 2.15 3.334z" transform="translate(-.175 -14.577)" style="stroke:#08297e;fill:none;stroke-miterlimit:10;stroke-width:1.3px"/>
    <path data-name="Path 24859" d="M28.686 77.607a11.893 11.893 0 0 1 1.53-6.1" transform="translate(-5.321 -13.635)" style="stroke:#8f2947;fill:none;stroke-miterlimit:10;stroke-width:1.3px"/>
    <path data-name="Path 24860" d="M31.61 62.286a11.893 11.893 0 0 1 1.53-6.1" transform="translate(-5.889 -10.661)" style="stroke:#8f2947;fill:none;stroke-miterlimit:10;stroke-width:1.3px"/>
    <path data-name="Path 24861" d="M32.571 46.18a11.89 11.89 0 0 1 .182-6.287" transform="translate(-6.011 -7.499)" style="stroke:#8f2947;fill:none;stroke-miterlimit:10;stroke-width:1.3px"/>
    <path data-name="Path 24862" d="M32.013 28.91a11.887 11.887 0 0 1-.638-6.258" transform="translate(-5.812 -4.151)" style="stroke:#8f2947;fill:none;stroke-miterlimit:10;stroke-width:1.3px"/>
    <path data-name="Path 24863" d="M27.165 10.118a11.89 11.89 0 0 1-1.651-6.069" transform="translate(-4.707 -.54)" style="stroke:#8f2947;fill:none;stroke-miterlimit:10;stroke-width:1.3px"/>
    <path data-name="Path 24864" d="M21.573 92.842s-.207-1.62 1.53-4.635" transform="translate(-3.94 -16.878)" style="stroke:#8f2947;fill:none;stroke-miterlimit:10;stroke-width:1.3px"/>
</svg>
