<svg xmlns="http://www.w3.org/2000/svg" width="68.807" height="72.477" viewBox="0 0 68.807 72.477">
    <g data-name="SPORTS INJURY">
        <path data-name="Path 25267" d="M3.126 5.6s35.914 9.357 40.067 10.952 8.853 3.043 11.3 12.871C57.014 39.545 66.817 66.17 66.817 66.17l-19.5 6.784s-10.5-14.305-14.465-23.58C28.606 39.432 3.126 36.6 3.126 36.6L1.9 5.412z" transform="translate(-.208 -.477)" style="fill:#d7f0fd"/>
        <path data-name="Path 25268" d="M18.014 19.866S31.48 25.038 33.775 24.6s6.057-3.719 8.919-.639-1.075 2.963-.567 7.118-1.816 7.568-5.84 4.866-1.481-4.082-7.044-5.8-13.2-3.47-13.2-3.47z" transform="translate(-2.006 -2.316)" style="fill:#fff"/>
        <path data-name="Path 25269" d="M48.969 57.014s-2.861-8.4-5.52-11.055-3.471-2.571-2.658-4.43 3.05-.77 4.692-2.876.868-5.154 1.494-6.267 2.621-2.48 5.081.492S51 39.074 53.182 43.461s8.831 17.156 8.831 17.156-6.624 4.634-10.343 3.007z" transform="translate(-5.117 -3.743)" style="fill:#fff"/>
        <path data-name="Path 25270" d="M44 21.343a8.032 8.032 0 0 1 4.246 3.7c1.438 2.789.715 4.115 2.805 3.932s2.24-4.081-.777-6.106-6.909-3.145-6.274-1.526" transform="translate(-5.555 -2.406)" style="fill:#fff"/>
        <path data-name="Path 25271" d="M18.2 19.1s13.015 5 15.234 4.578 5.855-3.594 8.621-.617-1.04 2.864-.548 6.879-1.755 7.315-5.644 4.7-1.432-3.946-6.81-5.6-12.762-3.354-12.762-3.354z" transform="translate(-2.038 -2.218)" style="stroke:#08297e;fill:none;stroke-miterlimit:10;stroke-width:1.3px"/>
        <path data-name="Path 25272" d="M48.477 55.28s-2.861-8.4-5.52-11.055-3.471-2.571-2.658-4.43 3.05-.77 4.692-2.876.868-5.154 1.494-6.267 2.621-2.48 5.081.492-1.056 6.2 1.122 10.583 8.831 17.156 8.831 17.156-6.619 4.634-10.34 3.007z" transform="translate(-5.054 -3.522)" style="stroke:#08297e;fill:none;stroke-miterlimit:10;stroke-width:1.3px"/>
        <path data-name="Path 25273" d="M44.819 20.66a8.032 8.032 0 0 1 4.246 3.7c1.438 2.789.715 4.115 2.805 3.932s2.24-4.081-.777-6.106-6.909-3.145-6.274-1.526z" transform="translate(-5.659 -2.318)" style="stroke:#8f2947;fill:none;stroke-miterlimit:10;stroke-width:1.3px"/>
        <path data-name="Path 25274" d="m.076.494 1.29.2s37.671 9.813 42.029 11.485 9.286 3.192 11.853 13.5C57.891 36.3 68.174 64.225 68.174 64.225" transform="translate(.024 .148)" style="stroke:#08297e;fill:none;stroke-miterlimit:10;stroke-width:1.3px"/>
        <path data-name="Path 25275" d="M47.91 76.109S36.893 61.1 32.737 51.376c-4.456-10.43-31.182-13.4-31.182-13.4" transform="translate(-.164 -4.619)" style="stroke:#08297e;fill:none;stroke-miterlimit:10;stroke-width:1.3px"/>
        <path data-name="Line 68" transform="translate(48.661 7.644)" style="stroke:#8f2947;fill:none;stroke-miterlimit:10;stroke-width:1.3px" d="M1.522 5.665 0 0"/>
        <path data-name="Line 69" transform="translate(53.526 11.211)" style="stroke:#8f2947;fill:none;stroke-miterlimit:10;stroke-width:1.3px" d="M0 4.196 3.832 0"/>
        <path data-name="Line 70" transform="translate(54.945 18.826)" style="stroke:#8f2947;fill:none;stroke-miterlimit:10;stroke-width:1.3px" d="M0 .689 6.913 0"/>
    </g>
</svg>
