<svg xmlns="http://www.w3.org/2000/svg" width="566.757" height="530.496" viewBox="0 0 566.757 530.496">
    <g data-name="Group 7109" transform="translate(-69.412 -18562.15)">
        <path data-name="Path 25132" d="M185.788 59.089c-22.582-6.994-62.839-9.363-82.718-19.889C73.6 23.6 42.223 27.268 31.766 54.808s20.918 37.636 20.918 37.636c10.456-26.62 51.43-16.524 51.43-16.524s31.692 4.894 37.4 32.435-6.973 55.081-59.264 49.271c0 0-33.431-6.375-39.073-40.393 0 0-46.59-22.953-38.982-63.346s41.83-61.5 90.321-45.9 54.192 17.445 67.5 14.688 21.871-4.587 36.134-4.587 34.222 10.849 42.783 10.472 34.228-12.308 49.438-12.308 38.029 11.931 59.9 6.423S403.511.428 426.329 2.834s61.8 6.073 61.8 55.646-42.783 59.668-42.783 59.668 5.659 30.243-35.224 36.667c0 0-56.825 14.742-58.091-25.037s31.514-46.412 31.514-46.412c39.93-17.44 57.046 12.75 57.046 12.75s31.374-10.1 19.012-43.144-48.485-22.964-48.485-22.964L305.264 60.92s-102.677 3.37-119.476-1.831" transform="translate(83.459 18572.846)" style="fill:#d6f0fc"/>
        <path data-name="Path 25133" d="m71.859 12.771 24.347 161.107s5.411 24.859 0 34.8-18.037 18.893-18.037 26.851S98.613 473.2 98.613 473.2H75.466S32.182 243.486 34.885 215.644s15.329-45.744 18.936-54.693 9.019-20.885 9.019-43.758S42.1 75.427 42.1 64.487s-9.019-36.8 29.759-51.716" transform="translate(221.166 18617.441)" style="fill:#d6f0fc"/>
        <path data-name="Path 25134" d="M78.078 12.668s-22.237 134.881-26.1 161.048-1.938 27.18 9.665 41.27 9.67 27.18 9.67 27.18L51.975 473.672h22.237L114.82 233.1s4.835-26.173-8.7-56.368-20.3-46.3-20.3-63.41 13.046-38.25 16.756-45.971c4.189-8.722 12.249-36.9-24.493-54.688" transform="translate(288.678 18616.99)" style="fill:#d6f0fc"/>
        <path data-name="Path 25135" d="m74.074 12.48 27.271 161.656s6.057 24.945 0 34.922-20.2 18.958-20.2 26.943 22.892 238.479 22.892 238.479H78.112s-48.474-230.5-45.448-258.438 17.17-45.9 21.214-54.882 10.1-20.95 10.1-43.9-23.233-41.908-23.233-52.887-10.1-36.925 33.329-51.893" transform="translate(211.363 18616.166)" style="stroke-width:4px;stroke:#003a85;fill:none;stroke-miterlimit:10"/>
        <path data-name="Path 25136" d="M208.7 66.015c-23.987-7.694-81.162-13.671-102.274-25.247C75.117 23.6 41.788 27.636 30.681 57.933S52.9 99.343 52.9 99.343c11.109-29.29 60.6-18.177 60.6-18.177s33.668 5.384 39.725 35.681-7.409 60.6-62.953 54.2c0 0-41.475-7.01-47.467-44.436 0 0-49.487-25.252-41.41-69.688s44.442-67.669 95.947-50.5 57.568 19.189 71.707 16.158 23.228-5.05 38.379-5.05 36.354 11.937 45.443 11.528 36.36-13.547 52.518-13.547 40.4 13.132 63.631 7.07S425.572-1.886 449.812.758s65.645 6.682 65.645 61.219-45.448 65.645-45.448 65.645 3.031 36.36-40.4 43.429c0 0-66.318 13.127-67.664-30.636s42.417-57.229 42.417-57.229c42.417-19.189 60.594 20.2 60.594 20.2s33.328-11.108 20.2-47.467-51.511-25.257-51.511-25.257L303.366 64.443" transform="translate(70.943 18563.643)" style="stroke-width:4px;stroke:#003a85;fill:none;stroke-miterlimit:10"/>
        <path data-name="Path 25137" d="M80.5 12.376c38.379 17.843 29.963 46.121 25.586 54.876C102.2 75 88.577 96.2 88.577 113.368S95.646 146.7 109.785 177s9.089 56.556 9.089 56.556L76.457 474.931H53.224l20.2-232.287s2.019-13.127-10.1-27.266-14.139-15.151-10.1-41.41S80.5 12.376 80.5 12.376" transform="translate(293.814 18615.709)" style="stroke-width:4px;stroke:#003a85;fill:none;stroke-miterlimit:10"/>
        <path data-name="Path 25138" d="M85.274 56.424c-2.283 10.1-22.651 24.649-42.708 20.116S9.125 55.66 12.662 40.019 35.314 15.37 55.365 19.9s32.079 26.924 29.909 36.524z" transform="translate(121.785 18643.568)" style="stroke-width:4px;stroke:#003a85;fill:none;stroke-miterlimit:10"/>
        <path data-name="Path 25139" d="M71.814 60.331c-3.247-9.832 6.714-32.8 26.232-39.246s39.423.668 44.452 15.889-6.714 32.8-26.232 39.246S74.9 69.678 71.814 60.331z" transform="translate(380.949 18643.463)" style="stroke-width:4px;stroke:#003a85;fill:none;stroke-miterlimit:10"/>
        <path data-name="Path 25140" d="M197.207 103.252a60.6 60.6 0 1 1-60.6-60.6 60.6 60.6 0 0 1 60.6 60.6" transform="translate(401.965 18748.447)" style="fill:#d6f0fc"/>
        <circle data-name="Ellipse 205" cx="64.374" cy="64.374" r="64.374" transform="translate(470.229 18783.357)" style="stroke-width:4px;stroke:#003a85;fill:none;stroke-miterlimit:10"/>
        <path data-name="Path 25141" d="M119.415 74.066s-12.858-4.184-15.717-14.6-3.214-20.056-13.574-22.91S72.26 46.2 79.049 55.313 96.553 67.637 91.2 84.781" transform="translate(403.93 18719.914)" style="stroke:#707070;fill:#fff;stroke-width:4px"/>
        <path data-name="Path 25142" d="M119.415 74.066s-12.858-4.184-15.717-14.6-3.214-20.056-13.574-22.91S72.26 46.2 79.049 55.313 96.553 67.637 91.2 84.781" transform="translate(403.93 18719.914)" style="stroke-width:4px;stroke:#003a85;fill:none;stroke-miterlimit:10"/>
        <path data-name="Path 25143" d="M86.521 64.449s9.821-2.552 8.039-14.7 8.216-15.361 15.356-13.218 12.147 11.253 2.681 19.292c-7.667 6.51-4.108 11.786 1.249 16.433" transform="translate(448.082 18718.908)" style="stroke-width:4px;stroke:#003a85;fill:none;stroke-miterlimit:10"/>
        <path data-name="Path 25144" d="M95.442 62.729s10.182-1.249 16.433-13.4 17.763-8.916 21.074-3.392c3.753 6.251-3.064 14.92-12.324 16.788-15.049 3.037-16.61 11.608-16.61 11.608" transform="translate(487.195 18741.248)" style="stroke-width:4px;stroke:#003a85;fill:none;stroke-miterlimit:10"/>
        <path data-name="Path 25145" d="M109.155 49.933S99 54.935 90.321 51.36c-5.955-2.45-19.943-6.073-21.946 4.647-2.606 13.94 13.014 13.929 24.089 9.643s16.691 2.988 16.691 2.988" transform="translate(367.262 18775.125)" style="stroke:#707070;fill:#fff;stroke-width:4px"/>
        <path data-name="Path 25146" d="M109.155 49.933S99 54.935 90.321 51.36c-5.955-2.45-19.943-6.073-21.946 4.647-2.606 13.94 13.014 13.929 24.089 9.643s16.691 2.988 16.691 2.988" transform="translate(367.262 18775.125)" style="stroke-width:4px;stroke:#003a85;fill:none;stroke-miterlimit:10"/>
        <path data-name="Path 25147" d="M97.411 55.27c.237 1.071-2.444 16.788-15.033 14.645s-16.163 11.431-9.735 17.5 13.9 4.426 20.11-5.713 18.113-2.5 18.113-2.5" transform="translate(373.502 18803.768)" style="stroke:#707070;fill:#fff;stroke-width:4px"/>
        <path data-name="Path 25148" d="M97.411 55.27c.237 1.071-2.444 16.788-15.033 14.645s-16.163 11.431-9.735 17.5 13.9 4.426 20.11-5.713 18.113-2.5 18.113-2.5" transform="translate(373.502 18803.768)" style="stroke-width:4px;stroke:#003a85;fill:none;stroke-miterlimit:10"/>
        <path data-name="Path 25149" d="M88.411 73.5s17.149 7.538 15.006 25.4 11.355 24.536 21.074 18.22c4.943-3.214 9.288-14.241-6.79-26.232s-5.713-31.638-5.713-31.638" transform="translate(456.369 18821.221)" style="fill:#d7f0fd;stroke:#707070;stroke-width:4px"/>
        <path data-name="Path 25150" d="M88.411 73.5s17.149 7.538 15.006 25.4 11.355 24.536 21.074 18.22c4.943-3.214 9.288-14.241-6.79-26.232s-5.713-31.638-5.713-31.638" transform="translate(456.369 18821.221)" style="stroke-width:4px;stroke:#003a85;fill:none;stroke-miterlimit:10"/>
        <path data-name="Path 25151" d="M89.412 60.136S95.6 74.108 84.491 83.7s-6.644 21.042 2.692 22.571c4.749.781 13.434-3.478 10.332-19.55s13.951-22.215 13.951-22.215" transform="translate(410.463 18825.102)" style="fill:#d7f0fd;stroke:#707070;stroke-width:4px"/>
        <path data-name="Path 25152" d="M89.412 60.136S95.6 74.108 84.491 83.7s-6.644 21.042 2.692 22.571c4.749.781 13.434-3.478 10.332-19.55s13.951-22.215 13.951-22.215" transform="translate(410.463 18825.102)" style="stroke-width:4px;stroke:#003a85;fill:none;stroke-miterlimit:10"/>
        <path data-name="Path 25153" d="M96.373 68.844s11.328-2.859 20.719 11.075c6.639 9.848 21.478 8.442 24.434 1.631 6.289-14.494-12.788-20.783-21.359-19.356S102.8 55.27 102.8 55.27" transform="translate(491.275 18803.768)" style="fill:#d7f0fd;stroke:#707070;stroke-width:4px"/>
        <path data-name="Path 25154" d="M96.373 68.844s11.328-2.859 20.719 11.075c6.639 9.848 21.478 8.442 24.434 1.631 6.289-14.494-12.788-20.783-21.359-19.356S102.8 55.27 102.8 55.27" transform="translate(491.275 18803.768)" style="stroke-width:4px;stroke:#003a85;fill:none;stroke-miterlimit:10"/>
        <path data-name="Path 25155" d="M94.6 52.69a12.683 12.683 0 1 1-12.68-12.68A12.681 12.681 0 0 1 94.6 52.69z" transform="translate(372.305 18736.863)" style="stroke-width:4px;stroke:#003a85;fill:none;stroke-miterlimit:10"/>
        <circle data-name="Ellipse 206" cx="8.722" cy="8.722" r="8.722" transform="translate(511.918 18742.582)" style="stroke-width:4px;stroke:#003a85;fill:none;stroke-miterlimit:10"/>
        <circle data-name="Ellipse 207" cx="9.105" cy="9.105" r="9.105" transform="translate(438.148 18912.105)" style="stroke-width:4px;stroke:#003a85;fill:none;stroke-miterlimit:10"/>
        <path data-name="Path 25156" d="M87.771 64.076a13.7 13.7 0 1 1 7.952 9.961" transform="translate(452.477 18770.898)" style="stroke:#8e2a48;stroke-width:4px;fill:none;stroke-miterlimit:10"/>
        <path data-name="Path 25157" d="M96.291 72.468a10.533 10.533 0 0 1-1.734.894 10.255 10.255 0 1 1 6.429-9.2" transform="translate(421.531 18796.373)" style="stroke:#8e2a48;stroke-width:4px;fill:none;stroke-miterlimit:10"/>
        <path data-name="Path 25158" d="M35.472 152.763c16.363 16.68 46.913 14.268 63.593-2.1s11.582-50.488-4.781-67.168-41.556-6.929-58.236 9.433a42.314 42.314 0 0 0-.576 59.835" transform="translate(171.199 18889.512)" style="fill:#d6f0fc"/>
        <path data-name="Path 25159" d="M34.9 151.055a44.945 44.945 0 1 0 .614-63.561 44.95 44.95 0 0 0-.614 63.561z" transform="translate(165.396 18888.672)" style="stroke-width:4px;stroke:#003a85;fill:none;stroke-miterlimit:10"/>
        <path data-name="Path 25160" d="M30.747 106.871s4.367-8.373.7-14.957-8.206-11.571-4.437-18.059 13.618-3.926 14.69 3.935-2.7 14.699 8.35 20.627" transform="translate(180.963 18869.096)" style="stroke:#707070;fill:#fff;stroke-width:4px"/>
        <path data-name="Path 25161" d="M30.747 106.871s4.367-8.373.7-14.957-8.206-11.571-4.437-18.059 13.618-3.926 14.69 3.935-2.7 14.699 8.35 20.627" transform="translate(180.963 18869.096)" style="stroke-width:4px;stroke:#003a85;fill:none;stroke-miterlimit:10"/>
        <path data-name="Path 25162" d="M45.979 83.036s-6.143 3.532-11.194-3.4-11.6-3.64-14.117.921-.549 11.549 8.1 10.925c7-.5 7.813 3.871 7.409 8.8" transform="translate(154.932 18893.135)" style="stroke-width:4px;stroke:#003a85;fill:none;stroke-miterlimit:10"/>
        <path data-name="Path 25163" d="M44.007 83.3s-5.686 4.356-14.737 1.357S16.058 88.9 17.1 93.268c1.19 4.948 8.825 5.939 14.354 2.342 8.986-5.847 13.956-2.337 13.956-2.337" transform="translate(143.043 18926.641)" style="stroke-width:4px;stroke:#003a85;fill:none;stroke-miterlimit:10"/>
        <path data-name="Path 25164" d="M33.718 90.348s7.506-2.471 10.085-8.5c1.771-4.135 6.973-12.777 13.208-8.416 8.119 5.675.328 13.31-7.29 16.583s-6.86 9.649-6.86 9.649" transform="translate(216.582 18878.162)" style="fill:#d7f0fd;stroke:#707070;stroke-width:4px"/>
        <path data-name="Path 25165" d="M33.718 90.348s7.506-2.471 10.085-8.5c1.771-4.135 6.973-12.777 13.208-8.416 8.119 5.675.328 13.31-7.29 16.583s-6.86 9.649-6.86 9.649" transform="translate(216.582 18878.162)" style="stroke-width:4px;stroke:#003a85;fill:none;stroke-miterlimit:10"/>
        <path data-name="Path 25166" d="M37.312 81.189c.4.652 9.428 7.172 14.656-.048s13.644-2.208 13.407 3.959-4.765 9-12.82 6.983-10.246 7.608-10.246 7.608" transform="translate(232.338 18901.568)" style="fill:#d7f0fd;stroke:#707070;stroke-width:4px"/>
        <path data-name="Path 25167" d="M37.312 81.189c.4.652 9.428 7.172 14.656-.048s13.644-2.208 13.407 3.959-4.765 9-12.82 6.983-10.246 7.608-10.246 7.608" transform="translate(232.338 18901.568)" style="stroke-width:4px;stroke:#003a85;fill:none;stroke-miterlimit:10"/>
        <path data-name="Path 25168" d="M51.458 88.258S46.6 100.4 56.4 108.25s3.064 18.7-4.674 18.7c-4.119 0-13.9-1.868-11.748-15.706S30.9 95.236 30.9 95.236" transform="translate(204.209 18948.395)" style="fill:#d7f0fd;stroke:#707070;stroke-width:4px"/>
        <path data-name="Path 25169" d="M51.458 88.258S46.6 100.4 56.4 108.25s3.064 18.7-4.674 18.7c-4.119 0-13.9-1.868-11.748-15.706S30.9 95.236 30.9 95.236" transform="translate(204.209 18948.395)" style="stroke-width:4px;stroke:#003a85;fill:none;stroke-miterlimit:10"/>
        <path data-name="Path 25170" d="M44.222 83.3s3.742 9.993 13.972 9.342 15.318 7.6 12.265 13.455c-1.96 3.758-10.968 9.325-17.278-.2s-17.816-4.254-17.816-4.254" transform="translate(223.803 18926.67)" style="fill:#d7f0fd;stroke:#707070;stroke-width:4px"/>
        <path data-name="Path 25171" d="M44.222 83.3s3.742 9.993 13.972 9.342 15.318 7.6 12.265 13.455c-1.96 3.758-10.968 9.325-17.278-.2s-17.816-4.254-17.816-4.254" transform="translate(223.803 18926.67)" style="stroke-width:4px;stroke:#003a85;fill:none;stroke-miterlimit:10"/>
        <path data-name="Path 25172" d="M50.457 93.094s-12.163 6.666-8.782 20.024c1.879 7.436-.829 19.609-13.644 13.482-7.247-3.462-3.57-14.715 1.308-18.323 9.046-6.682 7.543-20.019 7.543-20.019" transform="translate(173.783 18948.398)" style="fill:#d7f0fd;stroke:#707070;stroke-width:4px"/>
        <path data-name="Path 25173" d="M50.457 93.094s-12.163 6.666-8.782 20.024c1.879 7.436-.829 19.609-13.644 13.482-7.247-3.462-3.57-14.715 1.308-18.323 9.046-6.682 7.543-20.019 7.543-20.019" transform="translate(173.783 18948.398)" style="stroke-width:4px;stroke:#003a85;fill:none;stroke-miterlimit:10"/>
        <path data-name="Path 25174" d="M33.437 83.708a8.854 8.854 0 1 0 .118-12.518 8.853 8.853 0 0 0-.118 12.518z" transform="translate(204.242 18862.457)" style="stroke-width:4px;stroke:#003a85;fill:none;stroke-miterlimit:10"/>
        <path data-name="Path 25175" d="M23.538 82.014a6.09 6.09 0 1 0 .081-8.615 6.09 6.09 0 0 0-.081 8.615z" transform="translate(164.311 18875.619)" style="stroke-width:4px;stroke:#003a85;fill:none;stroke-miterlimit:10"/>
        <path data-name="Path 25176" d="M21.762 100.362a6.355 6.355 0 1 0 .086-8.986 6.353 6.353 0 0 0-.086 8.986z" transform="translate(156.189 18954.08)" style="stroke-width:4px;stroke:#003a85;fill:none;stroke-miterlimit:10"/>
        <path data-name="Path 25177" d="M43 85.8a9.714 9.714 0 0 0-1.147-1.416 9.57 9.57 0 1 0 2.051 10.268" transform="translate(180.328 18918.855)" style="stroke:#8e2a48;stroke-width:4px;fill:none;stroke-miterlimit:10"/>
        <path data-name="Path 25178" d="M42.722 98.226a9.111 9.111 0 0 0 1.626-.5 8.978 8.978 0 1 0-9.654-1.809" transform="translate(208.715 18914.133)" style="stroke:#8e2a48;stroke-width:4px;fill:none;stroke-miterlimit:10"/>
    </g>
</svg>
