<svg xmlns="http://www.w3.org/2000/svg" width="566.994" height="539.85" viewBox="0 0 566.994 539.85">
    <g data-name="Group 7111" transform="translate(-51.007 -19310.725)">
        <path data-name="Path 25229" d="M215.772 116.447c-8.034 75.227-29.176 119.215-91 119.215S32.04 177.414 32.04 111.428 60.142 1.989 121.964 1.989s102.309 34.831 93.808 114.458" transform="translate(212.385 19319.771)" style="fill:#d6f0fc"/>
        <path data-name="Path 25230" d="M123.587 35.007c0 19.115-19.448 32.155-43.436 32.155S37.395 52.247 37.395 37.489 55.017 29.273 79 29.273s44.583-9.017 44.583 5.734" transform="translate(239.523 19444.223)" style="stroke-width:4px;fill:#d7f0fd;stroke:#707070"/>
        <path data-name="Path 25231" d="M123.587 35.007c0 19.115-19.448 32.155-43.436 32.155S37.395 52.247 37.395 37.489 55.017 29.273 79 29.273s44.587-9.018 44.587 5.734z" transform="translate(239.523 19444.223)" style="stroke:#003a85;fill:none;stroke-miterlimit:10;stroke-width:4px"/>
        <path data-name="Path 25232" d="M219.878 119.381c-8.344 78.134-30.3 123.827-94.518 123.827S29.04 182.7 29.04 114.169 58.228.5 122.441.5s106.266 36.172 97.437 118.881z" transform="translate(197.18 19312.225)" style="stroke:#003a85;fill:none;stroke-miterlimit:10;stroke-width:4px"/>
        <path data-name="Path 25233" d="M54.691 80.13C41.159 84.117 34.1 71.125 28.646 52.617S25.521 13.768 42.73 20.025" transform="translate(181.93 19405.324)" style="stroke:#003a85;fill:none;stroke-miterlimit:10;stroke-width:4px"/>
        <path data-name="Path 25234" d="M58.924 80.13c13.532 3.987 20.589-9.005 26.045-27.513s3.125-38.848-14.084-32.592" transform="translate(348.637 19405.324)" style="stroke:#003a85;fill:none;stroke-miterlimit:10;stroke-width:4px"/>
        <path data-name="Path 25235" d="M30.754 26.446s14.09 21.36 30.656 0S89.706 4.3 103.784 7.428s33.63.425 44.583-1.353S173.392 10.341 182 21.009s10.164 16.062 22.683 14.934" transform="translate(205.867 19338.926)" style="stroke:#003a85;fill:none;stroke-miterlimit:10;stroke-width:4px"/>
        <path data-name="Path 25236" d="M107.668 52.335c0 11.754-15.413 21.281-34.419 21.281s-34.424-9.527-34.424-21.281S54.238 31.054 73.25 31.054s34.418 9.527 34.418 21.281z" transform="translate(246.771 19467.078)" style="stroke:#8e2a48;fill:none;stroke-miterlimit:10;stroke-width:4px"/>
        <ellipse data-name="Ellipse 214" cx="23.441" cy="14.491" rx="23.441" ry="14.491" transform="translate(296.574 19498.854)" style="stroke:#8e2a48;fill:none;stroke-miterlimit:10;stroke-width:4px"/>
        <path data-name="Rectangle 1498" transform="translate(306.016 19494.221)" style="stroke:#8e2a48;fill:none;stroke-miterlimit:10;stroke-width:4px" d="M0 0h28.005v14.606H0z"/>
        <path data-name="Path 25216" d="M180.454 165.3c-8.4-15.862 0-50.627 0-50.627s-18.49-12.13-29.685-37.319 10.261-31.38 10.261-31.38 37.319 44.443 57.842 64.972 25.189 53.175 32.817 74.189 23.156 26.565 23.156 26.565l-56.713 65.506L63.381 149.5s-42.544-33.332-46.215-37S-3.478 98.506 5.23 84.513c8.247-13.259 24.564 0 24.564 0l64.219 30.165" transform="translate(64.066 19542.693)" style="fill:#d6f0fc"/>
        <path data-name="Path 25217" d="M213.281 209.979s-20.856-16.791-41.215-16.791S17.571 91.5 17.571 91.5-4.736 77.736 8.778 64.222c0 0 16.251-12.9 38.327 5.134" transform="translate(72.455 19612.525)" style="fill:#d6f0fc"/>
        <path data-name="Path 25218" d="M177.79 175.323V124.7L76.58 53.389S55.432 35.755 43.3 48.814s15 29.249 15 29.249l46.264 34.024-69.97-51.453S16.76 44.566 5.309 60.288C-4.9 74.318 27.13 94.531 27.13 94.531" transform="translate(66.73 19532.676)" style="fill:#d6f0fc"/>
        <path data-name="Path 25219" d="M151.672 210.928s-15.528-5.558-23.156-26.566-12.294-53.667-32.823-74.189S37.851 45.2 37.851 45.2 16.394 51.4 27.59 76.585 57.282 113.9 57.282 113.9s-3.568 31.718 4.83 47.581" transform="translate(173.434 19538.771)" style="stroke:#003a85;fill:none;stroke-miterlimit:10;stroke-width:4px"/>
        <path data-name="Path 25220" d="M211.006 208.384s-20.856-16.791-41.215-16.791S15.3 89.9 15.3 89.9-7.011 76.141 6.5 62.627c0 0 9.83-11.287 31.912 6.748" transform="translate(60.924 19609.418)" style="stroke:#003a85;fill:none;stroke-miterlimit:10;stroke-width:4px"/>
        <path data-name="Path 25221" d="M74.479 90.679 27.524 56.473s-16.323-13.259-24.57 0C-5.754 70.466 11.225 80.788 14.9 84.459s46.209 37.01 46.209 37.01" transform="translate(52.531 19566.037)" style="stroke:#003a85;fill:none;stroke-miterlimit:10;stroke-width:4px"/>
        <path data-name="Path 25222" d="M102.291 103.468 32.319 52.016S14.485 35.948 3.034 51.67C-7.173 65.7 24.855 85.913 24.855 85.913" transform="translate(55.201 19536.598)" style="stroke:#003a85;fill:none;stroke-miterlimit:10;stroke-width:4px"/>
        <path data-name="Path 25223" d="M144.714 123.92 43.5 52.613s-21.144-17.634-33.275-4.569 15 29.249 15 29.249" transform="translate(86.002 19528.756)" style="stroke:#003a85;fill:none;stroke-miterlimit:10;stroke-width:4px"/>
        <path data-name="Path 25224" d="m37.436 226.3-.941-14.9s-9.928-9.345-14.94-29.6-7.761-73.983-7.761-73.983.479-12.179 15.535-10.631c0 0-4.381-20.146 10.516-21.081 0 0 8.556-2.555 9.812 17.312 0 0-5.091-31.463 8.562-32.319 11.481-.717 10.747 22.293 10.747 22.293s-2.118-8.981 9.667-9.721c9.315-.583 10.031 10.85 10.031 10.85l3.119 67.69s3.119-3.052 4.466-11.548c1.329-8.5 11.542-14.691 19.649-14.606s4.802 7.144 4.802 7.144-11.475 5.813-10.716 17.865-14.484 27.348-23.178 37.864-5.3 34.607-5.3 34.607z" transform="translate(119.91 19619.285)" style="fill:#d6f0fc"/>
        <path data-name="Line 58" transform="translate(141.664 19727.268)" style="fill:#d6f0fc" d="M0 41.051V0"/>
        <path data-name="Line 59" transform="translate(162.5 19718.342)" style="fill:#d6f0fc" d="M0 41.051V0"/>
        <path data-name="Line 60" transform="translate(182.402 19714.611)" style="fill:#d6f0fc" d="M0 41.051V0"/>
        <path data-name="Path 25225" d="M29.534 225.423v-14.928s-9.327-9.952-13.059-30.474-3.113-74.321-3.113-74.321 1.244-12.13 16.172-9.642c0 0-3.107-20.383 11.815-20.383 0 0 8.708-2.009 8.708 17.9 0 0-3.107-31.718 10.577-31.718 11.505 0 9.327 22.919 9.327 22.919s-1.553-9.1 10.261-9.1c9.333 0 9.333 11.457 9.333 11.457l-1.141 67.757s3.319-2.852 5.182-11.25 12.44-13.939 20.523-13.344 4.357 7.434 4.357 7.434-11.821 5.085-11.821 17.161-16.166 26.378-25.5 36.33-7.464 34.206-7.464 34.206z" transform="translate(117.527 19623.152)" style="stroke:#8e2a48;fill:none;stroke-miterlimit:10;stroke-width:4px"/>
        <path data-name="Line 61" transform="translate(146.75 19719.207)" style="stroke:#8e2a48;fill:none;stroke-miterlimit:10;stroke-width:4px" d="M0 41.051V0"/>
        <path data-name="Line 62" transform="translate(167.586 19710.283)" style="stroke:#8e2a48;fill:none;stroke-miterlimit:10;stroke-width:4px" d="M0 41.051V0"/>
        <path data-name="Line 63" transform="translate(187.488 19706.551)" style="stroke:#8e2a48;fill:none;stroke-miterlimit:10;stroke-width:4px" d="M0 41.051V0"/>
        <path data-name="Path 25226" d="M157.085 84.146a44.926 44.926 0 1 1-44.929-44.929 44.93 44.93 0 0 1 44.929 44.929" transform="translate(390.754 19508.449)" style="fill:#d6f0fc"/>
        <path data-name="Path 25227" d="M129.243 54.617h84.463l65.6 49.419s19.764 17.67 3.592 32.647-39.534-8.963-39.534-8.963l-34.109-25.48v29.649s44.886 23.666 44.886 65.3-48.521 64.8-62 60.852-8.083-21.02 1.8-31.8 20.668-24.06 20.668-24.06-13.477-28.854-30.547-30.25c0 0-15.28 12.179-26.063 0 0 0-42.228 17.052-21.56 40.626s21.864 27.465 21.56 32.853a9.9 9.9 0 0 1-4.49 7.792s-9.284 7.482-19.77-1.2S93.3 220.848 90.9 205.872s-1.8-30.662 15.274-49.328 23.666-23.751 23.666-23.751V106.73l-45.823 32.35s-14.679 5.692-24.261-3.9-3.3-23.957 6.59-31.148 62.9-49.419 62.9-49.419" transform="translate(328.744 19586.498)" style="fill:#d6f0fc"/>
        <circle data-name="Ellipse 213" cx="46.494" cy="46.494" r="46.494" transform="translate(441.463 19539.01)" style="stroke:#003a85;fill:none;stroke-miterlimit:10;stroke-width:4px"/>
        <path data-name="Path 25228" d="M128.684 53.728H216.1l67.878 51.142s20.462 18.289 3.72 33.788-40.912-9.272-40.912-9.272l-35.3-26.372V133.7s46.458 24.485 46.458 67.569-50.214 67.059-64.165 62.982-8.368-21.754 1.857-32.914 21.39-24.9 21.39-24.9-13.951-29.861-31.615-31.306c0 0-15.808 12.6-26.967 0 0 0-43.709 17.646-22.319 42.04s22.628 28.423 22.319 34a10.235 10.235 0 0 1-4.648 8.059s-9.612 7.749-20.462-1.238-41.848-32.231-44.324-47.73-1.863-31.737 15.808-51.051 24.482-24.582 24.482-24.582v-26.967L81.88 141.14s-15.189 5.886-25.11-4.029-3.41-24.8 6.821-32.24 65.093-51.143 65.093-51.143z" transform="translate(312.779 19581.992)" style="stroke:#003a85;fill:none;stroke-miterlimit:10;stroke-width:4px"/>
    </g>
</svg>
