<svg id="Group_4926" data-name="Group 4926" xmlns="http://www.w3.org/2000/svg" width="41.926" height="43.851" viewBox="0 0 41.926 43.851">
  <g id="Group_2412" data-name="Group 2412">
    <path id="Path_2975" data-name="Path 2975" d="M-107.937,196.973a9.979,9.979,0,0,0-4.948,1.34l-.007.005a9.878,9.878,0,0,0-4.93,9.113s0,.006,0,.008q.013.185.032.369c.012.123.028.246.046.368s.039.244.061.365.048.242.075.362.058.24.09.359.067.238.1.355.074.225.114.337c.046-.014.034-.005.046-.031a.618.618,0,0,0,.028-.2c0-.249.008-.5.027-.746s.044-.5.079-.743.077-.492.129-.736.111-.487.179-.727.144-.478.228-.714.176-.469.277-.7.209-.455.325-.678.24-.441.372-.656.272-.424.419-.629c.113-.158.234-.311.357-.463a3.044,3.044,0,0,1,1.523-2.751,3.047,3.047,0,0,1,1.134-.384,3.078,3.078,0,0,1,1.222.091,10.933,10.933,0,0,1,7.663-.678q.382.107.754.241t.738.3q.363.163.712.354a2.827,2.827,0,0,0,.394.2c.095.029.043.038.066.014,0,0,0-.008-.029-.058a3.554,3.554,0,0,0-.464-.513,9.651,9.651,0,0,0-1.029-.88,9.768,9.768,0,0,0-1.145-.731,9.685,9.685,0,0,0-1.238-.566,9.427,9.427,0,0,0-1.308-.384,9.085,9.085,0,0,0-1.355-.187h-.007c-.245-.018-.49-.027-.736-.027Zm-3.8,3.869h0a1.972,1.972,0,0,0-.715.12c-.041.015-.081.03-.121.048-.014.005-.028.014-.042.018-.052.024-.1.05-.154.079s-.1.062-.148.095l-.058.043c-.026.018-.051.039-.075.06s-.047.038-.068.058l-.031.031a1.942,1.942,0,0,0-.6,1.642q0,.012,0,.024a1.87,1.87,0,0,0,.233.68,1.928,1.928,0,0,0,2.652.673,1.925,1.925,0,0,0,.743-2.632,1.874,1.874,0,0,0-.932-.806.551.551,0,0,1-.057-.015,1.947,1.947,0,0,0-.629-.117Zm-9.354,1.313h0a3.554,3.554,0,0,0-.676.144,9.626,9.626,0,0,0-1.277.451,9.77,9.77,0,0,0-1.206.626,9.687,9.687,0,0,0-1.109.789,9.42,9.42,0,0,0-.986.941,9.063,9.063,0,0,0-.84,1.078l-.005.005a9.923,9.923,0,0,0-1.7,5.576s0,.006,0,.008a9.879,9.879,0,0,0,5.431,8.824l.007,0c.111.055.223.107.336.157s.227.1.342.144.23.089.347.13.234.079.352.115.237.07.356.1.239.061.359.087.232.049.349.07c.014-.048.014-.031,0-.055a.622.622,0,0,0-.158-.124q-.323-.187-.632-.4t-.6-.439q-.295-.23-.574-.48t-.54-.518c-.174-.179-.343-.365-.505-.555s-.317-.387-.466-.589-.291-.409-.425-.62-.262-.428-.381-.649-.232-.447-.336-.677c-.08-.178-.152-.359-.222-.542a3.042,3.042,0,0,1-1.611-2.457c0-.015,0-.03,0-.045,0-.063-.007-.126-.007-.19h0v-.01a3.049,3.049,0,0,1,.924-2.177,10.92,10.92,0,0,1,3.239-6.965l0,0v0q.283-.277.586-.532t.628-.489q.323-.233.662-.44a2.8,2.8,0,0,0,.37-.24c.071-.067.054-.021.044-.051a.178.178,0,0,0-.064-.005Zm22.958,1.96q-.171,0-.342.005a9.563,9.563,0,0,0-5.11,1.61l-.005.005q-.154.1-.3.212t-.3.224c-.1.077-.192.155-.285.235s-.186.162-.276.246-.179.17-.266.258-.173.177-.256.268-.158.176-.235.266c.036.036.02.027.05.024a.632.632,0,0,0,.187-.075q.323-.186.66-.349t.683-.3q.346-.14.7-.257t.719-.209q.363-.092.733-.159c.246-.045.494-.082.743-.11s.5-.047.75-.057.5-.014.754-.005.5.021.754.047c.194.018.387.048.58.079a3.04,3.04,0,0,1,2.01-.442,3.05,3.05,0,0,1,.931.278l.03.015c.058.029.115.059.172.091s.087.052.128.079a3.047,3.047,0,0,1,1.3,1.815A10.924,10.924,0,0,1-89.2,214.2q.1.383.167.772c.046.262.083.525.11.789s.043.528.05.793a2.744,2.744,0,0,0,.024.441c.022.1-.012.057.022.064,0,0,.008-.005.036-.054a3.549,3.549,0,0,0,.212-.657,9.645,9.645,0,0,0,.248-1.331,9.751,9.751,0,0,0,.061-1.356,9.733,9.733,0,0,0-.13-1.355,9.416,9.416,0,0,0-.322-1.324,9.055,9.055,0,0,0-.514-1.266l0-.005a9.931,9.931,0,0,0-3.979-4.264l-.007-.005a9.73,9.73,0,0,0-4.908-1.325Zm1.58,2.554a1.914,1.914,0,0,0-1.192.386l-.03.021a1.88,1.88,0,0,0-.461.535,1.925,1.925,0,0,0,.743,2.631,1.927,1.927,0,0,0,2.651-.672,1.872,1.872,0,0,0,.23-1.217q-.007-.025-.012-.05a1.971,1.971,0,0,0-.683-1.17l-.06-.047c-.027-.021-.054-.041-.082-.06s-.078-.052-.119-.077a.106.106,0,0,0-.018-.01l-.029-.015c-.04-.021-.081-.043-.122-.062s-.053-.024-.08-.035-.045-.018-.067-.026a1.991,1.991,0,0,0-.667-.128Zm-27.952,4.442a1.873,1.873,0,0,0-1.172.412l-.034.032a1.967,1.967,0,0,0-.669,1.162c-.008.046-.015.092-.021.139a.1.1,0,0,0,0,.032c-.005.06-.008.12-.008.181s0,.119.008.178c0,.021,0,.044.007.066a1,1,0,0,0,.015.1c.005.029.01.058.017.087a.372.372,0,0,0,.012.043,1.943,1.943,0,0,0,1.124,1.336l.021.01a1.877,1.877,0,0,0,.706.139,1.926,1.926,0,0,0,1.909-1.959,1.926,1.926,0,0,0-1.908-1.959Zm27.063,5.278h0c-.014.048-.014.031,0,.055a.62.62,0,0,0,.158.124q.323.187.632.4c.206.14.408.287.6.44s.388.313.574.479.366.34.54.519.343.364.5.555.317.387.465.588.29.409.425.621.262.428.382.649.232.447.336.677c.08.177.152.358.222.541a3.043,3.043,0,0,1,1.612,2.462.151.151,0,0,1,0,.038c0,.063.007.127.007.191v0h0a3.046,3.046,0,0,1-.924,2.187,10.922,10.922,0,0,1-3.242,6.969v0q-.283.277-.586.531t-.628.489q-.323.233-.662.44a2.833,2.833,0,0,0-.371.241c-.073.068-.055.018-.044.052a.183.183,0,0,0,.065.005,3.568,3.568,0,0,0,.676-.145,9.652,9.652,0,0,0,1.277-.45,9.786,9.786,0,0,0,1.206-.626,9.689,9.689,0,0,0,1.109-.789,9.408,9.408,0,0,0,.986-.94,9.076,9.076,0,0,0,.84-1.079l0-.005a9.925,9.925,0,0,0,1.7-5.576s0-.006,0-.008A9.88,9.88,0,0,0-95,217.2l-.007,0q-.166-.082-.336-.158t-.342-.144c-.115-.046-.23-.088-.347-.129s-.234-.08-.352-.116-.237-.07-.357-.1-.24-.061-.36-.087-.231-.049-.348-.071Zm-32.174,4.35s0,.005-.015,0-.008.005-.037.053a3.559,3.559,0,0,0-.212.657,9.646,9.646,0,0,0-.248,1.331,9.769,9.769,0,0,0-.061,1.357,9.73,9.73,0,0,0,.13,1.354,9.428,9.428,0,0,0,.322,1.325,9.056,9.056,0,0,0,.515,1.266l0,.005a9.93,9.93,0,0,0,3.979,4.264l.007.005a9.89,9.89,0,0,0,10.361-.289l.005-.005q.154-.1.3-.212t.3-.223c.1-.077.192-.155.285-.235s.186-.164.276-.247.179-.17.266-.257.172-.176.256-.267.158-.176.235-.266c-.034-.034-.02-.028-.049-.024a.628.628,0,0,0-.187.074c-.216.124-.436.241-.66.35s-.452.21-.683.3-.465.179-.7.256-.477.147-.719.208-.487.115-.733.16-.494.081-.743.109-.5.047-.75.058-.5.014-.754.005-.5-.024-.754-.048c-.194-.018-.387-.047-.58-.078a3.045,3.045,0,0,1-2.939.164l-.036-.015c-.052-.026-.1-.053-.155-.082l-.015-.008a3.048,3.048,0,0,1-1.434-1.895,10.922,10.922,0,0,1-4.417-6.29v0q-.1-.384-.168-.773t-.11-.788c-.027-.264-.043-.528-.05-.793a2.631,2.631,0,0,0-.023-.441.146.146,0,0,1-.007-.065Zm35.664,2.03a1.926,1.926,0,0,0-1.908,1.959,1.926,1.926,0,0,0,1.908,1.959,1.874,1.874,0,0,0,1.174-.413l.033-.031a1.97,1.97,0,0,0,.669-1.165c.007-.042.014-.085.019-.128,0-.015,0-.034,0-.05,0-.056.008-.113.008-.172s0-.117-.008-.174c0-.024,0-.049-.008-.074s-.008-.064-.014-.1l-.015-.085c0-.015-.007-.031-.012-.047a1.942,1.942,0,0,0-1.123-1.335l-.022-.01a1.874,1.874,0,0,0-.7-.138Zm-28.033,4.516h0a1.9,1.9,0,0,0-1.629.944,1.873,1.873,0,0,0-.231,1.215.531.531,0,0,1,.012.052,1.97,1.97,0,0,0,.673,1.161c.034.029.068.057.105.083l.035.024c.048.033.1.066.149.1s.106.057.16.082l.056.024.1.039c.027.01.053.021.08.029l.046.014a1.944,1.944,0,0,0,1.718-.306l.018-.014a1.873,1.873,0,0,0,.473-.542,1.926,1.926,0,0,0-.743-2.632,2.011,2.011,0,0,0-.74-.253,1.994,1.994,0,0,0-.283-.018Zm20.824.561c-.046.014-.033.005-.046.032a.626.626,0,0,0-.029.2c0,.249-.008.5-.027.745s-.044.5-.079.742-.077.493-.129.737-.111.487-.179.727-.144.479-.229.714-.176.468-.276.7-.209.456-.325.678-.24.441-.372.655-.272.425-.419.629c-.114.158-.235.311-.357.462a3.042,3.042,0,0,1-1.175,2.516v0q-.073.056-.15.109l-.033.024c-.049.032-.1.064-.149.094a.1.1,0,0,0-.014.008,3.052,3.052,0,0,1-2.358.293,10.933,10.933,0,0,1-7.654.68h-.007q-.382-.107-.754-.242t-.738-.3q-.363-.163-.712-.353a2.823,2.823,0,0,0-.394-.2c-.095-.029-.043-.038-.067-.014,0,0,0,.01.029.058a3.567,3.567,0,0,0,.464.512,9.644,9.644,0,0,0,1.029.881,9.77,9.77,0,0,0,1.145.731,9.673,9.673,0,0,0,1.239.565,9.421,9.421,0,0,0,1.308.384,9.086,9.086,0,0,0,1.354.188h.008a9.935,9.935,0,0,0,5.684-1.312l.007-.005a9.879,9.879,0,0,0,4.93-9.113s0,0,0-.005c-.008-.124-.019-.247-.032-.37s-.028-.245-.046-.367-.039-.244-.062-.366-.048-.242-.075-.363-.058-.24-.09-.36-.067-.237-.1-.355-.074-.226-.114-.337Zm-5.408,5.268a1.9,1.9,0,0,0-.283.018,2.018,2.018,0,0,0-.741.254,1.925,1.925,0,0,0-.743,2.631,1.874,1.874,0,0,0,.94.808l.048.015a1.974,1.974,0,0,0,1.352-.005c.031-.01.061-.024.092-.036l.071-.032c.045-.021.09-.044.134-.069l.015-.008a.068.068,0,0,1,.018-.01c.044-.026.086-.053.127-.081l.063-.046.07-.056c.025-.021.05-.041.073-.062.007-.005.014-.014.02-.018a1.943,1.943,0,0,0,.606-1.65q0-.013,0-.026a1.87,1.87,0,0,0-.233-.678,1.893,1.893,0,0,0-1.629-.944Z" transform="translate(130.196 -196.973)" fill="#717780"/>
  </g>
  <path id="Path_2976" data-name="Path 2976" d="M503.838,292.982l-.68.427-.4-.7a3.864,3.864,0,0,0-5.041-1.645,4.1,4.1,0,0,0-1.683,5.678l3.971,6.84a.888.888,0,0,0,1.247.308l6.678-4.205a4.1,4.1,0,0,0,1.139-5.813A3.864,3.864,0,0,0,503.838,292.982Z" transform="translate(-481.689 -275.432)" fill="#881543"/>
</svg>
