<svg xmlns="http://www.w3.org/2000/svg" width="41.971" height="34.203" viewBox="0 0 41.971 34.203">
  <g id="Group_4927" data-name="Group 4927" transform="translate(0 0)">
    <path id="Path_2997" data-name="Path 2997" d="M59.259,38.2h-8.23a.519.519,0,0,0,.514-.518V31a3.891,3.891,0,0,0-2.686-3.719l-6.282-2.369a2.876,2.876,0,0,1-1.992-2.741V20.994a13.206,13.206,0,0,0,2.4-7.939.47.47,0,0,0-.013-.107l.621-3.2a3.035,3.035,0,0,0-2.98-3.615.14.14,0,0,1-.112-.056l-.393-.536c-.055-.076-.115-.15-.176-.221a10.044,10.044,0,0,1,4.4-1.308c.16-.011.32-.016.475-.016a4.167,4.167,0,0,1,3.541,1.544l.393.536a.14.14,0,0,0,.112.056,3.035,3.035,0,0,1,2.98,3.615l-.621,3.2a.47.47,0,0,1,.013.107,13.21,13.21,0,0,1-2.4,7.939v1.182a2.86,2.86,0,0,0,.859,2.055.5.5,0,0,1,.09.084,2.871,2.871,0,0,0,1.044.6l6.282,2.369A3.891,3.891,0,0,1,59.778,31v6.681A.519.519,0,0,1,59.259,38.2Z" transform="translate(-17.807 -4)" fill="#881543"/>
    <g id="Group_4856" data-name="Group 4856" transform="translate(0 0)">
      <g id="Group_4844" data-name="Group 4844">
        <g id="Group_4833" data-name="Group 4833" transform="translate(8.056)">
          <g id="Group_4830" data-name="Group 4830" transform="translate(0.504 4.811)">
            <g id="Group_4829" data-name="Group 4829">
              <path id="Path_2985" data-name="Path 2985" d="M27.747,24.9c-3.707,0-6.724-4.653-6.724-10.372a.519.519,0,0,1,.518-.518h0A1.242,1.242,0,0,0,22.78,12.9l.01-.091a2.543,2.543,0,0,1,1.965-2.189,13.058,13.058,0,0,1,5.949.008,2.54,2.54,0,0,1,1.938,2.063l.044.269a1.239,1.239,0,0,0,1.228,1.046.557.557,0,0,1,.561.518C34.476,20.246,31.457,24.9,27.747,24.9Zm-5.681-9.914c.146,4.936,2.639,8.877,5.681,8.877s5.538-3.94,5.686-8.873a2.266,2.266,0,0,1-1.769-1.86l-.044-.269a1.507,1.507,0,0,0-1.153-1.22,12.023,12.023,0,0,0-5.481-.006,1.5,1.5,0,0,0-1.165,1.294l-.01.091A2.279,2.279,0,0,1,22.065,14.985Z" transform="translate(-21.022 -10.283)" fill="#717780"/>
            </g>
          </g>
          <g id="Group_4832" data-name="Group 4832">
            <g id="Group_4831" data-name="Group 4831">
              <path id="Path_2986" data-name="Path 2986" d="M21.072,10.572a.518.518,0,0,1-.506-.409l-.46-2.137a.456.456,0,0,1-.009-.053,5.658,5.658,0,0,1,1.2-4.445c1.848-2.182,5.173-2.475,5.82-2.512a4.384,4.384,0,0,1,4.015,1.528l.394.536a.137.137,0,0,0,.111.057,3.035,3.035,0,0,1,2.98,3.615l-.661,3.4a.518.518,0,0,1-1.017-.2l.661-3.4a2,2,0,0,0-1.963-2.381,1.178,1.178,0,0,1-.947-.48l-.394-.536A3.539,3.539,0,0,0,27.18,2.05c-.579.033-3.519.289-5.094,2.148a4.655,4.655,0,0,0-.962,3.637l.454,2.111a.519.519,0,0,1-.507.627Z" transform="translate(-20.05 -0.999)" fill="#717780"/>
            </g>
          </g>
        </g>
        <g id="Group_4835" data-name="Group 4835" transform="translate(0 16.315)">
          <g id="Group_4834" data-name="Group 4834">
            <path id="Path_2987" data-name="Path 2987" d="M34.556,50.37H5.023a.518.518,0,0,1-.518-.518v-6.68a3.91,3.91,0,0,1,2.708-3.727l6.236-2.352a2.884,2.884,0,0,0,2.015-2.75V33A.518.518,0,0,1,16.5,33v1.342a3.909,3.909,0,0,1-2.709,3.727L7.556,40.422a2.885,2.885,0,0,0-2.015,2.75v6.162h28.5V43.172a2.875,2.875,0,0,0-1.992-2.742l-6.282-2.368a3.9,3.9,0,0,1-2.686-3.719V33a.518.518,0,0,1,1.036,0v1.342a2.875,2.875,0,0,0,1.992,2.742l6.282,2.368a3.9,3.9,0,0,1,2.686,3.719v6.68A.518.518,0,0,1,34.556,50.37Z" transform="translate(-4.505 -32.482)" fill="#717780"/>
          </g>
        </g>
        <g id="Group_4837" data-name="Group 4837" transform="translate(10.312 19.929)">
          <g id="Group_4836" data-name="Group 4836">
            <path id="Path_2988" data-name="Path 2988" d="M29.456,42.2a7.37,7.37,0,0,1-4.876-1.832.518.518,0,1,1,.684-.778,6.372,6.372,0,0,0,8.387,0,.518.518,0,0,1,.695.769l0,0A7.4,7.4,0,0,1,29.456,42.2Z" transform="translate(-24.404 -39.456)" fill="#717780"/>
          </g>
        </g>
        <g id="Group_4839" data-name="Group 4839" transform="translate(10.022 20.128)">
          <g id="Group_4838" data-name="Group 4838">
            <path id="Path_2989" data-name="Path 2989" d="M29.187,51.842a.518.518,0,0,1-.474-.309L23.889,40.568a.518.518,0,1,1,.948-.418l4.348,9.884,4.322-9.883a.518.518,0,0,1,.949.415l-4.8,10.965a.518.518,0,0,1-.474.31h0Z" transform="translate(-23.845 -39.84)" fill="#717780"/>
          </g>
        </g>
        <g id="Group_4841" data-name="Group 4841" transform="translate(17.815 20.128)">
          <g id="Group_4840" data-name="Group 4840">
            <path id="Path_2990" data-name="Path 2990" d="M42.456,46.3a.517.517,0,0,1-.183-.033l-3.056-1.155a.518.518,0,0,1,.366-.97l2.154.814-1.017-4.487a.518.518,0,0,1,1.011-.229l1.229,5.427a.518.518,0,0,1-.506.633Z" transform="translate(-38.882 -39.841)" fill="#717780"/>
          </g>
        </g>
        <g id="Group_4843" data-name="Group 4843" transform="translate(8.793 20.128)">
          <g id="Group_4842" data-name="Group 4842">
            <path id="Path_2991" data-name="Path 2991" d="M21.991,46.3a.518.518,0,0,1-.506-.633l1.229-5.427a.518.518,0,0,1,1.011.229L22.71,44.957l2.194-.836a.518.518,0,1,1,.368.969l-3.1,1.18A.516.516,0,0,1,21.991,46.3Z" transform="translate(-21.473 -39.84)" fill="#717780"/>
          </g>
        </g>
      </g>
      <g id="Group_4855" data-name="Group 4855" transform="translate(2.989 22.319)">
        <g id="Group_4846" data-name="Group 4846" transform="translate(0 4.103)">
          <g id="Group_4845" data-name="Group 4845">
            <path id="Path_2992" data-name="Path 2992" d="M14.444,57.209a.518.518,0,0,1,0-1.036.493.493,0,0,0,.429-.735L13.7,53.359a.685.685,0,0,0-1.156,0l-1.171,2.078a.493.493,0,0,0,.43.735.518.518,0,0,1,0,1.036,1.529,1.529,0,0,1-1.332-2.28l1.171-2.078a1.7,1.7,0,0,1,2.962,0l1.171,2.078a1.529,1.529,0,0,1-1.332,2.28Z" transform="translate(-10.273 -51.985)" fill="#717780"/>
          </g>
        </g>
        <g id="Group_4848" data-name="Group 4848" transform="translate(2.333 0)">
          <g id="Group_4847" data-name="Group 4847">
            <path id="Path_2993" data-name="Path 2993" d="M15.293,49.21a.518.518,0,0,1-.518-.518V44.586a.518.518,0,1,1,1.036,0v4.106A.518.518,0,0,1,15.293,49.21Z" transform="translate(-14.774 -44.068)" fill="#717780"/>
          </g>
        </g>
        <g id="Group_4850" data-name="Group 4850" transform="translate(19.367 4.52)">
          <g id="Group_4849" data-name="Group 4849" transform="translate(0)">
            <path id="Path_2994" data-name="Path 2994" d="M50.256,58.014A2.612,2.612,0,1,1,52.868,55.4,2.615,2.615,0,0,1,50.256,58.014Zm0-4.187A1.575,1.575,0,1,0,51.832,55.4,1.577,1.577,0,0,0,50.256,53.827Z" transform="translate(-47.645 -52.791)" fill="#717780"/>
          </g>
        </g>
        <g id="Group_4852" data-name="Group 4852" transform="translate(21.46 6.619)">
          <g id="Group_4851" data-name="Group 4851" transform="translate(0)">
            <path id="Path_2995" data-name="Path 2995" d="M52.2,57.872a.52.52,0,0,1-.368-.886.537.537,0,0,1,.736,0,.521.521,0,0,1-.368.886Z" transform="translate(-51.685 -56.84)" fill="#717780"/>
          </g>
        </g>
        <g id="Group_4854" data-name="Group 4854" transform="translate(21.46)">
          <g id="Group_4853" data-name="Group 4853" transform="translate(0)">
            <path id="Path_2996" data-name="Path 2996" d="M52.2,49.625a.518.518,0,0,1-.518-.518v-4.52a.518.518,0,1,1,1.036,0v4.52A.518.518,0,0,1,52.2,49.625Z" transform="translate(-51.685 -44.068)" fill="#717780"/>
          </g>
        </g>
      </g>
    </g>
    <g id="Group_4858" data-name="Group 4858" transform="translate(34.39 22.319)">
      <g id="Group_4850-2" data-name="Group 4850" transform="translate(0 4.52)">
        <g id="Group_4849-2" data-name="Group 4849">
          <path id="Path_2994-2" data-name="Path 2994" d="M50.256,58.014A2.612,2.612,0,1,1,52.868,55.4,2.615,2.615,0,0,1,50.256,58.014Zm0-4.187A1.575,1.575,0,1,0,51.832,55.4,1.577,1.577,0,0,0,50.256,53.827Z" transform="translate(-47.645 -52.791)" fill="#fff"/>
        </g>
      </g>
      <g id="Group_4852-2" data-name="Group 4852" transform="translate(2.094 6.619)">
        <g id="Group_4851-2" data-name="Group 4851" transform="translate(0)">
          <path id="Path_2995-2" data-name="Path 2995" d="M52.2,57.872a.52.52,0,0,1-.368-.886.537.537,0,0,1,.736,0,.521.521,0,0,1-.368.886Z" transform="translate(-51.685 -56.84)" fill="#fff"/>
        </g>
      </g>
      <g id="Group_4854-2" data-name="Group 4854" transform="translate(2.094)">
        <g id="Group_4853-2" data-name="Group 4853" transform="translate(0)">
          <path id="Path_2996-2" data-name="Path 2996" d="M52.2,49.625a.518.518,0,0,1-.518-.518v-4.52a.518.518,0,1,1,1.036,0v4.52A.518.518,0,0,1,52.2,49.625Z" transform="translate(-51.685 -44.068)" fill="#fff"/>
        </g>
      </g>
    </g>
  </g>
</svg>
