<svg xmlns="http://www.w3.org/2000/svg" width="41.359" height="39.486" viewBox="0 0 41.359 39.486">
  <g id="Group_4928" data-name="Group 4928" transform="translate(-0.529 -0.793)">
    <path id="Path_3019" data-name="Path 3019" d="M4.113.793a.94.94,0,0,0-.937.944v37.6a.94.94,0,0,0,.937.937h20.68a.94.94,0,0,0,.944-.937V1.737a.94.94,0,0,0-.944-.944Zm.944,1.881h18.8V38.4H5.056Z" transform="translate(6.756 0)" fill="#717780"/>
    <path id="Path_3020" data-name="Path 3020" d="M9.26,6.086V7.967h8.466V24.885H9.26v1.881h9.4a.94.94,0,0,0,.937-.937V7.023a.94.94,0,0,0-.937-.937Z" transform="translate(22.289 13.513)" fill="#717780"/>
    <path id="Path_3021" data-name="Path 3021" d="M1.376,6.087a.94.94,0,0,0-.847.937V25.83a.94.94,0,0,0,.937.937h9.4V24.886H2.41V7.967h8.459V6.087h-9.4q-.045,0-.09,0Z" transform="translate(0 13.512)" fill="#717780"/>
    <path id="Path_3022" data-name="Path 3022" d="M5.705,9a.94.94,0,0,0-.944.937V18.4H6.642V10.877h7.522V18.4h1.881V9.933A.94.94,0,0,0,15.108,9Z" transform="translate(10.805 20.943)" fill="#717780"/>
    <path id="Path_3023" data-name="Path 3023" d="M10.2,1.852a.94.94,0,0,0-.937.944V5.613H6.435a.94.94,0,0,0-.937.944V8.311a.94.94,0,0,0,.937.944H9.259v2.817a.94.94,0,0,0,.937.944h1.761a.94.94,0,0,0,.944-.944V9.255h2.817a.94.94,0,0,0,.937-.944V6.557a.94.94,0,0,0-.937-.944H12.9V2.8a.94.94,0,0,0-.944-.944Z" transform="translate(10.069 3.703)" fill="#881543"/>
  </g>
</svg>
