<svg xmlns="http://www.w3.org/2000/svg" width="260" height="180" viewBox="0 0 260 180">
    <g data-name="Group 7067">
        <path style="fill:#f7fbff" d="M0 0h260v180H0z"/>
        <g data-name="Group 7068">
            <path data-name="Path 25365" d="m54.048 98.446 7.5-27.749S64.2 57.591 79.34 53.032s24.043-3.706 22.9-17.609h30.769s-2.849 11.74 9.687 14.589 18.284 4.558 18.284 4.558 10.057 2.93 14.765 19.373c4.8 16.74 6.363 24.5 6.363 24.5z" transform="translate(11.952 52.916)" style="fill:#fff"/>
            <path data-name="Path 25366" d="m54.048 98.446 7.5-27.749S64.2 57.591 79.34 53.032s24.043-3.706 22.9-17.609h30.769s-2.849 11.74 9.687 14.589 18.284 4.558 18.284 4.558 10.057 2.93 14.765 19.373c4.8 16.74 6.363 24.5 6.363 24.5z" transform="translate(11.952 52.916)" style="stroke:#e3e3e3;fill:none;stroke-miterlimit:10;stroke-width:2px"/>
            <path data-name="Path 25367" d="M116.2 45.01s-1.731 25.8-2.3 25.993-7.543 11.619-17.158 12.208S77.325 71.2 77.325 71.2L73.18 44.813l-2.094-20.722S70.146 12.8 81.459 12.8h27.735s10.078 2.163 9.05 11.553c-1.006 9.19-2.044 20.657-2.044 20.657" transform="translate(35.339 21.832)" style="fill:#fff"/>
            <path data-name="Path 25368" d="M72.47 25.755s-5.7-3.561-3.419 7.835 7.977 9.687 7.977 9.687" transform="translate(31.83 38.907)" style="stroke:#e3e3e3;fill:none;stroke-miterlimit:10;stroke-width:2px"/>
            <path data-name="Path 25369" d="M92.824 25.44s7.493-3.034 5.214 8.362-7.977 9.687-7.977 9.687" transform="translate(61.438 38.695)" style="stroke:#e3e3e3;fill:none;stroke-miterlimit:10;stroke-width:2px"/>
            <path data-name="Path 25370" d="M120.447 44.958s-1.961 27.992-2.6 28.205S109.3 85.77 98.4 86.411 76.392 73.377 76.392 73.377l-4.7-28.633-2.373-22.485s-1.063-12.251 11.757-12.251h31.434s11.42 2.346 10.256 12.536c-1.139 9.971-2.319 22.414-2.319 22.414z" transform="translate(32.908 17.992)" style="stroke:#e3e3e3;fill:none;stroke-miterlimit:10;stroke-width:2px"/>
            <path data-name="Path 25371" d="M71.067 29.783s26.076-7.341 46.629.992" transform="translate(35.339 41.061)" style="stroke:#e3e3e3;fill:none;stroke-miterlimit:10;stroke-width:2px"/>
            <path data-name="Path 25372" d="m73.693 37.19-.857-12.82s-1.068-9.4 5.556-10.043 26.282 0 26.282 0" transform="translate(37.682 23.535)" style="stroke:#881543;fill:none;stroke-miterlimit:10;stroke-width:2px"/>
            <path data-name="Line 84" transform="translate(146.417 49.151)" style="stroke:#881543;fill:none;stroke-miterlimit:10;stroke-width:2px" d="M1.496 0 0 11.574"/>
        </g>
    </g>
</svg>
