<svg xmlns="http://www.w3.org/2000/svg" width="51.211" height="66.935" viewBox="0 0 51.211 66.935">
    <g data-name="DEEP VEIN THROMBOSIS">
        <path data-name="Path 25067" d="M19.493 0s1.935 17.827 1.673 25.722.994 21.072 5.386 25.2 8.1 7.32 12.287 9.2c4.235 1.883 6.693 2.091 8.261 2.091s1.935 3.974-2.091 3.974-9.15 1.674-11.765 0-7.424-2.248-12.025-1.307-8.679 2.823-10.98-.941.361-7.739 1.045-12.963c.68-5.281-2.98-20.13-4.549-23.9S-2.049 6.85.565.052h18.928z" style="fill:#d7f0fd"/>
        <path data-name="Path 25068" d="M22.858.841s1.89 19.385 1.648 26.7.97 19.531 5.331 23.359 8.046 6.785 12.213 8.53a20.311 20.311 0 0 0 8.191 1.939c1.55 0 1.939 3.683-2.085 3.683s-9.062 1.551-11.68 0-7.366-2.084-11.971-1.211-8.626 2.616-10.9-.872.34-7.173 1.066-12.019c.679-4.895-2.956-18.658-4.555-22.148S1.389 7.19 4.005.89" transform="translate(-.783 -.191)" style="stroke:#0a2b7c;fill:none;stroke-miterlimit:10;stroke-width:1.3px"/>
        <path data-name="Path 25069" d="M19.577 14.424s-1.314 14.926 1.194 21.494 6.09 15.525 2.388 21.5" transform="translate(-4.384 -3.287)" style="stroke:#8e2a48;fill:none;stroke-miterlimit:10;stroke-width:1.3px"/>
        <path data-name="Path 25070" d="M18.335 33.185c-3.472-2.961-5.384-14.075-6.079-16.715" transform="translate(-2.794 -3.754)" style="stroke:#8e2a48;fill:none;stroke-miterlimit:10;stroke-width:1.3px"/>
        <path data-name="Path 25071" d="M19.233 17.826s2.29 6.418 3.687 10.867c1.758 5.6-.764 11.684-.764 11.684a17.518 17.518 0 0 0-.769 6.281" transform="translate(-4.384 -4.063)" style="stroke:#8e2a48;fill:none;stroke-miterlimit:10;stroke-width:1.3px"/>
        <path data-name="Path 25072" d="M32.6 70.378s-5.728.294-6.309-6.414" transform="translate(-5.992 -14.581)" style="stroke:#8e2a48;fill:none;stroke-miterlimit:10;stroke-width:1.3px"/>
    </g>
</svg>
