<svg xmlns="http://www.w3.org/2000/svg" width="67.202" height="76.866" viewBox="0 0 67.202 76.866">
    <path data-name="Path 25026" d="M68.167 29.805C57.4 32.411 53.939 40.9 53.571 54.945c-.485 18.466-22.365 27.221-28.477 12.741s6.112-27.78 7.276-33.623-.582-6.864-3.493-2.119-9.947 22.4-12.839 26.9c-3.6 5.6-6.985 1.58-6.985 1.58s-6.563-8.775 4.2-31.744 8.639-24.524 8.639-24.524C49.324-5.475 66.08 1.058 68.167 29.805z" transform="translate(-1.116)" style="fill:#d7f0fd"/>
    <path data-name="Path 25027" d="M17.778 8.183S19.91 9.711 9.155 32.3A71.836 71.836 0 0 0 4.3 45.318c-.939 3.676-2.083 6.538-2.505 9.074C1.579 55.671.521 54.166.5 56.156c-.05 4.922 4.2 8.071 4.2 8.071s6.45 2.959 9.113-2.526c.866-1.785-.364-1.568.091-2.463 3.245-6.376 8.3-19.63 10.852-23.722 2.907-4.667 4.651-3.663 3.488 2.084s-13.372 18.827-7.268 33.07 30.617 5.523 31.1-12.64c.368-13.818 4.069-24.086 14.824-26.648" transform="translate(.15 -1.575)" style="fill:none;stroke:#08297e;stroke-miterlimit:10;stroke-width:1.3px"/>
    <path data-name="Path 25028" d="M50.109 65.166c1.487 5.916-1.017 11.644-5.594 12.795s-9.492-2.714-10.978-8.63 1.017-11.644 5.594-12.795 9.491 2.714 10.978 8.63z" transform="translate(-6.13 -10.85)" style="fill:none;stroke:#08297e;stroke-miterlimit:10;stroke-width:1.3px"/>
    <path data-name="Path 25029" d="M61.205 8.183S49 12.924 50.547 22.032s9.168 30.756 3.234 38.705" transform="translate(-9.462 -1.575)" style="fill:none;stroke:#08297e;stroke-miterlimit:10;stroke-width:1.3px"/>
    <path data-name="Path 25030" d="M50.567 56.969a10 10 0 0 0-8.579-7.17c-7.009-.775-9.556 5.683-7.12 8.848" transform="translate(-6.295 -9.579)" style="fill:none;stroke:#08297e;stroke-miterlimit:10;stroke-width:1.3px"/>
    <path data-name="Path 25031" d="M31.114 61.477S28.38 70.6 33.46 76.435c3.632 4.171 7.727 4.219 9.326 3.929 4.8-.873 4.646 1.124 2.964 3.225S38.768 88.27 33.3 85.18c-9.12-5.155-7-15.926-6.6-17.945.506-2.551 3.574-8.477 4.414-5.758z" transform="translate(-4.801 -11.705)" style="fill:none;stroke:#08297e;stroke-miterlimit:10;stroke-width:1.3px"/>
    <path data-name="Path 25032" d="M48.983 20c-1.545 1.637-3.252 3.565-3.123 5.974.136 2.537 2.009 4.439 3.906 5.9a11.751 11.751 0 0 1 2.832 2.48 6.1 6.1 0 0 1 .782 3.584c-.023 1.2-.031 2.681-.824 3.67-.652.812-2.044 1.189-2.673.149a4.93 4.93 0 0 1-.092-3.788 33.594 33.594 0 0 0 1.243-3.777 20.767 20.767 0 0 0-.282-7.644 7.043 7.043 0 0 0-1.177-2.99 5.952 5.952 0 0 0-2.348-1.692 7.16 7.16 0 0 1-2.45-1.46 2.55 2.55 0 0 1-.107-3.033c1.025-1.767 4.278-3.037 5.564-.838a2.057 2.057 0 0 1-.183 2.525 5.34 5.34 0 0 0-1.091.993 3.487 3.487 0 0 0-.374 1.733c-.07 2.756 1.3 5.228 2.3 7.709.911 2.262 1.638 5.038.288 7.29-1.012 1.69-3.431 2.865-2.681 5.2a4.653 4.653 0 0 0 4.719 2.9 2.991 2.991 0 0 0 2.257-1.155 2.9 2.9 0 0 0-.075-3.092A11.6 11.6 0 0 0 52.773 38c-1.017-.875-2.055-1.729-3.042-2.637a7.229 7.229 0 0 1-2.131-2.881 5.457 5.457 0 0 1 .272-3.752c.951-2.391 2.919-4.171 4.127-6.416a6.626 6.626 0 0 0 .5-5.913 4.517 4.517 0 0 0-1.946-1.952c-.765-.44-1.889-.855-2.17-1.784a1.327 1.327 0 0 1 2.086-1.412c.405.316.981-.252.571-.571a2.125 2.125 0 0 0-3.225 2.689 5.493 5.493 0 0 0 2.272 1.741 3.723 3.723 0 0 1 1.947 2.356c.619 2.383-.678 4.59-2.031 6.443-1.511 2.07-3.272 4.181-3.424 6.861-.148 2.605 1.686 4.4 3.51 5.971 1.083.933 2.173 1.856 3.248 2.8.919.8 2.173 2.043 1.651 3.4a2.327 2.327 0 0 1-2.544 1.126 4 4 0 0 1-2.869-1.705A2.366 2.366 0 0 1 50 39.339a11.591 11.591 0 0 0 2.1-2.573c2.567-5.385-3.208-10.119-2.678-15.453a1.753 1.753 0 0 1 .3-.954 3.576 3.576 0 0 1 .631-.518 2.522 2.522 0 0 0 .844-1.073 3.1 3.1 0 0 0-.269-2.646c-1.173-2.006-3.931-1.848-5.62-.627-1.654 1.2-2.641 3.65-1.185 5.384 1.35 1.608 3.863 1.607 5.009 3.452a8.887 8.887 0 0 1 1.006 3.448 24.1 24.1 0 0 1 .312 4.3 12.1 12.1 0 0 1-.812 3.978 10.3 10.3 0 0 0-.964 3.93 3.38 3.38 0 0 0 1.231 2.918 2.494 2.494 0 0 0 2.748-.3 4.26 4.26 0 0 0 1.425-3.01 12.9 12.9 0 0 0-.012-3.6 5.348 5.348 0 0 0-1.7-3.128c-.954-.878-2.076-1.554-3.053-2.408a7.8 7.8 0 0 1-2.4-3.269 4.625 4.625 0 0 1 .386-3.788 14.249 14.249 0 0 1 2.249-2.847c.357-.378-.213-.95-.571-.571" transform="translate(-8.115 -1.959)" style="fill:#8e2a48"/>
    <path data-name="Path 25033" d="M59.139 5.9s-13.961 4.646-11.054 17.047S53.3 47.169 53.21 48.526" transform="translate(-8.938 -1.136)" style="fill:none;stroke:#08297e;stroke-miterlimit:10;stroke-width:1.3px"/>
</svg>
