<svg xmlns="http://www.w3.org/2000/svg" width="512.104" height="477.437" viewBox="0 0 512.104 477.437">
    <g data-name="Group 7078">
        <path data-name="Path 24910" d="M1.612 406.417s57.335 50.327 117.411 50.916c78.963.774 88.836-50.45 131.073-50.45 35.611 0 70.464 50.461 120.853 50.366 39.456-.073 84.014-15.473 125.388-50.826l2.657-369.017c-65.806 38.06-138.226 20.07-162.288.611-53.1-42.949-104.7-46.279-160.382-.056C105.192 97.005 1.539 46.067 1.539 46.067z" transform="translate(6.571 20.096)" style="fill:#d7f0fd"/>
        <path data-name="Path 24911" d="M1.675 47.844C41.367 68.7 78.609 64.8 78.609 64.8s43.706 3.229 93.943-32.578c59.364-42.31 109.579-42.31 163.819.056 24.578 19.184 48.129 32.381 79.636 32.381 0 0 53.825 0 87.535-31.5" transform="translate(7.196 1.5)" style="stroke:#0b2c7b;fill:none;stroke-miterlimit:10;stroke-width:4px"/>
        <path data-name="Path 24912" d="M100.073 313.784S30.3 260.715 30.3 161.463 84.51 11.946 84.51 11.946s-41.783 97.548-37.747 150.919c1.962 25.974 1.671 64.583 53.309 150.919" transform="translate(139.04 54.223)" style="fill:#fff"/>
        <path data-name="Path 24913" d="M50.686 313.784s69.775-53.068 69.775-152.32S66.249 11.946 66.249 11.946 108.032 109.494 104 162.865c-1.962 25.974-1.671 64.583-53.309 150.919" transform="translate(232.952 54.223)" style="fill:#fff"/>
        <path data-name="Path 24914" d="M.323 73.984s58.562 49.643 119.928 50.22c80.651.762 90.736-49.761 133.882-49.761 36.379 0 71.978 49.772 123.443 49.676 40.3-.073 85.814-15.26 128.079-50.131" transform="translate(.97 339.982)" style="stroke:#0b2c7b;fill:none;stroke-miterlimit:10;stroke-width:4px"/>
        <path data-name="Path 24915" d="M84.505 11.945S30.3 62.2 30.3 161.462s69.769 152.32 69.769 152.32" transform="translate(139.044 54.218)" style="stroke:#0b2c7b;fill:none;stroke-miterlimit:10;stroke-width:4px"/>
        <path data-name="Path 24916" d="M66.25 11.945s54.206 50.26 54.206 149.517-69.769 152.32-69.769 152.32" transform="translate(232.956 54.218)" style="stroke:#0b2c7b;fill:none;stroke-miterlimit:10;stroke-width:4px"/>
        <path data-name="Path 24917" d="M75.31 17.1c-19.251 7.7-15.086 39.8-15.086 39.8-18.472 12.254-20.956 39.8-20.956 39.8h72.471s-2.478-27.549-20.95-39.8c0 0 4.165-32.1-15.086-39.8" transform="translate(180.359 77.94)" style="fill:#fff"/>
        <path data-name="Path 24918" d="M78.174 17.1c19.252 7.7 16.835 39.8 16.835 39.8 23.372 5.062 26.3 58.865 26.3 58.865L83.247 96.7H73.1l-34.332 24.855S36.755 69.328 62.7 56.9c0 0-3.873-33.027 15.474-39.8z" transform="translate(177.886 77.94)" style="stroke:#0b2c7b;fill:none;stroke-miterlimit:10;stroke-width:4px"/>
        <path data-name="Path 24919" d="M67.024 186.287s-30.817-33.256-29.051-64.74 9.553-45.993 23.35-59.437 17.334-23 17.334-29.365 7.787-8.135 9.2 0 3.184 19.812 21.584 30.778 18.747 33.968 21.931 45.287 12.07 23.35 4.446 38.206-16.471 13.444-23.552 21.937-11.829 20.165-11.829 20.165-26.1 6.133-33.413-2.831" transform="translate(174.056 124.878)" style="fill:#fff"/>
        <path data-name="Path 24920" d="M69.094 200.479s-34-36.681-32.039-71.412S47.589 78.336 62.81 63.508s19.117-25.362 19.117-32.387 8.589-8.976 10.147 0 3.515 21.853 23.8 33.946 20.681 37.466 24.2 49.951 13.309 25.755 4.9 42.147S126.8 171.993 119 181.356 105.949 203.6 105.949 203.6s-28.793 6.768-36.855-3.121z" transform="translate(169.788 114.807)" style="stroke:#0b2c7b;fill:none;stroke-miterlimit:10;stroke-width:4px"/>
        <path data-name="Path 24921" d="M51.084 39.043s2.9 20.782 1.071 25.822c-2.018 5.545-.572 6.391-4.1 13.449-4.3 8.606-3.358 13.943-2.691 20.182s.667 7.49 4.754 14.632c3.459 6.055 7.8 16.46 6.554 15.008 0 0 7.68-10.4 5.6-22.89s-.875-13.259-3.79-26.259c-3.016-13.455-1.811-5.589-1.811-14.464-.003-14.016-3.098-27.583-5.587-25.48z" transform="translate(205.749 178.039)" style="stroke:#0b2c7b;fill:none;stroke-miterlimit:10;stroke-width:4px"/>
        <path data-name="Path 24922" d="M43.5 42.685s19.341-5.4 30.273-2.08" transform="translate(199.874 181.264)" style="stroke:#8d2947;fill:none;stroke-miterlimit:10;stroke-width:4px"/>
        <path data-name="Path 24923" d="M43.5 44.617s21.7-5.117 32.633-1.794" transform="translate(199.874 191.279)" style="stroke:#8d2947;fill:none;stroke-miterlimit:10;stroke-width:4px"/>
        <path data-name="Path 24924" d="M43.5 48.189s23.165-6.335 34.1-3.016" transform="translate(199.874 202.843)" style="stroke:#8d2947;fill:none;stroke-miterlimit:10;stroke-width:4px"/>
        <path data-name="Path 24925" d="M211.467 61.422c-14.593 2.781-18.355 18.343-12.642 26.461 7.647 10.854 27.8 8.426 28.5-9.3s-18.764-17.374-18.764-17.374L89.375 45.77H51.5" transform="translate(236.7 210.022)" style="stroke:#8d2947;fill:none;stroke-miterlimit:10;stroke-width:4px"/>
        <path data-name="Path 24926" d="M211.467 69.921c-14.593-2.781-18.355-18.343-12.642-26.456 7.647-10.859 27.8-8.432 28.5 9.3s-18.764 17.374-18.764 17.374L89.375 85.579H51.5" transform="translate(236.7 169.35)" style="stroke:#8d2947;fill:none;stroke-miterlimit:10;stroke-width:4px"/>
    </g>
</svg>
