<svg xmlns="http://www.w3.org/2000/svg" width="494.809" height="443.699" viewBox="0 0 494.809 443.699">
    <g data-name="Group 7072">
        <path data-name="Rectangle 1467" transform="translate(228.845 384.895)" style="fill:#d7f0fd" d="M0 0h42.103v58.804H0z"/>
        <path data-name="Path 3336" d="M144.481 97.521H55.9l-.07-12.106h88.651z" transform="translate(215.116 328.883)" style="fill:#d7f0fd"/>
        <path data-name="Path 3337" d="M47.163 83.437z" transform="translate(181.679 321.252)" style="fill:#d7f0fd"/>
        <path data-name="Path 3338" d="M49.578 45.963v216.019h18.635V45.963L58.9 32.026z" transform="translate(190.999 122.912)" style="fill:#d7f0fd"/>
        <path data-name="Path 3339" d="M86.332 348.617s-2.978-32.917-7.938-61.442 0-92.571 0-92.571S25.822 114.924 28.8 83.105 48.746 24.966 87.429 12.9s54.559-17.556 98.207 5.485 64.367 38.392 48.5 94.345-46.621 81.19-44.639 95.452 6.947 54.86-2.973 86.674-6.947 53.155-6.947 53.155z" transform="translate(110.37 8.917)" style="fill:#d7f0fd"/>
        <path data-name="Path 3340" d="M61.274 303.826s-3.512-21.856 8.19-54.452 3.09-56.886 1.525-71.6c-.86-8.088 39.621-57.6 56.2-105.1A213.448 213.448 0 0 0 138.471 15" transform="translate(234.216 57.24)" style="stroke:#0b2c7b;fill:none;stroke-miterlimit:10;stroke-width:4px"/>
        <path data-name="Path 3341" d="M29.98 35.609c11.465-8.7 33.092-23.653 64.857-30.624C140.924-5.134 163.4.977 214.545 32.485" transform="translate(115.39 1.292)" style="stroke:#0b2c7b;fill:none;stroke-miterlimit:10;stroke-width:4px"/>
        <path data-name="Path 3342" d="M100.374 303.826s3.512-21.856-8.19-54.452-3.09-56.886-1.525-71.6c.86-8.088-39.621-57.6-56.2-105.1A213.447 213.447 0 0 1 23.178 15" transform="translate(89.151 57.24)" style="stroke:#0b2c7b;fill:none;stroke-miterlimit:10;stroke-width:4px"/>
        <path data-name="Path 3343" d="m194.241 331.168-3.473-97.488s-79.858-93.125-84.721-175.335c0 0-7.637-23.284-41.666-6.548S40.771 96.9 40.771 96.9s-20.141 7.279-27.083 24.01c0 0-30.556-66.932 26.388-93.849s104.167 0 104.167 0 40.243 23.279 73.592 22.55 78.488-29.1 78.488-29.1 45.834-34.195 105.552 6.548 20.141 93.849 20.141 93.849-11.11-21.825-20.835-24.008c0 0 15.278-29.827-19.441-43.653s-54.165-5.82-54.165-5.82-8.336 99.674-84.721 188.432l.695 95.306" transform="translate(20.952 26.692)" style="fill:#d7f0fd"/>
        <path data-name="Path 3344" d="m206.882 338.819-3.357-89.929a30.1 30.1 0 0 0-6.908-18.115c-20.184-24.318-80.539-102.53-84.9-172.959 0 0-8.244-23.983-44.964-6.748S41.278 97.529 41.278 97.529s-21.734 7.5-29.225 24.727c0 0-32.97-68.938 28.477-96.662s112.4 0 112.4 0 43.424 23.978 79.412 23.23 84.692-29.978 84.692-29.978 49.458-35.22 113.9 6.748 21.729 96.662 21.729 96.662-11.989-22.477-22.477-24.727c0 0 16.483-30.721-20.981-44.96s-58.45-5.995-58.45-5.995-8.424 96.186-83.72 185.259a32.065 32.065 0 0 0-7.607 20.937l.656 86.047" transform="translate(12.148 18.716)" style="stroke:#0b2c7b;fill:none;stroke-miterlimit:10;stroke-width:4px"/>
        <path data-name="Path 3345" d="M70.679 30.631c27.549 13.024 42.341 39.528 33.043 59.2S64.548 114.89 37 101.866-5.337 62.343 3.961 42.668 43.13 17.607 70.679 30.631" transform="translate(4.292 90.131)" style="fill:#d7f0fd"/>
        <path data-name="Path 3346" d="M136.759 101.343c-31.159 2.346-57.731-13.194-59.354-34.715s22.322-40.874 53.48-43.22 57.731 13.2 59.353 34.719S167.917 99 136.759 101.343" transform="translate(298.054 88.766)" style="fill:#d7f0fd"/>
        <path data-name="Path 3347" d="M140.053 109.021c-33.116 2.5-61.408-14.646-63.191-38.29S100.486 25.9 133.6 23.406s61.41 14.646 63.193 38.294-23.624 44.824-56.74 47.321z" transform="translate(295.915 88.728)" style="stroke:#0b2c7b;fill:none;stroke-miterlimit:10;stroke-width:4px"/>
        <path data-name="Path 3348" d="M76.242 31.425c30.026 14.195 46.15 43.08 36.016 64.512s-42.686 27.306-72.713 13.111S-6.6 65.969 3.529 44.536 46.215 17.23 76.242 31.425z" transform="translate(1.665 90.722)" style="stroke:#0b2c7b;fill:none;stroke-miterlimit:10;stroke-width:4px"/>
        <path data-name="Path 3349" d="M23.473 56.15S20.7 36.777 32.1 25.176" transform="translate(89.148 96.49)" style="stroke:#0b2c7b;fill:none;stroke-miterlimit:10;stroke-width:4px"/>
        <path data-name="Path 3350" d="M90.313 45.16s-4.338-19.776-13.539-23.123" transform="translate(295.919 84.379)" style="stroke:#0b2c7b;fill:none;stroke-miterlimit:10;stroke-width:4px"/>
        <path data-name="Path 3351" d="m52.975 32.416 13.5 1.754-1.394 3.06-9.317 1.749V254.96h-7.787V36.536z" transform="translate(184.821 124.421)" style="fill:#fff"/>
        <path data-name="Rectangle 1468" transform="translate(220.776 379.381)" style="stroke:#8d2947;fill:none;stroke-miterlimit:10;stroke-width:4px" d="M0 0h43.138v59.46H0z"/>
        <path data-name="Path 3352" d="M145.21 96.589H54.45l-.068-12.242h90.828z" transform="translate(209.532 324.764)" style="stroke:#8d2947;fill:none;stroke-miterlimit:10;stroke-width:4px"/>
        <path data-name="Line 27" transform="translate(220.775 399.396)" style="stroke:#8d2947;fill:none;stroke-miterlimit:10;stroke-width:4px" d="M0 0h43.138"/>
        <path data-name="Path 3353" d="M47.977 37.286V255.71h19.1V37.286a11.533 11.533 0 0 0-19.1 0z" transform="translate(184.821 123.67)" style="stroke:#8d2947;fill:none;stroke-miterlimit:10;stroke-width:4px"/>
    </g>
</svg>
