<svg xmlns="http://www.w3.org/2000/svg" width="671.927" height="499.563" viewBox="0 0 671.927 499.563">
    <g data-name="Group 7084">
        <path data-name="Path 24995" d="M108.5 481.742s-4.123-45.577-10.991-85.073 0-128.174 0-128.174-72.785-110.323-68.662-154.38 27.618-80.5 81.178-97.207S185.567-7.4 246 24.5s89.122 53.157 67.148 130.629-64.548 112.417-61.806 132.165 9.618 75.959-4.116 120.009-9.618 73.6-9.618 73.6z" transform="translate(163.072 12.614)" style="fill:#d7f0fd"/>
        <path data-name="Path 24996" d="M61.465 414.907S56.6 384.646 72.8 339.514s4.278-78.764 2.112-99.137c-1.19-11.206 54.859-79.759 77.815-145.514A295.538 295.538 0 0 0 168.35 15" transform="translate(346.896 84.339)" style="stroke:#0b2c7b;fill:none;stroke-miterlimit:10;stroke-width:4px"/>
        <path data-name="Path 24997" d="M29.98 49.112c15.874-12.047 45.819-32.75 89.8-42.4C183.593-7.3 224.212 1.161 295.025 44.787" transform="translate(170.529 1.296)" style="stroke:#0b2c7b;fill:none;stroke-miterlimit:10;stroke-width:4px"/>
        <path data-name="Path 24998" d="M130.064 414.907s4.863-30.261-11.34-75.394-4.278-78.764-2.112-99.137C117.8 229.171 61.753 160.617 38.8 94.862A295.538 295.538 0 0 1 23.178 15" transform="translate(131.578 84.339)" style="stroke:#0b2c7b;fill:none;stroke-miterlimit:10;stroke-width:4px"/>
        <path data-name="Path 24999" d="m266.83 455.81-4.81-134.981S151.449 191.888 144.716 78.06c0 0-10.574-32.239-57.69-9.067s-32.689 62.453-32.689 62.453-27.887 10.076-37.5 33.241c0 0-42.308-92.673 36.537-129.943s144.23 0 144.23 0 55.72 32.232 101.896 31.223 108.675-40.29 108.675-40.29 63.462-47.346 146.147 9.067 27.887 129.943 27.887 129.943-15.383-30.221-28.849-33.241c0 0 21.154-41.3-26.918-60.442s-75-8.058-75-8.058-11.542 138.008-117.3 260.9l.958 131.964" transform="translate(30.353 38.997)" style="fill:#d7f0fd"/>
        <path data-name="Path 25000" d="m285.211 465.306-4.648-124.516A41.677 41.677 0 0 0 271 315.709c-27.947-33.671-51.7-206.85-92.055-239.943 0 0-36.913-32.743-87.757-8.879s-35.272 64.329-35.272 64.329-30.094 10.378-40.466 34.236c0 0-45.651-95.451 39.429-133.838s155.631 0 155.631 0 60.125 33.2 109.953 32.165 117.264-41.507 117.264-41.507 76.981-45.725 151.245 13.136c48.072 38.1 44.083 103.973 44.083 103.973" transform="translate(17.287 29.051)" style="stroke:#0b2c7b;fill:none;stroke-miterlimit:10;stroke-width:4px"/>
        <path data-name="Path 25001" d="m54.945 420.33 4.648-124.515a41.677 41.677 0 0 1 9.565-25.082c27.947-33.671 51.7-206.85 92.055-239.943 0 0 36.913-32.743 87.757-8.879s35.271 64.329 35.271 64.329" transform="translate(313.482 74.026)" style="stroke:#0b2c7b;fill:none;stroke-miterlimit:10;stroke-width:4px"/>
        <path data-name="Path 25002" d="M97.407 33.362c38.144 18.033 58.625 54.731 45.752 81.965S88.919 150.028 50.781 132-7.844 77.271 5.03 50.03s54.233-34.7 92.377-16.667" transform="translate(5.625 133.159)" style="fill:#d7f0fd"/>
        <path data-name="Path 25003" d="M105.372 34.4c41.575 19.654 63.9 59.648 49.868 89.324s-59.1 37.808-100.678 18.154S-9.337 82.233 4.694 52.557 63.8 14.749 105.372 34.4z" transform="translate(1.724 134.036)" style="stroke:#0b2c7b;fill:none;stroke-miterlimit:10;stroke-width:4px"/>
        <path data-name="Path 25004" d="M23.587 68.062s-3.834-26.824 11.939-42.886" transform="translate(131.574 142.597)" style="stroke:#0b2c7b;fill:none;stroke-miterlimit:10;stroke-width:4px"/>
        <path data-name="Path 25005" d="M95.52 54.054s-6.007-27.383-18.746-32.017" transform="translate(438.48 124.622)" style="stroke:#0b2c7b;fill:none;stroke-miterlimit:10;stroke-width:4px"/>
        <path data-name="Path 25006" d="M99.2 46.239S74.3 57.553 76.174 77.651c2.4 25.876 18.679 24.4 18.679 24.4s-7.089 28.277 16.62 39.274 38.084-5.65 38.084-5.65 25.176 5.563 40.653-10.379 17.515-30.846 13.156-38.07c0 0 19.916-24.551-2.031-43.034-15.41-12.982-31.277-8.892-31.277-8.892s-26.246-19.1-45.866-12.336A41.8 41.8 0 0 0 99.2 46.239" transform="translate(434.472 121.6)" style="fill:#d7f0fd"/>
        <path data-name="Path 25007" d="M103.264 50.61S74 63.907 76.191 87.53c2.818 30.409 21.954 28.66 21.954 28.66s-8.327 33.234 19.533 46.162 44.749-6.645 44.749-6.645 29.6 6.538 47.783-12.195 20.582-36.247 15.457-44.736c0 0 23.421-28.855-2.388-50.581-18.1-15.248-36.759-10.446-36.759-10.446s-30.833-22.452-53.9-14.5a49.133 49.133 0 0 0-29.356 27.361z" transform="translate(434.468 121.798)" style="stroke:#8d2947;fill:none;stroke-miterlimit:10;stroke-width:4px"/>
        <path data-name="Path 25008" d="M95.873 54.015s-15.813 3.639-15.934-10.17c-.081-8.623 15.107-15.934 21.154-15.107s13.742 4.116 11.818 15.383" transform="translate(456.597 162.624)" style="stroke:#8d2947;fill:none;stroke-miterlimit:10;stroke-width:4px"/>
        <path data-name="Path 25009" d="M88.232 38.262s2.475-8.791 13.19-11.262c8.9-2.051 21.43 2.475 23.353 11.266C127.769 51.949 119 54.2 114.336 55.3" transform="translate(504.09 150.215)" style="stroke:#8d2947;fill:none;stroke-miterlimit:10;stroke-width:4px"/>
        <path data-name="Path 25010" d="M86.032 44.074s-3.074 17.037 16.721 17.037c15.4 0 21.894-13.042 16.775-20.609-6.323-9.343-18.134-6.867-18.134-6.867" transform="translate(490.504 189.333)" style="stroke:#8d2947;fill:none;stroke-miterlimit:10;stroke-width:4px"/>
    </g>
</svg>
