<svg xmlns="http://www.w3.org/2000/svg" width="57.832" height="68.341" viewBox="0 0 57.832 68.341">
    <g data-name="FEMALE GENITAL PROCEDURE">
        <path data-name="Path 24865" d="M50.882.119s-.973 2.7.337 8.054c1.8 7.38 12.33 17.619 5.409 41.455C52.846 62.652 50.26 68.3 50.26 68.3H13.041s-2.586-5.652-6.368-18.677c-6.92-23.836 3.606-33.218 5.409-40.6A18.505 18.505 0 0 0 12.42.286z" transform="translate(-1.126 .036)" style="fill:#d7f0fd"/>
        <path data-name="Path 24866" d="M33.391 43.567a9.9 9.9 0 0 0 .238-4.35 21.551 21.551 0 0 1-.111-5.149S27.1 24.4 27.35 21.748a6.406 6.406 0 0 1 4.884-5.848c3.224-1.005 4.546-1.463 8.182.457s5.805 3.2 4.483 7.861-6.05 9.115-6.4 10.262c-.2.648.111 1.488-.187 8.279-.244 5.561-2.23 11.671-1.84 11.674z" transform="translate(-8.721 -4.887)" style="fill:#fff"/>
        <path data-name="Path 24867" d="M43.718 45.531a8.481 8.481 0 0 0 2.746-3.94c.975-2.715.257-4.739.127-5.965-.072-.674 3.3-4.8 4.683-8.756a30.761 30.761 0 0 0 1.216-5.891" transform="translate(-14.128 -6.851)" style="stroke:#0b2c7b;fill:none;stroke-miterlimit:10;stroke-width:1.3px"/>
        <path data-name="Path 24868" d="M28.847 16.5a11.326 11.326 0 0 1 4.92-2.291c3.84-.843 5.713-.334 9.973 2.291" transform="translate(-9.217 -4.493)" style="stroke:#0b2c7b;fill:none;stroke-miterlimit:10;stroke-width:1.3px"/>
        <path data-name="Path 24869" d="M32.1 45.531a9.2 9.2 0 0 1-2.528-3.94c-.975-2.715-.257-4.739-.127-5.965.072-.674-3.3-4.8-4.682-8.756a35.641 35.641 0 0 1-1.324-5.891" transform="translate(-7.432 -6.851)" style="stroke:#0b2c7b;fill:none;stroke-miterlimit:10;stroke-width:1.3px"/>
        <path data-name="Path 24870" d="m29.481 44.444.47-9.107s-6.89-7.574-7.3-14.423c0 0-.731-1.929-3.567-.535a3.925 3.925 0 0 0-2.172 4.311s-1.163-.2-1.087-.2c.037 0-.061.038-.076 0-.243-.539-1.189-3.962 3.231-5.791a6.462 6.462 0 0 1 5.888.181s4.013 2.23 6.792 2.17 7.374-2.311 7.374-2.311a7.59 7.59 0 0 1 8.66.7c3.105 2.552 1.67 4.65 1.67 4.65a3.458 3.458 0 0 1-1.128-.129 4.237 4.237 0 0 0-3.064-3.78c-3.8-1.143-3.583.055-3.583.055a34.2 34.2 0 0 1-7.22 15.37l.025 8.027" transform="translate(-4.81 -5.764)" style="fill:#fff"/>
        <path data-name="Path 24871" d="M12.539 34.349s-3.328-2.972-1.313-5.619 6.817.164 7.56 1.371a11.218 11.218 0 0 1 1.164 2.769s-2.772-4.5-6.469-3.835-.942 5.314-.942 5.314" transform="translate(-3.185 -9.048)" style="fill:#fff"/>
        <path data-name="Path 24872" d="M62.719 34.485s4.281-1.264 3.589-4.518-6.233-2.766-7.421-1.991a11.2 11.2 0 0 0-2.235 2.005s4.428-2.884 7.487-.7-1.42 5.207-1.42 5.207" transform="translate(-18.399 -8.973)" style="fill:#fff"/>
        <path data-name="Path 24873" d="m28.822 43.97.458-8.37a2.389 2.389 0 0 0-.548-1.437c-1.6-1.929-6.389-8.133-6.735-13.721 0 0-.654-1.9-3.567-.535a3.413 3.413 0 0 0-1.73 4.38 22.115 22.115 0 0 0-3.071-.079s-1.01-4.23 2.719-6.324a9.222 9.222 0 0 1 8.916 0s3.445 1.9 6.3 1.843 6.719-2.378 6.719-2.378 3.923-2.794 9.036.535 2.334 6.285 2.334 6.285-1.561-.4-2.393-.578a3.188 3.188 0 0 0-1.66-3.567c-2.863-1.384-4.636-.476-4.636-.476a29.032 29.032 0 0 1-6.642 14.7 2.544 2.544 0 0 0-.6 1.661l.027 7.654" transform="translate(-4.152 -5.291)" style="stroke:#0b2c7b;fill:none;stroke-miterlimit:10;stroke-width:1.3px"/>
        <path data-name="Path 24874" d="M61.673 34.684c-2.759.208-5.117-1.22-5.265-3.19s1.968-3.735 4.727-3.943 5.116 1.22 5.265 3.19-1.968 3.736-4.727 3.943z" transform="translate(-18.316 -9.015)" style="stroke:#0b2c7b;fill:none;stroke-miterlimit:10;stroke-width:1.3px"/>
        <path data-name="Path 24875" d="M16.622 28.489c2.5 1.183 3.845 3.589 3 5.375s-3.557 2.275-6.058 1.092-3.845-3.589-3-5.374 3.556-2.276 6.058-1.093z" transform="translate(-3.097 -9.118)" style="stroke:#0b2c7b;fill:none;stroke-miterlimit:10;stroke-width:1.3px"/>
        <path data-name="Path 24876" d="M24.04 31.328a3.4 3.4 0 0 1 .719-2.581" transform="translate(-7.622 -9.417)" style="stroke:#0b2c7b;fill:none;stroke-miterlimit:10;stroke-width:1.3px"/>
        <path data-name="Path 24877" d="M57.245 28.493s-.937-2.224-1.7-2.5" transform="translate(-18.032 -8.507)" style="stroke:#0b2c7b;fill:none;stroke-miterlimit:10;stroke-width:1.3px"/>
        <path data-name="Path 24878" d="m38.091 45.85-.041-13.032s.268-5.385-3.969-5.385" transform="translate(-10.946 -8.983)" style="stroke:#8d2947;fill:none;stroke-miterlimit:10;stroke-width:1.3px"/>
        <path data-name="Path 24879" d="M40.066 45.85V32.818s-.268-5.385 3.969-5.385" transform="translate(-12.921 -8.983)" style="stroke:#8d2947;fill:none;stroke-miterlimit:10;stroke-width:1.3px"/>
        <path data-name="Path 24880" d="M69.784.119a20.7 20.7 0 0 0 .338 9.156c1.807 7.163 12.349 17.1 5.418 40.233-3.788 12.641-6.378 18.126-6.378 18.126" transform="translate(-22.53 .036)" style="stroke:#0b2c7b;fill:none;stroke-miterlimit:10;stroke-width:1.3px"/>
        <path data-name="Path 24881" d="M8.589 1.36a20.7 20.7 0 0 1-.338 9.156C6.444 17.679-4.1 26.784 2.834 49.918c3.787 12.641 6.377 18.126 6.377 18.126" transform="translate(.143 -.373)" style="stroke:#0b2c7b;fill:none;stroke-miterlimit:10;stroke-width:1.3px"/>
        <path data-name="Path 24882" d="M42.811 56.428a62.719 62.719 0 0 0-1.8 16.021A65.681 65.681 0 0 0 42.7 85.18" transform="translate(-13.221 -18.557)" style="stroke:#0b2c7b;fill:none;stroke-miterlimit:10;stroke-width:1.3px"/>
        <path data-name="Path 24883" d="M36.373 57.635a44.624 44.624 0 0 1 2.382 15.212 65.681 65.681 0 0 1-1.693 12.731" transform="translate(-11.703 -18.956)" style="stroke:#0b2c7b;fill:none;stroke-miterlimit:10;stroke-width:1.3px"/>
    </g>
</svg>
