<svg xmlns="http://www.w3.org/2000/svg" width="83.307" height="74.449" viewBox="0 0 83.307 74.449">
    <path data-name="Rectangle 1467" transform="translate(38.553 64.625)" style="fill:#d7f0fd" d="M0 0h7.035v9.825H0z"/>
    <path data-name="Path 3336" d="M70.642 87.438h-14.8l-.011-2.023h14.811z" transform="translate(-10.242 -15.878)" style="fill:#d7f0fd"/>
    <path data-name="Path 3337" d="M47.163 83.437z" transform="translate(-8.61 -15.505)" style="fill:#d7f0fd"/>
    <path data-name="Path 3338" d="M49.578 34.354v36.093h3.114V34.354l-1.557-2.329z" transform="translate(-9.065 -5.822)" style="fill:#d7f0fd"/>
    <path data-name="Path 3339" d="M38.311 60.31s-.5-5.5-1.326-10.266 0-15.467 0-15.467S28.2 21.264 28.7 15.948s3.333-9.714 9.8-11.73 9.11-2.933 16.4.916 10.754 6.415 8.1 15.763-7.789 13.565-7.458 15.948 1.161 9.166-.5 14.482a22.377 22.377 0 0 0-1.161 8.881z" transform="translate(-5.128 -.257)" style="fill:#d7f0fd"/>
    <path data-name="Path 3340" d="M60.863 63.259a20.06 20.06 0 0 1 1.368-9.1c1.955-5.446.516-9.5.255-11.963-.144-1.351 6.62-9.625 9.39-17.559A35.663 35.663 0 0 0 73.761 15" transform="translate(-11.174 -2.616)" style="stroke:#0b2c7b;fill:none;stroke-miterlimit:10;stroke-width:1.3px"/>
    <path data-name="Path 3341" d="M29.98 6.366a27.394 27.394 0 0 1 10.836-5.117c7.7-1.691 11.456-.67 20 4.595" transform="translate(-5.374 .116)" style="stroke:#0b2c7b;fill:none;stroke-miterlimit:10;stroke-width:1.3px"/>
    <path data-name="Path 3342" d="M36.076 63.259a20.06 20.06 0 0 0-1.368-9.1c-1.955-5.446-.516-9.5-.255-11.963.144-1.351-6.62-9.625-9.39-17.559A35.663 35.663 0 0 1 23.178 15" transform="translate(-4.092 -2.616)" style="stroke:#0b2c7b;fill:none;stroke-miterlimit:10;stroke-width:1.3px"/>
    <path data-name="Path 3343" d="m37.035 61.232-.58-16.288S23.112 29.384 22.3 15.649c0 0-1.276-3.89-6.962-1.094s-3.945 7.536-3.945 7.536-3.365 1.216-4.524 4.009c0 0-5.105-11.183 4.409-15.68a19.84 19.84 0 0 1 17.4 0s6.724 3.889 12.3 3.768 13.113-4.861 13.113-4.861 7.658-5.713 17.636 1.094S75.092 26.1 75.092 26.1s-1.856-3.647-3.481-4.011c0 0 2.553-4.984-3.248-7.294s-9.05-.972-9.05-.972a61.032 61.032 0 0 1-14.155 31.485l.116 15.924" transform="translate(-.763 -1.124)" style="fill:#d7f0fd"/>
    <path data-name="Path 3344" d="m37.247 60.788-.561-15.025a5.029 5.029 0 0 0-1.154-3.027c-3.372-4.063-13.456-17.131-14.185-28.9 0 0-1.377-4.007-7.513-1.127s-4.256 7.763-4.256 7.763-3.632 1.254-4.884 4.128c0 0-5.509-11.518 4.758-16.15a22.314 22.314 0 0 1 18.78 0s7.255 4.006 13.268 3.881 14.15-5.009 14.15-5.009 8.263-5.885 19.031 1.127S78.312 24.6 78.312 24.6s-2-3.756-3.756-4.131c0 0 2.754-5.133-3.506-7.512s-9.766-1-9.766-1A61.141 61.141 0 0 1 47.3 42.913a5.358 5.358 0 0 0-1.271 3.5l.11 14.377" transform="translate(-.333 -.735)" style="stroke:#0b2c7b;fill:none;stroke-miterlimit:10;stroke-width:1.3px"/>
    <path data-name="Path 3345" d="M12.794 24.715c4.6 2.176 7.074 6.6 5.521 9.891s-6.545 4.187-11.147 2.011-7.074-6.6-5.521-9.891 6.544-4.187 11.147-2.011" transform="translate(.051 -4.222)" style="fill:#d7f0fd"/>
    <path data-name="Path 3346" d="M87.258 36.234c-5.206.392-9.646-2.2-9.917-5.8s3.73-6.829 8.936-7.221 9.646 2.205 9.917 5.8-3.73 6.828-8.936 7.22" transform="translate(-14.291 -4.155)" style="fill:#d7f0fd"/>
    <path data-name="Path 3347" d="M87.347 37.509c-5.533.417-10.26-2.447-10.558-6.4s3.947-7.491 9.48-7.907 10.26 2.447 10.558 6.4-3.947 7.49-9.48 7.907z" transform="translate(-14.187 -4.153)" style="stroke:#0b2c7b;fill:none;stroke-miterlimit:10;stroke-width:1.3px"/>
    <path data-name="Path 3348" d="M13.155 24.975c5.017 2.372 7.711 7.2 6.018 10.779s-7.132 4.562-12.149 2.191-7.711-7.2-6.018-10.779 7.133-4.566 12.149-2.191z" transform="translate(.179 -4.25)" style="stroke:#0b2c7b;fill:none;stroke-miterlimit:10;stroke-width:1.3px"/>
    <path data-name="Path 3349" d="M23.227 30.351s-.463-3.237 1.441-5.175" transform="translate(-4.092 -4.532)" style="stroke:#0b2c7b;fill:none;stroke-miterlimit:10;stroke-width:1.3px"/>
    <path data-name="Path 3350" d="M79.036 25.9s-.725-3.3-2.262-3.863" transform="translate(-14.186 -3.941)" style="stroke:#0b2c7b;fill:none;stroke-miterlimit:10;stroke-width:1.3px"/>
    <path data-name="Path 3351" d="m48.812 32.416 2.255.293-.233.511-1.557.292V69.6h-1.3V33.1z" transform="translate(-8.763 -5.896)" style="fill:#fff"/>
    <path data-name="Rectangle 1468" transform="translate(37.205 63.703)" style="stroke:#8d2947;fill:none;stroke-miterlimit:10;stroke-width:1.3px" d="M0 0h7.207v9.935H0z"/>
    <path data-name="Path 3352" d="M69.558 86.393H54.394l-.011-2.045h15.175z" transform="translate(-9.969 -15.677)" style="stroke:#8d2947;fill:none;stroke-miterlimit:10;stroke-width:1.3px"/>
    <path data-name="Line 27" transform="translate(37.205 67.047)" style="stroke:#8d2947;fill:none;stroke-miterlimit:10;stroke-width:1.3px" d="M0 0h7.207"/>
    <path data-name="Path 3353" d="M47.977 33.068v36.494h3.191V33.068a1.927 1.927 0 0 0-3.191 0z" transform="translate(-8.763 -5.859)" style="stroke:#8d2947;fill:none;stroke-miterlimit:10;stroke-width:1.3px"/>
</svg>
