<svg xmlns="http://www.w3.org/2000/svg" width="99.808" height="60.671" viewBox="0 0 99.808 60.671">
    <g data-name="IRREGULAR PERIODS">
        <path data-name="Path 24897" d="m71.559 44.612-20.8-4.042a16.278 16.278 0 0 0-6.21 0l-20.8 4.042c-6.849 1.33-13.938-1.782-16.98-7.793a14.123 14.123 0 0 1-1.53-6.391 14.523 14.523 0 0 1 5.645-11.395 15.747 15.747 0 0 1 12.275-2.978l20.189 3.308a16.319 16.319 0 0 0 4.939.051l24.225-3.464a15.69 15.69 0 0 1 9.433 1.485 14.737 14.737 0 0 1 8.117 12.992 14.11 14.11 0 0 1-1.53 6.391c-3.041 6.012-10.132 9.124-16.973 7.794" transform="translate(.229 .405)" style="fill:#d7f0fd"/>
        <path data-name="Path 24898" d="M73.681 46 51.09 41.412a16.924 16.924 0 0 0-6.744 0L21.755 46A16.57 16.57 0 0 1 7.79 16.946a16.541 16.541 0 0 1 13.332-3.382l21.923 3.757a16.918 16.918 0 0 0 5.363.057l26.308-3.933a16.364 16.364 0 0 1 10.244 1.687 16.83 16.83 0 0 1 8.815 14.758A16.468 16.468 0 0 1 73.681 46z" transform="translate(.169 .362)" style="stroke:#08297e;fill:none;stroke-miterlimit:10;stroke-width:1.3px"/>
        <path data-name="Path 24899" d="m63.55 39.892-14.032-2.727a11 11 0 0 0-4.19 0L31.3 39.892a10.541 10.541 0 0 1-11.45-5.257 9.522 9.522 0 0 1-1.032-4.312 9.8 9.8 0 0 1 3.808-7.687 10.623 10.623 0 0 1 8.28-2.008l13.618 2.231a10.993 10.993 0 0 0 3.332.035l16.34-2.335a10.571 10.571 0 0 1 6.364 1 9.941 9.941 0 0 1 5.475 8.763A9.522 9.522 0 0 1 75 34.635a10.541 10.541 0 0 1-11.45 5.257" transform="translate(.457 .483)" style="fill:#fff"/>
        <path data-name="Path 24900" d="M22.586 12.425c0 5.625-5.5 10.184-11.125 10.184a10.184 10.184 0 0 1 0-20.368c5.624 0 11.125 4.559 11.125 10.184" transform="translate(.163 .178)" style="fill:#d7f0fd"/>
        <path data-name="Path 24901" d="M22.638 11.569A11.069 11.069 0 1 1 11.569.5a11.069 11.069 0 0 1 11.069 11.069z" transform="translate(.15 .149)" style="stroke:#08297e;fill:none;stroke-miterlimit:10;stroke-width:1.3px"/>
        <path data-name="Path 24902" d="M13.26 7.791a2.082 2.082 0 0 1-2.089 2.309 2.138 2.138 0 0 1-2.1-2.307A4.948 4.948 0 0 1 11.17 4.2c.085 1.842 1.941 1.476 2.09 3.591z" transform="translate(.294 .211)" style="stroke:#fff;fill:none;stroke-miterlimit:10;stroke-width:1.3px"/>
        <path data-name="Path 24903" d="M18.659 14.2a2.082 2.082 0 0 1-2.089 2.307 2.138 2.138 0 0 1-2.1-2.307 4.948 4.948 0 0 1 2.1-3.589c.084 1.838 1.94 1.472 2.089 3.589z" transform="translate(.384 .318)" style="stroke:#08297e;fill:none;stroke-miterlimit:10;stroke-width:1.3px"/>
        <path data-name="Path 24904" d="M8.615 14.2a2.08 2.08 0 0 1-2.083 2.307A2.135 2.135 0 0 1 4.44 14.2a4.949 4.949 0 0 1 2.09-3.589c.086 1.838 1.935 1.472 2.085 3.589z" transform="translate(.216 .318)" style="stroke:#8e2a48;fill:none;stroke-miterlimit:10;stroke-width:1.3px"/>
        <path data-name="Path 24905" d="M64.887 29.2a2.08 2.08 0 0 1-2.087 2.305 2.135 2.135 0 0 1-2.088-2.305 4.949 4.949 0 0 1 2.09-3.589c.086 1.838 1.935 1.472 2.085 3.589z" transform="translate(1.159 .57)" style="stroke:#8e2a48;fill:none;stroke-miterlimit:10;stroke-width:1.3px"/>
        <path data-name="Path 24906" d="M59.055 32.114a2.08 2.08 0 0 1-2.083 2.307 2.135 2.135 0 0 1-2.091-2.307 4.949 4.949 0 0 1 2.09-3.589c.085 1.84 1.934 1.475 2.084 3.589z" transform="translate(1.061 .618)" style="stroke:#08297e;fill:none;stroke-miterlimit:10;stroke-width:1.3px"/>
        <path data-name="Path 24907" d="M28.055 28.114a2.08 2.08 0 0 1-2.083 2.307 2.135 2.135 0 0 1-2.091-2.307 4.949 4.949 0 0 1 2.09-3.589c.085 1.84 1.934 1.475 2.084 3.589z" transform="translate(.542 .552)" style="stroke:#8e2a48;fill:none;stroke-miterlimit:10;stroke-width:1.3px"/>
        <path data-name="Path 24908" d="m31.131 15.635 1.914-7.7c.6-1.835 3.133-3.152 4.955-3.152h18.09c1.822 0 3.92 2.147 3.92 3.448l1.2 7.313" transform="translate(.663 .22)" style="stroke:#08297e;fill:none;stroke-miterlimit:10;stroke-width:1.3px"/>
        <path data-name="Path 24909" d="m31.131 41.469 1.914 7.7c.6 1.838 3.134 3.151 4.955 3.151h18.09c1.822 0 3.92-2.147 3.92-3.448l1.153-7.784" transform="translate(.663 2.883)" style="stroke:#08297e;fill:none;stroke-miterlimit:10;stroke-width:1.3px"/>
        <path data-name="Rectangle 1472" transform="translate(76.829 41.109)" style="fill:#d7f0fd" d="M0 0h20.294v16.471H0z"/>
        <path data-name="Rectangle 1473" transform="translate(92.882 47.556)" style="stroke:#8e2a48;fill:none;stroke-miterlimit:10;stroke-width:1.3px" d="M0 0h3.742v3.742H0z"/>
        <path data-name="Rectangle 1474" transform="translate(86.321 47.556)" style="stroke:#08297e;fill:none;stroke-miterlimit:10;stroke-width:1.3px" d="M0 0h3.742v3.742H0z"/>
        <path data-name="Rectangle 1475" transform="translate(94.124 38.273)" style="fill:#08297e" d="M0 0h2.999v2.837H0z"/>
        <path data-name="Rectangle 1476" transform="translate(78.846 38.273)" style="fill:#08297e" d="M0 0h2.883v2.837H0z"/>
        <path data-name="Line 28" transform="translate(76.829 44.648)" style="stroke:#08297e;fill:none;stroke-miterlimit:10;stroke-width:1.3px" d="M22.099 0H0"/>
        <path data-name="Rectangle 1477" transform="translate(76.463 41.109)" style="stroke:#08297e;fill:none;stroke-miterlimit:10;stroke-width:1.3px" d="M0 0h22.694v18.912H0z"/>
        <path data-name="Rectangle 1478" transform="translate(79.872 47.556)" style="stroke:#08297e;fill:none;stroke-miterlimit:10;stroke-width:1.3px" d="M0 0h3.742v3.742H0z"/>
        <path data-name="Rectangle 1479" transform="translate(79.745 53.434)" style="stroke:#8e2a48;fill:none;stroke-miterlimit:10;stroke-width:1.3px" d="M0 0h3.742v3.742H0z"/>
        <path data-name="Rectangle 1480" transform="translate(86.321 53.434)" style="stroke:#08297e;fill:none;stroke-miterlimit:10;stroke-width:1.3px" d="M0 0h3.742v3.742H0z"/>
        <path data-name="Rectangle 1481" transform="translate(92.882 53.434)" style="stroke:#08297e;fill:none;stroke-miterlimit:10;stroke-width:1.3px" d="M0 0h3.742v3.742H0z"/>
    </g>
</svg>
