<svg xmlns="http://www.w3.org/2000/svg" width="89.34" height="66.292" viewBox="0 0 89.34 66.292">
    <g data-name="OVARIAN CYST">
        <path data-name="Path 24995" d="M39.2 65.645s-.543-6.007-1.449-11.213 0-16.894 0-16.894S28.157 23 28.7 17.191s3.64-10.61 10.7-12.812 9.957-3.2 17.922 1 11.747 7.006 8.85 17.217-8.508 14.817-8.146 17.42 1.268 10.012-.543 15.818a24.441 24.441 0 0 0-1.268 9.7z" transform="translate(-3.016 -.1)" style="fill:#d7f0fd"/>
        <path data-name="Path 24996" d="M60.87 67.711s-.641-3.989 1.495-9.937.564-10.381.278-13.067c-.156-1.477 7.231-10.512 10.257-19.179A38.953 38.953 0 0 0 74.958 15" transform="translate(-6.659 -1.522)" style="stroke:#0b2c7b;fill:none;stroke-miterlimit:10;stroke-width:1.3px"/>
        <path data-name="Path 24997" d="M29.98 6.907a29.921 29.921 0 0 1 11.836-5.589C50.227-.528 55.58.587 64.914 6.337" transform="translate(-3.164 .124)" style="stroke:#0b2c7b;fill:none;stroke-miterlimit:10;stroke-width:1.3px"/>
        <path data-name="Path 24998" d="M37.266 67.711s.641-3.989-1.495-9.937-.564-10.381-.278-13.067c.157-1.477-7.231-10.513-10.256-19.179A38.953 38.953 0 0 1 23.178 15" transform="translate(-2.392 -1.522)" style="stroke:#0b2c7b;fill:none;stroke-miterlimit:10;stroke-width:1.3px"/>
        <path data-name="Path 24999" d="m39.945 66.227-.634-17.791s-14.574-16.995-15.461-32c0 0-1.394-4.249-7.6-1.2s-4.309 8.231-4.309 8.231-3.679 1.333-4.946 4.389c0 0-5.576-12.215 4.816-17.127a21.671 21.671 0 0 1 19.01 0s7.344 4.248 13.43 4.115 14.324-5.31 14.324-5.31 8.364-6.24 19.263 1.2 3.676 17.127 3.676 17.127-2.027-3.983-3.8-4.381c0 0 2.788-5.443-3.548-7.966s-9.885-1.062-9.885-1.062a66.662 66.662 0 0 1-15.465 34.382l.127 17.393" transform="translate(-.386 -.623)" style="fill:#d7f0fd"/>
        <path data-name="Path 25000" d="m40.386 65.971-.613-16.412a5.493 5.493 0 0 0-1.261-3.306C34.829 41.815 31.7 18.99 26.38 14.628a10.834 10.834 0 0 0-11.567-1.17c-6.7 3.145-4.649 8.479-4.649 8.479S6.2 23.3 4.831 26.449c0 0-6.017-12.581 5.2-17.64a24.372 24.372 0 0 1 20.513 0s7.925 4.376 14.492 4.239 15.452-5.471 15.452-5.471 10.147-6.026 19.935 1.732c6.336 5.022 5.81 13.7 5.81 13.7" transform="translate(-.127 -.426)" style="stroke:#0b2c7b;fill:none;stroke-miterlimit:10;stroke-width:1.3px"/>
        <path data-name="Path 25001" d="m54.945 66.862.613-16.412a5.493 5.493 0 0 1 1.261-3.306c3.684-4.438 6.814-27.264 12.133-31.625a10.834 10.834 0 0 1 11.567-1.17c6.7 3.145 4.649 8.479 4.649 8.479" transform="translate(-5.996 -1.317)" style="stroke:#0b2c7b;fill:none;stroke-miterlimit:10;stroke-width:1.3px"/>
        <path data-name="Path 25002" d="M13.865 24.824c5.028 2.377 7.727 7.214 6.03 10.8s-7.149 4.574-12.176 2.2-7.727-7.213-6.03-10.8 7.148-4.574 12.176-2.2" transform="translate(.104 -2.489)" style="fill:#d7f0fd"/>
        <path data-name="Path 25003" d="M14.323 25.094c5.48 2.59 8.422 7.862 6.573 11.773s-7.79 4.983-13.27 2.393S-.8 31.4 1.053 27.487s7.79-4.987 13.27-2.393z" transform="translate(.181 -2.506)" style="stroke:#0b2c7b;fill:none;stroke-miterlimit:10;stroke-width:1.3px"/>
        <path data-name="Path 25004" d="M23.231 30.829s-.505-3.535 1.574-5.653" transform="translate(-2.392 -2.676)" style="stroke:#0b2c7b;fill:none;stroke-miterlimit:10;stroke-width:1.3px"/>
        <path data-name="Path 25005" d="M79.245 26.257s-.792-3.609-2.471-4.22" transform="translate(-8.473 -2.32)" style="stroke:#0b2c7b;fill:none;stroke-miterlimit:10;stroke-width:1.3px"/>
        <path data-name="Path 25006" d="M79.123 24.769s-3.282 1.491-3.035 4.14c.316 3.41 2.462 3.215 2.462 3.215s-.934 3.727 2.191 5.176a4.21 4.21 0 0 0 5.02-.745s3.318.733 5.358-1.368 2.309-4.066 1.734-5.018c0 0 2.625-3.236-.268-5.672a4.9 4.9 0 0 0-4.122-1.172S85 20.809 82.416 21.7a5.509 5.509 0 0 0-3.293 3.068" transform="translate(-8.394 -2.259)" style="fill:#d7f0fd"/>
        <path data-name="Path 25007" d="M79.657 25.375s-3.857 1.753-3.568 4.866c.371 4.008 2.894 3.778 2.894 3.778s-1.1 4.38 2.575 6.084a4.947 4.947 0 0 0 5.9-.876s3.9.862 6.3-1.607 2.713-4.778 2.037-5.9c0 0 3.087-3.8-.315-6.667a5.757 5.757 0 0 0-4.845-1.377s-4.064-2.959-7.1-1.911a6.476 6.476 0 0 0-3.878 3.61z" transform="translate(-8.394 -2.263)" style="stroke:#8d2947;fill:none;stroke-miterlimit:10;stroke-width:1.3px"/>
        <path data-name="Path 25008" d="M82.038 32.014s-2.084.48-2.1-1.34c-.011-1.137 1.991-2.1 2.788-1.991a1.6 1.6 0 0 1 1.558 2.028" transform="translate(-8.832 -3.074)" style="stroke:#8d2947;fill:none;stroke-miterlimit:10;stroke-width:1.3px"/>
        <path data-name="Path 25009" d="M88.232 28.056a2.317 2.317 0 0 1 1.738-1.485c1.173-.27 2.824.326 3.078 1.485.395 1.8-.761 2.1-1.376 2.246" transform="translate(-9.773 -2.826)" style="stroke:#8d2947;fill:none;stroke-miterlimit:10;stroke-width:1.3px"/>
        <path data-name="Path 25010" d="M85.882 34.753S85.477 37 88.086 37c2.03 0 2.886-1.719 2.211-2.716a2.423 2.423 0 0 0-2.39-.905" transform="translate(-9.504 -3.602)" style="stroke:#8d2947;fill:none;stroke-miterlimit:10;stroke-width:1.3px"/>
    </g>
</svg>
