<svg xmlns="http://www.w3.org/2000/svg" width="99.377" height="73.763" viewBox="0 0 99.377 73.763">
    <g data-name="PCOS PCOD">
        <path data-name="Path 24950" d="M40.4 72.847s-.605-6.692-1.614-12.491 0-18.82 0-18.82S28.1 25.337 28.7 18.868 32.758 7.049 40.622 4.6s11.092-3.574 19.965 1.11 13.086 7.805 9.859 19.18-9.477 16.51-9.074 19.41 1.412 11.153-.6 17.621a27.227 27.227 0 0 0-1.412 10.806z" transform="translate(-.165 .095)" style="fill:#d7f0fd"/>
        <path data-name="Path 24951" d="M60.881 73.72s-.714-4.443 1.665-11.07.628-11.565.31-14.556c-.175-1.645 8.055-11.711 11.426-21.366A43.394 43.394 0 0 0 76.575 15" transform="translate(-.562 -.06)" style="stroke:#0b2c7b;fill:none;stroke-miterlimit:10;stroke-width:1.3px"/>
        <path data-name="Path 24952" d="M29.98 7.637a33.332 33.332 0 0 1 13.185-6.225C52.535-.646 58.5.6 68.9 7" transform="translate(-.181 .12)" style="stroke:#0b2c7b;fill:none;stroke-miterlimit:10;stroke-width:1.3px"/>
        <path data-name="Path 24953" d="M38.872 73.72s.714-4.443-1.665-11.07-.628-11.565-.31-14.556c.175-1.645-8.055-11.711-11.426-21.366A43.394 43.394 0 0 1 23.178 15" transform="translate(-.096 -.06)" style="stroke:#0b2c7b;fill:none;stroke-miterlimit:10;stroke-width:1.3px"/>
        <path data-name="Path 24954" d="m43.871 72.97-.706-19.819S26.93 34.218 25.941 17.505c0 0-1.553-4.734-8.471-1.331s-4.8 9.17-4.8 9.17-4.095 1.479-5.506 4.881c0 0-6.212-13.607 5.365-19.08a24.141 24.141 0 0 1 21.177 0s8.181 4.733 14.961 4.584 15.958-5.915 15.958-5.915 9.318-6.952 21.459 1.331 4.095 19.08 4.095 19.08-2.259-4.437-4.236-4.881c0 0 3.106-6.064-3.952-8.875s-11.012-1.183-11.012-1.183a74.262 74.262 0 0 1-17.225 38.308L53.9 72.97" transform="translate(.123 .038)" style="fill:#d7f0fd"/>
        <path data-name="Path 24955" d="M44.623 72.882 43.941 54.6a6.119 6.119 0 0 0-1.4-3.683c-4.1-4.944-7.591-30.372-13.516-35.231a12.069 12.069 0 0 0-12.885-1.3c-7.464 3.5-5.179 9.445-5.179 9.445s-4.419 1.524-5.941 5.027c0 0-6.7-14.015 5.789-19.651a27.151 27.151 0 0 1 22.851 0s8.828 4.875 16.144 4.723 17.213-6.098 17.213-6.098 11.3-6.714 22.207 1.929c7.059 5.594 6.476 15.266 6.476 15.266" transform="translate(.151 .06)" style="stroke:#8d2947;fill:none;stroke-miterlimit:10;stroke-width:1.3px"/>
        <path data-name="Path 24956" d="m54.945 72.98.682-18.28a6.119 6.119 0 0 1 1.4-3.683c4.1-4.944 7.591-30.372 13.516-35.231a12.069 12.069 0 0 1 12.885-1.3c7.464 3.5 5.179 9.445 5.179 9.445" transform="translate(-.49 -.037)" style="stroke:#8d2947;fill:none;stroke-miterlimit:10;stroke-width:1.3px"/>
        <path data-name="Path 24957" d="M15.311 24.972c5.6 2.648 8.608 8.036 6.718 12.035s-7.964 5.1-13.564 2.447-8.608-8.035-6.718-12.035 7.963-5.1 13.564-2.447" transform="translate(.176 -.165)" style="fill:#d7f0fd"/>
        <path data-name="Path 24958" d="M15.9 25.255c6.1 2.886 9.382 8.758 7.322 13.115s-8.678 5.551-14.782 2.666-9.384-8.758-7.324-13.115 8.678-5.552 14.784-2.666z" transform="translate(.185 -.168)" style="stroke:#0b2c7b;fill:none;stroke-miterlimit:10;stroke-width:1.3px"/>
        <path data-name="Path 24959" d="M23.237 31.473s-.563-3.939 1.753-6.3" transform="translate(-.096 -.186)" style="stroke:#0b2c7b;fill:none;stroke-miterlimit:10;stroke-width:1.3px"/>
        <path data-name="Path 24960" d="M75.836 24.214s-1.541-4.472-3.412-5.152" transform="translate(2.93 2.377)" style="stroke:#0b2c7b;fill:none;stroke-miterlimit:10;stroke-width:1.3px"/>
        <path data-name="Path 24961" d="M79.47 25.14s-3.656 1.661-3.382 4.612c.353 3.8 2.743 3.582 2.743 3.582s-1.041 4.152 2.44 5.767a4.69 4.69 0 0 0 5.592-.83s3.7.817 5.969-1.524 2.572-4.529 1.932-5.59c0 0 2.924-3.6-.3-6.319a5.454 5.454 0 0 0-4.592-1.306s-3.854-2.8-6.734-1.811a6.137 6.137 0 0 0-3.668 3.419" transform="translate(-.752 -.141)" style="fill:#d7f0fd"/>
        <path data-name="Path 24962" d="M80.066 25.811s-4.3 1.952-3.975 5.421c.414 4.465 3.224 4.208 3.224 4.208s-1.223 4.88 2.868 6.778a5.511 5.511 0 0 0 6.571-.976s4.346.96 7.016-1.791 3.022-5.322 2.27-6.569c0 0 3.439-4.237-.351-7.427a6.413 6.413 0 0 0-5.4-1.534s-4.527-3.3-7.914-2.129a7.214 7.214 0 0 0-4.309 4.019z" transform="translate(-.752 -.141)" style="stroke:#0b2c7b;fill:none;stroke-miterlimit:10;stroke-width:1.3px"/>
    </g>
</svg>
