<svg xmlns="http://www.w3.org/2000/svg" width="89.046" height="67.019" viewBox="0 0 89.046 67.019">
    <g data-name="PREGANANCY CARE">
        <path data-name="Path 24982" d="M6.5 41.539V33.2s.446-5.022-2.639-5.022S.775 32.457.775 32.457a102.556 102.556 0 0 0 0 14.842c.617 7.4 3.7 9.253 7.4 12.337s4.325 8.635 4.325 8.635h11.579l-1.1-1.233s-1.85-4.319-1.233-7.4-1.233-5.552-3.7-8.019l-7.4-7.4S7.4 39.741 5.092 42.363c-1.3 1.475.172 3.393 1.851 5.552s6.9 8.229 6.9 8.229" transform="translate(.188 -2.801)" style="fill:#d7f0fd"/>
        <path data-name="Path 24983" d="M7.162 31.08s2.518.5 2.518 5.329v6.405" transform="translate(-.476 -3.091)" style="fill:#d7f0fd"/>
        <path data-name="Path 24984" d="M89.248 41.444v-8.368s-.447-5.037 2.647-5.037 3.094 4.294 3.094 4.294a102.881 102.881 0 0 1 0 14.887c-.619 7.425-3.713 9.282-7.425 12.376s-4.331 8.662-4.331 8.662H71.612l1.1-1.238s1.856-4.331 1.237-7.424 1.238-5.569 3.713-8.044l7.425-7.425s3.258-4.486 5.569-1.856c1.3 1.479-.172 3.4-1.856 5.569s-6.92 8.254-6.92 8.254" transform="translate(-6.905 -2.788)" style="fill:#d7f0fd"/>
        <path data-name="Path 24985" d="M90.922 30.953s-2.526.5-2.526 5.346v6.425" transform="translate(-8.579 -3.079)" style="fill:#d7f0fd"/>
        <path data-name="Path 24986" d="M7.082 39.5v-9.156s.489-5.511-2.9-5.511S.8 29.531.8 29.531a112.52 112.52 0 0 0 0 16.289c.677 8.124 4.062 10.155 8.124 13.54s4.739 9.478 4.739 9.478h12.715l-1.205-1.354s-2.031-4.739-1.354-8.124-1.354-6.093-4.062-8.8l-8.124-8.124S8.067 37.527 5.54 40.4c-1.421 1.619.188 3.723 2.031 6.093s7.571 9.031 7.571 9.031" transform="translate(.188 -2.468)" style="stroke:#0b2c7b;fill:none;stroke-miterlimit:10;stroke-width:1.3px"/>
        <path data-name="Path 24987" d="M7.811 28.022s2.764.548 2.764 5.849V40.9" transform="translate(-.541 -2.786)" style="stroke:#0b2c7b;fill:none;stroke-miterlimit:10;stroke-width:1.3px"/>
        <path data-name="Path 24988" d="M88.435 39.5v-9.156s-.489-5.511 2.9-5.511 3.385 4.7 3.385 4.7a112.52 112.52 0 0 1 0 16.288c-.677 8.124-4.062 10.155-8.124 13.54s-4.739 9.478-4.739 9.478H69.139l1.205-1.354s2.031-4.739 1.354-8.124 1.354-6.093 4.062-8.8l8.124-8.124s3.565-4.907 6.093-2.031c1.421 1.619-.188 3.723-2.031 6.093s-7.571 9.031-7.571 9.031" transform="translate(-6.658 -2.468)" style="stroke:#0b2c7b;fill:none;stroke-miterlimit:10;stroke-width:1.3px"/>
        <path data-name="Path 24989" d="M90.267 28.022s-2.767.548-2.767 5.849V40.9" transform="translate(-8.49 -2.786)" style="stroke:#0b2c7b;fill:none;stroke-miterlimit:10;stroke-width:1.3px"/>
        <path data-name="Path 24990" d="M50.19.02s-.083 1.99 5.751 6.446C61.871 10.995 73.026 21.1 71 34.863s-19.453 18.69-18.606 25.9H32.26c.338-4.941-4.059-7.429-6.6-15.269s.169-13.763 3.214-20.911-1.012-23.078-1.012-23.078z" transform="translate(-2.221 .007)" style="fill:#d7f0fd"/>
        <path data-name="Path 24991" d="M30.437 2.5s4.181 15.925 1.045 23.073-5.924 13.072-3.31 20.912 7.144 10.328 6.794 15.268" transform="translate(-2.469 -.241)" style="stroke:#003077;fill:none;stroke-miterlimit:10;stroke-width:1.3px"/>
        <path data-name="Path 24992" d="M55.521.022s-.086 1.99 5.924 6.446C67.552 11 79.04 21.1 76.95 34.865s-20.035 18.69-19.164 25.9" transform="translate(-5.3 .006)" style="stroke:#003077;fill:none;stroke-miterlimit:10;stroke-width:1.3px"/>
        <path data-name="Path 24993" d="M49.886 31.161s4.8-3.732 2.36-7.564-8.037-3.343-9.467.077c-1.686 4.03 1.01 6.007 1.01 6.007s-2.439 8.882 2.787 13.063c4.571 3.656 10.206 2.917 11.433-.7a1.573 1.573 0 0 1 2.014-.922c1.255.425 2.848.627 3.626-.638 1.394-2.264 2.439-6.1 0-5.574a7.279 7.279 0 0 0-2.4.882 1.636 1.636 0 0 1-1.429.185l-1.669-.593a1.582 1.582 0 0 1-.968-2.024 1.888 1.888 0 0 0-.6-2.283c-1.828-1.481-3.136 1.568-4.181 1.656s-2.691-.176-2.516-1.572z" transform="translate(-3.974 -2.077)" style="stroke:#8d2947;fill:none;stroke-miterlimit:10;stroke-width:1.3px"/>
        <path data-name="Path 24994" d="M50.029 36.3s4.007 1.742 8.45-5.4 6.185 1.205 9.146 1.561 3.4.806 3.4.806.392 5.736-5.8 11.187c-6.049 5.324-17.66 5.934-23.759-.947a19.331 19.331 0 0 1-1.828-23.037c4.181-6.359 12.148-8.086 19.465-5.212" transform="translate(-3.419 -1.378)" style="stroke:#8d2947;fill:none;stroke-miterlimit:10;stroke-width:1.3px"/>
    </g>
</svg>
