<svg xmlns="http://www.w3.org/2000/svg" width="67.489" height="78.032" viewBox="0 0 67.489 78.032">
    <g data-name="TERMINATION OF PREGNANCY">
        <path data-name="Path 24975" d="M32.375.019s-.106 2.523 7.292 8.174C47.186 13.936 61.33 26.748 58.756 44.2S34.091 67.9 35.163 77.035H9.64c.429-6.264-5.147-9.42-8.364-19.361s.214-17.451 4.075-26.515S4.064 1.9 4.064 1.9z" transform="translate(0 .007)" style="fill:#d7f0fd"/>
        <path data-name="Path 24976" d="M7.185 3.017s5.3 20.192 1.326 29.257S1 48.849 4.313 58.79s9.058 13.1 8.615 19.36" transform="translate(-.17 -.163)" style="stroke:#003077;fill:none;stroke-miterlimit:10;stroke-width:1.3px"/>
        <path data-name="Path 24977" d="M37.341.022s-.108 2.523 7.51 8.174C52.6 13.939 67.163 26.751 64.512 44.2s-25.4 23.7-24.3 32.836" transform="translate(-2.11 .006)" style="stroke:#003077;fill:none;stroke-miterlimit:10;stroke-width:1.3px"/>
        <path data-name="Path 24978" d="M30.969 38.292s6.085-4.732 2.992-9.592-10.19-4.238-12 .1c-2.138 5.111 1.28 7.618 1.28 7.618s-3.092 11.262 3.534 16.563c5.8 4.636 12.942 3.7 14.5-.893a1.993 1.993 0 0 1 2.553-1.169c1.592.539 3.612.794 4.6-.809 1.767-2.872 3.093-7.732 0-7.069a9.223 9.223 0 0 0-3.037 1.119 2.071 2.071 0 0 1-1.812.233l-2.116-.752a2.005 2.005 0 0 1-1.227-2.565 2.392 2.392 0 0 0-.754-2.895c-2.319-1.878-3.976 1.988-5.3 2.1s-3.434-.22-3.213-1.989z" transform="translate(-1.201 -1.421)" style="stroke:#003077;fill:none;stroke-miterlimit:10;stroke-width:1.3px"/>
        <path data-name="Path 24979" d="M63.955 16.982c4.041 4.041 4.289 10.344.555 14.079s-10.038 3.486-14.079-.555-4.29-10.344-.555-14.079 10.038-3.486 14.079.555" transform="translate(-2.669 -.771)" style="fill:#d7f0fd"/>
        <path data-name="Path 24980" d="M31.473 45.211s5.081 2.209 10.713-6.848 7.842 1.528 11.6 1.979 4.314 1.021 4.314 1.021.5 7.273-7.355 14.185c-7.669 6.752-22.393 7.525-30.125-1.2a24.513 24.513 0 0 1-2.32-29.212c5.3-8.063 15.4-10.252 24.682-6.607" transform="translate(-.822 -.943)" style="stroke:#003077;fill:none;stroke-miterlimit:10;stroke-width:1.3px"/>
        <path data-name="Path 24981" d="M69.564 23.773A10.667 10.667 0 1 1 58.9 13.107a10.666 10.666 0 0 1 10.664 10.666z" transform="translate(-2.726 -.733)" style="stroke:#003077;fill:none;stroke-miterlimit:10;stroke-width:1.3px"/>
        <path data-name="Line 38" transform="translate(50.663 18.488)" style="stroke:#8e2a48;fill:none;stroke-miterlimit:10;stroke-width:1.3px" d="m0 0 10.588 9.107"/>
        <path data-name="Line 39" transform="translate(50.649 17.787)" style="stroke:#8e2a48;fill:none;stroke-miterlimit:10;stroke-width:1.3px" d="M10.618 0 0 10.19"/>
    </g>
</svg>
