<svg xmlns="http://www.w3.org/2000/svg" width="57.619" height="68.59" viewBox="0 0 57.619 68.59">
    <g data-name="VAGINAL DISCHARGE" transform="translate(-467.105 -7857.628)">
        <path data-name="Path 24927" d="M50.709.119s-.969 2.687.336 8.024c1.8 7.353 12.284 17.553 5.389 41.3-3.768 12.977-6.345 18.607-6.345 18.607h-37.08s-2.577-5.63-6.344-18.607C-.23 25.7 10.257 16.349 12.054 9A18.436 18.436 0 0 0 12.39.285z" transform="translate(465.969 7857.664)" style="fill:#d7f0fd"/>
        <path data-name="Path 24928" d="m38.076 54.066-.041-6.31s-3.587-1.489-3.954-6.934" transform="translate(456.076 7844.123)" style="stroke:#0b2c7b;fill:none;stroke-miterlimit:10;stroke-width:1.3px"/>
        <path data-name="Path 24929" d="M40.068 54.066v-6.31s3.9-1.008 4.94-6.934" transform="translate(454.084 7844.123)" style="stroke:#0b2c7b;fill:none;stroke-miterlimit:10;stroke-width:1.3px"/>
        <path data-name="Path 24930" d="M69.782.119a20.625 20.625 0 0 0 .336 9.122c1.8 7.136 12.3 17.036 5.4 40.084-3.774 12.594-6.354 18.059-6.354 18.059" transform="translate(444.404 7857.664)" style="stroke:#0b2c7b;fill:none;stroke-miterlimit:10;stroke-width:1.3px"/>
        <path data-name="Path 24931" d="M8.559 1.361a20.625 20.625 0 0 1-.336 9.122c-1.8 7.136-12.3 16.207-5.4 39.255C6.6 62.333 9.179 67.8 9.179 67.8" transform="translate(467.248 7857.251)" style="stroke:#0b2c7b;fill:none;stroke-miterlimit:10;stroke-width:1.3px"/>
        <path data-name="Path 24932" d="M40.068 64.342s.29 7.933.641 14.523a48.583 48.583 0 0 0 1.686 10.861" transform="translate(454.084 7836.297)" style="stroke:#0b2c7b;fill:none;stroke-miterlimit:10;stroke-width:1.3px"/>
        <path data-name="Path 24933" d="M39.181 64.342s.258 7.933-.092 14.523A48.583 48.583 0 0 1 37.4 89.726" transform="translate(454.97 7836.297)" style="stroke:#0b2c7b;fill:none;stroke-miterlimit:10;stroke-width:1.3px"/>
        <circle data-name="Ellipse 197" cx="1.628" cy="1.628" r="1.628" transform="translate(486.654 7889.829)" style="stroke:#8d2947;fill:none;stroke-miterlimit:10;stroke-width:1.3px"/>
        <path data-name="Path 24934" d="M46.643 54.1a2.055 2.055 0 1 1-2.055-2.055 2.055 2.055 0 0 1 2.055 2.055z" transform="translate(453.264 7840.389)" style="stroke:#8d2947;fill:none;stroke-miterlimit:10;stroke-width:1.3px"/>
        <path data-name="Path 24935" d="M36.441 54.016a.954.954 0 1 1-.954-.954.954.954 0 0 1 .954.954z" transform="translate(455.925 7840.05)" style="stroke:#8d2947;fill:none;stroke-miterlimit:10;stroke-width:1.3px"/>
    </g>
</svg>
