<svg xmlns="http://www.w3.org/2000/svg" width="316.356" height="406.994" viewBox="0 0 316.356 406.994">
    <g data-name="Group 7054" transform="translate(-485.595 -1534.684)">
        <path data-name="Path 3284" d="M234.128 9.712c-7.982 3.5-30.51 33.134-33.751 40.7 0 0-42.543-35.868-82.82 2.751 0 0-26.282-10.947-48.364 13.08s-83.377 94.4-59.1 190.3c22.765 89.909 84.039 54.317 84.039 54.317s49.114-31.061 25.725-90.692c-21.712-55.348 0-91.574 0-91.574s29.226-40.917 11.041-61.7c0 0 49.88-32.753 67.221 21.839 13.571 42.73 1.455 89.65 1.455 89.65s-32 94.969 2.166 168.066" transform="translate(505.303 1578.141)" style="fill:#d7f0fd"/>
        <path data-name="Path 3285" d="M57.893 353.769s-36.783-54.83-4.085-164.693c20.428-68.638-3.109-138-3.109-138s.5-6.416 34.236-41.143" transform="translate(666.678 1579.125)" style="stroke:#00356d;fill:none;stroke-miterlimit:10;stroke-width:4px"/>
        <path data-name="Path 3286" d="M252.232 6.779c-8.748 3.836-33.442 36.325-37 44.616 0 0-46.639-39.324-90.8 3.015 0 0-28.807-12.006-53.016 14.337S-19.987 172.233 6.631 277.361c24.954 98.563 92.125 59.548 92.125 59.548s53.843-34.054 28.2-99.418c-23.8-60.684 0-100.393 0-100.393s32.042-44.853 12.1-67.64c0 0 54.686-35.9 73.692 23.939 14.883 46.848 1.593 98.282 1.593 98.282s-35.085 104.114 2.376 184.245" transform="translate(487.254 1564.907)" style="stroke:#00356d;fill:none;stroke-miterlimit:10;stroke-width:4px"/>
        <path data-name="Path 3287" d="M89.791 32.65C85.646-2.595 34.84 3.1 34.84 3.1" transform="translate(642.205 1546.792)" style="stroke:#00356d;fill:none;stroke-miterlimit:10;stroke-width:4px"/>
        <path data-name="Path 3288" d="M46.651 11.68s42.19 5.562 35.074 48.281" transform="translate(695.498 1587.021)" style="stroke:#00356d;fill:none;stroke-miterlimit:10;stroke-width:4px"/>
        <path data-name="Path 3289" d="M79.153 30.057S75.228 13.35 52.27 14.584" transform="translate(720.852 1599.832)" style="stroke:#00356d;fill:none;stroke-miterlimit:10;stroke-width:4px"/>
        <path data-name="Path 3290" d="M44.809.242s8.671 15.666 0 36.309" transform="translate(687.186 1535.411)" style="stroke:#00356d;fill:none;stroke-miterlimit:10;stroke-width:4px"/>
        <path data-name="Path 3291" d="M44.13 62.811A21.131 21.131 0 1 1 23 41.683a21.128 21.128 0 0 1 21.13 21.128z" transform="translate(493.43 1722.4)" style="stroke:#902948;fill:none;stroke-miterlimit:10;stroke-width:4px"/>
        <path data-name="Path 3292" d="M66.218 66.2A27.817 27.817 0 1 1 38.4 38.383 27.819 27.819 0 0 1 66.218 66.2z" transform="translate(532.758 1707.51)" style="stroke:#902948;fill:none;stroke-miterlimit:10;stroke-width:4px"/>
        <circle data-name="Ellipse 191" cx="21.812" cy="21.812" r="21.812" transform="translate(506.545 1815.644)" style="stroke:#902948;fill:none;stroke-miterlimit:10;stroke-width:4px"/>
        <path data-name="Path 3293" d="M13.5 77.271a27.04 27.04 0 1 1 27.043 27.043A27.043 27.043 0 0 1 13.5 77.271z" transform="translate(545.924 1760.957)" style="stroke:#902948;fill:none;stroke-miterlimit:10;stroke-width:4px"/>
        <circle data-name="Ellipse 192" cx="23.818" cy="23.818" r="23.818" transform="translate(516.428 1698.258)" style="stroke:#902948;fill:none;stroke-miterlimit:10;stroke-width:4px"/>
    </g>
</svg>
