<svg xmlns="http://www.w3.org/2000/svg" width="363.581" height="394.407" viewBox="0 0 363.581 394.407">
    <g data-name="Group 7050">
        <path data-name="Path 24776" d="M70.985 218.5s-55.1-23.99-37.338-69.5c19.076-48.863 70.955-34.5 70.955-34.5C16.158 85.043 51.194 12.588 51.194 12.588H33.99S21.116 51.7 42.377 80.411c0 0 4.441 5.673-9.532 23.08C24.731 113.6 0 113.412 0 113.412l3.679 12.857 32.357-6.643S20.61 139.98 17.4 157.37c-2.04 11.072-.157 23.894 3.644 31.793 9.486 19.738 28.2 36.553 48.247 37.506z" transform="translate(0 59.896)" style="fill:#d7f0fd"/>
        <path data-name="Path 24777" d="M4.255 18.8s57.535-31.066 87.852-6.19 28.846 71.33 28.846 71.33-6.277 64.864 26.376 72.536c0 0 21.377 3.79 35.7-18.832 14.478-22.871 52.531-38.971 79.151-3.487 29.584 39.436-10.927 92.763-38.7 83.7-32.037-10.462-53.664-32.38-85.033-32.38-46.887 0-51.5 29.323-51.5 29.323s27.5 23.609 5.01 55.768c0 0 33.455 27.678 17.134 64.818S12.02 360.16 12.02 360.16l1.151-13.851s74.3 7.55 82.673-13.025c8.422-20.7 3.179-31.037 3.179-31.037S52.95 319.335 13.892 316.2l-.721-13.949s72.589-3 73.257-11.159c1.046-12.764-8.37-20.924-8.37-20.924s25.87-27.724-5.028-59.128c0 0-7.352-12.56 13.4-25.562 9.491-5.946 17.5-6.928 17.5-6.928s54.513-4.871 82.934 9.416c41.1 20.657 75.768-8.166 74.2-21.982-2.929-25.719-18.239-37.768-42.028-34.443-36.268 5.074-52.409 43.214-84.039 34.443s-26.847-55.17-26.248-68.77-4.818-66.277-44.7-73.315c-28.228-4.991-50.878 13.352-50.878 13.352z" transform="translate(20.476 13.542)" style="fill:#d7f0fd"/>
        <path data-name="Path 24778" d="M28.871 77.648c0 41.6 3.208 75.32 11.81 75.32s19.355-33.722 19.355-75.32V.375H28.871z" transform="translate(138.933 1.125)" style="fill:#d7f0fd"/>
        <path data-name="Path 24779" d="M60.036 116.611c0-45.248-9.9-76.227-20.215-76.227s-10.95 32.043-10.95 77.291l2.79 83h28.375z" transform="translate(138.933 193.657)" style="fill:#d7f0fd"/>
        <path data-name="Path 24780" d="M5.789 20.561s40.639-28.916 70.95-4.039S101.6 74.551 101.6 74.551s-5.7 74.594 35.408 75.727c0 0 20.622 2.371 40.209-15.891s53.824-36.936 78.73 5.613-12.845 81.731-41.511 76.076-46.236-39.343-77.43-36.024c-40.6 4.313-40.6 27.66-40.6 27.66" transform="translate(27.857 30.232)" style="stroke:#003a85;fill:none;stroke-miterlimit:10;stroke-width:4px"/>
        <path data-name="Path 24781" d="M27.739 205.306 26 66.911s0-27.55 16.589-27.511c16.53.041 16.5 25.126 16.5 25.126l5.853 140.865" transform="translate(125.122 188.931)" style="stroke:#003a85;fill:none;stroke-miterlimit:10;stroke-width:4px"/>
        <path data-name="Path 24782" d="M38.581.936c-2.982 21.389-9.125 83 41.133 107.456 66.073 32.153 75.78 108.037 26.643 144.631-26.643 19.843-52.513 39.192-62.586 64.12-11.607 28.73-5.022 71.467-5.022 71.467" transform="translate(176.321 3.825)" style="stroke:#003a85;fill:none;stroke-miterlimit:10;stroke-width:4px"/>
        <path data-name="Path 24783" d="m58.223.375-3.888 124.666s1.523 30.95-12.514 32.653S26.7 135.643 26.75 121.24s0-118.511 0-118.511" transform="translate(128.721 1.125)" style="stroke:#003a85;fill:none;stroke-miterlimit:10;stroke-width:4px"/>
        <path data-name="Path 24784" d="M19.369.375s32.426 28.637 0 49.293" transform="translate(93.207 1.125)" style="stroke:#003a85;fill:none;stroke-miterlimit:10;stroke-width:4px"/>
        <path data-name="Path 24785" d="M58.39 32.764S52.9 52.281 76.739 64.58c19.663 10.142 40.97 50.3 14.9 70.293s-85.85 18.349-85.85 18.349" transform="translate(27.857 156.988)" style="stroke:#003a85;fill:none;stroke-miterlimit:10;stroke-width:4px"/>
        <path data-name="Path 24786" d="M5.322 142.736s66.248 9 91.077-12.95c25.33-22.394 17.9-63.667-2.511-79.453" transform="translate(25.61 241.533)" style="stroke:#003a85;fill:none;stroke-miterlimit:10;stroke-width:4px"/>
        <path data-name="Path 24787" d="M25.923 12.587s-37.134 76.8 56.605 108.032c0 0-57.733-22.813-72.281 35.856s37.512 70.2 37.512 70.2" transform="translate(36.971 59.892)" style="stroke:#003a85;fill:none;stroke-miterlimit:10;stroke-width:4px"/>
        <path data-name="Path 24788" d="M5.789 58.976s29.677.883 48.021 0 22.929 14.043 22.929 14.043" transform="translate(27.857 282.945)" style="stroke:#003a85;fill:none;stroke-miterlimit:10;stroke-width:4px"/>
        <path data-name="Path 24789" d="M5.651 77.684s37.1-26.4 25.975-55.861" transform="translate(27.194 104.338)" style="stroke:#003a85;fill:none;stroke-miterlimit:10;stroke-width:4px"/>
        <path data-name="Path 24790" d="M30.257 38.915s33.24-8.1 56.78-6.579c16.542 1.069 24.173 11.235-.424 13.3-23.837 2.015-56.356-6.721-56.356-6.721z" transform="translate(145.602 154.015)" style="stroke:#902948;fill:none;stroke-miterlimit:10;stroke-width:4px"/>
        <path data-name="Path 24791" d="M59.787 39.117S21.4 24.156 21.4 38.071c0 13.81 29.793 2.627 38.384 1.046" transform="translate(102.997 154.018)" style="fill:#003a85"/>
        <path data-name="Path 24792" d="M28.365 61.1s20.622 2.371 40.209-15.891S122.4 8.27 147.306 50.815s-12.845 81.731-41.511 76.076-46.649-42.063-77.43-36.024" transform="translate(136.498 119.413)" style="stroke:#902948;fill:none;stroke-miterlimit:10;stroke-width:4px"/>
        <path data-name="Path 24793" d="M67.921.936S62.121 46.969 91 63.307c38.35 21.693 87.464 49.7 84.325 117.493s-33.577 90.147-47.172 100.883-46.934 28.09-51.118 50.177.9 57.587.9 57.587h-29.3v-45.404s.093-37.524 35.094-62.359 59.994-47.306 59.994-103.486c0-52.763-68.538-88.729-68.538-88.729S31.4 67.561 40.278.936z" transform="translate(188.113 3.825)" style="fill:#d7f0fd"/>
    </g>
</svg>
