<svg xmlns="http://www.w3.org/2000/svg" width="467.184" height="388.691" viewBox="0 0 467.184 388.691">
    <g data-name="Group 7052">
        <path data-name="Line 11" transform="translate(295.908 348.138)" style="stroke:#8f2947;fill:none;stroke-miterlimit:10;stroke-width:4px" d="m0 0 21.075 13.515"/>
        <path data-name="Line 12" transform="translate(309.369 331.11)" style="stroke:#8f2947;fill:none;stroke-miterlimit:10;stroke-width:4px" d="m0 0 21.324 13.125"/>
        <path data-name="Line 13" transform="translate(152.321 345.997)" style="stroke:#8f2947;fill:none;stroke-miterlimit:10;stroke-width:4px" d="M16.463 0 0 15.838"/>
        <path data-name="Line 14" transform="translate(132.079 324.676)" style="stroke:#8f2947;fill:none;stroke-miterlimit:10;stroke-width:4px" d="M21.324 0 0 8.2"/>
        <path data-name="Line 15" transform="translate(180.94 361.516)" style="stroke:#8f2947;fill:none;stroke-miterlimit:10;stroke-width:4px" d="M14.052 0 0 16.341"/>
        <path data-name="Line 16" transform="translate(272.797 361.455)" style="stroke:#8f2947;fill:none;stroke-miterlimit:10;stroke-width:4px" d="m0 0 14.764 16.404"/>
        <path data-name="Line 17" transform="translate(212.109 368.61)" style="stroke:#8f2947;fill:none;stroke-miterlimit:10;stroke-width:4px" d="M10.909 0 0 19.089"/>
        <path data-name="Line 18" transform="translate(249.833 368.016)" style="stroke:#8f2947;fill:none;stroke-miterlimit:10;stroke-width:4px" d="m0 0 8.2 19.684"/>
        <path data-name="Path 24794" d="M265.018 271s-47.568-14.764-96.406 4.656c-46.27 18.4-60.473 11.3-68.229 3.231s-9.5-9.654-14.154-17.727-12.319 11.143 3.28 24.6 23.282 28.641 10.874 39.945-40.316 1.616-43.415-41.98 21.71-90.422 43.415-117.872S137.6 109.348 131.4 62.521 73.9 22.157 94.9.354h11.53s-9.147 8.883 3.26 12.114 29.461 17.761 32.56 50.053-.5 70.889-33.585 111.336-43.947 85.654-40.843 105.03 15.506 48.437 23.257 38.749-3.1-20.988-9.3-27.45-17.058-35.523-3.1-41.98 20.158 6.457 23.257 12.92 8.5 14.657 22.081 15.4 30.642-8.947 44.6-12.178 52.117-19.6 96.406-4.832z" transform="translate(197.189 1.063)" style="fill:#d7f0fd"/>
        <path data-name="Path 24795" d="M5.647 271s47.568-14.764 96.406 4.656c46.27 18.4 60.473 11.3 68.229 3.231s9.5-9.654 14.154-17.727 12.319 11.143-3.28 24.6-23.282 28.641-10.874 39.945 40.316 1.616 43.415-41.98-21.71-90.422-43.415-117.872-37.216-56.51-31.013-103.337 57.5-40.364 36.5-62.167h-11.534s9.147 8.883-3.26 12.114-29.461 17.761-32.56 50.053.5 70.889 33.585 111.336 43.947 85.654 40.843 105.03-15.506 48.437-23.257 38.749 3.1-20.988 9.3-27.45 17.058-35.523 3.1-41.98-20.158 6.457-23.257 12.92-8.5 14.657-22.081 15.4-30.642-8.947-44.6-12.178-52.117-19.6-96.406-4.832z" transform="translate(-.954 1.063)" style="fill:#d7f0fd"/>
        <path data-name="Path 24796" d="M17.78 34.8s36.084 63.966 63.968 86.93 34.727 23.555 28.026 2.758S108 69.242 116.2 51.2 99.792.354 99.792.354h8.663s18.4 22.144 18.4 31.984-8.131 24.375-8.986 37.612-7.414 46.041 4.066 64.085-3.28 19.684-18.044 16.4S48.124 102.871 35 86.466 5.48 37.258 5.48 37.258z" transform="translate(-1.602 1.063)" style="fill:#d7f0fd"/>
        <path data-name="Path 24797" d="M184.1 34.8s-36.084 63.968-63.968 86.932S85.4 145.285 92.1 124.488s1.784-55.246-6.42-73.288S102.084.354 102.084.354h-8.663S75.02 22.5 75.02 32.338s8.131 24.375 8.986 37.612 7.414 46.041-4.066 64.085 3.28 19.684 18.044 16.4 55.768-47.564 68.888-63.968S196.4 37.258 196.4 37.258z" transform="translate(268.27 1.063)" style="fill:#d7f0fd"/>
        <path data-name="Path 24798" d="M271.353 276.74s-47.568-14.764-96.777 3.28-63.968 11.48-72.176 3.28-9.84-13.12-14.76-21.324-11.68 10.382 4.822 24.058 23.062 33.356 9.937 44.835-42.639 1.639-45.919-42.649 22.964-91.852 45.92-119.736 39.369-57.408 32.809-104.977S74.388 22.5 96.6.354" transform="translate(195.238 1.063)" style="stroke:#003a85;fill:none;stroke-miterlimit:10;stroke-width:4px"/>
        <path data-name="Path 24799" d="M4.807 276.74s47.568-14.764 96.777 3.28 63.968 11.485 72.173 3.28 9.84-13.12 14.76-21.324 11.68 10.382-4.822 24.058-23.062 33.356-9.937 44.835 42.644 1.64 45.924-42.649-22.964-91.852-45.924-119.736-39.369-57.408-32.809-104.977S201.772 22.5 179.56.354" transform="translate(-4.214 1.063)" style="stroke:#003a85;fill:none;stroke-miterlimit:10;stroke-width:4px"/>
        <path data-name="Path 24800" d="M84.953.354s6.4 12.988-3.2 21.1C73.273 28.619 47.9 49.543 43.095 59.28c-12.949 26.264-.015 63.182 7.448 75.8 19.206 32.462 14.984 25.073 25.61 38.954 33.561 43.825 32.877 93.8 32.252 119.819-.683 28.553-15.428 48.94-25.034 50.56 0 0 7.189 4.925 19.992-3.192 0 0 6.4 3.246 11.206-1.625a36.48 36.48 0 0 0 26.923 6.057s-25.917-10.377-27.674-49.164c-2.5-55.192 14.359-97.119 27.674-119.883 4.4-7.526 7.1-16.483 22.7-41.526 19.206-30.842 17.19-54.036 11.206-76.292-4.8-17.854-29.929-35.215-33.614-38.954-11.206-11.363-4.8-19.479-4.8-19.479z" transform="translate(122.972 1.063)" style="fill:#d7f0fd"/>
        <path data-name="Path 24801" d="M8 34.8s36.084 63.966 63.968 86.93 34.727 23.555 28.026 2.758-1.777-55.246 6.423-73.288S90.012.354 90.012.354" transform="translate(8.177 1.063)" style="stroke:#003a85;fill:none;stroke-miterlimit:10;stroke-width:4px"/>
        <path data-name="Path 24802" d="M176.958 34.8s-36.084 63.966-63.968 86.93-34.727 23.555-28.026 2.758 1.777-55.246-6.423-73.288S94.946.354 94.946.354" transform="translate(275.442 1.063)" style="stroke:#003a85;fill:none;stroke-miterlimit:10;stroke-width:4px"/>
        <path data-name="Path 24803" d="M85.467.354C88.02 14.3 86.766 16.69 76.34 24.138a192.923 192.923 0 0 0-21.319 18.045c-9.845 13.117-40.887 41.726 5.945 111.98 16.4 24.6 16.107 23.54 32.506 57.984 12.715 26.7 16.756 49.433 15.116 83.882-1.406 29.49-22.4 52.884-33.888 47.959 0 0 19.684 13.125 38.139 5.989 0 0 6.15 7.136 12.71-1.064 0 0 22.964 11.48 39.369-4.925 0 0-36.855-.693-38.5-46.622-1.835-51.463 8.912-79.523 31.188-121.762 11.87-22.5 33.985-47.8 36.836-82.574 4.158-50.682-29.871-67.868-39.364-75.453 0 0-10.567-8.2-2-17.224" transform="translate(116.08 1.063)" style="stroke:#8f2947;fill:none;stroke-miterlimit:10;stroke-width:4px"/>
    </g>
</svg>
