<svg xmlns="http://www.w3.org/2000/svg" width="368.799" height="360.457" viewBox="0 0 368.799 360.457">
    <g data-name="Group 7053">
        <path data-name="Path 3268" d="m32.7 247.872 34.138 57.9s4.357 18.587 26.55 20.293c15.772 1.215-3.416-25.6-3.416-25.6l-25.609-52.593s50.838-20.341 20.324-72.329c0 0 23.731-30.514-1.131-62.156l6.779-10.173s17.946 10.173 40.617 0c0 0 36.414 39.556 77.574 0 0 0 37.771 12.431 54.723-10.169 0 0 1.127 13.558 7.91 20.341 0 0-22.6 31.959 0 60.052 0 0-20.341 25.834-6.783 47.307 0 0-24.862 14.694-25.994 40.687 0 0-43.171 2.258-52.1 24.862s5.763 29.383 10.283 30.514 18.083 4.521 22.6-13.562c0 0 20.341-9.042 40.683-1.131 0 0 29.383 15.821 49.729 0s20.341-35.035 18.079-55.377c0 0 23.735-7.91 25.994-36.162s-12.431-37.293-12.431-37.293 10.739-8.476 13-27.69c2.784-23.678-13-35.6-13-35.6s14.128-7.349 8.476-37.863-31.076-32.207-31.076-32.207-2.263-28.252-29.388-37.293S242.9 16.2 242.9 16.2s-32.578-7.327-47.93 18.375c0 0-27.788-13.854-44.74 1.967 0 0-14.689-29.383-48.593-20.341 0 0-17.637-21.486-49.163-13-29.383 7.91-32.207 41.249-32.207 41.249s-30.514 21.473-6.779 67.808c0 0-23.735 35.035 2.258 63.287 0 0-36.162 33.9 16.952 72.329" transform="translate(12.238 1.545)" style="fill:#fff"/>
        <path data-name="Path 3269" d="m33.441 231.213 23.9 55.938s6.545 21.141 28.733 21.141c14.521 0 .3-20.125.3-20.125L62.5 231.213s46.653-18.667 18.653-66.376c0 0 21.778-28-1.039-57.043l6.222-9.333s16.47 9.333 37.276 0c0 0 33.413 36.3 71.184 0 0 0 34.664 11.41 50.219-9.333 0 0 1.038 12.444 7.261 18.667 0 0-20.744 29.33 0 55.116 0 0-18.671 23.7-6.222 43.414 0 0-22.816 13.478-23.855 37.333 0 0-39.618 2.077-47.811 22.816s5.29 26.966 9.435 28 16.594 4.15 20.744-12.444c0 0 18.671-8.3 37.338-1.039 0 0 26.966 14.521 45.632 0s18.667-32.149 16.594-50.82c0 0 21.778-7.261 23.855-33.188s-11.41-34.222-11.41-34.222 9.855-7.778 11.927-25.41c2.559-21.729-11.927-32.671-11.927-32.671s12.966-6.739 7.778-34.743-28.517-29.555-28.517-29.555-2.077-25.927-26.966-34.226S226.346 18.6 226.346 18.6s-29.9-6.717-43.988 16.864c0 0-25.5-12.714-41.058 1.807 0 0-13.483-26.966-44.594-18.671 0 0-16.187-19.714-45.115-11.927-26.966 7.263-29.56 37.857-29.56 37.857s-28 19.71-6.222 62.231c0 0-21.778 32.149 2.077 58.077 0 0-33.188 31.115 15.555 66.376" transform="translate(22.965 14.196)" style="fill:#d7f0fd"/>
        <path data-name="Path 3270" d="M32.7 247.872s22.312 45.028 25.693 58.559c1.71 6.828 11.49 22.193 27.31 22.193s15.317-14.477 4.242-21.751-25.583-59-25.583-59 50.838-20.341 20.324-72.329c0 0 23.731-30.514-1.131-62.156l6.779-10.173s17.946 10.173 40.617 0c0 0 36.414 39.556 77.574 0 0 0 37.771 12.431 54.723-10.169 0 0 1.127 13.558 7.91 20.341 0 0-22.6 31.959 0 60.052 0 0-20.341 25.834-6.783 47.307 0 0-24.862 14.694-25.994 40.687 0 0-43.171 2.258-52.1 24.862s5.763 29.383 10.283 30.514 18.083 4.521 22.6-13.562c0 0 20.341-9.042 40.683-1.131 0 0 29.383 15.821 49.729 0s20.341-35.035 18.079-55.377c0 0 23.735-7.91 25.994-36.162s-12.431-37.293-12.431-37.293 10.739-8.476 13-27.69c2.784-23.678-13-35.6-13-35.6s14.128-7.349 8.476-37.863-31.076-32.207-31.076-32.207-2.263-28.252-29.388-37.293S242.9 16.2 242.9 16.2s-32.578-7.327-47.93 18.375c0 0-27.788-13.854-44.74 1.967 0 0-14.689-29.383-48.593-20.341 0 0-17.637-21.486-49.163-13-29.383 7.91-32.207 41.249-32.207 41.249s-30.514 21.473-6.779 67.808c0 0-23.735 35.035 2.258 63.287.002-.001-36.16 33.902 16.954 72.327z" transform="translate(12.238 1.545)" style="stroke:#003a85;fill:none;stroke-miterlimit:10;stroke-width:4px"/>
        <path data-name="Path 3271" d="M14.052 59.3S24.3 95.147 45.106 115.387" transform="translate(48.047 202.589)" style="stroke:#8f2947;fill:none;stroke-miterlimit:10;stroke-width:4px"/>
        <path data-name="Line 11" transform="translate(115.484 271.401)" style="stroke:#8f2947;fill:none;stroke-miterlimit:10;stroke-width:4px" d="M0 6.58 25.79 0"/>
        <path data-name="Line 12" transform="translate(16.01 286.52)" style="stroke:#8f2947;fill:none;stroke-miterlimit:10;stroke-width:4px" d="M20.501 0 0 11.216"/>
        <path data-name="Line 13" transform="translate(0 262.743)" style="stroke:#8f2947;fill:none;stroke-miterlimit:10;stroke-width:4px" d="M24.853 0H0"/>
        <path data-name="Line 14" transform="translate(104.773 236.284)" style="stroke:#8f2947;fill:none;stroke-miterlimit:10;stroke-width:4px" d="M0 17.071 15.361 0"/>
        <path data-name="Line 15" transform="translate(111.602 338.464)" style="stroke:#8f2947;fill:none;stroke-miterlimit:10;stroke-width:4px" d="m0 0 17.071 20.721"/>
        <path data-name="Line 16" transform="translate(37.758 311.149)" style="stroke:#8f2947;fill:none;stroke-miterlimit:10;stroke-width:4px" d="M15.807 0 0 19.144"/>
        <path data-name="Line 17" transform="translate(69.863 334.289)" style="stroke:#8f2947;fill:none;stroke-miterlimit:10;stroke-width:4px" d="M6.218 0 0 24.071"/>
        <path data-name="Line 18" transform="translate(124.334 309.197)" style="stroke:#8f2947;fill:none;stroke-miterlimit:10;stroke-width:4px" d="m0 0 26.63 5.608"/>
    </g>
</svg>
