<svg xmlns="http://www.w3.org/2000/svg" width="487.518" height="355.93" viewBox="0 0 487.518 355.93">
    <g data-name="Group 7059">
        <path data-name="Line 19" transform="translate(225.475 176.23)" style="stroke:#8f2947;fill:none;stroke-miterlimit:10" d="M36.563 0H0"/>
        <path data-name="Path 24804" d="M213.751 314.806s8.52-19.063 1.7-36.535-5.109-23.823-6.817-39.708-5.109-23.828-8.52-34.943 1.708-30.184 5.114-44.477-3.341-19.058-11.041-31.766-6-12.707-11.111-22.241-5.106-23.823-28.961-11.116-58.329 39.708-83.888 9.529c0 0-69.859 9.529-68.156-44.477s68.156-57.18 109.051-25.414 55.407-7.366 79.672-20.361S267.879.3 295.14 22.542s49.414 22.236 81.785 1.587 90.309-12.707 86.9 22.236-20.445 52.42-44.3 54.007l-23.856 1.591s-12.777 27.8-48.558 7.147-44.3-20.65-44.3-20.65-13.633 28.592-20.45 34.943-17.309 19.063-11.209 32.561 9.506 40.5 2.689 57.98-5.109 6.351-5.109 22.236-10.223 41.3-8.52 54.007 2.792 20.65 4.806 24.619c0 0-21.45-18.267-51.266 0" transform="translate(7.129 16.028)" style="fill:#d7f0fd"/>
        <path data-name="Path 24805" d="M212.766 348.948s8.92-21.4 1.782-41.02-5.351-26.754-7.133-44.589-5.351-26.75-8.915-39.238 1.782-33.883 5.346-49.935-3.494-21.4-11.553-35.669-6.281-14.271-11.632-24.972-5.346-26.75-30.318-12.484-51.722 44.589-78.472 10.7c0 0-73.125 10.7-71.339-49.935S71.871-2.4 114.673 33.27s58-8.273 83.4-22.864 80.681-14.592 109.218 10.375 51.722 24.972 85.609 1.787S487.424 8.3 483.86 47.535s-21.4 58.855-46.371 60.642l-24.972 1.782s-13.373 31.212-50.829 8.026S315.317 94.8 315.317 94.8s-14.266 32.1-21.4 39.234-18.118 21.4-11.735 36.563 9.953 45.482 2.82 65.1-5.351 7.133-5.351 24.968-10.7 46.371-8.92 60.642 2.927 23.186 5.03 27.643c-.003-.002-31.783-20.513-62.995-.002z" transform="translate(1.502 1.508)" style="stroke-width:4px;stroke:#003a85;fill:none;stroke-miterlimit:10"/>
        <path data-name="Path 24806" d="M7.626 19.83S20.11-5.137 62.917 16.262c34.139 17.072 37.451 46.371 71.339 30.323s30.318 16.048-8.92 23.186S87.885 48.367 62.917 55.5-4.857 43.016 7.626 19.83z" transform="translate(19.377 27.426)" style="stroke-width:4px;stroke:#003a85;fill:none;stroke-miterlimit:10"/>
        <path data-name="Path 24807" d="M217.281 19.83S204.8-5.137 161.99 16.262c-34.139 17.072-37.451 46.371-71.339 30.323s-30.318 16.048 8.92 23.185 37.451-21.4 62.419-14.271 67.774-12.483 55.291-35.669z" transform="translate(246.209 27.426)" style="stroke-width:4px;stroke:#003a85;fill:none;stroke-miterlimit:10"/>
        <path data-name="Path 24808" d="M40.179 31.908S56.348 6.084 97.312 9.187s56.617 22.72 56.617 22.72" transform="translate(146.447 32.295)" style="stroke-width:4px;stroke:#8f2947;fill:none;stroke-miterlimit:10"/>
        <path data-name="Path 24809" d="M43.629 20s30.318 41.02 30.318 115.928" transform="translate(159.049 72.739)" style="stroke-width:4px;stroke:#8f2947;fill:none;stroke-miterlimit:10"/>
        <path data-name="Path 24810" d="M86.849 19.233S58.313 49.551 54.744 144.08" transform="translate(199.653 69.937)" style="stroke-width:4px;stroke:#8f2947;fill:none;stroke-miterlimit:10"/>
        <path data-name="Line 20" transform="translate(208.487 260.992)" style="stroke-width:4px;stroke:#8f2947;fill:none;stroke-miterlimit:10" d="M0 0h28.969"/>
        <path data-name="Line 21" transform="translate(211.108 291.242)" style="stroke-width:4px;stroke:#8f2947;fill:none;stroke-miterlimit:10" d="M33.482 0H0"/>
        <path data-name="Path 24811" d="M17.558 48.821S5.531 23.188 37.85 17.725" transform="translate(55.815 64.429)" style="stroke-width:4px;stroke:#003a85;fill:none;stroke-miterlimit:10"/>
        <path data-name="Path 24812" d="M89.051 45.532s15.159-13.377 0-27.4" transform="translate(324.973 65.93)" style="stroke-width:4px;stroke:#003a85;fill:none;stroke-miterlimit:10"/>
    </g>
</svg>
