<svg xmlns="http://www.w3.org/2000/svg" width="385.292" height="555.488" viewBox="0 0 385.292 555.488">
    <g data-name="NASAL SEPTUM DEVIATION">
        <path data-name="Path 25331" d="M123.9.129s9.486 161.716-18.4 203.8c-34.493 52.059-23 132.339-23 132.339S-.724 347.533 4.124 433.594c4.6 81.634 99.085 74.735 99.085 74.735s110.378-6.771 144.872 1.214 117.3-16.493 117.277-80.88c-.019-46.036-6.79-69.977-45.882-85.907-48.3-19.687-50.7-6.892-50.7-6.892s11.5-66.112-16.1-131.937-11.5-203.8-11.5-203.8" transform="translate(19.934 1.385)" style="fill:#d6f0fc"/>
        <path data-name="Path 25332" d="M120.485.058s9.486 161.716-18.4 203.8c-34.493 52.059-23 132.339-23 132.339S-4.144 347.462.7 433.523c4.6 81.634 99.085 74.735 99.085 74.735s110.378-6.771 144.872 1.214 117.3-21.667 117.277-86.054c-.019-46.036-15.6-61.417-33.918-74.16-26.445-18.4-62.663-13.465-62.663-13.465s11.5-66.112-16.1-131.937-11.5-203.8-11.5-203.8" transform="translate(1.508 1.002)" style="stroke-width:4px;stroke:#003a85;fill:none;stroke-miterlimit:10"/>
        <path data-name="Path 25333" d="M7.914 73.6s40.855 2.261 67.837 48.674c28.744 49.44 91.982 42.542 116.625-1.175 18.211-32.3 15.6-49.76 77.686-47.358" transform="translate(41.453 396.799)" style="fill:#d7f0fd;stroke:#707070;stroke-width:4px"/>
        <path data-name="Path 25334" d="M7.914 73.6s40.855 2.261 67.837 48.674c28.744 49.44 91.982 42.542 116.625-1.175 18.211-32.3 15.6-49.76 77.686-47.358" transform="translate(41.453 396.799)" style="stroke-width:4px;stroke:#003a85;fill:none;stroke-miterlimit:10"/>
        <path data-name="Path 25335" d="M54.123 15.107v116.7c0 2.287-.115 13.242-.1 15.528.141 28.738-6.439 39.2-20.715 70.532-14.9 32.692-6.471 47.767 3.29 68.584 12.941 27.595 7.084 86.808 7.084 86.808" transform="translate(134.66 82.08)" style="stroke:#8e2a48;stroke-width:4px;fill:none;stroke-miterlimit:10"/>
        <path data-name="Path 25336" d="M52.123 15.107v116.7c0 2.287-.115 13.242-.1 15.528.141 28.738-6.439 39.2-20.715 70.532-14.9 32.692-6.471 47.767 3.29 68.584 12.941 27.595 7.084 86.808 7.084 86.808" transform="translate(123.885 82.08)" style="stroke:#8e2a48;stroke-width:4px;fill:none;stroke-miterlimit:10"/>
    </g>
</svg>
