<svg xmlns="http://www.w3.org/2000/svg" width="508.368" height="522.789" viewBox="0 0 508.368 522.789">
    <g data-name="Group 7091" transform="translate(-420.686 -11896.774)">
        <path data-name="Path 25017" d="M24.674 12.259s-14.056 67.465 13.12 102.132l27.17 34.667 8.436-13.114s-12.182 8.428-10.308 47.786 6.56 75.894 71.214 109.629 55.283 83.39 55.283 83.39H228s-14.994-64.654 56.22-88.076 72.151-104.007 56.22-148.982c0 0 3.748 13.114 15.931 2.811s49.575-52.472 36.462-130.245c0 0-14.994-16.868-31.861 0 0 0-2.726 44.975-6.474 57.157s-26.239 36.541-35.61 35.6c0 0-35.6-36.541-112.435-39.352S93.077 111.58 93.077 111.58 51.845 91.9 52.782 58.171s.937-44.038.937-44.038-9.366-13.119-29.045-1.874" transform="translate(518.301 11918.273)" style="fill:#d7f0fd"/>
        <path data-name="Rectangle 1484" transform="translate(436.998 12060.92)" style="stroke-width:4px;stroke:#08297e;fill:none;stroke-miterlimit:10" d="M0 0h31.691v207.525H0z"/>
        <path data-name="Path 25018" d="M14.265 118.739 3.02 65.58h31.691l-10.223 53.159z" transform="translate(433.977 12202.864)" style="stroke-width:4px;stroke:#08297e;fill:none;stroke-miterlimit:10"/>
        <path data-name="Path 25019" d="M60.815 69.1a30.158 30.158 0 1 1-30.157-30.16A30.155 30.155 0 0 1 60.815 69.1" transform="translate(422.186 12078.205)" style="fill:#fff;stroke:#707070;stroke-width:4px"/>
        <circle data-name="Ellipse 198" cx="30.158" cy="30.158" r="30.158" transform="translate(422.686 12117.145)" style="stroke-width:4px;stroke:#08297e;fill:none;stroke-miterlimit:10"/>
        <path data-name="Path 25020" d="M193.741 33.35s36.473 63.547 51.8 90.473c14.085 24.751 44.055 101.218 32.94 145.165-19.651 77.694-83.033 105.3-159.7 94.051C42.851 351.9 5.81 268.988 5.81 268.988" transform="translate(447.033 12052.048)" style="stroke-width:4px;stroke:#08297e;fill:none;stroke-miterlimit:10"/>
        <path data-name="Line 40" transform="translate(436.998 12075.166)" style="stroke-width:4px;stroke:#08297e;fill:none;stroke-miterlimit:10" d="M0 0h31.691"/>
        <path data-name="Line 41" transform="translate(436.998 12093.405)" style="stroke-width:4px;stroke:#08297e;fill:none;stroke-miterlimit:10" d="M0 0h31.691"/>
        <path data-name="Rectangle 1485" transform="translate(438.701 12141.794)" style="stroke-width:4px;stroke:#08297e;fill:none;stroke-miterlimit:10" d="M0 0h29.987v12.949H0z"/>
        <path data-name="Path 25021" d="M56.2 37.582C59.82 44.4 58.645 52.1 53.573 54.8s-12.114-.653-15.732-7.468-2.441-14.526 2.63-17.218 12.114.653 15.729 7.468z" transform="translate(587.104 12032.549)" style="stroke:#8f2947;stroke-width:4px;fill:none;stroke-miterlimit:10"/>
        <path data-name="Path 25022" d="M244.143 406.349s-16.357-70.538 61.337-96.1 78.72-113.47 61.338-162.539c0 0 4.089 14.312 17.379 3.067s48.048-57.248 33.736-142.1c0 0-16.357-18.4-34.758 0 0 0 3.067 49.07-1.022 62.36s-28.624 39.869-38.847 38.847c0 0-38.847-39.869-122.675-42.936s-123.7 50.092-123.7 50.092-44.978-21.467-43.956-58.27S54 10.723 54 10.723 43.775-3.589 22.307 8.678c0 0-15.334 73.6 14.312 111.429l29.646 37.825 9.2-14.312s-13.29 9.2-11.245 52.137 7.156 82.805 77.694 119.608 60.315 90.984 60.315 90.984" transform="translate(505.674 11898.33)" style="stroke-width:4px;stroke:#08297e;fill:none;stroke-miterlimit:10"/>
    </g>
</svg>
