<svg xmlns="http://www.w3.org/2000/svg" width="415.166" height="472.978" viewBox="0 0 415.166 472.978">
    <g data-name="Group 7090">
        <path data-name="Path 3308" d="M216.259.361c-3.636 4.866-24.545 52.731-20.91 98.185s-4.544 146.734-4.544 146.734c22.727 24.908 4.544 42.467 4.544 42.467 9.089 74.651-8.185 109.909-36.366 140.821s-43.187 6.362-43.187 6.362c-4.09 13.638-27.726 10-27.726 10-74.549-34.544-54.65-157.182-54.65-157.182-12.832-20.808 8.28-42.468 8.28-42.468-15.456-40.553-4.544-134-4.544-134S46.251 21.27 24.428.361" transform="translate(99.761 1.083)" style="fill:#d7f0fd"/>
        <path data-name="Path 3309" d="M48 3.24s27.044 52.792-19.83 136.941c-71.419 128.229 8.507 202.314 91.53 167.74" transform="translate(1.509 12.905)" style="stroke:#08297e;fill:none;stroke-miterlimit:10;stroke-width:4px"/>
        <path data-name="Path 3310" d="M122 305.917c-83.02 34.573-162.951-39.511-91.527-167.74C77.346 54.028 50.3 1.236 50.3 1.236h74.677s21.842 37.564 10.762 117.946 6.515 112.273 6.515 112.273z" transform="translate(10.952 4.676)" style="fill:#d7f0fd"/>
        <path data-name="Path 3311" d="M71.541 305.917c83.02 34.573 162.951-39.511 91.527-167.74C116.194 54.028 143.236 1.236 143.236 1.236H68.559S46.72 38.8 57.8 119.182s-6.515 112.273-6.515 112.273z" transform="translate(210.038 4.676)" style="fill:#d7f0fd"/>
        <path data-name="Path 3312" d="M224.742.361c-3.835 5.132-25.9 55.631-22.058 103.587s-4.8 154.8-4.8 154.8c23.978 26.276 4.8 44.806 4.8 44.806 9.589 78.757-8.634 115.949-38.367 148.562s-45.562 6.715-45.562 6.715C114.44 473.222 89.5 469.382 89.5 469.382c-78.647-36.447-57.651-165.826-57.651-165.826-13.536-21.956 8.737-44.806 8.737-44.806-16.3-42.779-4.795-141.373-4.795-141.373S45.38 22.419 22.362.361" transform="translate(91.276 1.083)" style="stroke:#08297e;fill:none;stroke-miterlimit:10;stroke-width:4px"/>
        <path data-name="Path 3313" d="M24.22 78.214s84.138-51.689 170.835 0" transform="translate(98.905 226.425)" style="stroke:#08297e;fill:none;stroke-miterlimit:10;stroke-width:4px"/>
        <path data-name="Path 3314" d="M25.931 64.2s79.609-37.029 157.3 0" transform="translate(105.931 195.634)" style="stroke:#08297e;fill:none;stroke-miterlimit:10;stroke-width:4px"/>
        <path data-name="Path 3315" d="M30.725 47.322s-7.894 18.7 0 35.007" transform="translate(111.212 193.91)" style="stroke:#8f2947;fill:none;stroke-miterlimit:10;stroke-width:4px"/>
        <path data-name="Path 3316" d="M35.772 46.334a36.032 36.032 0 0 0 0 31.9" transform="translate(131.103 189.853)" style="stroke:#8f2947;fill:none;stroke-miterlimit:10;stroke-width:4px"/>
        <path data-name="Path 3317" d="M39.773 45.349s-7.194 20.144 0 30.693" transform="translate(149.64 185.809)" style="stroke:#8f2947;fill:none;stroke-miterlimit:10;stroke-width:4px"/>
        <path data-name="Path 3318" d="M41.241 45.349s.96 22.819 0 28.676" transform="translate(168.796 185.809)" style="stroke:#8f2947;fill:none;stroke-miterlimit:10;stroke-width:4px"/>
        <path data-name="Path 3319" d="M45.091 45.349a53.648 53.648 0 0 1 0 28.676" transform="translate(184.604 185.809)" style="stroke:#8f2947;fill:none;stroke-miterlimit:10;stroke-width:4px"/>
        <path data-name="Path 3320" d="M49.694 46.334s6.709 15.594 0 29.023" transform="translate(203.505 189.853)" style="stroke:#8f2947;fill:none;stroke-miterlimit:10;stroke-width:4px"/>
        <path data-name="Path 3321" d="M54.484 48.157s5.27 15.395 0 28.824" transform="translate(223.173 197.338)" style="stroke:#8f2947;fill:none;stroke-miterlimit:10;stroke-width:4px"/>
        <path data-name="Path 3322" d="M129.372 3.24S102.33 56.032 149.2 140.181c71.419 128.23-8.507 202.314-91.527 167.741" transform="translate(236.284 12.905)" style="stroke:#08297e;fill:none;stroke-miterlimit:10;stroke-width:4px"/>
    </g>
</svg>
