<svg xmlns="http://www.w3.org/2000/svg" width="343.793" height="493.756" viewBox="0 0 343.793 493.756">
    <g data-name="Group 7126">
        <path data-name="Path 25395" d="M143.007 26.559s-7.321-23.82-41.416-9.809-59.322 48.11-63.068 71.464L23.582 56.453 9.106 69.532s28.486 28.026 20.084 68.2-56.319 124.258 13.545 213.462 140.125 108.492 183.1 111S321.6 403.046 321.6 313.83s-11.211-206-100.9-227.013L269.282 72.8 245.923 6.94s-63.994 6.54-113.972 51.851S115.6 167.626 72.623 184.44s-26.763-8.68-26.763-8.68 31.274-16.151 39.254-56.85 9.157-73.2 57.893-92.352" transform="translate(22.194 29.373)" style="fill:#def2fc"/>
        <path data-name="Path 25396" d="M81.771 155.925s-67.264-7.476-52.317-87.814L5.4 49.659l17.515-21.722 20.673 16.815L57.25 34.246 48.838 7.617 76.168.612l5.6 24.526h18.918L104.9.612l25.222 5.6-4.907 27.33a37.271 37.271 0 0 1 17.6 14.786" transform="translate(22.39 1.836)" style="stroke:#2d388c;fill:none;stroke-miterlimit:10;stroke-width:4px"/>
        <path data-name="Path 25397" d="M204.01 74.95c86.181.7 117.012 101.594 119.811 209.5s-64.149 157.641-92.25 157.79c-25.693.134-101.128 6.861-178.9-94.733s-50.449-154.146-27.325-213S.817 46.924.817 46.924l36.867-35.379" transform="translate(2.451 49.412)" style="stroke:#2d388c;fill:none;stroke-miterlimit:10;stroke-width:4px"/>
        <path data-name="Path 25398" d="M6.84 191.876S72 199.582 81.81 109.2 210.033 4.8 210.033 4.8l27.325 71.465S126.65 83.27 154.677 229.71" transform="translate(28.66 20.068)" style="stroke:#2d388c;fill:none;stroke-miterlimit:10;stroke-width:4px"/>
        <path data-name="Path 25399" d="M8.511 87.385h31.676l9.387-25.811L61.3 119.061l11.735-33.437 25.811.589L114.1 51.8l11.8 61.984 9.312-28.352h27.571" transform="translate(35.934 224.57)" style="stroke:#a03b59;fill:none;stroke-miterlimit:10;stroke-width:4px"/>
    </g>
</svg>
