<svg xmlns="http://www.w3.org/2000/svg" width="46.797" height="67.16" viewBox="0 0 46.797 67.16">
    <g data-name="Group 7127">
        <path data-name="Path 25395" d="M23.842 9.575s-.983-3.2-5.562-1.317-7.967 6.462-8.47 9.6L7.8 13.59l-1.942 1.756a10.609 10.609 0 0 1 2.7 9.16C7.425 29.9.991 41.195 10.374 53.175s18.82 14.571 24.591 14.908 12.862-7.944 12.862-19.926-1.505-27.667-13.551-30.489l6.524-1.882-3.136-8.846a29.793 29.793 0 0 0-15.307 6.96c-6.713 6.085-2.2 14.617-7.968 16.875s-3.594-1.166-3.594-1.166a11.286 11.286 0 0 0 5.272-7.635c1.072-5.465 1.23-9.831 7.775-12.4" transform="translate(-1.031 -1.598)" style="fill:#def2fc"/>
        <path data-name="Path 25396" d="M15.656 21.471s-9.034-1-7.026-11.794L5.4 7.2l2.351-2.918 2.777 2.258 1.835-1.411-1.13-3.576L14.9.612l.753 3.294H18.2l.562-3.294 3.387.753-.659 3.67a5.006 5.006 0 0 1 2.363 1.986" transform="translate(-1.044 .183)" style="stroke:#2d388c;fill:none;stroke-miterlimit:10;stroke-width:1.3px"/>
        <path data-name="Path 25397" d="M28.107 20.061C39.682 20.155 43.822 33.705 44.2 48.2s-8.617 21.169-12.391 21.19c-3.451.018-13.582.921-24.028-12.723s-6.776-20.7-3.67-28.607S.817 16.3.817 16.3l4.951-4.752" transform="translate(.245 -2.891)" style="stroke:#2d388c;fill:none;stroke-miterlimit:10;stroke-width:1.3px"/>
        <path data-name="Path 25398" d="M6.84 29.927s8.751 1.035 10.069-11.1S34.13 4.8 34.13 4.8l3.67 9.6s-14.869.941-11.1 20.609" transform="translate(-1.449 -.995)" style="stroke:#2d388c;fill:none;stroke-miterlimit:10;stroke-width:1.3px"/>
        <path data-name="Path 25399" d="M8.511 56.577h4.254l1.261-3.467 1.574 7.721 1.575-4.491 3.467.079 2.05-4.619 1.586 8.325 1.251-3.808h3.7" transform="translate(-1.919 -14.214)" style="stroke:#a03b59;fill:none;stroke-miterlimit:10;stroke-width:1.3px"/>
    </g>
</svg>
