<svg xmlns="http://www.w3.org/2000/svg" width="505.218" height="517.727" viewBox="0 0 505.218 517.727">
    <g data-name="Group 7107" transform="translate(-80.492 -17442.59)">
        <path data-name="Path 25115" d="M58.258 1.241s65.469 130.792-12.124 259.3-26.673 242.467-26.673 242.467h452.653s50.914-113.96-26.672-242.467-12.124-259.3-12.124-259.3z" transform="translate(97.195 17449.287)" style="fill:#d6f0fc"/>
        <path data-name="Path 25116" d="M57.246.224S124.55 134.686 44.783 266.8s-27.42 249.274-27.42 249.274" transform="translate(82.025 17443.262)" style="stroke:#003a85;fill:none;stroke-miterlimit:10;stroke-width:4px"/>
        <path data-name="Path 25117" d="M126.969 516.075s52.348-117.159-27.42-249.275S87.085.224 87.085.224" transform="translate(437.777 17443.262)" style="stroke:#003a85;fill:none;stroke-miterlimit:10;stroke-width:4px"/>
        <path data-name="Path 25118" d="M24.375 54.863s246.825 81.077 419.61-16.14L469.2 90.42 246.789 225.678 2.411 107.266z" transform="translate(93.348 17671.34)" style="stroke:#003a85;fill:none;stroke-miterlimit:10;stroke-width:4px"/>
        <path data-name="Line 43" transform="translate(339.527 17897.018)" style="stroke:#003a85;fill:none;stroke-miterlimit:10;stroke-width:4px" d="M0 62.318V0"/>
        <path data-name="Path 25119" d="M34.716 1.823s40.639 170.635-23.681 255.505" transform="translate(144.439 17452.734)" style="stroke:#8e2a48;fill:none;stroke-miterlimit:10;stroke-width:4px"/>
        <path data-name="Path 25120" d="M67.979 1.823S27.341 172.458 91.66 257.328" transform="translate(406.766 17452.734)" style="stroke:#8e2a48;fill:none;stroke-miterlimit:10;stroke-width:4px"/>
        <path data-name="Path 25121" d="M17.335 38.723s133.361 49.855 262.984 0" transform="translate(181.762 17671.34)" style="stroke:#8e2a48;fill:none;stroke-miterlimit:10;stroke-width:4px"/>
        <path data-name="Path 25122" d="M78.815 53.69S98.148 139.5 64.5 199.328" transform="translate(461.156 17760.008)" style="stroke:#8e2a48;fill:none;stroke-miterlimit:10;stroke-width:4px"/>
        <path data-name="Path 25123" d="M12.04 53.69S-7.292 139.5 26.36 199.328" transform="translate(117.654 17760.008)" style="stroke:#8e2a48;fill:none;stroke-miterlimit:10;stroke-width:4px"/>
        <ellipse data-name="Ellipse 204" cx="7.264" cy="18.072" rx="7.264" ry="18.072" transform="translate(329.15 17655.223)" style="stroke:#003a85;fill:none;stroke-miterlimit:10;stroke-width:4px"/>
    </g>
</svg>
