<svg xmlns="http://www.w3.org/2000/svg" width="22" height="22" viewBox="0 0 22 22">
    <g data-name="Group 7060">
        <path data-name="Polygon 1" d="M12.064 2.109a1.426 1.426 0 0 1 2.46.659 1.426 1.426 0 0 0 1.843 1.064 1.426 1.426 0 0 1 1.8 1.8 1.426 1.426 0 0 0 1.064 1.843 1.426 1.426 0 0 1 .659 2.46 1.426 1.426 0 0 0 0 2.128 1.426 1.426 0 0 1-.659 2.46 1.426 1.426 0 0 0-1.064 1.843 1.426 1.426 0 0 1-1.8 1.8 1.426 1.426 0 0 0-1.843 1.064 1.426 1.426 0 0 1-2.46.659 1.426 1.426 0 0 0-2.128 0 1.426 1.426 0 0 1-2.46-.659 1.426 1.426 0 0 0-1.843-1.064 1.426 1.426 0 0 1-1.8-1.8 1.426 1.426 0 0 0-1.064-1.843 1.426 1.426 0 0 1-.659-2.46 1.426 1.426 0 0 0 0-2.128 1.426 1.426 0 0 1 .659-2.46 1.426 1.426 0 0 0 1.063-1.842 1.426 1.426 0 0 1 1.8-1.8 1.426 1.426 0 0 0 1.844-1.065 1.426 1.426 0 0 1 2.46-.659 1.426 1.426 0 0 0 2.128 0z" style="fill:#0fb472"/>
        <path data-name="Path 24758" d="m597.409 246.362 2.713 2.925 6.1-5.486" transform="rotate(-4.01 -3056.373 8557.915)" style="fill:none;stroke:#fff;stroke-width:1.8px"/>
    </g>
</svg>
