<svg xmlns="http://www.w3.org/2000/svg" width="56.007" height="43" viewBox="0 0 56.007 43">
    <path data-name="Path 24653" d="M7273 21713a2 2 0 1 1 2 2 2 2 0 0 1-2-2zm-13 0a2 2 0 1 1 2 2 2 2 0 0 1-2-2zm-13 0a2 2 0 1 1 2 2 2 2 0 0 1-2-2zm-13 0a2 2 0 1 1 2 2 2 2 0 0 1-2-2zm-13 0a2 2 0 1 1 2 2 2 2 0 0 1-2-2zm52-13a2 2 0 1 1 2 2 2 2 0 0 1-2-2zm-13 0a2 2 0 1 1 2 2 2 2 0 0 1-2-2zm-13 0a2 2 0 1 1 2 2 2 2 0 0 1-2-2zm-13 0a2 2 0 1 1 2 2 2 2 0 0 1-2-2zm-13 0a2 2 0 1 1 2 2 2 2 0 0 1-2-2zm52-13a2 2 0 1 1 2 2 2 2 0 0 1-2-2zm-13 0a2 2 0 1 1 2 2 2 2 0 0 1-2-2zm-13 0a2 2 0 1 1 2 2 2 2 0 0 1-2-2zm-13 0a2 2 0 1 1 2 2 2 2 0 0 1-2-2zm-13 0a2 2 0 1 1 2 2 2 2 0 0 1-2-2zm52-13a2 2 0 1 1 2 2 2 2 0 0 1-2-2zm-13 0a2 2 0 1 1 2 2 2 2 0 0 1-2-2zm-13 0a2 2 0 1 1 2 2 2 2 0 0 1-2-2zm-13 0a2 2 0 1 1 2 2 2 2 0 0 1-2-2zm-13 0a2 2 0 1 1 2 2 2 2 0 0 1-2-2z" transform="translate(-7220.998 -21672)" style="fill:#ccd7de"/>
</svg>
