<svg xmlns="http://www.w3.org/2000/svg" width="95.005" height="17.004" viewBox="0 0 95.005 17.004">
  <path id="Path_24652" data-name="Path 24652" d="M7260,21713a2,2,0,1,1,2,2A2,2,0,0,1,7260,21713Zm-13,0a2,2,0,1,1,2,2A2,2,0,0,1,7247,21713Zm-13,0a2,2,0,1,1,2,2A2,2,0,0,1,7234,21713Zm-13,0a2,2,0,1,1,2,2A2,2,0,0,1,7221,21713Zm39-13a2,2,0,1,1,2,2A2,2,0,0,1,7260,21700Zm-13,0a2,2,0,1,1,2,2A2,2,0,0,1,7247,21700Zm-13,0a2,2,0,1,1,2,2A2,2,0,0,1,7234,21700Zm-13,0a2,2,0,1,1,2,2A2,2,0,0,1,7221,21700Zm91,13a2,2,0,1,1,2,2A2,2,0,0,1,7312,21713Zm-13,0a2,2,0,1,1,2,2A2,2,0,0,1,7299,21713Zm-13,0a2,2,0,1,1,2,2A2,2,0,0,1,7286,21713Zm-13,0a2,2,0,1,1,2,2A2,2,0,0,1,7273,21713Zm39-13a2,2,0,1,1,2,2A2,2,0,0,1,7312,21700Zm-13,0a2,2,0,1,1,2,2A2,2,0,0,1,7299,21700Zm-13,0a2,2,0,1,1,2,2A2,2,0,0,1,7286,21700Zm-13,0a2,2,0,1,1,2,2A2,2,0,0,1,7273,21700Z" transform="translate(-7220.998 -21697.998)" fill="#ccd7de"/>
</svg>
