<svg xmlns="http://www.w3.org/2000/svg" width="120" height="120" viewBox="0 0 120 120">
    <defs>
        <clipPath id="xcsdqzia3a">
            <circle data-name="Ellipse 193" cx="60" cy="60" r="60" transform="translate(143 165)" style="fill:#d6f0fc"/>
        </clipPath>
    </defs>
    <g data-name="Group 7025" transform="translate(-143 -165)">
        <circle data-name="Ellipse 192" cx="60" cy="60" r="60" transform="translate(143 165)" style="fill:#d6f0fc"/>
        <g data-name="Mask Group 33" style="clip-path:url(#xcsdqzia3a)">
            <g data-name="Group 7023">
                <path data-name="Union 35" d="M7416 21830a2 2 0 1 1 2 2 2 2 0 0 1-2-2zm-13 0a2 2 0 1 1 2 2 2 2 0 0 1-1.992-2zm-13 0a2 2 0 1 1 2 2 2 2 0 0 1-1.994-2zm-13 0a2 2 0 1 1 2 2 2 2 0 0 1-2-2zm-13 0a2 2 0 1 1 2 2 2 2 0 0 1-2-2zm-13 0a2 2 0 1 1 2 2 2 2 0 0 1-1.994-2zm-13 0a2 2 0 1 1 2 2 2 2 0 0 1-2-2zm-13 0a2 2 0 1 1 2 2 2 2 0 0 1-2-2zm-13 0a2 2 0 1 1 2 2 2 2 0 0 1-2-2zm-13 0a2 2 0 1 1 2 2 2 2 0 0 1-2-2zm-13 0a2 2 0 1 1 2 2 2 2 0 0 1-2-2zm-13 0a2 2 0 1 1 2 2 2 2 0 0 1-2-2zm-13 0a2 2 0 1 1 2 2 2 2 0 0 1-2-2zm-13 0a2 2 0 1 1 2 2 2 2 0 0 1-2-2zm-13 0a2 2 0 1 1 2 2 2 2 0 0 1-2-2zm-13 0a2 2 0 1 1 2 2 2 2 0 0 1-2-2zm195-13a2 2 0 1 1 2 2 2 2 0 0 1-2-2zm-13 0a2 2 0 1 1 2 2 2 2 0 0 1-1.992-2zm-13 0a2 2 0 1 1 2 2 2 2 0 0 1-1.994-2zm-13 0a2 2 0 1 1 2 2 2 2 0 0 1-2-2zm-13 0a2 2 0 1 1 2 2 2 2 0 0 1-2-2zm-13 0a2 2 0 1 1 2 2 2 2 0 0 1-1.994-2zm-13 0a2 2 0 1 1 2 2 2 2 0 0 1-2-2zm-13 0a2 2 0 1 1 2 2 2 2 0 0 1-2-2zm-13 0a2 2 0 1 1 2 2 2 2 0 0 1-2-2zm-13 0a2 2 0 1 1 2 2 2 2 0 0 1-2-2zm-13 0a2 2 0 1 1 2 2 2 2 0 0 1-2-2zm-13 0a2 2 0 1 1 2 2 2 2 0 0 1-2-2zm-13 0a2 2 0 1 1 2 2 2 2 0 0 1-2-2zm-13 0a2 2 0 1 1 2 2 2 2 0 0 1-2-2zm-13 0a2 2 0 1 1 2 2 2 2 0 0 1-2-2zm-13 0a2 2 0 1 1 2 2 2 2 0 0 1-2-2zm195-13a2 2 0 1 1 2 2 2 2 0 0 1-2-2zm-13 0a2 2 0 1 1 2 2 2 2 0 0 1-1.992-2zm-13 0a2 2 0 1 1 2 2 2 2 0 0 1-1.994-2zm-13 0a2 2 0 1 1 2 2 2 2 0 0 1-2-2zm-13 0a2 2 0 1 1 2 2 2 2 0 0 1-2-2zm-13 0a2 2 0 1 1 2 2 2 2 0 0 1-1.994-2zm-13 0a2 2 0 1 1 2 2 2 2 0 0 1-2-2zm-13 0a2 2 0 1 1 2 2 2 2 0 0 1-2-2zm-13 0a2 2 0 1 1 2 2 2 2 0 0 1-2-2zm-13 0a2 2 0 1 1 2 2 2 2 0 0 1-2-2zm-13 0a2 2 0 1 1 2 2 2 2 0 0 1-2-2zm-13 0a2 2 0 1 1 2 2 2 2 0 0 1-2-2zm-13 0a2 2 0 1 1 2 2 2 2 0 0 1-2-2zm-13 0a2 2 0 1 1 2 2 2 2 0 0 1-2-2zm-13 0a2 2 0 1 1 2 2 2 2 0 0 1-2-2zm-13 0a2 2 0 1 1 2 2 2 2 0 0 1-2-2zm195-13a2 2 0 1 1 2 2 2 2 0 0 1-2-2zm-13 0a2 2 0 1 1 2 2 2 2 0 0 1-1.992-2zm-13 0a2 2 0 1 1 2 2 2 2 0 0 1-1.994-2zm-13 0a2 2 0 1 1 2 2 2 2 0 0 1-2-2zm-13 0a2 2 0 1 1 2 2 2 2 0 0 1-2-2zm-13 0a2 2 0 1 1 2 2 2 2 0 0 1-1.994-2zm-13 0a2 2 0 1 1 2 2 2 2 0 0 1-2-2zm-13 0a2 2 0 1 1 2 2 2 2 0 0 1-2-2zm-13 0a2 2 0 1 1 2 2 2 2 0 0 1-2-2zm-13 0a2 2 0 1 1 2 2 2 2 0 0 1-2-2zm-13 0a2 2 0 1 1 2 2 2 2 0 0 1-2-2zm-13 0a2 2 0 1 1 2 2 2 2 0 0 1-2-2zm-13 0a2 2 0 1 1 2 2 2 2 0 0 1-2-2zm-13 0a2 2 0 1 1 2 2 2 2 0 0 1-2-2zm-13 0a2 2 0 1 1 2 2 2 2 0 0 1-2-2zm-13 0a2 2 0 1 1 2 2 2 2 0 0 1-2-2zm195-13a2 2 0 1 1 2 2 2 2 0 0 1-2-2zm-13 0a2 2 0 1 1 2 2 2 2 0 0 1-1.992-2zm-13 0a2 2 0 1 1 2 2 2 2 0 0 1-1.994-2zm-13 0a2 2 0 1 1 2 2 2 2 0 0 1-2-2zm-13 0a2 2 0 1 1 2 2 2 2 0 0 1-2-2zm-13 0a2 2 0 1 1 2 2 2 2 0 0 1-1.994-2zm-13 0a2 2 0 1 1 2 2 2 2 0 0 1-2-2zm-13 0a2 2 0 1 1 2 2 2 2 0 0 1-2-2zm-13 0a2 2 0 1 1 2 2 2 2 0 0 1-2-2zm-13 0a2 2 0 1 1 2 2 2 2 0 0 1-2-2zm-13 0a2 2 0 1 1 2 2 2 2 0 0 1-2-2zm-13 0a2 2 0 1 1 2 2 2 2 0 0 1-2-2zm-13 0a2 2 0 1 1 2 2 2 2 0 0 1-2-2zm-13 0a2 2 0 1 1 2 2 2 2 0 0 1-2-2zm-13 0a2 2 0 1 1 2 2 2 2 0 0 1-2-2zm-13 0a2 2 0 1 1 2 2 2 2 0 0 1-2-2zm195-13a2 2 0 1 1 2 2 2 2 0 0 1-2-2zm-13 0a2 2 0 1 1 2 2 2 2 0 0 1-1.992-2zm-13 0a2 2 0 1 1 2 2 2 2 0 0 1-1.994-2zm-13 0a2 2 0 1 1 2 2 2 2 0 0 1-2-2zm-13 0a2 2 0 1 1 2 2 2 2 0 0 1-2-2zm-13 0a2 2 0 1 1 2 2 2 2 0 0 1-1.994-2zm-13 0a2 2 0 1 1 2 2 2 2 0 0 1-2-2zm-13 0a2 2 0 1 1 2 2 2 2 0 0 1-2-2zm-13 0a2 2 0 1 1 2 2 2 2 0 0 1-2-2zm-13 0a2 2 0 1 1 2 2 2 2 0 0 1-2-2zm-13 0a2 2 0 1 1 2 2 2 2 0 0 1-2-2zm-13 0a2 2 0 1 1 2 2 2 2 0 0 1-2-2zm-13 0a2 2 0 1 1 2 2 2 2 0 0 1-2-2zm-13 0a2 2 0 1 1 2 2 2 2 0 0 1-2-2zm-13 0a2 2 0 1 1 2 2 2 2 0 0 1-2-2zm-13 0a2 2 0 1 1 2 2 2 2 0 0 1-2-2zm195-13a2 2 0 1 1 2 2 2 2 0 0 1-2-2zm-13 0a2 2 0 1 1 2 2 2 2 0 0 1-1.992-2zm-13 0a2 2 0 1 1 2 2 2 2 0 0 1-1.994-2zm-13 0a2 2 0 1 1 2 2 2 2 0 0 1-2-2zm-13 0a2 2 0 1 1 2 2 2 2 0 0 1-2-2zm-13 0a2 2 0 1 1 2 2 2 2 0 0 1-1.994-2zm-13 0a2 2 0 1 1 2 2 2 2 0 0 1-2-2zm-13 0a2 2 0 1 1 2 2 2 2 0 0 1-2-2zm-13 0a2 2 0 1 1 2 2 2 2 0 0 1-2-2zm-13 0a2 2 0 1 1 2 2 2 2 0 0 1-2-2zm-13 0a2 2 0 1 1 2 2 2 2 0 0 1-2-2zm-13 0a2 2 0 1 1 2 2 2 2 0 0 1-2-2zm-13 0a2 2 0 1 1 2 2 2 2 0 0 1-2-2zm-13 0a2 2 0 1 1 2 2 2 2 0 0 1-2-2zm-13 0a2 2 0 1 1 2 2 2 2 0 0 1-2-2zm-13 0a2 2 0 1 1 2 2 2 2 0 0 1-2-2zm195-13a2 2 0 1 1 2 2 2 2 0 0 1-2-2zm-13 0a2 2 0 1 1 2 2 2 2 0 0 1-1.992-2zm-13 0a2 2 0 1 1 2 2 2 2 0 0 1-1.994-2zm-13 0a2 2 0 1 1 2 2 2 2 0 0 1-2-2zm-13 0a2 2 0 1 1 2 2 2 2 0 0 1-2-2zm-13 0a2 2 0 1 1 2 2 2 2 0 0 1-1.994-2zm-13 0a2 2 0 1 1 2 2 2 2 0 0 1-2-2zm-13 0a2 2 0 1 1 2 2 2 2 0 0 1-2-2zm-13 0a2 2 0 1 1 2 2 2 2 0 0 1-2-2zm-13 0a2 2 0 1 1 2 2 2 2 0 0 1-2-2zm-13 0a2 2 0 1 1 2 2 2 2 0 0 1-2-2zm-13 0a2 2 0 1 1 2 2 2 2 0 0 1-2-2zm-13 0a2 2 0 1 1 2 2 2 2 0 0 1-2-2zm-13 0a2 2 0 1 1 2 2 2 2 0 0 1-2-2zm-13 0a2 2 0 1 1 2 2 2 2 0 0 1-2-2zm-13 0a2 2 0 1 1 2 2 2 2 0 0 1-2-2zm195-13a2 2 0 1 1 2 2 2 2 0 0 1-2-2zm-13 0a2 2 0 1 1 2 2 2 2 0 0 1-1.992-2zm-13 0a2 2 0 1 1 2 2 2 2 0 0 1-1.994-2zm-13 0a2 2 0 1 1 2 2 2 2 0 0 1-2-2zm-13 0a2 2 0 1 1 2 2 2 2 0 0 1-2-2zm-13 0a2 2 0 1 1 2 2 2 2 0 0 1-1.994-2zm-13 0a2 2 0 1 1 2 2 2 2 0 0 1-2-2zm-13 0a2 2 0 1 1 2 2 2 2 0 0 1-2-2zm-13 0a2 2 0 1 1 2 2 2 2 0 0 1-2-2zm-13 0a2 2 0 1 1 2 2 2 2 0 0 1-2-2zm-13 0a2 2 0 1 1 2 2 2 2 0 0 1-2-2zm-13 0a2 2 0 1 1 2 2 2 2 0 0 1-2-2zm-13 0a2 2 0 1 1 2 2 2 2 0 0 1-2-2zm-13 0a2 2 0 1 1 2 2 2 2 0 0 1-2-2zm-13 0a2 2 0 1 1 2 2 2 2 0 0 1-2-2zm-13 0a2 2 0 1 1 2 2 2 2 0 0 1-2-2zm195-13a2 2 0 1 1 2 2 2 2 0 0 1-2-2zm-13 0a2 2 0 1 1 2 2 2 2 0 0 1-1.992-2zm-13 0a2 2 0 1 1 2 2 2 2 0 0 1-1.994-2zm-13 0a2 2 0 1 1 2 2 2 2 0 0 1-2-2zm-13 0a2 2 0 1 1 2 2 2 2 0 0 1-2-2zm-13 0a2 2 0 1 1 2 2 2 2 0 0 1-1.994-2zm-13 0a2 2 0 1 1 2 2 2 2 0 0 1-2-2zm-13 0a2 2 0 1 1 2 2 2 2 0 0 1-2-2zm-13 0a2 2 0 1 1 2 2 2 2 0 0 1-2-2zm-13 0a2 2 0 1 1 2 2 2 2 0 0 1-2-2zm-13 0a2 2 0 1 1 2 2 2 2 0 0 1-2-2zm-13 0a2 2 0 1 1 2 2 2 2 0 0 1-2-2zm-13 0a2 2 0 1 1 2 2 2 2 0 0 1-2-2zm-13 0a2 2 0 1 1 2 2 2 2 0 0 1-2-2zm-13 0a2 2 0 1 1 2 2 2 2 0 0 1-2-2zm-13 0a2 2 0 1 1 2 2 2 2 0 0 1-2-2zm195-13a2 2 0 1 1 2 2 2 2 0 0 1-2-2zm-13 0a2 2 0 1 1 2 2 2 2 0 0 1-1.992-2zm-13 0a2 2 0 1 1 2 2 2 2 0 0 1-1.994-2zm-13 0a2 2 0 1 1 2 2 2 2 0 0 1-2-2zm-13 0a2 2 0 1 1 2 2 2 2 0 0 1-2-2zm-13 0a2 2 0 1 1 2 2 2 2 0 0 1-1.994-2zm-13 0a2 2 0 1 1 2 2 2 2 0 0 1-2-2zm-13 0a2 2 0 1 1 2 2 2 2 0 0 1-2-2zm-13 0a2 2 0 1 1 2 2 2 2 0 0 1-2-2zm-13 0a2 2 0 1 1 2 2 2 2 0 0 1-2-2zm-13 0a2 2 0 1 1 2 2 2 2 0 0 1-2-2zm-13 0a2 2 0 1 1 2 2 2 2 0 0 1-2-2zm-13 0a2 2 0 1 1 2 2 2 2 0 0 1-2-2zm-13 0a2 2 0 1 1 2 2 2 2 0 0 1-2-2zm-13 0a2 2 0 1 1 2 2 2 2 0 0 1-2-2zm-13 0a2 2 0 1 1 2 2 2 2 0 0 1-2-2zm195-13a2 2 0 1 1 2 2 2 2 0 0 1-2-2zm-13 0a2 2 0 1 1 2 2 2 2 0 0 1-1.992-2zm-13 0a2 2 0 1 1 2 2 2 2 0 0 1-1.994-2zm-13 0a2 2 0 1 1 2 2 2 2 0 0 1-2-2zm-13 0a2 2 0 1 1 2 2 2 2 0 0 1-2-2zm-13 0a2 2 0 1 1 2 2 2 2 0 0 1-1.994-2zm-13 0a2 2 0 1 1 2 2 2 2 0 0 1-2-2zm-13 0a2 2 0 1 1 2 2 2 2 0 0 1-2-2zm-13 0a2 2 0 1 1 2 2 2 2 0 0 1-2-2zm-13 0a2 2 0 1 1 2 2 2 2 0 0 1-2-2zm-13 0a2 2 0 1 1 2 2 2 2 0 0 1-2-2zm-13 0a2 2 0 1 1 2 2 2 2 0 0 1-2-2zm-13 0a2 2 0 1 1 2 2 2 2 0 0 1-2-2zm-13 0a2 2 0 1 1 2 2 2 2 0 0 1-2-2zm-13 0a2 2 0 1 1 2 2 2 2 0 0 1-2-2zm-13 0a2 2 0 1 1 2 2 2 2 0 0 1-2-2zm195-13a2 2 0 1 1 2 2 2 2 0 0 1-2-2zm-13 0a2 2 0 1 1 2 2 2 2 0 0 1-1.992-2zm-13 0a2 2 0 1 1 2 2 2 2 0 0 1-1.994-2zm-13 0a2 2 0 1 1 2 2 2 2 0 0 1-2-2zm-13 0a2 2 0 1 1 2 2 2 2 0 0 1-2-2zm-13 0a2 2 0 1 1 2 2 2 2 0 0 1-1.994-2zm-13 0a2 2 0 1 1 2 2 2 2 0 0 1-2-2zm-13 0a2 2 0 1 1 2 2 2 2 0 0 1-2-2zm-13 0a2 2 0 1 1 2 2 2 2 0 0 1-2-2zm-13 0a2 2 0 1 1 2 2 2 2 0 0 1-2-2zm-13 0a2 2 0 1 1 2 2 2 2 0 0 1-2-2zm-13 0a2 2 0 1 1 2 2 2 2 0 0 1-2-2zm-13 0a2 2 0 1 1 2 2 2 2 0 0 1-2-2zm-13 0a2 2 0 1 1 2 2 2 2 0 0 1-2-2zm-13 0a2 2 0 1 1 2 2 2 2 0 0 1-2-2zm-13 0a2 2 0 1 1 2 2 2 2 0 0 1-2-2z" transform="translate(-7169.009 -21492.999)" style="fill:#fff"/>
                <path data-name="Path 24677" d="M7416 21674a2 2 0 1 0 2-2 2 2 0 0 0-2 2zm-13 0a2 2 0 1 0 2-2 2 2 0 0 0-1.995 2zm-13 0a2 2 0 1 0 2-2 2 2 0 0 0-2 2zm26 13a2 2 0 1 0 2-2 2 2 0 0 0-2 2zm-13 0a2 2 0 1 0 2-2 2 2 0 0 0-1.995 2zm-13 0a2 2 0 1 0 2-2 2 2 0 0 0-2 2zm26 13a2 2 0 1 0 2-2 2 2 0 0 0-2 2zm-13 0a2 2 0 1 0 2-2 2 2 0 0 0-1.995 2zm-13 0a2 2 0 1 0 2-2 2 2 0 0 0-2 2z" transform="translate(-7169.006 -21492.999)" style="fill:#881543"/>
            </g>
        </g>
    </g>
</svg>
