<svg xmlns="http://www.w3.org/2000/svg" width="14.304" height="14.369" viewBox="0 0 14.304 14.369">
    <path data-name="Path 24768" d="M154.043 72.478 154 72.44l-1.62-1.62a1.323 1.323 0 0 0-1.868-.019l-.019.019-9.15 9.169a.4.4 0 0 0-.114.191l-.8 3.774a.341.341 0 0 0 .1.343.377.377 0 0 0 .267.114h.076l3.774-.8a.4.4 0 0 0 .191-.114L154 74.346a1.306 1.306 0 0 0 .038-1.868zm-9.665 10.389-3.088.667.667-3.088 6.958-6.958 2.421 2.421zm9.093-9.093-1.582 1.6-2.44-2.44 1.6-1.582a.547.547 0 0 1 .782-.019l1.639 1.639a.553.553 0 0 1 0 .8z" transform="translate(-140.263 -70.193)" style="fill:#b5b6b7;stroke:#b5b6b7;stroke-width:.3px"/>
</svg>
