<svg xmlns="http://www.w3.org/2000/svg" width="63" height="63" viewBox="0 0 63 63">
    <g data-name="Group 6998">
        <g data-name="Path 24751" style="fill:none">
            <path d="M31.5 0A31.5 31.5 0 1 1 0 31.5 31.5 31.5 0 0 1 31.5 0z" style="stroke:none"/>
            <path d="M31.5 3a28.409 28.409 0 0 0-20.153 8.347A28.409 28.409 0 0 0 3 31.5a28.409 28.409 0 0 0 8.347 20.153A28.409 28.409 0 0 0 31.5 60a28.409 28.409 0 0 0 20.153-8.347A28.409 28.409 0 0 0 60 31.5a28.409 28.409 0 0 0-8.347-20.153A28.409 28.409 0 0 0 31.5 3m0-3C48.897 0 63 14.103 63 31.5S48.897 63 31.5 63 0 48.897 0 31.5 14.103 0 31.5 0z" style="fill:#08b485;stroke:none"/>
        </g>
        <path data-name="Path 24750" d="M210.418 161.7c-4.029 4.037-8.709 8.7-12.849 12.849l-6.213-5.178-2.1 2.519 7.364 6.136 1.151.959 1.061-1.061c4.361-4.37 9.543-9.533 13.909-13.909l-2.327-2.314z" transform="translate(-169.26 -138.699)" style="fill:#08b485"/>
    </g>
</svg>
