<svg xmlns="http://www.w3.org/2000/svg" width="40" height="40" viewBox="0 0 40 40">
    <g data-name="Group 4922">
        <path data-name="Path 2885" d="M82 0a20 20 0 1 1 0 40 20 20 0 0 1 0-40z" transform="translate(-62)" style="fill:#f3f8ff"/>
        <path data-name="Union 9" d="m-1202.79-8.4-.83-1.111a6.259 6.259 0 0 0-5-2.489h-4.91a6.2 6.2 0 0 0-5.58 3.44 1 1 0 0 1-1.327.423 1 1 0 0 1-.464-1.313 8.191 8.191 0 0 1 7.37-4.55h4.91a8.268 8.268 0 0 1 6.62 3.29l.8 1.11h.01a1 1 0 0 1-.2 1.4 1 1 0 0 1-.6.2 1 1 0 0 1-.799-.4zM-1217-22a6 6 0 0 1 6-6 6 6 0 0 1 6 6 6 6 0 0 1-6 6 6 6 0 0 1-6-6zm2 0a4 4 0 0 0 4 4 4 4 0 0 0 4-4 4 4 0 0 0-4-4 4 4 0 0 0-4 4z" transform="translate(1230.99 38)" style="fill:#003784"/>
        <path data-name="Path 24754" d="M7.5 0A7.5 7.5 0 1 1 0 7.5 7.5 7.5 0 0 1 7.5 0z" transform="translate(25 25)" style="fill:#fff"/>
        <path data-name="Path 24755" d="M23215.719 21680.258v-2.889h-2.893a.827.827 0 1 1 0-1.654h2.893v-2.887a.825.825 0 1 1 1.65 0v2.887h2.887a.827.827 0 1 1 0 1.654h-2.887v2.889a.825.825 0 1 1-1.65 0z" transform="translate(-23184.039 -21643.539)" style="fill:#003784"/>
    </g>
</svg>
