<svg xmlns="http://www.w3.org/2000/svg" width="118.587" height="110.399" viewBox="0 0 118.587 110.399">
    <defs>
        <clipPath id="86bnd0jpka">
            <path data-name="NoPath - Copy (10)" d="m564.6 309.7-5.63 3.531-3.348-5.75c-8.518-14.684-26.632-21.2-41.726-13.606a33.865 33.865 0 0 0-13.927 46.953l32.866 56.557a7.353 7.353 0 0 0 10.322 2.546l55.268-34.774a33.842 33.842 0 0 0 9.427-48.067c-9.862-13.753-28.886-16.415-43.252-7.39z" transform="translate(732.219 470.619)" style="fill:#d6a7ba"/>
        </clipPath>
    </defs>
    <g data-name="Group 6918">
        <path data-name="NoPath - Copy (10)" d="m564.6 309.7-5.63 3.531-3.348-5.75c-8.518-14.684-26.632-21.2-41.726-13.606a33.865 33.865 0 0 0-13.927 46.953l32.866 56.557a7.353 7.353 0 0 0 10.322 2.546l55.268-34.774a33.842 33.842 0 0 0 9.427-48.067c-9.862-13.753-28.886-16.415-43.252-7.39z" transform="translate(-495.488 -290.682)" style="fill:#d6f0fc"/>
        <g data-name="Mask Group 31" style="clip-path:url(#86bnd0jpka)" transform="translate(-1227.707 -761.301)">
            <path data-name="Union 29" d="M7338.98 21791.488a1.515 1.515 0 1 1 1.513 1.512 1.512 1.512 0 0 1-1.513-1.512zm-9.833 0a1.514 1.514 0 1 1 1.513 1.512 1.512 1.512 0 0 1-1.513-1.512zm-9.829 0a1.514 1.514 0 1 1 1.512 1.512 1.511 1.511 0 0 1-1.511-1.512zm-9.833 0A1.515 1.515 0 1 1 7311 21793a1.512 1.512 0 0 1-1.514-1.512zm-9.833 0a1.515 1.515 0 1 1 1.513 1.512 1.512 1.512 0 0 1-1.512-1.512zm-9.833 0a1.515 1.515 0 1 1 1.512 1.512 1.511 1.511 0 0 1-1.511-1.512zm-9.829 0a1.514 1.514 0 1 1 1.513 1.512 1.512 1.512 0 0 1-1.512-1.512zm-9.833 0a1.515 1.515 0 1 1 1.512 1.512 1.511 1.511 0 0 1-1.511-1.512zm-9.833 0a1.515 1.515 0 1 1 1.513 1.512 1.512 1.512 0 0 1-1.512-1.512zm-9.833 0A1.515 1.515 0 1 1 7252 21793a1.512 1.512 0 0 1-1.508-1.512zm-9.828 0a1.514 1.514 0 1 1 1.512 1.512 1.511 1.511 0 0 1-1.511-1.512zm-9.833 0a1.514 1.514 0 1 1 1.512 1.512 1.511 1.511 0 0 1-1.511-1.512zm-9.833 0a1.514 1.514 0 1 1 1.512 1.512 1.512 1.512 0 0 1-1.509-1.512zm117.982-9.832a1.515 1.515 0 1 1 1.513 1.512 1.512 1.512 0 0 1-1.512-1.512zm-9.833 0a1.514 1.514 0 1 1 1.513 1.512 1.512 1.512 0 0 1-1.512-1.512zm-9.829 0a1.514 1.514 0 1 1 1.512 1.512 1.511 1.511 0 0 1-1.51-1.512zm-9.833 0a1.515 1.515 0 1 1 1.513 1.512 1.512 1.512 0 0 1-1.511-1.512zm-9.833 0a1.515 1.515 0 1 1 1.513 1.512 1.512 1.512 0 0 1-1.511-1.512zm-9.833 0a1.515 1.515 0 1 1 1.512 1.512 1.511 1.511 0 0 1-1.51-1.512zm-9.829 0a1.514 1.514 0 1 1 1.513 1.512 1.512 1.512 0 0 1-1.511-1.512zm-9.833 0a1.515 1.515 0 1 1 1.512 1.512 1.511 1.511 0 0 1-1.51-1.512zm-9.833 0a1.515 1.515 0 1 1 1.513 1.512 1.512 1.512 0 0 1-1.511-1.512zm-9.833 0a1.515 1.515 0 1 1 1.513 1.512 1.512 1.512 0 0 1-1.511-1.512zm-9.828 0a1.514 1.514 0 1 1 1.512 1.512 1.511 1.511 0 0 1-1.51-1.512zm-9.833 0a1.514 1.514 0 1 1 1.512 1.512 1.511 1.511 0 0 1-1.51-1.512zm-9.833 0a1.514 1.514 0 1 1 1.512 1.512 1.512 1.512 0 0 1-1.508-1.512zm117.982-9.828a1.515 1.515 0 1 1 1.513 1.512 1.512 1.512 0 0 1-1.511-1.512zm-9.833 0a1.514 1.514 0 1 1 1.513 1.512 1.513 1.513 0 0 1-1.511-1.512zm-9.829 0a1.514 1.514 0 1 1 1.512 1.512 1.512 1.512 0 0 1-1.509-1.512zm-9.833 0a1.515 1.515 0 1 1 1.513 1.512 1.512 1.512 0 0 1-1.51-1.512zm-9.833 0a1.515 1.515 0 1 1 1.513 1.512 1.512 1.512 0 0 1-1.51-1.512zm-9.833 0a1.515 1.515 0 1 1 1.512 1.512 1.512 1.512 0 0 1-1.509-1.512zm-9.829 0a1.514 1.514 0 1 1 1.513 1.512 1.512 1.512 0 0 1-1.51-1.512zm-9.833 0a1.515 1.515 0 1 1 1.512 1.512 1.512 1.512 0 0 1-1.509-1.512zm-9.833 0a1.515 1.515 0 1 1 1.513 1.512 1.512 1.512 0 0 1-1.51-1.512zm-9.833 0a1.515 1.515 0 1 1 1.513 1.512 1.512 1.512 0 0 1-1.51-1.512zm-9.828 0a1.514 1.514 0 1 1 1.512 1.512 1.512 1.512 0 0 1-1.509-1.512zm-9.833 0a1.514 1.514 0 1 1 1.512 1.512 1.512 1.512 0 0 1-1.509-1.512zm-9.833 0a1.514 1.514 0 1 1 1.512 1.512 1.512 1.512 0 0 1-1.507-1.512zm117.982-9.834a1.515 1.515 0 1 1 1.513 1.514 1.514 1.514 0 0 1-1.51-1.514zm-9.833 0a1.514 1.514 0 1 1 1.513 1.514 1.514 1.514 0 0 1-1.51-1.514zm-9.829 0a1.514 1.514 0 1 1 1.512 1.514 1.513 1.513 0 0 1-1.508-1.514zm-9.833 0a1.515 1.515 0 1 1 1.513 1.514 1.514 1.514 0 0 1-1.509-1.514zm-9.833 0a1.515 1.515 0 1 1 1.513 1.514 1.514 1.514 0 0 1-1.509-1.514zm-9.833 0a1.515 1.515 0 1 1 1.512 1.514 1.513 1.513 0 0 1-1.508-1.514zm-9.829 0a1.514 1.514 0 1 1 1.513 1.514 1.514 1.514 0 0 1-1.509-1.514zm-9.833 0a1.515 1.515 0 1 1 1.512 1.514 1.513 1.513 0 0 1-1.508-1.514zm-9.833 0a1.515 1.515 0 1 1 1.513 1.514 1.514 1.514 0 0 1-1.509-1.514zm-9.833 0a1.515 1.515 0 1 1 1.513 1.514 1.514 1.514 0 0 1-1.509-1.514zm-9.828 0a1.514 1.514 0 1 1 1.512 1.514 1.513 1.513 0 0 1-1.508-1.514zm-9.833 0a1.514 1.514 0 1 1 1.512 1.514 1.513 1.513 0 0 1-1.508-1.514zm-9.833 0a1.514 1.514 0 1 1 1.512 1.514 1.513 1.513 0 0 1-1.506-1.514zm117.982-9.834a1.515 1.515 0 1 1 1.513 1.514 1.513 1.513 0 0 1-1.509-1.514zm-9.833 0a1.514 1.514 0 1 1 1.513 1.514 1.513 1.513 0 0 1-1.509-1.514zm-9.829 0a1.514 1.514 0 1 1 1.512 1.514 1.513 1.513 0 0 1-1.507-1.514zm-9.833 0a1.515 1.515 0 1 1 1.513 1.514 1.513 1.513 0 0 1-1.508-1.514zm-9.833 0a1.515 1.515 0 1 1 1.513 1.514 1.513 1.513 0 0 1-1.508-1.514zm-9.833 0a1.515 1.515 0 1 1 1.512 1.514 1.513 1.513 0 0 1-1.507-1.514zm-9.829 0a1.514 1.514 0 1 1 1.513 1.514 1.513 1.513 0 0 1-1.508-1.514zm-9.833 0a1.515 1.515 0 1 1 1.512 1.514 1.513 1.513 0 0 1-1.507-1.514zm-9.833 0a1.515 1.515 0 1 1 1.513 1.514 1.513 1.513 0 0 1-1.508-1.514zm-9.833 0a1.515 1.515 0 1 1 1.513 1.514 1.513 1.513 0 0 1-1.508-1.514zm-9.828 0a1.514 1.514 0 1 1 1.512 1.514 1.513 1.513 0 0 1-1.507-1.514zm-9.833 0a1.514 1.514 0 1 1 1.512 1.514 1.513 1.513 0 0 1-1.507-1.514zm-9.833 0a1.514 1.514 0 1 1 1.512 1.514 1.513 1.513 0 0 1-1.505-1.514zm117.982-9.828a1.515 1.515 0 1 1 1.513 1.514 1.512 1.512 0 0 1-1.508-1.514zm-9.833 0a1.514 1.514 0 1 1 1.513 1.514 1.512 1.512 0 0 1-1.508-1.514zm-9.829 0a1.514 1.514 0 1 1 1.512 1.514 1.511 1.511 0 0 1-1.506-1.514zm-9.833 0a1.515 1.515 0 1 1 1.513 1.514 1.512 1.512 0 0 1-1.507-1.514zm-9.833 0a1.515 1.515 0 1 1 1.513 1.514 1.512 1.512 0 0 1-1.507-1.514zm-9.833 0a1.515 1.515 0 1 1 1.512 1.514 1.511 1.511 0 0 1-1.506-1.514zm-9.829 0a1.514 1.514 0 1 1 1.513 1.514 1.512 1.512 0 0 1-1.507-1.514zm-9.833 0a1.515 1.515 0 1 1 1.512 1.514 1.511 1.511 0 0 1-1.506-1.514zm-9.833 0a1.515 1.515 0 1 1 1.513 1.514 1.512 1.512 0 0 1-1.507-1.514zm-9.833 0a1.515 1.515 0 1 1 1.513 1.514 1.512 1.512 0 0 1-1.507-1.514zm-9.828 0a1.514 1.514 0 1 1 1.512 1.514 1.511 1.511 0 0 1-1.506-1.514zm-9.833 0a1.514 1.514 0 1 1 1.512 1.514 1.511 1.511 0 0 1-1.506-1.514zm-9.833 0a1.514 1.514 0 1 1 1.512 1.514 1.512 1.512 0 0 1-1.504-1.514zm117.982-9.832a1.515 1.515 0 1 1 1.513 1.512 1.512 1.512 0 0 1-1.507-1.512zm-9.833 0a1.514 1.514 0 1 1 1.513 1.512 1.512 1.512 0 0 1-1.507-1.512zm-9.829 0a1.514 1.514 0 1 1 1.512 1.512 1.511 1.511 0 0 1-1.505-1.512zm-9.833 0a1.515 1.515 0 1 1 1.513 1.512 1.512 1.512 0 0 1-1.506-1.512zm-9.833 0a1.515 1.515 0 1 1 1.513 1.512 1.512 1.512 0 0 1-1.506-1.512zm-9.833 0a1.515 1.515 0 1 1 1.512 1.512 1.511 1.511 0 0 1-1.505-1.512zm-9.829 0a1.514 1.514 0 1 1 1.513 1.512 1.512 1.512 0 0 1-1.506-1.512zm-9.833 0a1.515 1.515 0 1 1 1.512 1.512 1.511 1.511 0 0 1-1.505-1.512zm-9.833 0a1.515 1.515 0 1 1 1.513 1.512 1.512 1.512 0 0 1-1.506-1.512zm-9.833 0a1.515 1.515 0 1 1 1.513 1.512 1.512 1.512 0 0 1-1.506-1.512zm-9.828 0a1.514 1.514 0 1 1 1.512 1.512 1.511 1.511 0 0 1-1.505-1.512zm-9.833 0a1.514 1.514 0 1 1 1.512 1.512 1.511 1.511 0 0 1-1.505-1.512zm-9.833 0a1.514 1.514 0 1 1 1.512 1.512 1.512 1.512 0 0 1-1.503-1.512zm117.982-9.832a1.515 1.515 0 1 1 1.513 1.512 1.513 1.513 0 0 1-1.506-1.512zm-9.833 0a1.514 1.514 0 1 1 1.513 1.512 1.513 1.513 0 0 1-1.506-1.512zm-9.829 0a1.514 1.514 0 1 1 1.512 1.512 1.513 1.513 0 0 1-1.504-1.512zm-9.833 0a1.515 1.515 0 1 1 1.513 1.512 1.513 1.513 0 0 1-1.505-1.512zm-9.833 0a1.515 1.515 0 1 1 1.513 1.512 1.513 1.513 0 0 1-1.505-1.512zm-9.833 0a1.515 1.515 0 1 1 1.512 1.512 1.513 1.513 0 0 1-1.504-1.512zm-9.829 0a1.514 1.514 0 1 1 1.513 1.512 1.513 1.513 0 0 1-1.505-1.512zm-9.833 0a1.515 1.515 0 1 1 1.512 1.512 1.513 1.513 0 0 1-1.504-1.512zm-9.833 0a1.515 1.515 0 1 1 1.513 1.512 1.513 1.513 0 0 1-1.505-1.512zm-9.833 0a1.515 1.515 0 1 1 1.513 1.512 1.513 1.513 0 0 1-1.505-1.512zm-9.828 0a1.514 1.514 0 1 1 1.512 1.512 1.513 1.513 0 0 1-1.504-1.512zm-9.833 0a1.514 1.514 0 1 1 1.512 1.512 1.513 1.513 0 0 1-1.504-1.512zm-9.833 0a1.514 1.514 0 1 1 1.512 1.512 1.513 1.513 0 0 1-1.502-1.512zm117.982-9.828a1.515 1.515 0 1 1 1.513 1.512 1.511 1.511 0 0 1-1.505-1.512zm-9.833 0a1.514 1.514 0 1 1 1.513 1.512 1.511 1.511 0 0 1-1.505-1.512zm-9.829 0a1.514 1.514 0 1 1 1.512 1.512 1.51 1.51 0 0 1-1.503-1.512zm-9.833 0a1.515 1.515 0 1 1 1.513 1.512 1.511 1.511 0 0 1-1.504-1.512zm-9.833 0a1.515 1.515 0 1 1 1.513 1.512 1.511 1.511 0 0 1-1.504-1.512zm-9.833 0a1.515 1.515 0 1 1 1.512 1.512 1.51 1.51 0 0 1-1.503-1.512zm-9.829 0a1.514 1.514 0 1 1 1.513 1.512 1.511 1.511 0 0 1-1.504-1.512zm-9.833 0a1.515 1.515 0 1 1 1.512 1.512 1.51 1.51 0 0 1-1.503-1.512zm-9.833 0a1.515 1.515 0 1 1 1.513 1.512 1.511 1.511 0 0 1-1.504-1.512zm-9.833 0a1.515 1.515 0 1 1 1.513 1.512 1.511 1.511 0 0 1-1.504-1.512zm-9.828 0a1.514 1.514 0 1 1 1.512 1.512 1.51 1.51 0 0 1-1.503-1.512zm-9.833 0a1.514 1.514 0 1 1 1.512 1.512 1.51 1.51 0 0 1-1.503-1.512zm-9.833 0a1.514 1.514 0 1 1 1.512 1.512 1.51 1.51 0 0 1-1.501-1.512zm117.982-9.832a1.515 1.515 0 1 1 1.513 1.512 1.512 1.512 0 0 1-1.504-1.512zm-9.833 0a1.514 1.514 0 1 1 1.513 1.512 1.513 1.513 0 0 1-1.504-1.512zm-9.829 0a1.514 1.514 0 1 1 1.512 1.512 1.512 1.512 0 0 1-1.502-1.512zm-9.833 0a1.515 1.515 0 1 1 1.513 1.512 1.512 1.512 0 0 1-1.503-1.512zm-9.833 0a1.515 1.515 0 1 1 1.513 1.512 1.512 1.512 0 0 1-1.503-1.512zm-9.833 0a1.515 1.515 0 1 1 1.512 1.512 1.512 1.512 0 0 1-1.502-1.512zm-9.829 0a1.514 1.514 0 1 1 1.513 1.512 1.512 1.512 0 0 1-1.503-1.512zm-9.833 0a1.515 1.515 0 1 1 1.512 1.512 1.512 1.512 0 0 1-1.502-1.512zm-9.833 0a1.515 1.515 0 1 1 1.513 1.512 1.512 1.512 0 0 1-1.503-1.512zm-9.833 0a1.515 1.515 0 1 1 1.513 1.512 1.512 1.512 0 0 1-1.503-1.512zm-9.828 0a1.514 1.514 0 1 1 1.512 1.512 1.512 1.512 0 0 1-1.502-1.512zm-9.833 0a1.514 1.514 0 1 1 1.512 1.512 1.512 1.512 0 0 1-1.502-1.512zm-9.833 0a1.514 1.514 0 1 1 1.512 1.512 1.512 1.512 0 0 1-1.5-1.512zm117.982-9.834a1.515 1.515 0 1 1 1.513 1.514 1.517 1.517 0 0 1-1.503-1.514zm-9.833 0a1.514 1.514 0 1 1 1.513 1.514 1.518 1.518 0 0 1-1.503-1.514zm-9.829 0a1.514 1.514 0 1 1 1.512 1.514 1.517 1.517 0 0 1-1.501-1.514zm-9.833 0a1.515 1.515 0 1 1 1.513 1.514 1.517 1.517 0 0 1-1.502-1.514zm-9.833 0a1.515 1.515 0 1 1 1.513 1.514 1.517 1.517 0 0 1-1.502-1.514zm-9.833 0a1.515 1.515 0 1 1 1.512 1.514 1.517 1.517 0 0 1-1.501-1.514zm-9.829 0a1.514 1.514 0 1 1 1.513 1.514 1.517 1.517 0 0 1-1.502-1.514zm-9.833 0a1.515 1.515 0 1 1 1.512 1.514 1.517 1.517 0 0 1-1.501-1.514zm-9.833 0a1.515 1.515 0 1 1 1.513 1.514 1.517 1.517 0 0 1-1.502-1.514zm-9.833 0a1.515 1.515 0 1 1 1.513 1.514 1.517 1.517 0 0 1-1.502-1.514zm-9.828 0a1.514 1.514 0 1 1 1.512 1.514 1.517 1.517 0 0 1-1.501-1.514zm-9.833 0a1.514 1.514 0 1 1 1.512 1.514 1.517 1.517 0 0 1-1.501-1.514zm-9.833 0a1.514 1.514 0 1 1 1.512 1.514 1.517 1.517 0 0 1-1.499-1.514zm117.982-9.828a1.515 1.515 0 1 1 1.513 1.514 1.514 1.514 0 0 1-1.502-1.514zm-9.833 0a1.514 1.514 0 1 1 1.513 1.514 1.514 1.514 0 0 1-1.502-1.514zm-9.829 0a1.514 1.514 0 1 1 1.512 1.514 1.513 1.513 0 0 1-1.5-1.514zm-9.833 0a1.515 1.515 0 1 1 1.513 1.514 1.514 1.514 0 0 1-1.501-1.514zm-9.833 0a1.515 1.515 0 1 1 1.513 1.514 1.514 1.514 0 0 1-1.501-1.514zm-9.833 0a1.515 1.515 0 1 1 1.512 1.514 1.513 1.513 0 0 1-1.5-1.514zm-9.829 0a1.514 1.514 0 1 1 1.513 1.514 1.514 1.514 0 0 1-1.501-1.514zm-9.833 0a1.515 1.515 0 1 1 1.512 1.514 1.513 1.513 0 0 1-1.5-1.514zm-9.833 0a1.515 1.515 0 1 1 1.513 1.514 1.514 1.514 0 0 1-1.501-1.514zm-9.833 0a1.515 1.515 0 1 1 1.513 1.514 1.514 1.514 0 0 1-1.501-1.514zm-9.828 0a1.514 1.514 0 1 1 1.512 1.514 1.513 1.513 0 0 1-1.5-1.514zm-9.833 0a1.514 1.514 0 1 1 1.512 1.514 1.513 1.513 0 0 1-1.5-1.514zm-9.833 0a1.514 1.514 0 1 1 1.512 1.514 1.513 1.513 0 0 1-1.498-1.514zm117.982-9.834a1.515 1.515 0 1 1 1.513 1.514 1.512 1.512 0 0 1-1.501-1.514zm-9.833 0a1.514 1.514 0 1 1 1.513 1.514 1.512 1.512 0 0 1-1.501-1.514zm-9.829 0a1.514 1.514 0 1 1 1.512 1.514 1.511 1.511 0 0 1-1.499-1.514zm-9.833 0a1.515 1.515 0 1 1 1.513 1.514 1.512 1.512 0 0 1-1.5-1.514zm-9.833 0a1.515 1.515 0 1 1 1.513 1.514 1.512 1.512 0 0 1-1.5-1.514zm-9.833 0a1.515 1.515 0 1 1 1.512 1.514 1.511 1.511 0 0 1-1.499-1.514zm-9.829 0a1.514 1.514 0 1 1 1.513 1.514 1.512 1.512 0 0 1-1.5-1.514zm-9.833 0a1.515 1.515 0 1 1 1.512 1.514 1.511 1.511 0 0 1-1.499-1.514zm-9.833 0a1.515 1.515 0 1 1 1.513 1.514 1.512 1.512 0 0 1-1.5-1.514zm-9.833 0a1.515 1.515 0 1 1 1.513 1.514 1.512 1.512 0 0 1-1.5-1.514zm-9.828 0a1.514 1.514 0 1 1 1.512 1.514 1.511 1.511 0 0 1-1.499-1.514zm-9.833 0a1.514 1.514 0 1 1 1.512 1.514 1.511 1.511 0 0 1-1.499-1.514zm-9.833 0a1.514 1.514 0 1 1 1.512 1.514 1.512 1.512 0 0 1-1.497-1.514z" transform="translate(-5995.295 -20920.5)" style="fill:#fff"/>
        </g>
    </g>
</svg>
