<svg xmlns="http://www.w3.org/2000/svg" width="44" height="40.81" viewBox="0 0 44 40.81">
  <g id="Group_5000" data-name="Group 5000" transform="translate(-113 -342)">
    <path id="Path_2929" data-name="Path 2929" d="M0,0H40.81V40.81H0Z" transform="translate(113 342)" fill="#717780" opacity="0"/>
    <path id="Path_3152" data-name="Path 3152" d="M11.854,29.629a.92.92,0,0,1-.391.089H3.027a.9.9,0,1,1,0-1.8h7.71a15.538,15.538,0,0,1-1.988-6.754H.917a.9.9,0,1,1,0-1.8H8.749a15.54,15.54,0,0,1,1.988-6.754H3.027a.9.9,0,1,1,0-1.8h8.437a.925.925,0,0,1,.391.089A16.238,16.238,0,0,1,36.109,9.119a15.56,15.56,0,0,1,3.928,15.973,15.964,15.964,0,0,1-12.68,10.723,16.332,16.332,0,0,1-2.6.208A16.151,16.151,0,0,1,11.854,29.629ZM20.175,1.8a.909.909,0,0,1-.917-.9.909.909,0,0,1,.917-.9h9.171a.909.909,0,0,1,.917.9.909.909,0,0,1-.917.9Z" transform="translate(116.19 343.259)" fill="#d6f0fc"/>
    <path id="Path_2930" data-name="Path 2930" d="M11.854,29.629a.92.92,0,0,1-.391.089H3.027a.9.9,0,1,1,0-1.8h7.71a15.538,15.538,0,0,1-1.988-6.754H.917a.9.9,0,1,1,0-1.8H8.749a15.54,15.54,0,0,1,1.988-6.754H3.027a.9.9,0,1,1,0-1.8h8.437a.925.925,0,0,1,.391.089A16.238,16.238,0,0,1,36.109,9.119a15.56,15.56,0,0,1,3.928,15.973,15.964,15.964,0,0,1-12.68,10.723,16.332,16.332,0,0,1-2.6.208A16.151,16.151,0,0,1,11.854,29.629ZM14.722,10.4a13.775,13.775,0,0,0,0,19.728,14.393,14.393,0,0,0,20.09.006,13.8,13.8,0,0,0,0-19.741,14.393,14.393,0,0,0-20.09.006Zm9.863,10.748a.92.92,0,0,1-.692-.623.9.9,0,0,1,.219-.9h0L30.3,13.547a.929.929,0,0,1,1.3,0,.889.889,0,0,1,0,1.273L25.41,20.9h0a.919.919,0,0,1-.3.2.935.935,0,0,1-.52.049ZM20.175,1.8a.909.909,0,0,1-.917-.9.909.909,0,0,1,.917-.9h9.171a.909.909,0,0,1,.917.9.909.909,0,0,1-.917.9Z" transform="translate(113 343.258)" fill="#003784"/>
  </g>
</svg>
