<svg xmlns="http://www.w3.org/2000/svg" width="49.257" height="46.934" viewBox="0 0 49.257 46.934">
  <g id="Group_5000" data-name="Group 5000" transform="translate(-112.797 -341.811)">
    <path id="Path_2929" data-name="Path 2929" d="M0,0H46.259V46.259H0Z" transform="translate(113.158 342.148)" fill="#717780" opacity="0"/>
    <g id="Group_5012" data-name="Group 5012" transform="translate(112.797 341.811)">
      <path id="Path_2929-2" data-name="Path 2929" d="M0,0H46.934V46.934H0Z" fill="#717780" opacity="0"/>
      <path id="Path_3154" data-name="Path 3154" d="M10.106,30.856c-.715-.189-2.991,1.566-2.99,2.3v.907A2.387,2.387,0,0,0,9.5,36.45h3.475a2.382,2.382,0,0,0,.6-4.687Zm2.868,3.784H9.5a.567.567,0,0,1-.567-.572v-.907a.572.572,0,0,1,.563-.567.581.581,0,0,1,.15,0l3.471.907a.567.567,0,0,1-.145,1.116ZM1,27.716v-1.4A2.8,2.8,0,0,1,3.722,23.6h.73a3.734,3.734,0,0,1,1.72.454,33.724,33.724,0,0,1,2.414-4.941,7.243,7.243,0,0,1,4.991-2.926,37.464,37.464,0,0,1,6.52-.427c1.084,0,2.269,0,3.457.082a.909.909,0,0,1,.853.962c-.03.5-.352,1.452-.853,1.421C22.4,18.153,8.933,40.157,23.146,16.8c.5,0-2.79,24.934-2.79,25.435a.907.907,0,0,1-.907.907H10.319v.517a2.809,2.809,0,0,1-2.8,2.8H5.083a2.809,2.809,0,0,1-2.8-2.8V34.586a8.943,8.943,0,0,1,.907-4.156A2.854,2.854,0,0,1,1,27.716Zm24.955-.34a9.982,9.982,0,0,0,1.683,4.3v2.554a20.19,20.19,0,0,0-6.556,3.176.907.907,0,0,0-.327,1.012l2.391,7.391a.907.907,0,0,0,.862.626H42.157a.907.907,0,0,0,.862-.626l2.4-7.4a.907.907,0,0,0-.327-1.012,20.2,20.2,0,0,0-6.352-3.122V31.754a10.114,10.114,0,0,0,1.733-4.442,5.123,5.123,0,0,0,1.815-3.875,2.586,2.586,0,0,0-1.679-2.418V19.2a4.823,4.823,0,0,0-.907-2.854,7.423,7.423,0,0,0-4.147-2.913v-.83a.907.907,0,0,0-.907-.907H33.037a7.182,7.182,0,0,0-6.674,4.492,7.11,7.11,0,0,0-.5,2.618l-.023,2.182a2.586,2.586,0,0,0-1.747,2.446,5.109,5.109,0,0,0,1.86,3.934Z" transform="translate(3.794 -5.524)" fill="#d6f0fc"/>
      <path id="Path_2936" data-name="Path 2936" d="M10.106,30.856a2.382,2.382,0,0,0-2.99,2.3v.907A2.387,2.387,0,0,0,9.5,36.45h3.475a2.382,2.382,0,0,0,.6-4.687Zm2.868,3.784H9.5a.567.567,0,0,1-.567-.572v-.907a.572.572,0,0,1,.563-.567.581.581,0,0,1,.15,0l3.471.907a.567.567,0,0,1-.145,1.116ZM1,27.716v-1.4A2.8,2.8,0,0,1,3.722,23.6h.73a3.734,3.734,0,0,1,1.72.454,33.724,33.724,0,0,1,2.414-4.941,7.243,7.243,0,0,1,4.991-2.926,37.464,37.464,0,0,1,6.52-.427c1.084,0,2.269,0,3.457.082a.909.909,0,1,1-.109,1.815c-1.157-.068-2.291-.082-3.348-.082a35.9,35.9,0,0,0-6.207.4,5.479,5.479,0,0,0-3.8,2.173,33.409,33.409,0,0,0-2.668,5.622.907.907,0,0,1-1.461.322,2.269,2.269,0,0,0-1.511-.7H3.79a.966.966,0,0,0-.975.971v1.293A1.044,1.044,0,0,0,3.84,28.669h.907a.907.907,0,0,1,.726,1.452q-.132.172-.25.349a7.019,7.019,0,0,0-1.157,4.083v9.074A.989.989,0,0,0,5.083,44.64H7.538a.989.989,0,0,0,.989-.989V42.235a.907.907,0,0,1,.907-.907H19.448a.907.907,0,1,1,0,1.815H10.319v.517a2.809,2.809,0,0,1-2.8,2.8H5.083a2.809,2.809,0,0,1-2.8-2.8V34.586a8.943,8.943,0,0,1,.907-4.156A2.854,2.854,0,0,1,1,27.716Zm24.955-.34a9.982,9.982,0,0,0,1.683,4.3v2.554a20.19,20.19,0,0,0-6.556,3.176.907.907,0,0,0-.327,1.012l2.391,7.391a.907.907,0,0,0,.862.626H42.157a.907.907,0,0,0,.862-.626l2.4-7.4a.907.907,0,0,0-.327-1.012,20.2,20.2,0,0,0-6.352-3.122V31.754a10.114,10.114,0,0,0,1.733-4.442,5.123,5.123,0,0,0,1.815-3.875,2.586,2.586,0,0,0-1.679-2.418V19.2a4.823,4.823,0,0,0-.907-2.854,7.423,7.423,0,0,0-4.147-2.913v-.83a.907.907,0,0,0-.907-.907H33.037a7.182,7.182,0,0,0-6.674,4.492,7.11,7.11,0,0,0-.5,2.618l-.023,2.182a2.586,2.586,0,0,0-1.747,2.446,5.109,5.109,0,0,0,1.86,3.934Zm.749-4.705h0a.907.907,0,0,0,.944-.9l.032-2.945a5.3,5.3,0,0,1,.363-1.951,5.372,5.372,0,0,1,4.991-3.362H33.7v.7a.907.907,0,0,0,.812.907A5.39,5.39,0,0,1,38.2,17.435a3.022,3.022,0,0,1,.572,1.788v2.536a.907.907,0,0,0,.907.907.771.771,0,0,1,.789.771A3.3,3.3,0,0,1,39.112,26.1a.907.907,0,0,0-.368.631,8.394,8.394,0,0,1-1.5,4,1.552,1.552,0,0,0-.313.907v3.085a1.207,1.207,0,0,0,.907,1.166,18.376,18.376,0,0,1,5.676,2.582l-1.983,6.125H24.661l-1.983-6.125a18.371,18.371,0,0,1,5.858-2.586,1.2,1.2,0,0,0,.907-1.166v-3.14a1.529,1.529,0,0,0-.3-.907,8.453,8.453,0,0,1-1.447-3.9.907.907,0,0,0-.381-.635,3.3,3.3,0,0,1-1.416-2.7.776.776,0,0,1,.8-.776Z" transform="translate(0.235 -5.524)" fill="#003784"/>
    </g>
  </g>
</svg>
