<svg id="Component_8_2" data-name="Component 8 – 2" xmlns="http://www.w3.org/2000/svg" width="40" height="40" viewBox="0 0 40 40">
    <defs>
        <style>
            .cls-2{fill:#d1e6ff;stroke:#d1e6ff;stroke-width:.5px}
        </style>
    </defs>
    <path id="Path_3094" data-name="Path 3094" d="M20 0A20 20 0 1 1 0 20 20 20 0 0 1 20 0z" style="fill:#2157a5"/>
    <path id="Path_3137" data-name="Path 3137" class="cls-2" d="M227.624 50.4H213.08a.271.271 0 0 0-.271.271v21.681a.271.271 0 0 0 .271.271h14.544a.271.271 0 0 0 .271-.271V50.669a.271.271 0 0 0-.271-.269zm-.271 21.682h-14V50.94h14z" transform="translate(-201.676 -41.511)"/>
    <path id="Path_3138" data-name="Path 3138" class="cls-2" d="M377.26 260.107a.271.271 0 0 0 .271.271h1.235v1.8a.447.447 0 0 0 .446.446h1.388a.446.446 0 0 0 .446-.446v-4.145a.447.447 0 0 0-.446-.446h-1.391a.447.447 0 0 0-.446.446v1.8h-1.235a.271.271 0 0 0-.268.274zm2.048.271h.6a.271.271 0 0 0 0-.542h-.6v-1.705h1.2v3.953h-1.2z" transform="translate(-357.88 -235.673)"/>
    <path id="Path_3139" data-name="Path 3139" class="cls-2" d="M296.577 92.3h4.655a.271.271 0 0 0 .271-.271v-1.097a2.6 2.6 0 0 0-1.6-2.4 1.651 1.651 0 1 0-2 0 2.6 2.6 0 0 0-1.6 2.4v1.094a.272.272 0 0 0 .271.271zm1.219-5.073a1.109 1.109 0 1 1 1.109 1.109 1.111 1.111 0 0 1-1.105-1.112zm-.947 3.708a2.057 2.057 0 0 1 4.113 0v.823h-4.113z" transform="translate(-280.229 -73.38)"/>
</svg>
