<svg data-name="Component 8 – 3" xmlns="http://www.w3.org/2000/svg" width="40" height="40" viewBox="0 0 40 40">
    <path data-name="Path 3094" d="M20 0A20 20 0 1 1 0 20 20 20 0 0 1 20 0z" style="fill:#2157a5"/>
    <path data-name="Path 3136" d="M16.012 6A2.012 2.012 0 0 0 14 8.012v16.1a2.012 2.012 0 0 0 2.012 2.012h.4a.4.4 0 0 0 0-.8h-.4a1.207 1.207 0 0 1-1.212-1.213V8.012A1.207 1.207 0 0 1 16.012 6.8H27.99a1.8 1.8 0 0 0-.306 1.006v16.3a1.207 1.207 0 0 1-1.207 1.207h-1.755a3.409 3.409 0 0 0 .145-.974v-2.832a1.61 1.61 0 0 0-1.61-1.61h-4.025a1.61 1.61 0 0 0-1.61 1.61v2.838a3.429 3.429 0 0 0 2.012 3.119l1.437.648a.4.4 0 0 0 .33 0l1.453-.648a3.417 3.417 0 0 0 1.5-1.34h2.121a2.012 2.012 0 0 0 2.012-2.012v-8.05h.8a2.012 2.012 0 0 0 2.012-2.012V7.823a1.8 1.8 0 0 0-.531-1.28A1.823 1.823 0 0 0 29.495 6zm13.461.829a1.042 1.042 0 0 1 .734.281 1 1 0 0 1 .294.712v6.226a1.207 1.207 0 0 1-1.207 1.207h-.8V7.823a1 1 0 0 1 .294-.712 1.042 1.042 0 0 1 .69-.281zM17.22 9.622a.4.4 0 1 0 0 .8h7.244a.4.4 0 1 0 0-.8zm0 3.447a.4.4 0 1 0 0 .8h7.244a.4.4 0 1 0 0-.8zm0 3.8a.4.4 0 1 0 0 .8h7.244a.4.4 0 1 0 0-.8zm2.012 3.831h4.025a.8.8 0 0 1 .8.8v2.838a2.62 2.62 0 0 1-1.541 2.386l-1.276.571-1.276-.571a2.62 2.62 0 0 1-1.541-2.386v-2.831a.8.8 0 0 1 .809-.807zm3.3 2.107a.413.413 0 0 0-.247.1l-1.356 1.207-.745-.6a.4.4 0 1 0-.5.628l1.006.8a.4.4 0 0 0 .516 0l1.61-1.409a.413.413 0 0 0-.281-.731z" transform="translate(-3 3)" style="fill:#d1e6ff;stroke:#d1e6ff;stroke-width:.4px"/>
</svg>
