<svg xmlns="http://www.w3.org/2000/svg" width="105.998" height="78.317" viewBox="0 0 105.998 78.317">
  <g id="Group_6987" data-name="Group 6987" transform="translate(-630 -2377.998)">
    <g id="Group_6985" data-name="Group 6985" transform="translate(-0.5)">
      <path id="Path_24738" data-name="Path 24738" d="M518.836,297.085l-1.9,1.189-1.131-1.936a10.829,10.829,0,0,0-14.1-4.58A11.38,11.38,0,0,0,497,307.564L508.1,326.6a2.489,2.489,0,0,0,3.487.857l18.672-11.706a11.367,11.367,0,0,0,3.185-16.181A10.836,10.836,0,0,0,518.836,297.085Z" transform="translate(174.979 2127.959)" fill="none" stroke="#881543" stroke-width="1"/>
      <path id="Path_24737" data-name="Path 24737" d="M525.81,299l-2.471,1.544-1.468-2.514c-3.737-6.419-11.685-9.271-18.306-5.948a14.779,14.779,0,0,0-6.111,20.527l14.42,24.726a3.233,3.233,0,0,0,4.529,1.113l24.249-15.2a14.763,14.763,0,0,0,4.136-21.014C540.461,296.215,532.114,295.051,525.81,299Z" transform="translate(161.012 2116.859)" fill="#fff" stroke="#e3e3e3" stroke-width="1"/>
    </g>
    <path id="Path_24739" data-name="Path 24739" d="M1751.4,21731.5h0l-1,0a53.807,53.807,0,0,1-.395-6.5,53,53,0,1,1,106,0,53.752,53.752,0,0,1-.395,6.5l-1,0a52.838,52.838,0,0,0,.4-6.5,52,52,0,1,0-104,0,52.934,52.934,0,0,0,.4,6.5Z" transform="translate(-1120 -19294)" fill="#e3e3e3"/>
  </g>
</svg>
