<svg xmlns="http://www.w3.org/2000/svg" width="145.509" height="459.271" viewBox="0 0 145.509 459.271">
  <g id="Group_6931" data-name="Group 6931" transform="translate(0 -784.167)">
    <path id="Union_32" data-name="Union 32" d="M7520,21830a2,2,0,1,1,2,2A2,2,0,0,1,7520,21830Zm-13,0a2,2,0,1,1,2,2A2,2,0,0,1,7507.008,21830Zm-13,0a2,2,0,1,1,2,2A2,2,0,0,1,7494.006,21830Zm26-13a2,2,0,1,1,2,2A2,2,0,0,1,7520,21817Zm-13,0a2,2,0,1,1,2,2A2,2,0,0,1,7507.008,21817Zm-13,0a2,2,0,1,1,2,2A2,2,0,0,1,7494.006,21817Zm26-13a2,2,0,1,1,2,2A2,2,0,0,1,7520,21804Zm-13,0a2,2,0,1,1,2,2A2,2,0,0,1,7507.008,21804Zm-13,0a2,2,0,1,1,2,2A2,2,0,0,1,7494.006,21804Zm26-13a2,2,0,1,1,2,2A2,2,0,0,1,7520,21791Zm-13,0a2,2,0,1,1,2,2A2,2,0,0,1,7507.008,21791Zm-13,0a2,2,0,1,1,2,2A2,2,0,0,1,7494.006,21791Zm26-13a2,2,0,1,1,2,2A2,2,0,0,1,7520,21778Zm-13,0a2,2,0,1,1,2,2A2,2,0,0,1,7507.008,21778Zm-13,0a2,2,0,1,1,2,2A2,2,0,0,1,7494.006,21778Zm26-13a2,2,0,1,1,2,2A2,2,0,0,1,7520,21765Zm-13,0a2,2,0,1,1,2,2A2,2,0,0,1,7507.008,21765Zm-13,0a2,2,0,1,1,2,2A2,2,0,0,1,7494.006,21765Zm26-13a2,2,0,1,1,2,2A2,2,0,0,1,7520,21752Zm-13,0a2,2,0,1,1,2,2A2,2,0,0,1,7507.008,21752Zm-13,0a2,2,0,1,1,2,2A2,2,0,0,1,7494.006,21752Zm26-13a2,2,0,1,1,2,2A2,2,0,0,1,7520,21739Zm-13,0a2,2,0,1,1,2,2A2,2,0,0,1,7507.008,21739Zm-13,0a2,2,0,1,1,2,2A2,2,0,0,1,7494.006,21739Zm26-13a2,2,0,1,1,2,2A2,2,0,0,1,7520,21726Zm-13,0a2,2,0,1,1,2,2A2,2,0,0,1,7507.008,21726Zm-13,0a2,2,0,1,1,2,2A2,2,0,0,1,7494.006,21726Zm26-13a2,2,0,1,1,2,2A2,2,0,0,1,7520,21713Zm-13,0a2,2,0,1,1,2,2A2,2,0,0,1,7507.008,21713Zm-13,0a2,2,0,1,1,2,2A2,2,0,0,1,7494.006,21713Zm26-13a2,2,0,1,1,2,2A2,2,0,0,1,7520,21700Zm-13,0a2,2,0,1,1,2,2A2,2,0,0,1,7507.008,21700Zm-13,0a2,2,0,1,1,2,2A2,2,0,0,1,7494.006,21700Zm26-13a2,2,0,1,1,2,2A2,2,0,0,1,7520,21687Zm-13,0a2,2,0,1,1,2,2A2,2,0,0,1,7507.008,21687Zm-13,0a2,2,0,1,1,2,2A2,2,0,0,1,7494.006,21687Zm26-13a2,2,0,1,1,2,2A2,2,0,0,1,7520,21674Zm-13,0a2,2,0,1,1,2,2A2,2,0,0,1,7507.008,21674Zm-13,0a2,2,0,1,1,2,2A2,2,0,0,1,7494.006,21674Z" transform="translate(-7494.006 -20676)" fill="#d6f0fc"/>
    <path id="Path_24658" data-name="Path 24658" d="M7443.975,21791.221l17.654-8.455c2.31,3.693,7.545,7.863,16.931,7.863,5.961,0,15.194-3.465,15.194-14.3v-4.533c-4.616,5-11.923,6.2-20.433,6.2-18.273,0-31.034-14.408-31.034-32.273s12.761-32.406,31.034-32.406c8.273,0,14.963,2.625,20.071,7.271h.362v-5.479H7515.3v62.752c0,20.51-15.455,31.1-36.741,31.1C7465.52,21808.959,7450.557,21806.1,7443.975,21791.221Zm23.147-58.047a9.054,9.054,0,0,0-3.87,12.709l9.128,15.324a2.057,2.057,0,0,0,2.862.688l15.369-9.4a8.869,8.869,0,1,0-9.4-15.029l-1.557.943-.943-1.545a9.228,9.228,0,0,0-7.865-4.553A8.5,8.5,0,0,0,7467.123,21733.174Zm137.78,73.992,21.544-40.48-20.347-35.506h-14.235v45.012h-21.547v-45.012h-9v-16.072h9v-13c.128-17.846,8.891-30.117,24.474-30.117a30.212,30.212,0,0,1,17.762,5.479l-7.544,14.9a14.515,14.515,0,0,0-6.456-1.672c-5.472,0-6.689,3.57-6.689,12.016v12.395H7621.7l17.42,31.32,14.834-31.32h24.839l-49.057,92.059Zm-298.813-57.877v-34.182h21.545v29.066c0,12.016,3.269,16.682,12.291,16.682,9,0,12.291-4.666,12.291-16.682v-29.066h21.545v34.182c0,20.479-10.476,28.705-33.836,28.705C7316.541,21777.994,7306.089,21769.768,7306.089,21749.289ZM7221,21765.016l11.456-18.826s13.381,11.068,24.58,11.068c4.98,0,14.471-.467,14.471-9.639,0-7.146-10.707-10.371-22.635-16.2-12.055-5.838-19.108-15-19.108-25.24,0-18.34,16.565-30.01,32.744-30.01a58.02,58.02,0,0,1,31.165,9.273l-9.254,17.875s-9.982-6.8-20.329-6.8c-7.779,0-11.926,3.463-11.926,8.826,0,5.475,9.49,9.408,20.925,14.168,11.2,4.639,23.489,13.943,23.489,26.807,0,23.455-18.252,31.682-37.851,31.682C7235.232,21777.994,7221,21765.016,7221,21765.016Zm308.923,11.176v-61.084h21.545v61.084Zm-142.782,0v-61.084h21.547v8.809h.234s6.818-10.6,19.108-10.6a26.193,26.193,0,0,1,13.637,3.826l-9,17.844s-4.019-3.309-11.2-3.309c-11.2,0-12.78,10.82-12.78,12.375v32.141Zm149.046-65.129-8.295-14.229a8.506,8.506,0,0,1,3.528-11.822,8.122,8.122,0,0,1,10.536,3.426l.835,1.451,1.431-.879a8.092,8.092,0,0,1,10.923,1.861,8.483,8.483,0,0,1-2.373,12.09l-13.979,8.752a1.851,1.851,0,0,1-.992.295A1.875,1.875,0,0,1,7536.186,21711.063Z" transform="translate(-21663.949 8463.795) rotate(-90)" fill="#fff" stroke="#d6f0fc" stroke-width="1"/>
  </g>
</svg>
