<svg xmlns="http://www.w3.org/2000/svg" xmlns:xlink="http://www.w3.org/1999/xlink" width="146.051" height="157.999" viewBox="0 0 146.051 157.999">
  <defs>
    <clipPath id="clip-path">
      <path id="NoPath_-_Copy_10_" data-name="NoPath - Copy (10)" d="M564.6,309.7l-5.63,3.531-3.348-5.75c-8.518-14.684-26.632-21.2-41.726-13.606a33.865,33.865,0,0,0-13.927,46.953l32.866,56.557a7.353,7.353,0,0,0,10.322,2.546l55.268-34.774a33.842,33.842,0,0,0,9.427-48.067C597.99,303.337,578.966,300.675,564.6,309.7Z" transform="translate(732.219 470.619)" fill="#d6a7ba"/>
    </clipPath>
    <clipPath id="clip-path-2">
      <path id="NoPath_-_Copy_10_2" data-name="NoPath - Copy (10)" d="M519.914,297.4l-1.99,1.248-1.183-2.032c-3.01-5.19-9.413-7.494-14.747-4.809a11.969,11.969,0,0,0-4.922,16.595L508.687,328.4a2.6,2.6,0,0,0,3.648.9l19.534-12.29a11.961,11.961,0,0,0,3.332-16.989C531.716,295.155,524.992,294.214,519.914,297.4Z" transform="translate(-495.488 -290.682)" fill="#d6a7ba"/>
    </clipPath>
    <clipPath id="clip-path-3">
      <path id="NoPath_-_Copy_10_3" data-name="NoPath - Copy (10)" d="M507.31,293.936l-.963.6-.573-.984a5.474,5.474,0,0,0-7.138-2.328,5.793,5.793,0,0,0-2.382,8.032l5.622,9.675a1.258,1.258,0,0,0,1.766.436l9.455-5.949a5.789,5.789,0,0,0,1.613-8.223A5.474,5.474,0,0,0,507.31,293.936Z" transform="translate(-495.488 -290.682)" fill="#d6a7ba"/>
    </clipPath>
  </defs>
  <g id="Group_6989" data-name="Group 6989" transform="translate(-52.707 -228.001)">
    <g id="Group_6955" data-name="Group 6955" transform="translate(-1175 -485.701)">
      <path id="NoPath_-_Copy_10_4" data-name="NoPath - Copy (10)" d="M564.6,309.7l-5.63,3.531-3.348-5.75c-8.518-14.684-26.632-21.2-41.726-13.606a33.865,33.865,0,0,0-13.927,46.953l32.866,56.557a7.353,7.353,0,0,0,10.322,2.546l55.268-34.774a33.842,33.842,0,0,0,9.427-48.067C597.99,303.337,578.966,300.675,564.6,309.7Z" transform="translate(732.219 470.619)" fill="#881543"/>
      <g id="Mask_Group_31" data-name="Mask Group 31" clip-path="url(#clip-path)">
        <path id="Union_29" data-name="Union 29" d="M7338.98,21791.488a1.515,1.515,0,1,1,1.513,1.512A1.512,1.512,0,0,1,7338.98,21791.488Zm-9.833,0a1.514,1.514,0,1,1,1.513,1.512A1.512,1.512,0,0,1,7329.147,21791.488Zm-9.829,0a1.514,1.514,0,1,1,1.512,1.512A1.511,1.511,0,0,1,7319.319,21791.488Zm-9.833,0A1.515,1.515,0,1,1,7311,21793,1.512,1.512,0,0,1,7309.486,21791.488Zm-9.833,0a1.515,1.515,0,1,1,1.513,1.512A1.512,1.512,0,0,1,7299.653,21791.488Zm-9.833,0a1.515,1.515,0,1,1,1.512,1.512A1.511,1.511,0,0,1,7289.82,21791.488Zm-9.829,0a1.514,1.514,0,1,1,1.513,1.512A1.512,1.512,0,0,1,7279.991,21791.488Zm-9.833,0a1.515,1.515,0,1,1,1.512,1.512A1.511,1.511,0,0,1,7270.158,21791.488Zm-9.833,0a1.515,1.515,0,1,1,1.513,1.512A1.512,1.512,0,0,1,7260.325,21791.488Zm-9.833,0A1.515,1.515,0,1,1,7252,21793,1.512,1.512,0,0,1,7250.492,21791.488Zm-9.828,0a1.514,1.514,0,1,1,1.512,1.512A1.511,1.511,0,0,1,7240.664,21791.488Zm-9.833,0a1.514,1.514,0,1,1,1.512,1.512A1.511,1.511,0,0,1,7230.831,21791.488Zm-9.833,0a1.514,1.514,0,1,1,1.512,1.512A1.512,1.512,0,0,1,7221,21791.488Zm117.982-9.832a1.515,1.515,0,1,1,1.513,1.512A1.512,1.512,0,0,1,7338.98,21781.656Zm-9.833,0a1.514,1.514,0,1,1,1.513,1.512A1.512,1.512,0,0,1,7329.147,21781.656Zm-9.829,0a1.514,1.514,0,1,1,1.512,1.512A1.511,1.511,0,0,1,7319.319,21781.656Zm-9.833,0a1.515,1.515,0,1,1,1.513,1.512A1.512,1.512,0,0,1,7309.486,21781.656Zm-9.833,0a1.515,1.515,0,1,1,1.513,1.512A1.512,1.512,0,0,1,7299.653,21781.656Zm-9.833,0a1.515,1.515,0,1,1,1.512,1.512A1.511,1.511,0,0,1,7289.82,21781.656Zm-9.829,0a1.514,1.514,0,1,1,1.513,1.512A1.512,1.512,0,0,1,7279.991,21781.656Zm-9.833,0a1.515,1.515,0,1,1,1.512,1.512A1.511,1.511,0,0,1,7270.158,21781.656Zm-9.833,0a1.515,1.515,0,1,1,1.513,1.512A1.512,1.512,0,0,1,7260.325,21781.656Zm-9.833,0a1.515,1.515,0,1,1,1.513,1.512A1.512,1.512,0,0,1,7250.492,21781.656Zm-9.828,0a1.514,1.514,0,1,1,1.512,1.512A1.511,1.511,0,0,1,7240.664,21781.656Zm-9.833,0a1.514,1.514,0,1,1,1.512,1.512A1.511,1.511,0,0,1,7230.831,21781.656Zm-9.833,0a1.514,1.514,0,1,1,1.512,1.512A1.512,1.512,0,0,1,7221,21781.656Zm117.982-9.828a1.515,1.515,0,1,1,1.513,1.512A1.512,1.512,0,0,1,7338.98,21771.828Zm-9.833,0a1.514,1.514,0,1,1,1.513,1.512A1.513,1.513,0,0,1,7329.147,21771.828Zm-9.829,0a1.514,1.514,0,1,1,1.512,1.512A1.512,1.512,0,0,1,7319.319,21771.828Zm-9.833,0a1.515,1.515,0,1,1,1.513,1.512A1.512,1.512,0,0,1,7309.486,21771.828Zm-9.833,0a1.515,1.515,0,1,1,1.513,1.512A1.512,1.512,0,0,1,7299.653,21771.828Zm-9.833,0a1.515,1.515,0,1,1,1.512,1.512A1.512,1.512,0,0,1,7289.82,21771.828Zm-9.829,0a1.514,1.514,0,1,1,1.513,1.512A1.512,1.512,0,0,1,7279.991,21771.828Zm-9.833,0a1.515,1.515,0,1,1,1.512,1.512A1.512,1.512,0,0,1,7270.158,21771.828Zm-9.833,0a1.515,1.515,0,1,1,1.513,1.512A1.512,1.512,0,0,1,7260.325,21771.828Zm-9.833,0a1.515,1.515,0,1,1,1.513,1.512A1.512,1.512,0,0,1,7250.492,21771.828Zm-9.828,0a1.514,1.514,0,1,1,1.512,1.512A1.512,1.512,0,0,1,7240.664,21771.828Zm-9.833,0a1.514,1.514,0,1,1,1.512,1.512A1.512,1.512,0,0,1,7230.831,21771.828Zm-9.833,0a1.514,1.514,0,1,1,1.512,1.512A1.512,1.512,0,0,1,7221,21771.828Zm117.982-9.834a1.515,1.515,0,1,1,1.513,1.514A1.514,1.514,0,0,1,7338.98,21761.994Zm-9.833,0a1.514,1.514,0,1,1,1.513,1.514A1.514,1.514,0,0,1,7329.147,21761.994Zm-9.829,0a1.514,1.514,0,1,1,1.512,1.514A1.513,1.513,0,0,1,7319.319,21761.994Zm-9.833,0a1.515,1.515,0,1,1,1.513,1.514A1.514,1.514,0,0,1,7309.486,21761.994Zm-9.833,0a1.515,1.515,0,1,1,1.513,1.514A1.514,1.514,0,0,1,7299.653,21761.994Zm-9.833,0a1.515,1.515,0,1,1,1.512,1.514A1.513,1.513,0,0,1,7289.82,21761.994Zm-9.829,0a1.514,1.514,0,1,1,1.513,1.514A1.514,1.514,0,0,1,7279.991,21761.994Zm-9.833,0a1.515,1.515,0,1,1,1.512,1.514A1.513,1.513,0,0,1,7270.158,21761.994Zm-9.833,0a1.515,1.515,0,1,1,1.513,1.514A1.514,1.514,0,0,1,7260.325,21761.994Zm-9.833,0a1.515,1.515,0,1,1,1.513,1.514A1.514,1.514,0,0,1,7250.492,21761.994Zm-9.828,0a1.514,1.514,0,1,1,1.512,1.514A1.513,1.513,0,0,1,7240.664,21761.994Zm-9.833,0a1.514,1.514,0,1,1,1.512,1.514A1.513,1.513,0,0,1,7230.831,21761.994Zm-9.833,0a1.514,1.514,0,1,1,1.512,1.514A1.513,1.513,0,0,1,7221,21761.994Zm117.982-9.834a1.515,1.515,0,1,1,1.513,1.514A1.513,1.513,0,0,1,7338.98,21752.16Zm-9.833,0a1.514,1.514,0,1,1,1.513,1.514A1.513,1.513,0,0,1,7329.147,21752.16Zm-9.829,0a1.514,1.514,0,1,1,1.512,1.514A1.513,1.513,0,0,1,7319.319,21752.16Zm-9.833,0a1.515,1.515,0,1,1,1.513,1.514A1.513,1.513,0,0,1,7309.486,21752.16Zm-9.833,0a1.515,1.515,0,1,1,1.513,1.514A1.513,1.513,0,0,1,7299.653,21752.16Zm-9.833,0a1.515,1.515,0,1,1,1.512,1.514A1.513,1.513,0,0,1,7289.82,21752.16Zm-9.829,0a1.514,1.514,0,1,1,1.513,1.514A1.513,1.513,0,0,1,7279.991,21752.16Zm-9.833,0a1.515,1.515,0,1,1,1.512,1.514A1.513,1.513,0,0,1,7270.158,21752.16Zm-9.833,0a1.515,1.515,0,1,1,1.513,1.514A1.513,1.513,0,0,1,7260.325,21752.16Zm-9.833,0a1.515,1.515,0,1,1,1.513,1.514A1.513,1.513,0,0,1,7250.492,21752.16Zm-9.828,0a1.514,1.514,0,1,1,1.512,1.514A1.513,1.513,0,0,1,7240.664,21752.16Zm-9.833,0a1.514,1.514,0,1,1,1.512,1.514A1.513,1.513,0,0,1,7230.831,21752.16Zm-9.833,0a1.514,1.514,0,1,1,1.512,1.514A1.513,1.513,0,0,1,7221,21752.16Zm117.982-9.828a1.515,1.515,0,1,1,1.513,1.514A1.512,1.512,0,0,1,7338.98,21742.332Zm-9.833,0a1.514,1.514,0,1,1,1.513,1.514A1.512,1.512,0,0,1,7329.147,21742.332Zm-9.829,0a1.514,1.514,0,1,1,1.512,1.514A1.511,1.511,0,0,1,7319.319,21742.332Zm-9.833,0a1.515,1.515,0,1,1,1.513,1.514A1.512,1.512,0,0,1,7309.486,21742.332Zm-9.833,0a1.515,1.515,0,1,1,1.513,1.514A1.512,1.512,0,0,1,7299.653,21742.332Zm-9.833,0a1.515,1.515,0,1,1,1.512,1.514A1.511,1.511,0,0,1,7289.82,21742.332Zm-9.829,0a1.514,1.514,0,1,1,1.513,1.514A1.512,1.512,0,0,1,7279.991,21742.332Zm-9.833,0a1.515,1.515,0,1,1,1.512,1.514A1.511,1.511,0,0,1,7270.158,21742.332Zm-9.833,0a1.515,1.515,0,1,1,1.513,1.514A1.512,1.512,0,0,1,7260.325,21742.332Zm-9.833,0a1.515,1.515,0,1,1,1.513,1.514A1.512,1.512,0,0,1,7250.492,21742.332Zm-9.828,0a1.514,1.514,0,1,1,1.512,1.514A1.511,1.511,0,0,1,7240.664,21742.332Zm-9.833,0a1.514,1.514,0,1,1,1.512,1.514A1.511,1.511,0,0,1,7230.831,21742.332Zm-9.833,0a1.514,1.514,0,1,1,1.512,1.514A1.512,1.512,0,0,1,7221,21742.332Zm117.982-9.832a1.515,1.515,0,1,1,1.513,1.512A1.512,1.512,0,0,1,7338.98,21732.5Zm-9.833,0a1.514,1.514,0,1,1,1.513,1.512A1.512,1.512,0,0,1,7329.147,21732.5Zm-9.829,0a1.514,1.514,0,1,1,1.512,1.512A1.511,1.511,0,0,1,7319.319,21732.5Zm-9.833,0a1.515,1.515,0,1,1,1.513,1.512A1.512,1.512,0,0,1,7309.486,21732.5Zm-9.833,0a1.515,1.515,0,1,1,1.513,1.512A1.512,1.512,0,0,1,7299.653,21732.5Zm-9.833,0a1.515,1.515,0,1,1,1.512,1.512A1.511,1.511,0,0,1,7289.82,21732.5Zm-9.829,0a1.514,1.514,0,1,1,1.513,1.512A1.512,1.512,0,0,1,7279.991,21732.5Zm-9.833,0a1.515,1.515,0,1,1,1.512,1.512A1.511,1.511,0,0,1,7270.158,21732.5Zm-9.833,0a1.515,1.515,0,1,1,1.513,1.512A1.512,1.512,0,0,1,7260.325,21732.5Zm-9.833,0a1.515,1.515,0,1,1,1.513,1.512A1.512,1.512,0,0,1,7250.492,21732.5Zm-9.828,0a1.514,1.514,0,1,1,1.512,1.512A1.511,1.511,0,0,1,7240.664,21732.5Zm-9.833,0a1.514,1.514,0,1,1,1.512,1.512A1.511,1.511,0,0,1,7230.831,21732.5Zm-9.833,0a1.514,1.514,0,1,1,1.512,1.512A1.512,1.512,0,0,1,7221,21732.5Zm117.982-9.832a1.515,1.515,0,1,1,1.513,1.512A1.513,1.513,0,0,1,7338.98,21722.668Zm-9.833,0a1.514,1.514,0,1,1,1.513,1.512A1.513,1.513,0,0,1,7329.147,21722.668Zm-9.829,0a1.514,1.514,0,1,1,1.512,1.512A1.513,1.513,0,0,1,7319.319,21722.668Zm-9.833,0a1.515,1.515,0,1,1,1.513,1.512A1.513,1.513,0,0,1,7309.486,21722.668Zm-9.833,0a1.515,1.515,0,1,1,1.513,1.512A1.513,1.513,0,0,1,7299.653,21722.668Zm-9.833,0a1.515,1.515,0,1,1,1.512,1.512A1.513,1.513,0,0,1,7289.82,21722.668Zm-9.829,0a1.514,1.514,0,1,1,1.513,1.512A1.513,1.513,0,0,1,7279.991,21722.668Zm-9.833,0a1.515,1.515,0,1,1,1.512,1.512A1.513,1.513,0,0,1,7270.158,21722.668Zm-9.833,0a1.515,1.515,0,1,1,1.513,1.512A1.513,1.513,0,0,1,7260.325,21722.668Zm-9.833,0a1.515,1.515,0,1,1,1.513,1.512A1.513,1.513,0,0,1,7250.492,21722.668Zm-9.828,0a1.514,1.514,0,1,1,1.512,1.512A1.513,1.513,0,0,1,7240.664,21722.668Zm-9.833,0a1.514,1.514,0,1,1,1.512,1.512A1.513,1.513,0,0,1,7230.831,21722.668Zm-9.833,0a1.514,1.514,0,1,1,1.512,1.512A1.513,1.513,0,0,1,7221,21722.668Zm117.982-9.828a1.515,1.515,0,1,1,1.513,1.512A1.511,1.511,0,0,1,7338.98,21712.84Zm-9.833,0a1.514,1.514,0,1,1,1.513,1.512A1.511,1.511,0,0,1,7329.147,21712.84Zm-9.829,0a1.514,1.514,0,1,1,1.512,1.512A1.51,1.51,0,0,1,7319.319,21712.84Zm-9.833,0a1.515,1.515,0,1,1,1.513,1.512A1.511,1.511,0,0,1,7309.486,21712.84Zm-9.833,0a1.515,1.515,0,1,1,1.513,1.512A1.511,1.511,0,0,1,7299.653,21712.84Zm-9.833,0a1.515,1.515,0,1,1,1.512,1.512A1.51,1.51,0,0,1,7289.82,21712.84Zm-9.829,0a1.514,1.514,0,1,1,1.513,1.512A1.511,1.511,0,0,1,7279.991,21712.84Zm-9.833,0a1.515,1.515,0,1,1,1.512,1.512A1.51,1.51,0,0,1,7270.158,21712.84Zm-9.833,0a1.515,1.515,0,1,1,1.513,1.512A1.511,1.511,0,0,1,7260.325,21712.84Zm-9.833,0a1.515,1.515,0,1,1,1.513,1.512A1.511,1.511,0,0,1,7250.492,21712.84Zm-9.828,0a1.514,1.514,0,1,1,1.512,1.512A1.51,1.51,0,0,1,7240.664,21712.84Zm-9.833,0a1.514,1.514,0,1,1,1.512,1.512A1.51,1.51,0,0,1,7230.831,21712.84Zm-9.833,0a1.514,1.514,0,1,1,1.512,1.512A1.51,1.51,0,0,1,7221,21712.84Zm117.982-9.832a1.515,1.515,0,1,1,1.513,1.512A1.512,1.512,0,0,1,7338.98,21703.008Zm-9.833,0a1.514,1.514,0,1,1,1.513,1.512A1.513,1.513,0,0,1,7329.147,21703.008Zm-9.829,0a1.514,1.514,0,1,1,1.512,1.512A1.512,1.512,0,0,1,7319.319,21703.008Zm-9.833,0a1.515,1.515,0,1,1,1.513,1.512A1.512,1.512,0,0,1,7309.486,21703.008Zm-9.833,0a1.515,1.515,0,1,1,1.513,1.512A1.512,1.512,0,0,1,7299.653,21703.008Zm-9.833,0a1.515,1.515,0,1,1,1.512,1.512A1.512,1.512,0,0,1,7289.82,21703.008Zm-9.829,0a1.514,1.514,0,1,1,1.513,1.512A1.512,1.512,0,0,1,7279.991,21703.008Zm-9.833,0a1.515,1.515,0,1,1,1.512,1.512A1.512,1.512,0,0,1,7270.158,21703.008Zm-9.833,0a1.515,1.515,0,1,1,1.513,1.512A1.512,1.512,0,0,1,7260.325,21703.008Zm-9.833,0a1.515,1.515,0,1,1,1.513,1.512A1.512,1.512,0,0,1,7250.492,21703.008Zm-9.828,0a1.514,1.514,0,1,1,1.512,1.512A1.512,1.512,0,0,1,7240.664,21703.008Zm-9.833,0a1.514,1.514,0,1,1,1.512,1.512A1.512,1.512,0,0,1,7230.831,21703.008Zm-9.833,0a1.514,1.514,0,1,1,1.512,1.512A1.512,1.512,0,0,1,7221,21703.008Zm117.982-9.834a1.515,1.515,0,1,1,1.513,1.514A1.517,1.517,0,0,1,7338.98,21693.174Zm-9.833,0a1.514,1.514,0,1,1,1.513,1.514A1.518,1.518,0,0,1,7329.147,21693.174Zm-9.829,0a1.514,1.514,0,1,1,1.512,1.514A1.517,1.517,0,0,1,7319.319,21693.174Zm-9.833,0a1.515,1.515,0,1,1,1.513,1.514A1.517,1.517,0,0,1,7309.486,21693.174Zm-9.833,0a1.515,1.515,0,1,1,1.513,1.514A1.517,1.517,0,0,1,7299.653,21693.174Zm-9.833,0a1.515,1.515,0,1,1,1.512,1.514A1.517,1.517,0,0,1,7289.82,21693.174Zm-9.829,0a1.514,1.514,0,1,1,1.513,1.514A1.517,1.517,0,0,1,7279.991,21693.174Zm-9.833,0a1.515,1.515,0,1,1,1.512,1.514A1.517,1.517,0,0,1,7270.158,21693.174Zm-9.833,0a1.515,1.515,0,1,1,1.513,1.514A1.517,1.517,0,0,1,7260.325,21693.174Zm-9.833,0a1.515,1.515,0,1,1,1.513,1.514A1.517,1.517,0,0,1,7250.492,21693.174Zm-9.828,0a1.514,1.514,0,1,1,1.512,1.514A1.517,1.517,0,0,1,7240.664,21693.174Zm-9.833,0a1.514,1.514,0,1,1,1.512,1.514A1.517,1.517,0,0,1,7230.831,21693.174Zm-9.833,0a1.514,1.514,0,1,1,1.512,1.514A1.517,1.517,0,0,1,7221,21693.174Zm117.982-9.828a1.515,1.515,0,1,1,1.513,1.514A1.514,1.514,0,0,1,7338.98,21683.346Zm-9.833,0a1.514,1.514,0,1,1,1.513,1.514A1.514,1.514,0,0,1,7329.147,21683.346Zm-9.829,0a1.514,1.514,0,1,1,1.512,1.514A1.513,1.513,0,0,1,7319.319,21683.346Zm-9.833,0a1.515,1.515,0,1,1,1.513,1.514A1.514,1.514,0,0,1,7309.486,21683.346Zm-9.833,0a1.515,1.515,0,1,1,1.513,1.514A1.514,1.514,0,0,1,7299.653,21683.346Zm-9.833,0a1.515,1.515,0,1,1,1.512,1.514A1.513,1.513,0,0,1,7289.82,21683.346Zm-9.829,0a1.514,1.514,0,1,1,1.513,1.514A1.514,1.514,0,0,1,7279.991,21683.346Zm-9.833,0a1.515,1.515,0,1,1,1.512,1.514A1.513,1.513,0,0,1,7270.158,21683.346Zm-9.833,0a1.515,1.515,0,1,1,1.513,1.514A1.514,1.514,0,0,1,7260.325,21683.346Zm-9.833,0a1.515,1.515,0,1,1,1.513,1.514A1.514,1.514,0,0,1,7250.492,21683.346Zm-9.828,0a1.514,1.514,0,1,1,1.512,1.514A1.513,1.513,0,0,1,7240.664,21683.346Zm-9.833,0a1.514,1.514,0,1,1,1.512,1.514A1.513,1.513,0,0,1,7230.831,21683.346Zm-9.833,0a1.514,1.514,0,1,1,1.512,1.514A1.513,1.513,0,0,1,7221,21683.346Zm117.982-9.834a1.515,1.515,0,1,1,1.513,1.514A1.512,1.512,0,0,1,7338.98,21673.512Zm-9.833,0a1.514,1.514,0,1,1,1.513,1.514A1.512,1.512,0,0,1,7329.147,21673.512Zm-9.829,0a1.514,1.514,0,1,1,1.512,1.514A1.511,1.511,0,0,1,7319.319,21673.512Zm-9.833,0a1.515,1.515,0,1,1,1.513,1.514A1.512,1.512,0,0,1,7309.486,21673.512Zm-9.833,0a1.515,1.515,0,1,1,1.513,1.514A1.512,1.512,0,0,1,7299.653,21673.512Zm-9.833,0a1.515,1.515,0,1,1,1.512,1.514A1.511,1.511,0,0,1,7289.82,21673.512Zm-9.829,0a1.514,1.514,0,1,1,1.513,1.514A1.512,1.512,0,0,1,7279.991,21673.512Zm-9.833,0a1.515,1.515,0,1,1,1.512,1.514A1.511,1.511,0,0,1,7270.158,21673.512Zm-9.833,0a1.515,1.515,0,1,1,1.513,1.514A1.512,1.512,0,0,1,7260.325,21673.512Zm-9.833,0a1.515,1.515,0,1,1,1.513,1.514A1.512,1.512,0,0,1,7250.492,21673.512Zm-9.828,0a1.514,1.514,0,1,1,1.512,1.514A1.511,1.511,0,0,1,7240.664,21673.512Zm-9.833,0a1.514,1.514,0,1,1,1.512,1.514A1.511,1.511,0,0,1,7230.831,21673.512Zm-9.833,0a1.514,1.514,0,1,1,1.512,1.514A1.512,1.512,0,0,1,7221,21673.512Z" transform="translate(-5995.295 -20920.5)" fill="#9c2555"/>
      </g>
    </g>
    <g id="Group_6956" data-name="Group 6956" transform="translate(-1128.049 -533.301)">
      <path id="NoPath_-_Copy_10_5" data-name="NoPath - Copy (10)" d="M519.914,297.4l-1.99,1.248-1.183-2.032c-3.01-5.19-9.413-7.494-14.747-4.809a11.969,11.969,0,0,0-4.922,16.595L508.687,328.4a2.6,2.6,0,0,0,3.648.9l19.534-12.29a11.961,11.961,0,0,0,3.332-16.989C531.716,295.155,524.992,294.214,519.914,297.4Z" transform="translate(732.219 470.619)" fill="#881543"/>
      <g id="Mask_Group_31-2" data-name="Mask Group 31" transform="translate(1227.707 761.301)" clip-path="url(#clip-path-2)">
        <path id="Union_29-2" data-name="Union 29" d="M41.7,42.232a.535.535,0,1,1,.535.534A.534.534,0,0,1,41.7,42.232Zm-3.475,0a.535.535,0,1,1,.535.534A.535.535,0,0,1,38.224,42.232Zm-3.474,0a.535.535,0,1,1,.534.534A.534.534,0,0,1,34.75,42.232Zm-3.475,0a.535.535,0,1,1,.535.534A.534.534,0,0,1,31.275,42.232Zm-3.475,0a.535.535,0,1,1,.535.534A.534.534,0,0,1,27.8,42.232Zm-3.475,0a.535.535,0,1,1,.534.534A.534.534,0,0,1,24.324,42.232Zm-3.474,0a.535.535,0,1,1,.535.534A.534.534,0,0,1,20.85,42.232Zm-3.475,0a.535.535,0,1,1,.534.534A.534.534,0,0,1,17.375,42.232Zm-3.475,0a.535.535,0,1,1,.535.534A.534.534,0,0,1,13.9,42.232Zm-3.475,0a.535.535,0,1,1,.535.534A.534.534,0,0,1,10.424,42.232Zm-3.474,0a.535.535,0,1,1,.534.534A.534.534,0,0,1,6.951,42.232Zm-3.475,0a.535.535,0,1,1,.534.534A.534.534,0,0,1,3.475,42.232ZM0,42.232a.535.535,0,1,1,.534.534A.534.534,0,0,1,0,42.232Zm41.7-3.475a.535.535,0,1,1,.535.534A.534.534,0,0,1,41.7,38.756Zm-3.475,0a.535.535,0,1,1,.535.534A.534.534,0,0,1,38.224,38.756Zm-3.474,0a.535.535,0,1,1,.534.534A.534.534,0,0,1,34.75,38.756Zm-3.475,0a.535.535,0,1,1,.535.534A.534.534,0,0,1,31.275,38.756Zm-3.475,0a.535.535,0,1,1,.535.534A.534.534,0,0,1,27.8,38.756Zm-3.475,0a.535.535,0,1,1,.534.534A.534.534,0,0,1,24.324,38.756Zm-3.474,0a.535.535,0,1,1,.535.534A.534.534,0,0,1,20.85,38.756Zm-3.475,0a.535.535,0,1,1,.534.534A.534.534,0,0,1,17.375,38.756Zm-3.475,0a.535.535,0,1,1,.535.534A.534.534,0,0,1,13.9,38.756Zm-3.475,0a.535.535,0,1,1,.535.534A.534.534,0,0,1,10.424,38.756Zm-3.474,0a.535.535,0,1,1,.534.534A.534.534,0,0,1,6.951,38.756Zm-3.475,0a.535.535,0,1,1,.534.534A.534.534,0,0,1,3.475,38.756ZM0,38.756a.535.535,0,1,1,.534.534A.534.534,0,0,1,0,38.756Zm41.7-3.473a.535.535,0,1,1,.535.534A.534.534,0,0,1,41.7,35.283Zm-3.475,0a.535.535,0,1,1,.535.534A.535.535,0,0,1,38.224,35.283Zm-3.474,0a.535.535,0,1,1,.534.534A.534.534,0,0,1,34.75,35.283Zm-3.475,0a.535.535,0,1,1,.535.534A.534.534,0,0,1,31.275,35.283Zm-3.475,0a.535.535,0,1,1,.535.534A.534.534,0,0,1,27.8,35.283Zm-3.475,0a.535.535,0,1,1,.534.534A.534.534,0,0,1,24.324,35.283Zm-3.474,0a.535.535,0,1,1,.535.534A.534.534,0,0,1,20.85,35.283Zm-3.475,0a.535.535,0,1,1,.534.534A.534.534,0,0,1,17.375,35.283Zm-3.475,0a.535.535,0,1,1,.535.534A.534.534,0,0,1,13.9,35.283Zm-3.475,0a.535.535,0,1,1,.535.534A.534.534,0,0,1,10.424,35.283Zm-3.474,0a.535.535,0,1,1,.534.534A.534.534,0,0,1,6.951,35.283Zm-3.475,0a.535.535,0,1,1,.534.534A.534.534,0,0,1,3.475,35.283ZM0,35.283a.535.535,0,1,1,.534.534A.534.534,0,0,1,0,35.283Zm41.7-3.476a.535.535,0,1,1,.535.535A.535.535,0,0,1,41.7,31.807Zm-3.475,0a.535.535,0,1,1,.535.535A.535.535,0,0,1,38.224,31.807Zm-3.474,0a.535.535,0,1,1,.534.535A.535.535,0,0,1,34.75,31.807Zm-3.475,0a.535.535,0,1,1,.535.535A.535.535,0,0,1,31.275,31.807Zm-3.475,0a.535.535,0,1,1,.535.535A.535.535,0,0,1,27.8,31.807Zm-3.475,0a.535.535,0,1,1,.534.535A.535.535,0,0,1,24.324,31.807Zm-3.474,0a.535.535,0,1,1,.535.535A.535.535,0,0,1,20.85,31.807Zm-3.475,0a.535.535,0,1,1,.534.535A.535.535,0,0,1,17.375,31.807Zm-3.475,0a.535.535,0,1,1,.535.535A.535.535,0,0,1,13.9,31.807Zm-3.475,0a.535.535,0,1,1,.535.535A.535.535,0,0,1,10.424,31.807Zm-3.474,0a.535.535,0,1,1,.534.535A.535.535,0,0,1,6.951,31.807Zm-3.475,0a.535.535,0,1,1,.534.535A.535.535,0,0,1,3.475,31.807ZM0,31.807a.535.535,0,1,1,.534.535A.535.535,0,0,1,0,31.807Zm41.7-3.475a.535.535,0,1,1,.535.535A.535.535,0,0,1,41.7,28.332Zm-3.475,0a.535.535,0,1,1,.535.535A.535.535,0,0,1,38.224,28.332Zm-3.474,0a.535.535,0,1,1,.534.535A.535.535,0,0,1,34.75,28.332Zm-3.475,0a.535.535,0,1,1,.535.535A.535.535,0,0,1,31.275,28.332Zm-3.475,0a.535.535,0,1,1,.535.535A.535.535,0,0,1,27.8,28.332Zm-3.475,0a.535.535,0,1,1,.534.535A.535.535,0,0,1,24.324,28.332Zm-3.474,0a.535.535,0,1,1,.535.535A.535.535,0,0,1,20.85,28.332Zm-3.475,0a.535.535,0,1,1,.534.535A.535.535,0,0,1,17.375,28.332Zm-3.475,0a.535.535,0,1,1,.535.535A.535.535,0,0,1,13.9,28.332Zm-3.475,0a.535.535,0,1,1,.535.535A.535.535,0,0,1,10.424,28.332Zm-3.474,0a.535.535,0,1,1,.534.535A.535.535,0,0,1,6.951,28.332Zm-3.475,0a.535.535,0,1,1,.534.535A.535.535,0,0,1,3.475,28.332ZM0,28.332a.535.535,0,1,1,.534.535A.535.535,0,0,1,0,28.332Zm41.7-3.474a.535.535,0,1,1,.535.536A.534.534,0,0,1,41.7,24.857Zm-3.475,0a.535.535,0,1,1,.535.536A.534.534,0,0,1,38.224,24.857Zm-3.474,0a.535.535,0,1,1,.534.536A.534.534,0,0,1,34.75,24.857Zm-3.475,0a.535.535,0,1,1,.535.536A.534.534,0,0,1,31.275,24.857Zm-3.475,0a.535.535,0,1,1,.535.536A.534.534,0,0,1,27.8,24.857Zm-3.475,0a.535.535,0,1,1,.534.536A.534.534,0,0,1,24.324,24.857Zm-3.474,0a.535.535,0,1,1,.535.536A.534.534,0,0,1,20.85,24.857Zm-3.475,0a.535.535,0,1,1,.534.536A.534.534,0,0,1,17.375,24.857Zm-3.475,0a.535.535,0,1,1,.535.536A.534.534,0,0,1,13.9,24.857Zm-3.475,0a.535.535,0,1,1,.535.536A.534.534,0,0,1,10.424,24.857Zm-3.474,0a.535.535,0,1,1,.534.536A.534.534,0,0,1,6.951,24.857Zm-3.475,0a.535.535,0,1,1,.534.536A.534.534,0,0,1,3.475,24.857ZM0,24.857a.535.535,0,1,1,.534.536A.534.534,0,0,1,0,24.857Zm41.7-3.475a.535.535,0,1,1,.535.534A.534.534,0,0,1,41.7,21.383Zm-3.475,0a.535.535,0,1,1,.535.534A.534.534,0,0,1,38.224,21.383Zm-3.474,0a.535.535,0,1,1,.534.534A.534.534,0,0,1,34.75,21.383Zm-3.475,0a.535.535,0,1,1,.535.534A.534.534,0,0,1,31.275,21.383Zm-3.475,0a.535.535,0,1,1,.535.534A.534.534,0,0,1,27.8,21.383Zm-3.475,0a.535.535,0,1,1,.534.534A.534.534,0,0,1,24.324,21.383Zm-3.474,0a.535.535,0,1,1,.535.534A.534.534,0,0,1,20.85,21.383Zm-3.475,0a.535.535,0,1,1,.534.534A.534.534,0,0,1,17.375,21.383Zm-3.475,0a.535.535,0,1,1,.535.534A.534.534,0,0,1,13.9,21.383Zm-3.475,0a.535.535,0,1,1,.535.534A.534.534,0,0,1,10.424,21.383Zm-3.474,0a.535.535,0,1,1,.534.534A.534.534,0,0,1,6.951,21.383Zm-3.475,0a.535.535,0,1,1,.534.534A.534.534,0,0,1,3.475,21.383ZM0,21.383a.535.535,0,1,1,.534.534A.534.534,0,0,1,0,21.383Zm41.7-3.475a.535.535,0,1,1,.535.534A.535.535,0,0,1,41.7,17.908Zm-3.475,0a.535.535,0,1,1,.535.534A.535.535,0,0,1,38.224,17.908Zm-3.474,0a.535.535,0,1,1,.534.534A.535.535,0,0,1,34.75,17.908Zm-3.475,0a.535.535,0,1,1,.535.534A.535.535,0,0,1,31.275,17.908Zm-3.475,0a.535.535,0,1,1,.535.534A.535.535,0,0,1,27.8,17.908Zm-3.475,0a.535.535,0,1,1,.534.534A.535.535,0,0,1,24.324,17.908Zm-3.474,0a.535.535,0,1,1,.535.534A.535.535,0,0,1,20.85,17.908Zm-3.475,0a.535.535,0,1,1,.534.534A.535.535,0,0,1,17.375,17.908Zm-3.475,0a.535.535,0,1,1,.535.534A.535.535,0,0,1,13.9,17.908Zm-3.475,0a.535.535,0,1,1,.535.534A.535.535,0,0,1,10.424,17.908Zm-3.474,0a.535.535,0,1,1,.534.534A.535.535,0,0,1,6.951,17.908Zm-3.475,0a.535.535,0,1,1,.534.534A.535.535,0,0,1,3.475,17.908ZM0,17.908a.535.535,0,1,1,.534.534A.535.535,0,0,1,0,17.908Zm41.7-3.473a.535.535,0,1,1,.535.534A.534.534,0,0,1,41.7,14.434Zm-3.475,0a.535.535,0,1,1,.535.534A.534.534,0,0,1,38.224,14.434Zm-3.474,0a.535.535,0,1,1,.534.534A.534.534,0,0,1,34.75,14.434Zm-3.475,0a.535.535,0,1,1,.535.534A.534.534,0,0,1,31.275,14.434Zm-3.475,0a.535.535,0,1,1,.535.534A.534.534,0,0,1,27.8,14.434Zm-3.475,0a.535.535,0,1,1,.534.534A.534.534,0,0,1,24.324,14.434Zm-3.474,0a.535.535,0,1,1,.535.534A.534.534,0,0,1,20.85,14.434Zm-3.475,0a.535.535,0,1,1,.534.534A.534.534,0,0,1,17.375,14.434Zm-3.475,0a.535.535,0,1,1,.535.534A.534.534,0,0,1,13.9,14.434Zm-3.475,0a.535.535,0,1,1,.535.534A.534.534,0,0,1,10.424,14.434Zm-3.474,0a.535.535,0,1,1,.534.534A.534.534,0,0,1,6.951,14.434Zm-3.475,0a.535.535,0,1,1,.534.534A.534.534,0,0,1,3.475,14.434ZM0,14.434a.535.535,0,1,1,.534.534A.534.534,0,0,1,0,14.434Zm41.7-3.475a.535.535,0,1,1,.535.534A.534.534,0,0,1,41.7,10.959Zm-3.475,0a.535.535,0,1,1,.535.534A.535.535,0,0,1,38.224,10.959Zm-3.474,0a.535.535,0,1,1,.534.534A.534.534,0,0,1,34.75,10.959Zm-3.475,0a.535.535,0,1,1,.535.534A.534.534,0,0,1,31.275,10.959Zm-3.475,0a.535.535,0,1,1,.535.534A.534.534,0,0,1,27.8,10.959Zm-3.475,0a.535.535,0,1,1,.534.534A.534.534,0,0,1,24.324,10.959Zm-3.474,0a.535.535,0,1,1,.535.534A.534.534,0,0,1,20.85,10.959Zm-3.475,0a.535.535,0,1,1,.534.534A.534.534,0,0,1,17.375,10.959Zm-3.475,0a.535.535,0,1,1,.535.534A.534.534,0,0,1,13.9,10.959Zm-3.475,0a.535.535,0,1,1,.535.534A.534.534,0,0,1,10.424,10.959Zm-3.474,0a.535.535,0,1,1,.534.534A.534.534,0,0,1,6.951,10.959Zm-3.475,0a.535.535,0,1,1,.534.534A.534.534,0,0,1,3.475,10.959ZM0,10.959a.535.535,0,1,1,.534.534A.534.534,0,0,1,0,10.959ZM41.7,7.484a.535.535,0,1,1,.535.535A.536.536,0,0,1,41.7,7.484Zm-3.475,0a.535.535,0,1,1,.535.535A.536.536,0,0,1,38.224,7.484Zm-3.474,0a.535.535,0,1,1,.534.535A.536.536,0,0,1,34.75,7.484Zm-3.475,0a.535.535,0,1,1,.535.535A.536.536,0,0,1,31.275,7.484Zm-3.475,0a.535.535,0,1,1,.535.535A.536.536,0,0,1,27.8,7.484Zm-3.475,0a.535.535,0,1,1,.534.535A.536.536,0,0,1,24.324,7.484Zm-3.474,0a.535.535,0,1,1,.535.535A.536.536,0,0,1,20.85,7.484Zm-3.475,0a.535.535,0,1,1,.534.535A.536.536,0,0,1,17.375,7.484Zm-3.475,0a.535.535,0,1,1,.535.535A.536.536,0,0,1,13.9,7.484Zm-3.475,0a.535.535,0,1,1,.535.535A.536.536,0,0,1,10.424,7.484Zm-3.474,0a.535.535,0,1,1,.534.535A.536.536,0,0,1,6.951,7.484Zm-3.475,0a.535.535,0,1,1,.534.535A.536.536,0,0,1,3.475,7.484ZM0,7.484a.535.535,0,1,1,.534.535A.536.536,0,0,1,0,7.484ZM41.7,4.01a.535.535,0,1,1,.535.535A.535.535,0,0,1,41.7,4.01Zm-3.475,0a.535.535,0,1,1,.535.535A.535.535,0,0,1,38.224,4.01Zm-3.474,0a.535.535,0,1,1,.534.535A.535.535,0,0,1,34.75,4.01Zm-3.475,0a.535.535,0,1,1,.535.535A.535.535,0,0,1,31.275,4.01Zm-3.475,0a.535.535,0,1,1,.535.535A.535.535,0,0,1,27.8,4.01Zm-3.475,0a.535.535,0,1,1,.534.535A.535.535,0,0,1,24.324,4.01Zm-3.474,0a.535.535,0,1,1,.535.535A.535.535,0,0,1,20.85,4.01Zm-3.475,0a.535.535,0,1,1,.534.535A.535.535,0,0,1,17.375,4.01Zm-3.475,0a.535.535,0,1,1,.535.535A.535.535,0,0,1,13.9,4.01Zm-3.475,0a.535.535,0,1,1,.535.535A.535.535,0,0,1,10.424,4.01Zm-3.474,0a.535.535,0,1,1,.534.535A.535.535,0,0,1,6.951,4.01Zm-3.475,0a.535.535,0,1,1,.534.535A.535.535,0,0,1,3.475,4.01ZM0,4.01a.535.535,0,1,1,.534.535A.535.535,0,0,1,0,4.01ZM41.7.534a.535.535,0,1,1,.535.535A.534.534,0,0,1,41.7.534Zm-3.475,0a.535.535,0,1,1,.535.535A.535.535,0,0,1,38.224.534Zm-3.474,0a.535.535,0,1,1,.534.535A.534.534,0,0,1,34.75.534Zm-3.475,0a.535.535,0,1,1,.535.535A.534.534,0,0,1,31.275.534ZM27.8.534a.535.535,0,1,1,.535.535A.534.534,0,0,1,27.8.534Zm-3.475,0a.535.535,0,1,1,.534.535A.534.534,0,0,1,24.324.534Zm-3.474,0a.535.535,0,1,1,.535.535A.534.534,0,0,1,20.85.534Zm-3.475,0a.535.535,0,1,1,.534.535A.534.534,0,0,1,17.375.534ZM13.9.534a.535.535,0,1,1,.535.535A.534.534,0,0,1,13.9.534Zm-3.475,0a.535.535,0,1,1,.535.535A.534.534,0,0,1,10.424.534Zm-3.474,0a.535.535,0,1,1,.534.535A.534.534,0,0,1,6.951.534Zm-3.475,0a.535.535,0,1,1,.534.535A.534.534,0,0,1,3.475.534ZM0,.534a.535.535,0,1,1,.534.535A.534.534,0,0,1,0,.534Z" transform="translate(-0.708 -3.464)" fill="#9c2555"/>
      </g>
    </g>
    <g id="Group_6957" data-name="Group 6957" transform="translate(-1049.236 -438.145)">
      <path id="NoPath_-_Copy_10_6" data-name="NoPath - Copy (10)" d="M507.31,293.936l-.963.6-.573-.984a5.474,5.474,0,0,0-7.138-2.328,5.793,5.793,0,0,0-2.382,8.032l5.622,9.675a1.258,1.258,0,0,0,1.766.436l9.455-5.949a5.789,5.789,0,0,0,1.613-8.223A5.474,5.474,0,0,0,507.31,293.936Z" transform="translate(732.219 470.619)" fill="#881543"/>
      <g id="Mask_Group_31-3" data-name="Mask Group 31" transform="translate(1227.707 761.301)" clip-path="url(#clip-path-3)">
        <path id="Union_29-3" data-name="Union 29" d="M20.183,20.441a.259.259,0,1,1,.259.258A.259.259,0,0,1,20.183,20.441Zm-1.682,0a.259.259,0,1,1,.259.258A.259.259,0,0,1,18.5,20.441Zm-1.681,0a.259.259,0,1,1,.259.258A.259.259,0,0,1,16.82,20.441Zm-1.682,0a.259.259,0,1,1,.259.258A.259.259,0,0,1,15.138,20.441Zm-1.682,0a.259.259,0,1,1,.259.258A.259.259,0,0,1,13.456,20.441Zm-1.682,0a.259.259,0,1,1,.259.258A.259.259,0,0,1,11.774,20.441Zm-1.682,0a.259.259,0,1,1,.259.258A.259.259,0,0,1,10.092,20.441Zm-1.682,0a.259.259,0,1,1,.259.258A.259.259,0,0,1,8.41,20.441Zm-1.682,0a.259.259,0,1,1,.259.258A.259.259,0,0,1,6.728,20.441Zm-1.682,0A.259.259,0,1,1,5.3,20.7.259.259,0,0,1,5.046,20.441Zm-1.681,0a.259.259,0,1,1,.259.258A.259.259,0,0,1,3.364,20.441Zm-1.682,0a.259.259,0,1,1,.259.258A.259.259,0,0,1,1.682,20.441ZM0,20.441a.259.259,0,1,1,.259.258A.259.259,0,0,1,0,20.441Zm20.183-1.682a.259.259,0,1,1,.259.258A.259.259,0,0,1,20.183,18.759Zm-1.682,0a.259.259,0,1,1,.259.258A.259.259,0,0,1,18.5,18.759Zm-1.681,0a.259.259,0,1,1,.259.258A.259.259,0,0,1,16.82,18.759Zm-1.682,0a.259.259,0,1,1,.259.258A.259.259,0,0,1,15.138,18.759Zm-1.682,0a.259.259,0,1,1,.259.258A.259.259,0,0,1,13.456,18.759Zm-1.682,0a.259.259,0,1,1,.259.258A.259.259,0,0,1,11.774,18.759Zm-1.682,0a.259.259,0,1,1,.259.258A.259.259,0,0,1,10.092,18.759Zm-1.682,0a.259.259,0,1,1,.259.258A.259.259,0,0,1,8.41,18.759Zm-1.682,0a.259.259,0,1,1,.259.258A.259.259,0,0,1,6.728,18.759Zm-1.682,0a.259.259,0,1,1,.259.258A.259.259,0,0,1,5.046,18.759Zm-1.681,0a.259.259,0,1,1,.259.258A.259.259,0,0,1,3.364,18.759Zm-1.682,0a.259.259,0,1,1,.259.258A.258.258,0,0,1,1.682,18.759ZM0,18.759a.259.259,0,1,1,.259.258A.259.259,0,0,1,0,18.759Zm20.183-1.681a.259.259,0,1,1,.259.258A.259.259,0,0,1,20.183,17.078Zm-1.682,0a.259.259,0,1,1,.259.258A.259.259,0,0,1,18.5,17.078Zm-1.681,0a.259.259,0,1,1,.259.258A.259.259,0,0,1,16.82,17.078Zm-1.682,0a.259.259,0,1,1,.259.258A.259.259,0,0,1,15.138,17.078Zm-1.682,0a.259.259,0,1,1,.259.258A.259.259,0,0,1,13.456,17.078Zm-1.682,0a.259.259,0,1,1,.259.258A.259.259,0,0,1,11.774,17.078Zm-1.682,0a.259.259,0,1,1,.259.258A.259.259,0,0,1,10.092,17.078Zm-1.682,0a.259.259,0,1,1,.259.258A.259.259,0,0,1,8.41,17.078Zm-1.682,0a.259.259,0,1,1,.259.258A.259.259,0,0,1,6.728,17.078Zm-1.682,0a.259.259,0,1,1,.259.258A.259.259,0,0,1,5.046,17.078Zm-1.681,0a.259.259,0,1,1,.259.258A.259.259,0,0,1,3.364,17.078Zm-1.682,0a.259.259,0,1,1,.259.258A.259.259,0,0,1,1.682,17.078ZM0,17.078a.259.259,0,1,1,.259.258A.259.259,0,0,1,0,17.078ZM20.183,15.4a.259.259,0,1,1,.259.259A.259.259,0,0,1,20.183,15.4Zm-1.682,0a.259.259,0,1,1,.259.259A.259.259,0,0,1,18.5,15.4Zm-1.681,0a.259.259,0,1,1,.259.259A.259.259,0,0,1,16.82,15.4Zm-1.682,0a.259.259,0,1,1,.259.259A.259.259,0,0,1,15.138,15.4Zm-1.682,0a.259.259,0,1,1,.259.259A.259.259,0,0,1,13.456,15.4Zm-1.682,0a.259.259,0,1,1,.259.259A.259.259,0,0,1,11.774,15.4Zm-1.682,0a.259.259,0,1,1,.259.259A.259.259,0,0,1,10.092,15.4Zm-1.682,0a.259.259,0,1,1,.259.259A.259.259,0,0,1,8.41,15.4Zm-1.682,0a.259.259,0,1,1,.259.259A.259.259,0,0,1,6.728,15.4Zm-1.682,0a.259.259,0,1,1,.259.259A.259.259,0,0,1,5.046,15.4Zm-1.681,0a.259.259,0,1,1,.259.259A.259.259,0,0,1,3.364,15.4Zm-1.682,0a.259.259,0,1,1,.259.259A.259.259,0,0,1,1.682,15.4ZM0,15.4a.259.259,0,1,1,.259.259A.259.259,0,0,1,0,15.4Zm20.183-1.682a.259.259,0,1,1,.259.259A.259.259,0,0,1,20.183,13.713Zm-1.682,0a.259.259,0,1,1,.259.259A.259.259,0,0,1,18.5,13.713Zm-1.681,0a.259.259,0,1,1,.259.259A.259.259,0,0,1,16.82,13.713Zm-1.682,0a.259.259,0,1,1,.259.259A.259.259,0,0,1,15.138,13.713Zm-1.682,0a.259.259,0,1,1,.259.259A.259.259,0,0,1,13.456,13.713Zm-1.682,0a.259.259,0,1,1,.259.259A.259.259,0,0,1,11.774,13.713Zm-1.682,0a.259.259,0,1,1,.259.259A.259.259,0,0,1,10.092,13.713Zm-1.682,0a.259.259,0,1,1,.259.259A.259.259,0,0,1,8.41,13.713Zm-1.682,0a.259.259,0,1,1,.259.259A.259.259,0,0,1,6.728,13.713Zm-1.682,0a.259.259,0,1,1,.259.259A.259.259,0,0,1,5.046,13.713Zm-1.681,0a.259.259,0,1,1,.259.259A.259.259,0,0,1,3.364,13.713Zm-1.682,0a.259.259,0,1,1,.259.259A.259.259,0,0,1,1.682,13.713ZM0,13.713a.259.259,0,1,1,.259.259A.259.259,0,0,1,0,13.713Zm20.183-1.682a.259.259,0,1,1,.259.259A.259.259,0,0,1,20.183,12.032Zm-1.682,0a.259.259,0,1,1,.259.259A.259.259,0,0,1,18.5,12.032Zm-1.681,0a.259.259,0,1,1,.259.259A.259.259,0,0,1,16.82,12.032Zm-1.682,0a.259.259,0,1,1,.259.259A.259.259,0,0,1,15.138,12.032Zm-1.682,0a.259.259,0,1,1,.259.259A.259.259,0,0,1,13.456,12.032Zm-1.682,0a.259.259,0,1,1,.259.259A.259.259,0,0,1,11.774,12.032Zm-1.682,0a.259.259,0,1,1,.259.259A.259.259,0,0,1,10.092,12.032Zm-1.682,0a.259.259,0,1,1,.259.259A.259.259,0,0,1,8.41,12.032Zm-1.682,0a.259.259,0,1,1,.259.259A.259.259,0,0,1,6.728,12.032Zm-1.682,0a.259.259,0,1,1,.259.259A.259.259,0,0,1,5.046,12.032Zm-1.681,0a.259.259,0,1,1,.259.259A.259.259,0,0,1,3.364,12.032Zm-1.682,0a.259.259,0,1,1,.259.259A.258.258,0,0,1,1.682,12.032ZM0,12.032a.259.259,0,1,1,.259.259A.259.259,0,0,1,0,12.032ZM20.183,10.35a.259.259,0,1,1,.259.259A.259.259,0,0,1,20.183,10.35Zm-1.682,0a.259.259,0,1,1,.259.259A.259.259,0,0,1,18.5,10.35Zm-1.681,0a.259.259,0,1,1,.259.259A.259.259,0,0,1,16.82,10.35Zm-1.682,0a.259.259,0,1,1,.259.259A.259.259,0,0,1,15.138,10.35Zm-1.682,0a.259.259,0,1,1,.259.259A.259.259,0,0,1,13.456,10.35Zm-1.682,0a.259.259,0,1,1,.259.259A.259.259,0,0,1,11.774,10.35Zm-1.682,0a.259.259,0,1,1,.259.259A.259.259,0,0,1,10.092,10.35Zm-1.682,0a.259.259,0,1,1,.259.259A.259.259,0,0,1,8.41,10.35Zm-1.682,0a.259.259,0,1,1,.259.259A.259.259,0,0,1,6.728,10.35Zm-1.682,0a.259.259,0,1,1,.259.259A.259.259,0,0,1,5.046,10.35Zm-1.681,0a.259.259,0,1,1,.259.259A.259.259,0,0,1,3.364,10.35Zm-1.682,0a.259.259,0,1,1,.259.259A.258.258,0,0,1,1.682,10.35ZM0,10.35a.259.259,0,1,1,.259.259A.259.259,0,0,1,0,10.35ZM20.183,8.668a.259.259,0,1,1,.259.259A.259.259,0,0,1,20.183,8.668Zm-1.682,0a.259.259,0,1,1,.259.259A.259.259,0,0,1,18.5,8.668Zm-1.681,0a.259.259,0,1,1,.259.259A.259.259,0,0,1,16.82,8.668Zm-1.682,0a.259.259,0,1,1,.259.259A.259.259,0,0,1,15.138,8.668Zm-1.682,0a.259.259,0,1,1,.259.259A.259.259,0,0,1,13.456,8.668Zm-1.682,0a.259.259,0,1,1,.259.259A.259.259,0,0,1,11.774,8.668Zm-1.682,0a.259.259,0,1,1,.259.259A.259.259,0,0,1,10.092,8.668Zm-1.682,0a.259.259,0,1,1,.259.259A.259.259,0,0,1,8.41,8.668Zm-1.682,0a.259.259,0,1,1,.259.259A.259.259,0,0,1,6.728,8.668Zm-1.682,0a.259.259,0,1,1,.259.259A.259.259,0,0,1,5.046,8.668Zm-1.681,0a.259.259,0,1,1,.259.259A.259.259,0,0,1,3.364,8.668Zm-1.682,0a.259.259,0,1,1,.259.259A.259.259,0,0,1,1.682,8.668ZM0,8.668a.259.259,0,1,1,.259.259A.259.259,0,0,1,0,8.668ZM20.183,6.987a.259.259,0,1,1,.259.258A.258.258,0,0,1,20.183,6.987Zm-1.682,0a.259.259,0,1,1,.259.258A.258.258,0,0,1,18.5,6.987Zm-1.681,0a.259.259,0,1,1,.259.258A.258.258,0,0,1,16.82,6.987Zm-1.682,0a.259.259,0,1,1,.259.258A.258.258,0,0,1,15.138,6.987Zm-1.682,0a.259.259,0,1,1,.259.258A.258.258,0,0,1,13.456,6.987Zm-1.682,0a.259.259,0,1,1,.259.258A.258.258,0,0,1,11.774,6.987Zm-1.682,0a.259.259,0,1,1,.259.258A.258.258,0,0,1,10.092,6.987Zm-1.682,0a.259.259,0,1,1,.259.258A.258.258,0,0,1,8.41,6.987Zm-1.682,0a.259.259,0,1,1,.259.258A.258.258,0,0,1,6.728,6.987Zm-1.682,0a.259.259,0,1,1,.259.258A.258.258,0,0,1,5.046,6.987Zm-1.681,0a.259.259,0,1,1,.259.258A.258.258,0,0,1,3.364,6.987Zm-1.682,0a.259.259,0,1,1,.259.258A.258.258,0,0,1,1.682,6.987ZM0,6.987a.259.259,0,1,1,.259.258A.258.258,0,0,1,0,6.987ZM20.183,5.3a.259.259,0,1,1,.259.259A.259.259,0,0,1,20.183,5.3ZM18.5,5.3a.259.259,0,1,1,.259.259A.259.259,0,0,1,18.5,5.3Zm-1.681,0a.259.259,0,1,1,.259.259A.259.259,0,0,1,16.82,5.3Zm-1.682,0a.259.259,0,1,1,.259.259A.259.259,0,0,1,15.138,5.3Zm-1.682,0a.259.259,0,1,1,.259.259A.259.259,0,0,1,13.456,5.3Zm-1.682,0a.259.259,0,1,1,.259.259A.259.259,0,0,1,11.774,5.3Zm-1.682,0a.259.259,0,1,1,.259.259A.259.259,0,0,1,10.092,5.3ZM8.41,5.3a.259.259,0,1,1,.259.259A.259.259,0,0,1,8.41,5.3Zm-1.682,0a.259.259,0,1,1,.259.259A.259.259,0,0,1,6.728,5.3Zm-1.682,0a.259.259,0,1,1,.259.259A.259.259,0,0,1,5.046,5.3Zm-1.681,0a.259.259,0,1,1,.259.259A.259.259,0,0,1,3.364,5.3Zm-1.682,0a.259.259,0,1,1,.259.259A.259.259,0,0,1,1.682,5.3ZM0,5.3a.259.259,0,1,1,.259.259A.259.259,0,0,1,0,5.3ZM20.183,3.622a.259.259,0,1,1,.259.259A.26.26,0,0,1,20.183,3.622Zm-1.682,0a.259.259,0,1,1,.259.259A.26.26,0,0,1,18.5,3.622Zm-1.681,0a.259.259,0,1,1,.259.259A.26.26,0,0,1,16.82,3.622Zm-1.682,0a.259.259,0,1,1,.259.259A.26.26,0,0,1,15.138,3.622Zm-1.682,0a.259.259,0,1,1,.259.259A.26.26,0,0,1,13.456,3.622Zm-1.682,0a.259.259,0,1,1,.259.259A.259.259,0,0,1,11.774,3.622Zm-1.682,0a.259.259,0,1,1,.259.259A.26.26,0,0,1,10.092,3.622Zm-1.682,0a.259.259,0,1,1,.259.259A.259.259,0,0,1,8.41,3.622Zm-1.682,0a.259.259,0,1,1,.259.259A.26.26,0,0,1,6.728,3.622Zm-1.682,0a.259.259,0,1,1,.259.259A.26.26,0,0,1,5.046,3.622Zm-1.681,0a.259.259,0,1,1,.259.259A.259.259,0,0,1,3.364,3.622Zm-1.682,0a.259.259,0,1,1,.259.259A.259.259,0,0,1,1.682,3.622ZM0,3.622a.259.259,0,1,1,.259.259A.26.26,0,0,1,0,3.622ZM20.183,1.941a.259.259,0,1,1,.259.259A.259.259,0,0,1,20.183,1.941Zm-1.682,0a.259.259,0,1,1,.259.259A.259.259,0,0,1,18.5,1.941Zm-1.681,0a.259.259,0,1,1,.259.259A.259.259,0,0,1,16.82,1.941Zm-1.682,0A.259.259,0,1,1,15.4,2.2.259.259,0,0,1,15.138,1.941Zm-1.682,0a.259.259,0,1,1,.259.259A.259.259,0,0,1,13.456,1.941Zm-1.682,0a.259.259,0,1,1,.259.259A.259.259,0,0,1,11.774,1.941Zm-1.682,0a.259.259,0,1,1,.259.259A.259.259,0,0,1,10.092,1.941Zm-1.682,0a.259.259,0,1,1,.259.259A.259.259,0,0,1,8.41,1.941Zm-1.682,0a.259.259,0,1,1,.259.259A.259.259,0,0,1,6.728,1.941Zm-1.682,0A.259.259,0,1,1,5.3,2.2.259.259,0,0,1,5.046,1.941Zm-1.681,0a.259.259,0,1,1,.259.259A.259.259,0,0,1,3.364,1.941Zm-1.682,0a.259.259,0,1,1,.259.259A.259.259,0,0,1,1.682,1.941ZM0,1.941A.259.259,0,1,1,.259,2.2.259.259,0,0,1,0,1.941ZM20.183.259a.259.259,0,1,1,.259.259A.259.259,0,0,1,20.183.259ZM18.5.259a.259.259,0,1,1,.259.259A.259.259,0,0,1,18.5.259Zm-1.681,0a.259.259,0,1,1,.259.259A.259.259,0,0,1,16.82.259Zm-1.682,0A.259.259,0,1,1,15.4.518.259.259,0,0,1,15.138.259Zm-1.682,0a.259.259,0,1,1,.259.259A.259.259,0,0,1,13.456.259Zm-1.682,0a.259.259,0,1,1,.259.259A.259.259,0,0,1,11.774.259Zm-1.682,0a.259.259,0,1,1,.259.259A.259.259,0,0,1,10.092.259ZM8.41.259a.259.259,0,1,1,.259.259A.259.259,0,0,1,8.41.259Zm-1.682,0a.259.259,0,1,1,.259.259A.259.259,0,0,1,6.728.259Zm-1.682,0A.259.259,0,1,1,5.3.518.259.259,0,0,1,5.046.259Zm-1.681,0a.259.259,0,1,1,.259.259A.259.259,0,0,1,3.364.259Zm-1.682,0a.259.259,0,1,1,.259.259A.259.259,0,0,1,1.682.259ZM0,.259A.259.259,0,1,1,.259.518.259.259,0,0,1,0,.259Z" transform="translate(-0.343 -1.677)" fill="#9c2555"/>
      </g>
    </g>
  </g>
</svg>
