<svg xmlns="http://www.w3.org/2000/svg" width="90.766" height="72.882" viewBox="0 0 90.766 72.882">
  <g id="Group_6995" data-name="Group 6995" transform="translate(-642.581 -601.888)">
    <path id="Path_24747" data-name="Path 24747" d="M-11745.246,21744.883a4.9,4.9,0,0,1-4.729-3.627l-.514-1.918,2.232-.639.524,1.957a2.57,2.57,0,0,0,2.479,1.9,2.551,2.551,0,0,0,.669-.088l57.783-15.482a2.558,2.558,0,0,0,1.563-1.2,2.555,2.555,0,0,0,.26-1.951l-10.68-39.855a2.572,2.572,0,0,0-2.485-1.9,2.63,2.63,0,0,0-.664.086l-1.769.475-.579-2.248,1.748-.469a4.888,4.888,0,0,1,1.263-.168,4.905,4.905,0,0,1,4.729,3.627l10.675,39.855a4.857,4.857,0,0,1-.49,3.711,4.85,4.85,0,0,1-2.97,2.281l-57.783,15.482A4.821,4.821,0,0,1-11745.246,21744.883Z" transform="translate(12415.918 -21070.113)" fill="#e3e3e3"/>
    <g id="Group_6994" data-name="Group 6994" transform="matrix(0.966, -0.259, 0.259, 0.966, -141.226, 198.379)">
      <path id="Path_24745" data-name="Path 24745" d="M74.9,74.668a4.9,4.9,0,0,0-4.892,4.892v41.261a4.9,4.9,0,0,0,4.892,4.892H134.72a4.9,4.9,0,0,0,4.892-4.892V79.56a4.9,4.9,0,0,0-4.892-4.892Zm0,2.32H134.72a2.574,2.574,0,0,1,2.572,2.572v41.261a2.574,2.574,0,0,1-2.572,2.572H74.9a2.574,2.574,0,0,1-2.572-2.572V79.56A2.574,2.574,0,0,1,74.9,76.988Zm29.912,12.761a1.16,1.16,0,1,0,0,2.32h11.6a1.16,1.16,0,1,0,0-2.32Zm16.242,0a1.16,1.16,0,0,0,0,2.32h1.16a1.16,1.16,0,1,0,0-2.32ZM104.808,96.71a1.16,1.16,0,1,0,0,2.32h25.522a1.16,1.16,0,0,0,0-2.32Zm0,6.961a1.16,1.16,0,1,0,0,2.32h25.522a1.16,1.16,0,0,0,0-2.32Z" transform="translate(577.995 535.357)" fill="#e3e3e3"/>
      <path id="Path_24746" data-name="Path 24746" d="M5.16-14.8a4.6,4.6,0,0,1,3.2,1.08,3.83,3.83,0,0,1,1.2,3A3.8,3.8,0,0,1,8.27-7.59,5.567,5.567,0,0,1,4.76-6.5v2.2H2.6V-8.02h.96A5.551,5.551,0,0,0,6.3-8.59a2.215,2.215,0,0,0,1-2.11,2.182,2.182,0,0,0-.6-1.63,2.21,2.21,0,0,0-1.62-.59,2.438,2.438,0,0,0-1.74.62,2.12,2.12,0,0,0-.66,1.62H.5a3.917,3.917,0,0,1,.54-2.13,3.84,3.84,0,0,1,1.62-1.46A5.528,5.528,0,0,1,5.16-14.8ZM5-2.52V0H2.4V-2.52Z" transform="translate(662 643)" fill="#881543"/>
    </g>
  </g>
</svg>
