<svg xmlns="http://www.w3.org/2000/svg" width="116.678" height="44" viewBox="0 0 116.678 44">
    <defs>
        <linearGradient id="a" y1=".5" x2="1" y2=".5" gradientUnits="objectBoundingBox">
            <stop offset="0" stop-color="#003784"/>
            <stop offset=".305" stop-color="#023683"/>
            <stop offset=".446" stop-color="#09347f"/>
            <stop offset=".553" stop-color="#163179"/>
            <stop offset=".644" stop-color="#282d71"/>
            <stop offset=".724" stop-color="#402766"/>
            <stop offset=".796" stop-color="#5d2058"/>
            <stop offset=".863" stop-color="#801848"/>
            <stop offset=".925" stop-color="#a80e35"/>
            <stop offset=".981" stop-color="#d50320"/>
            <stop offset="1" stop-color="#e60019"/>
        </linearGradient>
    </defs>
    <g data-name="Group 4921">
        <path data-name="Path 2856" d="m499.938 291.9-.363.227-.216-.369a2.064 2.064 0 0 0-2.687-.873 2.169 2.169 0 0 0-.9 3.012l2.116 3.629a.474.474 0 0 0 .665.163l3.559-2.231a2.167 2.167 0 0 0 .607-3.084 2.065 2.065 0 0 0-2.781-.474z" transform="translate(-417.559 -287.567)" style="fill:#003884"/>
        <path data-name="Union 1" d="m56.831 30.387 4.5-2.155a4.824 4.824 0 0 0 4.312 2 3.636 3.636 0 0 0 3.878-3.643v-1.15c-1.179 1.275-3.04 1.578-5.212 1.578a7.889 7.889 0 0 1-7.91-8.226c0-4.554 3.257-8.257 7.91-8.257a7.36 7.36 0 0 1 5.119 1.852h.093v-1.4h5.489v16c0 5.222-3.94 7.924-9.369 7.924-3.319 0-7.134-.729-8.81-4.523zm5.9-14.793a2.31 2.31 0 0 0-.985 3.242l2.327 3.9a.527.527 0 0 0 .73.176l3.914-2.4a2.26 2.26 0 1 0-2.4-3.829l-.4.244-.237-.4a2.358 2.358 0 0 0-2.005-1.16 2.148 2.148 0 0 0-.945.226zm35.117 18.86 5.491-10.321-5.188-9.046h-3.628v11.474h-5.491V15.087h-2.3v-4.1h2.3V7.68C89.062 3.127 91.3 0 95.267 0A7.7 7.7 0 0 1 99.8 1.4l-1.927 3.791a3.7 3.7 0 0 0-1.644-.425c-1.4 0-1.706.911-1.706 3.066v3.157h7.606l4.436 7.984 3.785-7.984h6.328l-12.5 23.465zM21.684 19.7v-8.711h5.491V18.4c0 3.065.838 4.25 3.134 4.25s3.133-1.184 3.133-4.25v-7.411h5.491V19.7c0 5.221-2.668 7.316-8.624 7.316s-8.625-2.094-8.625-7.316zM0 23.708l2.916-4.8s3.412 2.823 6.266 2.823c1.272 0 3.692-.121 3.692-2.458 0-1.822-2.731-2.641-5.77-4.129-3.071-1.487-4.87-3.825-4.87-6.436 0-4.675 4.219-7.65 8.345-7.65a14.754 14.754 0 0 1 7.94 2.372l-2.357 4.553a10.7 10.7 0 0 0-5.181-1.731c-1.985 0-3.04.881-3.04 2.247 0 1.4 2.42 2.4 5.336 3.612 2.853 1.184 5.987 3.552 5.987 6.83 0 5.98-4.654 8.075-9.648 8.075A15.128 15.128 0 0 1 0 23.708zm78.732 2.853V10.989h5.491v15.572zm-36.388 0V10.989h5.491v2.246h.065a6.247 6.247 0 0 1 4.87-2.7 6.691 6.691 0 0 1 3.474.971l-2.3 4.553a4.7 4.7 0 0 0-2.853-.85 3.256 3.256 0 0 0-3.257 3.157v8.2z" style="fill:url(#a)"/>
        <path data-name="Union 2" d="M26.659 6.316a2.167 2.167 0 0 1-.843-.687V4.512h.378l.066.932a1.621 1.621 0 0 0 .652.5 2.169 2.169 0 0 0 .864.171 1.654 1.654 0 0 0 1.075-.332 1.076 1.076 0 0 0 .411-.88 1.128 1.128 0 0 0-.344-.852 2.991 2.991 0 0 0-1.2-.584 3.572 3.572 0 0 1-1.4-.683 1.438 1.438 0 0 1-.475-1.134 1.491 1.491 0 0 1 .54-1.19A2.076 2.076 0 0 1 27.784 0a2.41 2.41 0 0 1 1.093.241 1.941 1.941 0 0 1 .758.653v1.09h-.378l-.065-.9a1.4 1.4 0 0 0-.567-.466 1.965 1.965 0 0 0-.841-.168A1.583 1.583 0 0 0 26.7.788a1.084 1.084 0 0 0-.388.849 1.047 1.047 0 0 0 .349.8 3.078 3.078 0 0 0 1.21.567 3.339 3.339 0 0 1 1.379.709 1.544 1.544 0 0 1 .472 1.177 1.489 1.489 0 0 1-.548 1.213 2.13 2.13 0 0 1-1.4.451 2.6 2.6 0 0 1-1.115-.238zm-7.806 0a2.17 2.17 0 0 1-.843-.687V4.512h.378l.066.932a1.618 1.618 0 0 0 .652.5 2.166 2.166 0 0 0 .864.171 1.655 1.655 0 0 0 1.075-.332 1.076 1.076 0 0 0 .411-.88 1.128 1.128 0 0 0-.344-.852 2.99 2.99 0 0 0-1.2-.584 3.583 3.583 0 0 1-1.4-.683 1.438 1.438 0 0 1-.474-1.134 1.491 1.491 0 0 1 .54-1.19 2.076 2.076 0 0 1 1.4-.46 2.409 2.409 0 0 1 1.093.241 1.942 1.942 0 0 1 .758.653v1.09h-.378l-.066-.9a1.406 1.406 0 0 0-.567-.466 1.966 1.966 0 0 0-.841-.168A1.583 1.583 0 0 0 18.9.788a1.086 1.086 0 0 0-.388.849 1.047 1.047 0 0 0 .349.8 3.078 3.078 0 0 0 1.209.567 3.332 3.332 0 0 1 1.379.709 1.542 1.542 0 0 1 .473 1.177 1.489 1.489 0 0 1-.548 1.213 2.129 2.129 0 0 1-1.4.451 2.606 2.606 0 0 1-1.121-.238zm56.671.149v-.386l.629-.056V.538l-.629-.057V.092h4.166v1.4h-.409l-.034-.954h-2.635v2.394h2.3v.447h-2.3v2.643h2.654l.035-.954h.409v1.4zm-8.059 0v-.386l.629-.056V.538l-.629-.057V.092h4.166v1.4h-.409l-.034-.954h-2.635v2.394h2.3v.447h-2.3v2.643h2.654l.035-.954h.409v1.4zm-3.931 0a.587.587 0 0 1-.571-.316 1.665 1.665 0 0 1-.162-.77v-.565a1.269 1.269 0 0 0-.325-.917 1.242 1.242 0 0 0-.909-.352h-1.412v2.477l.629.061v.381h-1.718v-.381l.629-.061V.542l-.629-.061V.1H61.4a1.976 1.976 0 0 1 1.387.446 1.672 1.672 0 0 1 .484 1.292 1.616 1.616 0 0 1-.259.9 1.465 1.465 0 0 1-.729.577 1.221 1.221 0 0 1 .751.532 1.852 1.852 0 0 1 .229.965v.583a1.046 1.046 0 0 0 .092.5.333.333 0 0 0 .282.175l.189.013v.39zM60.155 3.1h1.192a1.537 1.537 0 0 0 1.111-.346 1.238 1.238 0 0 0 .351-.923 1.256 1.256 0 0 0-.351-.95A1.476 1.476 0 0 0 61.4.542h-1.245zM51.11 6.464v-.385l.629-.056V.538L51.11.481V.092h4.213v1.4h-.409l-.035-.954H52.2v2.49h2.346v.451H52.2v2.543l.629.056v.386zm-9.987 0v-.385l.629-.056V.538l-.629-.057V.092h4.167v1.4h-.409l-.035-.954h-2.634v2.394h2.3v.447h-2.3v2.643h2.654l.035-.954h.409v1.4zm-7.648 0v-.385l.629-.056V.538l-.629-.057V.092H35.2v.389l-.629.057v5.484H36.9l.035-.9h.409v1.342zm-20.653 0v-.385l.49-.043-.462-1.428h-2.524L9.86 6.036l.49.043v.386H8.969v-.386l.413-.035L11.376.092h.436l1.975 5.952.421.035v.386zM10.481 4.14H12.7L11.607.77h-.023zM3.653 6.464v-.385l.629-.056V3.532H1.088v2.49l.629.056v.386H0v-.385l.629-.056V.538L0 .481V.092h1.716v.389l-.628.057v2.548h3.194V.538L3.653.481V.092H5.37v.389l-.629.057v5.484l.629.056v.386z" transform="translate(18.484 37.444)" style="fill:#141412"/>
    </g>
</svg>
