<svg xmlns="http://www.w3.org/2000/svg" xmlns:xlink="http://www.w3.org/1999/xlink" width="104.658" height="43.986" viewBox="0 0 104.658 43.986">
  <defs>
    <style>
      .cls-1, .cls-4, .cls-5 {
        fill: none;
      }

      .cls-2 {
        clip-path: url(#clip-path);
      }

      .cls-3 {
        fill: #d6f0fc;
      }

      .cls-4 {
        stroke: #003884;
        stroke-width: 1.3px;
      }

      .cls-4, .cls-5 {
        stroke-miterlimit: 10;
      }

      .cls-5 {
        stroke: #902946;
        stroke-width: 2px;
      }
    </style>
    <clipPath id="clip-path">
      <rect id="Rectangle_1427" data-name="Rectangle 1427" class="cls-1" width="104.658" height="43.986" transform="translate(0 0)"/>
    </clipPath>
  </defs>
  <g id="Group_4972" data-name="Group 4972" transform="translate(0 0)">
    <g id="Group_4972-2" data-name="Group 4972" class="cls-2">
      <path id="Path_3058" data-name="Path 3058" class="cls-3" d="M1,19.552l21.112.325c.361.006,6.754-.575,7.109-.64,1.594-.29,4.115-.713,8.64-3.549,7.506-4.7,9.84-7.59,12.837-7.341V15.87S38.045,20.143,38.288,30.89c.3,13.318,14.036,13.1,14.036,13.1s16.324.223,15.433-15.093c-.545-9.354-11.81-13.209-11.81-13.209V8.437s4.292.764,9.818,5.468c5.109,4.35,11.029,6.052,18.9,6.052,8.82,0,19.98-.5,19.98-.5V15.914s-21.827,1.552-27.96-.79A41.8,41.8,0,0,1,64.219,7.112S59.756,3.929,55.51,3.928a34.379,34.379,0,0,0-5.681.188c-3.684.271-13.584,8.011-18.8,10.249C24.937,16.975,1,15.551,1,15.551Z"/>
      <path id="Path_3059" data-name="Path 3059" class="cls-4" d="M0,13.389l21.6-.125s8.116.125,14.36-4.495C43.088,3.5,47.705.528,50.7.777V12.7s-12.48,4.05-12.237,14.8c.3,13.318,13.859,13.318,13.859,13.318s16.5,0,15.61-15.316c-.545-9.354-12.987-12.986-12.987-12.986V.76s8.019,1.266,13,5.761,10.725,5.994,17.468,6.244,19.23,0,19.23,0"/>
      <path id="Path_3060" data-name="Path 3060" class="cls-5" d="M49.739,18.384s-5.8,3.347-4.771,9.951c1.022,6.542,7.361,6.542,7.361,6.542"/>
      <path id="Path_3061" data-name="Path 3061" class="cls-5" d="M48.421,22.493a9.456,9.456,0,0,1,11.225,3.545"/>
      <path id="Path_3062" data-name="Path 3062" class="cls-5" d="M42.365,29.844a8.865,8.865,0,0,0,10.657-1.182"/>
      <path id="Path_3063" data-name="Path 3063" class="cls-5" d="M55.51,35.6s5.76.041,7.385-4.484a8.309,8.309,0,0,0-1.034-7.775"/>
      <path id="Path_3064" data-name="Path 3064" class="cls-5" d="M59.466,18.619s-6.91,3.4-3.955,11.964"/>
    </g>
  </g>
</svg>
