<svg xmlns="http://www.w3.org/2000/svg" xmlns:xlink="http://www.w3.org/1999/xlink" width="46.247" height="62.398" viewBox="0 0 46.247 62.398">
  <defs>
    <style>
      .cls-1, .cls-4 {
        fill: none;
      }

      .cls-2 {
        clip-path: url(#clip-path);
      }

      .cls-3 {
        fill: #d6f0fc;
      }

      .cls-4 {
        stroke: #003884;
        stroke-miterlimit: 10;
        stroke-width: 1.3px;
      }

      .cls-5 {
        fill: #902946;
      }
    </style>
    <clipPath id="clip-path">
      <rect id="Rectangle_1426" data-name="Rectangle 1426" class="cls-1" width="46.247" height="62.398" transform="translate(0 0)"/>
    </clipPath>
  </defs>
  <g id="Group_4971" data-name="Group 4971" transform="translate(0 0)">
    <g id="Group_4971-2" data-name="Group 4971" class="cls-2">
      <path id="Path_3051" data-name="Path 3051" class="cls-3" d="M46.247,7.181A6.682,6.682,0,1,1,39.566.5a6.681,6.681,0,0,1,6.681,6.681"/>
      <path id="Path_3052" data-name="Path 3052" class="cls-3" d="M26.718,19.6l7.444,13.121,2.828-.034,4.447-21.566c-1.289-3.439-4.516-1.246-4.516-1.246L34.477,19.4,31.957,14a5.263,5.263,0,0,0-6.6-3.12c-14.826,4.38-13.2,20.018-13.2,20.018s.36,10.62,10.8,10.62h12.6l2.88,17.28s1.109,3.528,4.32,3.06c3.7-.54,3.06-4.86,3.06-4.86l-3.06-18.184s-.72-4.326-3.06-4.191-15.26,0-15.26,0Z"/>
      <path id="Path_3053" data-name="Path 3053" class="cls-3" d="M9.946,46.555H4.522s.269,6.12,5.669,6.84v6.641h14.22V53.455a8.434,8.434,0,0,0,5.48-6.9H23.626"/>
      <path id="Path_3054" data-name="Path 3054" class="cls-4" d="M42.247,7.181A6.682,6.682,0,1,1,35.566.5,6.681,6.681,0,0,1,42.247,7.181Z"/>
      <path id="Path_3055" data-name="Path 3055" class="cls-4" d="M22.718,19.6l7.444,13.121,2.828-.034,4.447-21.566c-1.289-3.439-4.516-1.246-4.516-1.246L30.477,19.4,27.957,14a5.263,5.263,0,0,0-6.6-3.12C6.531,15.257,8.157,30.9,8.157,30.9s.36,10.62,10.8,10.62h12.6l2.88,17.28s1.109,3.528,4.32,3.06c3.7-.54,3.06-4.86,3.06-4.86l-3.06-18.184s-.72-4.326-3.06-4.191-15.26,0-15.26,0"/>
      <path id="Path_3056" data-name="Path 3056" class="cls-4" d="M5.946,46.555H.522s.269,6.12,5.669,6.84v6.641h14.22V53.455a8.434,8.434,0,0,0,5.48-6.9H19.626"/>
      <path id="Path_3057" data-name="Path 3057" class="cls-5" d="M12.591,42.334,8.975,49.157h2.32v4.3l3.752-6.481H12.591Z"/>
    </g>
  </g>
</svg>
