<svg xmlns="http://www.w3.org/2000/svg" xmlns:xlink="http://www.w3.org/1999/xlink" width="118.587" height="110.399" viewBox="0 0 118.587 110.399">
  <defs>
    <clipPath id="clip-path">
      <path id="NoPath_-_Copy_10_" data-name="NoPath - Copy (10)" d="M564.6,309.7l-5.63,3.531-3.348-5.75c-8.518-14.684-26.632-21.2-41.726-13.606a33.865,33.865,0,0,0-13.927,46.953l32.866,56.557a7.353,7.353,0,0,0,10.322,2.546l55.268-34.774a33.842,33.842,0,0,0,9.427-48.067C597.99,303.337,578.966,300.675,564.6,309.7Z" transform="translate(732.219 470.619)" fill="#d6a7ba"/>
    </clipPath>
  </defs>
  <g id="Group_6955" data-name="Group 6955" transform="translate(-1227.707 -761.302)">
    <path id="NoPath_-_Copy_10_2" data-name="NoPath - Copy (10)" d="M564.6,309.7l-5.63,3.531-3.348-5.75c-8.518-14.684-26.632-21.2-41.726-13.606a33.865,33.865,0,0,0-13.927,46.953l32.866,56.557a7.353,7.353,0,0,0,10.322,2.546l55.268-34.774a33.842,33.842,0,0,0,9.427-48.067C597.99,303.337,578.966,300.675,564.6,309.7Z" transform="translate(732.219 470.619)" fill="#881543"/>
    <g id="Mask_Group_31" data-name="Mask Group 31" clip-path="url(#clip-path)">
      <path id="Union_29" data-name="Union 29" d="M7338.98,21791.488a1.515,1.515,0,1,1,1.513,1.512A1.512,1.512,0,0,1,7338.98,21791.488Zm-9.833,0a1.514,1.514,0,1,1,1.513,1.512A1.512,1.512,0,0,1,7329.147,21791.488Zm-9.829,0a1.514,1.514,0,1,1,1.512,1.512A1.511,1.511,0,0,1,7319.319,21791.488Zm-9.833,0A1.515,1.515,0,1,1,7311,21793,1.512,1.512,0,0,1,7309.486,21791.488Zm-9.833,0a1.515,1.515,0,1,1,1.513,1.512A1.512,1.512,0,0,1,7299.653,21791.488Zm-9.833,0a1.515,1.515,0,1,1,1.512,1.512A1.511,1.511,0,0,1,7289.82,21791.488Zm-9.829,0a1.514,1.514,0,1,1,1.513,1.512A1.512,1.512,0,0,1,7279.991,21791.488Zm-9.833,0a1.515,1.515,0,1,1,1.512,1.512A1.511,1.511,0,0,1,7270.158,21791.488Zm-9.833,0a1.515,1.515,0,1,1,1.513,1.512A1.512,1.512,0,0,1,7260.325,21791.488Zm-9.833,0A1.515,1.515,0,1,1,7252,21793,1.512,1.512,0,0,1,7250.492,21791.488Zm-9.828,0a1.514,1.514,0,1,1,1.512,1.512A1.511,1.511,0,0,1,7240.664,21791.488Zm-9.833,0a1.514,1.514,0,1,1,1.512,1.512A1.511,1.511,0,0,1,7230.831,21791.488Zm-9.833,0a1.514,1.514,0,1,1,1.512,1.512A1.512,1.512,0,0,1,7221,21791.488Zm117.982-9.832a1.515,1.515,0,1,1,1.513,1.512A1.512,1.512,0,0,1,7338.98,21781.656Zm-9.833,0a1.514,1.514,0,1,1,1.513,1.512A1.512,1.512,0,0,1,7329.147,21781.656Zm-9.829,0a1.514,1.514,0,1,1,1.512,1.512A1.511,1.511,0,0,1,7319.319,21781.656Zm-9.833,0a1.515,1.515,0,1,1,1.513,1.512A1.512,1.512,0,0,1,7309.486,21781.656Zm-9.833,0a1.515,1.515,0,1,1,1.513,1.512A1.512,1.512,0,0,1,7299.653,21781.656Zm-9.833,0a1.515,1.515,0,1,1,1.512,1.512A1.511,1.511,0,0,1,7289.82,21781.656Zm-9.829,0a1.514,1.514,0,1,1,1.513,1.512A1.512,1.512,0,0,1,7279.991,21781.656Zm-9.833,0a1.515,1.515,0,1,1,1.512,1.512A1.511,1.511,0,0,1,7270.158,21781.656Zm-9.833,0a1.515,1.515,0,1,1,1.513,1.512A1.512,1.512,0,0,1,7260.325,21781.656Zm-9.833,0a1.515,1.515,0,1,1,1.513,1.512A1.512,1.512,0,0,1,7250.492,21781.656Zm-9.828,0a1.514,1.514,0,1,1,1.512,1.512A1.511,1.511,0,0,1,7240.664,21781.656Zm-9.833,0a1.514,1.514,0,1,1,1.512,1.512A1.511,1.511,0,0,1,7230.831,21781.656Zm-9.833,0a1.514,1.514,0,1,1,1.512,1.512A1.512,1.512,0,0,1,7221,21781.656Zm117.982-9.828a1.515,1.515,0,1,1,1.513,1.512A1.512,1.512,0,0,1,7338.98,21771.828Zm-9.833,0a1.514,1.514,0,1,1,1.513,1.512A1.513,1.513,0,0,1,7329.147,21771.828Zm-9.829,0a1.514,1.514,0,1,1,1.512,1.512A1.512,1.512,0,0,1,7319.319,21771.828Zm-9.833,0a1.515,1.515,0,1,1,1.513,1.512A1.512,1.512,0,0,1,7309.486,21771.828Zm-9.833,0a1.515,1.515,0,1,1,1.513,1.512A1.512,1.512,0,0,1,7299.653,21771.828Zm-9.833,0a1.515,1.515,0,1,1,1.512,1.512A1.512,1.512,0,0,1,7289.82,21771.828Zm-9.829,0a1.514,1.514,0,1,1,1.513,1.512A1.512,1.512,0,0,1,7279.991,21771.828Zm-9.833,0a1.515,1.515,0,1,1,1.512,1.512A1.512,1.512,0,0,1,7270.158,21771.828Zm-9.833,0a1.515,1.515,0,1,1,1.513,1.512A1.512,1.512,0,0,1,7260.325,21771.828Zm-9.833,0a1.515,1.515,0,1,1,1.513,1.512A1.512,1.512,0,0,1,7250.492,21771.828Zm-9.828,0a1.514,1.514,0,1,1,1.512,1.512A1.512,1.512,0,0,1,7240.664,21771.828Zm-9.833,0a1.514,1.514,0,1,1,1.512,1.512A1.512,1.512,0,0,1,7230.831,21771.828Zm-9.833,0a1.514,1.514,0,1,1,1.512,1.512A1.512,1.512,0,0,1,7221,21771.828Zm117.982-9.834a1.515,1.515,0,1,1,1.513,1.514A1.514,1.514,0,0,1,7338.98,21761.994Zm-9.833,0a1.514,1.514,0,1,1,1.513,1.514A1.514,1.514,0,0,1,7329.147,21761.994Zm-9.829,0a1.514,1.514,0,1,1,1.512,1.514A1.513,1.513,0,0,1,7319.319,21761.994Zm-9.833,0a1.515,1.515,0,1,1,1.513,1.514A1.514,1.514,0,0,1,7309.486,21761.994Zm-9.833,0a1.515,1.515,0,1,1,1.513,1.514A1.514,1.514,0,0,1,7299.653,21761.994Zm-9.833,0a1.515,1.515,0,1,1,1.512,1.514A1.513,1.513,0,0,1,7289.82,21761.994Zm-9.829,0a1.514,1.514,0,1,1,1.513,1.514A1.514,1.514,0,0,1,7279.991,21761.994Zm-9.833,0a1.515,1.515,0,1,1,1.512,1.514A1.513,1.513,0,0,1,7270.158,21761.994Zm-9.833,0a1.515,1.515,0,1,1,1.513,1.514A1.514,1.514,0,0,1,7260.325,21761.994Zm-9.833,0a1.515,1.515,0,1,1,1.513,1.514A1.514,1.514,0,0,1,7250.492,21761.994Zm-9.828,0a1.514,1.514,0,1,1,1.512,1.514A1.513,1.513,0,0,1,7240.664,21761.994Zm-9.833,0a1.514,1.514,0,1,1,1.512,1.514A1.513,1.513,0,0,1,7230.831,21761.994Zm-9.833,0a1.514,1.514,0,1,1,1.512,1.514A1.513,1.513,0,0,1,7221,21761.994Zm117.982-9.834a1.515,1.515,0,1,1,1.513,1.514A1.513,1.513,0,0,1,7338.98,21752.16Zm-9.833,0a1.514,1.514,0,1,1,1.513,1.514A1.513,1.513,0,0,1,7329.147,21752.16Zm-9.829,0a1.514,1.514,0,1,1,1.512,1.514A1.513,1.513,0,0,1,7319.319,21752.16Zm-9.833,0a1.515,1.515,0,1,1,1.513,1.514A1.513,1.513,0,0,1,7309.486,21752.16Zm-9.833,0a1.515,1.515,0,1,1,1.513,1.514A1.513,1.513,0,0,1,7299.653,21752.16Zm-9.833,0a1.515,1.515,0,1,1,1.512,1.514A1.513,1.513,0,0,1,7289.82,21752.16Zm-9.829,0a1.514,1.514,0,1,1,1.513,1.514A1.513,1.513,0,0,1,7279.991,21752.16Zm-9.833,0a1.515,1.515,0,1,1,1.512,1.514A1.513,1.513,0,0,1,7270.158,21752.16Zm-9.833,0a1.515,1.515,0,1,1,1.513,1.514A1.513,1.513,0,0,1,7260.325,21752.16Zm-9.833,0a1.515,1.515,0,1,1,1.513,1.514A1.513,1.513,0,0,1,7250.492,21752.16Zm-9.828,0a1.514,1.514,0,1,1,1.512,1.514A1.513,1.513,0,0,1,7240.664,21752.16Zm-9.833,0a1.514,1.514,0,1,1,1.512,1.514A1.513,1.513,0,0,1,7230.831,21752.16Zm-9.833,0a1.514,1.514,0,1,1,1.512,1.514A1.513,1.513,0,0,1,7221,21752.16Zm117.982-9.828a1.515,1.515,0,1,1,1.513,1.514A1.512,1.512,0,0,1,7338.98,21742.332Zm-9.833,0a1.514,1.514,0,1,1,1.513,1.514A1.512,1.512,0,0,1,7329.147,21742.332Zm-9.829,0a1.514,1.514,0,1,1,1.512,1.514A1.511,1.511,0,0,1,7319.319,21742.332Zm-9.833,0a1.515,1.515,0,1,1,1.513,1.514A1.512,1.512,0,0,1,7309.486,21742.332Zm-9.833,0a1.515,1.515,0,1,1,1.513,1.514A1.512,1.512,0,0,1,7299.653,21742.332Zm-9.833,0a1.515,1.515,0,1,1,1.512,1.514A1.511,1.511,0,0,1,7289.82,21742.332Zm-9.829,0a1.514,1.514,0,1,1,1.513,1.514A1.512,1.512,0,0,1,7279.991,21742.332Zm-9.833,0a1.515,1.515,0,1,1,1.512,1.514A1.511,1.511,0,0,1,7270.158,21742.332Zm-9.833,0a1.515,1.515,0,1,1,1.513,1.514A1.512,1.512,0,0,1,7260.325,21742.332Zm-9.833,0a1.515,1.515,0,1,1,1.513,1.514A1.512,1.512,0,0,1,7250.492,21742.332Zm-9.828,0a1.514,1.514,0,1,1,1.512,1.514A1.511,1.511,0,0,1,7240.664,21742.332Zm-9.833,0a1.514,1.514,0,1,1,1.512,1.514A1.511,1.511,0,0,1,7230.831,21742.332Zm-9.833,0a1.514,1.514,0,1,1,1.512,1.514A1.512,1.512,0,0,1,7221,21742.332Zm117.982-9.832a1.515,1.515,0,1,1,1.513,1.512A1.512,1.512,0,0,1,7338.98,21732.5Zm-9.833,0a1.514,1.514,0,1,1,1.513,1.512A1.512,1.512,0,0,1,7329.147,21732.5Zm-9.829,0a1.514,1.514,0,1,1,1.512,1.512A1.511,1.511,0,0,1,7319.319,21732.5Zm-9.833,0a1.515,1.515,0,1,1,1.513,1.512A1.512,1.512,0,0,1,7309.486,21732.5Zm-9.833,0a1.515,1.515,0,1,1,1.513,1.512A1.512,1.512,0,0,1,7299.653,21732.5Zm-9.833,0a1.515,1.515,0,1,1,1.512,1.512A1.511,1.511,0,0,1,7289.82,21732.5Zm-9.829,0a1.514,1.514,0,1,1,1.513,1.512A1.512,1.512,0,0,1,7279.991,21732.5Zm-9.833,0a1.515,1.515,0,1,1,1.512,1.512A1.511,1.511,0,0,1,7270.158,21732.5Zm-9.833,0a1.515,1.515,0,1,1,1.513,1.512A1.512,1.512,0,0,1,7260.325,21732.5Zm-9.833,0a1.515,1.515,0,1,1,1.513,1.512A1.512,1.512,0,0,1,7250.492,21732.5Zm-9.828,0a1.514,1.514,0,1,1,1.512,1.512A1.511,1.511,0,0,1,7240.664,21732.5Zm-9.833,0a1.514,1.514,0,1,1,1.512,1.512A1.511,1.511,0,0,1,7230.831,21732.5Zm-9.833,0a1.514,1.514,0,1,1,1.512,1.512A1.512,1.512,0,0,1,7221,21732.5Zm117.982-9.832a1.515,1.515,0,1,1,1.513,1.512A1.513,1.513,0,0,1,7338.98,21722.668Zm-9.833,0a1.514,1.514,0,1,1,1.513,1.512A1.513,1.513,0,0,1,7329.147,21722.668Zm-9.829,0a1.514,1.514,0,1,1,1.512,1.512A1.513,1.513,0,0,1,7319.319,21722.668Zm-9.833,0a1.515,1.515,0,1,1,1.513,1.512A1.513,1.513,0,0,1,7309.486,21722.668Zm-9.833,0a1.515,1.515,0,1,1,1.513,1.512A1.513,1.513,0,0,1,7299.653,21722.668Zm-9.833,0a1.515,1.515,0,1,1,1.512,1.512A1.513,1.513,0,0,1,7289.82,21722.668Zm-9.829,0a1.514,1.514,0,1,1,1.513,1.512A1.513,1.513,0,0,1,7279.991,21722.668Zm-9.833,0a1.515,1.515,0,1,1,1.512,1.512A1.513,1.513,0,0,1,7270.158,21722.668Zm-9.833,0a1.515,1.515,0,1,1,1.513,1.512A1.513,1.513,0,0,1,7260.325,21722.668Zm-9.833,0a1.515,1.515,0,1,1,1.513,1.512A1.513,1.513,0,0,1,7250.492,21722.668Zm-9.828,0a1.514,1.514,0,1,1,1.512,1.512A1.513,1.513,0,0,1,7240.664,21722.668Zm-9.833,0a1.514,1.514,0,1,1,1.512,1.512A1.513,1.513,0,0,1,7230.831,21722.668Zm-9.833,0a1.514,1.514,0,1,1,1.512,1.512A1.513,1.513,0,0,1,7221,21722.668Zm117.982-9.828a1.515,1.515,0,1,1,1.513,1.512A1.511,1.511,0,0,1,7338.98,21712.84Zm-9.833,0a1.514,1.514,0,1,1,1.513,1.512A1.511,1.511,0,0,1,7329.147,21712.84Zm-9.829,0a1.514,1.514,0,1,1,1.512,1.512A1.51,1.51,0,0,1,7319.319,21712.84Zm-9.833,0a1.515,1.515,0,1,1,1.513,1.512A1.511,1.511,0,0,1,7309.486,21712.84Zm-9.833,0a1.515,1.515,0,1,1,1.513,1.512A1.511,1.511,0,0,1,7299.653,21712.84Zm-9.833,0a1.515,1.515,0,1,1,1.512,1.512A1.51,1.51,0,0,1,7289.82,21712.84Zm-9.829,0a1.514,1.514,0,1,1,1.513,1.512A1.511,1.511,0,0,1,7279.991,21712.84Zm-9.833,0a1.515,1.515,0,1,1,1.512,1.512A1.51,1.51,0,0,1,7270.158,21712.84Zm-9.833,0a1.515,1.515,0,1,1,1.513,1.512A1.511,1.511,0,0,1,7260.325,21712.84Zm-9.833,0a1.515,1.515,0,1,1,1.513,1.512A1.511,1.511,0,0,1,7250.492,21712.84Zm-9.828,0a1.514,1.514,0,1,1,1.512,1.512A1.51,1.51,0,0,1,7240.664,21712.84Zm-9.833,0a1.514,1.514,0,1,1,1.512,1.512A1.51,1.51,0,0,1,7230.831,21712.84Zm-9.833,0a1.514,1.514,0,1,1,1.512,1.512A1.51,1.51,0,0,1,7221,21712.84Zm117.982-9.832a1.515,1.515,0,1,1,1.513,1.512A1.512,1.512,0,0,1,7338.98,21703.008Zm-9.833,0a1.514,1.514,0,1,1,1.513,1.512A1.513,1.513,0,0,1,7329.147,21703.008Zm-9.829,0a1.514,1.514,0,1,1,1.512,1.512A1.512,1.512,0,0,1,7319.319,21703.008Zm-9.833,0a1.515,1.515,0,1,1,1.513,1.512A1.512,1.512,0,0,1,7309.486,21703.008Zm-9.833,0a1.515,1.515,0,1,1,1.513,1.512A1.512,1.512,0,0,1,7299.653,21703.008Zm-9.833,0a1.515,1.515,0,1,1,1.512,1.512A1.512,1.512,0,0,1,7289.82,21703.008Zm-9.829,0a1.514,1.514,0,1,1,1.513,1.512A1.512,1.512,0,0,1,7279.991,21703.008Zm-9.833,0a1.515,1.515,0,1,1,1.512,1.512A1.512,1.512,0,0,1,7270.158,21703.008Zm-9.833,0a1.515,1.515,0,1,1,1.513,1.512A1.512,1.512,0,0,1,7260.325,21703.008Zm-9.833,0a1.515,1.515,0,1,1,1.513,1.512A1.512,1.512,0,0,1,7250.492,21703.008Zm-9.828,0a1.514,1.514,0,1,1,1.512,1.512A1.512,1.512,0,0,1,7240.664,21703.008Zm-9.833,0a1.514,1.514,0,1,1,1.512,1.512A1.512,1.512,0,0,1,7230.831,21703.008Zm-9.833,0a1.514,1.514,0,1,1,1.512,1.512A1.512,1.512,0,0,1,7221,21703.008Zm117.982-9.834a1.515,1.515,0,1,1,1.513,1.514A1.517,1.517,0,0,1,7338.98,21693.174Zm-9.833,0a1.514,1.514,0,1,1,1.513,1.514A1.518,1.518,0,0,1,7329.147,21693.174Zm-9.829,0a1.514,1.514,0,1,1,1.512,1.514A1.517,1.517,0,0,1,7319.319,21693.174Zm-9.833,0a1.515,1.515,0,1,1,1.513,1.514A1.517,1.517,0,0,1,7309.486,21693.174Zm-9.833,0a1.515,1.515,0,1,1,1.513,1.514A1.517,1.517,0,0,1,7299.653,21693.174Zm-9.833,0a1.515,1.515,0,1,1,1.512,1.514A1.517,1.517,0,0,1,7289.82,21693.174Zm-9.829,0a1.514,1.514,0,1,1,1.513,1.514A1.517,1.517,0,0,1,7279.991,21693.174Zm-9.833,0a1.515,1.515,0,1,1,1.512,1.514A1.517,1.517,0,0,1,7270.158,21693.174Zm-9.833,0a1.515,1.515,0,1,1,1.513,1.514A1.517,1.517,0,0,1,7260.325,21693.174Zm-9.833,0a1.515,1.515,0,1,1,1.513,1.514A1.517,1.517,0,0,1,7250.492,21693.174Zm-9.828,0a1.514,1.514,0,1,1,1.512,1.514A1.517,1.517,0,0,1,7240.664,21693.174Zm-9.833,0a1.514,1.514,0,1,1,1.512,1.514A1.517,1.517,0,0,1,7230.831,21693.174Zm-9.833,0a1.514,1.514,0,1,1,1.512,1.514A1.517,1.517,0,0,1,7221,21693.174Zm117.982-9.828a1.515,1.515,0,1,1,1.513,1.514A1.514,1.514,0,0,1,7338.98,21683.346Zm-9.833,0a1.514,1.514,0,1,1,1.513,1.514A1.514,1.514,0,0,1,7329.147,21683.346Zm-9.829,0a1.514,1.514,0,1,1,1.512,1.514A1.513,1.513,0,0,1,7319.319,21683.346Zm-9.833,0a1.515,1.515,0,1,1,1.513,1.514A1.514,1.514,0,0,1,7309.486,21683.346Zm-9.833,0a1.515,1.515,0,1,1,1.513,1.514A1.514,1.514,0,0,1,7299.653,21683.346Zm-9.833,0a1.515,1.515,0,1,1,1.512,1.514A1.513,1.513,0,0,1,7289.82,21683.346Zm-9.829,0a1.514,1.514,0,1,1,1.513,1.514A1.514,1.514,0,0,1,7279.991,21683.346Zm-9.833,0a1.515,1.515,0,1,1,1.512,1.514A1.513,1.513,0,0,1,7270.158,21683.346Zm-9.833,0a1.515,1.515,0,1,1,1.513,1.514A1.514,1.514,0,0,1,7260.325,21683.346Zm-9.833,0a1.515,1.515,0,1,1,1.513,1.514A1.514,1.514,0,0,1,7250.492,21683.346Zm-9.828,0a1.514,1.514,0,1,1,1.512,1.514A1.513,1.513,0,0,1,7240.664,21683.346Zm-9.833,0a1.514,1.514,0,1,1,1.512,1.514A1.513,1.513,0,0,1,7230.831,21683.346Zm-9.833,0a1.514,1.514,0,1,1,1.512,1.514A1.513,1.513,0,0,1,7221,21683.346Zm117.982-9.834a1.515,1.515,0,1,1,1.513,1.514A1.512,1.512,0,0,1,7338.98,21673.512Zm-9.833,0a1.514,1.514,0,1,1,1.513,1.514A1.512,1.512,0,0,1,7329.147,21673.512Zm-9.829,0a1.514,1.514,0,1,1,1.512,1.514A1.511,1.511,0,0,1,7319.319,21673.512Zm-9.833,0a1.515,1.515,0,1,1,1.513,1.514A1.512,1.512,0,0,1,7309.486,21673.512Zm-9.833,0a1.515,1.515,0,1,1,1.513,1.514A1.512,1.512,0,0,1,7299.653,21673.512Zm-9.833,0a1.515,1.515,0,1,1,1.512,1.514A1.511,1.511,0,0,1,7289.82,21673.512Zm-9.829,0a1.514,1.514,0,1,1,1.513,1.514A1.512,1.512,0,0,1,7279.991,21673.512Zm-9.833,0a1.515,1.515,0,1,1,1.512,1.514A1.511,1.511,0,0,1,7270.158,21673.512Zm-9.833,0a1.515,1.515,0,1,1,1.513,1.514A1.512,1.512,0,0,1,7260.325,21673.512Zm-9.833,0a1.515,1.515,0,1,1,1.513,1.514A1.512,1.512,0,0,1,7250.492,21673.512Zm-9.828,0a1.514,1.514,0,1,1,1.512,1.514A1.511,1.511,0,0,1,7240.664,21673.512Zm-9.833,0a1.514,1.514,0,1,1,1.512,1.514A1.511,1.511,0,0,1,7230.831,21673.512Zm-9.833,0a1.514,1.514,0,1,1,1.512,1.514A1.512,1.512,0,0,1,7221,21673.512Z" transform="translate(-5995.295 -20920.5)" fill="#9c2555"/>
    </g>
  </g>
</svg>
