<svg xmlns="http://www.w3.org/2000/svg" width="26" height="26" viewBox="0 0 26 26">
  <path id="Path_3005" data-name="Path 3005" d="M32.9,30H13.1A3.1,3.1,0,0,1,10,26.9V7.1A3.1,3.1,0,0,1,13.1,4H32.9A3.1,3.1,0,0,1,36,7.1V26.9A3.1,3.1,0,0,1,32.9,30ZM13.715,22.64h0a10.585,10.585,0,0,0,16.293-8.916c0-.174-.005-.349-.01-.482a7.515,7.515,0,0,0,1.856-1.927,7.464,7.464,0,0,1-2.139.587,3.72,3.72,0,0,0,1.637-2.059,7.442,7.442,0,0,1-2.364.9,3.723,3.723,0,0,0-6.34,3.395,10.478,10.478,0,0,1-4.307-1.159,10.569,10.569,0,0,1-3.364-2.731,3.729,3.729,0,0,0,1.152,4.971,3.734,3.734,0,0,1-1.686-.466V14.8a3.734,3.734,0,0,0,2.984,3.65,3.7,3.7,0,0,1-.979.13,3.619,3.619,0,0,1-.7-.068A3.724,3.724,0,0,0,19.222,21.1a7.52,7.52,0,0,1-5.507,1.54Z" transform="translate(-10 -4)" fill="#717780"/>
</svg>
