<svg xmlns="http://www.w3.org/2000/svg" xmlns:xlink="http://www.w3.org/1999/xlink" width="279" height="317.812" viewBox="0 0 279 317.812">
  <defs>
    <linearGradient id="linear-gradient" x1="0.5" x2="0.5" y2="0.821" gradientUnits="objectBoundingBox">
      <stop offset="0" stop-color="#bcbdbe"/>
      <stop offset="1" stop-color="#fff" stop-opacity="0"/>
    </linearGradient>
  </defs>
  <g id="Group_6974" data-name="Group 6974" transform="translate(-836 -3717.188)">
    <rect id="Rectangle_1460" data-name="Rectangle 1460" width="231" height="13" rx="6.5" transform="translate(860 3998)" fill="url(#linear-gradient)"/>
    <g id="Group_6971" data-name="Group 6971" transform="translate(-119 9.348)">
      <path id="Path_24689" data-name="Path 24689" d="M130.585,1122.094l-16.023,3.135L96.1,1130.454s-6.618,4.877-8.708,7.663-6.27,9.4-6.618,15.327-1.393,63.4-1.393,63.4-.7,40.755-.7,41.8,2.787,8.36,5.225,10.8,4.877,5.922,9.057,6.27,13.236-2.438,16.72-4.528,7.315-4.528,7.315-4.528l-.754,16.7,117.013.645-.265-4.8,10.1,1.393,6.967-1.742,6.27-5.922,5.922-9.4,3.483-21.6,1.742-29.956-1.045-29.957.348-13.236.348-15.327-2.787-10.8-5.225-8.012s-6.27-6.618-9.753-7.315-14.978-3.832-14.978-3.832l-12.54-1.741-3.483,9.4-6.967,10.8-11.843,6.967-9.753,3.135.348,9.4,4.18,13.933,3.483,7.663-5.573,4.18-9.753,5.225-2.438-6.27-3.135-4.18-3.832-3.483-3.483-6.27-2.787,4.18-3.135,2.09-6.618,13.933-7.315-2.786-5.922-4.18-3.483-4.18,7.315-11.495,3.832-11.147,1.393-10.1-10.8-6.27-7.315-8.012Z" transform="translate(917.629 2705.121)" fill="#d6f0fc"/>
      <path id="Path_24690" data-name="Path 24690" d="M1527.956,2596.769a11.8,11.8,0,0,0-.065,3.13,7.587,7.587,0,0,0,.583,3.152.952.952,0,0,0,1.642-.96c-.121-.214.03.148-.018-.039-.019-.074-.043-.146-.062-.221-.053-.215-.091-.435-.124-.654-.053-.357-.1-.94-.128-1.4-.03-.516-.047-1.032-.044-1.549,0-.226.006-.452.02-.677,0-.078.012-.156.019-.233.017-.208-.043.213.01-.04.251-1.194-1.581-1.7-1.834-.505" transform="translate(-378.407 1386.544)" fill="#003784"/>
      <path id="Path_24691" data-name="Path 24691" d="M886.938,1317.585a18.137,18.137,0,0,0,6.478-8.4,50.564,50.564,0,0,0,2.415-9.974,45.175,45.175,0,0,1,2.516-9.974,16.953,16.953,0,0,1,2.572-4.287,7.059,7.059,0,0,1,3.974-2.753c1.753-.351,3.577-.029,5.352-.2a5.763,5.763,0,0,0,2.481-.717,4.507,4.507,0,0,0,1.793-2.281.957.957,0,0,0-.664-1.17.974.974,0,0,0-1.17.664c-.519,1.294-1.665,1.575-2.955,1.638a45.432,45.432,0,0,0-5.035.18c-3.485.56-5.952,3.85-7.454,6.816-3.138,6.2-2.99,13.35-5.066,19.876a16.777,16.777,0,0,1-6.2,8.948.976.976,0,0,0-.341,1.3.959.959,0,0,0,1.3.341" transform="translate(196.043 2565.567)" fill="#003784"/>
      <path id="Path_24692" data-name="Path 24692" d="M945.328,1251.263a22.82,22.82,0,0,1,7.281-3.575,15.739,15.739,0,0,1,8.062-.431,8.942,8.942,0,0,1,3.808,1.951c.913.809,2.263-.531,1.345-1.345-4.784-4.24-11.919-3.112-17.278-.683a22.774,22.774,0,0,0-4.178,2.441.98.98,0,0,0-.341,1.3.958.958,0,0,0,1.3.341" transform="translate(143.822 2594.872)" fill="#003784"/>
      <path id="Path_24693" data-name="Path 24693" d="M831.677,1188.8c-1.446-1.017-2.8-2.163-4.221-3.212a18.551,18.551,0,0,0-5.786-2.841,18.131,18.131,0,0,0-12.432.823,15.506,15.506,0,0,0-4.119,2.637,7.553,7.553,0,0,0-2.174,2.989,2.288,2.288,0,0,0,.745,2.776,2.559,2.559,0,0,0,2.088-.074,20.435,20.435,0,0,0,2.371-1.092c.4-.206.795-.415,1.2-.616.186-.093.374-.182.562-.27.045-.021.225-.092.039-.019.087-.034.175-.07.265-.1a6.387,6.387,0,0,1,1.573-.147,18.135,18.135,0,0,1,2.172.054,16.248,16.248,0,0,1,6.555,2.066.952.952,0,0,0,.96-1.642,18.307,18.307,0,0,0-5.452-2.039,18.809,18.809,0,0,0-3.672-.352,8.315,8.315,0,0,0-2.87.309c-1.37.528-2.754,1.447-4.015,1.939a5.63,5.63,0,0,1-.868.269c-.2.043.109-.1-.033,0a.525.525,0,0,1-.127,0c.431.169-.223-.133.217.068-.147-.067.16.149.044.033-.047-.047.1.205-.005-.019s.078.217,0-.013c-.005-.015-.014-.1-.026-.108-.045-.026,0,.239.012.095.009-.091,0-.2,0-.289-.005.306-.005.048.02-.057s.056-.181.083-.272c.073-.248-.08.124.047-.114.063-.118.121-.238.189-.354s.125-.2.192-.3c.037-.055.251-.346.122-.179a8.217,8.217,0,0,1,.576-.662,12.181,12.181,0,0,1,3.33-2.417,16,16,0,0,1,10.679-1.412,16.808,16.808,0,0,1,6.289,2.755c1.529,1.108,2.969,2.34,4.513,3.426a.959.959,0,0,0,1.3-.341.971.971,0,0,0-.341-1.3" transform="translate(270.036 2651.217)" fill="#003784"/>
      <path id="Path_24694" data-name="Path 24694" d="M982.634,1167.136c5.3-3.221,12.148-1.839,17.206,1.172a16.234,16.234,0,0,1,3.022,2.242,12.756,12.756,0,0,1,1.1,1.191c-.047-.062.126.173.162.224q.1.141.19.286a6.675,6.675,0,0,1,.348.627c.025.051.048.1.07.154-.01-.024-.075-.2-.021-.044.035.1.072.2.1.3.023.078.041.158.061.237.012.048.017.1.028.146.021.089-.006-.239,0-.023,0,.084.011.168.01.252s-.057.382.008.073c-.015.07-.025.14-.043.21-.013.052-.033.1-.047.153-.043.165.106-.189.015-.029-.036.062-.069.128-.1.191-.022.041-.053.076-.075.115-.062.108.163-.175.029-.035-.061.064-.117.131-.181.193a1.21,1.21,0,0,0-.113.1c-.089.111.065-.025.025-.018.148-.027.2-.1.377-.108-.14.005.226.072.129.02a1.05,1.05,0,0,0-.2-.058c-.24-.06.126.069-.082-.031-.124-.06-.249-.117-.372-.178-3.151-1.566-6.793-3.733-10.421-2.433a.975.975,0,0,0-.664,1.17.959.959,0,0,0,1.17.664c3.17-1.135,6.351.984,9.1,2.312a3.076,3.076,0,0,0,1.374.435,2.057,2.057,0,0,0,1.443-1.028,3.276,3.276,0,0,0,.406-2.716c-.609-2.373-2.852-4.218-4.779-5.534a23.165,23.165,0,0,0-8.861-3.636,16.2,16.2,0,0,0-11.368,1.761.952.952,0,0,0,.96,1.642" transform="translate(110.442 2667.857)" fill="#003784"/>
      <path id="Path_24695" data-name="Path 24695" d="M752.951,1149.759a11.934,11.934,0,0,1-2.408.3c-.221.007-.443.007-.664,0-.112-.006-.225-.013-.337-.026s.007,0,.025,0c-.071-.012-.143-.025-.213-.041-.092-.021-.182-.049-.273-.077-.171-.054.123,0-.039-.023-.216-.029.089,0,.03.036a.535.535,0,0,1-.067-.065s.068.1.072.1a.109.109,0,0,1,0,.129.919.919,0,0,0,.063-.218c.036-.089.205-.408.3-.576.108-.188.223-.372.344-.552s.289-.409.377-.517a13.483,13.483,0,0,1,2.283-2.2,24.59,24.59,0,0,1,14.32-4.732,17.821,17.821,0,0,1,8.589,1.877c1.082.57,2.044-1.071.96-1.642-5.418-2.857-12.055-2.612-17.749-.733a24.561,24.561,0,0,0-7.465,3.886,14.283,14.283,0,0,0-2.6,2.6c-.607.8-1.422,1.912-1.3,2.965.163,1.367,1.68,1.677,2.818,1.709a14.71,14.71,0,0,0,3.428-.373c1.2-.254.69-2.088-.506-1.834" transform="translate(319.743 2689.341)" fill="#003784"/>
      <path id="Path_24696" data-name="Path 24696" d="M934.73,1105.915a20.105,20.105,0,0,1,8.506-3.849,15.133,15.133,0,0,1,7.256.588,18.484,18.484,0,0,1,5.683,3.13,19.066,19.066,0,0,1,3.852,4.141c.243.365.471.741.676,1.129.093.175.18.352.264.532.042.09.117.272.036.073.035.087.07.173.1.261a6.885,6.885,0,0,1,.255.9c.051.226,0-.073,0,0,0,.058.01.116.012.175s0,.11,0,.165c.015.234.018-.078.009-.026a.979.979,0,0,0,.664,1.17.959.959,0,0,0,1.17-.664,6.2,6.2,0,0,0-1.125-4,19.278,19.278,0,0,0-3.89-4.624,18.794,18.794,0,0,0-14.094-4.967,21.024,21.024,0,0,0-10.336,4.226.98.98,0,0,0-.341,1.3.958.958,0,0,0,1.3.341" transform="translate(153.3 2724.597)" fill="#003784"/>
      <path id="Path_24697" data-name="Path 24697" d="M712.114,1104.721a12.214,12.214,0,0,1-1.858.012c-.11-.009-.22-.021-.329-.034.3.036-.046-.011-.108-.023-.21-.041-.407-.109-.612-.165-.228-.063.166.113-.026-.011-.057-.037-.124-.07-.184-.1-.035-.018-.065-.047-.1-.066-.137-.073.172.171.073.056a1.473,1.473,0,0,0-.151-.151c-.072-.061.153.212.031.028-.106-.16-.007-.1,0,.034-.005-.058-.045-.115-.049-.175,0,0-.009.268.01.016a.871.871,0,0,0,.008-.178c0,.025-.065.224.011-.009.021-.064.037-.131.056-.2.012-.041.031-.079.043-.12.048-.161-.106.217-.027.063a7,7,0,0,1,.589-.965c.123-.168-.14.17,0,.007.039-.047.076-.094.115-.141q.1-.121.206-.239c.18-.2.368-.4.561-.586.4-.392.823-.761,1.258-1.113.384-.31.858-.662,1.412-1.042q.869-.6,1.777-1.133a39.374,39.374,0,0,1,4.19-2.154,36.958,36.958,0,0,1,9.673-2.811,20.662,20.662,0,0,1,10.873,1.139.956.956,0,0,0,1.17-.664.976.976,0,0,0-.664-1.17c-6.8-2.858-14.807-1.193-21.345,1.576a35.636,35.636,0,0,0-8.237,4.76,14.274,14.274,0,0,0-2.407,2.326,4.61,4.61,0,0,0-1.153,2.489c-.16,2.667,3.362,2.771,5.193,2.641,1.214-.085,1.223-1.988,0-1.9" transform="translate(355.769 2732.313)" fill="#003784"/>
      <path id="Path_24698" data-name="Path 24698" d="M378.384,1260.191a25.435,25.435,0,0,0-3.505,5.017,23.55,23.55,0,0,0-2.363,5.792,28.466,28.466,0,0,0-.373,4.62,27.843,27.843,0,0,1-.573,3.955c-1.359,6.49-4.245,12.6-7.431,18.372a187.477,187.477,0,0,1-12.664,19.525c-4.444,6.111-9.124,12.047-13.887,17.912-3.772,4.645-7.627,9.224-11.353,13.906q-.507.637-1.008,1.278a.982.982,0,0,0,0,1.345.957.957,0,0,0,1.345,0c3.5-4.486,7.179-8.835,10.779-13.243,4.748-5.813,9.43-11.684,13.907-17.71a209.844,209.844,0,0,0,13.057-19.47,80.831,80.831,0,0,0,8.478-18.9,33.682,33.682,0,0,0,1.317-8.5,11.557,11.557,0,0,1,.128-2.065,16.406,16.406,0,0,1,.852-2.838,27.551,27.551,0,0,1,3.041-5.628,18.505,18.505,0,0,1,1.6-2.019c.828-.9-.514-2.248-1.345-1.345" transform="translate(697.372 2581.568)" fill="#003784"/>
      <path id="Path_24699" data-name="Path 24699" d="M1119,1313.183a81.43,81.43,0,0,0,2.5,25.08,76.465,76.465,0,0,0,8.655,19.974,109.953,109.953,0,0,0,12.51,16.4c4.462,4.923,9.234,9.55,14.01,14.164,4.5,4.353,9.032,8.7,13.212,13.367q.732.817,1.448,1.649c.8.929,2.14-.421,1.344-1.344-4.025-4.675-8.44-9-12.869-13.284-4.716-4.566-9.466-9.1-13.954-13.893a116.453,116.453,0,0,1-12.622-15.748,73.936,73.936,0,0,1-12.439-43q.023-1.681.107-3.361c.06-1.223-1.842-1.22-1.9,0" transform="translate(-12.684 2534.729)" fill="#003784"/>
      <path id="Path_24700" data-name="Path 24700" d="M73.379,1715.447a22.543,22.543,0,0,0,5.94,16.935,17.18,17.18,0,0,0,13.294,5.419,25.146,25.146,0,0,0,12.354-3.8,48.16,48.16,0,0,0,10.907-9.339,99,99,0,0,0,9.364-12.489c2.763-4.284,5.288-8.717,7.68-13.216,2.045-3.849,3.984-7.753,5.913-11.66,1.977-4,3.9-8.021,5.733-12.093,2.515-5.593,4.958-11.218,7.436-16.828,2.381-5.389,4.77-10.778,7.331-16.085q.777-1.609,1.584-3.2c.553-1.089-1.087-2.052-1.642-.96-2.461,4.845-4.693,9.807-6.908,14.768-2.521,5.644-4.986,11.313-7.489,16.965-2.037,4.6-4.069,9.209-6.316,13.711-1.756,3.518-3.474,7.054-5.266,10.554-2.214,4.323-4.524,8.6-7.017,12.768a118.331,118.331,0,0,1-8.6,12.677,60.338,60.338,0,0,1-10.121,10.359,28.05,28.05,0,0,1-11.239,5.551,19.776,19.776,0,0,1-6.048.332,15.072,15.072,0,0,1-6.362-2.142,19.058,19.058,0,0,1-8.434-13.446,23.368,23.368,0,0,1-.192-4.772c.066-1.223-1.836-1.219-1.9,0" transform="translate(922.406 2243.729)" fill="#003784"/>
      <path id="Path_24701" data-name="Path 24701" d="M70.166,1181.539c-.772-15.077-.723-30.152-.466-45.24.131-7.706.263-15.411.291-23.118.023-6.4.066-12.793.531-19.182a95.6,95.6,0,0,1,2.81-18.3,35.256,35.256,0,0,1,2.68-7.13,18.026,18.026,0,0,1,4.17-5.249,38.494,38.494,0,0,1,13.492-7.177,122.448,122.448,0,0,1,16.846-3.956c5.669-1.016,11.367-1.891,17-3.124a60.929,60.929,0,0,0,14.76-4.859,30.469,30.469,0,0,0,2.977-1.734c1.016-.673.064-2.32-.96-1.642a44.84,44.84,0,0,1-13.926,5.614c-5.6,1.417-11.316,2.339-17.005,3.324a168.109,168.109,0,0,0-17.119,3.6,48.492,48.492,0,0,0-14.683,6.477,23.946,23.946,0,0,0-5.418,4.959,24.954,24.954,0,0,0-3.359,6.389,71.757,71.757,0,0,0-3.69,17.569c-.678,6.234-.934,12.511-.987,18.779-.065,7.7-.083,15.4-.211,23.107-.246,14.888-.5,29.768.087,44.652q.122,3.12.283,6.24c.062,1.218,1.964,1.225,1.9,0" transform="translate(927.521 2777.637)" fill="#003784"/>
      <path id="Path_24702" data-name="Path 24702" d="M936.653,1074.207a16.226,16.226,0,0,0,4.724,8.9c1.431,1.341,3.581,2.515,4.372,4.3,1.59,3.589,2.939,7.3,4.431,10.935,4.644,11.307,9.446,22.552,14.532,33.667,5.19,11.342,10.574,22.7,17.057,33.37a65.9,65.9,0,0,0,7.738,10.806c3.641,3.916,8.812,5.807,13.953,6.884a28.63,28.63,0,0,0,10.618.5,13.8,13.8,0,0,0,6.769-3.466c3.661-3.182,6.122-7.523,7.942-11.961a75.809,75.809,0,0,0,4.425-16.9,172.835,172.835,0,0,0,1.847-19.436c.557-12.515.16-25.036-.143-37.551-.122-5.033-.182-10.056-.012-15.089.271-8.081.883-16.3.028-24.361a30.765,30.765,0,0,0-10.26-20.129c-4.974-4.2-11.152-6.593-17.4-8.177-6.55-1.661-13.268-2.512-19.922-3.637-6.206-1.049-12.605-2.245-18.3-5.047a25.307,25.307,0,0,1-6.71-4.678.951.951,0,0,0-1.345,1.345c4.246,4.212,9.9,6.546,15.588,8.076,6.343,1.7,12.883,2.537,19.352,3.608,12.5,2.07,26.876,5.144,33.447,17.273a31.149,31.149,0,0,1,3.687,11.788,104.26,104.26,0,0,1,.3,11.772c-.109,6.619-.541,13.231-.494,19.852.081,11.432.643,22.852.545,34.287-.108,12.631-.645,25.53-3.7,37.84a48.7,48.7,0,0,1-5.811,14.572c-2.459,3.854-6,7.589-10.73,8.25a28.261,28.261,0,0,1-10.338-.807,29.194,29.194,0,0,1-9.028-3.552,11.153,11.153,0,0,1-1.852-1.464c-.6-.559-1.157-1.155-1.7-1.768a50.083,50.083,0,0,1-3.591-4.7c-6.536-9.5-11.641-20.03-16.581-30.415-5.423-11.4-10.474-22.978-15.343-34.625q-2.756-6.592-5.431-13.219c-.639-1.582-1.216-3.207-1.92-4.761-.888-1.959-2.921-3.12-4.456-4.513a14.55,14.55,0,0,1-4.467-8.276c-.236-1.2-2.069-.692-1.834.506" transform="translate(150.322 2802.506)" fill="#003784"/>
      <path id="Path_24703" data-name="Path 24703" d="M415.365,1601.42c.476,5.362.575,10.74.521,16.12-.052,5.1-.2,10.2-.064,15.3.082,3.13.269,6.255.578,9.37a.977.977,0,0,0,.951.951.958.958,0,0,0,.951-.951,151.009,151.009,0,0,1-.627-16.067c.039-5.105.2-10.21.093-15.317-.063-3.141-.223-6.279-.5-9.408a.976.976,0,0,0-.951-.951.958.958,0,0,0-.951.951" transform="translate(616.52 2276.975)" fill="#003784"/>
      <path id="Path_24704" data-name="Path 24704" d="M1510.241,1668.984c-.38,6.328-.72,12.659-.895,19-.12,4.348-.141,8.7-.128,13.045.008,2.689.02,5.378.02,8.068a.951.951,0,0,0,1.9,0c0-4.54-.044-9.079-.017-13.619.029-4.85.167-9.7.382-14.543.177-3.984.4-7.965.637-11.946.073-1.222-1.828-1.218-1.9,0" transform="translate(-361.769 2216.517)" fill="#003784"/>
      <path id="Path_24705" data-name="Path 24705" d="M562.848,1118.056a38.944,38.944,0,0,0,4.832,12.377,37.339,37.339,0,0,0,9.552,10.334,45.3,45.3,0,0,0,7.769,4.615.978.978,0,0,0,1.3-.341.959.959,0,0,0-.341-1.3,41.162,41.162,0,0,1-12.149-8.48,34.107,34.107,0,0,1-7.017-10.739,40.293,40.293,0,0,1-2.114-6.969c-.252-1.2-2.085-.69-1.834.506" transform="translate(484.637 2709.484)" fill="#003784"/>
      <path id="Path_24706" data-name="Path 24706" d="M1120.087,1148.011a43.32,43.32,0,0,0,16.279-6.7,38.07,38.07,0,0,0,12.221-13.274,33.989,33.989,0,0,0,3.521-10.067.978.978,0,0,0-.664-1.17.959.959,0,0,0-1.17.664,32.911,32.911,0,0,1-7.7,15.894,39.879,39.879,0,0,1-13.946,10.052,41.548,41.548,0,0,1-9.046,2.77.96.96,0,0,0-.664,1.17.972.972,0,0,0,1.17.664" transform="translate(-12.678 2709.574)" fill="#003784"/>
      <path id="Path_24707" data-name="Path 24707" d="M1056.062,519.044c5.123-1.953,11.539-2.692,16.074,1.036a.978.978,0,0,0,1.345,0,.958.958,0,0,0,0-1.345c-5.089-4.182-12.081-3.752-17.925-1.525a.978.978,0,0,0-.664,1.17.958.958,0,0,0,1.17.664" transform="translate(44.587 3247.272)" fill="#003784"/>
      <path id="Path_24708" data-name="Path 24708" d="M876.156,928.193a170.957,170.957,0,0,0,17.913-.914.979.979,0,0,0,.951-.951.957.957,0,0,0-.951-.951,170.891,170.891,0,0,1-17.913.914.952.952,0,0,0,0,1.9" transform="translate(205.23 2880.747)" fill="#003784"/>
      <path id="Path_24709" data-name="Path 24709" d="M954.128,953.8c2.366-.533,4.811-1.007,6.808-2.472a.979.979,0,0,0,.341-1.3.958.958,0,0,0-1.3-.341c-1.87,1.372-4.138,1.781-6.354,2.28-1.193.269-.688,2.1.505,1.834" transform="translate(135.736 2859.124)" fill="#003784"/>
      <path id="Path_24710" data-name="Path 24710" d="M696.821,848.023c1.6,8.574,6.094,16.208,11.807,22.69,1.2,1.361,2.452,2.672,3.734,3.955a.951.951,0,0,0,1.345-1.345c-5.305-5.309-10.07-11.293-12.878-18.322a39.952,39.952,0,0,1-2.173-7.483.96.96,0,0,0-1.17-.664.971.971,0,0,0-.664,1.17" transform="translate(364.815 2950.998)" fill="#003784"/>
      <path id="Path_24711" data-name="Path 24711" d="M1087.647,554.552a45.251,45.251,0,0,0,13.623-18.684,74.3,74.3,0,0,0,4.058-15.846c.128-.784.252-1.569.413-2.347.058-.278.119-.556.2-.829.031-.105.07-.208.1-.312.052-.177-.007.031-.035.075.026-.04.036-.09.063-.131a12.241,12.241,0,0,1,2.876-2.722,11.9,11.9,0,0,0,3.445-3.9,8.142,8.142,0,0,0,.911-3.143,26.379,26.379,0,0,0,.048-2.9,55.214,55.214,0,0,0-.735-7.522,16.96,16.96,0,0,0-1.779-5.983,2.621,2.621,0,0,0-1.8-1.4,2.35,2.35,0,0,0-2.089,1.048,7.984,7.984,0,0,0-.862,1.373c-.55,1.09,1.09,2.054,1.642.96.114-.224.232-.447.362-.662.063-.1.13-.2.2-.306.025-.037.053-.073.077-.11.116-.173-.115.132.005-.008s.225-.234.337-.354c.025-.026.156-.115.014-.014-.166.116,0,0,.012,0,.088.006.242-.074-.014-.015a.95.95,0,0,1,.174-.052c.143-.005-.285.019-.082.018s-.257-.06-.053-.009-.059-.056-.033-.024a.775.775,0,0,0,.158.095c.106.053-.167-.18-.038-.024.044.053.1.1.15.153.168.174-.01-.029.027.028a7.877,7.877,0,0,1,.52.937c.114.243-.036-.11.044.105.036.1.075.193.111.29.085.231.162.465.235.7a26.947,26.947,0,0,1,.75,3.2,50.4,50.4,0,0,1,.747,7.055c.038.973.052,1.949,0,2.922-.01.2-.023.391-.04.586-.007.075-.015.149-.022.224-.03.318.024-.09-.008.079a6.092,6.092,0,0,1-.287,1.059,9.368,9.368,0,0,1-3.048,3.916,17.774,17.774,0,0,0-3.331,3.051,8.165,8.165,0,0,0-1.065,3.577,85.435,85.435,0,0,1-3.427,14.636,44.316,44.316,0,0,1-11.509,17.822q-1.157,1.068-2.391,2.047a.956.956,0,0,0,0,1.345.974.974,0,0,0,1.345,0" transform="translate(16.712 3271.113)" fill="#003784"/>
      <path id="Path_24712" data-name="Path 24712" d="M611.5,296.15c-7.515,0-15.82.563-22.147,5.08a22.68,22.68,0,0,0-7.112,8.558,35.615,35.615,0,0,0-2.364,6.383c-.618,2.283-1,4.617-1.467,6.934-.5,2.5-1.036,4.992-1.636,7.469a46.6,46.6,0,0,1-1.812,6.316c-.7,1.76-2.324,2.894-3.809,3.97-1.608,1.166-3.308,2.406-4.124,4.286a5.3,5.3,0,0,0,.5,5.493,16.942,16.942,0,0,0,3.658,2.82,5.654,5.654,0,0,1,1.289,1.291,2.2,2.2,0,0,1,.344.862,1.35,1.35,0,0,1,.054.442,4.307,4.307,0,0,1-.035.784c.024-.166-.02.083-.023.095-.017.075-.035.149-.056.223s-.047.146-.071.218c-.08.241.088-.174-.021.057a4.8,4.8,0,0,1-.489.814c.106-.144-.17.2-.222.259-.116.129-.237.254-.361.376-.284.278-.585.538-.894.788-.246.2-.479.372-.818.617s-.662.471-1,.7c-.747.522-1.493,1.045-2.214,1.6a10.657,10.657,0,0,0-3.275,3.693,6.608,6.608,0,0,0-.164,5.294c.882,2.145,2.3,4.032,2.986,6.267a6.456,6.456,0,0,1,.214,3.4c-.281,1.19,1.552,1.7,1.834.506.618-2.613-.317-5.148-1.5-7.451-.89-1.728-2.12-3.372-2.107-5.264a4.652,4.652,0,0,1,.467-1.961,6.248,6.248,0,0,1,1.286-1.738,26.243,26.243,0,0,1,3.857-3,14.684,14.684,0,0,0,3.554-3.132,4.991,4.991,0,0,0,.671-4.631,7.481,7.481,0,0,0-3.27-3.383,14.151,14.151,0,0,1-1.714-1.223c-.121-.109-.238-.222-.349-.341-.06-.064-.118-.13-.175-.2-.183-.216.1.148-.065-.084a2.408,2.408,0,0,1-.44-.894,2.521,2.521,0,0,1-.1-.945,4.45,4.45,0,0,1,.294-1.409,5.589,5.589,0,0,1,1.462-2.029c1.437-1.359,3.214-2.307,4.643-3.686a8.06,8.06,0,0,0,1.773-2.415,21.363,21.363,0,0,0,.97-2.806c.7-2.364,1.262-4.769,1.795-7.175,1.028-4.639,1.631-9.428,3.193-13.93a23.78,23.78,0,0,1,5.876-9.592,21.132,21.132,0,0,1,8.662-4.8,44.769,44.769,0,0,1,11.279-1.568c1.056-.035,2.112-.048,3.168-.049a.951.951,0,0,0,0-1.9" transform="translate(484.69 3443.494)" fill="#003784"/>
      <path id="Path_24713" data-name="Path 24713" d="M1083.134,298.022a27.3,27.3,0,0,1,6.723,1.445,15.074,15.074,0,0,1,4.562,2.661c2.806,2.471,4.409,5.968,5.659,9.487.938,2.642,1.707,5.343,2.477,8.037a.952.952,0,0,0,1.834-.506c-1.3-4.564-2.543-9.3-4.839-13.49a16.975,16.975,0,0,0-8.453-7.736,28,28,0,0,0-7.963-1.8.957.957,0,0,0-.951.951.972.972,0,0,0,.951.951" transform="translate(20.148 3443.524)" fill="#003784"/>
      <path id="Path_24714" data-name="Path 24714" d="M99.892,31.3A101.3,101.3,0,0,0,73.65,33.255c-9.442,1.851-19.262,4.9-26.887,10.983A24.678,24.678,0,0,0,39.038,54.3a17.549,17.549,0,0,0-1.357,6.2c-.006,2.123,1.1,4.22,2.079,6.037,1.2,2.225,2.6,4.339,3.872,6.525a24.625,24.625,0,0,1,1.5,2.87,7.689,7.689,0,0,1,.371,1.094,1.841,1.841,0,0,1,.088.84c.02-.229-.025.124-.058.194.1-.216-.164.186-.033.035a10.087,10.087,0,0,1-1.211,1.1,21.565,21.565,0,0,1-2.668,1.85,48.76,48.76,0,0,1-6.451,3.143c-8.753,3.629-20.223,6.626-24.255,16.242-.733,1.749-1.358,3.672-.639,5.526a9.386,9.386,0,0,0,3.37,3.939c3.386,2.527,7.412,4.077,11.108,6.074a19.1,19.1,0,0,1,4.467,3.02,7.946,7.946,0,0,1,.582.646,4.918,4.918,0,0,1,.286.432c.053.09.249.5.2.378a3.426,3.426,0,0,1,.135.414c.016.064.076.452.056.256a4.407,4.407,0,0,1,.011.478c0,.081-.047.269.009,0a1.892,1.892,0,0,1-.059.241c-.082.234.071-.089-.06.144-.061.108-.123.213-.19.318a.833.833,0,0,1-.175.231q-.194.226-.406.436a13.08,13.08,0,0,1-1.832,1.478,58.979,58.979,0,0,1-5.775,3.408c-4.52,2.425-9.178,4.623-13.547,7.32a25.294,25.294,0,0,0-4.9,3.674c-1.493,1.531-2.95,3.75-3.035,5.95-.148,3.842,4.452,5.161,6.663,7.462a5.118,5.118,0,0,1,1.264,2.086c.04.135.166.891.128.5a.85.85,0,0,1,0,.235c-.01.047.053-.171-.016.068-.035.121-.062.243-.1.362a3.344,3.344,0,0,1-.242.613c-.143.3-.292.6-.449.9-.38.714-.792,1.412-1.206,2.107-2.122,3.566-4.36,7.127-5.684,11.087-1.286,3.847-1.44,8.169,1.405,11.371a14.624,14.624,0,0,0,6.38,3.813c1.162.393,1.66-1.443.506-1.834a11.909,11.909,0,0,1-5.906-3.769,7.627,7.627,0,0,1-1.4-4.938c.16-4.01,2.279-7.84,4.238-11.235.925-1.6,1.911-3.172,2.828-4.781a10.822,10.822,0,0,0,1.5-3.407c.279-1.7-.885-3.5-2.033-4.65a44.229,44.229,0,0,0-4.294-3.215,4.937,4.937,0,0,1-1.455-1.6,2.614,2.614,0,0,1-.125-1.821,9.762,9.762,0,0,1,3.476-4.961,37.5,37.5,0,0,1,5.33-3.508c2.269-1.3,4.592-2.507,6.913-3.712,4-2.074,8.276-4.019,11.807-6.858,1.04-.837,2.186-1.914,2.326-3.32a5.125,5.125,0,0,0-1.594-3.915,18.011,18.011,0,0,0-4.456-3.2c-1.839-1.028-3.745-1.934-5.627-2.879a45.815,45.815,0,0,1-5.469-3.084,8.41,8.41,0,0,1-3.143-3.3,3.718,3.718,0,0,1-.237-1.632,11.266,11.266,0,0,1,1.036-3.135,16.586,16.586,0,0,1,4.19-5.418c3.695-3.218,8.4-5.135,12.9-6.924,4.537-1.8,9.27-3.43,13.393-6.1a22.979,22.979,0,0,0,2.6-1.94,3.716,3.716,0,0,0,1.469-1.981c.356-1.77-.8-3.729-1.62-5.209-1.18-2.139-2.531-4.179-3.751-6.3C41.065,65.023,39.846,62.984,39.61,61a13.39,13.39,0,0,1,1.11-5.8,19.723,19.723,0,0,1,2.856-5.085,31.27,31.27,0,0,1,10.045-8.12A63.444,63.444,0,0,1,67.1,36.741a105.015,105.015,0,0,1,27.637-3.7c1.718,0,3.437.043,5.152.162,1.221.084,1.216-1.818,0-1.9" transform="translate(988 3680.531)" fill="#003784"/>
      <path id="Path_24715" data-name="Path 24715" d="M937.734,34.8a71.938,71.938,0,0,1,20.239,2.685c5.806,1.658,11.67,4.139,16.234,8.186a20.08,20.08,0,0,1,4.786,6.088,15.243,15.243,0,0,1,1.214,3.509,9.478,9.478,0,0,1,0,3.551c-.484,2.974-1.563,5.984-1.42,9.028a6.348,6.348,0,0,0,1.326,3.649,16.9,16.9,0,0,0,2.877,2.989c1.979,1.625,4.256,2.936,5.932,4.9a9.249,9.249,0,0,1,1.807,3.374,9.371,9.371,0,0,1,.416,2.1,5.131,5.131,0,0,1-.111,1.379c-.52,2.658-1.78,5.146-2.739,7.661a18.034,18.034,0,0,0-1.039,3.442,4.212,4.212,0,0,0,.334,2.953c1.219,1.941,3.432,3.2,5.429,4.183,1.809.894,3.812,1.691,5.141,3.085A5.376,5.376,0,0,1,999.477,110a9.125,9.125,0,0,1,.053,3.96,6.366,6.366,0,0,1-1.868,2.729,36.459,36.459,0,0,0-2.81,2.968,4.414,4.414,0,0,0-1.141,3.3,8.024,8.024,0,0,0,1.3,2.88c1.032,1.648,2.424,3.2,3.556,4.669a14.334,14.334,0,0,1,2.673,5.012,13.274,13.274,0,0,1-.558,7.318,31.232,31.232,0,0,1-2.235,5.038c-.58,1.078,1.061,2.039,1.642.96a25.214,25.214,0,0,0,3.318-9.8,12.391,12.391,0,0,0-1.363-6.677,29.822,29.822,0,0,0-3.5-4.906,26.55,26.55,0,0,1-1.657-2.215,9.8,9.8,0,0,1-1.282-2.464,1.68,1.68,0,0,1,.169-1.054,6.325,6.325,0,0,1,.981-1.385c.906-1.018,1.938-1.914,2.846-2.928a6.483,6.483,0,0,0,1.827-3.311,12.189,12.189,0,0,0-.1-4.544,8.1,8.1,0,0,0-3.984-5.005c-1.875-1.12-3.956-1.854-5.78-3.066a8.277,8.277,0,0,1-2.305-2.116,1.916,1.916,0,0,1-.137-.244c.081.171.007.008-.014-.081s-.042-.174-.056-.263c.036.225,0-.144,0-.2a4.48,4.48,0,0,1,.174-1.352,67.511,67.511,0,0,1,2.8-7.6,16.828,16.828,0,0,0,.994-3.782,9.423,9.423,0,0,0-.6-4.087,13.716,13.716,0,0,0-5.049-6.34c-2.084-1.588-4.333-3.039-5.848-5.231a4.892,4.892,0,0,1-.81-3.334,28.112,28.112,0,0,1,.72-4.4,40.145,40.145,0,0,0,.824-4.622,10.716,10.716,0,0,0-.4-3.866,18.864,18.864,0,0,0-3.774-7.046c-3.854-4.647-9.438-7.658-15.007-9.756a69.529,69.529,0,0,0-20.247-4.129q-2.539-.154-5.085-.134a.951.951,0,0,0,0,1.9" transform="translate(150.157 3678.936)" fill="#003784"/>
      <path id="Path_24716" data-name="Path 24716" d="M666.346,1687.8a21.009,21.009,0,0,0,6.471,6.389,27.048,27.048,0,0,0,8.51,4.121.952.952,0,0,0,.506-1.834,25.431,25.431,0,0,1-7.923-3.838,19,19,0,0,1-5.922-5.8.952.952,0,0,0-1.642.96" transform="translate(392.172 2200.139)" fill="#003784"/>
      <path id="Path_24717" data-name="Path 24717" d="M1056.361,1698.306a83.123,83.123,0,0,0,8.483-4.063,19.508,19.508,0,0,0,7.088-6.35c.639-1.048-1.005-2-1.642-.96a17.9,17.9,0,0,1-6.674,5.823,86.651,86.651,0,0,1-8.215,3.908.958.958,0,0,0-.341,1.3.975.975,0,0,0,1.3.341" transform="translate(44.514 2200.049)" fill="#003784"/>
      <path id="Path_24718" data-name="Path 24718" d="M1016.8,215.222a20.457,20.457,0,0,1,2.782-4.7,20.93,20.93,0,0,1,1.649-1.847q.4-.4.825-.769.2-.174.405-.342c.066-.054.133-.107.2-.16-.162.127.108-.08.136-.1a9.735,9.735,0,0,1,1.513-.911c.184-.09-.163.06-.038.016.044-.015.087-.035.131-.05.1-.033.2-.067.3-.093.135-.034.37,0,.068-.026a1.055,1.055,0,0,0,.287-.007c.136-.049-.251-.038-.105-.013a.548.548,0,0,1,.1.027c.048.018-.248-.1-.018.009-.192-.094-.175-.141-.093-.063.108.1-.141-.217-.064-.087.156.262-.066-.138.027.043.019.037.01.087.029.122.073.14,0-.241-.01-.072,0,.1,0,.208,0,.311,0,.058-.01.116-.015.174.02-.248.02-.127.008-.067-.03.162-.061.322-.1.481a22.672,22.672,0,0,1-3.379,6.409c-.679,1.022.967,1.976,1.642.96a25.8,25.8,0,0,0,3.5-6.6c.333-1.107.51-2.669-.7-3.325-1.07-.582-2.424.07-3.348.642a16.6,16.6,0,0,0-3.786,3.37,22.776,22.776,0,0,0-3.78,6.16.957.957,0,0,0,.664,1.17.975.975,0,0,0,1.17-.664" transform="translate(80.307 3525.626)" fill="#003784"/>
      <path id="Path_24719" data-name="Path 24719" d="M802.122,571.53c.07,1.843-.115,3.681-.122,5.523a.951.951,0,0,0,1.9,0c.007-1.842.193-3.68.122-5.523-.047-1.22-1.949-1.226-1.9,0" transform="translate(270.73 3198.028)" fill="#003784"/>
      <path id="Path_24720" data-name="Path 24720" d="M1101.723,577.332v4.541a.951.951,0,0,0,1.9,0v-4.541a.951.951,0,0,0-1.9,0" transform="translate(2.673 3192.84)" fill="#003784"/>
      <path id="Path_24721" data-name="Path 24721" d="M759.056,512.222a18.345,18.345,0,0,1,8.946-.263c2.491.52,5.21,1.478,6.947,3.432,1.689,1.9,2.487,4.841,2.924,7.366a47.958,47.958,0,0,1,.464,9.756c-.13,3.894-.5,7.775-.824,11.656a.959.959,0,0,0,.951.951.97.97,0,0,0,.951-.951c.589-7.052,1.462-14.269.39-21.317a18.3,18.3,0,0,0-3.049-8.234c-1.722-2.3-4.585-3.57-7.3-4.272a20.54,20.54,0,0,0-10.908.041.952.952,0,0,0,.506,1.834" transform="translate(310.186 3252.569)" fill="#003784"/>
      <path id="Path_24722" data-name="Path 24722" d="M944.907,827.376c2.623.089,5.233-.237,7.854-.246a.951.951,0,0,0,0-1.9c-2.621.009-5.232.335-7.854.246-1.224-.042-1.222,1.86,0,1.9" transform="translate(143.741 2970.312)" fill="#003784"/>
      <path id="Path_24723" data-name="Path 24723" d="M435.391,2471.731a.951.951,0,1,0-.951-.951.961.961,0,0,0,.951.951" transform="translate(599.459 1499.46)" fill="#003784"/>
      <path id="Path_24724" data-name="Path 24724" d="M427.867,2470.973c-.054,2.93-.066,5.859.019,8.789a33.151,33.151,0,0,1-.121,4.193c-.152,1.561-.35,3.119-.545,4.675a.956.956,0,0,0,.951.951.975.975,0,0,0,.951-.951c.277-2.214.615-4.446.686-6.68.05-1.592-.058-3.189-.076-4.781-.024-2.065,0-4.13.037-6.2a.951.951,0,0,0-1.9,0" transform="translate(605.919 1499.258)" fill="#003784"/>
      <path id="Union_40" data-name="Union 40" d="M9.064,55.346a2.116,2.116,0,1,1,2.116,2.116A2.114,2.114,0,0,1,9.064,55.346Zm.993-8.526c-.018-.736-.009-1.478.031-2.215a22.749,22.749,0,0,1,1.806-7.661A31.625,31.625,0,0,1,15.5,30.853c1.474-2.021,3.055-3.963,4.528-5.984a30.3,30.3,0,0,0,4.03-6.657,13.19,13.19,0,0,0,.867-6.839,10.683,10.683,0,0,0-3.217-6.06A13.758,13.758,0,0,0,10.268,2.059c-3.918.594-7.458,2.785-8.406,6.808-.279,1.19-2.117.682-1.833-.509A9.957,9.957,0,0,1,.564,6.733C2.339,2.512,6.728.434,11.082.06A15.32,15.32,0,0,1,23.674,4.593c3.616,3.949,4.075,9.624,2.084,14.457a33.908,33.908,0,0,1-4.3,7.081c-1.536,2.08-3.176,4.08-4.672,6.186a27.8,27.8,0,0,0-3.539,6.329,21.712,21.712,0,0,0-1.281,8.173.872.872,0,0,1-.927.918A.929.929,0,0,1,10.057,46.82Z" transform="translate(1161.171 3708.355)" fill="#881543" stroke="rgba(0,0,0,0)" stroke-width="1"/>
      <path id="Path_24727" data-name="Path 24727" d="M765.214,570.445a11.594,11.594,0,0,1,6.294-.486c1.195.246,1.705-1.587.506-1.834a13.486,13.486,0,0,0-7.305.486.976.976,0,0,0-.664,1.17.959.959,0,0,0,1.17.664" transform="translate(304.706 3200.511)" fill="#003784"/>
      <path id="Path_24728" data-name="Path 24728" d="M1080.855,570.358a16.6,16.6,0,0,1,6.661.426.952.952,0,0,0,.506-1.834,18.963,18.963,0,0,0-7.672-.426.957.957,0,0,0-.664,1.17.976.976,0,0,0,1.17.664" transform="translate(22.407 3200.08)" fill="#003784"/>
      <path id="Path_24729" data-name="Path 24729" d="M0,0H240V1.8H0Z" transform="translate(970.049 3988.213)" fill="#003784"/>
    </g>
  </g>
</svg>
