<svg xmlns="http://www.w3.org/2000/svg" width="507.198" height="277.66" viewBox="0 0 507.198 277.66">
    <g data-name="Group 7103" transform="translate(-174.693 -16310.786)">
        <path data-name="Path 25073" d="M482.876 132.288S375.865 260.817 243.86 260.817 4.85 132.288 4.85 132.288 111.861 3.759 243.86 3.759s239.016 128.529 239.016 128.529" transform="translate(196.414 16327.629)" style="fill:#d6f0fc"/>
        <path data-name="Path 25074" d="M238.444 111.2a106.8 106.8 0 1 1-106.8-106.8 106.8 106.8 0 0 1 106.8 106.8" transform="translate(290.547 16330.633)" style="fill:#fff"/>
        <path data-name="Path 25075" d="M240.236 112.988a106.8 106.8 0 1 1-106.8-106.8 106.8 106.8 0 0 1 106.8 106.8" transform="translate(298.982 16339.068)" style="fill:#d6f0fc"/>
        <circle data-name="Ellipse 202" cx="112.33" cy="112.33" r="112.33" transform="translate(315.25 16333.42)" style="stroke:#003a85;fill:none;stroke-miterlimit:10;stroke-width:4px"/>
        <path data-name="Path 25076" d="M84.361 40.885s-19.52-21.513-27.74-14.321-29.378-12.232-29.378-12.232" transform="translate(301.836 16377.404)" style="stroke:#8e2a48;fill:none;stroke-miterlimit:10;stroke-width:4px"/>
        <path data-name="Path 25077" d="M90.631 25.652s-18.493 11.3-35.959 0S24.82 32.5 24.82 32.5" transform="translate(290.428 16413.248)" style="stroke:#8e2a48;fill:none;stroke-miterlimit:10;stroke-width:4px"/>
        <path data-name="Path 25078" d="M85.208 30.859s-17.523 10.274-32.906 0-26.33 10.851-26.33 10.851" transform="translate(295.852 16441.945)" style="stroke:#8e2a48;fill:none;stroke-miterlimit:10;stroke-width:4px"/>
        <path data-name="Path 25079" d="M53.27 37.622s7.192-15.314 24.658-13.276 25.845-9.321 25.845-9.321" transform="translate(424.367 16380.667)" style="stroke:#8e2a48;fill:none;stroke-miterlimit:10;stroke-width:4px"/>
        <path data-name="Path 25080" d="M54.71 29.477s23.63 3.345 34.932-5.28 22.6 5.919 22.6 5.919" transform="translate(431.146 16410.994)" style="stroke:#8e2a48;fill:none;stroke-miterlimit:10;stroke-width:4px"/>
        <path data-name="Path 25081" d="M53.27 28.041s7.654 9.692 27.849 5.126c22.654-5.126 27.854 8.545 27.854 8.545" transform="translate(424.367 16441.945)" style="stroke:#8e2a48;fill:none;stroke-miterlimit:10;stroke-width:4px"/>
        <path data-name="Path 25082" d="M35.45 28.7S58.053-.07 113.533 10.2" transform="translate(340.473 16347.531)" style="stroke:#003a85;fill:none;stroke-miterlimit:10;stroke-width:4px"/>
        <path data-name="Path 25083" d="M112.693 54.979A37.244 37.244 0 1 1 75.45 17.735c4.7 0 13.339 2.46 13.339 2.46s-11.307 11.707 0 21.576c12.089 10.554 20.657-2.026 20.657-2.026s3.247 9.805 3.247 15.234z" transform="translate(353.447 16393.426)" style="stroke:#003a85;fill:none;stroke-miterlimit:10;stroke-width:4px"/>
        <path data-name="Path 25084" d="M502.644 135.479s-112.376 134.979-251 134.979S.651 135.479.651 135.479 113.027.5 251.648.5s250.996 134.979 250.996 134.979z" transform="translate(176.645 16312.286)" style="stroke:#003a85;fill:none;stroke-miterlimit:10;stroke-width:4px"/>
    </g>
</svg>
