<svg xmlns="http://www.w3.org/2000/svg" width="299.605" height="403.505" viewBox="0 0 299.605 403.505">
    <g data-name="Group 7057">
        <path data-name="Path 3236" d="M119.832 43.971A43.474 43.474 0 1 1 76.361.5a43.469 43.469 0 0 1 43.471 43.471" transform="translate(179.773 1.5)" style="fill:#d6f0fc"/>
        <path data-name="Path 3237" d="m107.19 76.942 48.435 85.373 18.4-.221L202.96 21.772c-8.387-22.376-29.384-8.107-29.384-8.107l-15.9 61.982-16.4-35.136s-11.112-29.711-42.942-20.3C1.867 48.71 12.447 150.46 12.447 150.46s2.342 69.1 70.271 69.1H164.7l18.739 112.434s7.216 22.955 28.109 19.91c24.1-3.514 19.91-31.622 19.91-31.622l-19.91-118.316s-4.685-28.148-19.91-27.269-99.291 0-99.291 0z" transform="translate(65.347 49.308)" style="fill:#d6f0fc"/>
        <path data-name="Path 3238" d="M39.814 46.555H4.522s1.75 39.82 36.886 44.505v43.21h92.524V91.451s29.8-8.589 35.656-44.9h-40.764" transform="translate(23.593 255.106)" style="fill:#d6f0fc"/>
        <path data-name="Path 3239" d="M115.832 43.971A43.474 43.474 0 1 1 72.361.5a43.469 43.469 0 0 1 43.471 43.471z" transform="translate(157.746 1.5)" style="stroke:#003884;fill:none;stroke-miterlimit:10;stroke-width:4px"/>
        <path data-name="Path 3240" d="m103.19 76.942 48.435 85.373 18.4-.221L198.96 21.772c-8.387-22.376-29.384-8.107-29.384-8.107l-15.9 61.982-16.4-35.136s-11.112-29.711-42.942-20.3C-2.133 48.71 8.447 150.46 8.447 150.46s2.342 69.1 70.271 69.1H160.7l18.739 112.434s7.216 22.955 28.109 19.91c24.1-3.514 19.91-31.622 19.91-31.622l-19.91-118.316s-4.685-28.148-19.91-27.269-99.291 0-99.291 0" transform="translate(43.32 49.308)" style="stroke:#003884;fill:none;stroke-miterlimit:10;stroke-width:4px"/>
        <path data-name="Path 3241" d="M35.814 46.555H.522s1.75 39.82 36.886 44.505v43.21h92.524V91.451s29.8-8.589 35.656-44.9h-40.764" transform="translate(1.568 255.106)" style="stroke:#003884;fill:none;stroke-miterlimit:10;stroke-width:4px"/>
        <path data-name="Path 3242" d="M32.5 43.334 8.975 81.222h15.1v21.458l24.408-35.662H32.5z" transform="translate(48.115 237.368)" style="stroke:#902946;fill:none;stroke-miterlimit:10;stroke-width:4px"/>
    </g>
</svg>
