<svg xmlns="http://www.w3.org/2000/svg" width="271.851" height="404.013" viewBox="0 0 271.851 404.013">
    <g data-name="Group 7056">
        <path data-name="Union 11" d="m200.737 381.535-17.046-102.817H109.11c-61.792 0-63.924-63.191-63.924-63.191S32.4 105.215 102.718 88.078c60.373-14.718 62.861 42.841 62.861 42.841v65.892h45.814s15.632 2.116 15.632 20.355c0 16.019-14.113 19.736-20.272 20.6a81.605 81.605 0 0 0 1.44-.071c13.851-.8 18.115 24.93 18.115 24.93l18.11 108.2s3.81 25.707-18.11 28.917a23.354 23.354 0 0 1-3.408.258c-16.389-.005-22.163-18.465-22.163-18.465zm-10.023-143.516H163.8c9.49.035 18.992.044 26.914 0zm-72.842-.327zm-84.32 156.341v-44.627C1.591 345.123 0 308.705 0 308.705h150.155c-5.328 33.206-32.439 41.058-32.439 41.058v44.27zM150.457 39.751A39.547 39.547 0 1 1 190.005 79.5a39.648 39.648 0 0 1-39.548-39.749z" transform="translate(27.179 2.003)" style="fill:#d6f0fc"/>
        <path data-name="Path 3038" d="M48.034 82.922a16.857 16.857 0 0 1-33.713 0c0-9.312 16.857-27.781 16.857-27.781S48.034 73.61 48.034 82.922" transform="translate(69.872 271.979)" style="fill:#fff"/>
        <path data-name="Path 3039" d="M81.984 84.78v82.468H168.5s23.211-.363 23.211-20.855c0-18.237-15.714-20.349-15.714-20.349h-46.055v-65.9s-2.5-57.555-63.19-42.841C-3.935 34.442 8.917 144.757 8.917 144.757s2.142 63.19 64.261 63.19h74.971l17.136 102.818s6.6 20.992 25.7 18.207c22.039-3.213 18.207-28.917 18.207-28.917l-18.207-108.2s-4.284-25.734-18.207-24.931-90.8 0-90.8 0" transform="translate(38.601 72.774)" style="fill:none;stroke:#003884;stroke-miterlimit:10;stroke-width:4px"/>
        <path data-name="Path 3040" d="M105.453 40.253A39.756 39.756 0 1 1 65.7.5a39.751 39.751 0 0 1 39.753 39.753z" transform="translate(127.4 1.5)" style="fill:none;stroke:#003884;stroke-miterlimit:10;stroke-width:4px"/>
        <path data-name="Path 3041" d="M151.47 52.383H.522s1.6 36.415 33.731 40.7v44.626h84.61v-44.27s27.252-7.854 32.607-41.056z" transform="translate(1.568 258.327)" style="fill:none;stroke:#003884;stroke-miterlimit:10;stroke-width:4px"/>
        <path data-name="Path 3042" d="M44.034 82.922a16.857 16.857 0 0 1-33.713 0c0-9.312 16.857-27.781 16.857-27.781S44.034 73.61 44.034 82.922" transform="translate(50.071 271.979)" style="fill:#902946"/>
    </g>
</svg>
