<svg xmlns="http://www.w3.org/2000/svg" width="372.597" height="442.386" viewBox="0 0 372.597 442.386">
    <g data-name="Group 7073">
        <path data-name="Path 24865" d="M305.959.119s-6.3 17.477 2.184 52.2c11.695 47.833 79.912 114.189 35.057 268.67-24.509 84.414-41.269 121.043-41.269 121.043H60.713S43.952 405.4 19.443 320.984C-25.407 166.5 42.811 105.7 54.5 57.867 62.987 23.148 56.684 1.2 56.684 1.2z" transform="translate(14.295 .359)" style="fill:#d7f0fd"/>
        <path data-name="Path 24866" d="M66.543 199.975a64.148 64.148 0 0 0 1.541-28.194c-2.678-15.406-.716-33.369-.716-33.369s-41.586-62.666-39.98-79.848 10.77-31.389 31.659-37.905 29.462-9.481 53.029 2.961 37.623 20.737 29.054 50.95-39.207 59.076-41.5 66.508c-1.294 4.2.721 9.646-1.211 53.658-1.58 36.043-14.455 75.637-11.925 75.658z" transform="translate(91.133 50.177)" style="fill:#fff"/>
        <path data-name="Path 24867" d="M43.718 180.1s11.482-7.935 17.8-25.538 1.667-30.712.825-38.66c-.464-4.367 21.392-31.1 30.348-56.749 5.678-16.27 7.879-38.179 7.879-38.179" transform="translate(145.842 70.048)" style="stroke:#0b2c7b;fill:none;stroke-miterlimit:10;stroke-width:4px"/>
        <path data-name="Path 24868" d="M28.847 31.107c6.19-4.7 14.738-11.082 31.889-14.85 24.887-5.461 37.024-2.162 64.637 14.85" transform="translate(96.16 46.189)" style="stroke:#0b2c7b;fill:none;stroke-miterlimit:10;stroke-width:4px"/>
        <path data-name="Path 24869" d="M79.578 180.1s-10.067-7.935-16.387-25.538-1.667-30.712-.825-38.66c.464-4.367-21.392-31.1-30.343-56.749-5.682-16.27-8.582-38.179-8.582-38.179" transform="translate(78.099 70.048)" style="stroke:#0b2c7b;fill:none;stroke-miterlimit:10;stroke-width:4px"/>
        <path data-name="Path 24870" d="m106.109 191.1 3.047-59.019S64.5 82.994 61.875 38.6c0 0-4.74-12.5-23.116-3.468S24.682 63.074 24.682 63.074s-7.54-1.289-7.045-1.32c.239-.013-.4.247-.495.03-1.576-3.49-7.705-25.677 20.941-37.532 22.573-9.342 38.157 1.172 38.157 1.172s26.01 14.456 44.017 14.065 47.793-14.976 47.793-14.976 28.616-18.054 56.128 4.558C244.3 45.61 235.005 59.21 235.005 59.21s-2.058.339-7.31-.838c0 0-.534-18.683-19.856-24.5-24.613-7.406-23.224.356-23.224.356s-8.361 54.878-46.791 99.612l.165 52.022" transform="translate(51.567 59.051)" style="fill:#fff"/>
        <path data-name="Path 24871" d="M23.289 71.173s-21.57-19.261-8.513-36.416 44.178 1.064 49 8.886a72.7 72.7 0 0 1 7.545 17.945S53.354 32.421 29.392 36.732s-6.1 34.441-6.1 34.441" transform="translate(35.123 92.273)" style="fill:#fff"/>
        <path data-name="Path 24872" d="M95.972 73.294s27.734-8.2 23.263-29.284-40.4-17.924-48.1-12.906a72.613 72.613 0 0 0-14.486 13s28.7-18.692 48.523-4.554-9.2 33.747-9.2 33.747" transform="translate(189.055 91.519)" style="fill:#fff"/>
        <path data-name="Path 24873" d="m112.771 195.893 2.969-54.262a15.48 15.48 0 0 0-3.551-9.311C101.81 119.818 70.781 79.608 68.537 43.4c0 0-4.237-12.328-23.116-3.468s-11.2 28.4-11.2 28.4-16.743-1.341-19.9-.512c0 0-6.546-27.417 17.624-40.983 30.222-16.969 57.787 0 57.787 0s22.33 12.328 40.831 11.942S174.1 23.362 174.1 23.362s25.425-18.106 58.559 3.468 15.124 40.731 15.124 40.731-10.114-2.592-15.51-3.746c0 0 3.872-16.027-10.787-23.116-18.553-8.973-30.048-3.082-30.048-3.082s-4.332 49.452-43.045 95.249a16.485 16.485 0 0 0-3.911 10.766l.178 49.608" transform="translate(44.905 54.259)" style="stroke:#0b2c7b;fill:none;stroke-miterlimit:10;stroke-width:4px"/>
        <path data-name="Path 24874" d="M90.569 73.892c-17.88 1.346-33.16-7.909-34.12-20.676S69.2 29.011 87.087 27.661s33.156 7.909 34.12 20.676-12.758 24.209-30.638 25.555z" transform="translate(188.215 91.941)" style="stroke:#0b2c7b;fill:none;stroke-miterlimit:10;stroke-width:4px"/>
        <path data-name="Path 24875" d="M51.21 32.025c16.213 7.666 24.921 23.259 19.447 34.836S47.607 81.6 31.4 73.937 6.476 50.678 11.946 39.105 35 24.359 51.21 32.025z" transform="translate(34.233 92.986)" style="stroke:#0b2c7b;fill:none;stroke-miterlimit:10;stroke-width:4px"/>
        <path data-name="Path 24876" d="M24.175 45.473s-1.493-10.462 4.658-16.726" transform="translate(80.018 96.003)" style="stroke:#0b2c7b;fill:none;stroke-miterlimit:10;stroke-width:4px"/>
        <path data-name="Path 24877" d="M66.584 42.209S60.511 27.8 55.541 25.991" transform="translate(185.343 86.796)" style="stroke:#0b2c7b;fill:none;stroke-miterlimit:10;stroke-width:4px"/>
        <path data-name="Path 24878" d="m60.07 146.792-.265-84.457s1.736-34.9-25.724-34.9" transform="translate(113.646 91.614)" style="stroke:#8d2947;fill:none;stroke-miterlimit:10;stroke-width:4px"/>
        <path data-name="Path 24879" d="M40.085 146.792V62.334s-1.736-34.9 25.724-34.9" transform="translate(133.631 91.614)" style="stroke:#8d2947;fill:none;stroke-miterlimit:10;stroke-width:4px"/>
        <path data-name="Path 24880" d="M73.195.119s-6.312 25.642 2.188 59.341c11.712 46.422 80.034 110.824 35.114 260.752-24.549 81.926-41.335 117.474-41.335 117.474" transform="translate(230.849 .359)" style="stroke:#0b2c7b;fill:none;stroke-miterlimit:10;stroke-width:4px"/>
        <path data-name="Path 24881" d="M52.925 1.36S59.237 27 50.737 60.7C39.026 107.123-29.3 166.134 15.624 316.066 40.172 397.992 56.958 433.54 56.958 433.54" transform="translate(1.455 4.505)" style="stroke:#0b2c7b;fill:none;stroke-miterlimit:10;stroke-width:4px"/>
        <path data-name="Path 24882" d="M52.9 56.428s-13.956 53.758-11.677 103.831 10.97 82.513 10.97 82.513" transform="translate(136.666 188.484)" style="stroke:#0b2c7b;fill:none;stroke-miterlimit:10;stroke-width:4px"/>
        <path data-name="Path 24883" d="M36.373 57.635s17.72 48.519 15.441 98.592-10.97 82.513-10.97 82.513" transform="translate(121.303 192.517)" style="stroke:#0b2c7b;fill:none;stroke-miterlimit:10;stroke-width:4px"/>
    </g>
</svg>
