<svg xmlns="http://www.w3.org/2000/svg" width="358.304" height="490.542" viewBox="0 0 358.304 490.542">
    <g data-name="Group 7088" transform="translate(-112.504 -11072.218)">
        <path data-name="Path 3272" d="M250.192 450.614S279.3 270.55 185.357 263.881c0 0 73.909 37.559 14.931 149.275s-204.2 2.707-195.58-172.871c4.31-87.64 18.4-150.434 98.3-209.911 79.338-59.059 160.8-5.868 160.8 56.044s-56.71 109.548-56.71 109.548 79.393 36.294 88.467 122.488 0 140.8 0 140.8" transform="translate(129.537 11090.814)" style="fill:#d7f0fd"/>
        <path data-name="Path 3273" d="M262.413 476.13s31.052-192.077-69.16-199.189c0 0 78.839 40.07 15.929 159.235S-8.311 451.158.894 263.87C5.486 170.383 20.19 91.307 105.411 27.863c84.626-63 171.52-6.261 171.52 59.779S216.441 204.5 216.441 204.5s84.686 38.714 94.365 130.659 0 150.192 0 150.192" transform="translate(114.02 11073.747)" style="stroke:#08297e;fill:none;stroke-miterlimit:10;stroke-width:4px"/>
        <path data-name="Path 3274" d="M29.38 13.375s0 52.989 30.85 38.472 38.109-38.472 38.109-38.472" transform="translate(230.721 11125.773)" style="stroke:#08297e;fill:none;stroke-miterlimit:10;stroke-width:4px"/>
        <path data-name="Path 3275" d="M51.624 17.441s30.85 25.234 18.147 48.826-58.071 0-58.071 0" transform="translate(159.277 11142.204)" style="stroke:#08297e;fill:none;stroke-miterlimit:10;stroke-width:4px"/>
        <path data-name="Path 3276" d="M21.538 32.527s56.256 0 56.256 34.479S7.02 92.412 7.02 92.412" transform="translate(140.367 11203.164)" style="stroke:#08297e;fill:none;stroke-miterlimit:10;stroke-width:4px"/>
        <path data-name="Path 3277" d="M7.02 57.954s47.18-21.954 63.515 0-50.812 49.179-50.812 49.179" transform="translate(140.367 11266.477)" style="stroke:#08297e;fill:none;stroke-miterlimit:10;stroke-width:4px"/>
        <path data-name="Path 3278" d="M11.7 93.771s19.962-46.5 47.182-28.355 13.958 90.736 13.958 90.736" transform="translate(159.277 11319.086)" style="stroke:#08297e;fill:none;stroke-miterlimit:10;stroke-width:4px"/>
        <path data-name="Path 3279" d="M49.642 186.222S-6.211 44.811 72.416 55.831" transform="translate(234.855 11294.857)" style="stroke:#08297e;fill:none;stroke-miterlimit:10;stroke-width:4px"/>
        <path data-name="Path 3280" d="M76.218 21.507S8.57 88.147 57.657 119.612" transform="translate(272.803 11158.634)" style="stroke:#08297e;fill:none;stroke-miterlimit:10;stroke-width:4px"/>
        <circle data-name="Ellipse 190" cx="19.962" cy="19.962" r="19.962" transform="translate(383.197 11420.692)" style="stroke:#8f2947;fill:none;stroke-miterlimit:10;stroke-width:4px"/>
        <path data-name="Path 3281" d="M78.35 67.136A24.839 24.839 0 1 1 53.513 42.3 24.837 24.837 0 0 1 78.35 67.136z" transform="translate(227.859 11242.655)" style="stroke:#8f2947;fill:none;stroke-miterlimit:10;stroke-width:4px"/>
        <path data-name="Line 19" transform="translate(435.521 11400.773)" style="stroke:#8f2947;fill:none;stroke-miterlimit:10;stroke-width:4px" d="M0 13.998 28.027 0"/>
        <path data-name="Line 20" transform="translate(435.521 11437.847)" style="stroke:#8f2947;fill:none;stroke-miterlimit:10;stroke-width:4px" d="M0 0h35.286"/>
        <path data-name="Line 21" transform="translate(437.336 11457.494)" style="stroke:#8f2947;fill:none;stroke-miterlimit:10;stroke-width:4px" d="m0 0 30.245 16.322"/>
        <path data-name="Path 3282" d="M51.082 55.211a9.7 9.7 0 1 1-9.7-9.7 9.7 9.7 0 0 1 9.7 9.7" transform="translate(239.994 11255.614)" style="fill:#8f2947"/>
        <path data-name="Path 3283" d="M75.242 80.966a9.7 9.7 0 1 1-9.7-9.7 9.7 9.7 0 0 1 9.7 9.7" transform="translate(337.621 11359.687)" style="fill:#8f2947"/>
    </g>
</svg>
