<svg xmlns="http://www.w3.org/2000/svg" width="625.221" height="378.416" viewBox="0 0 625.221 378.416">
    <g data-name="Group 7077">
        <path data-name="Path 24897" d="m423.474 197.617-131.189-25.488a102.651 102.651 0 0 0-39.164 0l-131.19 25.488C78.765 206 34.074 186.376 14.889 148.469a89.063 89.063 0 0 1-9.65-40.306c0-28.841 13.895-54.733 35.6-71.859 21.454-16.935 49.994-23.276 77.411-18.781l127.317 20.858a102.911 102.911 0 0 0 31.149.321l152.766-21.84c20.365-2.9 41.4-.038 59.491 9.368 30.418 15.812 51.187 46.67 51.187 81.933a88.98 88.98 0 0 1-9.65 40.306c-19.179 37.907-63.87 57.531-107.036 49.148" transform="translate(27.148 84.177)" style="fill:#d7f0fd"/>
        <path data-name="Path 24898" d="m455.847 219.811-142.468-28.957a106.728 106.728 0 0 0-42.531 0l-142.461 28.957C81.5 229.339 32.976 207.045 12.15 163.982A105.405 105.405 0 0 1 40.318 36.563c23.3-19.23 54.29-26.43 84.074-21.326l138.255 23.692a106.692 106.692 0 0 0 33.823.359l165.9-24.8c22.115-3.309 44.954-.051 64.6 10.638a106.133 106.133 0 0 1 55.592 93.07 104.867 104.867 0 0 1-10.484 45.788c-20.82 43.061-69.353 65.355-116.231 55.827z" transform="translate(7.779 70.491)" style="stroke:#08297e;fill:none;stroke-miterlimit:10;stroke-width:4px"/>
        <path data-name="Path 24899" d="m300.935 143.1-88.492-17.2a69.38 69.38 0 0 0-26.424 0l-88.491 17.2c-29.117 5.655-59.266-7.579-72.205-33.15a60.051 60.051 0 0 1-6.508-27.193c0-19.454 9.374-36.92 24.013-48.475C57.3 22.864 76.548 18.587 95.046 21.62l85.882 14.068a69.329 69.329 0 0 0 21.012.218l103.048-14.729c13.741-1.968 27.924-.032 40.133 6.316 20.518 10.67 34.529 31.476 34.529 55.265a60.05 60.05 0 0 1-6.508 27.193c-12.939 25.571-43.089 38.805-72.205 33.15" transform="translate(100.615 109.415)" style="fill:#fff"/>
        <path data-name="Path 24900" d="M135.66 66.464c0 35.471-34.7 64.223-70.16 64.223a64.223 64.223 0 1 1 0-128.445c35.465 0 70.16 28.751 70.16 64.223" transform="translate(5.707 10.915)" style="fill:#d7f0fd"/>
        <path data-name="Path 24901" d="M140.108 70.3A69.8 69.8 0 1 1 70.307.5a69.8 69.8 0 0 1 69.801 69.8z" transform="translate(1.5 1.499)" style="stroke:#08297e;fill:none;stroke-miterlimit:10;stroke-width:4px"/>
        <path data-name="Path 24902" d="M35.478 26.836c.564 8.015-5.142 14.549-13.177 14.549S9.073 34.871 9.073 26.836C9.073 13.23 22.295 4.2 22.295 4.2c.538 11.608 12.24 9.3 13.183 22.636z" transform="translate(47.898 21.528)" style="stroke:#fff;fill:none;stroke-miterlimit:10;stroke-width:4px"/>
        <path data-name="Path 24903" d="M40.877 33.243c.564 8.015-5.142 14.549-13.177 14.549s-13.228-6.514-13.228-14.549c0-13.606 13.222-22.634 13.222-22.634.538 11.606 12.24 9.297 13.183 22.634z" transform="translate(77.117 56.203)" style="stroke:#08297e;fill:none;stroke-miterlimit:10;stroke-width:4px"/>
        <path data-name="Path 24904" d="M30.768 33.243c.564 8.015-5.13 14.549-13.138 14.549S4.44 41.278 4.44 33.243c0-13.606 13.183-22.634 13.183-22.634.539 11.606 12.202 9.297 13.145 22.634z" transform="translate(22.824 56.203)" style="stroke:#8e2a48;fill:none;stroke-miterlimit:10;stroke-width:4px"/>
        <path data-name="Path 24905" d="M87.04 48.243c.56 8.015-5.13 14.549-13.14 14.549s-13.188-6.514-13.188-14.549c0-13.606 13.183-22.634 13.183-22.634.539 11.606 12.205 9.297 13.145 22.634z" transform="translate(327.367 137.383)" style="stroke:#8e2a48;fill:none;stroke-miterlimit:10;stroke-width:4px"/>
        <path data-name="Path 24906" d="M81.208 51.159c.564 8.015-5.13 14.549-13.138 14.549s-13.19-6.514-13.19-14.549c0-13.606 13.183-22.634 13.183-22.634.537 11.606 12.202 9.297 13.145 22.634z" transform="translate(295.804 153.164)" style="stroke:#08297e;fill:none;stroke-miterlimit:10;stroke-width:4px"/>
        <path data-name="Path 24907" d="M50.208 47.159c.564 8.015-5.13 14.549-13.138 14.549s-13.19-6.514-13.19-14.549c0-13.606 13.183-22.634 13.183-22.634.537 11.606 12.202 9.297 13.145 22.634z" transform="translate(128.033 131.516)" style="stroke:#8e2a48;fill:none;stroke-miterlimit:10;stroke-width:4px"/>
        <path data-name="Path 24908" d="M31.131 73.218 43.2 24.654C46.988 13.061 62.96 4.783 74.444 4.783h114.089c11.49 0 24.718 13.542 24.718 21.743l7.549 46.115" transform="translate(167.275 24.672)" style="stroke:#08297e;fill:none;stroke-miterlimit:10;stroke-width:4px"/>
        <path data-name="Path 24909" d="M31.131 43.483 43.2 92.047c3.789 11.593 19.762 19.871 31.246 19.871h114.087c11.49 0 24.718-13.542 24.718-21.743l7.271-49.086" transform="translate(167.275 234.117)" style="stroke:#08297e;fill:none;stroke-miterlimit:10;stroke-width:4px"/>
        <path data-name="Rectangle 1472" transform="translate(482.414 257.152)" style="fill:#d7f0fd" d="M0 0h127.983v103.874H0z"/>
        <path data-name="Rectangle 1473" transform="translate(583.646 297.805)" style="stroke:#8e2a48;fill:none;stroke-miterlimit:10;stroke-width:4px" d="M0 0h23.596v23.596H0z"/>
        <path data-name="Rectangle 1474" transform="translate(542.269 297.805)" style="stroke:#08297e;fill:none;stroke-miterlimit:10;stroke-width:4px" d="M0 0h23.596v23.596H0z"/>
        <path data-name="Rectangle 1475" transform="translate(591.48 239.263)" style="fill:#08297e" d="M0 0h18.915v17.889H0z"/>
        <path data-name="Rectangle 1476" transform="translate(495.129 239.263)" style="fill:#08297e" d="M0 0h18.178v17.889H0z"/>
        <path data-name="Line 28" transform="translate(482.414 279.466)" style="stroke:#08297e;fill:none;stroke-miterlimit:10;stroke-width:4px" d="M139.365 0H0"/>
        <path data-name="Rectangle 1477" transform="translate(480.105 257.152)" style="stroke:#08297e;fill:none;stroke-miterlimit:10;stroke-width:4px" d="M0 0h143.116v119.263H0z"/>
        <path data-name="Rectangle 1478" transform="translate(501.603 297.805)" style="stroke:#08297e;fill:none;stroke-miterlimit:10;stroke-width:4px" d="M0 0h23.596v23.596H0z"/>
        <path data-name="Rectangle 1479" transform="translate(500.802 334.872)" style="stroke:#8e2a48;fill:none;stroke-miterlimit:10;stroke-width:4px" d="M0 0h23.596v23.596H0z"/>
        <path data-name="Rectangle 1480" transform="translate(542.269 334.872)" style="stroke:#08297e;fill:none;stroke-miterlimit:10;stroke-width:4px" d="M0 0h23.596v23.596H0z"/>
        <path data-name="Rectangle 1481" transform="translate(583.646 334.872)" style="stroke:#08297e;fill:none;stroke-miterlimit:10;stroke-width:4px" d="M0 0h23.596v23.596H0z"/>
    </g>
</svg>
