<svg xmlns="http://www.w3.org/2000/svg" width="614.162" height="592.955" viewBox="0 0 614.162 592.955">
    <g data-name="Group 7080" transform="translate(-45.42 -7708.03)">
        <path data-name="Path 24936" d="M100.351 432.789s-3.7-40.921-9.868-76.383 0-115.082 0-115.082-65.356-99.055-61.654-138.612 24.8-72.277 72.887-87.278S169.542-6.391 223.8 22.252s80.019 47.728 60.289 117.287S226.135 240.472 228.6 258.2s8.636 68.2-3.7 107.751-8.636 66.081-8.636 66.081z" transform="translate(189.115 7719.486)" style="fill:#d7f0fd"/>
        <path data-name="Path 24937" d="M61.395 374.061s-4.366-27.17 10.182-67.693 3.841-70.719 1.9-89.011C72.4 207.3 122.728 145.744 143.34 86.705A265.352 265.352 0 0 0 157.363 15" transform="translate(350.885 7782.605)" style="stroke:#0b2c7b;fill:none;stroke-miterlimit:10;stroke-width:4px"/>
        <path data-name="Path 24938" d="M29.98 44.147c14.252-10.816 41.139-29.4 80.629-38.071C167.9-6.5 195.846 1.093 259.426 40.263" transform="translate(195.676 7709.526)" style="stroke:#0b2c7b;fill:none;stroke-miterlimit:10;stroke-width:4px"/>
        <path data-name="Path 24939" d="M119.146 374.061s4.366-27.17-10.182-67.693-3.841-70.719-1.9-89.011C108.137 207.3 57.813 145.744 37.2 86.705A265.352 265.352 0 0 1 23.178 15" transform="translate(161.4 7782.605)" style="stroke:#0b2c7b;fill:none;stroke-miterlimit:10;stroke-width:4px"/>
        <path data-name="Path 24940" d="m240.137 409.977-4.318-121.194S136.541 173.012 130.5 70.811c0 0-9.494-28.946-51.8-8.141s-29.35 56.074-29.35 56.074-25.041 9.046-33.67 29.845c0 0-37.986-83.208 32.8-116.671s129.5 0 129.5 0 50.029 28.94 91.487 28.034 97.575-36.175 97.575-36.175 56.98-42.51 131.219 8.141S523.3 148.589 523.3 148.589s-13.811-27.134-25.9-29.846c0 0 18.993-37.081-24.169-54.268s-67.337-7.235-67.337-7.235-10.363 123.912-105.323 234.254l.864 118.482" transform="translate(72.32 7742.704)" style="fill:#d7f0fd"/>
        <path data-name="Path 24941" d="m256.408 419.992-4.173-111.8a37.42 37.42 0 0 0-8.588-22.52c-25.092-30.23-100.123-127.46-105.547-215.016 0 0-10.248-29.815-55.9-8.388s-31.669 57.759-31.669 57.759-27.018 9.317-36.331 30.738c0 0-40.988-85.7 35.4-120.167s139.734 0 139.734 0 53.984 29.809 98.722 28.879 105.29-37.268 105.29-37.268 61.485-43.784 141.6 8.388 27.014 120.168 27.014 120.168-14.9-27.943-27.943-30.739c0 0 20.491-38.192-26.083-55.893s-72.663-7.452-72.663-7.452-10.471 119.576-104.08 230.31a39.863 39.863 0 0 0-9.457 26.029l.815 106.972" transform="translate(60.82 7732.284)" style="stroke:#0b2c7b;fill:none;stroke-miterlimit:10;stroke-width:4px"/>
        <path data-name="Path 24942" d="M87.579 32.358c34.248 16.191 52.637 49.141 41.078 73.593s-48.7 31.156-82.942 14.965S-6.922 71.782 4.637 47.323s48.694-31.156 82.942-14.965" transform="translate(50.557 7825.569)" style="fill:#d7f0fd"/>
        <path data-name="Path 24943" d="M151.211 120.351c-38.735 2.917-71.769-16.4-73.787-43.156s27.75-50.814 66.485-53.731 71.77 16.408 73.787 43.162-27.75 50.808-66.485 53.724" transform="translate(434.271 7823.784)" style="fill:#d7f0fd"/>
        <path data-name="Path 24944" d="M155.441 129.9C114.272 133 79.1 111.691 76.884 82.3s29.368-55.736 70.538-58.834 76.341 18.208 78.558 47.6-29.37 55.729-70.539 58.834z" transform="translate(431.479 7823.736)" style="stroke:#0b2c7b;fill:none;stroke-miterlimit:10;stroke-width:4px"/>
        <path data-name="Path 24945" d="M94.66 33.308c37.328 17.646 57.372 53.555 44.774 80.2s-53.066 33.946-90.394 16.3-57.372-53.556-44.774-80.2 53.066-33.947 90.394-16.3z" transform="translate(47.123 7826.34)" style="stroke:#0b2c7b;fill:none;stroke-miterlimit:10;stroke-width:4px"/>
        <path data-name="Path 24946" d="M23.545 63.682S20.1 39.6 34.265 25.176" transform="translate(161.395 7833.874)" style="stroke:#0b2c7b;fill:none;stroke-miterlimit:10;stroke-width:4px"/>
        <path data-name="Path 24947" d="M93.605 50.783S88.212 26.2 76.774 22.037" transform="translate(431.479 7818.056)" style="stroke:#0b2c7b;fill:none;stroke-miterlimit:10;stroke-width:4px"/>
        <rect data-name="Rectangle 1482" width="23.052" height="39.617" rx=".941" transform="translate(337.273 8057.018)" style="stroke:#8d2947;fill:none;stroke-miterlimit:10;stroke-width:4px"/>
        <path data-name="Line 29" transform="translate(348.801 8110.887)" style="stroke:#8d2947;fill:none;stroke-miterlimit:10;stroke-width:4px" d="M0 158.709V0"/>
        <path data-name="Path 24948" d="M64.22 108.209c0 4.632-3.418 8.388-7.64 8.388s-7.633-3.756-7.633-8.388 7.633-13.872 7.633-13.872 7.64 9.24 7.64 13.872z" transform="translate(291.254 8182.388)" style="stroke:#8d2947;fill:none;stroke-miterlimit:10;stroke-width:4px"/>
        <path data-name="Line 30" transform="translate(348.801 8064.355)" style="stroke:#8d2947;fill:none;stroke-miterlimit:10;stroke-width:4px" d="M0 0v3.213"/>
        <path data-name="Line 31" transform="translate(348.801 8073.273)" style="stroke:#8d2947;fill:none;stroke-miterlimit:10;stroke-width:4px" d="M0 0v3.213"/>
        <path data-name="Line 32" transform="translate(348.801 8082.192)" style="stroke:#8d2947;fill:none;stroke-miterlimit:10;stroke-width:4px" d="M0 0v3.213"/>
        <path data-name="Path 24949" d="m60.153 64.517.066 8.3a5.7 5.7 0 0 1-5.419 5.952 5.7 5.7 0 0 1-5.417-5.949v-2.264l.109-6.039" transform="translate(293.461 8032.12)" style="stroke:#8d2947;fill:none;stroke-miterlimit:10;stroke-width:4px"/>
        <path data-name="Line 33" transform="translate(325.941 8028.51)" style="stroke:#8d2947;fill:none;stroke-miterlimit:10;stroke-width:4px" d="m0 0 7.247 14.494"/>
        <path data-name="Line 34" transform="translate(360.328 8028.51)" style="stroke:#8d2947;fill:none;stroke-miterlimit:10;stroke-width:4px" d="M0 14.494 10.544 0"/>
        <path data-name="Line 35" transform="translate(348.266 8012.566)" style="stroke:#8d2947;fill:none;stroke-miterlimit:10;stroke-width:4px" d="M0 15.943V0"/>
    </g>
</svg>
