<svg xmlns="http://www.w3.org/2000/svg" width="618.895" height="467.363" viewBox="0 0 618.895 467.363">
    <g data-name="Group 7085">
        <path data-name="Path 24982" d="M42.56 121.9V63.394s3.125-35.219-18.506-35.219S2.423 58.2 2.423 58.2s-4.325 52.172 0 104.091 25.956 64.894 51.913 86.526 30.288 60.573 30.288 60.573h81.247l-7.7-8.65s-12.975-30.288-8.65-51.919-8.65-38.938-25.956-56.244-51.919-51.913-51.919-51.913S48.862 109.3 32.7 127.682c-9.086 10.342 1.206 23.8 12.981 38.938s48.383 57.715 48.383 57.715" transform="translate(1.513 149.666)" style="fill:#d7f0fd"/>
        <path data-name="Path 24983" d="M7.162 31.08s17.66 3.5 17.66 37.378v44.923" transform="translate(36.912 165.102)" style="fill:#d7f0fd"/>
        <path data-name="Path 24984" d="M195.3 122.053V63.365s-3.132-35.326 18.563-35.326 21.7 30.117 21.7 30.117 4.338 52.336 0 104.407-26.038 65.1-52.077 86.8-30.376 60.752-30.376 60.752h-81.5l7.728-8.682s13.019-30.376 8.675-52.071 8.687-39.062 26.041-56.416l52.077-52.077s22.85-31.462 39.058-13.019c9.111 10.374-1.206 23.867-13.019 39.058s-48.535 57.886-48.535 57.886" transform="translate(379.392 148.943)" style="fill:#d7f0fd"/>
        <path data-name="Path 24985" d="M106.113 30.953S88.4 34.47 88.4 68.445v45.062" transform="translate(468.582 164.427)" style="fill:#d7f0fd"/>
        <path data-name="Path 24986" d="M46.662 127.7V63.487s3.429-38.654-20.312-38.654S2.61 57.785 2.61 57.785s-4.748 57.261 0 114.237 28.49 71.222 56.977 94.962 33.236 66.473 33.236 66.473h89.171l-8.454-9.5s-14.244-33.236-9.5-56.977-9.5-42.733-28.488-61.725l-56.973-56.973s-25-34.417-42.732-14.244c-9.97 11.352 1.32 26.114 14.244 42.733s53.1 63.341 53.1 63.341" transform="translate(1.509 131.906)" style="stroke:#0b2c7b;fill:none;stroke-miterlimit:10;stroke-width:4px"/>
        <path data-name="Path 24987" d="M7.811 28.022s19.384 3.845 19.384 41.021v49.3" transform="translate(40.361 148.852)" style="stroke:#0b2c7b;fill:none;stroke-miterlimit:10;stroke-width:4px"/>
        <path data-name="Path 24988" d="M204.471 127.7V63.487s-3.428-38.654 20.312-38.654 23.74 32.952 23.74 32.952 4.748 57.261 0 114.237-28.488 71.221-56.977 94.961-33.236 66.473-33.236 66.473H69.139l8.454-9.5s14.244-33.236 9.5-56.977 9.5-42.733 28.488-61.725l56.977-56.977s25-34.417 42.733-14.244c9.97 11.352-1.32 26.114-14.244 42.733s-53.1 63.341-53.1 63.341" transform="translate(366.251 131.906)" style="stroke:#0b2c7b;fill:none;stroke-miterlimit:10;stroke-width:4px"/>
        <path data-name="Path 24989" d="M106.887 28.022S87.5 31.867 87.5 69.043v49.3" transform="translate(463.835 148.852)" style="stroke:#0b2c7b;fill:none;stroke-miterlimit:10;stroke-width:4px"/>
        <path data-name="Path 24990" d="M203.732.02s-.581 13.954 40.333 45.208c41.59 31.765 119.825 102.639 105.587 199.166s-136.431 131.083-130.5 181.619H77.978c2.374-34.651-28.469-52.1-46.268-107.09s1.19-96.523 22.54-146.66-7.116-161.825-7.116-161.825z" transform="translate(129.878 .052)" style="fill:#d7f0fd"/>
        <path data-name="Path 24991" d="M50.287 2.5s29.322 111.687 7.33 161.825S16.072 256 34.4 310.989s50.1 72.433 47.651 107.084" transform="translate(143.054 13.22)" style="stroke:#003077;fill:none;stroke-miterlimit:10;stroke-width:4px"/>
        <path data-name="Path 24992" d="M55.521.022s-.6 13.954 41.546 45.208C139.9 76.995 220.472 147.868 205.811 244.4S65.3 375.478 71.407 426.015" transform="translate(293.886 .063)" style="stroke:#003077;fill:none;stroke-miterlimit:10;stroke-width:4px"/>
        <path data-name="Path 24993" d="M95.962 92.8s33.653-26.171 16.549-53.049-56.364-23.444-66.4.543C34.288 68.557 53.2 82.422 53.2 82.422s-17.1 62.293 19.548 91.615c32.056 25.641 71.581 20.457 80.187-4.944 1.932-5.714 8.416-8.4 14.124-6.465 8.8 2.98 19.977 4.395 25.432-4.477 9.774-15.879 17.1-42.764 0-39.1-8.555 1.831-13.745 4.237-16.8 6.188a11.47 11.47 0 0 1-10.02 1.294l-11.706-4.161a11.093 11.093 0 0 1-6.787-14.194c1.812-4.988 1.951-11.056-4.173-16.012-12.824-10.386-21.991 11-29.322 11.611S94.737 102.582 95.962 92.8z" transform="translate(223.226 111.071)" style="stroke:#8d2947;fill:none;stroke-miterlimit:10;stroke-width:4px"/>
        <path data-name="Path 24994" d="M130.368 170.935s28.1 12.217 59.262-37.877 43.377 8.454 64.143 10.948 23.848 5.651 23.848 5.651 2.747 40.226-40.68 78.457c-42.423 37.34-123.86 41.621-166.63-6.642S28.159 104.494 57.487 59.9s85.2-56.711 136.519-36.551" transform="translate(193.708 73.852)" style="stroke:#8d2947;fill:none;stroke-miterlimit:10;stroke-width:4px"/>
    </g>
</svg>
