<svg xmlns="http://www.w3.org/2000/svg" width="433.931" height="504.016" viewBox="0 0 433.931 504.016">
    <g data-name="Group 7083">
        <path data-name="Path 24975" d="M209.216.019s-.683 16.3 47.125 52.82c48.588 37.113 139.99 119.912 123.359 232.685S220.306 438.678 227.233 497.716H62.293c2.774-40.479-33.26-60.874-54.051-125.113S9.626 259.83 34.575 201.255 26.259 12.189 26.259 12.189z" transform="translate(0 .049)" style="fill:#d7f0fd"/>
        <path data-name="Path 24976" d="M30.047 3.017s34.26 130.483 8.567 189.066S-9.925 299.2 11.488 363.437s58.532 84.629 55.673 125.107" transform="translate(15.289 15.331)" style="stroke:#003077;fill:none;stroke-miterlimit:10;stroke-width:4px"/>
        <path data-name="Path 24977" d="M37.341.022s-.7 16.3 48.533 52.82C135.92 89.955 230.06 172.754 212.927 285.527S48.761 438.681 55.9 497.719" transform="translate(190.33 .064)" style="stroke:#003077;fill:none;stroke-miterlimit:10;stroke-width:4px"/>
        <path data-name="Path 24978" d="M84.038 109.28s39.321-30.58 19.334-61.98-65.849-27.392-77.572.63c-13.816 33.028 8.274 49.228 8.274 49.228s-19.98 72.775 22.84 107.035c37.455 29.961 83.634 23.9 93.689-5.774 2.256-6.676 9.829-9.816 16.5-7.554 10.286 3.481 23.34 5.134 29.711-5.225 11.42-18.56 19.986-49.966 0-45.68-9.993 2.14-16.06 4.951-19.627 7.231a13.383 13.383 0 0 1-11.706 1.506l-13.681-4.859a12.959 12.959 0 0 1-7.932-16.578c2.122-5.835 2.28-12.92-4.872-18.706-14.987-12.133-25.693 12.847-34.26 13.56s-22.124-1.402-20.698-12.834z" transform="translate(108.33 128.888)" style="stroke:#003077;fill:none;stroke-miterlimit:10;stroke-width:4px"/>
        <path data-name="Path 24979" d="M155.314 34.467c26.114 26.114 27.718 66.849 3.585 90.982s-64.867 22.529-90.982-3.585-27.723-66.85-3.585-90.983 64.868-22.528 90.982 3.586" transform="translate(240.736 70.198)" style="fill:#d7f0fd"/>
        <path data-name="Path 24980" d="M124 200.278s32.833 14.273 69.233-44.253 50.679 9.877 74.946 12.786 27.858 6.6 27.858 6.6 3.207 47-47.527 91.664c-49.558 43.631-144.71 48.631-194.676-7.762S4.591 122.655 38.851 70.549 138.4 4.3 198.352 27.851" transform="translate(74.078 85.697)" style="stroke:#003077;fill:none;stroke-miterlimit:10;stroke-width:4px"/>
        <path data-name="Path 24981" d="M186.093 82.035a68.931 68.931 0 1 1-68.928-68.928 68.929 68.929 0 0 1 68.928 68.928z" transform="translate(245.838 66.76)" style="stroke:#003077;fill:none;stroke-miterlimit:10;stroke-width:4px"/>
        <path data-name="Line 38" transform="translate(327.402 119.372)" style="stroke:#8e2a48;fill:none;stroke-miterlimit:10;stroke-width:4px" d="m0 0 68.422 58.85"/>
        <path data-name="Line 39" transform="translate(327.308 114.841)" style="stroke:#8e2a48;fill:none;stroke-miterlimit:10;stroke-width:4px" d="M68.617 0 0 65.849"/>
    </g>
</svg>
