<svg xmlns="http://www.w3.org/2000/svg" width="422.877" height="505.219" viewBox="0 0 422.877 505.219">
    <g data-name="Group 7082">
        <path data-name="Path 24963" d="M346.878.119s-7.158 19.848 2.48 59.277c13.281 54.322 90.754 129.68 39.814 305.119-27.835 95.866-46.872 137.464-46.872 137.464H68.36s-19.034-41.6-46.868-137.464C-29.443 189.076 48.029 120.023 61.306 65.7c9.638-39.429 2.48-64.354 2.48-64.354z" transform="translate(16.554 .36)" style="fill:#d7f0fd"/>
        <path data-name="Path 24964" d="m73.833 153.433-.3-66.336s-2.992-38.8-42.057-45.015" transform="translate(123.181 165.269)" style="stroke:#0b2c7b;fill:none;stroke-miterlimit:10;stroke-width:4px"/>
        <path data-name="Path 24965" d="m67.837 143.609-.246-54.776a20.069 20.069 0 0 0-.173-2.495C66.481 79.3 60.753 49.8 30.311 44.962" transform="translate(118.601 176.586)" style="stroke:#8d2947;fill:none;stroke-miterlimit:10;stroke-width:4px"/>
        <path data-name="Path 24966" d="M40.068 153.433V87.1S50.076 46.519 83.49 42.082" transform="translate(156.945 165.269)" style="stroke:#0b2c7b;fill:none;stroke-miterlimit:10;stroke-width:4px"/>
        <path data-name="Path 24967" d="M42.309 143.609V89.385c0-21.977 15.845-41.085 37.585-44.3.291-.044.587-.089.882-.123" transform="translate(165.754 176.586)" style="stroke:#8d2947;fill:none;stroke-miterlimit:10;stroke-width:4px"/>
        <path data-name="Path 24968" d="M73.742.119S66.574 29.24 76.226 67.51c13.3 52.72 90.892 125.859 39.878 296.127-27.878 93.042-46.942 133.412-46.942 133.412" transform="translate(271.281 .36)" style="stroke:#0b2c7b;fill:none;stroke-miterlimit:10;stroke-width:4px"/>
        <path data-name="Path 24969" d="M60.038 1.361s7.168 29.121-2.485 67.391c-13.3 52.72-90.892 119.737-39.878 290.009C45.554 451.8 64.617 492.173 64.617 492.173" transform="translate(1.449 5.24)" style="stroke:#0b2c7b;fill:none;stroke-miterlimit:10;stroke-width:4px"/>
        <path data-name="Path 24970" d="M40.068 64.342s2.144 58.606 4.733 107.294 12.458 80.238 12.458 80.238" transform="translate(156.945 252.747)" style="stroke:#0b2c7b;fill:none;stroke-miterlimit:10;stroke-width:4px"/>
        <path data-name="Path 24971" d="M50.541 64.342s1.908 58.606-.68 107.294S37.4 251.874 37.4 251.874" transform="translate(146.472 252.747)" style="stroke:#0b2c7b;fill:none;stroke-miterlimit:10;stroke-width:4px"/>
        <path data-name="Path 24972" d="M56.156 51.665 44.472 64.7l14 13.247" transform="translate(174.252 202.929)" style="stroke:#8d2947;fill:none;stroke-miterlimit:10;stroke-width:4px"/>
        <path data-name="Line 36" transform="translate(218.726 267.636)" style="stroke:#8d2947;fill:none;stroke-miterlimit:10;stroke-width:4px" d="M36.875 0H0"/>
        <path data-name="Path 24973" d="m33.529 77.951 11.683-13.039-14-13.247" transform="translate(122.14 202.93)" style="stroke:#8d2947;fill:none;stroke-miterlimit:10;stroke-width:4px"/>
        <path data-name="Line 37" transform="translate(130.476 267.839)" style="stroke:#8d2947;fill:none;stroke-miterlimit:10;stroke-width:4px" d="M0 0h36.875"/>
        <path data-name="Path 24974" d="M44.774 5.182s11.358 11.087-2.465 22.175" transform="translate(165.754 20.256)" style="stroke:#0b2c7b;fill:none;stroke-miterlimit:10;stroke-width:4px"/>
    </g>
</svg>
