<svg xmlns="http://www.w3.org/2000/svg" width="491.81" height="458.495" viewBox="0 0 491.81 458.495">
    <g data-name="Group 7076">
        <path data-name="Path 24884" d="M1.609 390.405s55.051 48.322 112.734 48.887c75.818.743 85.3-48.44 125.852-48.44 34.192 0 67.658 48.451 116.039 48.359 37.885-.07 80.668-14.857 120.394-48.8L479.18 36.1c-63.18 36.54-132.721 19.267-155.824.583-50.987-41.238-100.526-44.435-153.994-.054C101.063 93.321 1.539 44.413 1.539 44.413z" transform="translate(6.297 19.194)" style="fill:#d7f0fd"/>
        <path data-name="Path 24885" d="M1.675 45.958c38.111 20.024 73.87 16.283 73.87 16.283s41.965 3.1 90.2-31.28c57-40.624 105.214-40.624 157.294.054 23.6 18.42 46.212 31.091 76.464 31.091 0 0 51.681 0 84.049-30.246" transform="translate(6.892 1.5)" style="stroke:#0b2c7b;fill:none;stroke-miterlimit:10;stroke-width:4px"/>
        <path data-name="Path 24886" d="M97.294 301.758s-67-50.954-67-146.252 52.057-143.56 52.057-143.56-40.119 93.661-36.243 144.906c1.884 24.939 1.6 62.01 51.186 144.906" transform="translate(132.345 51.666)" style="fill:#fff"/>
        <path data-name="Path 24887" d="M50.686 301.758s67-50.954 67-146.252-52.057-143.56-52.057-143.56 40.119 93.661 36.243 144.906c-1.884 24.939-1.6 62.01-51.186 144.906" transform="translate(221.707 51.666)" style="fill:#fff"/>
        <path data-name="Path 24888" d="M.323 73.984s56.23 47.665 115.151 48.219c77.438.732 87.122-47.778 128.549-47.778 34.93 0 69.111 47.789 118.526 47.7 38.7-.07 82.4-14.652 122.978-48.133" transform="translate(.97 323.569)" style="stroke:#0b2c7b;fill:none;stroke-miterlimit:10;stroke-width:4px"/>
        <path data-name="Path 24889" d="M82.346 11.945S30.3 60.2 30.3 155.505s66.99 146.252 66.99 146.252" transform="translate(132.347 51.661)" style="stroke:#0b2c7b;fill:none;stroke-miterlimit:10;stroke-width:4px"/>
        <path data-name="Path 24890" d="M65.63 11.945s52.047 48.257 52.047 143.56-66.99 146.252-66.99 146.252" transform="translate(221.709 51.661)" style="stroke:#0b2c7b;fill:none;stroke-miterlimit:10;stroke-width:4px"/>
        <path data-name="Path 24891" d="M73.875 17.095C55.39 24.495 59.39 55.313 59.39 55.313 41.653 67.08 39.268 93.531 39.268 93.531h69.585s-2.38-26.451-20.116-38.218c0 0 4-30.822-14.485-38.218" transform="translate(171.662 74.234)" style="fill:#fff"/>
        <path data-name="Path 24892" d="M76.6 17.095c18.485 7.4 16.165 38.218 16.165 38.218 22.441 4.861 25.257 56.52 25.257 56.52l-36.55-18.3h-9.741l-32.965 23.86s-1.932-50.147 22.974-62.08c.001 0-3.714-31.713 14.86-38.218z" transform="translate(169.31 74.234)" style="stroke:#0b2c7b;fill:none;stroke-miterlimit:10;stroke-width:4px"/>
        <path data-name="Path 24893" d="M65.864 179.952s-29.59-31.931-27.894-62.161 9.173-44.161 22.42-57.069 16.644-22.08 16.644-28.2 7.477-7.811 8.833 0 3.057 19.023 20.724 29.552 18 32.615 21.058 43.483 11.589 22.42 4.269 36.684-15.818 12.912-22.618 21.067-11.354 19.362-11.354 19.362-25.063 5.889-32.082-2.718" transform="translate(165.664 118.896)" style="fill:#fff"/>
        <path data-name="Path 24894" d="M67.815 193.491s-32.642-35.22-30.763-68.567 10.114-48.709 24.729-62.946 18.356-24.352 18.356-31.1 8.247-8.618 9.743 0 3.375 20.982 22.856 32.593 19.857 35.974 23.233 47.961 12.779 24.729 4.7 40.468-17.446 14.238-24.939 23.227-12.53 21.362-12.53 21.362-27.645 6.498-35.385-2.998z" transform="translate(161.603 109.313)" style="stroke:#0b2c7b;fill:none;stroke-miterlimit:10;stroke-width:4px"/>
        <path data-name="Path 24895" d="M57.879 41.193s-.818 10.491-5.313 12.989-10.491 4.624-9.5 13.8 6.707 13.177 7.348 19.168-2.853 14.991 3.644 19.486a45.419 45.419 0 0 1 10.114 9.49s7.369-9.991 5.372-21.978-6.492-13.866-3-26.166-1.755-6.809-2.374-15.3-.978-13.482-6.291-11.489z" transform="translate(187.847 177.929)" style="stroke:#0b2c7b;fill:none;stroke-miterlimit:10;stroke-width:4px"/>
        <path data-name="Path 24896" d="M59.049 45.649c3.827-3.23 9.232-2.417 10.766 2.438 1.513 4.764 1.5 12.316-.253 16.245-2.169 4.85-5.216 7.509-8.919 10.055-3.725 2.562-8.322.264-9.221-4.4-1.322-6.817-1.901-16.296 7.627-24.338z" transform="translate(221.709 190.898)" style="stroke:#8d2947;fill:none;stroke-miterlimit:10;stroke-width:4px"/>
    </g>
</svg>
