<svg xmlns="http://www.w3.org/2000/svg" width="427.47" height="510.723" viewBox="0 0 427.47 510.723">
    <g data-name="Group 7079" transform="translate(-465.799 -7857.305)">
        <path data-name="Path 24927" d="M350.618.119s-7.236 20.064 2.507 59.924c13.426 54.915 91.745 131.1 40.248 308.451-28.138 96.913-47.38 138.965-47.38 138.965H69.059s-19.242-42.052-47.38-138.965C-29.812 191.139 48.506 121.332 61.928 66.417c9.743-39.86 2.506-65.057 2.506-65.057z" transform="translate(482.558 7857.664)" style="fill:#d7f0fd"/>
        <path data-name="Path 24928" d="m63.918 139.733-.3-47.126S36.822 81.489 34.081 40.822" transform="translate(601.022 8019.813)" style="stroke:#0b2c7b;fill:none;stroke-miterlimit:10;stroke-width:4px"/>
        <path data-name="Path 24929" d="M40.068 139.733V92.608s29.12-7.53 36.894-51.786" transform="translate(624.874 8019.813)" style="stroke:#0b2c7b;fill:none;stroke-miterlimit:10;stroke-width:4px"/>
        <path data-name="Path 24930" d="M73.792.119S66.546 29.558 76.3 68.246c13.446 53.3 91.884 127.234 40.313 299.361-28.179 94.057-47.451 134.868-47.451 134.868" transform="translate(740.776 7857.664)" style="stroke:#0b2c7b;fill:none;stroke-miterlimit:10;stroke-width:4px"/>
        <path data-name="Path 24931" d="M60.688 1.361s7.246 29.439-2.512 68.127c-13.446 53.3-91.884 121.044-40.313 293.176 28.183 94.057 47.455 134.869 47.455 134.869" transform="translate(467.248 7862.612)" style="stroke:#0b2c7b;fill:none;stroke-miterlimit:10;stroke-width:4px"/>
        <path data-name="Path 24932" d="M40.068 64.342s2.168 59.246 4.784 108.465 12.594 81.115 12.594 81.115" transform="translate(624.874 8113.509)" style="stroke:#0b2c7b;fill:none;stroke-miterlimit:10;stroke-width:4px"/>
        <path data-name="Path 24933" d="M50.685 64.342s1.928 59.246-.685 108.465-12.6 81.115-12.6 81.115" transform="translate(614.257 8113.509)" style="stroke:#0b2c7b;fill:none;stroke-miterlimit:10;stroke-width:4px"/>
        <circle data-name="Ellipse 197" cx="12.155" cy="12.155" r="12.155" transform="translate(608.942 8097.114)" style="stroke:#8d2947;fill:none;stroke-miterlimit:10;stroke-width:4px"/>
        <path data-name="Path 24934" d="M73.228 67.389a15.347 15.347 0 1 1-15.345-15.345 15.345 15.345 0 0 1 15.345 15.345z" transform="translate(634.694 8064.518)" style="stroke:#8d2947;fill:none;stroke-miterlimit:10;stroke-width:4px"/>
        <path data-name="Path 24935" d="M48.781 60.184a7.124 7.124 0 1 1-7.122-7.122 7.123 7.123 0 0 1 7.122 7.122z" transform="translate(602.824 8068.573)" style="stroke:#8d2947;fill:none;stroke-miterlimit:10;stroke-width:4px"/>
    </g>
</svg>
