<svg xmlns="http://www.w3.org/2000/svg" width="67.291" height="62.499" viewBox="0 0 67.291 62.499">
    <path data-name="Path 24910" d="M1.549 56.939s7.475 6.561 15.309 6.639c10.3.1 11.583-6.578 17.091-6.578 4.643 0 9.188 6.58 15.758 6.567 5.145-.009 10.955-2.018 16.35-6.627L66.4 8.823c-8.58 4.963-18.024 2.617-21.161.08C38.318 3.3 31.59 2.868 24.329 8.9c-9.275 7.7-22.79 1.057-22.79 1.057z" transform="translate(-.23 -1.08)" style="fill:#d7f0fd"/>
    <path data-name="Path 24911" d="M1.675 6.673a19.355 19.355 0 0 0 10.032 2.212s5.7.421 12.249-4.248C31.7-.88 38.244-.88 45.316 4.644c3.2 2.5 6.276 4.222 10.384 4.222 0 0 7.018 0 11.414-4.107" transform="translate(-.267 .006)" style="stroke:#0b2c7b;fill:none;stroke-miterlimit:10;stroke-width:1.3px"/>
    <path data-name="Path 24912" d="M39.4 51.3a26.086 26.086 0 0 1-9.1-19.861c0-12.942 7.069-19.5 7.069-19.5s-5.448 12.719-4.922 19.678c.256 3.387.218 8.421 6.951 19.678" transform="translate(-7.966 -3.073)" style="fill:#fff"/>
    <path data-name="Path 24913" d="M50.686 51.3a26.086 26.086 0 0 0 9.1-19.861c0-12.942-7.069-19.5-7.069-19.5s5.448 12.719 4.922 19.678c-.256 3.387-.218 8.421-6.951 19.678" transform="translate(-13.451 -3.073)" style="fill:#fff"/>
    <path data-name="Path 24914" d="M.323 73.984s7.636 6.473 15.638 6.548c10.516.1 11.831-6.488 17.457-6.488 4.743 0 9.385 6.49 16.1 6.477 5.255-.009 11.189-1.99 16.7-6.537" transform="translate(.097 -19.761)" style="stroke:#0b2c7b;fill:none;stroke-miterlimit:10;stroke-width:1.3px"/>
    <path data-name="Path 24915" d="M37.367 11.945S30.3 18.5 30.3 31.441A26.087 26.087 0 0 0 39.4 51.3" transform="translate(-7.967 -3.073)" style="stroke:#0b2c7b;fill:none;stroke-miterlimit:10;stroke-width:1.3px"/>
    <path data-name="Path 24916" d="M52.716 11.945s7.068 6.553 7.068 19.5a26.087 26.087 0 0 1-9.1 19.861" transform="translate(-13.451 -3.073)" style="stroke:#0b2c7b;fill:none;stroke-miterlimit:10;stroke-width:1.3px"/>
    <path data-name="Path 24917" d="M43.968 17.1c-2.51 1-1.967 5.19-1.967 5.19-2.409 1.6-2.732 5.19-2.732 5.19h9.45s-.323-3.592-2.732-5.19c0 0 .543-4.186-1.967-5.19" transform="translate(-10.379 -4.458)" style="fill:#fff"/>
    <path data-name="Path 24918" d="M43.874 17.1c2.51 1 2.2 5.19 2.2 5.19 3.048.66 3.43 7.675 3.43 7.675l-4.963-2.485h-1.328l-4.477 3.241s-.262-6.81 3.12-8.431c0-.005-.504-4.311 2.018-5.19z" transform="translate(-10.235 -4.458)" style="stroke:#0b2c7b;fill:none;stroke-miterlimit:10;stroke-width:1.3px"/>
    <path data-name="Path 24919" d="M41.7 48.018s-4.018-4.336-3.788-8.442 1.246-6 3.045-7.75 2.26-3 2.26-3.829 1.015-1.061 1.2 0a5.046 5.046 0 0 0 2.814 4.013c2.4 1.431 2.444 4.429 2.86 5.905s1.574 3.045.58 4.982-2.151 1.753-3.071 2.86a11.589 11.589 0 0 0-1.542 2.629s-3.4.8-4.357-.369" transform="translate(-10.011 -7.199)" style="fill:#fff"/>
    <path data-name="Path 24920" d="M41.162 47.967s-4.433-4.783-4.178-9.311 1.374-6.615 3.358-8.548 2.493-3.307 2.493-4.223 1.12-1.17 1.323 0a5.565 5.565 0 0 0 3.1 4.426c2.646 1.577 2.7 4.885 3.155 6.513s1.735 3.358.639 5.5-2.369 1.933-3.387 3.154a12.81 12.81 0 0 0-1.7 2.9s-3.752.878-4.803-.411z" transform="translate(-9.762 -6.611)" style="stroke:#0b2c7b;fill:none;stroke-miterlimit:10;stroke-width:1.3px"/>
    <path data-name="Path 24921" d="M45.6 38.855a13.985 13.985 0 0 1 .14 3.367 8.481 8.481 0 0 1-.535 1.754 3.976 3.976 0 0 0-.351 2.632 3.508 3.508 0 0 0 .62 1.908 7.53 7.53 0 0 1 .855 1.957 4.334 4.334 0 0 0 .73-2.985c-.272-1.629-.114-1.729-.494-3.424-.393-1.754-.236-.729-.236-1.886.002-1.828-.402-3.598-.729-3.323z" transform="translate(-11.862 -10.304)" style="stroke:#0b2c7b;fill:none;stroke-miterlimit:10;stroke-width:1.3px"/>
    <path data-name="Path 24922" d="M43.5 39.938a9.284 9.284 0 0 1 3.947-.271" transform="translate(-11.519 -10.492)" style="stroke:#8d2947;fill:none;stroke-miterlimit:10;stroke-width:1.3px"/>
    <path data-name="Path 24923" d="M43.5 42.081s2.829-.667 4.254-.234" transform="translate(-11.519 -11.077)" style="stroke:#8d2947;fill:none;stroke-miterlimit:10;stroke-width:1.3px"/>
    <path data-name="Path 24924" d="M43.5 44.73s3.02-.826 4.446-.393" transform="translate(-11.519 -11.752)" style="stroke:#8d2947;fill:none;stroke-miterlimit:10;stroke-width:1.3px"/>
    <path data-name="Path 24925" d="M72.358 47.811a2.306 2.306 0 0 0-1.648 3.45 2.047 2.047 0 0 0 3.716-1.212c.091-2.311-2.447-2.265-2.447-2.265l-15.54-2.014H51.5" transform="translate(-13.67 -12.172)" style="stroke:#8d2947;fill:none;stroke-miterlimit:10;stroke-width:1.3px"/>
    <path data-name="Path 24926" d="M72.358 41.24a2.306 2.306 0 0 1-1.648-3.45A2.047 2.047 0 0 1 74.426 39c.091 2.311-2.447 2.265-2.447 2.265l-15.54 2.014H51.5" transform="translate(-13.67 -9.797)" style="stroke:#8d2947;fill:none;stroke-miterlimit:10;stroke-width:1.3px"/>
</svg>
