<svg xmlns="http://www.w3.org/2000/svg" width="79.03" height="76.294" viewBox="0 0 79.03 76.294">
    <g data-name="PAP SMEAR" transform="translate(-46.945 -7709.409)">
        <path data-name="Path 24936" d="M37.808 57.293s-.472-5.213-1.257-9.73 0-14.66 0-14.66-8.325-12.619-7.851-17.658 3.159-9.207 9.285-11.118 8.64-2.78 15.553.869 10.194 6.08 7.68 14.941-7.383 12.858-7.069 15.116 1.1 8.688-.471 13.726a21.209 21.209 0 0 0-1.1 8.418z" transform="translate(40.623 7709.07)" style="fill:#d7f0fd"/>
        <path data-name="Path 24937" d="M60.859 60.742a19.014 19.014 0 0 1 1.3-8.623c1.853-5.162.489-9.009.242-11.339-.136-1.282 6.275-9.123 8.9-16.644A33.8 33.8 0 0 0 73.084 15" transform="translate(33.218 7706.181)" style="stroke-width:1.3px;stroke:#0b2c7b;fill:none;stroke-miterlimit:10"/>
        <path data-name="Path 24938" d="M29.98 6.06a25.965 25.965 0 0 1 10.271-4.85c7.3-1.6 10.858-.635 18.958 4.355" transform="translate(40.323 7709.526)" style="stroke-width:1.3px;stroke:#0b2c7b;fill:none;stroke-miterlimit:10"/>
        <path data-name="Path 24939" d="M35.4 60.742a19.014 19.014 0 0 0-1.3-8.623c-1.853-5.162-.489-9.009-.242-11.339.136-1.282-6.275-9.123-8.9-16.644A33.8 33.8 0 0 1 23.178 15" transform="translate(41.892 7706.181)" style="stroke-width:1.3px;stroke:#0b2c7b;fill:none;stroke-miterlimit:10"/>
        <path data-name="Path 24940" d="m35.391 58.408-.55-15.439S22.194 28.221 21.424 15.2c0 0-1.209-3.687-6.6-1.037s-3.739 7.143-3.739 7.143S7.9 22.46 6.8 25.11c0 0-4.839-10.6 4.179-14.863a18.806 18.806 0 0 1 16.5 0s6.373 3.687 11.654 3.571S51.557 9.21 51.557 9.21s7.259-5.41 16.716 1.037 3.19 14.863 3.19 14.863-1.759-3.457-3.3-3.8c0 0 2.42-4.724-3.079-6.913s-8.578-.922-8.578-.922a57.848 57.848 0 0 1-13.417 29.839l.11 15.093" transform="translate(45.97 7708.007)" style="fill:#d7f0fd"/>
        <path data-name="Path 24941" d="m35.472 57.879-.532-14.241a4.767 4.767 0 0 0-1.094-2.869C30.65 36.917 21.092 24.531 20.4 13.378c0 0-1.306-3.8-7.121-1.069s-4.034 7.358-4.034 7.358-3.445 1.187-4.628 3.916c0 0-5.221-10.917 4.51-15.308a21.15 21.15 0 0 1 17.8 0s6.877 3.8 12.576 3.679 13.413-4.748 13.413-4.748 7.832-5.578 18.038 1.069S74.4 23.583 74.4 23.583s-1.9-3.56-3.56-3.916c0 0 2.61-4.865-3.323-7.12s-9.256-.949-9.256-.949A57.952 57.952 0 0 1 45 40.936a5.078 5.078 0 0 0-1.2 3.316l.1 13.627" transform="translate(46.496 7708.484)" style="stroke-width:1.3px;stroke:#0b2c7b;fill:none;stroke-miterlimit:10"/>
        <path data-name="Path 24942" d="M12.188 24.653c4.363 2.063 6.705 6.26 5.233 9.375S11.217 38 6.855 35.934.15 29.675 1.622 26.559s6.2-3.969 10.566-1.906" transform="translate(46.966 7704.214)" style="fill:#d7f0fd"/>
        <path data-name="Path 24943" d="M86.74 35.553c-4.934.372-9.143-2.089-9.4-5.5s3.535-6.473 8.469-6.845 9.143 2.09 9.4 5.5-3.535 6.472-8.469 6.844" transform="translate(29.401 7704.295)" style="fill:#d7f0fd"/>
        <path data-name="Path 24944" d="M86.8 36.761c-5.244.4-9.725-2.32-10.007-6.064s3.741-7.1 8.986-7.495 9.725 2.32 10.007 6.064-3.746 7.1-8.986 7.495z" transform="translate(29.529 7704.297)" style="stroke-width:1.3px;stroke:#0b2c7b;fill:none;stroke-miterlimit:10"/>
        <path data-name="Path 24945" d="M12.5 24.907c4.755 2.248 7.309 6.822 5.7 10.217S11.439 39.448 6.684 37.2-.625 30.378.98 26.984s6.76-4.325 11.52-2.077z" transform="translate(47.123 7704.178)" style="stroke-width:1.3px;stroke:#0b2c7b;fill:none;stroke-miterlimit:10"/>
        <path data-name="Path 24946" d="M23.224 30.081s-.439-3.068 1.366-4.905" transform="translate(41.892 7703.833)" style="stroke-width:1.3px;stroke:#0b2c7b;fill:none;stroke-miterlimit:10"/>
        <path data-name="Path 24947" d="M78.918 25.7s-.687-3.132-2.144-3.662" transform="translate(29.529 7704.558)" style="stroke-width:1.3px;stroke:#0b2c7b;fill:none;stroke-miterlimit:10"/>
        <rect data-name="Rectangle 1482" width="2.937" height="5.047" rx=".941" transform="translate(84.522 7754.228)" style="stroke:#8d2947;stroke-width:1.3px;fill:none;stroke-miterlimit:10"/>
        <path data-name="Line 29" transform="translate(85.99 7761.09)" style="stroke:#8d2947;stroke-width:1.3px;fill:none;stroke-miterlimit:10" d="M0 20.218V0"/>
        <path data-name="Path 24948" d="M50.893 96.1a.977.977 0 1 1-1.946 0c0-.59.972-1.767.972-1.767s.974 1.181.974 1.767z" transform="translate(35.948 7687.88)" style="stroke:#8d2947;stroke-width:1.3px;fill:none;stroke-miterlimit:10"/>
        <path data-name="Line 30" transform="translate(85.99 7755.163)" style="stroke-width:4px;stroke:#8d2947;fill:none;stroke-miterlimit:10" d="M0 0v.409"/>
        <path data-name="Line 31" transform="translate(85.99 7756.299)" style="stroke-width:4px;stroke:#8d2947;fill:none;stroke-miterlimit:10" d="M0 0v.409"/>
        <path data-name="Line 32" transform="translate(85.99 7757.435)" style="stroke-width:4px;stroke:#8d2947;fill:none;stroke-miterlimit:10" d="M0 0v.409"/>
        <path data-name="Path 24949" d="m50.757 64.517.008 1.058a.693.693 0 1 1-1.38 0v-.288l.014-.769" transform="translate(35.847 7694.758)" style="stroke-width:1.33px;stroke:#8d2947;fill:none;stroke-miterlimit:10"/>
        <path data-name="Line 33" transform="translate(83.078 7750.597)" style="stroke:#8d2947;stroke-width:1.3px;fill:none;stroke-miterlimit:10" d="m0 0 .923 1.846"/>
        <path data-name="Line 34" transform="translate(87.459 7750.597)" style="stroke:#8d2947;stroke-width:1.3px;fill:none;stroke-miterlimit:10" d="M0 1.846 1.343 0"/>
        <path data-name="Line 35" transform="translate(85.922 7748.565)" style="stroke:#8d2947;stroke-width:1.3px;fill:none;stroke-miterlimit:10" d="M0 2.031V0"/>
    </g>
</svg>
