<svg xmlns="http://www.w3.org/2000/svg" width="57.586" height="68.549" viewBox="0 0 57.586 68.549">
    <g data-name="VAGINAL TIGBHTENING">
        <path data-name="Path 24963" d="M50.681.119s-.968 2.685.335 8.019c1.8 7.349 12.277 17.543 5.386 41.276-3.765 12.969-6.34 18.6-6.34 18.6H13s-2.575-5.627-6.34-18.6C-.227 25.681 10.253 16.34 12.049 8.991a18.426 18.426 0 0 0 .336-8.706z" transform="translate(-1.137 .037)" style="fill:#d7f0fd"/>
        <path data-name="Path 24964" d="m37.206 57.145-.041-8.974s-.4-5.249-5.689-6.09" transform="translate(-10.175 -13.941)" style="stroke:#0b2c7b;fill:none;stroke-miterlimit:10;stroke-width:1.3px"/>
        <path data-name="Path 24965" d="m35.388 58.307-.033-7.41a2.714 2.714 0 0 0-.023-.337c-.127-.952-.9-4.943-5.02-5.6" transform="translate(-9.787 -14.901)" style="stroke:#8d2947;fill:none;stroke-miterlimit:10;stroke-width:1.3px"/>
        <path data-name="Path 24966" d="M40.068 57.145v-8.973s1.354-5.489 5.874-6.09" transform="translate(-13.037 -13.941)" style="stroke:#0b2c7b;fill:none;stroke-miterlimit:10;stroke-width:1.3px"/>
        <path data-name="Path 24967" d="M42.309 58.307v-7.335a6.028 6.028 0 0 1 5.085-5.993l.119-.017" transform="translate(-13.783 -14.901)" style="stroke:#8d2947;fill:none;stroke-miterlimit:10;stroke-width:1.3px"/>
        <path data-name="Path 24968" d="M69.782.119a20.613 20.613 0 0 0 .336 9.117c1.8 7.132 12.3 17.026 5.395 40.06-3.771 12.587-6.35 18.048-6.35 18.048" transform="translate(-22.728 .037)" style="stroke:#0b2c7b;fill:none;stroke-miterlimit:10;stroke-width:1.3px"/>
        <path data-name="Path 24969" d="M8.554 1.361a20.613 20.613 0 0 1-.336 9.117c-1.8 7.132-12.3 16.2-5.395 39.232C6.595 62.3 9.174 67.758 9.174 67.758" transform="translate(.143 -.377)" style="stroke:#0b2c7b;fill:none;stroke-miterlimit:10;stroke-width:1.3px"/>
        <path data-name="Path 24970" d="M40.068 64.342s.29 7.928.64 14.515a48.554 48.554 0 0 0 1.685 10.855" transform="translate(-13.037 -21.356)" style="stroke:#0b2c7b;fill:none;stroke-miterlimit:10;stroke-width:1.3px"/>
        <path data-name="Path 24971" d="M39.18 64.342s.258 7.928-.092 14.515A48.554 48.554 0 0 1 37.4 89.711" transform="translate(-12.149 -21.356)" style="stroke:#0b2c7b;fill:none;stroke-miterlimit:10;stroke-width:1.3px"/>
        <path data-name="Path 24972" d="m46.052 51.665-1.581 1.764 1.894 1.792" transform="translate(-14.504 -17.132)" style="stroke:#8d2947;fill:none;stroke-miterlimit:10;stroke-width:1.3px"/>
        <path data-name="Line 36" transform="translate(29.969 36.296)" style="stroke:#8d2947;fill:none;stroke-miterlimit:10;stroke-width:1.3px" d="M4.988 0H0"/>
        <path data-name="Path 24973" d="m31.525 55.221 1.581-1.764-1.894-1.792" transform="translate(-10.087 -17.132)" style="stroke:#8d2947;fill:none;stroke-miterlimit:10;stroke-width:1.3px"/>
        <path data-name="Line 37" transform="translate(18.03 36.324)" style="stroke:#8d2947;fill:none;stroke-miterlimit:10;stroke-width:1.3px" d="M0 0h4.988"/>
        <path data-name="Path 24974" d="M42.642 5.182a1.9 1.9 0 0 1-.333 3" transform="translate(-13.783 -1.65)" style="stroke:#0b2c7b;fill:none;stroke-miterlimit:10;stroke-width:1.3px"/>
    </g>
</svg>
