<svg xmlns="http://www.w3.org/2000/svg" width="72.358" height="67.214" viewBox="0 0 72.358 67.214">
    <g data-name="VAGINAL CYST">
        <path data-name="Path 24884" d="M1.549 60.935S9.6 68 18.026 68.08C29.108 68.189 30.493 61 36.421 61c5 0 9.889 7.082 16.96 7.068 5.537-.01 11.79-2.171 17.6-7.133L71.35 9.15c-9.235 5.341-19.4 2.817-22.775.086-7.452-6.027-14.693-6.495-22.508-.008-9.982 8.286-24.529 1.138-24.529 1.138z" transform="translate(-.162 -.868)" style="fill:#d7f0fd"/>
        <path data-name="Path 24885" d="M1.675 7.144a20.831 20.831 0 0 0 10.8 2.38s6.134.453 13.184-4.572c8.331-5.938 15.378-5.938 22.99.008C52.094 7.652 55.4 9.5 59.821 9.5c0 0 7.554 0 12.284-4.421" transform="translate(-.192 -.007)" style="stroke:#0b2c7b;fill:none;stroke-miterlimit:10;stroke-width:1.3px"/>
        <path data-name="Path 24886" d="M40.09 54.3a28.076 28.076 0 0 1-9.79-21.371c0-13.929 7.608-20.983 7.608-20.983s-5.864 13.689-5.3 21.179c.275 3.645.234 9.063 7.481 21.179" transform="translate(-6.295 -2.448)" style="fill:#fff"/>
        <path data-name="Path 24887" d="M50.686 54.3a28.076 28.076 0 0 0 9.792-21.376c0-13.929-7.608-20.983-7.608-20.983s5.864 13.689 5.3 21.179c-.275 3.645-.234 9.063-7.481 21.179" transform="translate(-10.642 -2.448)" style="fill:#fff"/>
        <path data-name="Path 24888" d="M.323 73.984s8.218 6.967 16.83 7.048c11.318.107 12.734-6.983 18.789-6.983 5.105 0 10.1 6.985 17.324 6.971 5.656-.01 12.043-2.142 17.974-7.035" transform="translate(.097 -15.677)" style="stroke:#0b2c7b;fill:none;stroke-miterlimit:10;stroke-width:1.3px"/>
        <path data-name="Path 24889" d="M37.906 11.945S30.3 19 30.3 32.928A28.076 28.076 0 0 0 40.09 54.3" transform="translate(-6.296 -2.447)" style="stroke:#0b2c7b;fill:none;stroke-miterlimit:10;stroke-width:1.3px"/>
        <path data-name="Path 24890" d="M52.871 11.945S60.478 19 60.478 32.928A28.076 28.076 0 0 1 50.687 54.3" transform="translate(-10.643 -2.447)" style="stroke:#0b2c7b;fill:none;stroke-miterlimit:10;stroke-width:1.3px"/>
        <path data-name="Path 24891" d="M44.326 17.095c-2.7 1.081-2.117 5.586-2.117 5.586-2.592 1.72-2.941 5.586-2.941 5.586h10.17s-.348-3.866-2.94-5.586c0 0 .585-4.5-2.117-5.586" transform="translate(-8.207 -3.546)" style="fill:#fff"/>
        <path data-name="Path 24892" d="M44.267 17.095c2.7 1.081 2.363 5.586 2.363 5.586 3.28.71 3.691 8.261 3.691 8.261l-5.342-2.675h-1.424l-4.818 3.488s-.282-7.329 3.358-9.074c-.001 0-.543-4.635 2.172-5.586z" transform="translate(-8.093 -3.546)" style="stroke:#0b2c7b;fill:none;stroke-miterlimit:10;stroke-width:1.3px"/>
        <path data-name="Path 24893" d="M41.987 49.6s-4.325-4.667-4.077-9.085 1.341-6.454 3.277-8.341 2.433-3.227 2.433-4.121 1.093-1.142 1.291 0a5.431 5.431 0 0 0 3.029 4.319c2.581 1.54 2.631 4.767 3.078 6.355s1.694 3.277.624 5.362-2.311 1.887-3.305 3.079A12.473 12.473 0 0 0 46.676 50s-3.663.861-4.689-.4" transform="translate(-7.916 -5.719)" style="fill:#fff"/>
        <path data-name="Path 24894" d="M41.481 49.711s-4.771-5.148-4.5-10.022 1.478-7.119 3.614-9.2 2.683-3.559 2.683-4.545 1.205-1.26 1.424 0a5.99 5.99 0 0 0 3.341 4.764c2.848 1.7 2.9 5.258 3.4 7.01s1.868 3.614.688 5.915-2.55 2.081-3.645 3.395a13.787 13.787 0 0 0-1.832 3.122s-4.041.95-5.173-.439z" transform="translate(-7.718 -5.252)" style="stroke:#0b2c7b;fill:none;stroke-miterlimit:10;stroke-width:1.3px"/>
        <path data-name="Path 24895" d="M45.141 40.819s-.12 1.533-.777 1.9-1.533.676-1.388 2.017.98 1.926 1.074 2.8-.417 2.191.533 2.848a6.638 6.638 0 0 1 1.478 1.387 4.668 4.668 0 0 0 .785-3.212c-.292-1.753-.949-2.027-.438-3.824s-.256-1-.347-2.236-.143-1.972-.92-1.68z" transform="translate(-8.995 -8.591)" style="stroke:#0b2c7b;fill:none;stroke-miterlimit:10;stroke-width:1.3px"/>
        <path data-name="Path 24896" d="M51.909 44a.937.937 0 0 1 1.574.356 4.006 4.006 0 0 1-.037 2.374 3.357 3.357 0 0 1-1.3 1.47.869.869 0 0 1-1.348-.643A3.4 3.4 0 0 1 51.909 44z" transform="translate(-10.642 -9.222)" style="stroke:#8d2947;fill:none;stroke-miterlimit:10;stroke-width:1.3px"/>
    </g>
</svg>
