<svg xmlns="http://www.w3.org/2000/svg" width="531.509" height="560.904" viewBox="0 0 531.509 560.904">
    <g data-name="BREAST SURGERY">
        <path data-name="Path 25124" d="M121.793 1.622s17.588 48.858-58.629 89.9S4.536 322.934 4.536 322.934L2.784 552.727h279.26s-9.77-100 0-156.509c0 0-35.176-5.7-46.905-17.425s29.318 30.109 80.129 9.193 58.632-87.362 58.632-87.362-101.627-95.758-125.079-166.109S241 1.622 241 1.622" transform="translate(13.554 8.178)" style="fill:#d6f0fc"/>
        <path data-name="Path 25125" d="M86.105 551.274s-9.77-100 0-156.508c0 0-35.176-5.7-46.905-17.418s29.317 30.1 80.129 9.186 58.629-87.362 58.629-87.362-101.623-95.759-125.076-166.11S45.064.169 45.064.169" transform="translate(195.164 .508)" style="stroke-width:4px;stroke:#003a85;fill:none;stroke-miterlimit:10"/>
        <path data-name="Path 25126" d="M119.511.169s17.588 48.858-58.629 89.9S2.254 321.481 2.254 321.481L.5 551.274" transform="translate(1.508 .508)" style="stroke-width:4px;stroke:#003a85;fill:none;stroke-miterlimit:10"/>
        <path data-name="Line 44" transform="translate(122.771 276.229)" style="stroke-width:4px;stroke:#003a85;fill:none;stroke-miterlimit:10" d="M23.654 0 0 265.779"/>
        <path data-name="Line 45" transform="translate(240.228 274.493)" style="stroke:#8e2a48;stroke-width:4px;fill:none;stroke-miterlimit:10" d="M0 0v75.13"/>
        <path data-name="Path 25127" d="M41.915 71.05s27.352-26.059 96.41-32.564L152.648 51.9s-20.841 4.822-39.082 19.152-71.652 0-71.652 0" transform="translate(220.146 202.789)" style="stroke:#707070;stroke-width:4px;fill:#d6f0fc"/>
        <path data-name="Path 25128" d="M213.608 53.964 71.6 89.529 57.269 76.11l142.01-41.687s24.426-8.8 28.332 3.416c4.27 13.324-14 16.125-14 16.125" transform="translate(301.203 165.159)" style="stroke:#707070;stroke-width:4px;fill:#d6f0fc"/>
        <path data-name="Path 25129" d="M41.915 71.05s27.352-26.059 96.41-32.564L152.648 51.9s-20.841 4.822-39.082 19.152-71.651-.002-71.651-.002z" transform="translate(220.146 202.789)" style="stroke-width:4px;stroke:#003a85;fill:none;stroke-miterlimit:10"/>
        <path data-name="Path 25130" d="M213.608 53.964 71.6 89.529 57.269 76.11l142.01-41.687s24.426-8.8 28.332 3.416c4.269 13.324-14.003 16.125-14.003 16.125z" transform="translate(301.203 165.159)" style="stroke-width:4px;stroke:#003a85;fill:none;stroke-miterlimit:10"/>
        <path data-name="Path 25131" d="M56.9 44.053s-7.8 35.829 16.018 52.111" transform="translate(292.806 232.178)" style="stroke-width:4px;stroke:#003a85;fill:none;stroke-miterlimit:10"/>
    </g>
</svg>
